<?xml version="1.0" encoding="UTF-8" standalone="no"?>
<!-- Created with Inkscape (http://www.inkscape.org/) -->

<svg
   width="210mm"
   height="297mm"
   viewBox="0 0 210 297"
   version="1.1"
   id="svg22842"
   inkscape:version="1.2.1 (9c6d41e410, 2022-07-14, custom)"
   sodipodi:docname="Logo_DutaSakinahFirst.svg"
   xmlns:inkscape="http://www.inkscape.org/namespaces/inkscape"
   xmlns:sodipodi="http://sodipodi.sourceforge.net/DTD/sodipodi-0.dtd"
   xmlns:xlink="http://www.w3.org/1999/xlink"
   xmlns="http://www.w3.org/2000/svg"
   xmlns:svg="http://www.w3.org/2000/svg">
  <sodipodi:namedview
     id="namedview22844"
     pagecolor="#505050"
     bordercolor="#ffffff"
     borderopacity="1"
     inkscape:showpageshadow="0"
     inkscape:pageopacity="0"
     inkscape:pagecheckerboard="1"
     inkscape:deskcolor="#505050"
     inkscape:document-units="mm"
     showgrid="false"
     inkscape:zoom="1"
     inkscape:cx="-788"
     inkscape:cy="844.5"
     inkscape:current-layer="layer1" />
  <defs
     id="defs22839">
    <linearGradient
       inkscape:collect="always"
       id="linearGradient27380">
      <stop
         style="stop-color:#ff0000;stop-opacity:1;"
         offset="0"
         id="stop27376" />
      <stop
         style="stop-color:#ff0000;stop-opacity:0;"
         offset="1"
         id="stop27378" />
    </linearGradient>
    <linearGradient
       inkscape:collect="always"
       id="linearGradient27372">
      <stop
         style="stop-color:#003fbf;stop-opacity:1;"
         offset="0"
         id="stop27368" />
      <stop
         style="stop-color:#002a7f;stop-opacity:1;"
         offset="1"
         id="stop27370" />
    </linearGradient>
    <clipPath
       clipPathUnits="userSpaceOnUse"
       id="clipPath23407">
      <rect
         style="fill:#ffffff;stroke-width:1;stroke-linecap:round;stroke-linejoin:round"
         id="rect23409"
         width="28.926912"
         height="28.926912"
         x="-297.19473"
         y="144.53738" />
    </clipPath>
    <clipPath
       clipPathUnits="userSpaceOnUse"
       id="clipPath24440">
      <g
         id="g24450"
         transform="matrix(1.0831257,0,0,1.0831257,18.997028,-14.470539)">
        <path
           id="path24442"
           style="fill:#ffdd55;fill-opacity:1;stroke-linecap:round;stroke-linejoin:round"
           d="m -237.28304,144.53738 28.92692,18.61967 v 10.30725 h -25.42367 -3.50325 z"
           sodipodi:nodetypes="cccccc" />
        <g
           id="g24448"
           clip-path="url(#clipPath23407)"
           transform="translate(59.911728)">
          <ellipse
             style="fill:#000000;fill-opacity:1;stroke-width:1.70227;stroke-linecap:round;stroke-linejoin:round"
             id="ellipse24444"
             cx="-282.73129"
             cy="145.10251"
             rx="14.826916"
             ry="11.593081" />
          <ellipse
             style="fill:#ffdd55;fill-opacity:1;stroke-width:0.920259;stroke-linecap:round;stroke-linejoin:round"
             id="ellipse24446"
             cx="-282.73129"
             cy="143.53308"
             rx="8.1872416"
             ry="6.1358433" />
        </g>
      </g>
    </clipPath>
    <clipPath
       clipPathUnits="userSpaceOnUse"
       id="clipPath24994">
      <path
         d="m -244.91013,143.53915 c 0,-0.66985 0.33492,-1.00477 1.00478,-1.00477 h 36.32293 c 0.66985,0 1.00478,0.33492 1.00478,1.00477 v 10.60047 c 0,6.5311 -1.64115,11.53827 -4.92343,15.02152 -3.2823,3.48325 -8.00478,5.22487 -14.16746,5.22487 -6.19617,0 -10.95215,-1.74162 -14.26793,-5.22487 -3.31577,-3.48325 -4.97367,-8.49042 -4.97367,-15.02152 z"
         style="font-weight:900;font-size:43.2263px;line-height:1.2;font-family:'Open Sauce Two';-inkscape-font-specification:'Open Sauce Two Heavy';text-align:center;letter-spacing:0px;word-spacing:0px;text-anchor:middle;fill:#ffdd55;fill-opacity:1;stroke-width:1.25598"
         id="path24996"
         sodipodi:nodetypes="ssssssssss" />
    </clipPath>
    <clipPath
       clipPathUnits="userSpaceOnUse"
       id="clipPath27141">
      <g
         id="g27151"
         style="fill:#0024cc;fill-opacity:1"
         transform="matrix(1.1883747,0,0,1.1883747,49.555154,-44.268541)">
        <g
           id="g27145"
           transform="translate(-4.4390964)"
           style="fill:#0024cc;fill-opacity:1">
          <path
             id="path27143"
             style="fill:#0024cc;fill-opacity:1;stroke:none;stroke-width:1;stroke-linecap:round;stroke-linejoin:round;stroke-opacity:1"
             d="m -243.22856,201.98302 v 8.13206 8.13206 h 4.88755 c 1.20526,0 2.28702,-0.50794 3.04581,-1.32136 -0.0124,-0.0133 -0.0255,-0.0263 -0.0377,-0.0398 -0.0447,-0.0492 -0.0879,-0.0995 -0.13023,-0.1509 -0.0423,-0.0514 -0.0836,-0.1037 -0.1235,-0.1571 -0.0399,-0.0534 -0.0784,-0.10743 -0.11576,-0.16278 -0.0373,-0.0553 -0.0733,-0.11177 -0.108,-0.16898 -0.0347,-0.0572 -0.0683,-0.11516 -0.10025,-0.17415 -0.032,-0.059 -0.0623,-0.11915 -0.0915,-0.17983 -0.0146,-0.0303 -0.029,-0.0607 -0.0429,-0.0915 -0.0139,-0.0308 -0.0272,-0.0619 -0.0403,-0.093 -0.0131,-0.0311 -0.0258,-0.0625 -0.0382,-0.0941 -0.0124,-0.0315 -0.0245,-0.0632 -0.0362,-0.0951 -0.0116,-0.0319 -0.0232,-0.0639 -0.0341,-0.0961 -0.0109,-0.0323 -0.0209,-0.065 -0.031,-0.0977 -0.0101,-0.0326 -0.0201,-0.0652 -0.0294,-0.0982 -0.009,-0.033 -0.0183,-0.0659 -0.0269,-0.0992 -0.009,-0.0333 -0.0166,-0.0671 -0.0243,-0.10077 -0.008,-0.0336 -0.0148,-0.0674 -0.0217,-0.10129 -0.007,-0.0339 -0.0136,-0.0681 -0.0196,-0.10232 -0.006,-0.0342 -0.0118,-0.0683 -0.0171,-0.10283 -0.005,-0.0345 -0.0101,-0.0691 -0.0145,-0.10387 -0.004,-0.0348 -0.008,-0.0698 -0.0119,-0.10491 -0.004,-0.0351 -0.007,-0.0701 -0.009,-0.10542 -0.003,-0.0353 -0.005,-0.0709 -0.007,-0.10645 -0.002,-0.0356 -0.003,-0.0712 -0.004,-0.10697 -9e-4,-0.0358 -0.001,-0.072 -0.001,-0.108 v -7.93905 c 0,-0.036 1.3e-4,-0.0722 0.001,-0.10801 9.1e-4,-0.0358 0.002,-0.0714 0.004,-0.10697 0.002,-0.0356 0.004,-0.0706 0.007,-0.10593 0.003,-0.0353 0.006,-0.0709 0.009,-0.10594 0.004,-0.0351 0.007,-0.0701 0.0119,-0.1049 0.004,-0.0348 0.009,-0.0694 0.0145,-0.10387 0.005,-0.0345 0.011,-0.0686 0.0171,-0.10284 0.006,-0.0342 0.0127,-0.0684 0.0196,-0.10232 0.007,-0.0339 0.014,-0.0677 0.0217,-0.10128 0.008,-0.0336 0.0158,-0.0675 0.0243,-0.10077 0.009,-0.0333 0.0175,-0.0662 0.0269,-0.0992 0.009,-0.033 0.0194,-0.0656 0.0294,-0.0982 0.0101,-0.0326 0.0201,-0.0654 0.031,-0.0977 0.0109,-0.0323 0.0225,-0.0642 0.0341,-0.0961 0.0116,-0.0319 0.0238,-0.0636 0.0362,-0.0951 0.0124,-0.0315 0.0251,-0.0629 0.0382,-0.094 0.0131,-0.0311 0.0265,-0.0623 0.0403,-0.093 0.0139,-0.0308 0.0283,-0.0611 0.0429,-0.0915 0.0291,-0.0607 0.0595,-0.12085 0.0915,-0.17984 0.032,-0.059 0.0656,-0.11694 0.10025,-0.17415 0.0347,-0.0572 0.0707,-0.11364 0.108,-0.16898 0.0373,-0.0554 0.0759,-0.10939 0.11576,-0.16278 0.0399,-0.0534 0.0811,-0.10574 0.1235,-0.1571 0.0423,-0.0513 0.0855,-0.10166 0.13023,-0.15089 0.0123,-0.0135 0.0253,-0.0265 0.0377,-0.0398 -0.75879,-0.81343 -1.84055,-1.32137 -3.04581,-1.32137 z"
             sodipodi:nodetypes="cccsccssssssssscssccccsccccscssssscccccccccssssssssssssccc" />
        </g>
        <g
           id="g27149"
           transform="matrix(-1,0,0,1,-473.35777,0)"
           style="fill:#0024cc;fill-opacity:1">
          <path
             id="path27147"
             style="fill:#0024cc;fill-opacity:1;stroke:none;stroke-width:1;stroke-linecap:round;stroke-linejoin:round;stroke-opacity:1"
             d="m -241.55683,201.98302 v 8.13206 8.13206 h 4.88755 c 1.20526,0 2.28702,-0.50794 3.04581,-1.32136 -0.0124,-0.0133 -0.0255,-0.0263 -0.0377,-0.0398 -0.0447,-0.0492 -0.0879,-0.0995 -0.13023,-0.1509 -0.0423,-0.0514 -0.0836,-0.1037 -0.1235,-0.1571 -0.0399,-0.0534 -0.0784,-0.10743 -0.11576,-0.16278 -0.0373,-0.0553 -0.0733,-0.11177 -0.108,-0.16898 -0.0347,-0.0572 -0.0683,-0.11516 -0.10025,-0.17415 -0.032,-0.059 -0.0623,-0.11915 -0.0915,-0.17983 -0.0146,-0.0303 -0.029,-0.0607 -0.0429,-0.0915 -0.0139,-0.0308 -0.0272,-0.0619 -0.0403,-0.093 -0.0131,-0.0311 -0.0258,-0.0625 -0.0382,-0.0941 -0.0124,-0.0315 -0.0245,-0.0632 -0.0362,-0.0951 -0.0116,-0.0319 -0.0232,-0.0639 -0.0341,-0.0961 -0.0109,-0.0323 -0.0209,-0.065 -0.031,-0.0977 -0.0101,-0.0326 -0.0201,-0.0652 -0.0294,-0.0982 -0.009,-0.033 -0.0183,-0.0659 -0.0269,-0.0992 -0.009,-0.0333 -0.0166,-0.0671 -0.0243,-0.10077 -0.008,-0.0336 -0.0148,-0.0674 -0.0217,-0.10129 -0.007,-0.0339 -0.0136,-0.0681 -0.0196,-0.10232 -0.006,-0.0342 -0.0118,-0.0683 -0.0171,-0.10283 -0.005,-0.0345 -0.0101,-0.0691 -0.0145,-0.10387 -0.004,-0.0348 -0.008,-0.0698 -0.0119,-0.10491 -0.004,-0.0351 -0.007,-0.0701 -0.009,-0.10542 -0.003,-0.0353 -0.005,-0.0709 -0.007,-0.10645 -0.002,-0.0356 -0.003,-0.0712 -0.004,-0.10697 -9e-4,-0.0358 -0.001,-0.072 -0.001,-0.108 v -7.93905 c 0,-0.036 1.3e-4,-0.0722 0.001,-0.10801 9.1e-4,-0.0358 0.002,-0.0714 0.004,-0.10697 0.002,-0.0356 0.004,-0.0706 0.007,-0.10593 0.003,-0.0353 0.006,-0.0709 0.009,-0.10594 0.004,-0.0351 0.007,-0.0701 0.0119,-0.1049 0.004,-0.0348 0.009,-0.0694 0.0145,-0.10387 0.005,-0.0345 0.011,-0.0686 0.0171,-0.10284 0.006,-0.0342 0.0127,-0.0684 0.0196,-0.10232 0.007,-0.0339 0.014,-0.0677 0.0217,-0.10128 0.008,-0.0336 0.0158,-0.0675 0.0243,-0.10077 0.009,-0.0333 0.0175,-0.0662 0.0269,-0.0992 0.009,-0.033 0.0194,-0.0656 0.0294,-0.0982 0.0101,-0.0326 0.0201,-0.0654 0.031,-0.0977 0.0109,-0.0323 0.0225,-0.0642 0.0341,-0.0961 0.0116,-0.0319 0.0238,-0.0636 0.0362,-0.0951 0.0124,-0.0315 0.0251,-0.0629 0.0382,-0.094 0.0131,-0.0311 0.0265,-0.0623 0.0403,-0.093 0.0139,-0.0308 0.0283,-0.0611 0.0429,-0.0915 0.0291,-0.0607 0.0595,-0.12085 0.0915,-0.17984 0.032,-0.059 0.0656,-0.11694 0.10025,-0.17415 0.0347,-0.0572 0.0707,-0.11364 0.108,-0.16898 0.0373,-0.0554 0.0759,-0.10939 0.11576,-0.16278 0.0399,-0.0534 0.0811,-0.10574 0.1235,-0.1571 0.0423,-0.0513 0.0855,-0.10166 0.13023,-0.15089 0.0123,-0.0135 0.0253,-0.0265 0.0377,-0.0398 -0.75879,-0.81343 -1.84055,-1.32137 -3.04581,-1.32137 z"
             sodipodi:nodetypes="cccsccssssssssscssccccsccccscssssscccccccccssssssssssssccc" />
        </g>
      </g>
    </clipPath>
    <linearGradient
       inkscape:collect="always"
       xlink:href="#linearGradient27372"
       id="linearGradient27374"
       x1="-231.28276"
       y1="205.91725"
       x2="-226.23163"
       y2="213.71945"
       gradientUnits="userSpaceOnUse" />
    <linearGradient
       inkscape:collect="always"
       xlink:href="#linearGradient27380"
       id="linearGradient27382"
       x1="-229.99509"
       y1="212.01053"
       x2="-222.54034"
       y2="216.31978"
       gradientUnits="userSpaceOnUse" />
  </defs>
  <g
     inkscape:label="Layer 1"
     inkscape:groupmode="layer"
     id="layer1">
    <rect
       style="fill:#000000;stroke-width:1.03446;stroke-linecap:round;stroke-linejoin:round"
       id="rect23378"
       width="194.79491"
       height="208.45331"
       x="-320.63046"
       y="71.115677"
       ry="0" />
    <text
       xml:space="preserve"
       style="font-size:11.5752px;line-height:1;font-family:'Creato Display';-inkscape-font-specification:'Creato Display';text-align:start;letter-spacing:0.574146px;word-spacing:0px;text-anchor:start;white-space:pre;inline-size:129.522;display:inline;fill:#ffffff;stroke-width:0.289382"
       x="-254.61861"
       y="226.98405"
       id="text23382"
       transform="matrix(0.31583312,0,0,0.31583312,-174.45551,148.9443)"><tspan
         x="-254.61861"
         y="226.98405"
         id="tspan35722"><tspan
           style="font-weight:500;font-family:'Fira Sans';-inkscape-font-specification:'Fira Sans Medium'"
           id="tspan35720">DUTA SAKINAH FIRST</tspan></tspan></text>
    <g
       aria-label="D"
       transform="rotate(90,-13.13998,-48.168102)"
       id="text23390"
       style="font-size:49.7765px;line-height:1.2;font-family:'Creato Display';-inkscape-font-specification:'Creato Display';text-align:center;letter-spacing:0px;word-spacing:0px;text-anchor:middle;fill:#ffffff;stroke-width:1.24441">
      <path
         d="m 180.04786,242.61267 c 0.66369,0 -0.99553,-0.33959 -0.99553,-0.99553 v -35.98841 c 0,-0.66369 1.65922,-0.99553 0.99553,-0.99553 h -25.92641 c -6.47095,0 11.432,1.62603 14.88317,4.8781 3.45117,3.25207 5.17676,7.93106 5.17676,14.03697 0,6.1391 -1.72559,10.85128 -5.17676,14.13653 -3.45117,3.28525 -21.35412,4.92787 -14.88317,4.92787 z m -25.94061,-8.17908 c 3.64422,0 6.39366,-0.87852 8.24831,-2.63555 1.85465,-1.78958 2.78198,-4.53902 2.78198,-8.24832 0,-3.48153 -0.97613,-6.13335 -2.92839,-7.95547 -1.95227,-1.85465 -4.6529,-2.78197 -8.1019,-2.78197 h -1.4642 c -0.65075,0 -0.97613,0.32538 -0.97613,0.97613 v 19.66905 c 0,0.65075 0.32538,0.97613 0.97613,0.97613 z"
         style="font-weight:900;font-family:'Open Sauce Two';-inkscape-font-specification:'Open Sauce Two Heavy'"
         id="path23392"
         sodipodi:nodetypes="scssssssssscscssssss" />
    </g>
    <g
       id="g24462"
       transform="translate(-64.21432,12.874487)">
      <g
         id="g23415"
         transform="matrix(1.0831257,0,0,1.0831257,18.997028,-14.470539)">
        <path
           id="rect23395"
           style="fill:#ffdd55;fill-opacity:1;stroke-linecap:round;stroke-linejoin:round"
           d="m -237.28304,144.53738 28.92692,18.61967 v 10.30725 h -25.42367 -3.50325 z"
           sodipodi:nodetypes="cccccc" />
        <g
           id="g23403"
           clip-path="url(#clipPath23407)"
           transform="translate(59.911728)">
          <ellipse
             style="fill:#000000;fill-opacity:1;stroke-width:1.70227;stroke-linecap:round;stroke-linejoin:round"
             id="path23397"
             cx="-282.73129"
             cy="145.10251"
             rx="14.826916"
             ry="11.593081" />
          <ellipse
             style="fill:#ffdd55;fill-opacity:1;stroke-width:0.920259;stroke-linecap:round;stroke-linejoin:round"
             id="circle23399"
             cx="-282.73129"
             cy="143.53308"
             rx="8.1872416"
             ry="6.1358433" />
        </g>
      </g>
      <g
         id="g24428"
         clip-path="url(#clipPath24440)">
        <g
           aria-label=")"
           transform="matrix(0,1,1,0,0,0.93194188)"
           id="text23998"
           style="font-size:55.6625px;line-height:1.2;font-family:'Creato Display';-inkscape-font-specification:'Creato Display';text-align:center;letter-spacing:0px;word-spacing:0px;text-anchor:middle;stroke-width:1.39156">
          <path
             d="m 160.50866,-217.70839 q 3.28409,-5.62192 4.84264,-12.24575 1.55855,-6.6795 1.55855,-15.08454 0,-8.40504 -1.55855,-15.02887 -1.55855,-6.6795 -4.84264,-12.30142 h 7.62577 q 2.89445,5.28794 4.34167,12.24575 1.44723,6.90215 1.44723,15.08454 0,8.18239 -1.44723,15.1402 -1.44722,6.90215 -4.34167,12.19009 z"
             style="font-weight:900;font-family:'Open Sauce Two';-inkscape-font-specification:'Open Sauce Two Heavy'"
             id="path24421" />
        </g>
        <g
           aria-label=")"
           transform="matrix(0.55053357,-0.83481302,-0.83481302,-0.55053357,0,0)"
           id="text24006"
           style="font-size:55.6625px;line-height:1.2;font-family:'Creato Display';-inkscape-font-specification:'Creato Display';text-align:center;letter-spacing:0px;word-spacing:0px;text-anchor:middle;stroke-width:1.39156">
          <path
             d="m -267.66658,118.91303 q 3.28408,-5.62191 4.84263,-12.24575 1.55855,-6.679495 1.55855,-15.084534 0,-8.405038 -1.55855,-15.028875 -1.55855,-6.6795 -4.84263,-12.301412 h 7.62576 q 2.89445,5.287937 4.34167,12.24575 1.44723,6.902149 1.44723,15.084537 0,8.182389 -1.44723,15.140194 -1.44722,6.90215 -4.34167,12.19009 z"
             style="font-weight:900;font-family:'Open Sauce Two';-inkscape-font-specification:'Open Sauce Two Heavy'"
             id="path24418" />
        </g>
      </g>
    </g>
    <path
       d="m -244.91013,143.53915 c 0,-0.66985 0.33492,-1.00477 1.00478,-1.00477 h 36.32293 c 0.66985,0 1.00478,0.33492 1.00478,1.00477 v 10.60047 c 0,6.5311 -1.64115,11.53827 -4.92343,15.02152 -3.2823,3.48325 -8.00478,5.22487 -14.16746,5.22487 -6.19617,0 -10.95215,-1.74162 -14.26793,-5.22487 -3.31577,-3.48325 -4.97367,-8.49042 -4.97367,-15.02152 z"
       style="font-weight:900;font-size:43.2263px;line-height:1.2;font-family:'Open Sauce Two';-inkscape-font-specification:'Open Sauce Two Heavy';text-align:center;letter-spacing:0px;word-spacing:0px;text-anchor:middle;fill:#0024cc;fill-opacity:1;stroke-width:1.25598"
       id="path24490"
       sodipodi:nodetypes="ssssssssss" />
    <g
       id="g24992"
       clip-path="url(#clipPath24994)">
      <g
         id="g25193"
         transform="matrix(1.2215201,0,0,1.2215201,51.163291,-39.179283)"
         style="fill:#ffcc00;fill-opacity:1">
        <path
           style="fill:#ffcc00;fill-opacity:1;stroke-width:0.806259;stroke-linecap:round;stroke-linejoin:round"
           d="m -244.62627,157.40199 -1.89541,1.23739 3.99213,9.55817 2.35108,3.40238 1.98341,-9.17689 -1.33229,-2.26967 z"
           id="path25067"
           sodipodi:nodetypes="ccccccc" />
        <path
           style="fill:#ffcc00;fill-opacity:1;stroke-width:1;stroke-linecap:round;stroke-linejoin:round"
           d="m -247.5814,156.32949 4.08629,-0.80242 11.30329,-2.73418 5.08057,0.7066 -7.43499,3.40483 -3.29709,0.13077 z"
           id="path25063"
           sodipodi:nodetypes="ccccccc" />
        <path
           style="fill:#ffcc00;fill-opacity:1;stroke-width:1;stroke-linecap:round;stroke-linejoin:round"
           d="m -205.01906,169.86925 c 0,0 -10.17404,-10.62588 -41.50539,-14.37394 -14.36355,-1.71826 -4.29266,0.70925 -4.29266,0.70925 0,0 25.77075,7.01708 29.71427,21.73449 3.94352,14.71741 16.08378,-8.0698 16.08378,-8.0698 z"
           id="path24635"
           sodipodi:nodetypes="csczc"
           clip-path="none" />
      </g>
    </g>
    <rect
       style="fill:#ffffff;fill-opacity:1;stroke:none;stroke-width:0.0796893;stroke-linecap:round;stroke-linejoin:round;stroke-dasharray:none;stroke-opacity:1"
       id="rect17658"
       width="16.259695"
       height="1.1805261"
       x="597.49817"
       y="416.42273" />
    <rect
       style="fill:#ffffff;fill-opacity:1;stroke:none;stroke-width:0.0796893;stroke-linecap:round;stroke-linejoin:round;stroke-dasharray:none;stroke-opacity:1"
       id="rect17660"
       width="16.259695"
       height="1.1805261"
       x="597.49817"
       y="419.28671" />
    <rect
       style="fill:#ffffff;fill-opacity:1;stroke:none;stroke-width:0.0796893;stroke-linecap:round;stroke-linejoin:round;stroke-dasharray:none;stroke-opacity:1"
       id="rect17662"
       width="16.259695"
       height="1.1805261"
       x="597.49817"
       y="422.487" />
    <path
       id="path25675"
       style="fill:#0020b3;fill-opacity:1;stroke:none;stroke-width:0.723697;stroke-linecap:round;stroke-linejoin:round;stroke-opacity:1"
       d="m -285.243,201.79262 -0.47066,1.7565 6.16205,2.24522 -5.09156,0.0455 c -0.95571,0.009 2.34424,-0.64246 0.4309,-2.85518 z"
       sodipodi:nodetypes="cccssc" />
    <path
       id="path26883"
       style="fill:#0020b3;fill-opacity:1;stroke:none;stroke-width:0.723697;stroke-linecap:round;stroke-linejoin:round;stroke-opacity:1"
       d="m -282.04465,206.85864 0.47066,-1.7565 -6.16205,-2.24522 5.09156,-0.0455 c 0.95571,-0.009 -2.34424,0.64246 -0.4309,2.85518 z"
       sodipodi:nodetypes="cccssc" />
    <g
       id="g27059"
       transform="translate(1.7082112,-2.2586617)">
      <text
         xml:space="preserve"
         style="font-size:11.5752px;line-height:1;font-family:'Creato Display';-inkscape-font-specification:'Creato Display';text-align:start;letter-spacing:0.574146px;word-spacing:0px;text-anchor:start;white-space:pre;inline-size:115.46;display:inline;fill:#ffffff;stroke-width:0.289382"
         x="-254.61861"
         y="226.98405"
         id="text25564"
         transform="matrix(0.11446443,0,0,0.11446443,-221.70707,199.53877)"><tspan
           x="-254.61861"
           y="226.98405"
           id="tspan35726"><tspan
             style="font-weight:300;font-family:'Fira Sans';-inkscape-font-specification:'Fira Sans Light'"
             id="tspan35724">Tour &amp; Travel</tspan></tspan></text>
      <text
         xml:space="preserve"
         style="font-size:11.5752px;line-height:1;font-family:'Creato Display';-inkscape-font-specification:'Creato Display';text-align:start;letter-spacing:0.574146px;word-spacing:0px;text-anchor:start;white-space:pre;inline-size:115.46;display:inline;fill:#ffffff;stroke-width:0.289382"
         x="-254.61861"
         y="226.98405"
         id="text27047"
         transform="matrix(0.11446443,0,0,0.11446443,-211.12734,199.53877)"><tspan
           x="-254.61861"
           y="226.98405"
           id="tspan35730"><tspan
             style="font-weight:300;font-family:'Fira Sans';-inkscape-font-specification:'Fira Sans Light'"
             id="tspan35728">Education</tspan></tspan></text>
      <text
         xml:space="preserve"
         style="font-size:11.5752px;line-height:1;font-family:'Creato Display';-inkscape-font-specification:'Creato Display';text-align:start;letter-spacing:0.574146px;word-spacing:0px;text-anchor:start;white-space:pre;inline-size:115.46;display:inline;fill:#ffffff;stroke-width:0.289382"
         x="-254.61861"
         y="226.98405"
         id="text27051"
         transform="matrix(0.11446443,0,0,0.11446443,-202.57302,199.53877)"><tspan
           x="-254.61861"
           y="226.98405"
           id="tspan35734"><tspan
             style="font-weight:300;font-family:'Fira Sans';-inkscape-font-specification:'Fira Sans Light'"
             id="tspan35732">Contractor</tspan></tspan></text>
    </g>
    <g
       id="g27457">
      <g
         id="g26964"
         style="fill:#ffcc00;fill-opacity:1"
         transform="matrix(1.1883747,0,0,1.1883747,49.555155,-44.26854)">
        <g
           id="g26256"
           transform="translate(-4.4390964)"
           style="fill:#ffcc00;fill-opacity:1">
          <path
             id="path25762"
             style="fill:#ffcc00;fill-opacity:1;stroke:none;stroke-width:1;stroke-linecap:round;stroke-linejoin:round;stroke-opacity:1"
             d="m -243.22856,201.98302 v 8.13206 8.13206 h 4.88755 c 1.20526,0 2.28702,-0.50794 3.04581,-1.32136 -0.0124,-0.0133 -0.0255,-0.0263 -0.0377,-0.0398 -0.0447,-0.0492 -0.0879,-0.0995 -0.13023,-0.1509 -0.0423,-0.0514 -0.0836,-0.1037 -0.1235,-0.1571 -0.0399,-0.0534 -0.0784,-0.10743 -0.11576,-0.16278 -0.0373,-0.0553 -0.0733,-0.11177 -0.108,-0.16898 -0.0347,-0.0572 -0.0683,-0.11516 -0.10025,-0.17415 -0.032,-0.059 -0.0623,-0.11915 -0.0915,-0.17983 -0.0146,-0.0303 -0.029,-0.0607 -0.0429,-0.0915 -0.0139,-0.0308 -0.0272,-0.0619 -0.0403,-0.093 -0.0131,-0.0311 -0.0258,-0.0625 -0.0382,-0.0941 -0.0124,-0.0315 -0.0245,-0.0632 -0.0362,-0.0951 -0.0116,-0.0319 -0.0232,-0.0639 -0.0341,-0.0961 -0.0109,-0.0323 -0.0209,-0.065 -0.031,-0.0977 -0.0101,-0.0326 -0.0201,-0.0652 -0.0294,-0.0982 -0.009,-0.033 -0.0183,-0.0659 -0.0269,-0.0992 -0.009,-0.0333 -0.0166,-0.0671 -0.0243,-0.10077 -0.008,-0.0336 -0.0148,-0.0674 -0.0217,-0.10129 -0.007,-0.0339 -0.0136,-0.0681 -0.0196,-0.10232 -0.006,-0.0342 -0.0118,-0.0683 -0.0171,-0.10283 -0.005,-0.0345 -0.0101,-0.0691 -0.0145,-0.10387 -0.004,-0.0348 -0.008,-0.0698 -0.0119,-0.10491 -0.004,-0.0351 -0.007,-0.0701 -0.009,-0.10542 -0.003,-0.0353 -0.005,-0.0709 -0.007,-0.10645 -0.002,-0.0356 -0.003,-0.0712 -0.004,-0.10697 -9e-4,-0.0358 -0.001,-0.072 -0.001,-0.108 v -7.93905 c 0,-0.036 1.3e-4,-0.0722 0.001,-0.10801 9.1e-4,-0.0358 0.002,-0.0714 0.004,-0.10697 0.002,-0.0356 0.004,-0.0706 0.007,-0.10593 0.003,-0.0353 0.006,-0.0709 0.009,-0.10594 0.004,-0.0351 0.007,-0.0701 0.0119,-0.1049 0.004,-0.0348 0.009,-0.0694 0.0145,-0.10387 0.005,-0.0345 0.011,-0.0686 0.0171,-0.10284 0.006,-0.0342 0.0127,-0.0684 0.0196,-0.10232 0.007,-0.0339 0.014,-0.0677 0.0217,-0.10128 0.008,-0.0336 0.0158,-0.0675 0.0243,-0.10077 0.009,-0.0333 0.0175,-0.0662 0.0269,-0.0992 0.009,-0.033 0.0194,-0.0656 0.0294,-0.0982 0.0101,-0.0326 0.0201,-0.0654 0.031,-0.0977 0.0109,-0.0323 0.0225,-0.0642 0.0341,-0.0961 0.0116,-0.0319 0.0238,-0.0636 0.0362,-0.0951 0.0124,-0.0315 0.0251,-0.0629 0.0382,-0.094 0.0131,-0.0311 0.0265,-0.0623 0.0403,-0.093 0.0139,-0.0308 0.0283,-0.0611 0.0429,-0.0915 0.0291,-0.0607 0.0595,-0.12085 0.0915,-0.17984 0.032,-0.059 0.0656,-0.11694 0.10025,-0.17415 0.0347,-0.0572 0.0707,-0.11364 0.108,-0.16898 0.0373,-0.0554 0.0759,-0.10939 0.11576,-0.16278 0.0399,-0.0534 0.0811,-0.10574 0.1235,-0.1571 0.0423,-0.0513 0.0855,-0.10166 0.13023,-0.15089 0.0123,-0.0135 0.0253,-0.0265 0.0377,-0.0398 -0.75879,-0.81343 -1.84055,-1.32137 -3.04581,-1.32137 z"
             sodipodi:nodetypes="cccsccssssssssscssccccsccccscssssscccccccccssssssssssssccc" />
        </g>
        <g
           id="g26958"
           transform="matrix(-1,0,0,1,-473.35777,0)"
           style="fill:#ffcc00;fill-opacity:1">
          <path
             id="path26956"
             style="fill:#ffcc00;fill-opacity:1;stroke:none;stroke-width:1;stroke-linecap:round;stroke-linejoin:round;stroke-opacity:1"
             d="m -241.55683,201.98302 v 8.13206 8.13206 h 4.88755 c 1.20526,0 2.28702,-0.50794 3.04581,-1.32136 -0.0124,-0.0133 -0.0255,-0.0263 -0.0377,-0.0398 -0.0447,-0.0492 -0.0879,-0.0995 -0.13023,-0.1509 -0.0423,-0.0514 -0.0836,-0.1037 -0.1235,-0.1571 -0.0399,-0.0534 -0.0784,-0.10743 -0.11576,-0.16278 -0.0373,-0.0553 -0.0733,-0.11177 -0.108,-0.16898 -0.0347,-0.0572 -0.0683,-0.11516 -0.10025,-0.17415 -0.032,-0.059 -0.0623,-0.11915 -0.0915,-0.17983 -0.0146,-0.0303 -0.029,-0.0607 -0.0429,-0.0915 -0.0139,-0.0308 -0.0272,-0.0619 -0.0403,-0.093 -0.0131,-0.0311 -0.0258,-0.0625 -0.0382,-0.0941 -0.0124,-0.0315 -0.0245,-0.0632 -0.0362,-0.0951 -0.0116,-0.0319 -0.0232,-0.0639 -0.0341,-0.0961 -0.0109,-0.0323 -0.0209,-0.065 -0.031,-0.0977 -0.0101,-0.0326 -0.0201,-0.0652 -0.0294,-0.0982 -0.009,-0.033 -0.0183,-0.0659 -0.0269,-0.0992 -0.009,-0.0333 -0.0166,-0.0671 -0.0243,-0.10077 -0.008,-0.0336 -0.0148,-0.0674 -0.0217,-0.10129 -0.007,-0.0339 -0.0136,-0.0681 -0.0196,-0.10232 -0.006,-0.0342 -0.0118,-0.0683 -0.0171,-0.10283 -0.005,-0.0345 -0.0101,-0.0691 -0.0145,-0.10387 -0.004,-0.0348 -0.008,-0.0698 -0.0119,-0.10491 -0.004,-0.0351 -0.007,-0.0701 -0.009,-0.10542 -0.003,-0.0353 -0.005,-0.0709 -0.007,-0.10645 -0.002,-0.0356 -0.003,-0.0712 -0.004,-0.10697 -9e-4,-0.0358 -0.001,-0.072 -0.001,-0.108 v -7.93905 c 0,-0.036 1.3e-4,-0.0722 0.001,-0.10801 9.1e-4,-0.0358 0.002,-0.0714 0.004,-0.10697 0.002,-0.0356 0.004,-0.0706 0.007,-0.10593 0.003,-0.0353 0.006,-0.0709 0.009,-0.10594 0.004,-0.0351 0.007,-0.0701 0.0119,-0.1049 0.004,-0.0348 0.009,-0.0694 0.0145,-0.10387 0.005,-0.0345 0.011,-0.0686 0.0171,-0.10284 0.006,-0.0342 0.0127,-0.0684 0.0196,-0.10232 0.007,-0.0339 0.014,-0.0677 0.0217,-0.10128 0.008,-0.0336 0.0158,-0.0675 0.0243,-0.10077 0.009,-0.0333 0.0175,-0.0662 0.0269,-0.0992 0.009,-0.033 0.0194,-0.0656 0.0294,-0.0982 0.0101,-0.0326 0.0201,-0.0654 0.031,-0.0977 0.0109,-0.0323 0.0225,-0.0642 0.0341,-0.0961 0.0116,-0.0319 0.0238,-0.0636 0.0362,-0.0951 0.0124,-0.0315 0.0251,-0.0629 0.0382,-0.094 0.0131,-0.0311 0.0265,-0.0623 0.0403,-0.093 0.0139,-0.0308 0.0283,-0.0611 0.0429,-0.0915 0.0291,-0.0607 0.0595,-0.12085 0.0915,-0.17984 0.032,-0.059 0.0656,-0.11694 0.10025,-0.17415 0.0347,-0.0572 0.0707,-0.11364 0.108,-0.16898 0.0373,-0.0554 0.0759,-0.10939 0.11576,-0.16278 0.0399,-0.0534 0.0811,-0.10574 0.1235,-0.1571 0.0423,-0.0513 0.0855,-0.10166 0.13023,-0.15089 0.0123,-0.0135 0.0253,-0.0265 0.0377,-0.0398 -0.75879,-0.81343 -1.84055,-1.32137 -3.04581,-1.32137 z"
             sodipodi:nodetypes="cccsccssssssssscssccccsccccscssssscccccccccssssssssssssccc" />
        </g>
      </g>
      <g
         id="g27119"
         clip-path="url(#clipPath27141)">
        <ellipse
           style="fill:url(#linearGradient27374);fill-opacity:1;stroke:none;stroke-width:1.67189;stroke-linecap:round;stroke-linejoin:round;stroke-opacity:1"
           id="ellipse27115"
           cx="-220.87587"
           cy="220.66331"
           rx="26.930979"
           ry="16.644262" />
        <ellipse
           style="fill:url(#linearGradient27382);fill-opacity:1;stroke:none;stroke-width:1;stroke-linecap:round;stroke-linejoin:round;stroke-opacity:1"
           id="path27113"
           cx="-220.87587"
           cy="217.9657"
           rx="16.108093"
           ry="9.9553499" />
      </g>
    </g>
    <text
       xml:space="preserve"
       style="font-size:11.5752px;line-height:1;font-family:'Creato Display';-inkscape-font-specification:'Creato Display';text-align:start;letter-spacing:0.574146px;word-spacing:0px;text-anchor:start;white-space:pre;inline-size:129.522;display:inline;fill:#ffffff;stroke-width:0.289382"
       x="-254.61861"
       y="226.98405"
       id="text27461"
       transform="matrix(0.48251345,0,0,0.48251345,-55.689073,92.911266)"><tspan
         x="-254.61861"
         y="226.98405"
         id="tspan35738"><tspan
           style="font-weight:500;font-family:'Fira Sans';-inkscape-font-specification:'Fira Sans Medium'"
           id="tspan35736">DUTA
</tspan></tspan><tspan
         x="-254.61861"
         y="238.84671"
         id="tspan35742"><tspan
           style="font-weight:500;font-family:'Fira Sans';-inkscape-font-specification:'Fira Sans Medium'"
           id="tspan35740">SAKINAH
</tspan></tspan><tspan
         x="-254.61861"
         y="250.70937"
         id="tspan35746"><tspan
           style="font-weight:500;font-family:'Fira Sans';-inkscape-font-specification:'Fira Sans Medium'"
           id="tspan35744">FIRST</tspan></tspan></text>
    <g
       id="g27493"
       transform="translate(44.153781)">
      <g
         id="g27485"
         style="fill:#ff0000;fill-opacity:1"
         transform="matrix(1.1883747,0,0,1.1883747,49.555155,-44.26854)">
        <g
           id="g27479"
           transform="translate(-4.4390964)"
           style="fill:#ff0000;fill-opacity:1">
          <path
             id="path27477"
             style="fill:#003dba;fill-opacity:1;stroke:none;stroke-width:1;stroke-linecap:round;stroke-linejoin:round;stroke-opacity:1"
             d="m -243.22856,201.98302 v 8.13206 8.13206 h 4.88755 c 1.20526,0 2.28702,-0.50794 3.04581,-1.32136 -0.0124,-0.0133 -0.0255,-0.0263 -0.0377,-0.0398 -0.0447,-0.0492 -0.0879,-0.0995 -0.13023,-0.1509 -0.0423,-0.0514 -0.0836,-0.1037 -0.1235,-0.1571 -0.0399,-0.0534 -0.0784,-0.10743 -0.11576,-0.16278 -0.0373,-0.0553 -0.0733,-0.11177 -0.108,-0.16898 -0.0347,-0.0572 -0.0683,-0.11516 -0.10025,-0.17415 -0.032,-0.059 -0.0623,-0.11915 -0.0915,-0.17983 -0.0146,-0.0303 -0.029,-0.0607 -0.0429,-0.0915 -0.0139,-0.0308 -0.0272,-0.0619 -0.0403,-0.093 -0.0131,-0.0311 -0.0258,-0.0625 -0.0382,-0.0941 -0.0124,-0.0315 -0.0245,-0.0632 -0.0362,-0.0951 -0.0116,-0.0319 -0.0232,-0.0639 -0.0341,-0.0961 -0.0109,-0.0323 -0.0209,-0.065 -0.031,-0.0977 -0.0101,-0.0326 -0.0201,-0.0652 -0.0294,-0.0982 -0.009,-0.033 -0.0183,-0.0659 -0.0269,-0.0992 -0.009,-0.0333 -0.0166,-0.0671 -0.0243,-0.10077 -0.008,-0.0336 -0.0148,-0.0674 -0.0217,-0.10129 -0.007,-0.0339 -0.0136,-0.0681 -0.0196,-0.10232 -0.006,-0.0342 -0.0118,-0.0683 -0.0171,-0.10283 -0.005,-0.0345 -0.0101,-0.0691 -0.0145,-0.10387 -0.004,-0.0348 -0.008,-0.0698 -0.0119,-0.10491 -0.004,-0.0351 -0.007,-0.0701 -0.009,-0.10542 -0.003,-0.0353 -0.005,-0.0709 -0.007,-0.10645 -0.002,-0.0356 -0.003,-0.0712 -0.004,-0.10697 -9e-4,-0.0358 -0.001,-0.072 -0.001,-0.108 v -7.93905 c 0,-0.036 1.3e-4,-0.0722 0.001,-0.10801 9.1e-4,-0.0358 0.002,-0.0714 0.004,-0.10697 0.002,-0.0356 0.004,-0.0706 0.007,-0.10593 0.003,-0.0353 0.006,-0.0709 0.009,-0.10594 0.004,-0.0351 0.007,-0.0701 0.0119,-0.1049 0.004,-0.0348 0.009,-0.0694 0.0145,-0.10387 0.005,-0.0345 0.011,-0.0686 0.0171,-0.10284 0.006,-0.0342 0.0127,-0.0684 0.0196,-0.10232 0.007,-0.0339 0.014,-0.0677 0.0217,-0.10128 0.008,-0.0336 0.0158,-0.0675 0.0243,-0.10077 0.009,-0.0333 0.0175,-0.0662 0.0269,-0.0992 0.009,-0.033 0.0194,-0.0656 0.0294,-0.0982 0.0101,-0.0326 0.0201,-0.0654 0.031,-0.0977 0.0109,-0.0323 0.0225,-0.0642 0.0341,-0.0961 0.0116,-0.0319 0.0238,-0.0636 0.0362,-0.0951 0.0124,-0.0315 0.0251,-0.0629 0.0382,-0.094 0.0131,-0.0311 0.0265,-0.0623 0.0403,-0.093 0.0139,-0.0308 0.0283,-0.0611 0.0429,-0.0915 0.0291,-0.0607 0.0595,-0.12085 0.0915,-0.17984 0.032,-0.059 0.0656,-0.11694 0.10025,-0.17415 0.0347,-0.0572 0.0707,-0.11364 0.108,-0.16898 0.0373,-0.0554 0.0759,-0.10939 0.11576,-0.16278 0.0399,-0.0534 0.0811,-0.10574 0.1235,-0.1571 0.0423,-0.0513 0.0855,-0.10166 0.13023,-0.15089 0.0123,-0.0135 0.0253,-0.0265 0.0377,-0.0398 -0.75879,-0.81343 -1.84055,-1.32137 -3.04581,-1.32137 z"
             sodipodi:nodetypes="cccsccssssssssscssccccsccccscssssscccccccccssssssssssssccc" />
        </g>
        <g
           id="g27483"
           transform="matrix(-1,0,0,1,-473.35777,0)"
           style="fill:#ff0000;fill-opacity:1">
          <path
             id="path27481"
             style="fill:#003dba;fill-opacity:1;stroke:none;stroke-width:1;stroke-linecap:round;stroke-linejoin:round;stroke-opacity:1"
             d="m -241.55683,201.98302 v 8.13206 8.13206 h 4.88755 c 1.20526,0 2.28702,-0.50794 3.04581,-1.32136 -0.0124,-0.0133 -0.0255,-0.0263 -0.0377,-0.0398 -0.0447,-0.0492 -0.0879,-0.0995 -0.13023,-0.1509 -0.0423,-0.0514 -0.0836,-0.1037 -0.1235,-0.1571 -0.0399,-0.0534 -0.0784,-0.10743 -0.11576,-0.16278 -0.0373,-0.0553 -0.0733,-0.11177 -0.108,-0.16898 -0.0347,-0.0572 -0.0683,-0.11516 -0.10025,-0.17415 -0.032,-0.059 -0.0623,-0.11915 -0.0915,-0.17983 -0.0146,-0.0303 -0.029,-0.0607 -0.0429,-0.0915 -0.0139,-0.0308 -0.0272,-0.0619 -0.0403,-0.093 -0.0131,-0.0311 -0.0258,-0.0625 -0.0382,-0.0941 -0.0124,-0.0315 -0.0245,-0.0632 -0.0362,-0.0951 -0.0116,-0.0319 -0.0232,-0.0639 -0.0341,-0.0961 -0.0109,-0.0323 -0.0209,-0.065 -0.031,-0.0977 -0.0101,-0.0326 -0.0201,-0.0652 -0.0294,-0.0982 -0.009,-0.033 -0.0183,-0.0659 -0.0269,-0.0992 -0.009,-0.0333 -0.0166,-0.0671 -0.0243,-0.10077 -0.008,-0.0336 -0.0148,-0.0674 -0.0217,-0.10129 -0.007,-0.0339 -0.0136,-0.0681 -0.0196,-0.10232 -0.006,-0.0342 -0.0118,-0.0683 -0.0171,-0.10283 -0.005,-0.0345 -0.0101,-0.0691 -0.0145,-0.10387 -0.004,-0.0348 -0.008,-0.0698 -0.0119,-0.10491 -0.004,-0.0351 -0.007,-0.0701 -0.009,-0.10542 -0.003,-0.0353 -0.005,-0.0709 -0.007,-0.10645 -0.002,-0.0356 -0.003,-0.0712 -0.004,-0.10697 -9e-4,-0.0358 -0.001,-0.072 -0.001,-0.108 v -7.93905 c 0,-0.036 1.3e-4,-0.0722 0.001,-0.10801 9.1e-4,-0.0358 0.002,-0.0714 0.004,-0.10697 0.002,-0.0356 0.004,-0.0706 0.007,-0.10593 0.003,-0.0353 0.006,-0.0709 0.009,-0.10594 0.004,-0.0351 0.007,-0.0701 0.0119,-0.1049 0.004,-0.0348 0.009,-0.0694 0.0145,-0.10387 0.005,-0.0345 0.011,-0.0686 0.0171,-0.10284 0.006,-0.0342 0.0127,-0.0684 0.0196,-0.10232 0.007,-0.0339 0.014,-0.0677 0.0217,-0.10128 0.008,-0.0336 0.0158,-0.0675 0.0243,-0.10077 0.009,-0.0333 0.0175,-0.0662 0.0269,-0.0992 0.009,-0.033 0.0194,-0.0656 0.0294,-0.0982 0.0101,-0.0326 0.0201,-0.0654 0.031,-0.0977 0.0109,-0.0323 0.0225,-0.0642 0.0341,-0.0961 0.0116,-0.0319 0.0238,-0.0636 0.0362,-0.0951 0.0124,-0.0315 0.0251,-0.0629 0.0382,-0.094 0.0131,-0.0311 0.0265,-0.0623 0.0403,-0.093 0.0139,-0.0308 0.0283,-0.0611 0.0429,-0.0915 0.0291,-0.0607 0.0595,-0.12085 0.0915,-0.17984 0.032,-0.059 0.0656,-0.11694 0.10025,-0.17415 0.0347,-0.0572 0.0707,-0.11364 0.108,-0.16898 0.0373,-0.0554 0.0759,-0.10939 0.11576,-0.16278 0.0399,-0.0534 0.0811,-0.10574 0.1235,-0.1571 0.0423,-0.0513 0.0855,-0.10166 0.13023,-0.15089 0.0123,-0.0135 0.0253,-0.0265 0.0377,-0.0398 -0.75879,-0.81343 -1.84055,-1.32137 -3.04581,-1.32137 z"
             sodipodi:nodetypes="cccsccssssssssscssccccsccccscssssscccccccccssssssssssssccc" />
        </g>
      </g>
      <g
         id="g27491"
         clip-path="url(#clipPath27141)">
        <ellipse
           style="fill:#ffcc00;fill-opacity:1;stroke:none;stroke-width:1.67189;stroke-linecap:round;stroke-linejoin:round;stroke-opacity:1"
           id="ellipse27487"
           cx="-220.87587"
           cy="220.66331"
           rx="26.930979"
           ry="16.644262" />
        <ellipse
           style="fill:#ff0000;fill-opacity:1;stroke:none;stroke-width:1;stroke-linecap:round;stroke-linejoin:round;stroke-opacity:1"
           id="ellipse27489"
           cx="-220.87587"
           cy="217.9657"
           rx="16.108093"
           ry="9.9553499" />
      </g>
    </g>
    <g
       id="g27535"
       transform="translate(44.153781,24.300083)">
      <g
         id="g27533"
         clip-path="url(#clipPath27141)">
        <ellipse
           style="fill:#003dba;fill-opacity:1;stroke:#ffffff;stroke-width:0.3;stroke-linecap:round;stroke-linejoin:round;stroke-opacity:1;stroke-dasharray:none"
           id="ellipse27529"
           cx="-220.87587"
           cy="220.66331"
           rx="26.930979"
           ry="16.644262" />
        <ellipse
           style="fill:#000000;fill-opacity:1;stroke:#ffffff;stroke-width:0.4;stroke-linecap:round;stroke-linejoin:round;stroke-opacity:1;stroke-dasharray:none"
           id="ellipse27531"
           cx="-220.87587"
           cy="217.9657"
           rx="16.108093"
           ry="9.9553499" />
      </g>
      <g
         id="g27527"
         style="fill:none;fill-opacity:1;stroke:#ffffff;stroke-width:0.24234781;stroke-dasharray:none"
         transform="matrix(1.1883747,0,0,1.1883747,49.555155,-44.26854)">
        <g
           id="g27521"
           transform="translate(-4.4390964)"
           style="fill:none;fill-opacity:1;stroke:#ffffff;stroke-width:0.24234781;stroke-dasharray:none">
          <path
             id="path27519"
             style="fill:none;fill-opacity:1;stroke:#ffffff;stroke-width:0.24234781;stroke-linecap:round;stroke-linejoin:round;stroke-opacity:1;stroke-dasharray:none"
             d="m -243.22856,201.98302 v 8.13206 8.13206 h 4.88755 c 1.20526,0 2.28702,-0.50794 3.04581,-1.32136 -0.0124,-0.0133 -0.0255,-0.0263 -0.0377,-0.0398 -0.0447,-0.0492 -0.0879,-0.0995 -0.13023,-0.1509 -0.0423,-0.0514 -0.0836,-0.1037 -0.1235,-0.1571 -0.0399,-0.0534 -0.0784,-0.10743 -0.11576,-0.16278 -0.0373,-0.0553 -0.0733,-0.11177 -0.108,-0.16898 -0.0347,-0.0572 -0.0683,-0.11516 -0.10025,-0.17415 -0.032,-0.059 -0.0623,-0.11915 -0.0915,-0.17983 -0.0146,-0.0303 -0.029,-0.0607 -0.0429,-0.0915 -0.0139,-0.0308 -0.0272,-0.0619 -0.0403,-0.093 -0.0131,-0.0311 -0.0258,-0.0625 -0.0382,-0.0941 -0.0124,-0.0315 -0.0245,-0.0632 -0.0362,-0.0951 -0.0116,-0.0319 -0.0232,-0.0639 -0.0341,-0.0961 -0.0109,-0.0323 -0.0209,-0.065 -0.031,-0.0977 -0.0101,-0.0326 -0.0201,-0.0652 -0.0294,-0.0982 -0.009,-0.033 -0.0183,-0.0659 -0.0269,-0.0992 -0.009,-0.0333 -0.0166,-0.0671 -0.0243,-0.10077 -0.008,-0.0336 -0.0148,-0.0674 -0.0217,-0.10129 -0.007,-0.0339 -0.0136,-0.0681 -0.0196,-0.10232 -0.006,-0.0342 -0.0118,-0.0683 -0.0171,-0.10283 -0.005,-0.0345 -0.0101,-0.0691 -0.0145,-0.10387 -0.004,-0.0348 -0.008,-0.0698 -0.0119,-0.10491 -0.004,-0.0351 -0.007,-0.0701 -0.009,-0.10542 -0.003,-0.0353 -0.005,-0.0709 -0.007,-0.10645 -0.002,-0.0356 -0.003,-0.0712 -0.004,-0.10697 -9e-4,-0.0358 -0.001,-0.072 -0.001,-0.108 v -7.93905 c 0,-0.036 1.3e-4,-0.0722 0.001,-0.10801 9.1e-4,-0.0358 0.002,-0.0714 0.004,-0.10697 0.002,-0.0356 0.004,-0.0706 0.007,-0.10593 0.003,-0.0353 0.006,-0.0709 0.009,-0.10594 0.004,-0.0351 0.007,-0.0701 0.0119,-0.1049 0.004,-0.0348 0.009,-0.0694 0.0145,-0.10387 0.005,-0.0345 0.011,-0.0686 0.0171,-0.10284 0.006,-0.0342 0.0127,-0.0684 0.0196,-0.10232 0.007,-0.0339 0.014,-0.0677 0.0217,-0.10128 0.008,-0.0336 0.0158,-0.0675 0.0243,-0.10077 0.009,-0.0333 0.0175,-0.0662 0.0269,-0.0992 0.009,-0.033 0.0194,-0.0656 0.0294,-0.0982 0.0101,-0.0326 0.0201,-0.0654 0.031,-0.0977 0.0109,-0.0323 0.0225,-0.0642 0.0341,-0.0961 0.0116,-0.0319 0.0238,-0.0636 0.0362,-0.0951 0.0124,-0.0315 0.0251,-0.0629 0.0382,-0.094 0.0131,-0.0311 0.0265,-0.0623 0.0403,-0.093 0.0139,-0.0308 0.0283,-0.0611 0.0429,-0.0915 0.0291,-0.0607 0.0595,-0.12085 0.0915,-0.17984 0.032,-0.059 0.0656,-0.11694 0.10025,-0.17415 0.0347,-0.0572 0.0707,-0.11364 0.108,-0.16898 0.0373,-0.0554 0.0759,-0.10939 0.11576,-0.16278 0.0399,-0.0534 0.0811,-0.10574 0.1235,-0.1571 0.0423,-0.0513 0.0855,-0.10166 0.13023,-0.15089 0.0123,-0.0135 0.0253,-0.0265 0.0377,-0.0398 -0.75879,-0.81343 -1.84055,-1.32137 -3.04581,-1.32137 z"
             sodipodi:nodetypes="cccsccssssssssscssccccsccccscssssscccccccccssssssssssssccc" />
        </g>
        <g
           id="g27525"
           transform="matrix(-1,0,0,1,-473.35777,0)"
           style="fill:none;fill-opacity:1;stroke:#ffffff;stroke-width:0.24234781;stroke-dasharray:none">
          <path
             id="path27523"
             style="fill:none;fill-opacity:1;stroke:#ffffff;stroke-width:0.24234781;stroke-linecap:round;stroke-linejoin:round;stroke-opacity:1;stroke-dasharray:none"
             d="m -241.55683,201.98302 v 8.13206 8.13206 h 4.88755 c 1.20526,0 2.28702,-0.50794 3.04581,-1.32136 -0.0124,-0.0133 -0.0255,-0.0263 -0.0377,-0.0398 -0.0447,-0.0492 -0.0879,-0.0995 -0.13023,-0.1509 -0.0423,-0.0514 -0.0836,-0.1037 -0.1235,-0.1571 -0.0399,-0.0534 -0.0784,-0.10743 -0.11576,-0.16278 -0.0373,-0.0553 -0.0733,-0.11177 -0.108,-0.16898 -0.0347,-0.0572 -0.0683,-0.11516 -0.10025,-0.17415 -0.032,-0.059 -0.0623,-0.11915 -0.0915,-0.17983 -0.0146,-0.0303 -0.029,-0.0607 -0.0429,-0.0915 -0.0139,-0.0308 -0.0272,-0.0619 -0.0403,-0.093 -0.0131,-0.0311 -0.0258,-0.0625 -0.0382,-0.0941 -0.0124,-0.0315 -0.0245,-0.0632 -0.0362,-0.0951 -0.0116,-0.0319 -0.0232,-0.0639 -0.0341,-0.0961 -0.0109,-0.0323 -0.0209,-0.065 -0.031,-0.0977 -0.0101,-0.0326 -0.0201,-0.0652 -0.0294,-0.0982 -0.009,-0.033 -0.0183,-0.0659 -0.0269,-0.0992 -0.009,-0.0333 -0.0166,-0.0671 -0.0243,-0.10077 -0.008,-0.0336 -0.0148,-0.0674 -0.0217,-0.10129 -0.007,-0.0339 -0.0136,-0.0681 -0.0196,-0.10232 -0.006,-0.0342 -0.0118,-0.0683 -0.0171,-0.10283 -0.005,-0.0345 -0.0101,-0.0691 -0.0145,-0.10387 -0.004,-0.0348 -0.008,-0.0698 -0.0119,-0.10491 -0.004,-0.0351 -0.007,-0.0701 -0.009,-0.10542 -0.003,-0.0353 -0.005,-0.0709 -0.007,-0.10645 -0.002,-0.0356 -0.003,-0.0712 -0.004,-0.10697 -9e-4,-0.0358 -0.001,-0.072 -0.001,-0.108 v -7.93905 c 0,-0.036 1.3e-4,-0.0722 0.001,-0.10801 9.1e-4,-0.0358 0.002,-0.0714 0.004,-0.10697 0.002,-0.0356 0.004,-0.0706 0.007,-0.10593 0.003,-0.0353 0.006,-0.0709 0.009,-0.10594 0.004,-0.0351 0.007,-0.0701 0.0119,-0.1049 0.004,-0.0348 0.009,-0.0694 0.0145,-0.10387 0.005,-0.0345 0.011,-0.0686 0.0171,-0.10284 0.006,-0.0342 0.0127,-0.0684 0.0196,-0.10232 0.007,-0.0339 0.014,-0.0677 0.0217,-0.10128 0.008,-0.0336 0.0158,-0.0675 0.0243,-0.10077 0.009,-0.0333 0.0175,-0.0662 0.0269,-0.0992 0.009,-0.033 0.0194,-0.0656 0.0294,-0.0982 0.0101,-0.0326 0.0201,-0.0654 0.031,-0.0977 0.0109,-0.0323 0.0225,-0.0642 0.0341,-0.0961 0.0116,-0.0319 0.0238,-0.0636 0.0362,-0.0951 0.0124,-0.0315 0.0251,-0.0629 0.0382,-0.094 0.0131,-0.0311 0.0265,-0.0623 0.0403,-0.093 0.0139,-0.0308 0.0283,-0.0611 0.0429,-0.0915 0.0291,-0.0607 0.0595,-0.12085 0.0915,-0.17984 0.032,-0.059 0.0656,-0.11694 0.10025,-0.17415 0.0347,-0.0572 0.0707,-0.11364 0.108,-0.16898 0.0373,-0.0554 0.0759,-0.10939 0.11576,-0.16278 0.0399,-0.0534 0.0811,-0.10574 0.1235,-0.1571 0.0423,-0.0513 0.0855,-0.10166 0.13023,-0.15089 0.0123,-0.0135 0.0253,-0.0265 0.0377,-0.0398 -0.75879,-0.81343 -1.84055,-1.32137 -3.04581,-1.32137 z"
             sodipodi:nodetypes="cccsccssssssssscssccccsccccscssssscccccccccssssssssssssccc" />
        </g>
      </g>
    </g>
    <text
       xml:space="preserve"
       style="font-size:11.5752px;line-height:1;font-family:'Creato Display';-inkscape-font-specification:'Creato Display';text-align:start;letter-spacing:0.574146px;word-spacing:0px;text-anchor:start;white-space:pre;inline-size:129.522;display:inline;fill:#ffffff;stroke-width:0.289382"
       x="-254.61861"
       y="226.98405"
       id="text27681"
       transform="matrix(0.41464667,0,0,0.41464667,-72.262118,131.21382)"><tspan
         x="-254.61861"
         y="226.98405"
         id="tspan35750"><tspan
           style="font-weight:500;font-family:'Fira Sans';-inkscape-font-specification:'Fira Sans Medium'"
           id="tspan35748">DUTA
</tspan></tspan><tspan
         x="-254.61861"
         y="238.84671"
         id="tspan35754"><tspan
           style="font-weight:500;font-family:'Fira Sans';-inkscape-font-specification:'Fira Sans Medium'"
           id="tspan35752">SAKINAH
</tspan></tspan><tspan
         x="-254.61861"
         y="250.70937"
         id="tspan35758"><tspan
           style="font-weight:500;font-family:'Fira Sans';-inkscape-font-specification:'Fira Sans Medium'"
           id="tspan35756">FIRST</tspan></tspan></text>
    <text
       xml:space="preserve"
       style="font-size:11.5752px;line-height:1;font-family:'Creato Display';-inkscape-font-specification:'Creato Display';text-align:start;letter-spacing:0.574146px;word-spacing:0px;text-anchor:start;white-space:pre;inline-size:115.46;display:inline;fill:#ffffff;stroke-width:0.289382"
       x="-254.61861"
       y="226.98405"
       id="text27051-6"
       transform="matrix(0.17700575,0,0,0.17700575,-132.82368,198.22394)"><tspan
         x="-254.61861"
         y="226.98405"
         id="tspan35762"><tspan
           style="font-weight:300;font-family:'Fira Sans';-inkscape-font-specification:'Fira Sans Light'"
           id="tspan35760">Contractor</tspan></tspan></text>
    <g
       id="g27733"
       transform="translate(44.153781,48.319606)">
      <g
         id="g34947"
         style="fill:#ff0000;fill-opacity:1;stroke:#ffffff;stroke-width:0.242348;stroke-dasharray:none"
         transform="matrix(1.1883747,0,0,1.1883747,49.555155,-44.26854)">
        <g
           id="g34941"
           transform="translate(-4.4390964)"
           style="fill:#ff0000;fill-opacity:1;stroke:#ffffff;stroke-width:0.242348;stroke-dasharray:none">
          <path
             id="path34939"
             style="fill:#003dba;fill-opacity:1;stroke:#ffffff;stroke-width:0.242348;stroke-linecap:round;stroke-linejoin:round;stroke-dasharray:none;stroke-opacity:1"
             d="m -243.22856,201.98302 v 8.13206 8.13206 h 4.88755 c 1.20526,0 2.28702,-0.50794 3.04581,-1.32136 -0.0124,-0.0133 -0.0255,-0.0263 -0.0377,-0.0398 -0.0447,-0.0492 -0.0879,-0.0995 -0.13023,-0.1509 -0.0423,-0.0514 -0.0836,-0.1037 -0.1235,-0.1571 -0.0399,-0.0534 -0.0784,-0.10743 -0.11576,-0.16278 -0.0373,-0.0553 -0.0733,-0.11177 -0.108,-0.16898 -0.0347,-0.0572 -0.0683,-0.11516 -0.10025,-0.17415 -0.032,-0.059 -0.0623,-0.11915 -0.0915,-0.17983 -0.0146,-0.0303 -0.029,-0.0607 -0.0429,-0.0915 -0.0139,-0.0308 -0.0272,-0.0619 -0.0403,-0.093 -0.0131,-0.0311 -0.0258,-0.0625 -0.0382,-0.0941 -0.0124,-0.0315 -0.0245,-0.0632 -0.0362,-0.0951 -0.0116,-0.0319 -0.0232,-0.0639 -0.0341,-0.0961 -0.0109,-0.0323 -0.0209,-0.065 -0.031,-0.0977 -0.0101,-0.0326 -0.0201,-0.0652 -0.0294,-0.0982 -0.009,-0.033 -0.0183,-0.0659 -0.0269,-0.0992 -0.009,-0.0333 -0.0166,-0.0671 -0.0243,-0.10077 -0.008,-0.0336 -0.0148,-0.0674 -0.0217,-0.10129 -0.007,-0.0339 -0.0136,-0.0681 -0.0196,-0.10232 -0.006,-0.0342 -0.0118,-0.0683 -0.0171,-0.10283 -0.005,-0.0345 -0.0101,-0.0691 -0.0145,-0.10387 -0.004,-0.0348 -0.008,-0.0698 -0.0119,-0.10491 -0.004,-0.0351 -0.007,-0.0701 -0.009,-0.10542 -0.003,-0.0353 -0.005,-0.0709 -0.007,-0.10645 -0.002,-0.0356 -0.003,-0.0712 -0.004,-0.10697 -9e-4,-0.0358 -0.001,-0.072 -0.001,-0.108 v -7.93905 c 0,-0.036 1.3e-4,-0.0722 0.001,-0.10801 9.1e-4,-0.0358 0.002,-0.0714 0.004,-0.10697 0.002,-0.0356 0.004,-0.0706 0.007,-0.10593 0.003,-0.0353 0.006,-0.0709 0.009,-0.10594 0.004,-0.0351 0.007,-0.0701 0.0119,-0.1049 0.004,-0.0348 0.009,-0.0694 0.0145,-0.10387 0.005,-0.0345 0.011,-0.0686 0.0171,-0.10284 0.006,-0.0342 0.0127,-0.0684 0.0196,-0.10232 0.007,-0.0339 0.014,-0.0677 0.0217,-0.10128 0.008,-0.0336 0.0158,-0.0675 0.0243,-0.10077 0.009,-0.0333 0.0175,-0.0662 0.0269,-0.0992 0.009,-0.033 0.0194,-0.0656 0.0294,-0.0982 0.0101,-0.0326 0.0201,-0.0654 0.031,-0.0977 0.0109,-0.0323 0.0225,-0.0642 0.0341,-0.0961 0.0116,-0.0319 0.0238,-0.0636 0.0362,-0.0951 0.0124,-0.0315 0.0251,-0.0629 0.0382,-0.094 0.0131,-0.0311 0.0265,-0.0623 0.0403,-0.093 0.0139,-0.0308 0.0283,-0.0611 0.0429,-0.0915 0.0291,-0.0607 0.0595,-0.12085 0.0915,-0.17984 0.032,-0.059 0.0656,-0.11694 0.10025,-0.17415 0.0347,-0.0572 0.0707,-0.11364 0.108,-0.16898 0.0373,-0.0554 0.0759,-0.10939 0.11576,-0.16278 0.0399,-0.0534 0.0811,-0.10574 0.1235,-0.1571 0.0423,-0.0513 0.0855,-0.10166 0.13023,-0.15089 0.0123,-0.0135 0.0253,-0.0265 0.0377,-0.0398 -0.75879,-0.81343 -1.84055,-1.32137 -3.04581,-1.32137 z"
             sodipodi:nodetypes="cccsccssssssssscssccccsccccscssssscccccccccssssssssssssccc" />
        </g>
        <g
           id="g34945"
           transform="matrix(-1,0,0,1,-473.35777,0)"
           style="fill:#ff0000;fill-opacity:1;stroke:#ffffff;stroke-width:0.242348;stroke-dasharray:none">
          <path
             id="path34943"
             style="fill:#003dba;fill-opacity:1;stroke:#ffffff;stroke-width:0.242348;stroke-linecap:round;stroke-linejoin:round;stroke-dasharray:none;stroke-opacity:1"
             d="m -241.55683,201.98302 v 8.13206 8.13206 h 4.88755 c 1.20526,0 2.28702,-0.50794 3.04581,-1.32136 -0.0124,-0.0133 -0.0255,-0.0263 -0.0377,-0.0398 -0.0447,-0.0492 -0.0879,-0.0995 -0.13023,-0.1509 -0.0423,-0.0514 -0.0836,-0.1037 -0.1235,-0.1571 -0.0399,-0.0534 -0.0784,-0.10743 -0.11576,-0.16278 -0.0373,-0.0553 -0.0733,-0.11177 -0.108,-0.16898 -0.0347,-0.0572 -0.0683,-0.11516 -0.10025,-0.17415 -0.032,-0.059 -0.0623,-0.11915 -0.0915,-0.17983 -0.0146,-0.0303 -0.029,-0.0607 -0.0429,-0.0915 -0.0139,-0.0308 -0.0272,-0.0619 -0.0403,-0.093 -0.0131,-0.0311 -0.0258,-0.0625 -0.0382,-0.0941 -0.0124,-0.0315 -0.0245,-0.0632 -0.0362,-0.0951 -0.0116,-0.0319 -0.0232,-0.0639 -0.0341,-0.0961 -0.0109,-0.0323 -0.0209,-0.065 -0.031,-0.0977 -0.0101,-0.0326 -0.0201,-0.0652 -0.0294,-0.0982 -0.009,-0.033 -0.0183,-0.0659 -0.0269,-0.0992 -0.009,-0.0333 -0.0166,-0.0671 -0.0243,-0.10077 -0.008,-0.0336 -0.0148,-0.0674 -0.0217,-0.10129 -0.007,-0.0339 -0.0136,-0.0681 -0.0196,-0.10232 -0.006,-0.0342 -0.0118,-0.0683 -0.0171,-0.10283 -0.005,-0.0345 -0.0101,-0.0691 -0.0145,-0.10387 -0.004,-0.0348 -0.008,-0.0698 -0.0119,-0.10491 -0.004,-0.0351 -0.007,-0.0701 -0.009,-0.10542 -0.003,-0.0353 -0.005,-0.0709 -0.007,-0.10645 -0.002,-0.0356 -0.003,-0.0712 -0.004,-0.10697 -9e-4,-0.0358 -0.001,-0.072 -0.001,-0.108 v -7.93905 c 0,-0.036 1.3e-4,-0.0722 0.001,-0.10801 9.1e-4,-0.0358 0.002,-0.0714 0.004,-0.10697 0.002,-0.0356 0.004,-0.0706 0.007,-0.10593 0.003,-0.0353 0.006,-0.0709 0.009,-0.10594 0.004,-0.0351 0.007,-0.0701 0.0119,-0.1049 0.004,-0.0348 0.009,-0.0694 0.0145,-0.10387 0.005,-0.0345 0.011,-0.0686 0.0171,-0.10284 0.006,-0.0342 0.0127,-0.0684 0.0196,-0.10232 0.007,-0.0339 0.014,-0.0677 0.0217,-0.10128 0.008,-0.0336 0.0158,-0.0675 0.0243,-0.10077 0.009,-0.0333 0.0175,-0.0662 0.0269,-0.0992 0.009,-0.033 0.0194,-0.0656 0.0294,-0.0982 0.0101,-0.0326 0.0201,-0.0654 0.031,-0.0977 0.0109,-0.0323 0.0225,-0.0642 0.0341,-0.0961 0.0116,-0.0319 0.0238,-0.0636 0.0362,-0.0951 0.0124,-0.0315 0.0251,-0.0629 0.0382,-0.094 0.0131,-0.0311 0.0265,-0.0623 0.0403,-0.093 0.0139,-0.0308 0.0283,-0.0611 0.0429,-0.0915 0.0291,-0.0607 0.0595,-0.12085 0.0915,-0.17984 0.032,-0.059 0.0656,-0.11694 0.10025,-0.17415 0.0347,-0.0572 0.0707,-0.11364 0.108,-0.16898 0.0373,-0.0554 0.0759,-0.10939 0.11576,-0.16278 0.0399,-0.0534 0.0811,-0.10574 0.1235,-0.1571 0.0423,-0.0513 0.0855,-0.10166 0.13023,-0.15089 0.0123,-0.0135 0.0253,-0.0265 0.0377,-0.0398 -0.75879,-0.81343 -1.84055,-1.32137 -3.04581,-1.32137 z"
             sodipodi:nodetypes="cccsccssssssssscssccccsccccscssssscccccccccssssssssssssccc" />
        </g>
      </g>
      <g
         id="g27721"
         clip-path="url(#clipPath27141)">
        <ellipse
           style="fill:#000000;fill-opacity:1;stroke:#ffffff;stroke-width:0.3;stroke-linecap:round;stroke-linejoin:round;stroke-opacity:1;stroke-dasharray:none"
           id="ellipse27717"
           cx="-220.87587"
           cy="220.66331"
           rx="26.930979"
           ry="16.644262" />
        <ellipse
           style="fill:#003dba;fill-opacity:1;stroke:#ffffff;stroke-width:0.4;stroke-linecap:round;stroke-linejoin:round;stroke-dasharray:none;stroke-opacity:1"
           id="ellipse27719"
           cx="-220.87587"
           cy="217.9657"
           rx="16.108093"
           ry="9.9553499" />
      </g>
      <g
         id="g27731"
         style="fill:none;fill-opacity:1;stroke:#ffffff;stroke-width:0.242348;stroke-dasharray:none"
         transform="matrix(1.1883747,0,0,1.1883747,49.555155,-44.26854)">
        <g
           id="g27725"
           transform="translate(-4.4390964)"
           style="fill:none;fill-opacity:1;stroke:#ffffff;stroke-width:0.242348;stroke-dasharray:none">
          <path
             id="path27723"
             style="fill:none;fill-opacity:1;stroke:#ffffff;stroke-width:0.242348;stroke-linecap:round;stroke-linejoin:round;stroke-dasharray:none;stroke-opacity:1"
             d="m -243.22856,201.98302 v 8.13206 8.13206 h 4.88755 c 1.20526,0 2.28702,-0.50794 3.04581,-1.32136 -0.0124,-0.0133 -0.0255,-0.0263 -0.0377,-0.0398 -0.0447,-0.0492 -0.0879,-0.0995 -0.13023,-0.1509 -0.0423,-0.0514 -0.0836,-0.1037 -0.1235,-0.1571 -0.0399,-0.0534 -0.0784,-0.10743 -0.11576,-0.16278 -0.0373,-0.0553 -0.0733,-0.11177 -0.108,-0.16898 -0.0347,-0.0572 -0.0683,-0.11516 -0.10025,-0.17415 -0.032,-0.059 -0.0623,-0.11915 -0.0915,-0.17983 -0.0146,-0.0303 -0.029,-0.0607 -0.0429,-0.0915 -0.0139,-0.0308 -0.0272,-0.0619 -0.0403,-0.093 -0.0131,-0.0311 -0.0258,-0.0625 -0.0382,-0.0941 -0.0124,-0.0315 -0.0245,-0.0632 -0.0362,-0.0951 -0.0116,-0.0319 -0.0232,-0.0639 -0.0341,-0.0961 -0.0109,-0.0323 -0.0209,-0.065 -0.031,-0.0977 -0.0101,-0.0326 -0.0201,-0.0652 -0.0294,-0.0982 -0.009,-0.033 -0.0183,-0.0659 -0.0269,-0.0992 -0.009,-0.0333 -0.0166,-0.0671 -0.0243,-0.10077 -0.008,-0.0336 -0.0148,-0.0674 -0.0217,-0.10129 -0.007,-0.0339 -0.0136,-0.0681 -0.0196,-0.10232 -0.006,-0.0342 -0.0118,-0.0683 -0.0171,-0.10283 -0.005,-0.0345 -0.0101,-0.0691 -0.0145,-0.10387 -0.004,-0.0348 -0.008,-0.0698 -0.0119,-0.10491 -0.004,-0.0351 -0.007,-0.0701 -0.009,-0.10542 -0.003,-0.0353 -0.005,-0.0709 -0.007,-0.10645 -0.002,-0.0356 -0.003,-0.0712 -0.004,-0.10697 -9e-4,-0.0358 -0.001,-0.072 -0.001,-0.108 v -7.93905 c 0,-0.036 1.3e-4,-0.0722 0.001,-0.10801 9.1e-4,-0.0358 0.002,-0.0714 0.004,-0.10697 0.002,-0.0356 0.004,-0.0706 0.007,-0.10593 0.003,-0.0353 0.006,-0.0709 0.009,-0.10594 0.004,-0.0351 0.007,-0.0701 0.0119,-0.1049 0.004,-0.0348 0.009,-0.0694 0.0145,-0.10387 0.005,-0.0345 0.011,-0.0686 0.0171,-0.10284 0.006,-0.0342 0.0127,-0.0684 0.0196,-0.10232 0.007,-0.0339 0.014,-0.0677 0.0217,-0.10128 0.008,-0.0336 0.0158,-0.0675 0.0243,-0.10077 0.009,-0.0333 0.0175,-0.0662 0.0269,-0.0992 0.009,-0.033 0.0194,-0.0656 0.0294,-0.0982 0.0101,-0.0326 0.0201,-0.0654 0.031,-0.0977 0.0109,-0.0323 0.0225,-0.0642 0.0341,-0.0961 0.0116,-0.0319 0.0238,-0.0636 0.0362,-0.0951 0.0124,-0.0315 0.0251,-0.0629 0.0382,-0.094 0.0131,-0.0311 0.0265,-0.0623 0.0403,-0.093 0.0139,-0.0308 0.0283,-0.0611 0.0429,-0.0915 0.0291,-0.0607 0.0595,-0.12085 0.0915,-0.17984 0.032,-0.059 0.0656,-0.11694 0.10025,-0.17415 0.0347,-0.0572 0.0707,-0.11364 0.108,-0.16898 0.0373,-0.0554 0.0759,-0.10939 0.11576,-0.16278 0.0399,-0.0534 0.0811,-0.10574 0.1235,-0.1571 0.0423,-0.0513 0.0855,-0.10166 0.13023,-0.15089 0.0123,-0.0135 0.0253,-0.0265 0.0377,-0.0398 -0.75879,-0.81343 -1.84055,-1.32137 -3.04581,-1.32137 z"
             sodipodi:nodetypes="cccsccssssssssscssccccsccccscssssscccccccccssssssssssssccc" />
        </g>
        <g
           id="g27729"
           transform="matrix(-1,0,0,1,-473.35777,0)"
           style="fill:none;fill-opacity:1;stroke:#ffffff;stroke-width:0.242348;stroke-dasharray:none">
          <path
             id="path27727"
             style="fill:none;fill-opacity:1;stroke:#ffffff;stroke-width:0.242348;stroke-linecap:round;stroke-linejoin:round;stroke-dasharray:none;stroke-opacity:1"
             d="m -241.55683,201.98302 v 8.13206 8.13206 h 4.88755 c 1.20526,0 2.28702,-0.50794 3.04581,-1.32136 -0.0124,-0.0133 -0.0255,-0.0263 -0.0377,-0.0398 -0.0447,-0.0492 -0.0879,-0.0995 -0.13023,-0.1509 -0.0423,-0.0514 -0.0836,-0.1037 -0.1235,-0.1571 -0.0399,-0.0534 -0.0784,-0.10743 -0.11576,-0.16278 -0.0373,-0.0553 -0.0733,-0.11177 -0.108,-0.16898 -0.0347,-0.0572 -0.0683,-0.11516 -0.10025,-0.17415 -0.032,-0.059 -0.0623,-0.11915 -0.0915,-0.17983 -0.0146,-0.0303 -0.029,-0.0607 -0.0429,-0.0915 -0.0139,-0.0308 -0.0272,-0.0619 -0.0403,-0.093 -0.0131,-0.0311 -0.0258,-0.0625 -0.0382,-0.0941 -0.0124,-0.0315 -0.0245,-0.0632 -0.0362,-0.0951 -0.0116,-0.0319 -0.0232,-0.0639 -0.0341,-0.0961 -0.0109,-0.0323 -0.0209,-0.065 -0.031,-0.0977 -0.0101,-0.0326 -0.0201,-0.0652 -0.0294,-0.0982 -0.009,-0.033 -0.0183,-0.0659 -0.0269,-0.0992 -0.009,-0.0333 -0.0166,-0.0671 -0.0243,-0.10077 -0.008,-0.0336 -0.0148,-0.0674 -0.0217,-0.10129 -0.007,-0.0339 -0.0136,-0.0681 -0.0196,-0.10232 -0.006,-0.0342 -0.0118,-0.0683 -0.0171,-0.10283 -0.005,-0.0345 -0.0101,-0.0691 -0.0145,-0.10387 -0.004,-0.0348 -0.008,-0.0698 -0.0119,-0.10491 -0.004,-0.0351 -0.007,-0.0701 -0.009,-0.10542 -0.003,-0.0353 -0.005,-0.0709 -0.007,-0.10645 -0.002,-0.0356 -0.003,-0.0712 -0.004,-0.10697 -9e-4,-0.0358 -0.001,-0.072 -0.001,-0.108 v -7.93905 c 0,-0.036 1.3e-4,-0.0722 0.001,-0.10801 9.1e-4,-0.0358 0.002,-0.0714 0.004,-0.10697 0.002,-0.0356 0.004,-0.0706 0.007,-0.10593 0.003,-0.0353 0.006,-0.0709 0.009,-0.10594 0.004,-0.0351 0.007,-0.0701 0.0119,-0.1049 0.004,-0.0348 0.009,-0.0694 0.0145,-0.10387 0.005,-0.0345 0.011,-0.0686 0.0171,-0.10284 0.006,-0.0342 0.0127,-0.0684 0.0196,-0.10232 0.007,-0.0339 0.014,-0.0677 0.0217,-0.10128 0.008,-0.0336 0.0158,-0.0675 0.0243,-0.10077 0.009,-0.0333 0.0175,-0.0662 0.0269,-0.0992 0.009,-0.033 0.0194,-0.0656 0.0294,-0.0982 0.0101,-0.0326 0.0201,-0.0654 0.031,-0.0977 0.0109,-0.0323 0.0225,-0.0642 0.0341,-0.0961 0.0116,-0.0319 0.0238,-0.0636 0.0362,-0.0951 0.0124,-0.0315 0.0251,-0.0629 0.0382,-0.094 0.0131,-0.0311 0.0265,-0.0623 0.0403,-0.093 0.0139,-0.0308 0.0283,-0.0611 0.0429,-0.0915 0.0291,-0.0607 0.0595,-0.12085 0.0915,-0.17984 0.032,-0.059 0.0656,-0.11694 0.10025,-0.17415 0.0347,-0.0572 0.0707,-0.11364 0.108,-0.16898 0.0373,-0.0554 0.0759,-0.10939 0.11576,-0.16278 0.0399,-0.0534 0.0811,-0.10574 0.1235,-0.1571 0.0423,-0.0513 0.0855,-0.10166 0.13023,-0.15089 0.0123,-0.0135 0.0253,-0.0265 0.0377,-0.0398 -0.75879,-0.81343 -1.84055,-1.32137 -3.04581,-1.32137 z"
             sodipodi:nodetypes="cccsccssssssssscssccccsccccscssssscccccccccssssssssssssccc" />
        </g>
      </g>
    </g>
    <text
       xml:space="preserve"
       style="font-size:11.5752px;line-height:1;font-family:'Creato Display';-inkscape-font-specification:'Creato Display';text-align:start;letter-spacing:0.574146px;word-spacing:0px;text-anchor:start;white-space:pre;inline-size:129.522;display:inline;fill:#ffffff;stroke-width:0.289382"
       x="-254.61861"
       y="226.98405"
       id="text27737"
       transform="matrix(0.41464667,0,0,0.41464667,-72.262118,155.23334)"><tspan
         x="-254.61861"
         y="226.98405"
         id="tspan35766"><tspan
           style="font-weight:500;font-family:'Fira Sans';-inkscape-font-specification:'Fira Sans Medium'"
           id="tspan35764">DUTA
</tspan></tspan><tspan
         x="-254.61861"
         y="238.84671"
         id="tspan35770"><tspan
           style="font-weight:500;font-family:'Fira Sans';-inkscape-font-specification:'Fira Sans Medium'"
           id="tspan35768">SAKINAH
</tspan></tspan><tspan
         x="-254.61861"
         y="250.70937"
         id="tspan35774"><tspan
           style="font-weight:500;font-family:'Fira Sans';-inkscape-font-specification:'Fira Sans Medium'"
           id="tspan35772">FIRST</tspan></tspan></text>
    <text
       xml:space="preserve"
       style="font-size:11.5752px;line-height:1;font-family:'Creato Display';-inkscape-font-specification:'Creato Display';text-align:start;letter-spacing:0.574146px;word-spacing:0px;text-anchor:start;white-space:pre;inline-size:115.46;display:inline;fill:#ffffff;stroke-width:0.289382"
       x="-254.61861"
       y="226.98405"
       id="text27743"
       transform="matrix(0.17700575,0,0,0.17700575,-132.82368,222.24346)"><tspan
         x="-254.61861"
         y="226.98405"
         id="tspan35778"><tspan
           style="font-weight:300;font-family:'Fira Sans';-inkscape-font-specification:'Fira Sans Light'"
           id="tspan35776">Education</tspan></tspan></text>
    <g
       id="g31152"
       transform="translate(-5.9750428,48.319606)">
      <g
         id="g31150"
         style="fill:none;fill-opacity:1;stroke:#ffffff;stroke-width:0.242348;stroke-dasharray:none"
         transform="matrix(1.1883747,0,0,1.1883747,49.555155,-44.26854)">
        <g
           id="g31144"
           transform="translate(-4.4390964)"
           style="fill:none;fill-opacity:1;stroke:#ffffff;stroke-width:0.242348;stroke-dasharray:none">
          <path
             id="path31142"
             style="fill:#003dba;fill-opacity:1;stroke:#ffffff;stroke-width:0.242348;stroke-linecap:round;stroke-linejoin:round;stroke-dasharray:none;stroke-opacity:1"
             d="m -243.22856,201.98302 v 8.13206 8.13206 h 4.88755 c 1.20526,0 2.28702,-0.50794 3.04581,-1.32136 -0.0124,-0.0133 -0.0255,-0.0263 -0.0377,-0.0398 -0.0447,-0.0492 -0.0879,-0.0995 -0.13023,-0.1509 -0.0423,-0.0514 -0.0836,-0.1037 -0.1235,-0.1571 -0.0399,-0.0534 -0.0784,-0.10743 -0.11576,-0.16278 -0.0373,-0.0553 -0.0733,-0.11177 -0.108,-0.16898 -0.0347,-0.0572 -0.0683,-0.11516 -0.10025,-0.17415 -0.032,-0.059 -0.0623,-0.11915 -0.0915,-0.17983 -0.0146,-0.0303 -0.029,-0.0607 -0.0429,-0.0915 -0.0139,-0.0308 -0.0272,-0.0619 -0.0403,-0.093 -0.0131,-0.0311 -0.0258,-0.0625 -0.0382,-0.0941 -0.0124,-0.0315 -0.0245,-0.0632 -0.0362,-0.0951 -0.0116,-0.0319 -0.0232,-0.0639 -0.0341,-0.0961 -0.0109,-0.0323 -0.0209,-0.065 -0.031,-0.0977 -0.0101,-0.0326 -0.0201,-0.0652 -0.0294,-0.0982 -0.009,-0.033 -0.0183,-0.0659 -0.0269,-0.0992 -0.009,-0.0333 -0.0166,-0.0671 -0.0243,-0.10077 -0.008,-0.0336 -0.0148,-0.0674 -0.0217,-0.10129 -0.007,-0.0339 -0.0136,-0.0681 -0.0196,-0.10232 -0.006,-0.0342 -0.0118,-0.0683 -0.0171,-0.10283 -0.005,-0.0345 -0.0101,-0.0691 -0.0145,-0.10387 -0.004,-0.0348 -0.008,-0.0698 -0.0119,-0.10491 -0.004,-0.0351 -0.007,-0.0701 -0.009,-0.10542 -0.003,-0.0353 -0.005,-0.0709 -0.007,-0.10645 -0.002,-0.0356 -0.003,-0.0712 -0.004,-0.10697 -9e-4,-0.0358 -0.001,-0.072 -0.001,-0.108 v -7.93905 c 0,-0.036 1.3e-4,-0.0722 0.001,-0.10801 9.1e-4,-0.0358 0.002,-0.0714 0.004,-0.10697 0.002,-0.0356 0.004,-0.0706 0.007,-0.10593 0.003,-0.0353 0.006,-0.0709 0.009,-0.10594 0.004,-0.0351 0.007,-0.0701 0.0119,-0.1049 0.004,-0.0348 0.009,-0.0694 0.0145,-0.10387 0.005,-0.0345 0.011,-0.0686 0.0171,-0.10284 0.006,-0.0342 0.0127,-0.0684 0.0196,-0.10232 0.007,-0.0339 0.014,-0.0677 0.0217,-0.10128 0.008,-0.0336 0.0158,-0.0675 0.0243,-0.10077 0.009,-0.0333 0.0175,-0.0662 0.0269,-0.0992 0.009,-0.033 0.0194,-0.0656 0.0294,-0.0982 0.0101,-0.0326 0.0201,-0.0654 0.031,-0.0977 0.0109,-0.0323 0.0225,-0.0642 0.0341,-0.0961 0.0116,-0.0319 0.0238,-0.0636 0.0362,-0.0951 0.0124,-0.0315 0.0251,-0.0629 0.0382,-0.094 0.0131,-0.0311 0.0265,-0.0623 0.0403,-0.093 0.0139,-0.0308 0.0283,-0.0611 0.0429,-0.0915 0.0291,-0.0607 0.0595,-0.12085 0.0915,-0.17984 0.032,-0.059 0.0656,-0.11694 0.10025,-0.17415 0.0347,-0.0572 0.0707,-0.11364 0.108,-0.16898 0.0373,-0.0554 0.0759,-0.10939 0.11576,-0.16278 0.0399,-0.0534 0.0811,-0.10574 0.1235,-0.1571 0.0423,-0.0513 0.0855,-0.10166 0.13023,-0.15089 0.0123,-0.0135 0.0253,-0.0265 0.0377,-0.0398 -0.75879,-0.81343 -1.84055,-1.32137 -3.04581,-1.32137 z"
             sodipodi:nodetypes="cccsccssssssssscssccccsccccscssssscccccccccssssssssssssccc" />
        </g>
        <g
           id="g31148"
           transform="matrix(-1,0,0,1,-473.35777,0)"
           style="fill:none;fill-opacity:1;stroke:#ffffff;stroke-width:0.242348;stroke-dasharray:none">
          <path
             id="path31146"
             style="fill:#003dba;fill-opacity:1;stroke:#ffffff;stroke-width:0.242348;stroke-linecap:round;stroke-linejoin:round;stroke-dasharray:none;stroke-opacity:1"
             d="m -241.55683,201.98302 v 8.13206 8.13206 h 4.88755 c 1.20526,0 2.28702,-0.50794 3.04581,-1.32136 -0.0124,-0.0133 -0.0255,-0.0263 -0.0377,-0.0398 -0.0447,-0.0492 -0.0879,-0.0995 -0.13023,-0.1509 -0.0423,-0.0514 -0.0836,-0.1037 -0.1235,-0.1571 -0.0399,-0.0534 -0.0784,-0.10743 -0.11576,-0.16278 -0.0373,-0.0553 -0.0733,-0.11177 -0.108,-0.16898 -0.0347,-0.0572 -0.0683,-0.11516 -0.10025,-0.17415 -0.032,-0.059 -0.0623,-0.11915 -0.0915,-0.17983 -0.0146,-0.0303 -0.029,-0.0607 -0.0429,-0.0915 -0.0139,-0.0308 -0.0272,-0.0619 -0.0403,-0.093 -0.0131,-0.0311 -0.0258,-0.0625 -0.0382,-0.0941 -0.0124,-0.0315 -0.0245,-0.0632 -0.0362,-0.0951 -0.0116,-0.0319 -0.0232,-0.0639 -0.0341,-0.0961 -0.0109,-0.0323 -0.0209,-0.065 -0.031,-0.0977 -0.0101,-0.0326 -0.0201,-0.0652 -0.0294,-0.0982 -0.009,-0.033 -0.0183,-0.0659 -0.0269,-0.0992 -0.009,-0.0333 -0.0166,-0.0671 -0.0243,-0.10077 -0.008,-0.0336 -0.0148,-0.0674 -0.0217,-0.10129 -0.007,-0.0339 -0.0136,-0.0681 -0.0196,-0.10232 -0.006,-0.0342 -0.0118,-0.0683 -0.0171,-0.10283 -0.005,-0.0345 -0.0101,-0.0691 -0.0145,-0.10387 -0.004,-0.0348 -0.008,-0.0698 -0.0119,-0.10491 -0.004,-0.0351 -0.007,-0.0701 -0.009,-0.10542 -0.003,-0.0353 -0.005,-0.0709 -0.007,-0.10645 -0.002,-0.0356 -0.003,-0.0712 -0.004,-0.10697 -9e-4,-0.0358 -0.001,-0.072 -0.001,-0.108 v -7.93905 c 0,-0.036 1.3e-4,-0.0722 0.001,-0.10801 9.1e-4,-0.0358 0.002,-0.0714 0.004,-0.10697 0.002,-0.0356 0.004,-0.0706 0.007,-0.10593 0.003,-0.0353 0.006,-0.0709 0.009,-0.10594 0.004,-0.0351 0.007,-0.0701 0.0119,-0.1049 0.004,-0.0348 0.009,-0.0694 0.0145,-0.10387 0.005,-0.0345 0.011,-0.0686 0.0171,-0.10284 0.006,-0.0342 0.0127,-0.0684 0.0196,-0.10232 0.007,-0.0339 0.014,-0.0677 0.0217,-0.10128 0.008,-0.0336 0.0158,-0.0675 0.0243,-0.10077 0.009,-0.0333 0.0175,-0.0662 0.0269,-0.0992 0.009,-0.033 0.0194,-0.0656 0.0294,-0.0982 0.0101,-0.0326 0.0201,-0.0654 0.031,-0.0977 0.0109,-0.0323 0.0225,-0.0642 0.0341,-0.0961 0.0116,-0.0319 0.0238,-0.0636 0.0362,-0.0951 0.0124,-0.0315 0.0251,-0.0629 0.0382,-0.094 0.0131,-0.0311 0.0265,-0.0623 0.0403,-0.093 0.0139,-0.0308 0.0283,-0.0611 0.0429,-0.0915 0.0291,-0.0607 0.0595,-0.12085 0.0915,-0.17984 0.032,-0.059 0.0656,-0.11694 0.10025,-0.17415 0.0347,-0.0572 0.0707,-0.11364 0.108,-0.16898 0.0373,-0.0554 0.0759,-0.10939 0.11576,-0.16278 0.0399,-0.0534 0.0811,-0.10574 0.1235,-0.1571 0.0423,-0.0513 0.0855,-0.10166 0.13023,-0.15089 0.0123,-0.0135 0.0253,-0.0265 0.0377,-0.0398 -0.75879,-0.81343 -1.84055,-1.32137 -3.04581,-1.32137 z"
             sodipodi:nodetypes="cccsccssssssssscssccccsccccscssssscccccccccssssssssssssccc" />
        </g>
      </g>
      <g
         id="g31140"
         clip-path="url(#clipPath27141)">
        <ellipse
           style="fill:#000000;fill-opacity:1;stroke:#ffffff;stroke-width:0.3;stroke-linecap:round;stroke-linejoin:round;stroke-dasharray:none;stroke-opacity:1"
           id="ellipse31136"
           cx="-220.87587"
           cy="220.66331"
           rx="26.930979"
           ry="16.644262" />
        <ellipse
           style="fill:#000000;fill-opacity:1;stroke:#ffffff;stroke-width:0.4;stroke-linecap:round;stroke-linejoin:round;stroke-dasharray:none;stroke-opacity:1"
           id="ellipse31138"
           cx="-220.87587"
           cy="217.9657"
           rx="16.108093"
           ry="9.9553499" />
      </g>
      <g
         id="g32000"
         style="fill:none;fill-opacity:1;stroke:#ffffff;stroke-width:0.242348;stroke-dasharray:none"
         transform="matrix(1.1883747,0,0,1.1883747,49.555155,-44.26854)">
        <g
           id="g31994"
           transform="translate(-4.4390964)"
           style="fill:none;fill-opacity:1;stroke:#ffffff;stroke-width:0.242348;stroke-dasharray:none">
          <path
             id="path31992"
             style="fill:none;fill-opacity:1;stroke:#ffffff;stroke-width:0.242348;stroke-linecap:round;stroke-linejoin:round;stroke-dasharray:none;stroke-opacity:1"
             d="m -243.22856,201.98302 v 8.13206 8.13206 h 4.88755 c 1.20526,0 2.28702,-0.50794 3.04581,-1.32136 -0.0124,-0.0133 -0.0255,-0.0263 -0.0377,-0.0398 -0.0447,-0.0492 -0.0879,-0.0995 -0.13023,-0.1509 -0.0423,-0.0514 -0.0836,-0.1037 -0.1235,-0.1571 -0.0399,-0.0534 -0.0784,-0.10743 -0.11576,-0.16278 -0.0373,-0.0553 -0.0733,-0.11177 -0.108,-0.16898 -0.0347,-0.0572 -0.0683,-0.11516 -0.10025,-0.17415 -0.032,-0.059 -0.0623,-0.11915 -0.0915,-0.17983 -0.0146,-0.0303 -0.029,-0.0607 -0.0429,-0.0915 -0.0139,-0.0308 -0.0272,-0.0619 -0.0403,-0.093 -0.0131,-0.0311 -0.0258,-0.0625 -0.0382,-0.0941 -0.0124,-0.0315 -0.0245,-0.0632 -0.0362,-0.0951 -0.0116,-0.0319 -0.0232,-0.0639 -0.0341,-0.0961 -0.0109,-0.0323 -0.0209,-0.065 -0.031,-0.0977 -0.0101,-0.0326 -0.0201,-0.0652 -0.0294,-0.0982 -0.009,-0.033 -0.0183,-0.0659 -0.0269,-0.0992 -0.009,-0.0333 -0.0166,-0.0671 -0.0243,-0.10077 -0.008,-0.0336 -0.0148,-0.0674 -0.0217,-0.10129 -0.007,-0.0339 -0.0136,-0.0681 -0.0196,-0.10232 -0.006,-0.0342 -0.0118,-0.0683 -0.0171,-0.10283 -0.005,-0.0345 -0.0101,-0.0691 -0.0145,-0.10387 -0.004,-0.0348 -0.008,-0.0698 -0.0119,-0.10491 -0.004,-0.0351 -0.007,-0.0701 -0.009,-0.10542 -0.003,-0.0353 -0.005,-0.0709 -0.007,-0.10645 -0.002,-0.0356 -0.003,-0.0712 -0.004,-0.10697 -9e-4,-0.0358 -0.001,-0.072 -0.001,-0.108 v -7.93905 c 0,-0.036 1.3e-4,-0.0722 0.001,-0.10801 9.1e-4,-0.0358 0.002,-0.0714 0.004,-0.10697 0.002,-0.0356 0.004,-0.0706 0.007,-0.10593 0.003,-0.0353 0.006,-0.0709 0.009,-0.10594 0.004,-0.0351 0.007,-0.0701 0.0119,-0.1049 0.004,-0.0348 0.009,-0.0694 0.0145,-0.10387 0.005,-0.0345 0.011,-0.0686 0.0171,-0.10284 0.006,-0.0342 0.0127,-0.0684 0.0196,-0.10232 0.007,-0.0339 0.014,-0.0677 0.0217,-0.10128 0.008,-0.0336 0.0158,-0.0675 0.0243,-0.10077 0.009,-0.0333 0.0175,-0.0662 0.0269,-0.0992 0.009,-0.033 0.0194,-0.0656 0.0294,-0.0982 0.0101,-0.0326 0.0201,-0.0654 0.031,-0.0977 0.0109,-0.0323 0.0225,-0.0642 0.0341,-0.0961 0.0116,-0.0319 0.0238,-0.0636 0.0362,-0.0951 0.0124,-0.0315 0.0251,-0.0629 0.0382,-0.094 0.0131,-0.0311 0.0265,-0.0623 0.0403,-0.093 0.0139,-0.0308 0.0283,-0.0611 0.0429,-0.0915 0.0291,-0.0607 0.0595,-0.12085 0.0915,-0.17984 0.032,-0.059 0.0656,-0.11694 0.10025,-0.17415 0.0347,-0.0572 0.0707,-0.11364 0.108,-0.16898 0.0373,-0.0554 0.0759,-0.10939 0.11576,-0.16278 0.0399,-0.0534 0.0811,-0.10574 0.1235,-0.1571 0.0423,-0.0513 0.0855,-0.10166 0.13023,-0.15089 0.0123,-0.0135 0.0253,-0.0265 0.0377,-0.0398 -0.75879,-0.81343 -1.84055,-1.32137 -3.04581,-1.32137 z"
             sodipodi:nodetypes="cccsccssssssssscssccccsccccscssssscccccccccssssssssssssccc" />
        </g>
        <g
           id="g31998"
           transform="matrix(-1,0,0,1,-473.35777,0)"
           style="fill:none;fill-opacity:1;stroke:#ffffff;stroke-width:0.242348;stroke-dasharray:none">
          <path
             id="path31996"
             style="fill:none;fill-opacity:1;stroke:#ffffff;stroke-width:0.242348;stroke-linecap:round;stroke-linejoin:round;stroke-dasharray:none;stroke-opacity:1"
             d="m -241.55683,201.98302 v 8.13206 8.13206 h 4.88755 c 1.20526,0 2.28702,-0.50794 3.04581,-1.32136 -0.0124,-0.0133 -0.0255,-0.0263 -0.0377,-0.0398 -0.0447,-0.0492 -0.0879,-0.0995 -0.13023,-0.1509 -0.0423,-0.0514 -0.0836,-0.1037 -0.1235,-0.1571 -0.0399,-0.0534 -0.0784,-0.10743 -0.11576,-0.16278 -0.0373,-0.0553 -0.0733,-0.11177 -0.108,-0.16898 -0.0347,-0.0572 -0.0683,-0.11516 -0.10025,-0.17415 -0.032,-0.059 -0.0623,-0.11915 -0.0915,-0.17983 -0.0146,-0.0303 -0.029,-0.0607 -0.0429,-0.0915 -0.0139,-0.0308 -0.0272,-0.0619 -0.0403,-0.093 -0.0131,-0.0311 -0.0258,-0.0625 -0.0382,-0.0941 -0.0124,-0.0315 -0.0245,-0.0632 -0.0362,-0.0951 -0.0116,-0.0319 -0.0232,-0.0639 -0.0341,-0.0961 -0.0109,-0.0323 -0.0209,-0.065 -0.031,-0.0977 -0.0101,-0.0326 -0.0201,-0.0652 -0.0294,-0.0982 -0.009,-0.033 -0.0183,-0.0659 -0.0269,-0.0992 -0.009,-0.0333 -0.0166,-0.0671 -0.0243,-0.10077 -0.008,-0.0336 -0.0148,-0.0674 -0.0217,-0.10129 -0.007,-0.0339 -0.0136,-0.0681 -0.0196,-0.10232 -0.006,-0.0342 -0.0118,-0.0683 -0.0171,-0.10283 -0.005,-0.0345 -0.0101,-0.0691 -0.0145,-0.10387 -0.004,-0.0348 -0.008,-0.0698 -0.0119,-0.10491 -0.004,-0.0351 -0.007,-0.0701 -0.009,-0.10542 -0.003,-0.0353 -0.005,-0.0709 -0.007,-0.10645 -0.002,-0.0356 -0.003,-0.0712 -0.004,-0.10697 -9e-4,-0.0358 -0.001,-0.072 -0.001,-0.108 v -7.93905 c 0,-0.036 1.3e-4,-0.0722 0.001,-0.10801 9.1e-4,-0.0358 0.002,-0.0714 0.004,-0.10697 0.002,-0.0356 0.004,-0.0706 0.007,-0.10593 0.003,-0.0353 0.006,-0.0709 0.009,-0.10594 0.004,-0.0351 0.007,-0.0701 0.0119,-0.1049 0.004,-0.0348 0.009,-0.0694 0.0145,-0.10387 0.005,-0.0345 0.011,-0.0686 0.0171,-0.10284 0.006,-0.0342 0.0127,-0.0684 0.0196,-0.10232 0.007,-0.0339 0.014,-0.0677 0.0217,-0.10128 0.008,-0.0336 0.0158,-0.0675 0.0243,-0.10077 0.009,-0.0333 0.0175,-0.0662 0.0269,-0.0992 0.009,-0.033 0.0194,-0.0656 0.0294,-0.0982 0.0101,-0.0326 0.0201,-0.0654 0.031,-0.0977 0.0109,-0.0323 0.0225,-0.0642 0.0341,-0.0961 0.0116,-0.0319 0.0238,-0.0636 0.0362,-0.0951 0.0124,-0.0315 0.0251,-0.0629 0.0382,-0.094 0.0131,-0.0311 0.0265,-0.0623 0.0403,-0.093 0.0139,-0.0308 0.0283,-0.0611 0.0429,-0.0915 0.0291,-0.0607 0.0595,-0.12085 0.0915,-0.17984 0.032,-0.059 0.0656,-0.11694 0.10025,-0.17415 0.0347,-0.0572 0.0707,-0.11364 0.108,-0.16898 0.0373,-0.0554 0.0759,-0.10939 0.11576,-0.16278 0.0399,-0.0534 0.0811,-0.10574 0.1235,-0.1571 0.0423,-0.0513 0.0855,-0.10166 0.13023,-0.15089 0.0123,-0.0135 0.0253,-0.0265 0.0377,-0.0398 -0.75879,-0.81343 -1.84055,-1.32137 -3.04581,-1.32137 z"
             sodipodi:nodetypes="cccsccssssssssscssccccsccccscssssscccccccccssssssssssssccc" />
        </g>
      </g>
    </g>
    <text
       xml:space="preserve"
       style="font-size:11.5752px;line-height:1;font-family:'Creato Display';-inkscape-font-specification:'Creato Display';text-align:start;letter-spacing:0.574146px;word-spacing:0px;text-anchor:start;white-space:pre;inline-size:129.522;display:inline;fill:#ffffff;stroke-width:0.289382"
       x="-254.61861"
       y="226.98405"
       id="text31156"
       transform="matrix(0.41464667,0,0,0.41464667,-122.39094,155.23334)"><tspan
         x="-254.61861"
         y="226.98405"
         id="tspan35782"><tspan
           style="font-weight:500;font-family:'Fira Sans';-inkscape-font-specification:'Fira Sans Medium'"
           id="tspan35780">DUTA
</tspan></tspan><tspan
         x="-254.61861"
         y="238.84671"
         id="tspan35786"><tspan
           style="font-weight:500;font-family:'Fira Sans';-inkscape-font-specification:'Fira Sans Medium'"
           id="tspan35784">SAKINAH
</tspan></tspan><tspan
         x="-254.61861"
         y="250.70937"
         id="tspan35790"><tspan
           style="font-weight:500;font-family:'Fira Sans';-inkscape-font-specification:'Fira Sans Medium'"
           id="tspan35788">FIRST</tspan></tspan></text>
    <text
       xml:space="preserve"
       style="font-size:11.5752px;line-height:1;font-family:'Creato Display';-inkscape-font-specification:'Creato Display';text-align:start;letter-spacing:0.574146px;word-spacing:0px;text-anchor:start;white-space:pre;inline-size:115.46;display:inline;fill:#ffffff;stroke-width:0.289382"
       x="-254.61861"
       y="226.98405"
       id="text31162"
       transform="matrix(0.17700575,0,0,0.17700575,-182.9525,222.24346)"><tspan
         x="-254.61861"
         y="226.98405"
         id="tspan35794"><tspan
           style="font-weight:300;font-family:'Fira Sans';-inkscape-font-specification:'Fira Sans Light'"
           id="tspan35792">Tour &amp; Travel</tspan></tspan></text>
    <g
       id="g34392"
       transform="translate(-59.845713,48.319606)"
       style="stroke:none">
      <g
         id="g34374"
         style="fill:none;fill-opacity:1;stroke:none;stroke-width:0.242348;stroke-dasharray:none"
         transform="matrix(1.1883747,0,0,1.1883747,49.555155,-44.26854)">
        <g
           id="g34368"
           transform="translate(-4.4390964)"
           style="fill:none;fill-opacity:1;stroke:none;stroke-width:0.242348;stroke-dasharray:none">
          <path
             id="path34366"
             style="fill:#003dba;fill-opacity:1;stroke:none;stroke-width:0.242348;stroke-linecap:round;stroke-linejoin:round;stroke-dasharray:none;stroke-opacity:1"
             d="m -243.22856,201.98302 v 8.13206 8.13206 h 4.88755 c 1.20526,0 2.28702,-0.50794 3.04581,-1.32136 -0.0124,-0.0133 -0.0255,-0.0263 -0.0377,-0.0398 -0.0447,-0.0492 -0.0879,-0.0995 -0.13023,-0.1509 -0.0423,-0.0514 -0.0836,-0.1037 -0.1235,-0.1571 -0.0399,-0.0534 -0.0784,-0.10743 -0.11576,-0.16278 -0.0373,-0.0553 -0.0733,-0.11177 -0.108,-0.16898 -0.0347,-0.0572 -0.0683,-0.11516 -0.10025,-0.17415 -0.032,-0.059 -0.0623,-0.11915 -0.0915,-0.17983 -0.0146,-0.0303 -0.029,-0.0607 -0.0429,-0.0915 -0.0139,-0.0308 -0.0272,-0.0619 -0.0403,-0.093 -0.0131,-0.0311 -0.0258,-0.0625 -0.0382,-0.0941 -0.0124,-0.0315 -0.0245,-0.0632 -0.0362,-0.0951 -0.0116,-0.0319 -0.0232,-0.0639 -0.0341,-0.0961 -0.0109,-0.0323 -0.0209,-0.065 -0.031,-0.0977 -0.0101,-0.0326 -0.0201,-0.0652 -0.0294,-0.0982 -0.009,-0.033 -0.0183,-0.0659 -0.0269,-0.0992 -0.009,-0.0333 -0.0166,-0.0671 -0.0243,-0.10077 -0.008,-0.0336 -0.0148,-0.0674 -0.0217,-0.10129 -0.007,-0.0339 -0.0136,-0.0681 -0.0196,-0.10232 -0.006,-0.0342 -0.0118,-0.0683 -0.0171,-0.10283 -0.005,-0.0345 -0.0101,-0.0691 -0.0145,-0.10387 -0.004,-0.0348 -0.008,-0.0698 -0.0119,-0.10491 -0.004,-0.0351 -0.007,-0.0701 -0.009,-0.10542 -0.003,-0.0353 -0.005,-0.0709 -0.007,-0.10645 -0.002,-0.0356 -0.003,-0.0712 -0.004,-0.10697 -9e-4,-0.0358 -0.001,-0.072 -0.001,-0.108 v -7.93905 c 0,-0.036 1.3e-4,-0.0722 0.001,-0.10801 9.1e-4,-0.0358 0.002,-0.0714 0.004,-0.10697 0.002,-0.0356 0.004,-0.0706 0.007,-0.10593 0.003,-0.0353 0.006,-0.0709 0.009,-0.10594 0.004,-0.0351 0.007,-0.0701 0.0119,-0.1049 0.004,-0.0348 0.009,-0.0694 0.0145,-0.10387 0.005,-0.0345 0.011,-0.0686 0.0171,-0.10284 0.006,-0.0342 0.0127,-0.0684 0.0196,-0.10232 0.007,-0.0339 0.014,-0.0677 0.0217,-0.10128 0.008,-0.0336 0.0158,-0.0675 0.0243,-0.10077 0.009,-0.0333 0.0175,-0.0662 0.0269,-0.0992 0.009,-0.033 0.0194,-0.0656 0.0294,-0.0982 0.0101,-0.0326 0.0201,-0.0654 0.031,-0.0977 0.0109,-0.0323 0.0225,-0.0642 0.0341,-0.0961 0.0116,-0.0319 0.0238,-0.0636 0.0362,-0.0951 0.0124,-0.0315 0.0251,-0.0629 0.0382,-0.094 0.0131,-0.0311 0.0265,-0.0623 0.0403,-0.093 0.0139,-0.0308 0.0283,-0.0611 0.0429,-0.0915 0.0291,-0.0607 0.0595,-0.12085 0.0915,-0.17984 0.032,-0.059 0.0656,-0.11694 0.10025,-0.17415 0.0347,-0.0572 0.0707,-0.11364 0.108,-0.16898 0.0373,-0.0554 0.0759,-0.10939 0.11576,-0.16278 0.0399,-0.0534 0.0811,-0.10574 0.1235,-0.1571 0.0423,-0.0513 0.0855,-0.10166 0.13023,-0.15089 0.0123,-0.0135 0.0253,-0.0265 0.0377,-0.0398 -0.75879,-0.81343 -1.84055,-1.32137 -3.04581,-1.32137 z"
             sodipodi:nodetypes="cccsccssssssssscssccccsccccscssssscccccccccssssssssssssccc" />
        </g>
        <g
           id="g34372"
           transform="matrix(-1,0,0,1,-473.35777,0)"
           style="fill:none;fill-opacity:1;stroke:none;stroke-width:0.242348;stroke-dasharray:none">
          <path
             id="path34370"
             style="fill:#003dba;fill-opacity:1;stroke:none;stroke-width:0.242348;stroke-linecap:round;stroke-linejoin:round;stroke-dasharray:none;stroke-opacity:1"
             d="m -241.55683,201.98302 v 8.13206 8.13206 h 4.88755 c 1.20526,0 2.28702,-0.50794 3.04581,-1.32136 -0.0124,-0.0133 -0.0255,-0.0263 -0.0377,-0.0398 -0.0447,-0.0492 -0.0879,-0.0995 -0.13023,-0.1509 -0.0423,-0.0514 -0.0836,-0.1037 -0.1235,-0.1571 -0.0399,-0.0534 -0.0784,-0.10743 -0.11576,-0.16278 -0.0373,-0.0553 -0.0733,-0.11177 -0.108,-0.16898 -0.0347,-0.0572 -0.0683,-0.11516 -0.10025,-0.17415 -0.032,-0.059 -0.0623,-0.11915 -0.0915,-0.17983 -0.0146,-0.0303 -0.029,-0.0607 -0.0429,-0.0915 -0.0139,-0.0308 -0.0272,-0.0619 -0.0403,-0.093 -0.0131,-0.0311 -0.0258,-0.0625 -0.0382,-0.0941 -0.0124,-0.0315 -0.0245,-0.0632 -0.0362,-0.0951 -0.0116,-0.0319 -0.0232,-0.0639 -0.0341,-0.0961 -0.0109,-0.0323 -0.0209,-0.065 -0.031,-0.0977 -0.0101,-0.0326 -0.0201,-0.0652 -0.0294,-0.0982 -0.009,-0.033 -0.0183,-0.0659 -0.0269,-0.0992 -0.009,-0.0333 -0.0166,-0.0671 -0.0243,-0.10077 -0.008,-0.0336 -0.0148,-0.0674 -0.0217,-0.10129 -0.007,-0.0339 -0.0136,-0.0681 -0.0196,-0.10232 -0.006,-0.0342 -0.0118,-0.0683 -0.0171,-0.10283 -0.005,-0.0345 -0.0101,-0.0691 -0.0145,-0.10387 -0.004,-0.0348 -0.008,-0.0698 -0.0119,-0.10491 -0.004,-0.0351 -0.007,-0.0701 -0.009,-0.10542 -0.003,-0.0353 -0.005,-0.0709 -0.007,-0.10645 -0.002,-0.0356 -0.003,-0.0712 -0.004,-0.10697 -9e-4,-0.0358 -0.001,-0.072 -0.001,-0.108 v -7.93905 c 0,-0.036 1.3e-4,-0.0722 0.001,-0.10801 9.1e-4,-0.0358 0.002,-0.0714 0.004,-0.10697 0.002,-0.0356 0.004,-0.0706 0.007,-0.10593 0.003,-0.0353 0.006,-0.0709 0.009,-0.10594 0.004,-0.0351 0.007,-0.0701 0.0119,-0.1049 0.004,-0.0348 0.009,-0.0694 0.0145,-0.10387 0.005,-0.0345 0.011,-0.0686 0.0171,-0.10284 0.006,-0.0342 0.0127,-0.0684 0.0196,-0.10232 0.007,-0.0339 0.014,-0.0677 0.0217,-0.10128 0.008,-0.0336 0.0158,-0.0675 0.0243,-0.10077 0.009,-0.0333 0.0175,-0.0662 0.0269,-0.0992 0.009,-0.033 0.0194,-0.0656 0.0294,-0.0982 0.0101,-0.0326 0.0201,-0.0654 0.031,-0.0977 0.0109,-0.0323 0.0225,-0.0642 0.0341,-0.0961 0.0116,-0.0319 0.0238,-0.0636 0.0362,-0.0951 0.0124,-0.0315 0.0251,-0.0629 0.0382,-0.094 0.0131,-0.0311 0.0265,-0.0623 0.0403,-0.093 0.0139,-0.0308 0.0283,-0.0611 0.0429,-0.0915 0.0291,-0.0607 0.0595,-0.12085 0.0915,-0.17984 0.032,-0.059 0.0656,-0.11694 0.10025,-0.17415 0.0347,-0.0572 0.0707,-0.11364 0.108,-0.16898 0.0373,-0.0554 0.0759,-0.10939 0.11576,-0.16278 0.0399,-0.0534 0.0811,-0.10574 0.1235,-0.1571 0.0423,-0.0513 0.0855,-0.10166 0.13023,-0.15089 0.0123,-0.0135 0.0253,-0.0265 0.0377,-0.0398 -0.75879,-0.81343 -1.84055,-1.32137 -3.04581,-1.32137 z"
             sodipodi:nodetypes="cccsccssssssssscssccccsccccscssssscccccccccssssssssssssccc" />
        </g>
      </g>
      <g
         id="g34380"
         clip-path="url(#clipPath27141)"
         style="stroke:none">
        <ellipse
           style="fill:#ffcc00;fill-opacity:1;stroke:none;stroke-width:0.3;stroke-linecap:round;stroke-linejoin:round;stroke-dasharray:none;stroke-opacity:1"
           id="ellipse34376"
           cx="-220.87587"
           cy="220.66331"
           rx="26.930979"
           ry="16.644262" />
        <ellipse
           style="fill:#ff0000;fill-opacity:1;stroke:none;stroke-width:0.4;stroke-linecap:round;stroke-linejoin:round;stroke-dasharray:none;stroke-opacity:1"
           id="ellipse34378"
           cx="-220.87587"
           cy="217.9657"
           rx="16.108093"
           ry="9.9553499" />
      </g>
      <g
         id="g34390"
         style="fill:none;fill-opacity:1;stroke:none;stroke-width:0.242348;stroke-dasharray:none"
         transform="matrix(1.1883747,0,0,1.1883747,49.555155,-44.26854)">
        <g
           id="g34384"
           transform="translate(-4.4390964)"
           style="fill:none;fill-opacity:1;stroke:none;stroke-width:0.242348;stroke-dasharray:none">
          <path
             id="path34382"
             style="fill:none;fill-opacity:1;stroke:none;stroke-width:0.242348;stroke-linecap:round;stroke-linejoin:round;stroke-dasharray:none;stroke-opacity:1"
             d="m -243.22856,201.98302 v 8.13206 8.13206 h 4.88755 c 1.20526,0 2.28702,-0.50794 3.04581,-1.32136 -0.0124,-0.0133 -0.0255,-0.0263 -0.0377,-0.0398 -0.0447,-0.0492 -0.0879,-0.0995 -0.13023,-0.1509 -0.0423,-0.0514 -0.0836,-0.1037 -0.1235,-0.1571 -0.0399,-0.0534 -0.0784,-0.10743 -0.11576,-0.16278 -0.0373,-0.0553 -0.0733,-0.11177 -0.108,-0.16898 -0.0347,-0.0572 -0.0683,-0.11516 -0.10025,-0.17415 -0.032,-0.059 -0.0623,-0.11915 -0.0915,-0.17983 -0.0146,-0.0303 -0.029,-0.0607 -0.0429,-0.0915 -0.0139,-0.0308 -0.0272,-0.0619 -0.0403,-0.093 -0.0131,-0.0311 -0.0258,-0.0625 -0.0382,-0.0941 -0.0124,-0.0315 -0.0245,-0.0632 -0.0362,-0.0951 -0.0116,-0.0319 -0.0232,-0.0639 -0.0341,-0.0961 -0.0109,-0.0323 -0.0209,-0.065 -0.031,-0.0977 -0.0101,-0.0326 -0.0201,-0.0652 -0.0294,-0.0982 -0.009,-0.033 -0.0183,-0.0659 -0.0269,-0.0992 -0.009,-0.0333 -0.0166,-0.0671 -0.0243,-0.10077 -0.008,-0.0336 -0.0148,-0.0674 -0.0217,-0.10129 -0.007,-0.0339 -0.0136,-0.0681 -0.0196,-0.10232 -0.006,-0.0342 -0.0118,-0.0683 -0.0171,-0.10283 -0.005,-0.0345 -0.0101,-0.0691 -0.0145,-0.10387 -0.004,-0.0348 -0.008,-0.0698 -0.0119,-0.10491 -0.004,-0.0351 -0.007,-0.0701 -0.009,-0.10542 -0.003,-0.0353 -0.005,-0.0709 -0.007,-0.10645 -0.002,-0.0356 -0.003,-0.0712 -0.004,-0.10697 -9e-4,-0.0358 -0.001,-0.072 -0.001,-0.108 v -7.93905 c 0,-0.036 1.3e-4,-0.0722 0.001,-0.10801 9.1e-4,-0.0358 0.002,-0.0714 0.004,-0.10697 0.002,-0.0356 0.004,-0.0706 0.007,-0.10593 0.003,-0.0353 0.006,-0.0709 0.009,-0.10594 0.004,-0.0351 0.007,-0.0701 0.0119,-0.1049 0.004,-0.0348 0.009,-0.0694 0.0145,-0.10387 0.005,-0.0345 0.011,-0.0686 0.0171,-0.10284 0.006,-0.0342 0.0127,-0.0684 0.0196,-0.10232 0.007,-0.0339 0.014,-0.0677 0.0217,-0.10128 0.008,-0.0336 0.0158,-0.0675 0.0243,-0.10077 0.009,-0.0333 0.0175,-0.0662 0.0269,-0.0992 0.009,-0.033 0.0194,-0.0656 0.0294,-0.0982 0.0101,-0.0326 0.0201,-0.0654 0.031,-0.0977 0.0109,-0.0323 0.0225,-0.0642 0.0341,-0.0961 0.0116,-0.0319 0.0238,-0.0636 0.0362,-0.0951 0.0124,-0.0315 0.0251,-0.0629 0.0382,-0.094 0.0131,-0.0311 0.0265,-0.0623 0.0403,-0.093 0.0139,-0.0308 0.0283,-0.0611 0.0429,-0.0915 0.0291,-0.0607 0.0595,-0.12085 0.0915,-0.17984 0.032,-0.059 0.0656,-0.11694 0.10025,-0.17415 0.0347,-0.0572 0.0707,-0.11364 0.108,-0.16898 0.0373,-0.0554 0.0759,-0.10939 0.11576,-0.16278 0.0399,-0.0534 0.0811,-0.10574 0.1235,-0.1571 0.0423,-0.0513 0.0855,-0.10166 0.13023,-0.15089 0.0123,-0.0135 0.0253,-0.0265 0.0377,-0.0398 -0.75879,-0.81343 -1.84055,-1.32137 -3.04581,-1.32137 z"
             sodipodi:nodetypes="cccsccssssssssscssccccsccccscssssscccccccccssssssssssssccc" />
        </g>
        <g
           id="g34388"
           transform="matrix(-1,0,0,1,-473.35777,0)"
           style="fill:none;fill-opacity:1;stroke:none;stroke-width:0.242348;stroke-dasharray:none">
          <path
             id="path34386"
             style="fill:none;fill-opacity:1;stroke:none;stroke-width:0.242348;stroke-linecap:round;stroke-linejoin:round;stroke-dasharray:none;stroke-opacity:1"
             d="m -241.55683,201.98302 v 8.13206 8.13206 h 4.88755 c 1.20526,0 2.28702,-0.50794 3.04581,-1.32136 -0.0124,-0.0133 -0.0255,-0.0263 -0.0377,-0.0398 -0.0447,-0.0492 -0.0879,-0.0995 -0.13023,-0.1509 -0.0423,-0.0514 -0.0836,-0.1037 -0.1235,-0.1571 -0.0399,-0.0534 -0.0784,-0.10743 -0.11576,-0.16278 -0.0373,-0.0553 -0.0733,-0.11177 -0.108,-0.16898 -0.0347,-0.0572 -0.0683,-0.11516 -0.10025,-0.17415 -0.032,-0.059 -0.0623,-0.11915 -0.0915,-0.17983 -0.0146,-0.0303 -0.029,-0.0607 -0.0429,-0.0915 -0.0139,-0.0308 -0.0272,-0.0619 -0.0403,-0.093 -0.0131,-0.0311 -0.0258,-0.0625 -0.0382,-0.0941 -0.0124,-0.0315 -0.0245,-0.0632 -0.0362,-0.0951 -0.0116,-0.0319 -0.0232,-0.0639 -0.0341,-0.0961 -0.0109,-0.0323 -0.0209,-0.065 -0.031,-0.0977 -0.0101,-0.0326 -0.0201,-0.0652 -0.0294,-0.0982 -0.009,-0.033 -0.0183,-0.0659 -0.0269,-0.0992 -0.009,-0.0333 -0.0166,-0.0671 -0.0243,-0.10077 -0.008,-0.0336 -0.0148,-0.0674 -0.0217,-0.10129 -0.007,-0.0339 -0.0136,-0.0681 -0.0196,-0.10232 -0.006,-0.0342 -0.0118,-0.0683 -0.0171,-0.10283 -0.005,-0.0345 -0.0101,-0.0691 -0.0145,-0.10387 -0.004,-0.0348 -0.008,-0.0698 -0.0119,-0.10491 -0.004,-0.0351 -0.007,-0.0701 -0.009,-0.10542 -0.003,-0.0353 -0.005,-0.0709 -0.007,-0.10645 -0.002,-0.0356 -0.003,-0.0712 -0.004,-0.10697 -9e-4,-0.0358 -0.001,-0.072 -0.001,-0.108 v -7.93905 c 0,-0.036 1.3e-4,-0.0722 0.001,-0.10801 9.1e-4,-0.0358 0.002,-0.0714 0.004,-0.10697 0.002,-0.0356 0.004,-0.0706 0.007,-0.10593 0.003,-0.0353 0.006,-0.0709 0.009,-0.10594 0.004,-0.0351 0.007,-0.0701 0.0119,-0.1049 0.004,-0.0348 0.009,-0.0694 0.0145,-0.10387 0.005,-0.0345 0.011,-0.0686 0.0171,-0.10284 0.006,-0.0342 0.0127,-0.0684 0.0196,-0.10232 0.007,-0.0339 0.014,-0.0677 0.0217,-0.10128 0.008,-0.0336 0.0158,-0.0675 0.0243,-0.10077 0.009,-0.0333 0.0175,-0.0662 0.0269,-0.0992 0.009,-0.033 0.0194,-0.0656 0.0294,-0.0982 0.0101,-0.0326 0.0201,-0.0654 0.031,-0.0977 0.0109,-0.0323 0.0225,-0.0642 0.0341,-0.0961 0.0116,-0.0319 0.0238,-0.0636 0.0362,-0.0951 0.0124,-0.0315 0.0251,-0.0629 0.0382,-0.094 0.0131,-0.0311 0.0265,-0.0623 0.0403,-0.093 0.0139,-0.0308 0.0283,-0.0611 0.0429,-0.0915 0.0291,-0.0607 0.0595,-0.12085 0.0915,-0.17984 0.032,-0.059 0.0656,-0.11694 0.10025,-0.17415 0.0347,-0.0572 0.0707,-0.11364 0.108,-0.16898 0.0373,-0.0554 0.0759,-0.10939 0.11576,-0.16278 0.0399,-0.0534 0.0811,-0.10574 0.1235,-0.1571 0.0423,-0.0513 0.0855,-0.10166 0.13023,-0.15089 0.0123,-0.0135 0.0253,-0.0265 0.0377,-0.0398 -0.75879,-0.81343 -1.84055,-1.32137 -3.04581,-1.32137 z"
             sodipodi:nodetypes="cccsccssssssssscssccccsccccscssssscccccccccssssssssssssccc" />
        </g>
      </g>
    </g>
    <text
       xml:space="preserve"
       style="font-size:11.5752px;line-height:1;font-family:'Creato Display';-inkscape-font-specification:'Creato Display';text-align:start;letter-spacing:0.574146px;word-spacing:0px;text-anchor:start;white-space:pre;inline-size:129.522;display:inline;fill:#ffffff;stroke-width:0.289382"
       x="-254.61861"
       y="226.98405"
       id="text34396"
       transform="matrix(0.41464667,0,0,0.41464667,-176.26161,155.84998)"><tspan
         x="-254.61861"
         y="226.98405"
         id="tspan35798"><tspan
           style="font-weight:500;font-family:'Fira Sans';-inkscape-font-specification:'Fira Sans Medium'"
           id="tspan35796">DUTA
</tspan></tspan><tspan
         x="-254.61861"
         y="238.84671"
         id="tspan35802"><tspan
           style="font-weight:500;font-family:'Fira Sans';-inkscape-font-specification:'Fira Sans Medium'"
           id="tspan35800">SAKINAH
</tspan></tspan><tspan
         x="-254.61861"
         y="250.70937"
         id="tspan35806"><tspan
           style="font-weight:500;font-family:'Fira Sans';-inkscape-font-specification:'Fira Sans Medium'"
           id="tspan35804">FIRST</tspan></tspan></text>
  </g>
</svg>
