<?xml version="1.0" encoding="utf-8"?>

<!DOCTYPE svg PUBLIC "-//W3C//DTD SVG 1.1//EN" "http://www.w3.org/Graphics/SVG/1.1/DTD/svg11.dtd">
<svg version="1.1" id="Layer_1" xmlns="http://www.w3.org/2000/svg" xmlns:xlink="http://www.w3.org/1999/xlink" x="0px" y="0px"
	 viewBox="0 0 1794 1794" enable-background="new 0 0 1794 1794" xml:space="preserve">
<g>
	<path d="M708.1859,508.0863c-3.0242-21.4557-16.3673-51.8964-39.8758-56.7259c-21.1987-4.3551-45.9903,9.5002-51.5696,30.7275
		c-0.8704,3.3106-3.5509,16.7103,1.0527,17.8892c2.9612,0.7572,5.6656,0.1657,7.2411-2.8408
		c2.2486-4.2903,5.0563-7.3851,10.2558-8.7066c4.1222-1.0479,8.4097-4.2118,11.6116-0.3845
		c0.8958,1.0708-3.9868,5.1985-7.3831,7.0123c-3.1296,1.6714-4.5884,5.2284-4.4824,8.7514
		c0.0906,3.0038,2.5967,4.2982,5.3967,3.9363c8.1927-1.0589,9.1923,6.032,10.7254,10.7018
		c1.5175,4.6229-0.9221,9.7458-5.0479,13.1066c-9.1572,7.4592-26.0723,6.4189-34.9178-2.8106
		c-9.92-10.3506-13.7845-22.0192-11.1389-37.272c3.6051-20.786,12.1233-37.5424,26.5749-52.9384
		c10.6105-11.341,21.6033-22.3452,31.4442-34.3795c10.1188-12.3739,18.0837-25.7773,24.9573-40.1567
		c15.0314-31.4454,21.9055-69.4324,16.5552-104.0572c-4.6468-30.0731-13.3622-58.3342-28.5487-84.5971
		c-1.5525-2.6848-4.9708-6.8768-4.5233-10.2481c0.4028-3.0345,4.1586-4.91,6.4196-6.4073
		c8.9005-5.8941,16.2393-14.9304,19.4365-25.2234c2.1885-7.0463,2.5308-14.6469,1.0541-21.8721
		c-0.967-4.7305-2.5073-11.826-8.5361-11.549c-5.3017,0.2437-8.4021,2.8055-8.2708,8.1111
		c0.1735,7.0186-4.8535,9.6804-9.9437,10.5162c-5.3464,0.8777-10.9212,0.4585-16.6356-1.1584
		c-8.5023-2.4057-14.9962-8.7598-23.198-10.8684c-19.3932-4.986-39.1657-8.3495-59.2001-9.2551
		c-18.1318-0.8188-37.6147-0.6227-55.3808,3.4111c-17.7355,4.0268-34.7758,10.2029-51.2274,17.9539
		c-15.0197,7.0764-27.2371,18.2162-41.0215,27.0655c-4.5139,2.8979-5.3592,3.4583-7.7197-2.5907
		c-7.7017-19.7366-36.7741-26.7286-49.7744-8.8734c-3.3292,4.5724-6.7275,9.4776,0.8886,14.2201
		c9.3787,5.8398,10.0217,14.0363,9.9868,24.3374c-0.0372,11.028-1.9361,21.923-3.5245,32.8028
		c-2.189,14.9919-3.306,30.0926-3.8801,45.227c-0.5977,15.7496,1.3321,31.4344,2.5384,47.1091
		c2.4785,32.2094,9.974,62.6268,21.8262,92.3007c-29.6738-11.8521-60.0914-19.3476-92.3005-21.8263
		c-15.6749-1.2062-31.3595-3.136-47.1093-2.5384c-15.1342,0.5742-30.2351,1.6911-45.2269,3.8801
		c-10.8798,1.5886-21.7746,3.4874-32.8027,3.5247c-10.3013,0.0348-18.4977-0.6082-24.3374-9.9868
		c-4.7426-7.6163-9.6478-4.2179-14.2202-0.8887c-17.8553,13.0004-10.8632,42.0728,8.8733,49.7744
		c6.049,2.3604,5.4886,3.2056,2.5909,7.7196c-8.8494,13.7845-19.9894,26.0018-27.0657,41.0217
		c-7.7509,16.4516-13.9271,33.4918-17.9539,51.2273c-4.0336,17.7661-4.2298,37.249-3.4109,55.3809
		c0.9054,20.0342,4.269,39.8069,9.255,59.2c2.1086,8.2018,8.4627,14.6957,10.8685,23.1982
		c1.6169,5.7144,2.0359,11.289,1.1584,16.6354c-0.8359,5.0902-3.4978,10.1172-10.5164,9.9436
		c-5.3054-0.1313-7.8674,2.9692-8.1108,8.271c-0.2772,6.0288,6.8183,7.569,11.5489,8.5359
		c7.225,1.4768,14.8257,1.1345,21.872-1.0541c10.293-3.1971,19.3294-10.5358,25.2234-19.4365
		c1.4972-2.261,3.3728-6.0168,6.4072-6.4196c3.3715-0.4475,7.5634,2.9708,10.2481,4.5232
		c26.2629,15.1866,54.5242,23.902,84.5973,28.5489c34.6248,5.3502,72.6116-1.5239,104.0572-16.5552
		c14.3795-6.8736,27.7827-14.8384,40.1566-24.9572c12.0342-9.8411,23.0384-20.8339,34.3796-31.4443
		c15.3959-14.4517,32.1523-22.9698,52.9384-26.575c15.2529-2.6454,26.9213,1.2188,37.272,11.1389
		c9.2296,8.8455,10.2699,25.7606,2.8106,34.9179c-3.3608,4.1257-8.4838,6.5653-13.1066,5.0477
		c-4.6697-1.5329-11.7606-2.5326-10.7017-10.7254c0.3619-2.7999-0.9326-5.306-3.9363-5.3965
		c-3.523-0.1062-7.08,1.3528-8.7514,4.4823c-1.8138,3.3962-5.9415,8.2789-7.0123,7.3831
		c-3.8274-3.2017-0.6635-7.4893,0.3845-11.6116c1.3215-5.1993,4.4162-8.0072,8.7065-10.2557
		c3.0065-1.5757,3.5979-4.28,2.8409-7.2411c-1.1788-4.6037-14.5786-1.9231-17.8893-1.0529
		c-21.2272,5.5795-35.0826,30.371-30.7274,51.5698c4.8295,23.5083,35.2701,36.8516,56.726,39.8756
		c21.9259,3.0903,42.8287-5.6508,55.7993-23.5743c6.8083-9.408,10.5194-20.6441,12.2247-32.0478
		c3.1854-21.299-1.679-40.5579-15.1886-57.2325c-10.8467-13.3879-24.0372-24.5529-40.5939-29.9939
		c-17.8089-5.8526-40.0447-5.4017-56.5089,4.2518c-1.9181,1.1246-4.5756,1.4982-6.2195-0.051
		c-1.994-1.8795-1.6999-5.2234-0.6667-7.1436c4.2102-7.8236-1.6381-10.646-6.6241-10.7085
		c-23.3069-0.2919-46.0306,2.1643-64.0381,19.691c-5.1484,5.0111-10.7825,9.5212-16.1469,14.3137
		c-1.7075,1.5255-3.8055,2.8281-5.7951,2.0815c-0.7728-0.2898-0.9132-3.4644-0.621-5.2038
		c2.4777-14.7475,0.3828-29.3638-2.2321-43.7258c-1.7811-9.783-4.6468-19.1525-1.6846-29.1607
		c2.3973-8.1012,5.1108-15.1994,15.5096-15.8573c2.0311-0.1285,7.4258,0.3058,7.3446-5.2329
		c-0.0718-4.8863-3.6456-4.8778-6.8477-6.139c-30.155-11.877-64.7061-1.2614-79.1828,31.2595
		c-4.7202,10.6039-8.007,20.2015-6.898,31.5101c0.4333,4.4217-0.1513,5.6904-6.1509,5.4106
		c-13.438-0.6268-26.1577,1.8407-36.4855,13.1889c-8.9323,9.8153-11.187,19.8243-8.5498,31.9863
		c1.3635,6.2883,6.4921,9.2586,10.9414,12.8036c4.8003,3.825,6.3541,6.4288,0.7754,12.059
		c-14.9809,15.1197-33.4675,17.9446-53.2045,17.8915c-1.4734-0.004-3.641,0.329-3.6665-1.7541
		c-0.0157-1.2803,1.1651-2.9282,2.2823-3.8138c9.0534-7.1767,9.559-17.0012,8.5618-27.2454
		c-0.6428-6.6028-4.7713-8.6386-10.4985-6.3477c-16.2155,6.4865-32.1745,1.3375-40.5523-13.7944
		c-8.2049-14.8195-11.4387-31.1309-13.2249-47.7433c-0.246-2.2874-2.0494-6.48,2.0827-6.9939
		c2.7224-0.3385,2.7993,3.3017,3.847,5.5613c11.3168,24.4046,31.0506,37.9987,56.986,43.0771
		c6.105,1.1955,8.0381-2.5726,6.756-7.9808c-0.7033-2.9673-2.5776-5.6576-3.275-8.6253c-0.4895-2.083-0.2733-4.8814,3.3974-3.3521
		c10.8317,4.5128,20.2176-1.9572,29.8044-4.6019c17.5165-4.8323,30.9328-16.5577,37.9871-32.8743
		c7.195-16.6424,9.9503-34.8604,0.6741-52.1163c-8.6806-16.1483-22.6192-25.1055-41.0363-26.7414
		c-4.5708-0.406-9.5886-0.3055-11.2582,4.6166c-1.372,4.0445,3.2374,5.8066,5.6188,8.4634
		c4.7543,5.304,9.0031,11.0877,13.1737,16.8799c2.9602,4.1111,2.3407,9.2648-1.0277,11.9461
		c-2.6553,2.1135-4.5592-2.8279-6.7127-4.6406c-6.6049-5.5591-14.3861-6.8434-22.6018-6.9058
		c-5.3268-0.0405-6.0301,3.4477-5.1596,7.4181c1.3365,6.0976,2.8739,12.3536-5.2554,14.4918
		c-7.0101,1.8439-11.3314-3.206-15.1699-7.9478c-7.9233-9.7878-5.6665-20.421-1.5786-30.8004
		c10.3526-26.2877,39.3451-35.4214,65.002-38.7558c23.571-3.0633,48.0721-2.3782,71.8005-1.1508
		c2.013,0.1041,4.0911,0.2354,5.8918,1.1413c8.4566,4.2547-2.8752,12.6846-5.2937,16.818
		c-2.6475,4.5252-4.3955,9.582-5.0463,14.7871c-0.6593,5.2712,1.2688,9.4352,7.1094,7.4745
		c14.1485-4.7498,28.9762-9.4728,44.1726-9.784c15.3727-0.3149,31.0673,3.5457,45.606,8.2209
		c13.6237,4.3809,26.917,10.1143,40.2829,15.2329c4.5105,1.7274-0.55,3.9033-2.1182,5.749
		c-7.2152,8.4916-14.7218,16.7668-17.1873,28.1412c-1.6176,7.4626,2.1295,11.7145,8.818,8.9077
		c26.4057-11.0805,48.3156-0.0501,71.3402,11.6133c7.1193,3.6064,13.7081,7.8091,19.9513,12.3928
		c-4.5836-6.2432-8.7864-12.8321-12.3929-19.9514c-11.6632-23.0245-22.6939-44.9346-11.6133-71.3401
		c2.8069-6.6887-1.4451-10.4357-8.9077-8.8181c-11.3743,2.4655-19.6495,9.9721-28.1411,17.1872
		c-1.8458,1.5683-4.0216,6.6285-5.749,2.1182c-5.1187-13.3658-10.8522-26.6591-15.2331-40.2829
		c-4.6751-14.5387-8.5356-30.2334-8.2208-45.6061c0.3112-15.1967,5.0341-30.0243,9.7839-44.1726
		c1.9608-5.8407-2.2033-7.7688-7.4744-7.1095c-5.205,0.651-10.2618,2.399-14.7871,5.0465
		c-4.1335,2.4183-12.5634,13.7503-16.818,5.2935c-0.906-1.8006-1.0371-3.8786-1.1414-5.8916
		c-1.2274-23.7284-1.9124-48.2296,1.1508-71.8006c3.3345-25.6569,12.4682-54.6494,38.7559-65.0021
		c10.3794-4.0877,21.0125-6.3446,30.8004,1.5788c4.7417,3.8385,9.7915,8.1597,7.9477,15.1699
		c-2.1382,8.1292-8.3943,6.5919-14.4919,5.2552c-3.9702-0.8704-7.4584-0.1673-7.4179,5.1597
		c0.0623,8.2157,1.3467,15.9967,6.9058,22.6016c1.8125,2.1536,6.7541,4.0574,4.6405,6.7127
		c-2.6812,3.3685-7.8349,3.9879-11.9461,1.0277c-5.7921-4.1705-11.5759-8.4192-16.8798-13.1736
		c-2.6569-2.3815-4.4188-6.9907-8.4633-5.6187c-4.9222,1.6697-5.0228,6.6874-4.6167,11.2582
		c1.6359,18.417,10.5933,32.3556,26.7413,41.0362c17.2561,9.2762,35.4742,6.521,52.1164-0.6741
		c16.3165-7.0543,28.0421-20.4705,32.8743-37.987c2.6447-9.5869,9.1146-18.9726,4.6017-29.8045
		c-1.5294-3.6707,1.2692-3.8869,3.3521-3.3973c2.9678,0.6974,5.658,2.5717,8.6253,3.2751c5.4082,1.2821,9.1764-0.6511,7.981-6.7562
		c-5.0786-25.9354-18.6727-45.6691-43.0772-56.9858c-2.2596-1.0478-5.8998-1.1248-5.5615-3.8472
		c0.5139-4.1319,4.7067-2.3286,6.994-2.0826c16.6124,1.7862,32.9238,5.0199,47.7433,13.2248
		c15.1318,8.3779,20.2809,24.3368,13.7944,40.5524c-2.291,5.7272-0.2552,9.8558,6.3475,10.4985
		c10.2443,0.9973,20.0687,0.4916,27.2454-8.5618c0.8856-1.1171,2.5336-2.298,3.8139-2.2823c2.0831,0.0255,1.75,2.1931,1.7542,3.6666
		c0.0531,19.7371-2.7719,38.2236-17.8917,53.2045c-5.6303,5.5786-8.2341,4.0249-12.0589-0.7756
		c-3.5452-4.4491-6.5154-9.5778-12.8037-10.9413c-12.1621-2.6371-22.171-0.3826-31.9862,8.5499
		c-11.3484,10.3277-13.8158,23.0475-13.1889,36.4855c0.2798,5.9997-0.989,6.5844-5.4106,6.1508
		c-11.3085-1.1088-20.9063,2.1779-31.5102,6.8982c-32.5207,14.4764-43.1364,49.0277-31.2596,79.1826
		c1.2614,3.2022,1.2529,6.7758,6.1392,6.8477c5.5387,0.0813,5.1045-5.3135,5.2329-7.3446
		c0.6578-10.3989,7.7559-13.1122,15.8571-15.5097c10.0082-2.9619,19.3778-0.0963,29.1608,1.6848
		c14.3619,2.6148,28.9783,4.7097,43.7258,2.2321c1.7393-0.2922,4.9139-0.1517,5.2037,0.6208
		c0.7466,1.9899-0.5561,4.0877-2.0815,5.7953c-4.7925,5.3644-9.3025,10.9985-14.3136,16.1471
		c-17.5267,18.0075-19.983,40.7312-19.691,64.0381c0.0625,4.986,2.8848,10.8341,10.7084,6.6241
		c1.92-1.0333,5.264-1.3274,7.1436,0.6667c1.5492,1.6437,1.1755,4.3013,0.0509,6.2193c-9.6533,16.4641-10.1042,38.7-4.2518,56.509
		c5.4411,16.5566,16.6061,29.7472,29.9941,40.594c16.6745,13.5096,35.9333,18.3738,57.2324,15.1885
		c11.4037-1.7054,22.6397-5.4166,32.0478-12.2248C702.5351,550.9152,711.2763,530.0123,708.1859,508.0863z M463.1301,488.2169
		c5.1711-3.5547,10.2987-6.5955,16.7586-7.609c0.1981-0.0311,0.4015-0.0679,0.6088-0.1104
		c0.0424-0.2072,0.0793-0.4106,0.1104-0.6089c1.0136-6.4597,4.0543-11.5873,7.6089-16.7585c1.434-2.0862,2.1147-5.0797,5.243-4.0939
		c2.7426,0.8643,2.9732,3.667,2.8759,6.3255c-0.4337,11.8673,0.1485,23.5089,3.9657,34.9396
		c-11.4309-3.8171-23.0724-4.3994-34.9398-3.9656c-2.6584,0.0972-5.4612-0.1333-6.3253-2.8759
		C458.0502,490.3316,461.0437,489.6509,463.1301,488.2169z M231.088,645.8776c12.3397-4.7142,23.7926-10.116,31.3353-22.3512
		c7.352-11.9264,7.8086-10.9714-1.5209-20.7215c-5.3623-5.6039-11.4196-11.6478-8.3174-21.2942
		c3.1215-9.706,8.5332-15.173,19.1341-17.4185c10.3847-2.1997,18.7065-0.8594,26.7236,5.7015
		c3.0482,2.4943,11.3442,5.1596,12.112-1.0221c0.2548-2.0498-0.5927-4.0537-1.3221-5.9863
		c-6.7865-17.9792-4.382-38.8362,7.3235-54.1897c7.3853-9.6866,17.2054-15.0082,29.2738-16.1162
		c3.4338-0.3153,5.514,0.2379,3.2104,4.707c-6.9947,13.5696-4.6463,27.8377-2.6843,42.1195
		c1.1793,8.5845,2.0751,17.2057,3.3097,25.7828c1.2533,8.7085,3.164,16.1098,0.8683,24.9206
		c-1.7193,6.5983-5.2937,12.4435-7.3226,18.8416c-2.1012,6.6253-4.8395,13.1206-7.5588,19.5406
		c-0.4801,1.1333-1.0046,2.3239-2.0021,3.0449c-3.8233,2.7628-4.6777-4.592-6.1093-6.3748
		c-7.163-8.9212-14.7223-17.0142-27.4896-17.2479c-5.1195-0.0938-8.8938,0.8934-8.0954,6.7511
		c1.6605,12.1818-4.9342,20.7742-13.1741,27.4706c-11.4869,9.3353-26.2326,10.007-40.3374,11.6728
		c-2.2105,0-4.5251,0.4165-6.6067-0.1016c-2.8347-0.7054-7.5551-0.8405-7.7794-3.3958
		C223.768,646.9061,228.2992,646.9431,231.088,645.8776z M565.0889,349.6655c-8.5771-1.2345-17.1984-2.1304-25.783-3.3097
		c-14.2816-1.9619-28.5496-4.3103-42.1194,2.6843c-4.4691,2.3037-5.0224,0.2235-4.7071-3.2104
		c1.1081-12.0682,6.4296-21.8884,16.1162-29.2736c15.3535-11.7056,36.2105-14.1101,54.1897-7.3235
		c1.9325,0.7294,3.9363,1.5768,5.9863,1.3221c6.1816-0.7679,3.5163-9.0638,1.0221-12.1121
		c-6.5609-8.0172-7.9014-16.3389-5.7015-26.7237c2.2455-10.6008,7.7123-16.0125,17.4185-19.1339
		c9.6463-3.1022,15.6904,2.9552,21.2941,8.3174c9.7502,9.3296,8.7952,8.8729,20.7214,1.5208
		c12.2352-7.5426,17.6369-18.9954,22.3514-31.3353c1.0654-2.7889,1.0284-7.3199,4.3332-7.0295
		c2.5552,0.2244,2.6902,4.9447,3.3957,7.7794c0.518,2.0818,0.1014,4.3962,0.1014,6.6068
		c-1.6657,14.1047-2.3374,28.8505-11.6726,40.3374c-6.6965,8.2399-15.289,14.8345-27.4706,13.174
		c-5.8577-0.7984-6.8449,2.976-6.751,8.0954c0.2336,12.7673,8.3268,20.3267,17.2478,27.4897
		c1.7828,1.4315,9.1377,2.286,6.3748,6.1092c-0.7207,0.9976-1.9113,1.5221-3.0449,2.0021
		c-6.4199,2.7194-12.9152,5.4579-19.5404,7.5588c-6.3981,2.029-12.2433,5.6035-18.8417,7.3227
		C581.1986,352.8296,573.7972,350.9189,565.0889,349.6655z M689.548,527.2348c-3.6465,11.2493-10.9425,19.3495-20.103,26.4352
		c-19.9263,15.4127-50.7826,9.7698-68.0339-4.1849c-26.338-21.3051-34.0403-57.6688-18.8778-87.3771
		c2.8102-5.5059,5.2118-11.2299,7.5983-16.9386c1.4926-3.5705,2.3335-7.989-0.3745-10.6678
		c-2.2811-2.2566-5.8742,0.2728-8.7122,1.5378c-0.5716,0.2548-1.0637,0.6834-1.6272,0.9618
		c-3.506,1.7318-7.5316,4.6566-10.959,3.0535c-4.3458-2.0327,0.2914-16.1321,1.358-19.8526
		c2.0435-7.127,5.0514-13.9756,8.896-20.3142c7.2414-11.9391,17.5657-20.6392,28.1666-29.4397
		c17.1568-14.243,37.1453-25.6469,50.1472-44.826c2.8293-4.1738,2.2072-7.0334-0.0298-9.9949
		c-2.4193-3.2029-5.6959-1.9893-8.8958-0.3704c-7.2573,3.6714-14.0239,4.0798-20.1794-2.7251
		c-3.8647-4.2726-3.694-7.6263,1.7384-8.8503c14.0209-3.1595,25.7878-15.7307,30.9435-28.7261
		c2.5445-6.4138,3.7179-13.3611,3.4703-20.2546c-0.2336-6.509-0.4156-12.9935-0.8354-19.5193
		c-0.9271-14.413-3.7307-28.6714-8.1881-42.4049c-4.5076-13.8876-12.2851-25.528-18.6196-38.1622
		c-0.8191-1.6343-2.3261-2.9529-3.6282-4.3086c-1.5207-1.5836-3.0782-3.4203-5.6432-2.5789
		c-3.9376,1.2919-1.8223,10.292-1.0405,13.1438c0.9069,3.3088,2.9865,6.0737,3.8681,9.3242
		c1.6792,6.1902-1.2947,11.5182-5.9869,15.3902c-3.6376,3.0016-6.4636,2.871-6.3519-2.8752
		c0.5095-26.2583-16.18-39.2612-37.5368-48.5299c-18.1266-7.8669-36.9387-10.1936-56.2922-5.6327
		c-10.3398,2.4367-20.0621,7.1767-30.8123,8.2677c-1.9934,0.2024-3.8801,1.8921-5.7237,3.0435
		c-3.2299,2.0174-3.9491,5.692-3.5435,8.6995c0.354,2.6238,3.7556,2.7648,6.3846,2.6259
		c19.649-1.0383,37.3948,4.2445,53.2992,15.8782c7.642,5.5901,12.6265,13.5329,18.4238,20.6994
		c2.4618,3.0434-1.1499,3.1744-3.2809,3.3242c-3.8975,0.2741-5.6534-3.5633-8.9456-4.6715
		c-3.2121-1.0813-5.7259-1.4251-8.7168,0.7873c-3.7625,2.7831-1.601,6.2871-0.5524,8.3089
		c11.867,22.875,4.3151,42.8321-10.0322,60.787c-12.8174,16.0404-47.2911,17.0446-61.5069,3.072
		c-0.8598-0.8451-2.1506-2.6995-1.9346-2.9479c1.105-1.2704,2.7244-0.9747,4.1895-0.3648
		c15.7158,6.5416,39.034-1.5314,47.5224-16.6886c0.8056-1.4386,3.0496-3.5745,0.3625-5.6493
		c-2.867-2.2135-3.2045-2.4145-6.672-1.5102c-2.5395,0.6623-5.1598,1.1028-7.782,1.2397c-4.5048,0.2351-10.4006-0.281-12.922-4.6429
		c3.5533-1.8728,7.1822-3.6163,10.6459-5.642c8.2654-4.8338,9.0911-13.6091,8.8202-21.3346
		c-0.3854-10.9819-9.0484-21.0359-17.1829-27.5225c-9.505-7.5794-24.8119-6.3811-35.7966-2.8255
		c-20.9914,6.7947-37.9035,23.9216-46.2488,44.0914c-6.0702,14.6708-8.1537,31.2049-9.5993,46.9843
		c-3.4566,37.7341,1.348,75.1526,8.9108,112.0877c0.4505,2.201,1.0704,5.5694,3.8401,5.5739
		c2.9885,0.0048,2.9062-3.2593,3.7421-5.6446c3.7582-10.7267,5.9142-22.2498,14.4566-30.7631c2.7-2.691,3.6907-3.4248,4.3957,1.7861
		c0.5981,4.4205-0.2523,8.9378-1.1849,13.2494c-1.9211,8.8801-1.7829,16.7957-1.05,25.7762
		c1.4341,17.5562,6.0917,34.6307,12.0456,51.1519c2.1563,5.9834,4.3254,12.1365,6.6609,18.2573
		c-6.1206-2.3354-12.274-4.5045-18.2572-6.6608c-16.5212-5.954-33.5957-10.6115-51.1519-12.0457
		c-8.9807-0.7327-16.8961-0.8711-25.7762,1.0499c-4.3117,0.9327-8.8289,1.7832-13.2495,1.1851
		c-5.2109-0.7051-4.4772-1.6956-1.7861-4.3957c8.5134-8.5424,20.0362-10.6983,30.7632-14.4567
		c2.3853-0.8358,5.6492-0.7536,5.6445-3.742c-0.0044-2.7698-3.3728-3.3895-5.5737-3.8401
		c-36.9352-7.5627-74.3538-12.3674-112.0878-8.9107c-15.7794,1.4456-32.3134,3.5292-46.9843,9.5993
		c-20.1697,8.3452-37.2966,25.2574-44.0912,46.2489c-3.5557,10.9847-4.7541,26.2915,2.8254,35.7965
		c6.4865,8.1345,16.5406,16.7977,27.5225,17.1828c7.7256,0.271,16.501-0.5547,21.3346-8.8201
		c2.0258-3.4638,3.7693-7.0927,5.6421-10.6459c4.362,2.5215,4.878,8.4173,4.6429,12.9221c-0.1367,2.6223-0.5772,5.2425-1.2396,7.782
		c-0.9043,3.4673-0.7033,3.8049,1.51,6.6719c2.0748,2.6872,4.2109,0.4431,5.6495-0.3625
		c15.1571-8.4884,23.2302-31.8066,16.6884-47.5222c-0.6099-1.4651-0.9056-3.0845,0.3647-4.1896
		c0.2484-0.2161,2.1029,1.0748,2.948,1.9346c13.9728,14.2157,12.9684,48.6895-3.0721,61.5068
		c-17.9548,14.3473-37.912,21.8991-60.787,10.0323c-2.0217-1.0488-5.5258-3.2103-8.309,0.5522
		c-2.2122,2.9909-1.8686,5.5048-0.7873,8.7169c1.1083,3.2922,4.9457,5.048,4.6716,8.9454
		c-0.1498,2.1311-0.2809,5.7429-3.3242,3.2809c-7.1665-5.7972-15.1094-10.7818-20.6992-18.4239
		c-11.6338-15.9043-16.9166-33.65-15.8784-53.2992c0.1389-2.6288-0.002-6.0304-2.6259-6.3844
		c-3.0074-0.4057-6.682,0.3134-8.6994,3.5435c-1.1514,1.8435-2.8411,3.7301-3.0434,5.7237
		c-1.0911,10.7501-5.8311,20.4726-8.2678,30.8123c-4.561,19.3536-2.2342,38.1656,5.6327,56.2923
		c9.2687,21.3567,22.2717,38.0464,48.5298,37.5366c5.7462-0.1116,5.8768,2.7145,2.8753,6.3521
		c-3.8721,4.6922-9.1999,7.6661-15.3901,5.9871c-3.2506-0.8817-6.0155-2.9613-9.3243-3.8683
		c-2.8517-0.7817-11.852-2.8969-13.1439,1.0406c-0.8413,2.5649,0.9953,4.1224,2.5789,5.6432
		c1.3557,1.3019,2.6743,2.8088,4.3086,3.6282c12.6341,6.3344,24.2747,14.1119,38.1624,18.6194
		c13.7333,4.4575,27.9917,7.2611,42.4048,8.1883c6.5257,0.4198,13.0102,0.6016,19.5193,0.8354
		c6.8934,0.2476,13.8409-0.9258,20.2546-3.4704c12.9954-5.1556,25.5666-16.9225,28.7262-30.9434
		c1.2241-5.4324,4.5778-5.6032,8.8503-1.7383c6.8048,6.1555,6.3965,12.9222,2.7252,20.1794
		c-1.6189,3.1999-2.8326,6.4763,0.3704,8.8958c2.9615,2.2369,5.8211,2.8591,9.9949,0.0297
		c19.179-13.0018,30.5829-32.9902,44.8259-50.1471c8.8004-10.6009,17.5006-20.9251,29.4397-28.1666
		c6.3386-3.8446,13.1872-6.8525,20.3143-8.896c3.7205-1.0667,17.82-5.7039,19.8526-1.3581
		c1.603,3.4275-1.3219,7.4531-3.0536,10.9592c-0.2783,0.5634-0.707,1.0555-0.9618,1.6272
		c-1.2651,2.8381-3.7943,6.4312-1.5377,8.7122c2.6786,2.7079,7.0972,1.867,10.6675,0.3745
		c5.7087-2.3864,11.4329-4.7883,16.9386-7.5983c29.7084-15.1625,66.0721-7.4601,87.3772,18.8777
		c13.9548,17.2513,19.5977,48.1077,4.185,68.0338c-7.0857,9.1606-15.186,16.4567-26.4351,20.1031
		c-17.6376,5.7172-42.5043,1.4632-53.7321-14.5135c-7.9148-11.2628-10.7655-23.9663-2.1169-35.0527
		c1.1144,14.1158,4.2361,20.9497,14.3103,32.2166c1.9766,2.2107,4.3217,2.921,6.7569,2.1237c2.7483-0.9,5.9876-1.4551,5.9765-5.8808
		c-0.0179-7.0632,4.3511-6.5744,9.1479-4.5509c7.3842,3.1149,14.8718,5.1179,22.3667,0.6262
		c12.2598-7.3477,22.4422-19.093,21.853-34.1252c-0.5909-15.0732-10.4778-29.6474-23.157-37.3189
		c-16.5598-10.0197-43.6485-10.1148-60.6523-0.8818c-14.1333,7.6745-27.4448,16.5946-40.8207,25.4839
		c-23.1617,15.3926-42.0569,36.2146-67.9679,48.5066c-20.905,9.9172-42.8013,14.3777-64.6245,17.1086
		c-17.5903,2.2011-35.2351,1.4266-52.3642-3.2661c-17.0612-4.6742-34.1721-8.4357-50.435-15.6439
		c-6.5117-2.8862-12.9096-5.7113-18.4626-10.2525c-3.9631-3.2409-8.1125-6.2632-12.4902-8.922
		c-3.5006-2.1263-9.215-6.6632-13.2669-3.5429c-3.2282,2.4861-2.4319,6.3099-1.2581,9.5707
		c3.5376,9.8274-2.2671,16.5443-7.5503,23.4233c-0.6375,0.8302-2.1813,1.5424-3.1692,1.3954
		c-1.6374-0.2436-1.0443-1.7394-0.8814-2.9643c1.7944-13.5103-1.777-26.1517-6.3508-38.6228
		c-4.3676-11.9089-8.9763-23.3151-11.5644-35.7928c-3.2384-15.6202-3.9661-31.4355-3.7902-47.3435
		c0.194-17.5408-0.2153-36.4445,5.3708-53.2643c0.5265-1.5851,1.107-3.1521,1.7417-4.697
		c11.2064-27.2667,24.6416-53.9811,48.989-72.8105c3.1868-2.4647,7.2507-4.7028,6.4649-9.2421
		c-0.9668-5.5821-7.4711-5.3571-11.7427-6.5114c-7.2925-1.9706-13.8907-5.3437-19.5352-10.3278
		c-2.4903-2.1989-10.4663-8.5758-7.3428-12.5825c2.644-3.3916,7.0583,2.4616,9.448,3.5443
		c4.1384,1.8747,8.7584,1.9627,13.2116,2.1326c4.9608,0.1891,9.9163,0.6476,14.8906,0.7639
		c10.7979,0.2527,21.6102-0.2699,32.34-1.4988c12.3504-1.4145,24.6928-4.1299,37.0303-4.0833
		c12.8432,0.0486,25.7579,0.2271,38.6754,1.0738c27.7376,1.8183,54.8284,5.5839,81.4503,13.7607
		c18.7554,5.7605,36.9469,12.7139,54.5753,20.9725c-8.2586-17.6284-15.2119-35.8199-20.9724-54.5753
		c-8.1768-26.622-11.9424-53.7128-13.7607-81.4504c-0.8466-12.9174-1.0251-25.8324-1.0739-38.6755
		c-0.0466-12.3377,2.6689-24.68,4.0835-37.0302c1.2289-10.7299,1.7515-21.5421,1.4987-32.3401
		c-0.1165-4.9743-0.5748-9.9297-0.764-14.8904c-0.1698-4.4534-0.2578-9.0732-2.1325-13.2116
		c-1.0826-2.3898-6.9359-6.8041-3.5442-9.4481c4.0066-3.1235,10.3836,4.8527,12.5825,7.3428
		c4.9841,5.6445,8.3571,12.2427,10.3279,19.5353c1.1542,4.2717,0.9291,10.776,6.5113,11.7426
		c4.5394,0.786,6.7773-3.278,9.2422-6.4649c18.8293-24.3473,45.5438-37.7826,72.8104-48.9888
		c1.5451-0.6349,3.1119-1.2154,4.6971-1.7418c16.8197-5.5862,35.7234-5.1768,53.2643-5.3708
		c15.9078-0.176,31.7231,0.5518,47.3434,3.7901c12.4778,2.5881,23.8839,7.1968,35.7927,11.5645
		c12.4713,4.5738,25.1126,8.1452,38.6229,6.3506c1.2248-0.1627,2.7206-0.7559,2.9643,0.8816
		c0.147,0.9878-0.5652,2.5315-1.3955,3.1691c-6.879,5.2833-13.5959,11.088-23.4233,7.5504
		c-3.2607-1.1738-7.0846-1.9702-9.5706,1.258c-3.1204,4.0519,1.4166,9.7662,3.5428,13.267
		c2.6588,4.3776,5.6811,8.527,8.9221,12.4902c4.5412,5.553,7.3661,11.9509,10.2525,18.4626
		c7.2081,16.2628,10.9697,33.3737,15.6437,50.4349c4.6927,17.129,5.4672,34.774,3.2661,52.3642
		c-2.7309,21.8232-7.1915,43.7196-17.1086,64.6245c-12.2919,25.9109-33.1139,44.8063-48.5065,67.9679
		c-8.8892,13.3759-17.8094,26.6874-25.4838,40.8208c-9.2333,17.0037-9.1379,44.0923,0.8817,60.6522
		c7.6716,12.6791,22.2458,22.566,37.3188,23.1569c15.0323,0.5893,26.7776-9.593,34.1252-21.8529
		c4.4918-7.4948,2.4888-14.9823-0.626-22.3666c-2.0237-4.7969-2.5125-9.1659,4.5508-9.1481
		c4.4258,0.0112,4.9808-3.228,5.8807-5.9766c0.7974-2.4349,0.087-4.7801-2.1237-6.7567
		c-11.2669-10.0741-18.1007-13.1958-32.2166-14.3104c11.0864-8.6484,23.79-5.7979,35.0526,2.117
		C691.0112,484.7306,695.2652,509.5973,689.548,527.2348z"/>
	<path d="M1109.3883,563.8857c9.4081,6.8082,20.6442,10.5193,32.0479,12.2248c21.2991,3.1853,40.5579-1.6789,57.2324-15.1885
		c13.3879-10.8468,24.553-24.0374,29.994-40.594c5.8524-17.809,5.4015-40.0448-4.2517-56.509
		c-1.1246-1.918-1.4983-4.5756,0.0509-6.2193c1.8795-1.9941,5.2236-1.7,7.1437-0.6667c7.8235,4.21,10.6459-1.6381,10.7084-6.6241
		c0.292-23.3069-2.1643-46.0305-19.691-64.0381c-5.0111-5.1486-9.5211-10.7827-14.3136-16.1471
		c-1.5255-1.7075-2.8282-3.8053-2.0815-5.7953c0.2898-0.7725,3.4645-0.913,5.2037-0.6208
		c14.7476,2.4776,29.3639,0.3827,43.7258-2.2321c9.7831-1.7811,19.1526-4.6466,29.1608-1.6848
		c8.1012,2.3975,15.1993,5.1108,15.8572,15.5097c0.1284,2.031-0.3058,7.4259,5.2329,7.3446
		c4.8862-0.0719,4.8778-3.6455,6.1392-6.8477c11.8768-30.1548,1.2611-64.7061-31.2596-79.1826
		c-10.6039-4.7203-20.2017-8.007-31.5101-6.8982c-4.4216,0.4335-5.6904-0.1512-5.4106-6.1508
		c0.6268-13.438-1.8406-26.1577-13.189-36.4855c-9.8152-8.9324-19.8241-11.187-31.9861-8.5499
		c-6.2883,1.3635-9.2585,6.4922-12.8038,10.9413c-3.8248,4.8005-6.4285,6.3542-12.0588,0.7756
		c-15.1199-14.981-17.9448-33.4675-17.8916-53.2045c0.0042-1.4734-0.3291-3.6411,1.754-3.6666
		c1.2804-0.0157,2.9285,1.1652,3.814,2.2823c7.1768,9.0534,17.0011,9.5591,27.2454,8.5618
		c6.6027-0.6427,8.6385-4.7714,6.3475-10.4985c-6.4865-16.2156-1.3374-32.1745,13.7944-40.5524
		c14.8196-8.2049,31.1309-11.4386,47.7434-13.2248c2.2874-0.2459,6.4801-2.0493,6.994,2.0826
		c0.3383,2.7224-3.3019,2.7994-5.5615,3.8472c-24.4045,11.3168-37.9987,31.0504-43.0773,56.9858
		c-1.1953,6.1051,2.5729,8.0382,7.9811,6.7562c2.9674-0.7034,5.6576-2.5777,8.6254-3.2751
		c2.0829-0.4895,4.8815-0.2734,3.3521,3.3973c-4.5128,10.8318,1.957,20.2176,4.6017,29.8045
		c4.8323,17.5166,16.5579,30.9328,32.8744,37.987c16.6422,7.1952,34.8604,9.9503,52.1165,0.6741
		c16.1479-8.6806,25.1053-22.6192,26.7412-41.0362c0.4061-4.5708,0.3055-9.5886-4.6167-11.2582
		c-4.0446-1.372-5.8065,3.2371-8.4634,5.6187c-5.3038,4.7545-11.0876,9.0031-16.8798,13.1736
		c-4.1112,2.9602-9.2649,2.3408-11.9462-1.0277c-2.1135-2.6553,2.828-4.5591,4.6405-6.7127
		c5.5591-6.6049,6.8436-14.3859,6.9059-22.6016c0.0405-5.327-3.4478-6.0301-7.418-5.1597
		c-6.0977,1.3367-12.3536,2.8739-14.4919-5.2552c-1.8438-7.0102,3.2061-11.3314,7.9478-15.1699
		c9.7878-7.9234,20.4209-5.6665,30.8004-1.5788c26.2877,10.3527,35.4214,39.3452,38.7559,65.0021
		c3.0632,23.5711,2.3782,48.0722,1.1508,71.8006c-0.1042,2.013-0.2354,4.091-1.1414,5.8916
		c-4.2546,8.4568-12.6844-2.8752-16.818-5.2935c-4.5253-2.6475-9.582-4.3955-14.7871-5.0465
		c-5.2711-0.6593-9.4352,1.2688-7.4744,7.1095c4.7498,14.1483,9.4728,28.976,9.7839,44.1726
		c0.3148,15.3727-3.5458,31.0674-8.2208,45.6061c-4.3809,13.6237-10.1144,26.917-15.233,40.2829
		c-1.7273,4.5103-3.9032-0.55-5.749-2.1182c-8.4916-7.2151-16.7668-14.7218-28.1411-17.1872
		c-7.4625-1.6176-11.7146,2.1294-8.9077,8.8181c11.0806,26.4055,0.0499,48.3156-11.6134,71.3401
		c-3.6063,7.1193-7.8092,13.7081-12.3928,19.9514c6.2433-4.5837,12.832-8.7864,19.9513-12.3928
		c23.0247-11.6635,44.9344-22.6939,71.3402-11.6133c6.6885,2.8068,10.4355-1.4451,8.818-8.9077
		c-2.4655-11.3744-9.972-19.6496-17.1873-28.1412c-1.5681-1.8457-6.6287-4.0216-2.1182-5.749
		c13.366-5.1186,26.6592-10.852,40.283-15.2329c14.5387-4.6752,30.2333-8.5358,45.606-8.2209
		c15.1965,0.3112,30.0242,5.0342,44.1726,9.784c5.8407,1.9608,7.7688-2.2032,7.1095-7.4745
		c-0.6509-5.2051-2.3989-10.2619-5.0464-14.7871c-2.4185-4.1334-13.7502-12.5633-5.2937-16.818
		c1.8008-0.9059,3.8788-1.0372,5.8918-1.1413c23.7284-1.2274,48.2296-1.9125,71.8005,1.1508
		c25.6569,3.3344,54.6494,12.468,65.0021,38.7558c4.0878,10.3794,6.3447,21.0126-1.5786,30.8004
		c-3.8385,4.7418-8.1598,9.7917-15.1699,7.9478c-8.1294-2.1382-6.5919-8.3942-5.2554-14.4918
		c0.8705-3.9704,0.1672-7.4586-5.1595-7.4181c-8.2158,0.0624-15.9969,1.3468-22.6018,6.9058
		c-2.1534,1.8127-4.0574,6.7541-6.7128,4.6406c-3.3684-2.6812-3.9879-7.8349-1.0277-11.9461
		c4.1705-5.7922,8.4193-11.5759,13.1737-16.8799c2.3813-2.6568,6.9907-4.4189,5.6188-8.4634
		c-1.6697-4.9222-6.6875-5.0226-11.2583-4.6166c-18.417,1.6359-32.3556,10.5931-41.0363,26.7414
		c-9.2761,17.256-6.5209,35.4739,0.6741,52.1163c7.0543,16.3165,20.4706,28.042,37.9872,32.8743
		c9.5868,2.6447,18.9727,9.1147,29.8043,4.6019c3.6707-1.5294,3.887,1.269,3.3975,3.3521c-0.6974,2.9677-2.5718,5.658-3.275,8.6253
		c-1.2821,5.4082,0.651,9.1763,6.756,7.9808c25.9354-5.0785,45.6692-18.6725,56.986-43.0771
		c1.0479-2.2596,1.1246-5.8998,3.847-5.5613c4.1321,0.5139,2.3287,4.7065,2.0826,6.9939
		c-1.786,16.6125-5.0199,32.9239-13.2249,47.7433c-8.3777,15.1319-24.3367,20.2809-40.5522,13.7944
		c-5.7272-2.291-9.8557-0.2552-10.4985,6.3477c-0.9972,10.2442-0.4917,20.0687,8.5618,27.2454
		c1.1172,0.8856,2.298,2.5335,2.2823,3.8138c-0.0255,2.0831-2.1931,1.7501-3.6665,1.7541
		c-19.7371,0.053-38.2236-2.7719-53.2045-17.8915c-5.5787-5.6302-4.0249-8.2341,0.7754-12.059
		c4.4492-3.545,9.5779-6.5153,10.9414-12.8036c2.6372-12.162,0.3826-22.171-8.5498-31.9863
		c-10.3279-11.3482-23.0475-13.8157-36.4856-13.1889c-5.9995,0.2798-6.5842-0.9889-6.1509-5.4106
		c1.1089-11.3085-2.1779-20.9061-6.8979-31.5101c-14.4767-32.5209-49.0278-43.1365-79.1829-31.2595
		c-3.202,1.2612-6.7758,1.2527-6.8477,6.139c-0.0812,5.5386,5.3135,5.1044,7.3446,5.2329
		c10.3988,0.6579,13.1123,7.756,15.5095,15.8573c2.9622,10.0082,0.0966,19.3777-1.6846,29.1607
		c-2.6149,14.362-4.7097,28.9783-2.2321,43.7258c0.2921,1.7394,0.1517,4.914-0.621,5.2038
		c-1.9897,0.7466-4.0876-0.556-5.7952-2.0815c-5.3645-4.7925-10.9985-9.3026-16.147-14.3137
		c-18.0074-17.5267-40.7312-19.9829-64.0381-19.691c-4.9861,0.0625-10.8344,2.8849-6.6241,10.7085
		c1.0332,1.9201,1.3274,5.264-0.6666,7.1436c-1.6439,1.5493-4.3015,1.1756-6.2196,0.051
		c-16.4641-9.6534-38.7-10.1044-56.5088-4.2518c-16.5568,5.441-29.7472,16.606-40.5939,29.9939
		c-13.5096,16.6746-18.374,35.9335-15.1887,57.2325c1.7053,11.4037,5.4165,22.6398,12.2249,32.0478
		c12.9705,17.9235,33.8733,26.6646,55.7992,23.5743c21.4559-3.024,51.8966-16.3673,56.7261-39.8756
		c4.3552-21.1989-9.5002-45.9904-30.7275-51.5698c-3.3107-0.8702-16.7103-3.5508-17.8892,1.0529
		c-0.7572,2.9611-0.1658,5.6654,2.8408,7.2411c4.2903,2.2485,7.385,5.0564,8.7065,10.2557
		c1.048,4.1223,4.2119,8.4099,0.3845,11.6116c-1.0709,0.8958-5.1986-3.9868-7.0123-7.3831
		c-1.6714-3.1295-5.2284-4.5885-8.7513-4.4823c-3.0038,0.0905-4.2982,2.5966-3.9364,5.3965
		c1.059,8.1928-6.032,9.1925-10.7017,10.7254c-4.6228,1.5176-9.7458-0.922-13.1066-5.0477
		c-7.4594-9.1573-6.4189-26.0724,2.8105-34.9179c10.3507-9.92,22.0192-13.7843,37.272-11.1389
		c20.7861,3.6052,37.5425,12.1234,52.9385,26.575c11.3412,10.6104,22.3453,21.6032,34.3795,31.4443
		c12.3739,10.1187,25.7771,18.0836,40.1566,24.9572c31.4456,15.0314,69.4325,21.9055,104.0573,16.5552
		c30.0731-4.6469,58.3344-13.3622,84.5973-28.5489c2.6847-1.5524,6.8766-4.9707,10.2482-4.5232
		c3.0344,0.4028,4.91,4.1586,6.4071,6.4196c5.894,8.9006,14.9304,16.2394,25.2234,19.4365
		c7.0464,2.1886,14.647,2.5309,21.8721,1.0541c4.7306-0.9669,11.826-2.5071,11.5488-8.5359
		c-0.2434-5.3018-2.8053-8.4023-8.1107-8.271c-7.0187,0.1736-9.6805-4.8534-10.5165-9.9436
		c-0.8774-5.3464-0.4585-10.9211,1.1584-16.6354c2.4058-8.5025,8.7599-14.9964,10.8684-23.1982
		c4.9861-19.3931,8.3497-39.1657,9.255-59.2c0.819-18.1318,0.6228-37.6147-3.4109-55.3809
		c-4.0269-17.7355-10.203-34.7758-17.9539-51.2273c-7.0764-15.0199-18.2163-27.2371-27.0658-41.0217
		c-2.8976-4.514-3.4581-5.3592,2.5909-7.7196c19.7366-7.7016,26.7286-36.7741,8.8733-49.7744
		c-4.5723-3.3292-9.4775-6.7276-14.2201,0.8887c-5.8398,9.3787-14.0361,10.0216-24.3374,9.9868
		c-11.0281-0.0373-21.923-1.9361-32.8027-3.5247c-14.9918-2.189-30.0928-3.306-45.2269-3.8801
		c-15.7498-0.5976-31.4344,1.3322-47.1093,2.5384c-32.2092,2.4787-62.6267,9.9742-92.3005,21.8263
		c11.8522-29.6738,19.3477-60.0913,21.8262-92.3007c1.2063-15.6747,3.1361-31.3595,2.5385-47.1091
		c-0.5742-15.1344-1.6912-30.2351-3.8801-45.227c-1.5884-10.8798-3.4873-21.7747-3.5245-32.8028
		c-0.0348-10.3011,0.6082-18.4976,9.9868-24.3374c7.6161-4.7425,4.2179-9.6477,0.8887-14.2201
		c-13.0004-17.8552-42.0728-10.8631-49.7744,8.8734c-2.3606,6.049-3.2058,5.4887-7.7198,2.5907
		c-13.7844-8.8493-26.0018-19.9892-41.0215-27.0655c-16.4515-7.751-33.4918-13.9271-51.2274-17.9539
		c-17.766-4.0338-37.2489-4.2299-55.3807-3.4111c-20.0344,0.9056-39.807,4.2691-59.2002,9.2551
		c-8.2018,2.1087-14.6957,8.4627-23.198,10.8684c-5.7144,1.6169-11.2891,2.0361-16.6355,1.1584
		c-5.0903-0.8358-10.1173-3.4977-9.9437-10.5162c0.1313-5.3056-2.9691-7.8674-8.2709-8.1111
		c-6.0287-0.277-7.569,6.8185-8.536,11.549c-1.4767,7.2252-1.1344,14.8257,1.0541,21.8721
		c3.1973,10.293,10.536,19.3293,19.4365,25.2234c2.261,1.4972,6.0168,3.3727,6.4197,6.4073
		c0.4474,3.3714-2.9709,7.5634-4.5233,10.2481c-15.1865,26.2629-23.902,54.524-28.5488,84.5971
		c-5.3502,34.6248,1.5238,72.6118,16.5552,104.0572c6.8737,14.3794,14.8386,27.7828,24.9574,40.1567
		c9.8409,12.0343,20.8337,23.0385,31.4442,34.3795c14.4515,15.396,22.9698,32.1525,26.575,52.9384
		c2.6455,15.2528-1.219,26.9214-11.1389,37.272c-8.8455,9.2296-25.7606,10.2698-34.9178,2.8106
		c-4.1257-3.3607-6.5653-8.4837-5.0479-13.1066c1.5331-4.6698,2.5327-11.7607,10.7253-10.7018
		c2.7999,0.3619,5.3062-0.9325,5.3967-3.9363c0.1061-3.523-1.3528-7.08-4.4824-8.7514c-3.3962-1.8138-8.2788-5.9415-7.3831-7.0123
		c3.2018-3.8273,7.4894-0.6634,11.6116,0.3845c5.1995,1.3216,8.0072,4.4163,10.2557,8.7066
		c1.5756,3.0066,4.2799,3.598,7.2412,2.8408c4.6036-1.1789,1.9231-14.5786,1.0527-17.8892
		c-5.5793-21.2274-30.371-35.0826-51.5697-30.7275c-23.5084,4.8295-36.8516,35.2701-39.8757,56.7259
		C1082.7238,530.0123,1091.4648,550.9152,1109.3883,563.8857z M1334.9639,493.4598c-0.8643,2.7426-3.667,2.9731-6.3253,2.8759
		c-11.8676-0.4338-23.509,0.1485-34.9398,3.9656c3.8171-11.4307,4.3994-23.0723,3.9656-34.9396
		c-0.0973-2.6585,0.1333-5.4612,2.876-6.3255c3.1283-0.9858,3.809,2.0077,5.2429,4.0939
		c3.5546,5.1712,6.5953,10.2988,7.6089,16.7585c0.0311,0.1984,0.068,0.4017,0.1105,0.6089
		c0.2073,0.0424,0.4106,0.0793,0.6088,0.1104c6.46,1.0135,11.5874,4.0543,16.7585,7.609
		C1332.9563,489.6509,1335.9497,490.3316,1334.9639,493.4598z M1569.9415,650.2109c-0.2242,2.5553-4.9447,2.6903-7.7794,3.3958
		c-2.0815,0.5181-4.3961,0.1016-6.6067,0.1016c-14.1047-1.6658-28.8505-2.3375-40.3373-11.6728
		c-8.24-6.6965-14.8346-15.2889-13.1742-27.4706c0.7985-5.8577-2.9758-6.8449-8.0953-6.7511
		c-12.7673,0.2337-20.3267,8.3267-27.4896,17.2479c-1.4316,1.7828-2.286,9.1376-6.1094,6.3748
		c-0.9974-0.7209-1.522-1.9116-2.0021-3.0449c-2.7194-6.42-5.4576-12.9153-7.5588-19.5406
		c-2.0289-6.398-5.6033-12.2433-7.3225-18.8416c-2.2957-8.8108-0.385-16.2121,0.8683-24.9206
		c1.2346-8.5771,2.1304-17.1984,3.3097-25.7828c1.962-14.2817,4.3103-28.5498-2.6843-42.1195
		c-2.3037-4.4691-0.2234-5.0223,3.2103-4.707c12.0685,1.108,21.8885,6.4296,29.2738,16.1162
		c11.7054,15.3534,14.11,36.2105,7.3235,54.1897c-0.7295,1.9326-1.5769,3.9365-1.3221,5.9863
		c0.7677,6.1817,9.0638,3.5164,12.1119,1.0221c8.0172-6.5609,16.339-7.9012,26.7236-5.7015
		c10.601,2.2455,16.0126,7.7125,19.1342,17.4185c3.1022,9.6464-2.9552,15.6903-8.3175,21.2942
		c-9.3295,9.7501-8.8728,8.7951-1.5209,20.7215c7.5427,12.2352,18.9956,17.637,31.3353,22.3512
		C1565.7008,646.9431,1570.2321,646.9061,1569.9415,650.2109z M1203.9906,350.5339c-6.5984-1.7192-12.4436-5.2937-18.8417-7.3227
		c-6.6252-2.101-13.1206-4.8394-19.5404-7.5588c-1.1335-0.4801-2.3242-1.0045-3.0449-2.0021
		c-2.7628-3.8232,4.5919-4.6776,6.3748-6.1092c8.921-7.1631,17.0143-14.7225,17.2478-27.4897
		c0.0939-5.1194-0.8933-8.8938-6.751-8.0954c-12.1816,1.6605-20.774-4.9341-27.4707-13.174
		c-9.3351-11.4868-10.0068-26.2327-11.6726-40.3374c0-2.2106-0.4165-4.525,0.1016-6.6068c0.7054-2.8347,0.8405-7.555,3.3956-7.7794
		c3.3048-0.2904,3.2678,4.2406,4.3333,7.0295c4.7145,12.3399,10.1161,23.7927,22.3513,31.3353
		c11.9263,7.3521,10.9713,7.8088,20.7214-1.5208c5.6038-5.3622,11.6478-11.4196,21.2941-8.3174
		c9.7062,3.1215,15.173,8.5332,17.4186,19.1339c2.1998,10.3848,0.8594,18.7065-5.7015,26.7237
		c-2.4943,3.0482-5.1595,11.3442,1.0221,12.1121c2.05,0.2547,4.0538-0.5927,5.9863-1.3221
		c17.9791-6.7866,38.8362-4.3821,54.1897,7.3235c9.6866,7.3852,15.0082,17.2054,16.1162,29.2736
		c0.3153,3.4339-0.2379,5.514-4.707,3.2104c-13.5698-6.9946-27.8379-4.6462-42.1194-2.6843
		c-8.5846,1.1793-17.2058,2.0752-25.783,3.3097C1220.2028,350.9189,1212.8014,352.8296,1203.9906,350.5339z M1118.9656,473.5029
		c11.2626-7.9149,23.9662-10.7655,35.0526-2.117c-14.1158,1.1146-20.9496,4.2363-32.2166,14.3104
		c-2.2107,1.9767-2.9209,4.3218-2.1235,6.7567c0.8999,2.7485,1.455,5.9877,5.8807,5.9766c7.0632-0.0178,6.5743,4.3512,4.5507,9.1481
		c-3.1147,7.3843-5.1177,14.8718-0.626,22.3666c7.3477,12.2599,19.0929,22.4422,34.1252,21.8529
		c15.073-0.5909,29.6472-10.4778,37.3188-23.1569c10.0195-16.5599,10.1149-43.6485,0.8816-60.6522
		c-7.6744-14.1334-16.5945-27.4449-25.4838-40.8208c-15.3927-23.1616-36.2147-42.0569-48.5065-67.9679
		c-9.9172-20.9049-14.3778-42.8014-17.1088-64.6245c-2.201-17.5902-1.4266-35.2352,3.2661-52.3642
		c4.6741-17.0613,8.4357-34.1721,15.6438-50.4349c2.8864-6.5117,5.7113-12.9096,10.2524-18.4626
		c3.2411-3.9632,6.2633-8.1126,8.9221-12.4902c2.1262-3.5008,6.6632-9.2151,3.5428-13.267c-2.486-3.2282-6.3099-2.4319-9.5706-1.258
		c-9.8275,3.5376-16.5443-2.2671-23.4233-7.5504c-0.8302-0.6375-1.5425-2.1813-1.3955-3.1691
		c0.2437-1.6376,1.7395-1.0443,2.9644-0.8816c13.5103,1.7946,26.1516-1.7768,38.6228-6.3506
		c11.9088-4.3676,23.3149-8.9764,35.7927-11.5645c15.6202-3.2383,31.4355-3.9661,47.3434-3.7901
		c17.5409,0.194,36.4446-0.2155,53.2644,5.3708c1.5851,0.5264,3.152,1.1069,4.697,1.7418
		c27.2667,11.2062,53.9812,24.6415,72.8104,48.9888c2.4648,3.187,4.7028,7.2509,9.2422,6.4649
		c5.5822-0.9665,5.3571-7.4709,6.5112-11.7426c1.9708-7.2925,5.3438-13.8908,10.3279-19.5353
		c2.199-2.4901,8.5759-10.4663,12.5825-7.3428c3.3917,2.644-2.4615,7.0583-3.5442,9.4481
		c-1.8748,4.1384-1.9626,8.7582-2.1326,13.2116c-0.1892,4.9607-0.6475,9.9161-0.764,14.8904
		c-0.2528,10.798,0.2698,21.6102,1.4988,32.3401c1.4147,12.3503,4.13,24.6926,4.0835,37.0302
		c-0.0488,12.8431-0.2274,25.758-1.074,38.6755c-1.8184,27.7376-5.5839,54.8284-13.7606,81.4504
		c-5.7606,18.7554-12.7139,36.9469-20.9725,54.5753c17.6284-8.2586,35.8199-15.212,54.5754-20.9725
		c26.6218-8.1767,53.7126-11.9424,81.4503-13.7607c12.9174-0.8467,25.8322-1.0253,38.6753-1.0738
		c12.3375-0.0467,24.6799,2.6688,37.0304,4.0833c10.7297,1.2289,21.542,1.7515,32.34,1.4988
		c4.9742-0.1164,9.9298-0.5748,14.8905-0.7639c4.4532-0.1699,9.0732-0.2579,13.2117-2.1326
		c2.3896-1.0827,6.8038-6.9359,9.4479-3.5443c3.1235,4.0067-4.8525,10.3836-7.3428,12.5825
		c-5.6445,4.9842-12.2427,8.3572-19.5352,10.3278c-4.2717,1.1543-10.776,0.9293-11.7428,6.5114
		c-0.7858,4.5393,3.2781,6.7774,6.465,9.2421c24.3474,18.8295,37.7826,45.5439,48.989,72.8105
		c0.6348,1.5449,1.2152,3.1119,1.7417,4.697c5.5862,16.8198,5.1768,35.7234,5.3707,53.2643
		c0.176,15.908-0.5518,31.7233-3.7902,47.3435c-2.588,12.4777-7.1968,23.8839-11.5643,35.7928
		c-4.5739,12.4711-8.1453,25.1125-6.3508,38.6228c0.1628,1.2249,0.756,2.7207-0.8815,2.9643
		c-0.9878,0.1469-2.5316-0.5652-3.1692-1.3954c-5.2832-6.8791-11.0879-13.5959-7.5503-23.4233
		c1.1738-3.2607,1.9701-7.0846-1.2581-9.5707c-4.052-3.1203-9.7664,1.4166-13.267,3.5429
		c-4.3776,2.6588-8.5271,5.6811-12.4901,8.922c-5.5531,4.5412-11.9509,7.3663-18.4626,10.2525
		c-16.2629,7.2082-33.3738,10.9697-50.4351,15.6439c-17.1292,4.6927-34.7739,5.4672-52.3643,3.2661
		c-21.8231-2.7308-43.7195-7.1914-64.6244-17.1086c-25.911-12.292-44.8063-33.114-67.9679-48.5066
		c-13.376-8.8893-26.6875-17.8094-40.8208-25.4839c-17.0037-9.233-44.0925-9.1379-60.6522,0.8818
		c-12.6792,7.6715-22.5662,22.2457-23.1571,37.3189c-0.5891,15.0322,9.5933,26.7775,21.853,34.1252
		c7.4949,4.4918,14.9824,2.4887,22.3667-0.6262c4.7968-2.0235,9.1658-2.5123,9.1478,4.5509
		c-0.0111,4.4257,3.2283,4.9808,5.9766,5.8808c2.4352,0.7973,4.7803,0.087,6.757-2.1237
		c10.0741-11.2669,13.1958-18.1008,14.3102-32.2166c8.6487,11.0864,5.798,23.79-2.1168,35.0527
		c-11.2278,15.9767-36.0945,20.2307-53.7321,14.5135c-11.249-3.6464-19.3495-10.9424-26.4351-20.1031
		c-15.4127-19.9261-9.7698-50.7825,4.1849-68.0338c21.3052-26.3379,57.6687-34.0402,87.3772-18.8777
		c5.5057,2.8101,11.2299,5.2119,16.9386,7.5983c3.5703,1.4925,7.9889,2.3334,10.6675-0.3745
		c2.2567-2.2811-0.2726-5.8741-1.5377-8.7122c-0.2548-0.5717-0.6835-1.0638-0.9617-1.6272
		c-1.7317-3.506-4.6566-7.5317-3.0536-10.9592c2.0326-4.3458,16.1321,0.2914,19.8527,1.3581
		c7.127,2.0435,13.9756,5.0514,20.3142,8.896c11.9391,7.2415,20.6393,17.5657,29.4397,28.1666
		c14.243,17.1569,25.6469,37.1453,44.8258,50.1471c4.174,2.8294,7.0334,2.2072,9.995-0.0297
		c3.2029-2.4194,1.9893-5.6959,0.3704-8.8958c-3.6714-7.2571-4.0796-14.0239,2.7252-20.1794
		c4.2725-3.8649,7.6261-3.694,8.8502,1.7383c3.1597,14.0209,15.7308,25.7878,28.7262,30.9434
		c6.4137,2.5446,13.3612,3.718,20.2545,3.4704c6.5092-0.2338,12.9937-0.4156,19.5193-0.8354
		c14.4131-0.9272,28.6715-3.7308,42.4048-8.1883c13.8877-4.5075,25.5283-12.285,38.1625-18.6194
		c1.6343-0.8193,2.9529-2.3262,4.3086-3.6282c1.5836-1.5208,3.4203-3.0782,2.5789-5.6432
		c-1.2917-3.9376-10.2921-1.8223-13.1438-1.0406c-3.3088,0.907-6.0736,2.9866-9.3243,3.8683
		c-6.1901,1.679-11.5179-1.2949-15.39-5.9871c-3.0016-3.6375-2.8708-6.4636,2.8752-6.3521
		c26.2582,0.5098,39.2611-16.1799,48.5298-37.5366c7.8669-18.1267,10.1937-36.9387,5.6328-56.2923
		c-2.4368-10.3397-7.1768-20.0622-8.2678-30.8123c-0.2023-1.9936-1.892-3.8802-3.0433-5.7237
		c-2.0173-3.2301-5.692-3.9492-8.6993-3.5435c-2.624,0.354-2.7649,3.7556-2.626,6.3844
		c1.0382,19.6491-4.2446,37.3949-15.8784,53.2992c-5.5898,7.6421-13.5328,12.6267-20.6992,18.4239
		c-3.0433,2.4619-3.1744-1.1498-3.3242-3.2809c-0.2742-3.8974,3.5632-5.6533,4.6715-8.9454
		c1.0813-3.2122,1.4249-5.726-0.7872-8.7169c-2.7832-3.7625-6.2872-1.6011-8.309-0.5522
		c-22.8751,11.8668-42.8323,4.315-60.7871-10.0323c-16.0404-12.8173-17.0448-47.2911-3.072-61.5068
		c0.845-0.8598,2.6995-2.1507,2.9479-1.9346c1.2704,1.1051,0.9746,2.7245,0.3647,4.1896
		c-6.5417,15.7156,1.5314,39.0338,16.6885,47.5222c1.4386,0.8056,3.5746,3.0497,5.6494,0.3625
		c2.2134-2.867,2.4143-3.2045,1.5101-6.6719c-0.6625-2.5396-1.1029-5.1598-1.2396-7.782
		c-0.2352-4.5048,0.2809-10.4006,4.6428-12.9221c1.8728,3.5533,3.6162,7.1821,5.6421,10.6459
		c4.8336,8.2654,13.6089,9.0911,21.3346,8.8201c10.9819-0.3851,21.036-9.0483,27.5225-17.1828
		c7.5796-9.505,6.3811-24.8118,2.8254-35.7965c-6.7946-20.9916-23.9215-37.9037-44.0912-46.2489
		c-14.6709-6.07-31.205-8.1537-46.9844-9.5993c-37.734-3.4567-75.1526,1.3481-112.0878,8.9107
		c-2.2009,0.4507-5.5693,1.0703-5.5737,3.8401c-0.0048,2.9884,3.2592,2.9062,5.6445,3.742
		c10.7269,3.7584,22.2496,5.9143,30.7631,14.4567c2.691,2.7001,3.4248,3.6906-1.7861,4.3957
		c-4.4205,0.5982-8.9377-0.2523-13.2494-1.1851c-8.8801-1.9211-16.7957-1.7826-25.7762-1.0499
		c-17.5562,1.4342-34.6306,6.0917-51.1519,12.0457c-5.9833,2.1563-12.1366,4.3255-18.2573,6.6608
		c2.3356-6.1208,4.5046-12.2739,6.6609-18.2573c5.9539-16.5212,10.6116-33.5957,12.0457-51.1519
		c0.7329-8.9806,0.8711-16.8961-1.0499-25.7762c-0.9326-4.3116-1.7831-8.8289-1.1851-13.2494
		c0.7051-5.2109,1.6958-4.4771,4.3958-1.7861c8.5424,8.5133,10.6985,20.0364,14.4567,30.7631
		c0.8359,2.3853,0.7535,5.6494,3.7421,5.6446c2.7697-0.0045,3.3895-3.3728,3.8401-5.5739
		c7.5627-36.9351,12.3673-74.3536,8.9108-112.0877c-1.4456-15.7794-3.5292-32.3135-9.5992-46.9843
		c-8.3453-20.1698-25.2574-37.2967-46.2488-44.0914c-10.9849-3.5556-26.2917-4.7539-35.7966,2.8255
		c-8.1346,6.4866-16.7976,16.5406-17.183,27.5225c-0.2709,7.7256,0.5548,16.5009,8.8202,21.3346
		c3.4639,2.0257,7.0927,3.7692,10.646,5.642c-2.5215,4.3619-8.4172,4.878-12.922,4.6429c-2.6223-0.1369-5.2426-0.5774-7.782-1.2397
		c-3.4675-0.9043-3.8051-0.7033-6.672,1.5102c-2.6871,2.0747-0.4431,4.2107,0.3625,5.6493
		c8.4883,15.1571,31.8065,23.2301,47.5223,16.6886c1.4651-0.6099,3.0845-0.9056,4.1895,0.3648
		c0.2161,0.2484-1.0747,2.1028-1.9346,2.9479c-14.2158,13.9726-48.6895,12.9684-61.507-3.072
		c-14.3473-17.9549-21.8992-37.9121-10.0321-60.787c1.0487-2.0218,3.2102-5.5258-0.5524-8.3089
		c-2.9908-2.2124-5.5046-1.8686-8.7168-0.7873c-3.2922,1.1082-5.0481,4.9456-8.9456,4.6715
		c-2.1311-0.1499-5.7427-0.2809-3.281-3.3242c5.7974-7.1665,10.7819-15.1093,18.4238-20.6994
		c15.9044-11.6338,33.6501-16.9166,53.2992-15.8782c2.629,0.1389,6.0305-0.0021,6.3846-2.6259
		c0.4056-3.0075-0.3136-6.6821-3.5436-8.6995c-1.8435-1.1514-3.7302-2.8411-5.7236-3.0435
		c-10.7502-1.091-20.4725-5.8309-30.8124-8.2677c-19.3536-4.5609-38.1656-2.2342-56.2922,5.6327
		c-21.3568,9.2686-38.0464,22.2715-37.5369,48.5299c0.1117,5.7462-2.7142,5.8768-6.3518,2.8752
		c-4.6924-3.872-7.6663-9.2-5.9871-15.3902c0.8817-3.2505,2.9613-6.0154,3.8682-9.3242c0.7817-2.8518,2.8971-11.8519-1.0405-13.1438
		c-2.5649-0.8414-4.1224,0.9952-5.6432,2.5789c-1.3021,1.3558-2.8091,2.6743-3.6282,4.3086
		c-6.3345,12.6342-14.1119,24.2746-18.6196,38.1622c-4.4573,13.7335-7.261,27.9919-8.1881,42.4049
		c-0.4198,6.5259-0.6018,13.0103-0.8354,19.5193c-0.2476,6.8935,0.9259,13.8409,3.4703,20.2546
		c5.1556,12.9954,16.9225,25.5666,30.9435,28.7261c5.4324,1.2241,5.603,4.5778,1.7384,8.8503
		c-6.1555,6.8049-12.9222,6.3965-20.1794,2.7251c-3.2-1.6188-6.4764-2.8325-8.8958,0.3704
		c-2.2371,2.9614-2.8591,5.8211-0.0299,9.9949c13.002,19.1791,32.9905,30.5829,50.1472,44.826
		c10.601,8.8005,20.9253,17.5005,28.1666,29.4397c3.8446,6.3386,6.8524,13.1873,8.896,20.3142
		c1.0667,3.7205,5.7039,17.8199,1.358,19.8526c-3.4275,1.6031-7.453-1.3217-10.9591-3.0535
		c-0.5635-0.2783-1.0555-0.7069-1.6272-0.9618c-2.838-1.2651-6.4312-3.7944-8.7122-1.5378
		c-2.708,2.6787-1.8671,7.0973-0.3745,10.6678c2.3865,5.7086,4.7881,11.4327,7.5983,16.9386
		c15.1625,29.7083,7.4602,66.072-18.8778,87.3771c-17.2513,13.9547-48.1077,19.5976-68.0338,4.1849
		c-9.1605-7.0857-16.4567-15.1859-20.1031-26.4352C1098.7347,509.5973,1102.9888,484.7306,1118.9656,473.5029z"/>
	<path d="M684.6116,1230.1143c-9.4081-6.8081-20.6441-10.5193-32.0478-12.2247c-21.2991-3.1853-40.5579,1.6788-57.2324,15.1885
		c-13.3879,10.8468-24.553,24.0375-29.9941,40.594c-5.8524,17.8091-5.4015,40.0449,4.2518,56.509
		c1.1246,1.918,1.4983,4.5756-0.0509,6.2192c-1.8796,1.9941-5.2236,1.7001-7.1436,0.6667
		c-7.8236-4.21-10.6459,1.6381-10.7084,6.6241c-0.292,23.3069,2.1643,46.0305,19.691,64.0381
		c5.0111,5.1486,9.5211,10.7826,14.3136,16.147c1.5255,1.7075,2.8282,3.8054,2.0815,5.7953
		c-0.2898,0.7726-3.4644,0.9131-5.2037,0.6208c-14.7475-2.4777-29.364-0.3827-43.7258,2.2321
		c-9.783,1.7811-19.1526,4.6467-29.1608,1.6848c-8.1012-2.3976-15.1993-5.1108-15.8571-15.5098
		c-0.1284-2.031,0.3057-7.4259-5.2329-7.3445c-4.8863,0.0719-4.8778,3.6455-6.1392,6.8477
		c-11.8768,30.1549-1.2611,64.7062,31.2596,79.1826c10.6039,4.7203,20.2017,8.0071,31.5102,6.8982
		c4.4216-0.4335,5.6904,0.1511,5.4106,6.1509c-0.6269,13.438,1.8405,26.1577,13.1889,36.4855
		c9.8152,8.9324,19.8241,11.187,31.9862,8.5498c6.2883-1.3634,9.2585-6.4922,12.8037-10.9413
		c3.8248-4.8004,6.4286-6.3541,12.0589-0.7755c15.1198,14.981,17.9448,33.4674,17.8917,53.2045
		c-0.0042,1.4735,0.329,3.6411-1.7542,3.6666c-1.2803,0.0156-2.9283-1.1653-3.8139-2.2823
		c-7.1767-9.0535-17.0011-9.5591-27.2454-8.5619c-6.6027,0.6428-8.6385,4.7715-6.3475,10.4985
		c6.4865,16.2157,1.3373,32.1746-13.7944,40.5525c-14.8196,8.2048-31.1309,11.4385-47.7433,13.2247
		c-2.2874,0.246-6.4802,2.0493-6.994-2.0826c-0.3384-2.7224,3.3018-2.7994,5.5615-3.8472
		c24.4045-11.3168,37.9987-31.0504,43.0772-56.9858c1.1954-6.1051-2.5728-8.0382-7.981-6.7562
		c-2.9673,0.7035-5.6575,2.5778-8.6253,3.2751c-2.0829,0.4895-4.8815,0.2734-3.3521-3.3973
		c4.5129-10.8318-1.957-20.2175-4.6017-29.8044c-4.8323-17.5166-16.5578-30.9327-32.8743-37.9871
		c-16.6423-7.1952-34.8603-9.9503-52.1164-0.6741c-16.148,8.6805-25.1054,22.6193-26.7413,41.0361
		c-0.4061,4.5709-0.3055,9.5886,4.6167,11.2583c4.0445,1.3719,5.8065-3.2372,8.4633-5.6187
		c5.3039-4.7545,11.0877-9.0032,16.8798-13.1737c4.1111-2.9601,9.2648-2.3408,11.9461,1.0277
		c2.1136,2.6553-2.828,4.5591-4.6405,6.7128c-5.5591,6.6049-6.8436,14.386-6.9058,22.6016
		c-0.0405,5.327,3.4477,6.0302,7.4179,5.1598c6.0976-1.3367,12.3537-2.8739,14.4919,5.2552
		c1.8438,7.0101-3.206,11.3313-7.9477,15.1698c-9.7878,7.9235-20.421,5.6665-30.8004,1.5789
		c-26.2877-10.3527-35.4214-39.3452-38.7559-65.0021c-3.0632-23.5712-2.3781-48.0723-1.1508-71.8007
		c0.1043-2.0131,0.2354-4.0911,1.1414-5.8916c4.2546-8.4568,12.6844,2.8752,16.818,5.2935
		c4.5253,2.6475,9.5821,4.3955,14.7871,5.0465c5.2711,0.6593,9.4351-1.2688,7.4744-7.1095
		c-4.7498-14.1484-9.4728-28.9761-9.7839-44.1727c-0.3148-15.3726,3.5457-31.0673,8.2208-45.606
		c4.3809-13.6238,10.1144-26.9171,15.2331-40.283c1.7273-4.5103,3.9032,0.5499,5.749,2.1183
		c8.4916,7.2151,16.7668,14.7217,28.1411,17.1871c7.4626,1.6177,11.7146-2.1293,8.9077-8.818
		c-11.0806-26.4055-0.0499-48.3156,11.6133-71.3401c3.6064-7.1193,7.8093-13.7081,12.3929-19.9514
		c-6.2432,4.5837-12.832,8.7864-19.9513,12.3928c-23.0246,11.6635-44.9345,22.6938-71.3402,11.6134
		c-6.6885-2.8068-10.4356,1.4451-8.818,8.9077c2.4655,11.3744,9.972,19.6495,17.1873,28.1411
		c1.5682,1.8458,6.6287,4.0217,2.1182,5.7491c-13.3659,5.1185-26.6592,10.8519-40.2829,15.2329
		c-14.5387,4.6752-30.2334,8.5358-45.606,8.2208c-15.1965-0.3112-30.0241-5.0342-44.1726-9.7839
		c-5.8406-1.9608-7.7687,2.2032-7.1094,7.4745c0.6508,5.2051,2.3988,10.2618,5.0463,14.7871
		c2.4185,4.1334,13.7503,12.5632,5.2937,16.818c-1.8007,0.9059-3.8788,1.0371-5.8918,1.1412
		c-23.7284,1.2274-48.2296,1.9125-71.8005-1.1508c-25.6569-3.3345-54.6494-12.4681-65.002-38.7559
		c-4.0878-10.3793-6.3447-21.0126,1.5786-30.8003c3.8385-4.7418,8.1598-9.7917,15.1699-7.9478
		c8.1293,2.1382,6.5918,8.3942,5.2554,14.4918c-0.8705,3.9705-0.1672,7.4586,5.1596,7.4181
		c8.2158-0.0624,15.9969-1.3468,22.6018-6.9059c2.1534-1.8126,4.0574-6.754,6.7127-4.6405c3.3684,2.6813,3.9879,7.835,1.0277,11.946
		c-4.1706,5.7922-8.4193,11.5759-13.1737,16.8799c-2.3814,2.6569-6.9908,4.4188-5.6188,8.4634
		c1.6696,4.9221,6.6874,5.0226,11.2582,4.6166c18.4171-1.6359,32.3557-10.5931,41.0363-26.7413
		c9.2762-17.256,6.5209-35.4739-0.6741-52.1163c-7.0543-16.3165-20.4706-28.042-37.9871-32.8743
		c-9.5869-2.6447-18.9727-9.1146-29.8044-4.6018c-3.6707,1.5293-3.8869-1.269-3.3974-3.3521
		c0.6974-2.9678,2.5717-5.6581,3.275-8.6254c1.282-5.4082-0.651-9.1763-6.756-7.9808
		c-25.9354,5.0785-45.6692,18.6726-56.986,43.0771c-1.0478,2.2596-1.1246,5.8998-3.847,5.5613
		c-4.132-0.5138-2.3287-4.7064-2.0827-6.9939c1.7861-16.6124,5.02-32.9238,13.2249-47.7433
		c8.3777-15.132,24.3368-20.2809,40.5523-13.7944c5.7272,2.2909,9.8558,0.2551,10.4985-6.3477
		c0.9972-10.2443,0.4917-20.0687-8.5618-27.2454c-1.1172-0.8856-2.298-2.5336-2.2823-3.8138
		c0.0255-2.0831,2.1931-1.7501,3.6665-1.754c19.737-0.0531,38.2236,2.7719,53.2045,17.8915
		c5.5787,5.6302,4.0249,8.2341-0.7754,12.0591c-4.4493,3.5449-9.5779,6.5153-10.9414,12.8036
		c-2.6373,12.162-0.3826,22.171,8.5498,31.9863c10.3278,11.3481,23.0475,13.8157,36.4855,13.1888
		c5.9996-0.2798,6.5843,0.9889,6.1509,5.4106c-1.1089,11.3085,2.1778,20.9061,6.898,31.51
		c14.4766,32.5209,49.0278,43.1365,79.1828,31.2595c3.2021-1.2612,6.7758-1.2527,6.8477-6.1389
		c0.0812-5.5387-5.3135-5.1045-7.3446-5.2329c-10.3988-0.658-13.1123-7.7561-15.5096-15.8573
		c-2.9622-10.0082-0.0965-19.3777,1.6846-29.1608c2.6148-14.3619,4.7097-28.9783,2.2321-43.7257
		c-0.2922-1.7394-0.1518-4.9141,0.621-5.2039c1.9897-0.7466,4.0876,0.556,5.7951,2.0815
		c5.3644,4.7925,10.9985,9.3026,16.1469,14.3137c18.0075,17.5267,40.7313,19.9829,64.0381,19.691
		c4.986-0.0625,10.8343-2.8849,6.6241-10.7085c-1.0332-1.9202-1.3273-5.264,0.6667-7.1436c1.6439-1.5493,4.3015-1.1757,6.2195-0.051
		c16.4642,9.6534,38.7,10.1044,56.5089,4.2517c16.5567-5.4409,29.7471-16.606,40.5939-29.9939
		c13.5096-16.6746,18.374-35.9335,15.1886-57.2324c-1.7053-11.4037-5.4164-22.6399-12.2247-32.0479
		c-12.9706-17.9235-33.8734-26.6646-55.7993-23.5742c-21.4559,3.024-51.8965,16.3673-56.726,39.8756
		c-4.3552,21.1989,9.5002,45.9904,30.7274,51.5698c3.3107,0.8702,16.7104,3.5508,17.8893-1.0529
		c0.7571-2.9612,0.1657-5.6654-2.8409-7.2411c-4.2903-2.2485-7.3851-5.0564-8.7065-10.2557
		c-1.048-4.1223-4.2119-8.4099-0.3845-11.6116c1.0708-0.8959,5.1985,3.9868,7.0123,7.3831
		c1.6714,3.1295,5.2284,4.5885,8.7514,4.4823c3.0037-0.0906,4.2982-2.5966,3.9363-5.3965
		c-1.0589-8.1929,6.032-9.1925,10.7017-10.7255c4.6228-1.5176,9.7458,0.922,13.1066,5.0477
		c7.4593,9.1573,6.4189,26.0724-2.8106,34.918c-10.3507,9.92-22.0191,13.7843-37.272,11.1388
		c-20.7861-3.6051-37.5424-12.1233-52.9384-26.575c-11.3412-10.6105-22.3453-21.6033-34.3796-31.4443
		c-12.3739-10.1187-25.7771-18.0835-40.1566-24.9572c-31.4455-15.0314-69.4324-21.9054-104.0572-16.5552
		c-30.0731,4.6469-58.3344,13.3622-84.5973,28.5488c-2.6847,1.5525-6.8766,4.9707-10.2481,4.5232
		c-3.0344-0.4027-4.91-4.1586-6.4072-6.4196c-5.894-8.9006-14.9304-16.2394-25.2234-19.4365
		c-7.0463-2.1886-14.6469-2.5309-21.872-1.0541c-4.7306,0.9669-11.8261,2.5071-11.5489,8.5359
		c0.2434,5.3018,2.8054,8.4023,8.1108,8.271c7.0186-0.1736,9.6805,4.8534,10.5164,9.9436
		c0.8775,5.3464,0.4586,10.9211-1.1584,16.6355c-2.4058,8.5024-8.7599,14.9963-10.8685,23.1982
		c-4.986,19.3931-8.3497,39.1656-9.255,59.2c-0.8189,18.1318-0.6227,37.6147,3.4109,55.3809
		c4.0269,17.7355,10.2031,34.7758,17.9539,51.2273c7.0763,15.0199,18.2163,27.2372,27.0657,41.0217
		c2.8977,4.5139,3.4581,5.3591-2.5909,7.7196c-19.7366,7.7015-26.7286,36.774-8.8733,49.7744
		c4.5723,3.3292,9.4776,6.7277,14.2202-0.8887c5.8398-9.3787,14.0361-10.0217,24.3374-9.9868
		c11.0281,0.0372,21.9229,1.936,32.8027,3.5247c14.9918,2.189,30.0927,3.3059,45.2269,3.8801
		c15.7498,0.5975,31.4344-1.3322,47.1093-2.5385c32.2091-2.4786,62.6267-9.9741,92.3005-21.8263
		c-11.8522,29.6738-19.3477,60.0913-21.8262,92.3007c-1.2063,15.6747-3.1361,31.3595-2.5384,47.1091
		c0.5742,15.1344,1.6912,30.2351,3.8801,45.2271c1.5884,10.8798,3.4873,21.7747,3.5245,32.8027
		c0.0349,10.3011-0.6082,18.4977-9.9868,24.3374c-7.6161,4.7426-4.2178,9.6477-0.8886,14.2201
		c13.0004,17.8552,42.0728,10.8632,49.7744-8.8734c2.3605-6.049,3.2058-5.4886,7.7197-2.5907
		c13.7845,8.8494,26.0018,19.9891,41.0215,27.0656c16.4515,7.751,33.4919,13.927,51.2274,17.9539
		c17.7661,4.0338,37.249,4.2299,55.3808,3.4111c20.0344-0.9056,39.8069-4.2692,59.2001-9.2551
		c8.2018-2.1086,14.6957-8.4628,23.198-10.8684c5.7144-1.6169,11.2892-2.0361,16.6356-1.1584
		c5.0903,0.8358,10.1172,3.4977,9.9437,10.5162c-0.1313,5.3055,2.9691,7.8674,8.2708,8.1111
		c6.0288,0.277,7.5691-6.8185,8.5361-11.5491c1.4767-7.2252,1.1344-14.8257-1.0541-21.8721
		c-3.1973-10.293-10.536-19.3293-19.4365-25.2234c-2.261-1.4972-6.0168-3.3727-6.4196-6.4072
		c-0.4474-3.3713,2.9708-7.5634,4.5233-10.2482c15.1865-26.2628,23.9019-54.524,28.5487-84.597
		c5.3503-34.6249-1.5237-72.6118-16.5552-104.0573c-6.8736-14.3794-14.8385-27.7828-24.9573-40.1566
		c-9.8409-12.0343-20.8337-23.0386-31.4442-34.3795c-14.4516-15.396-22.9698-32.1525-26.5749-52.9385
		c-2.6456-15.2528,1.2189-26.9214,11.1389-37.272c8.8455-9.2296,25.7606-10.2699,34.9178-2.8107
		c4.1257,3.3607,6.5653,8.4838,5.0479,13.1066c-1.5331,4.6698-2.5327,11.7607-10.7254,10.7018
		c-2.7999-0.3618-5.3061,0.9325-5.3967,3.9363c-0.106,3.5231,1.3528,7.0801,4.4824,8.7515
		c3.3963,1.8137,8.2789,5.9415,7.3831,7.0123c-3.2018,3.8271-7.4894,0.6633-11.6116-0.3846
		c-5.1995-1.3215-8.0072-4.4163-10.2558-8.7065c-1.5756-3.0066-4.2799-3.598-7.2411-2.8408
		c-4.6036,1.1788-1.9231,14.5786-1.0527,17.8892c5.5793,21.2274,30.371,35.0826,51.5696,30.7275
		c23.5085-4.8295,36.8516-35.2701,39.8758-56.7258C711.2763,1263.9877,702.5351,1243.0848,684.6116,1230.1143z M459.0362,1300.5402
		c0.8642-2.7427,3.667-2.9731,6.3253-2.8759c11.8675,0.4337,23.5089-0.1486,34.9398-3.9656
		c-3.8172,11.4307-4.3994,23.0723-3.9657,34.9396c0.0973,2.6586-0.1333,5.4612-2.8759,6.3254
		c-3.1283,0.9858-3.8089-2.0077-5.243-4.0939c-3.5546-5.1711-6.5953-10.2988-7.6089-16.7585
		c-0.0311-0.1984-0.0679-0.4017-0.1104-0.6089c-0.2073-0.0425-0.4107-0.0792-0.6088-0.1104
		c-6.4599-1.0135-11.5875-4.0543-16.7586-7.609C461.0437,1304.349,458.0502,1303.6683,459.0362,1300.5402z M224.0585,1143.7891
		c0.2243-2.5553,4.9447-2.6903,7.7794-3.3958c2.0816-0.5181,4.3962-0.1016,6.6067-0.1016
		c14.1047,1.6658,28.8505,2.3375,40.3374,11.6727c8.2399,6.6965,14.8346,15.2889,13.1741,27.4707
		c-0.7984,5.8577,2.9759,6.8448,8.0954,6.7511c12.7674-0.2338,20.3266-8.3268,27.4896-17.2479
		c1.4316-1.7828,2.286-9.1377,6.1093-6.3749c0.9975,0.7209,1.522,1.9116,2.0021,3.0449c2.7194,6.4199,5.4576,12.9153,7.5588,19.5405
		c2.0289,6.3981,5.6033,12.2433,7.3226,18.8416c2.2956,8.8108,0.3849,16.2122-0.8683,24.9205
		c-1.2346,8.5771-2.1304,17.1985-3.3097,25.783c-1.962,14.2817-4.3104,28.5498,2.6843,42.1194
		c2.3037,4.4692,0.2234,5.0223-3.2104,4.7072c-12.0684-1.108-21.8885-6.4297-29.2738-16.1163
		c-11.7055-15.3534-14.11-36.2104-7.3235-54.1896c0.7294-1.9326,1.5769-3.9365,1.3221-5.9863
		c-0.7678-6.1816-9.0638-3.5164-12.112-1.0221c-8.0172,6.5609-16.339,7.9012-26.7236,5.7015
		c-10.6009-2.2455-16.0126-7.7125-19.1341-17.4185c-3.1021-9.6464,2.9552-15.6903,8.3174-21.2942
		c9.3295-9.7501,8.8729-8.7952,1.5209-20.7216c-7.5427-12.2351-18.9956-17.637-31.3353-22.3512
		C228.2992,1147.0569,223.768,1147.0939,224.0585,1143.7891z M590.0094,1443.4661c6.5984,1.7192,12.4436,5.2937,18.8417,7.3226
		c6.6252,2.1011,13.1205,4.8395,19.5404,7.5588c1.1335,0.4801,2.3242,1.0046,3.0449,2.0022
		c2.7629,3.8231-4.5919,4.6776-6.3748,6.1091c-8.921,7.1631-17.0142,14.7225-17.2478,27.4897
		c-0.0939,5.1194,0.8934,8.8938,6.751,8.0955c12.1816-1.6606,20.7741,4.9341,27.4706,13.174
		c9.3352,11.4868,10.0069,26.2327,11.6726,40.3373c0,2.2107,0.4166,4.525-0.1014,6.6068c-0.7055,2.8347-0.8405,7.5551-3.3957,7.7794
		c-3.3048,0.2903-3.2678-4.2407-4.3332-7.0295c-4.7145-12.3398-10.1162-23.7927-22.3514-31.3353
		c-11.9263-7.3521-10.9713-7.8087-20.7214,1.5209c-5.6037,5.3622-11.6478,11.4196-21.2941,8.3174
		c-9.7062-3.1215-15.173-8.5332-17.4185-19.1339c-2.1998-10.3848-0.8594-18.7065,5.7015-26.7238
		c2.4942-3.0482,5.1595-11.3441-1.0221-12.1121c-2.05-0.2546-4.0538,0.5927-5.9863,1.3221
		c-17.9792,6.7865-38.8362,4.3821-54.1897-7.3236c-9.6866-7.3851-15.0081-17.2053-16.1162-29.2736
		c-0.3153-3.4338,0.238-5.514,4.7071-3.2103c13.5698,6.9946,27.8378,4.6462,42.1194,2.6843
		c8.5846-1.1793,17.2058-2.0752,25.783-3.3097C573.7972,1443.0811,581.1986,1441.1704,590.0094,1443.4661z M675.0344,1320.4971
		c-11.2626,7.9149-23.9662,10.7655-35.0526,2.1171c14.1158-1.1146,20.9496-4.2363,32.2166-14.3104
		c2.2107-1.9767,2.921-4.3218,2.1237-6.7567c-0.9-2.7485-1.455-5.9878-5.8807-5.9766c-7.0633,0.0177-6.5745-4.3512-4.5508-9.1481
		c3.1148-7.3843,5.1178-14.8718,0.626-22.3666c-7.3477-12.2599-19.093-22.4423-34.1252-21.8529
		c-15.0731,0.5908-29.6473,10.4778-37.3188,23.1569c-10.0195,16.5598-10.1149,43.6484-0.8817,60.6522
		c7.6744,14.1334,16.5946,27.4448,25.4838,40.8208c15.3926,23.1615,36.2147,42.0569,48.5065,67.9679
		c9.9172,20.9049,14.3777,42.8013,17.1086,64.6245c2.2012,17.5902,1.4266,35.2351-3.2661,52.3641
		c-4.674,17.0613-8.4357,34.1722-15.6437,50.4349c-2.8864,6.5118-5.7113,12.9097-10.2525,18.4626
		c-3.241,3.9633-6.2633,8.1127-8.9221,12.4902c-2.1262,3.5007-6.6633,9.2151-3.5428,13.267
		c2.486,3.2283,6.3099,2.4319,9.5706,1.2581c9.8275-3.5376,16.5443,2.2671,23.4233,7.5504
		c0.8303,0.6376,1.5425,2.1813,1.3955,3.1691c-0.2437,1.6376-1.7395,1.0443-2.9643,0.8817
		c-13.5103-1.7946-26.1517,1.7767-38.6229,6.3506c-11.9088,4.3677-23.3149,8.9764-35.7927,11.5645
		c-15.6202,3.2384-31.4355,3.9661-47.3434,3.7902c-17.5409-0.194-36.4446,0.2155-53.2643-5.3708
		c-1.5851-0.5264-3.152-1.1068-4.6971-1.7417c-27.2667-11.2063-53.9812-24.6416-72.8104-48.9889
		c-2.4648-3.1869-4.7027-7.2509-9.2422-6.4648c-5.5822,0.9666-5.3571,7.4708-6.5113,11.7426
		c-1.9708,7.2925-5.3438,13.8907-10.3279,19.5353c-2.1989,2.4901-8.5759,10.4662-12.5825,7.3428
		c-3.3917-2.644,2.4615-7.0583,3.5442-9.4481c1.8747-4.1383,1.9627-8.7582,2.1325-13.2115
		c0.1892-4.9607,0.6476-9.9161,0.764-14.8904c0.2528-10.7981-0.2698-21.6102-1.4987-32.3402
		c-1.4146-12.3502-4.1301-24.6925-4.0835-37.0302c0.0488-12.843,0.2273-25.7581,1.0739-38.6755
		c1.8184-27.7375,5.584-54.8284,13.7607-81.4503c5.7605-18.7554,12.7138-36.9469,20.9724-54.5753
		c-17.6284,8.2587-35.8199,15.212-54.5753,20.9725c-26.6219,8.1768-53.7127,11.9424-81.4503,13.7606
		c-12.9174,0.8468-25.8322,1.0253-38.6754,1.0739c-12.3376,0.0466-24.6799-2.6688-37.0303-4.0833
		c-10.7298-1.2289-21.5421-1.7515-32.34-1.4988c-4.9743,0.1163-9.9298,0.5747-14.8906,0.7639
		c-4.4532,0.1698-9.0732,0.2578-13.2116,2.1326c-2.3897,1.0826-6.8039,6.9359-9.448,3.5443
		c-3.1235-4.0067,4.8526-10.3837,7.3428-12.5825c5.6445-4.9841,12.2426-8.3572,19.5352-10.3279
		c4.2716-1.1542,10.7759-0.9292,11.7427-6.5114c0.7858-4.5393-3.2781-6.7773-6.4649-9.2421
		c-24.3474-18.8295-37.7826-45.5439-48.989-72.8105c-0.6347-1.5449-1.2152-3.1119-1.7417-4.697
		c-5.5861-16.8197-5.1768-35.7234-5.3708-53.2643c-0.1759-15.908,0.5518-31.7233,3.7902-47.3435
		c2.5881-12.4777,7.1967-23.8839,11.5644-35.7927c4.5739-12.4711,8.1452-25.1125,6.3508-38.6228
		c-0.1629-1.2249-0.756-2.7207,0.8814-2.9644c0.9879-0.1469,2.5317,0.5653,3.1692,1.3955
		c5.2832,6.879,11.088,13.5959,7.5503,23.4233c-1.1738,3.2607-1.9701,7.0846,1.2581,9.5707
		c4.0519,3.1202,9.7663-1.4166,13.2669-3.543c4.3777-2.6588,8.5271-5.681,12.4902-8.922
		c5.553-4.5411,11.9509-7.3662,18.4626-10.2524c16.263-7.2083,33.3738-10.9697,50.435-15.6439
		c17.1292-4.6926,34.7739-5.4672,52.3642-3.266c21.8232,2.7308,43.7195,7.1914,64.6245,17.1085
		c25.911,12.292,44.8062,33.114,67.9679,48.5066c13.3759,8.8894,26.6875,17.8094,40.8207,25.484
		c17.0037,9.233,44.0925,9.1379,60.6523-0.8818c12.6792-7.6715,22.5661-22.2457,23.157-37.3188
		c0.5892-15.0322-9.5931-26.7775-21.853-34.1252c-7.4949-4.4917-14.9825-2.4886-22.3667,0.6262
		c-4.7968,2.0234-9.1657,2.5123-9.1479-4.5509c0.0111-4.4257-3.2282-4.9808-5.9765-5.8809
		c-2.4352-0.7972-4.7803-0.087-6.7569,2.1237c-10.0742,11.267-13.1959,18.1008-14.3103,32.2167
		c-8.6486-11.0864-5.798-23.79,2.1169-35.0527c11.2278-15.9767,36.0945-20.2307,53.7321-14.5135
		c11.2491,3.6465,19.3494,10.9425,26.4351,20.1031c15.4127,19.926,9.7698,50.7825-4.185,68.0338
		c-21.3051,26.3379-57.6688,34.0402-87.3772,18.8777c-5.5058-2.8101-11.2299-5.2119-16.9386-7.5983
		c-3.5703-1.4926-7.9889-2.3334-10.6675,0.3745c-2.2567,2.281,0.2726,5.8741,1.5377,8.7122
		c0.2548,0.5717,0.6835,1.0638,0.9618,1.6272c1.7317,3.5061,4.6566,7.5317,3.0536,10.9592
		c-2.0326,4.3457-16.1321-0.2914-19.8526-1.3582c-7.1271-2.0435-13.9756-5.0514-20.3143-8.896
		c-11.9391-7.2415-20.6393-17.5657-29.4397-28.1665c-14.243-17.1569-25.6469-37.1454-44.8259-50.1471
		c-4.1738-2.8295-7.0334-2.2073-9.9949,0.0297c-3.2029,2.4194-1.9893,5.6959-0.3704,8.8958
		c3.6713,7.2572,4.0796,14.0239-2.7252,20.1794c-4.2725,3.8647-7.6261,3.694-8.8503-1.7384
		c-3.1596-14.0209-15.7308-25.7877-28.7262-30.9434c-6.4137-2.5446-13.3611-3.718-20.2546-3.4705
		c-6.5091,0.2338-12.9936,0.4156-19.5193,0.8354c-14.4131,0.9271-28.6715,3.7307-42.4048,8.1882
		c-13.8877,4.5076-25.5282,12.285-38.1624,18.6195c-1.6344,0.8193-2.953,2.3262-4.3086,3.6282
		c-1.5836,1.5208-3.4202,3.0782-2.5789,5.6432c1.2919,3.9375,10.2921,1.8223,13.1439,1.0406
		c3.3088-0.907,6.0736-2.9866,9.3243-3.8683c6.1901-1.6791,11.518,1.2948,15.3901,5.9869c3.0015,3.6376,2.8709,6.4637-2.8753,6.3522
		c-26.2581-0.5098-39.2611,16.1799-48.5298,37.5366c-7.8669,18.1267-10.1937,36.9386-5.6327,56.2922
		c2.4367,10.3397,7.1767,20.0621,8.2678,30.8124c0.2023,1.9935,1.8919,3.8801,3.0434,5.7236
		c2.0173,3.2301,5.6919,3.9492,8.6994,3.5436c2.624-0.354,2.7648-3.7557,2.6259-6.3844
		c-1.0382-19.6492,4.2446-37.3949,15.8784-53.2992c5.5898-7.6421,13.5327-12.6267,20.6992-18.424
		c3.0434-2.4619,3.1744,1.1499,3.3242,3.281c0.2741,3.8973-3.5633,5.6532-4.6716,8.9454c-1.0813,3.2122-1.4249,5.726,0.7873,8.7169
		c2.7832,3.7625,6.2872,1.6011,8.309,0.5522c22.8751-11.8668,42.8322-4.3151,60.787,10.0322
		c16.0405,12.8174,17.0449,47.2911,3.0721,61.5068c-0.845,0.8599-2.6995,2.1508-2.948,1.9347
		c-1.2703-1.1051-0.9746-2.7245-0.3647-4.1897c6.5418-15.7156-1.5314-39.0338-16.6884-47.5222
		c-1.4386-0.8055-3.5746-3.0497-5.6495-0.3625c-2.2133,2.8671-2.4143,3.2046-1.51,6.6719c0.6624,2.5396,1.1028,5.1598,1.2396,7.7821
		c0.2352,4.5048-0.2809,10.4005-4.6429,12.922c-1.8728-3.5532-3.6162-7.182-5.6421-10.6459
		c-4.8336-8.2654-13.6089-9.0911-21.3346-8.8201c-10.9819,0.3851-21.0361,9.0482-27.5225,17.1827
		c-7.5795,9.505-6.3811,24.8118-2.8254,35.7965c6.7946,20.9916,23.9215,37.9037,44.0912,46.2489
		c14.6709,6.0701,31.2049,8.1537,46.9843,9.5994c37.7341,3.4567,75.1526-1.3481,112.0878-8.9108
		c2.2009-0.4507,5.5693-1.0703,5.5737-3.8402c0.0048-2.9883-3.2592-2.9061-5.6445-3.7419
		c-10.727-3.7584-22.2497-5.9143-30.7632-14.4567c-2.691-2.7001-3.4248-3.6907,1.7861-4.3958
		c4.4205-0.5983,8.9378,0.2523,13.2495,1.1851c8.8801,1.921,16.7956,1.7826,25.7762,1.0499
		c17.5561-1.4342,34.6306-6.0918,51.1519-12.0458c5.9832-2.1563,12.1366-4.3254,18.2572-6.6608
		c-2.3354,6.1207-4.5046,12.2738-6.6609,18.2572c-5.9539,16.5212-10.6115,33.5957-12.0456,51.152
		c-0.7329,8.9806-0.8712,16.8961,1.05,25.7762c0.9326,4.3115,1.7831,8.8289,1.1849,13.2494
		c-0.705,5.2109-1.6958,4.4772-4.3957,1.7861c-8.5424-8.5133-10.6984-20.0364-14.4566-30.7631
		c-0.8359-2.3854-0.7536-5.6494-3.7421-5.6447c-2.7697,0.0045-3.3896,3.3728-3.8401,5.5739
		c-7.5627,36.9351-12.3674,74.3536-8.9108,112.0878c1.4456,15.7793,3.5291,32.3135,9.5993,46.9843
		c8.3453,20.1697,25.2574,37.2966,46.2488,44.0913c10.9847,3.5557,26.2916,4.7539,35.7966-2.8254
		c8.1345-6.4866,16.7975-16.5406,17.1829-27.5226c0.2709-7.7256-0.5548-16.5009-8.8202-21.3346
		c-3.4638-2.0258-7.0927-3.7692-10.6459-5.6421c2.5214-4.3618,8.4172-4.8779,12.922-4.6428
		c2.6222,0.1368,5.2425,0.5774,7.782,1.2396c3.4675,0.9043,3.805,0.7034,6.672-1.5101c2.6871-2.0747,0.4431-4.2107-0.3625-5.6493
		c-8.4884-15.1571-31.8065-23.2301-47.5224-16.6885c-1.4651,0.6099-3.0845,0.9055-4.1895-0.3649
		c-0.216-0.2484,1.0748-2.1028,1.9346-2.9479c14.2158-13.9727,48.6895-12.9684,61.5069,3.072
		c14.3473,17.955,21.8992,37.9121,10.0322,60.7871c-1.0486,2.0217-3.2101,5.5258,0.5524,8.3088
		c2.9909,2.2124,5.5047,1.8687,8.7168,0.7874c3.2922-1.1082,5.0481-4.9457,8.9456-4.6715c2.131,0.1499,5.7427,0.2809,3.2809,3.3242
		c-5.7973,7.1665-10.7818,15.1093-18.4238,20.6993c-15.9044,11.6338-33.6501,16.9166-53.2992,15.8783
		c-2.629-0.1389-6.0305,0.0021-6.3846,2.6259c-0.4056,3.0074,0.3135,6.6821,3.5435,8.6995
		c1.8436,1.1514,3.7303,2.8411,5.7237,3.0435c10.7502,1.0911,20.4726,5.8309,30.8123,8.2677
		c19.3536,4.5609,38.1656,2.2341,56.2922-5.6327c21.3568-9.2687,38.0463-22.2716,37.5368-48.5299
		c-0.1117-5.7462,2.7144-5.8768,6.3519-2.8752c4.6923,3.8719,7.6661,9.2001,5.9869,15.3903
		c-0.8816,3.2505-2.9612,6.0154-3.8681,9.3242c-0.7817,2.8518-2.897,11.8518,1.0405,13.1437
		c2.565,0.8414,4.1225-0.9952,5.6432-2.5789c1.3021-1.3557,2.8091-2.6743,3.6282-4.3086
		c6.3345-12.6342,14.1119-24.2747,18.6196-38.1622c4.4574-13.7335,7.261-27.9919,8.1881-42.4048
		c0.4198-6.5259,0.6019-13.0104,0.8354-19.5194c0.2476-6.8936-0.9258-13.8408-3.4703-20.2546
		c-5.1556-12.9954-16.9225-25.5665-30.9435-28.7261c-5.4324-1.224-5.6031-4.5778-1.7384-8.8503
		c6.1555-6.8049,12.9222-6.3965,20.1794-2.7251c3.1999,1.6188,6.4764,2.8325,8.8958-0.3705
		c2.2371-2.9614,2.8591-5.821,0.0298-9.9948c-13.0019-19.1792-32.9904-30.583-50.1472-44.826
		c-10.6008-8.8004-20.9252-17.5005-28.1666-29.4397c-3.8446-6.3386-6.8525-13.1873-8.896-20.3142
		c-1.0667-3.7205-5.7039-17.8199-1.358-19.8525c3.4274-1.6031,7.453,1.3217,10.959,3.0535
		c0.5635,0.2783,1.0556,0.7069,1.6272,0.9618c2.838,1.265,6.4312,3.7943,8.7122,1.5378c2.708-2.6788,1.8671-7.0974,0.3745-10.6678
		c-2.3865-5.7086-4.7881-11.4326-7.5983-16.9385c-15.1625-29.7084-7.4602-66.072,18.8778-87.3772
		c17.2513-13.9547,48.1076-19.5975,68.0339-4.1849c9.1605,7.0857,16.4565,15.1859,20.103,26.4352
		C695.2652,1284.4027,691.0112,1309.2694,675.0344,1320.4971z"/>
	<path d="M1085.8141,1285.9137c3.0242,21.4557,16.3673,51.8964,39.8757,56.7258c21.1987,4.3551,45.9904-9.5001,51.5697-30.7275
		c0.8704-3.3105,3.5509-16.7103-1.0527-17.8892c-2.9613-0.7572-5.6656-0.1658-7.2412,2.8408
		c-2.2485,4.2903-5.0563,7.385-10.2557,8.7065c-4.1222,1.048-8.4098,4.2118-11.6116,0.3846
		c-0.8958-1.0708,3.9868-5.1986,7.3831-7.0123c3.1296-1.6714,4.5885-5.2284,4.4824-8.7515
		c-0.0906-3.0038-2.5968-4.2981-5.3967-3.9363c-8.1926,1.059-9.1923-6.032-10.7253-10.7018
		c-1.5175-4.6228,0.9221-9.7458,5.0479-13.1066c9.1572-7.4592,26.0724-6.4189,34.9178,2.8107
		c9.9199,10.3506,13.7844,22.0192,11.1389,37.272c-3.6051,20.786-12.1234,37.5425-26.575,52.9385
		c-10.6105,11.3409-21.6033,22.3452-31.4442,34.3795c-10.1188,12.3738-18.0837,25.7772-24.9574,40.1566
		c-15.0314,31.4454-21.9054,69.4324-16.5552,104.0573c4.6469,30.073,13.3623,58.3342,28.5488,84.597
		c1.5524,2.6848,4.9707,6.8768,4.5233,10.2482c-0.4028,3.0345-4.1587,4.91-6.4197,6.4072
		c-8.9005,5.894-16.2393,14.9304-19.4365,25.2234c-2.1885,7.0464-2.5308,14.6469-1.0541,21.8721
		c0.967,4.7306,2.5073,11.826,8.536,11.5491c5.3018-0.2437,8.4022-2.8055,8.2709-8.1111
		c-0.1736-7.0186,4.8534-9.6804,9.9437-10.5162c5.3464-0.8777,10.9211-0.4585,16.6355,1.1584
		c8.5023,2.4056,14.9962,8.7598,23.198,10.8684c19.3932,4.986,39.1658,8.3495,59.2002,9.2551
		c18.1318,0.8187,37.6147,0.6227,55.3807-3.4111c17.7356-4.0269,34.7759-10.2029,51.2274-17.9539
		c15.0197-7.0764,27.2371-18.2162,41.0215-27.0656c4.514-2.8979,5.3593-3.4583,7.7198,2.5907
		c7.7017,19.7366,36.774,26.7286,49.7744,8.8734c3.3292-4.5724,6.7274-9.4775-0.8887-14.2201
		c-9.3787-5.8397-10.0216-14.0363-9.9868-24.3374c0.0372-11.0281,1.9362-21.923,3.5245-32.8027
		c2.189-14.9919,3.3059-30.0927,3.8801-45.2271c0.5977-15.7496-1.3322-31.4344-2.5385-47.1091
		c-2.4785-32.2094-9.974-62.6268-21.8262-92.3007c29.6738,11.8522,60.0913,19.3477,92.3005,21.8263
		c15.6748,1.2063,31.3595,3.136,47.1093,2.5385c15.1342-0.5742,30.2351-1.6912,45.2269-3.8801
		c10.8798-1.5886,21.7747-3.4874,32.8027-3.5247c10.3013-0.0349,18.4976,0.6082,24.3374,9.9868
		c4.7426,7.6163,9.6478,4.2179,14.2201,0.8887c17.8553-13.0004,10.8633-42.0729-8.8733-49.7744
		c-6.0491-2.3605-5.4885-3.2057-2.5909-7.7196c8.8495-13.7845,19.9894-26.0018,27.0658-41.0217
		c7.7509-16.4515,13.927-33.4918,17.9539-51.2273c4.0337-17.7661,4.2299-37.249,3.4109-55.3809
		c-0.9053-20.0343-4.2689-39.8069-9.255-59.2c-2.1085-8.2019-8.4626-14.6958-10.8684-23.1982
		c-1.6169-5.7144-2.0359-11.2891-1.1584-16.6355c0.8359-5.0902,3.4978-10.1172,10.5165-9.9436
		c5.3054,0.1313,7.8673-2.9692,8.1107-8.271c0.2772-6.0288-6.8182-7.569-11.5488-8.5359
		c-7.2251-1.4768-14.8257-1.1345-21.8721,1.0541c-10.293,3.1971-19.3293,10.5359-25.2234,19.4365
		c-1.4971,2.261-3.3727,6.0168-6.4071,6.4196c-3.3716,0.4475-7.5635-2.9707-10.2482-4.5232
		c-26.2629-15.1866-54.5242-23.902-84.5973-28.5488c-34.6248-5.3502-72.6117,1.5238-104.0573,16.5552
		c-14.3795,6.8737-27.7827,14.8385-40.1566,24.9572c-12.0342,9.8411-23.0383,20.8339-34.3795,31.4443
		c-15.396,14.4517-32.1523,22.9698-52.9385,26.575c-15.2528,2.6455-26.9213-1.2188-37.272-11.1388
		c-9.2295-8.8456-10.2699-25.7606-2.8105-34.918c3.3607-4.1257,8.4838-6.5653,13.1066-5.0477
		c4.6697,1.533,11.7606,2.5326,10.7017,10.7255c-0.3618,2.7999,0.9326,5.3059,3.9364,5.3965
		c3.5229,0.1062,7.08-1.3528,8.7513-4.4823c1.8137-3.3962,5.9414-8.2789,7.0123-7.3831c3.8274,3.2017,0.6635,7.4893-0.3845,11.6116
		c-1.3215,5.1993-4.4163,8.0072-8.7065,10.2557c-3.0066,1.5757-3.598,4.2799-2.8408,7.2411
		c1.1788,4.6036,14.5785,1.9231,17.8892,1.0529c21.2273-5.5795,35.0828-30.371,30.7275-51.5698
		c-4.8295-23.5083-35.2701-36.8516-56.7261-39.8756c-21.9259-3.0903-42.8287,5.6508-55.7992,23.5742
		c-6.8083,9.408-10.5195,20.6442-12.2249,32.0479c-3.1853,21.299,1.6791,40.5579,15.1887,57.2324
		c10.8467,13.3879,24.0371,24.553,40.5939,29.9939c17.8088,5.8527,40.0447,5.4017,56.5088-4.2517
		c1.9181-1.1246,4.5757-1.4983,6.2196,0.051c1.994,1.8795,1.6998,5.2234,0.6666,7.1436c-4.2102,7.8236,1.6381,10.646,6.6241,10.7085
		c23.3069,0.2919,46.0306-2.1643,64.0381-19.691c5.1484-5.0111,10.7825-9.5212,16.147-14.3137
		c1.7075-1.5255,3.8054-2.8281,5.7952-2.0815c0.7727,0.2898,0.9131,3.4645,0.621,5.2039
		c-2.4777,14.7474-0.3828,29.3638,2.2321,43.7257c1.7811,9.7831,4.6467,19.1526,1.6846,29.1608
		c-2.3972,8.1012-5.1107,15.1993-15.5095,15.8573c-2.0311,0.1284-7.4258-0.3058-7.3446,5.2329
		c0.0719,4.8862,3.6456,4.8777,6.8477,6.1389c30.155,11.877,64.7062,1.2614,79.1829-31.2595
		c4.7201-10.6039,8.0068-20.2015,6.8979-31.51c-0.4333-4.4218,0.1514-5.6904,6.1509-5.4106
		c13.4381,0.6268,26.1577-1.8407,36.4856-13.1888c8.9324-9.8153,11.187-19.8243,8.5498-31.9863
		c-1.3635-6.2883-6.4922-9.2587-10.9414-12.8036c-4.8003-3.825-6.3541-6.4288-0.7754-12.0591
		c14.9808-15.1196,33.4674-17.9446,53.2045-17.8915c1.4734,0.0039,3.641-0.3291,3.6665,1.754
		c0.0156,1.2803-1.1652,2.9282-2.2823,3.8138c-9.0535,7.1766-9.559,17.0011-8.5618,27.2454
		c0.6428,6.6028,4.7714,8.6385,10.4985,6.3477c16.2156-6.4865,32.1746-1.3375,40.5522,13.7944
		c8.205,14.8195,11.4388,31.1309,13.2249,47.7433c0.2461,2.2875,2.0494,6.4801-2.0826,6.9939
		c-2.7224,0.3385-2.7992-3.3016-3.847-5.5613c-11.3168-24.4045-31.0505-37.9987-56.986-43.0771
		c-6.105-1.1954-8.0381,2.5726-6.756,7.9808c0.7032,2.9673,2.5776,5.6576,3.275,8.6254c0.4895,2.083,0.2732,4.8813-3.3975,3.3521
		c-10.8317-4.5128-20.2175,1.9572-29.8043,4.6018c-17.5166,4.8323-30.9329,16.5577-37.9872,32.8743
		c-7.1949,16.6425-9.9502,34.8604-0.6741,52.1163c8.6807,16.1482,22.6193,25.1055,41.0363,26.7413
		c4.5708,0.406,9.5886,0.3055,11.2583-4.6166c1.3719-4.0446-3.2374-5.8065-5.6188-8.4634
		c-4.7544-5.304-9.0032-11.0876-13.1737-16.8799c-2.9602-4.1111-2.3407-9.2648,1.0277-11.946
		c2.6554-2.1135,4.5593,2.8279,6.7128,4.6405c6.6049,5.5591,14.386,6.8435,22.6018,6.9059c5.3268,0.0405,6.03-3.4476,5.1595-7.4181
		c-1.3365-6.0977-2.874-12.3536,5.2554-14.4918c7.0101-1.844,11.3314,3.2059,15.1699,7.9478
		c7.9233,9.7877,5.6664,20.421,1.5786,30.8003c-10.3527,26.2877-39.3452,35.4214-65.0021,38.7559
		c-23.5709,3.0632-48.0721,2.3782-71.8005,1.1508c-2.0131-0.1041-4.0911-0.2354-5.8918-1.1412
		c-8.4565-4.2548,2.8752-12.6846,5.2937-16.818c2.6475-4.5253,4.3955-9.582,5.0464-14.7871
		c0.6593-5.2712-1.2688-9.4353-7.1095-7.4745c-14.1484,4.7498-28.9761,9.4728-44.1726,9.7839
		c-15.3727,0.3149-31.0673-3.5457-45.606-8.2208c-13.6238-4.381-26.917-10.1144-40.283-15.2329
		c-4.5105-1.7274,0.55-3.9033,2.1182-5.7491c7.2152-8.4916,14.7218-16.7667,17.1873-28.1411
		c1.6176-7.4626-2.1295-11.7145-8.818-8.9077c-26.4058,11.0804-48.3156,0.05-71.3402-11.6134
		c-7.1193-3.6064-13.708-7.8091-19.9513-12.3928c4.5836,6.2433,8.7865,12.8322,12.3928,19.9514
		c11.6633,23.0245,22.694,44.9346,11.6134,71.3401c-2.8069,6.6887,1.4452,10.4357,8.9077,8.818
		c11.3743-2.4655,19.6495-9.972,28.1411-17.1871c1.8458-1.5684,4.0217-6.6285,5.749-2.1183
		c5.1187,13.3658,10.8522,26.6592,15.233,40.283c4.675,14.5387,8.5356,30.2334,8.2208,45.606
		c-0.3112,15.1967-5.0342,30.0243-9.7839,44.1727c-1.9608,5.8407,2.2032,7.7688,7.4744,7.1095
		c5.2051-0.651,10.2618-2.399,14.7871-5.0465c4.1335-2.4182,12.5634-13.7502,16.818-5.2935
		c0.906,1.8005,1.0371,3.8785,1.1414,5.8916c1.2274,23.7284,1.9125,48.2295-1.1508,71.8007
		c-3.3345,25.6569-12.4681,54.6494-38.7559,65.0021c-10.3795,4.0876-21.0126,6.3446-30.8004-1.5789
		c-4.7417-3.8385-9.7915-8.1597-7.9478-15.1698c2.1383-8.1292,8.3943-6.5919,14.4919-5.2552
		c3.9702,0.8704,7.4585,0.1672,7.418-5.1598c-0.0623-8.2156-1.3468-15.9967-6.9059-22.6016
		c-1.8125-2.1537-6.754-4.0575-4.6405-6.7128c2.6813-3.3685,7.835-3.9878,11.9462-1.0277
		c5.7921,4.1705,11.5759,8.4192,16.8798,13.1737c2.6569,2.3815,4.4188,6.9906,8.4634,5.6187
		c4.9222-1.6697,5.0228-6.6874,4.6167-11.2583c-1.6359-18.4169-10.5933-32.3556-26.7412-41.0361
		c-17.2561-9.2762-35.4742-6.5211-52.1165,0.6741c-16.3165,7.0543-28.0421,20.4705-32.8744,37.9871
		c-2.6447,9.5869-9.1145,18.9727-4.6017,29.8044c1.5294,3.6708-1.2692,3.8868-3.3521,3.3973
		c-2.9678-0.6974-5.658-2.5717-8.6254-3.2751c-5.4082-1.282-9.1764,0.6511-7.9811,6.7562
		c5.0786,25.9354,18.6727,45.6691,43.0773,56.9858c2.2596,1.0477,5.8998,1.1248,5.5615,3.8472
		c-0.5139,4.132-4.7067,2.3286-6.994,2.0826c-16.6125-1.7863-32.9238-5.0199-47.7434-13.2247
		c-15.1318-8.3779-20.2809-24.3368-13.7944-40.5525c2.291-5.7271,0.2551-9.8557-6.3475-10.4985
		c-10.2443-0.9972-20.0686-0.4916-27.2454,8.5619c-0.8855,1.1171-2.5336,2.298-3.814,2.2823
		c-2.0831-0.0255-1.7499-2.1931-1.754-3.6666c-0.0532-19.7371,2.7717-38.2235,17.8916-53.2045
		c5.6304-5.5786,8.234-4.0249,12.0588,0.7755c3.5453,4.4491,6.5155,9.5779,12.8038,10.9413
		c12.162,2.6372,22.1709,0.3826,31.9861-8.5498c11.3484-10.3278,13.8158-23.0475,13.189-36.4855
		c-0.2798-5.9998,0.989-6.5844,5.4106-6.1509c11.3085,1.1089,20.9063-2.1779,31.5101-6.8982
		c32.5208-14.4764,43.1365-49.0277,31.2596-79.1826c-1.2614-3.2021-1.2529-6.7758-6.1392-6.8477
		c-5.5387-0.0814-5.1045,5.3135-5.2329,7.3445c-0.6578,10.3989-7.756,13.1122-15.8572,15.5098
		c-10.0082,2.9619-19.3777,0.0963-29.1608-1.6848c-14.3619-2.6147-28.9783-4.7097-43.7258-2.2321
		c-1.7393,0.2922-4.9139,0.1517-5.2037-0.6208c-0.7467-1.9899,0.556-4.0878,2.0815-5.7953
		c4.7925-5.3644,9.3025-10.9984,14.3136-16.147c17.5267-18.0076,19.983-40.7312,19.691-64.0381
		c-0.0625-4.9861-2.8849-10.8341-10.7084-6.6241c-1.92,1.0333-5.2642,1.3274-7.1437-0.6667
		c-1.5492-1.6437-1.1755-4.3013-0.0509-6.2192c9.6532-16.4641,10.1041-38.7,4.2517-56.509
		c-5.441-16.5565-16.6061-29.7472-29.994-40.594c-16.6746-13.5096-35.9333-18.3738-57.2324-15.1885
		c-11.4037,1.7054-22.6398,5.4166-32.0479,12.2247C1091.4648,1243.0848,1082.7238,1263.9877,1085.8141,1285.9137z
		 M1330.8699,1305.7831c-5.1711,3.5547-10.2986,6.5955-16.7585,7.609c-0.1981,0.0311-0.4015,0.0679-0.6088,0.1104
		c-0.0425,0.2072-0.0793,0.4105-0.1105,0.6089c-1.0135,6.4597-4.0543,11.5874-7.6089,16.7585
		c-1.434,2.0862-2.1146,5.0797-5.2429,4.0939c-2.7427-0.8643-2.9733-3.6669-2.876-6.3254
		c0.4338-11.8673-0.1484-23.5089-3.9656-34.9396c11.4308,3.817,23.0723,4.3993,34.9398,3.9656
		c2.6583-0.0973,5.4611,0.1332,6.3253,2.8759C1335.9497,1303.6683,1332.9563,1304.349,1330.8699,1305.7831z M1562.912,1148.1223
		c-12.3397,4.7142-23.7926,10.1161-31.3353,22.3512c-7.3519,11.9264-7.8086,10.9714,1.5209,20.7216
		c5.3623,5.6039,11.4197,11.6478,8.3175,21.2942c-3.1216,9.7059-8.5332,15.173-19.1342,17.4185
		c-10.3846,2.1997-18.7064,0.8594-26.7236-5.7015c-3.0481-2.4943-11.3442-5.1595-12.1119,1.0221
		c-0.2548,2.0498,0.5927,4.0537,1.3221,5.9863c6.7865,17.9791,4.382,38.8362-7.3235,54.1896
		c-7.3853,9.6866-17.2053,15.0083-29.2738,16.1163c-3.4337,0.3152-5.514-0.2379-3.2103-4.7072
		c6.9946-13.5696,4.6464-27.8376,2.6843-42.1194c-1.1793-8.5845-2.0751-17.2058-3.3097-25.783
		c-1.2533-8.7084-3.1639-16.1097-0.8683-24.9205c1.7192-6.5983,5.2936-12.4435,7.3225-18.8416
		c2.1012-6.6252,4.8395-13.1206,7.5588-19.5405c0.4801-1.1333,1.0046-2.324,2.0021-3.0449c3.8234-2.7628,4.6777,4.592,6.1094,6.3749
		c7.163,8.9211,14.7223,17.0142,27.4896,17.2479c5.1195,0.0938,8.8938-0.8934,8.0953-6.7511
		c-1.6604-12.1818,4.9342-20.7742,13.1742-27.4707c11.4868-9.3352,26.2325-10.007,40.3373-11.6727
		c2.2106,0,4.5251-0.4165,6.6067,0.1016c2.8347,0.7054,7.5552,0.8405,7.7794,3.3958
		C1570.2321,1147.0939,1565.7008,1147.0569,1562.912,1148.1223z M1228.9111,1444.3345c8.5771,1.2345,17.1984,2.1304,25.783,3.3097
		c14.2815,1.9619,28.5496,4.3103,42.1194-2.6843c4.4691-2.3037,5.0223-0.2235,4.707,3.2103
		c-1.108,12.0682-6.4296,21.8884-16.1162,29.2736c-15.3535,11.7057-36.2106,14.1101-54.1897,7.3236
		c-1.9325-0.7295-3.9363-1.5768-5.9863-1.3221c-6.1816,0.7679-3.5164,9.0638-1.0221,12.1121
		c6.5609,8.0172,7.9014,16.339,5.7015,26.7238c-2.2456,10.6007-7.7124,16.0125-17.4186,19.1339
		c-9.6462,3.1022-15.6903-2.9552-21.2941-8.3174c-9.7501-9.3296-8.7952-8.8729-20.7214-1.5209
		c-12.2352,7.5426-17.6368,18.9955-22.3513,31.3353c-1.0654,2.7888-1.0284,7.3198-4.3333,7.0295
		c-2.5552-0.2244-2.6902-4.9447-3.3956-7.7794c-0.5181-2.0818-0.1016-4.3961-0.1016-6.6068
		c1.6658-14.1046,2.3375-28.8505,11.6726-40.3373c6.6967-8.2399,15.2891-14.8346,27.4707-13.174
		c5.8577,0.7983,6.8448-2.9761,6.751-8.0955c-0.2335-12.7672-8.3268-20.3267-17.2478-27.4897
		c-1.7828-1.4315-9.1376-2.286-6.3748-6.1091c0.7207-0.9976,1.9114-1.5221,3.0449-2.0022
		c6.4198-2.7194,12.9152-5.4578,19.5404-7.5588c6.3981-2.0289,12.2433-5.6034,18.8417-7.3226
		C1212.8014,1441.1704,1220.2028,1443.0811,1228.9111,1444.3345z M1104.4519,1266.7651
		c3.6465-11.2493,10.9426-19.3495,20.1031-26.4352c19.9261-15.4126,50.7825-9.7698,68.0338,4.1849
		c26.338,21.3052,34.0403,57.6688,18.8778,87.3772c-2.8102,5.5059-5.2118,11.2299-7.5983,16.9385
		c-1.4926,3.5704-2.3335,7.989,0.3745,10.6678c2.281,2.2565,5.8741-0.2728,8.7122-1.5378c0.5717-0.2549,1.0637-0.6835,1.6272-0.9618
		c3.5061-1.7318,7.5316-4.6566,10.9591-3.0535c4.3458,2.0326-0.2914,16.1321-1.358,19.8525
		c-2.0436,7.127-5.0514,13.9756-8.896,20.3142c-7.2413,11.9392-17.5657,20.6393-28.1666,29.4397
		c-17.1567,14.243-37.1453,25.6469-50.1472,44.826c-2.8292,4.1737-2.2072,7.0333,0.0299,9.9948
		c2.4193,3.203,5.6958,1.9893,8.8958,0.3705c7.2572-3.6714,14.0239-4.0798,20.1794,2.7251c3.8646,4.2726,3.694,7.6263-1.7384,8.8503
		c-14.021,3.1595-25.7878,15.7307-30.9435,28.7261c-2.5444,6.4138-3.7179,13.3611-3.4703,20.2546
		c0.2336,6.509,0.4156,12.9935,0.8354,19.5194c0.9271,14.4128,3.7308,28.6713,8.1881,42.4048
		c4.5077,13.8876,12.2852,25.5281,18.6196,38.1622c0.8191,1.6343,2.326,2.9529,3.6282,4.3086
		c1.5208,1.5836,3.0782,3.4203,5.6432,2.5789c3.9376-1.2919,1.8223-10.2919,1.0405-13.1437
		c-0.9069-3.3088-2.9865-6.0737-3.8682-9.3242c-1.6792-6.1902,1.2947-11.5183,5.9871-15.3903
		c3.6376-3.0016,6.4635-2.871,6.3518,2.8752c-0.5095,26.2583,16.1801,39.2612,37.5369,48.5299
		c18.1266,7.8668,36.9386,10.1936,56.2922,5.6327c10.3398-2.4368,20.0621-7.1766,30.8124-8.2677
		c1.9934-0.2024,3.8801-1.8921,5.7236-3.0435c3.23-2.0173,3.9492-5.692,3.5436-8.6995c-0.3541-2.6238-3.7556-2.7648-6.3846-2.6259
		c-19.649,1.0383-37.3948-4.2445-53.2992-15.8783c-7.642-5.5901-12.6265-13.5328-18.4238-20.6993
		c-2.4617-3.0433,1.1499-3.1743,3.281-3.3242c3.8975-0.2742,5.6533,3.5634,8.9456,4.6715c3.2122,1.0813,5.726,1.425,8.7168-0.7874
		c3.7626-2.7831,1.6011-6.2871,0.5524-8.3088c-11.8671-22.875-4.3152-42.8322,10.0321-60.7871
		c12.8175-16.0404,47.2911-17.0447,61.507-3.072c0.8599,0.8451,2.1506,2.6995,1.9346,2.9479
		c-1.105,1.2704-2.7244,0.9747-4.1895,0.3649c-15.7158-6.5416-39.0341,1.5314-47.5223,16.6885
		c-0.8057,1.4386-3.0497,3.5746-0.3625,5.6493c2.8669,2.2135,3.2045,2.4144,6.672,1.5101c2.5394-0.6622,5.1597-1.1028,7.782-1.2396
		c4.5048-0.2351,10.4005,0.281,12.922,4.6428c-3.5533,1.8729-7.1821,3.6163-10.646,5.6421
		c-8.2654,4.8337-9.0911,13.609-8.8202,21.3346c0.3854,10.9819,9.0483,21.036,17.183,27.5226
		c9.5049,7.5793,24.8118,6.3811,35.7966,2.8254c20.9913-6.7947,37.9034-23.9216,46.2488-44.0913
		c6.0701-14.6708,8.1537-31.205,9.5992-46.9843c3.4565-37.7341-1.348-75.1527-8.9108-112.0878
		c-0.4506-2.201-1.0704-5.5693-3.8401-5.5739c-2.9885-0.0048-2.9061,3.2593-3.7421,5.6447
		c-3.7582,10.7267-5.9143,22.2498-14.4567,30.7631c-2.7,2.691-3.6907,3.4248-4.3958-1.7861
		c-0.598-4.4205,0.2524-8.9379,1.1851-13.2494c1.921-8.8801,1.7828-16.7957,1.0499-25.7762
		c-1.4341-17.5563-6.0918-34.6307-12.0457-51.152c-2.1563-5.9834-4.3253-12.1365-6.6609-18.2572
		c6.1207,2.3353,12.274,4.5045,18.2573,6.6608c16.5212,5.954,33.5957,10.6116,51.1519,12.0458
		c8.9806,0.7327,16.8961,0.8711,25.7762-1.0499c4.3116-0.9327,8.8289-1.7833,13.2494-1.1851
		c5.2109,0.7051,4.4772,1.6957,1.7861,4.3958c-8.5134,8.5424-20.0361,10.6982-30.7631,14.4567
		c-2.3854,0.8358-5.6493,0.7537-5.6445,3.7419c0.0044,2.7699,3.3728,3.3895,5.5737,3.8402
		c36.9352,7.5626,74.3538,12.3674,112.0878,8.9108c15.7794-1.4457,32.3135-3.5293,46.9844-9.5994
		c20.1697-8.3452,37.2966-25.2573,44.0912-46.2489c3.5557-10.9847,4.7542-26.2915-2.8254-35.7965
		c-6.4865-8.1345-16.5405-16.7976-27.5225-17.1827c-7.7257-0.271-16.501,0.5547-21.3346,8.8201
		c-2.0259,3.4639-3.7693,7.0927-5.6421,10.6459c-4.3619-2.5215-4.8781-8.4172-4.6428-12.922
		c0.1367-2.6223,0.5771-5.2426,1.2396-7.7821c0.9042-3.4673,0.7032-3.8048-1.5101-6.6719c-2.0748-2.6871-4.2108-0.443-5.6494,0.3625
		c-15.1571,8.4884-23.2302,31.8066-16.6885,47.5222c0.6099,1.4652,0.9056,3.0846-0.3647,4.1897
		c-0.2484,0.2161-2.1029-1.0748-2.9479-1.9347c-13.9728-14.2157-12.9684-48.6895,3.072-61.5068
		c17.9548-14.3473,37.912-21.899,60.7871-10.0322c2.0217,1.0488,5.5258,3.2102,8.309-0.5522
		c2.2122-2.991,1.8685-5.5048,0.7872-8.7169c-1.1083-3.2922-4.9457-5.0481-4.6715-8.9454c0.1498-2.1311,0.2809-5.7429,3.3242-3.281
		c7.1664,5.7972,15.1094,10.7819,20.6992,18.424c11.6338,15.9043,16.9166,33.65,15.8784,53.2992
		c-0.1389,2.6287,0.002,6.0304,2.626,6.3844c3.0073,0.4056,6.682-0.3135,8.6993-3.5436c1.1514-1.8435,2.8411-3.7301,3.0433-5.7236
		c1.0911-10.7502,5.8311-20.4727,8.2678-30.8124c4.5609-19.3536,2.2341-38.1655-5.6328-56.2922
		c-9.2687-21.3567-22.2716-38.0464-48.5298-37.5366c-5.7461,0.1116-5.8768-2.7146-2.8752-6.3522
		c3.8721-4.6921,9.2-7.666,15.39-5.9869c3.2507,0.8817,6.0155,2.9613,9.3243,3.8683c2.8517,0.7816,11.8521,2.8969,13.1438-1.0406
		c0.8414-2.5649-0.9952-4.1224-2.5789-5.6432c-1.3557-1.302-2.6743-2.8088-4.3086-3.6282
		c-12.6342-6.3345-24.2748-14.1119-38.1625-18.6195c-13.7333-4.4575-27.9917-7.2611-42.4048-8.1882
		c-6.5256-0.4198-13.0101-0.6017-19.5193-0.8354c-6.8933-0.2476-13.8408,0.9259-20.2545,3.4705
		c-12.9954,5.1556-25.5665,16.9225-28.7262,30.9434c-1.2241,5.4324-4.5778,5.6031-8.8502,1.7384
		c-6.8048-6.1555-6.3966-12.9222-2.7252-20.1794c1.6189-3.1998,2.8325-6.4763-0.3704-8.8958
		c-2.9615-2.2369-5.821-2.8591-9.995-0.0297c-19.179,13.0017-30.5828,32.9902-44.8258,50.1471
		c-8.8004,10.6008-17.5006,20.925-29.4397,28.1665c-6.3386,3.8446-13.1873,6.8525-20.3142,8.896
		c-3.7206,1.0668-17.8201,5.7039-19.8527,1.3582c-1.603-3.4275,1.3219-7.4531,3.0536-10.9592
		c0.2782-0.5634,0.7069-1.0555,0.9617-1.6272c1.2651-2.838,3.7944-6.4312,1.5377-8.7122
		c-2.6786-2.7079-7.0972-1.8671-10.6675-0.3745c-5.7087,2.3864-11.4329,4.7882-16.9386,7.5983
		c-29.7085,15.1625-66.072,7.4602-87.3772-18.8777c-13.9547-17.2513-19.5977-48.1078-4.1849-68.0338
		c7.0856-9.1606,15.186-16.4567,26.4351-20.1031c17.6376-5.7172,42.5043-1.4631,53.7321,14.5135
		c7.9148,11.2627,10.7655,23.9663,2.1168,35.0527c-1.1144-14.1158-4.2361-20.9497-14.3102-32.2167
		c-1.9767-2.2107-4.3218-2.9209-6.757-2.1237c-2.7483,0.9-5.9877,1.4552-5.9766,5.8809c0.0179,7.0632-4.3511,6.5743-9.1478,4.5509
		c-7.3843-3.1149-14.8718-5.1179-22.3667-0.6262c-12.2598,7.3478-22.4421,19.093-21.853,34.1252
		c0.5909,15.0731,10.4779,29.6473,23.1571,37.3188c16.5597,10.0198,43.6486,10.1149,60.6522,0.8818
		c14.1333-7.6746,27.4448-16.5946,40.8208-25.484c23.1616-15.3926,42.0569-36.2146,67.9679-48.5066
		c20.9049-9.9171,42.8013-14.3777,64.6244-17.1085c17.5903-2.2012,35.2351-1.4266,52.3643,3.266
		c17.0613,4.6742,34.1721,8.4357,50.4351,15.6439c6.5117,2.8862,12.9095,5.7113,18.4626,10.2524
		c3.963,3.241,8.1125,6.2632,12.4901,8.922c3.5006,2.1263,9.215,6.6632,13.267,3.543c3.2281-2.4861,2.4319-6.3099,1.2581-9.5707
		c-3.5376-9.8274,2.2671-16.5443,7.5503-23.4233c0.6376-0.8302,2.1814-1.5424,3.1692-1.3955
		c1.6375,0.2437,1.0443,1.7395,0.8815,2.9644c-1.7944,13.5103,1.777,26.1517,6.3508,38.6228
		c4.3676,11.9088,8.9763,23.3151,11.5643,35.7927c3.2384,15.6202,3.9662,31.4355,3.7902,47.3435
		c-0.194,17.5409,0.2155,36.4446-5.3707,53.2643c-0.5265,1.5851-1.1069,3.1521-1.7417,4.697
		c-11.2064,27.2666-24.6416,53.9811-48.989,72.8105c-3.1869,2.4647-7.2507,4.7028-6.465,9.2421
		c0.9668,5.5822,7.4711,5.3572,11.7428,6.5114c7.2925,1.9707,13.8906,5.3438,19.5352,10.3279
		c2.4902,2.1989,10.4663,8.5758,7.3428,12.5825c-2.644,3.3916-7.0582-2.4617-9.4479-3.5443
		c-4.1384-1.8748-8.7584-1.9628-13.2117-2.1326c-4.9607-0.1892-9.9163-0.6476-14.8905-0.7639
		c-10.798-0.2527-21.6102,0.2699-32.34,1.4988c-12.3505,1.4144-24.6929,4.1299-37.0304,4.0833
		c-12.8431-0.0486-25.7579-0.2271-38.6753-1.0739c-27.7377-1.8182-54.8285-5.5839-81.4503-13.7606
		c-18.7555-5.7605-36.947-12.7139-54.5754-20.9725c8.2587,17.6284,15.2119,35.8199,20.9725,54.5753
		c8.1768,26.6219,11.9423,53.7128,13.7606,81.4503c0.8466,12.9175,1.0251,25.8325,1.074,38.6755
		c0.0465,12.3376-2.6688,24.6799-4.0835,37.0302c-1.229,10.73-1.7516,21.5421-1.4988,32.3402
		c0.1166,4.9742,0.5748,9.9297,0.764,14.8904c0.1699,4.4534,0.2578,9.0732,2.1326,13.2115
		c1.0826,2.3898,6.9359,6.8041,3.5442,9.4481c-4.0066,3.1234-10.3835-4.8527-12.5825-7.3428
		c-4.9841-5.6445-8.3571-12.2428-10.3279-19.5353c-1.1542-4.2717-0.9291-10.776-6.5112-11.7426
		c-4.5394-0.786-6.7773,3.278-9.2422,6.4648c-18.8292,24.3473-45.5437,37.7826-72.8104,48.9889
		c-1.545,0.6349-3.1119,1.2153-4.697,1.7417c-16.8198,5.5863-35.7235,5.1769-53.2644,5.3708
		c-15.9078,0.1759-31.7231-0.5518-47.3434-3.7902c-12.4778-2.588-23.8839-7.1968-35.7927-11.5645
		c-12.4712-4.5739-25.1125-8.1451-38.6228-6.3506c-1.2249,0.1626-2.7207,0.7559-2.9644-0.8817
		c-0.147-0.9878,0.5653-2.5315,1.3955-3.1691c6.879-5.2833,13.5958-11.088,23.4233-7.5504
		c3.2606,1.1738,7.0846,1.9702,9.5706-1.2581c3.1204-4.0519-1.4166-9.7662-3.5428-13.267c-2.6588-4.3776-5.681-8.527-8.9221-12.4902
		c-4.5411-5.553-7.3661-11.9508-10.2524-18.4626c-7.2081-16.2627-10.9697-33.3737-15.6438-50.4349
		c-4.6927-17.129-5.4672-34.7739-3.2661-52.3641c2.731-21.8232,7.1915-43.7196,17.1088-64.6245
		c12.2917-25.911,33.1138-44.8064,48.5065-67.9679c8.8893-13.376,17.8093-26.6874,25.4838-40.8208
		c9.2333-17.0038,9.1379-44.0924-0.8816-60.6522c-7.6716-12.6791-22.2458-22.566-37.3188-23.1569
		c-15.0323-0.5894-26.7776,9.593-34.1252,21.8529c-4.4917,7.4948-2.4888,14.9823,0.626,22.3666
		c2.0237,4.7969,2.5126,9.1658-4.5507,9.1481c-4.4258-0.0112-4.9808,3.228-5.8807,5.9766c-0.7974,2.4349-0.0872,4.78,2.1235,6.7567
		c11.267,10.0741,18.1007,13.1958,32.2166,14.3104c-11.0864,8.6484-23.79,5.7979-35.0526-2.1171
		C1102.9888,1309.2694,1098.7347,1284.4027,1104.4519,1266.7651z"/>
</g>
</svg>
