<?xml version="1.0" encoding="UTF-8" standalone="no"?>
<!-- Created with Inkscape (http://www.inkscape.org/) -->

<svg
   width="210mm"
   height="297mm"
   viewBox="0 0 210 297"
   version="1.1"
   id="svg11514"
   inkscape:version="1.1 (c68e22c387, 2021-05-23)"
   sodipodi:docname="BannerParkir2021.svg"
   xmlns:inkscape="http://www.inkscape.org/namespaces/inkscape"
   xmlns:sodipodi="http://sodipodi.sourceforge.net/DTD/sodipodi-0.dtd"
   xmlns="http://www.w3.org/2000/svg"
   xmlns:svg="http://www.w3.org/2000/svg">
  <sodipodi:namedview
     id="namedview11516"
     pagecolor="#ffffff"
     bordercolor="#666666"
     borderopacity="1.0"
     inkscape:pageshadow="2"
     inkscape:pageopacity="0.0"
     inkscape:pagecheckerboard="0"
     inkscape:document-units="mm"
     showgrid="false"
     inkscape:snap-global="false"
     inkscape:zoom="0.44542649"
     inkscape:cx="360.32882"
     inkscape:cy="654.42898"
     inkscape:current-layer="layer1" />
  <defs
     id="defs11511">
    <clipPath
       clipPathUnits="userSpaceOnUse"
       id="clipPath40396">
      <rect
         style="fill:#ffe6d5;stroke-width:20;stroke-linecap:round;stroke-linejoin:round"
         id="rect40398"
         width="124.74001"
         height="124.74001"
         x="-198.396"
         y="54.054001" />
    </clipPath>
  </defs>
  <g
     inkscape:label="Layer 1"
     inkscape:groupmode="layer"
     id="layer1">
    <rect
       style="fill:#333333;stroke-width:78.2677;stroke-linecap:round;stroke-linejoin:round"
       id="rect11540-1"
       width="679.16827"
       height="350.86469"
       x="-224.43733"
       y="28.012672" />
    <g
       id="g21312"
       transform="matrix(0.42190168,0,0,0.42190168,20.314057,-40.49108)"
       style="fill:#ff5555;fill-opacity:1">
      <path
         id="path19270"
         style="fill:#ff5555;fill-opacity:1;stroke-width:75.5906;stroke-linecap:round;stroke-linejoin:round"
         d="M -19.048828,200.02344 A 220.66008,220.66008 0 0 0 -239.70898,420.68359 220.66008,220.66008 0 0 0 -19.048828,641.34375 220.66008,220.66008 0 0 0 201.60938,420.68359 220.66008,220.66008 0 0 0 -19.048828,200.02344 Z m 0,52.38672 A 168.27316,168.27316 0 0 1 149.22266,420.68359 168.27316,168.27316 0 0 1 -19.048828,588.95508 168.27316,168.27316 0 0 1 -187.32227,420.68359 168.27316,168.27316 0 0 1 -19.048828,252.41016 Z"
         transform="scale(0.26458333)" />
      <rect
         style="fill:#ff5555;fill-opacity:1;stroke-width:20;stroke-linecap:round;stroke-linejoin:round"
         id="rect19394"
         width="15.120771"
         height="101.64518"
         x="-93.565453"
         y="20.552502"
         transform="rotate(-48.803488)" />
    </g>
    <g
       id="g54574"
       inkscape:export-filename="D:\Ichsan\design\Istiqlal\Sekolah\Banner Parkir\antarjemput.png"
       inkscape:export-xdpi="1018.1174"
       inkscape:export-ydpi="1018.1174">
      <rect
         style="fill:#ffd11c;stroke-width:20;stroke-linecap:round;stroke-linejoin:round;fill-opacity:1"
         id="rect11540"
         width="124.74001"
         height="124.74001"
         x="-198.396"
         y="54.054001" />
      <text
         xml:space="preserve"
         style="font-style:normal;font-weight:normal;font-size:10.5833px;line-height:0.95;font-family:sans-serif;letter-spacing:0.594116px;white-space:pre;inline-size:133.326;fill:#6f645d;fill-opacity:1;stroke:none;stroke-width:0.264583"
         x="39.207481"
         y="225.12601"
         id="text12108"
         transform="matrix(1.2393066,0,0,1.2393066,-266.50821,-173.24662)"><tspan
           x="39.207481"
           y="225.12601"
           id="tspan84376"><tspan
             style="font-size:17.5198px"
             id="tspan84374">BATAS
</tspan></tspan><tspan
           x="39.207481"
           y="236.84421"
           id="tspan84384"><tspan
             style="font-weight:bold;font-family:Mitr;-inkscape-font-specification:'Mitr Bold';text-align:center;text-anchor:middle"
             id="tspan84378">ANTAR </tspan><tspan
             style="font-size:10.1242px"
             id="tspan84380">JEMPUT</tspan><tspan
             style="font-weight:bold;font-family:Mitr;-inkscape-font-specification:'Mitr Bold';text-align:center;text-anchor:middle"
             id="tspan84382">
</tspan></tspan><tspan
           x="39.207481"
           y="251.9273"
           id="tspan84388"><tspan
             style="font-size:17.5198px"
             id="tspan84386">SISWA</tspan></tspan></text>
      <g
         id="g40392"
         clip-path="url(#clipPath40396)">
        <g
           id="g42471"
           style="fill:#ead3c3;fill-opacity:1"
           transform="matrix(1.0597627,0,0,1.0597627,7.9730217,-6.9639443)">
          <path
             style="fill:#ffefad;fill-opacity:1;stroke-width:20;stroke-linecap:round;stroke-linejoin:round"
             d="m -146.718,181.764 c 0,0 47.520003,-10.098 52.866001,-14.256 0,0 -3.59297,4.91079 -0.442812,3.23071 3.150161,-1.68009 12.600644,-6.51033 13.860709,-14.07072 0,0 1.470075,3.57018 -0.420021,5.8803 0,0 6.090309,-3.9902 7.980407,-15.54079 1.890096,-11.55059 30.871573,12.60064 9.24047,25.6213 -21.631103,13.02067 -8.190418,13.6507 -35.911832,13.44069 C -127.26649,185.85948 -146.718,181.764 -146.718,181.764 Z"
             id="path38021" />
          <path
             style="fill:#ffefad;fill-opacity:1;stroke-width:20;stroke-linecap:round;stroke-linejoin:round"
             d="m -123.69502,52.114939 c 0,0 -47.52,10.098 -52.866,14.256 0,0 3.59297,-4.91079 0.44281,-3.23071 -3.15016,1.68009 -12.60064,6.51033 -13.86071,14.07072 0,0 -1.47007,-3.57018 0.42003,-5.8803 0,0 -6.09031,3.9902 -7.98041,15.54079 -1.8901,11.55059 -22.42833,-4.09173 -9.24047,-25.6213 11.36264,-18.549842 8.18106,-13.655739 35.91183,-13.44069 27.72137,0.214976 47.17292,4.30549 47.17292,4.30549 z"
             id="path38172"
             sodipodi:nodetypes="ccsccsssc" />
        </g>
        <g
           id="g42477"
           transform="matrix(1.0597627,0,0,1.0597627,7.9730217,-6.9639443)">
          <g
             id="g42481"
             style="fill:#6f645d;fill-opacity:1">
            <path
               style="fill:#6f645d;fill-opacity:1;stroke-width:20;stroke-linecap:round;stroke-linejoin:round"
               d="m -67.724344,127.10755 c 0,0 -12.10891,-47.047788 -16.490406,-52.2122 0,0 5.059086,3.380968 3.246614,0.305077 -1.812482,-3.075894 -7.040089,-12.312505 -14.647209,-13.250045 0,0 3.504461,-1.620512 5.892839,0.169674 0,0 -4.245487,-5.915183 -15.865984,-7.312566 -11.62049,-1.397381 11.276925,-31.379311 25.205336,-10.321259 13.928422,21.058052 13.986529,7.602734 14.955125,35.308018 0.968595,27.705281 -2.296315,47.313301 -2.296315,47.313301 z"
               id="path42473" />
            <path
               style="fill:#6f645d;fill-opacity:1;stroke-width:20;stroke-linecap:round;stroke-linejoin:round"
               d="m -198.2349,109.61666 c 0,0 12.10891,47.04779 16.4904,52.2122 0,0 -5.05908,-3.38096 -3.24661,-0.30507 1.81248,3.07589 7.04009,12.3125 14.64721,13.25005 0,0 -3.50446,1.6205 -5.89284,-0.16969 0,0 4.24549,5.91519 15.86598,7.31257 11.6205,1.39739 -3.13462,22.58199 -25.20533,10.32126 -19.01609,-10.56383 -13.99117,-7.59317 -14.95513,-35.30801 -0.96363,-27.70546 2.29632,-47.31331 2.29632,-47.31331 z"
               id="path42475"
               sodipodi:nodetypes="ccsccsssc" />
          </g>
        </g>
      </g>
      <text
         xml:space="preserve"
         style="font-style:normal;font-weight:normal;font-size:3.5535px;line-height:0.95;font-family:sans-serif;letter-spacing:0.594116px;white-space:pre;inline-size:79.4985;fill:#6f645d;fill-opacity:1;stroke:none;stroke-width:0.264583"
         x="39.207481"
         y="225.12601"
         id="text52268"
         transform="matrix(1.1759355,0,0,1.1759355,-227.79326,-104.11284)"><tspan
           x="39.207481"
           y="225.12601"
           id="tspan84392"><tspan
             style="font-family:Mitr;-inkscape-font-specification:Mitr;text-align:center;text-anchor:middle"
             id="tspan84390">ISTIQLAL ISLAMIC SCHOOL</tspan></tspan></text>
    </g>
    <g
       id="g54604"
       transform="translate(0,152.08149)"
       inkscape:export-filename="D:\Ichsan\design\Istiqlal\Sekolah\Banner Parkir\guruStaff.png"
       inkscape:export-xdpi="1018.1174"
       inkscape:export-ydpi="1018.1174">
      <rect
         style="fill:#ffd11c;stroke-width:20;stroke-linecap:round;stroke-linejoin:round;fill-opacity:1"
         id="rect54576"
         width="124.74001"
         height="124.74001"
         x="-198.396"
         y="54.054001" />
      <text
         xml:space="preserve"
         style="font-style:normal;font-weight:normal;font-size:10.5833px;line-height:0.95;font-family:sans-serif;letter-spacing:0.594116px;white-space:pre;inline-size:127.73;fill:#6f645d;fill-opacity:1;stroke:none;stroke-width:0.264583"
         x="39.207481"
         y="225.12601"
         id="text54582"
         transform="matrix(1.22974,0,0,1.22974,-263.15045,-165.57617)"><tspan
           x="39.207481"
           y="225.12601"
           id="tspan84398"><tspan
             style="font-size:17.9867px"
             id="tspan84394">PARKIR</tspan><tspan
             style="font-weight:bold;font-family:Mitr;-inkscape-font-specification:'Mitr Bold';text-align:center;text-anchor:middle"
             id="tspan84396">
</tspan></tspan><tspan
           x="39.207481"
           y="236.94925"
           id="tspan84402"><tspan
             style="font-weight:bold;font-family:Mitr;-inkscape-font-specification:'Mitr Bold';text-align:center;text-anchor:middle"
             id="tspan84400">GURU &amp; STAFF</tspan></tspan></text>
      <g
         id="g54598"
         clip-path="url(#clipPath40396)">
        <g
           id="g54588"
           style="fill:#ead3c3;fill-opacity:1"
           transform="matrix(1.0597627,0,0,1.0597627,7.9730217,-6.9639443)">
          <path
             style="fill:#ffefad;fill-opacity:1;stroke-width:20;stroke-linecap:round;stroke-linejoin:round"
             d="m -146.718,181.764 c 0,0 47.520003,-10.098 52.866001,-14.256 0,0 -3.59297,4.91079 -0.442812,3.23071 3.150161,-1.68009 12.600644,-6.51033 13.860709,-14.07072 0,0 1.470075,3.57018 -0.420021,5.8803 0,0 6.090309,-3.9902 7.980407,-15.54079 1.890096,-11.55059 30.871573,12.60064 9.24047,25.6213 -21.631103,13.02067 -8.190418,13.6507 -35.911832,13.44069 C -127.26649,185.85948 -146.718,181.764 -146.718,181.764 Z"
             id="path54584" />
          <path
             style="fill:#ffefad;fill-opacity:1;stroke-width:20;stroke-linecap:round;stroke-linejoin:round"
             d="m -123.69502,52.114939 c 0,0 -47.52,10.098 -52.866,14.256 0,0 3.59297,-4.91079 0.44281,-3.23071 -3.15016,1.68009 -12.60064,6.51033 -13.86071,14.07072 0,0 -1.47007,-3.57018 0.42003,-5.8803 0,0 -6.09031,3.9902 -7.98041,15.54079 -1.8901,11.55059 -22.42833,-4.09173 -9.24047,-25.6213 11.36264,-18.549842 8.18106,-13.655739 35.91183,-13.44069 27.72137,0.214976 47.17292,4.30549 47.17292,4.30549 z"
             id="path54586"
             sodipodi:nodetypes="ccsccsssc" />
        </g>
        <g
           id="g54596"
           transform="matrix(1.0597627,0,0,1.0597627,7.9730217,-6.9639443)">
          <g
             id="g54594"
             style="fill:#6f645d;fill-opacity:1">
            <path
               style="fill:#6f645d;fill-opacity:1;stroke-width:20;stroke-linecap:round;stroke-linejoin:round"
               d="m -67.724344,127.10755 c 0,0 -12.10891,-47.047788 -16.490406,-52.2122 0,0 5.059086,3.380968 3.246614,0.305077 -1.812482,-3.075894 -7.040089,-12.312505 -14.647209,-13.250045 0,0 3.504461,-1.620512 5.892839,0.169674 0,0 -4.245487,-5.915183 -15.865984,-7.312566 -11.62049,-1.397381 11.276925,-31.379311 25.205336,-10.321259 13.928422,21.058052 13.986529,7.602734 14.955125,35.308018 0.968595,27.705281 -2.296315,47.313301 -2.296315,47.313301 z"
               id="path54590" />
            <path
               style="fill:#6f645d;fill-opacity:1;stroke-width:20;stroke-linecap:round;stroke-linejoin:round"
               d="m -198.2349,109.61666 c 0,0 12.10891,47.04779 16.4904,52.2122 0,0 -5.05908,-3.38096 -3.24661,-0.30507 1.81248,3.07589 7.04009,12.3125 14.64721,13.25005 0,0 -3.50446,1.6205 -5.89284,-0.16969 0,0 4.24549,5.91519 15.86598,7.31257 11.6205,1.39739 -3.13462,22.58199 -25.20533,10.32126 -19.01609,-10.56383 -13.99117,-7.59317 -14.95513,-35.30801 -0.96363,-27.70546 2.29632,-47.31331 2.29632,-47.31331 z"
               id="path54592"
               sodipodi:nodetypes="ccsccsssc" />
          </g>
        </g>
      </g>
      <text
         xml:space="preserve"
         style="font-style:normal;font-weight:normal;font-size:3.5535px;line-height:0.95;font-family:sans-serif;letter-spacing:0.594116px;white-space:pre;inline-size:79.4985;fill:#6f645d;fill-opacity:1;stroke:none;stroke-width:0.264583"
         x="39.207481"
         y="225.12601"
         id="text54602"
         transform="matrix(1.1759355,0,0,1.1759355,-227.79326,-104.11284)"><tspan
           x="39.207481"
           y="225.12601"
           id="tspan84406"><tspan
             style="font-family:Mitr;-inkscape-font-specification:Mitr;text-align:center;text-anchor:middle"
             id="tspan84404">ISTIQLAL ISLAMIC SCHOOL</tspan></tspan></text>
    </g>
    <g
       id="g56768"
       transform="translate(152.04775)"
       inkscape:export-filename="D:\Ichsan\design\Istiqlal\Sekolah\Banner Parkir\tamu.png"
       inkscape:export-xdpi="1018.1174"
       inkscape:export-ydpi="1018.1174">
      <rect
         style="fill:#ffd11c;stroke-width:20;stroke-linecap:round;stroke-linejoin:round;fill-opacity:1"
         id="rect56742"
         width="124.74001"
         height="124.74001"
         x="-198.396"
         y="54.054001" />
      <text
         xml:space="preserve"
         style="font-style:normal;font-weight:normal;font-size:10.5833px;line-height:0.95;font-family:sans-serif;letter-spacing:0.594116px;white-space:pre;inline-size:56.4404;fill:#6f645d;fill-opacity:1;stroke:none;stroke-width:0.264583"
         x="39.207481"
         y="225.12601"
         id="text56746"
         transform="matrix(1.9855202,0,0,1.9855202,-269.90514,-335.11739)"><tspan
           x="39.207481"
           y="225.12601"
           id="tspan84410"><tspan
             style="font-weight:bold;font-family:Mitr;-inkscape-font-specification:'Mitr Bold';text-align:center;text-anchor:middle"
             id="tspan84408">PARKIR </tspan></tspan><tspan
           x="39.207481"
           y="235.28349"
           id="tspan84414"><tspan
             style="font-weight:bold;font-family:Mitr;-inkscape-font-specification:'Mitr Bold';text-align:center;text-anchor:middle"
             id="tspan84412">TAMU</tspan></tspan></text>
      <g
         id="g56762"
         clip-path="url(#clipPath40396)">
        <g
           id="g56752"
           style="fill:#ead3c3;fill-opacity:1"
           transform="matrix(1.0597627,0,0,1.0597627,7.9730217,-6.9639443)">
          <path
             style="fill:#ffefad;fill-opacity:1;stroke-width:20;stroke-linecap:round;stroke-linejoin:round"
             d="m -146.718,181.764 c 0,0 47.520003,-10.098 52.866001,-14.256 0,0 -3.59297,4.91079 -0.442812,3.23071 3.150161,-1.68009 12.600644,-6.51033 13.860709,-14.07072 0,0 1.470075,3.57018 -0.420021,5.8803 0,0 6.090309,-3.9902 7.980407,-15.54079 1.890096,-11.55059 30.871573,12.60064 9.24047,25.6213 -21.631103,13.02067 -8.190418,13.6507 -35.911832,13.44069 C -127.26649,185.85948 -146.718,181.764 -146.718,181.764 Z"
             id="path56748" />
          <path
             style="fill:#ffefad;fill-opacity:1;stroke-width:20;stroke-linecap:round;stroke-linejoin:round"
             d="m -123.69502,52.114939 c 0,0 -47.52,10.098 -52.866,14.256 0,0 3.59297,-4.91079 0.44281,-3.23071 -3.15016,1.68009 -12.60064,6.51033 -13.86071,14.07072 0,0 -1.47007,-3.57018 0.42003,-5.8803 0,0 -6.09031,3.9902 -7.98041,15.54079 -1.8901,11.55059 -22.42833,-4.09173 -9.24047,-25.6213 11.36264,-18.549842 8.18106,-13.655739 35.91183,-13.44069 27.72137,0.214976 47.17292,4.30549 47.17292,4.30549 z"
             id="path56750"
             sodipodi:nodetypes="ccsccsssc" />
        </g>
        <g
           id="g56760"
           transform="matrix(1.0597627,0,0,1.0597627,7.9730217,-6.9639443)">
          <g
             id="g56758"
             style="fill:#6f645d;fill-opacity:1">
            <path
               style="fill:#6f645d;fill-opacity:1;stroke-width:20;stroke-linecap:round;stroke-linejoin:round"
               d="m -67.724344,127.10755 c 0,0 -12.10891,-47.047788 -16.490406,-52.2122 0,0 5.059086,3.380968 3.246614,0.305077 -1.812482,-3.075894 -7.040089,-12.312505 -14.647209,-13.250045 0,0 3.504461,-1.620512 5.892839,0.169674 0,0 -4.245487,-5.915183 -15.865984,-7.312566 -11.62049,-1.397381 11.276925,-31.379311 25.205336,-10.321259 13.928422,21.058052 13.986529,7.602734 14.955125,35.308018 0.968595,27.705281 -2.296315,47.313301 -2.296315,47.313301 z"
               id="path56754" />
            <path
               style="fill:#6f645d;fill-opacity:1;stroke-width:20;stroke-linecap:round;stroke-linejoin:round"
               d="m -198.2349,109.61666 c 0,0 12.10891,47.04779 16.4904,52.2122 0,0 -5.05908,-3.38096 -3.24661,-0.30507 1.81248,3.07589 7.04009,12.3125 14.64721,13.25005 0,0 -3.50446,1.6205 -5.89284,-0.16969 0,0 4.24549,5.91519 15.86598,7.31257 11.6205,1.39739 -3.13462,22.58199 -25.20533,10.32126 -19.01609,-10.56383 -13.99117,-7.59317 -14.95513,-35.30801 -0.96363,-27.70546 2.29632,-47.31331 2.29632,-47.31331 z"
               id="path56756"
               sodipodi:nodetypes="ccsccsssc" />
          </g>
        </g>
      </g>
      <text
         xml:space="preserve"
         style="font-style:normal;font-weight:normal;font-size:3.5535px;line-height:0.95;font-family:sans-serif;letter-spacing:0.594116px;white-space:pre;inline-size:79.4985;fill:#6f645d;fill-opacity:1;stroke:none;stroke-width:0.264583"
         x="39.207481"
         y="225.12601"
         id="text56766"
         transform="matrix(1.1759355,0,0,1.1759355,-227.79326,-104.11284)"><tspan
           x="39.207481"
           y="225.12601"
           id="tspan84418"><tspan
             style="font-family:Mitr;-inkscape-font-specification:Mitr;text-align:center;text-anchor:middle"
             id="tspan84416">ISTIQLAL ISLAMIC SCHOOL</tspan></tspan></text>
    </g>
    <g
       id="g57870"
       transform="translate(152.04775,152.08149)"
       inkscape:export-filename="D:\Ichsan\design\Istiqlal\Sekolah\Banner Parkir\siswa.png"
       inkscape:export-xdpi="1018.1174"
       inkscape:export-ydpi="1018.1174">
      <rect
         style="fill:#ffd11c;stroke-width:20;stroke-linecap:round;stroke-linejoin:round;fill-opacity:1"
         id="rect57844"
         width="124.74001"
         height="124.74001"
         x="-198.396"
         y="54.054001" />
      <text
         xml:space="preserve"
         style="font-style:normal;font-weight:normal;font-size:10.5833px;line-height:0.95;font-family:sans-serif;letter-spacing:0.594116px;white-space:pre;inline-size:56.4404;fill:#6f645d;fill-opacity:1;stroke:none;stroke-width:0.264583"
         x="39.207481"
         y="225.12601"
         id="text57848"
         transform="matrix(1.9855202,0,0,1.9855202,-269.90514,-337.2175)"><tspan
           x="39.207481"
           y="225.12601"
           id="tspan84422"><tspan
             style="font-weight:bold;font-family:Mitr;-inkscape-font-specification:'Mitr Bold';text-align:center;text-anchor:middle"
             id="tspan84420">PARKIR </tspan></tspan><tspan
           x="39.207481"
           y="235.28349"
           id="tspan84426"><tspan
             style="font-weight:bold;font-family:Mitr;-inkscape-font-specification:'Mitr Bold';text-align:center;text-anchor:middle"
             id="tspan84424">SISWA</tspan></tspan></text>
      <g
         id="g57864"
         clip-path="url(#clipPath40396)">
        <g
           id="g57854"
           style="fill:#ead3c3;fill-opacity:1"
           transform="matrix(1.0597627,0,0,1.0597627,7.9730217,-6.9639443)">
          <path
             style="fill:#ffefad;fill-opacity:1;stroke-width:20;stroke-linecap:round;stroke-linejoin:round"
             d="m -146.718,181.764 c 0,0 47.520003,-10.098 52.866001,-14.256 0,0 -3.59297,4.91079 -0.442812,3.23071 3.150161,-1.68009 12.600644,-6.51033 13.860709,-14.07072 0,0 1.470075,3.57018 -0.420021,5.8803 0,0 6.090309,-3.9902 7.980407,-15.54079 1.890096,-11.55059 30.871573,12.60064 9.24047,25.6213 -21.631103,13.02067 -8.190418,13.6507 -35.911832,13.44069 C -127.26649,185.85948 -146.718,181.764 -146.718,181.764 Z"
             id="path57850" />
          <path
             style="fill:#ffefad;fill-opacity:1;stroke-width:20;stroke-linecap:round;stroke-linejoin:round"
             d="m -123.69502,52.114939 c 0,0 -47.52,10.098 -52.866,14.256 0,0 3.59297,-4.91079 0.44281,-3.23071 -3.15016,1.68009 -12.60064,6.51033 -13.86071,14.07072 0,0 -1.47007,-3.57018 0.42003,-5.8803 0,0 -6.09031,3.9902 -7.98041,15.54079 -1.8901,11.55059 -22.42833,-4.09173 -9.24047,-25.6213 11.36264,-18.549842 8.18106,-13.655739 35.91183,-13.44069 27.72137,0.214976 47.17292,4.30549 47.17292,4.30549 z"
             id="path57852"
             sodipodi:nodetypes="ccsccsssc" />
        </g>
        <g
           id="g57862"
           transform="matrix(1.0597627,0,0,1.0597627,7.9730217,-6.9639443)">
          <g
             id="g57860"
             style="fill:#6f645d;fill-opacity:1">
            <path
               style="fill:#6f645d;fill-opacity:1;stroke-width:20;stroke-linecap:round;stroke-linejoin:round"
               d="m -67.724344,127.10755 c 0,0 -12.10891,-47.047788 -16.490406,-52.2122 0,0 5.059086,3.380968 3.246614,0.305077 -1.812482,-3.075894 -7.040089,-12.312505 -14.647209,-13.250045 0,0 3.504461,-1.620512 5.892839,0.169674 0,0 -4.245487,-5.915183 -15.865984,-7.312566 -11.62049,-1.397381 11.276925,-31.379311 25.205336,-10.321259 13.928422,21.058052 13.986529,7.602734 14.955125,35.308018 0.968595,27.705281 -2.296315,47.313301 -2.296315,47.313301 z"
               id="path57856" />
            <path
               style="fill:#6f645d;fill-opacity:1;stroke-width:20;stroke-linecap:round;stroke-linejoin:round"
               d="m -198.2349,109.61666 c 0,0 12.10891,47.04779 16.4904,52.2122 0,0 -5.05908,-3.38096 -3.24661,-0.30507 1.81248,3.07589 7.04009,12.3125 14.64721,13.25005 0,0 -3.50446,1.6205 -5.89284,-0.16969 0,0 4.24549,5.91519 15.86598,7.31257 11.6205,1.39739 -3.13462,22.58199 -25.20533,10.32126 -19.01609,-10.56383 -13.99117,-7.59317 -14.95513,-35.30801 -0.96363,-27.70546 2.29632,-47.31331 2.29632,-47.31331 z"
               id="path57858"
               sodipodi:nodetypes="ccsccsssc" />
          </g>
        </g>
      </g>
      <text
         xml:space="preserve"
         style="font-style:normal;font-weight:normal;font-size:3.5535px;line-height:0.95;font-family:sans-serif;letter-spacing:0.594116px;white-space:pre;inline-size:79.4985;fill:#6f645d;fill-opacity:1;stroke:none;stroke-width:0.264583"
         x="39.207481"
         y="225.12601"
         id="text57868"
         transform="matrix(1.1759355,0,0,1.1759355,-227.79326,-104.11284)"><tspan
           x="39.207481"
           y="225.12601"
           id="tspan84430"><tspan
             style="font-family:Mitr;-inkscape-font-specification:Mitr;text-align:center;text-anchor:middle"
             id="tspan84428">ISTIQLAL ISLAMIC SCHOOL</tspan></tspan></text>
    </g>
  </g>
</svg>
