<?xml version="1.0" encoding="UTF-8" standalone="no"?>
<!-- Created with Inkscape (http://www.inkscape.org/) -->

<svg
   width="167.19928mm"
   height="167.19928mm"
   viewBox="0 0 167.19928 167.19928"
   version="1.1"
   id="svg189114"
   inkscape:version="1.1.1 (3bf5ae0d25, 2021-09-20)"
   sodipodi:docname="Post1.svg"
   xmlns:inkscape="http://www.inkscape.org/namespaces/inkscape"
   xmlns:sodipodi="http://sodipodi.sourceforge.net/DTD/sodipodi-0.dtd"
   xmlns:xlink="http://www.w3.org/1999/xlink"
   xmlns="http://www.w3.org/2000/svg"
   xmlns:svg="http://www.w3.org/2000/svg">
  <sodipodi:namedview
     id="namedview189116"
     pagecolor="#505050"
     bordercolor="#ffffff"
     borderopacity="1"
     inkscape:pageshadow="0"
     inkscape:pageopacity="0"
     inkscape:pagecheckerboard="1"
     inkscape:document-units="mm"
     showgrid="false"
     inkscape:zoom="0.30110567"
     inkscape:cx="-252.40309"
     inkscape:cy="134.50428"
     inkscape:current-layer="layer1"
     inkscape:snap-global="false" />
  <defs
     id="defs189111">
    <linearGradient
       inkscape:collect="always"
       id="linearGradient202922">
      <stop
         style="stop-color:#ffffff;stop-opacity:1;"
         offset="0"
         id="stop202918" />
      <stop
         style="stop-color:#ffffff;stop-opacity:0;"
         offset="1"
         id="stop202920" />
    </linearGradient>
    <linearGradient
       inkscape:collect="always"
       id="linearGradient202676">
      <stop
         style="stop-color:#4e4e4e;stop-opacity:1;"
         offset="0"
         id="stop202672" />
      <stop
         style="stop-color:#444444;stop-opacity:1"
         offset="1"
         id="stop202674" />
    </linearGradient>
    <linearGradient
       inkscape:collect="always"
       id="linearGradient201781">
      <stop
         style="stop-color:#ff5555;stop-opacity:1;"
         offset="0"
         id="stop201777" />
      <stop
         style="stop-color:#ff5555;stop-opacity:0;"
         offset="1"
         id="stop201779" />
    </linearGradient>
    <linearGradient
       inkscape:collect="always"
       id="linearGradient201599">
      <stop
         style="stop-color:#ff5555;stop-opacity:1;"
         offset="0"
         id="stop201595" />
      <stop
         style="stop-color:#ff5555;stop-opacity:0;"
         offset="1"
         id="stop201597" />
    </linearGradient>
    <linearGradient
       inkscape:collect="always"
       xlink:href="#linearGradient201599"
       id="linearGradient201601"
       x1="-338.37845"
       y1="379.86282"
       x2="-378.85944"
       y2="379.86282"
       gradientUnits="userSpaceOnUse" />
    <linearGradient
       inkscape:collect="always"
       xlink:href="#linearGradient201781"
       id="linearGradient201783"
       x1="56.314747"
       y1="285.79431"
       x2="50.407421"
       y2="285.79431"
       gradientUnits="userSpaceOnUse" />
    <filter
       inkscape:collect="always"
       style="color-interpolation-filters:sRGB"
       id="filter202404"
       x="-0.10821243"
       y="-0.080538169"
       width="1.2164249"
       height="1.1610763">
      <feGaussianBlur
         inkscape:collect="always"
         stdDeviation="0.46516995"
         id="feGaussianBlur202406" />
    </filter>
    <linearGradient
       inkscape:collect="always"
       xlink:href="#linearGradient202676"
       id="linearGradient202678"
       x1="58.105217"
       y1="270.78882"
       x2="65.047493"
       y2="296.69772"
       gradientUnits="userSpaceOnUse" />
    <linearGradient
       inkscape:collect="always"
       xlink:href="#linearGradient202922"
       id="linearGradient202924"
       x1="-326.8158"
       y1="186.43202"
       x2="-326.8158"
       y2="478.99701"
       gradientUnits="userSpaceOnUse" />
    <filter
       inkscape:collect="always"
       style="color-interpolation-filters:sRGB"
       id="filter203232"
       x="-0.21592802"
       y="-0.43185603"
       width="1.431856"
       height="1.8637121">
      <feGaussianBlur
         inkscape:collect="always"
         stdDeviation="2.9076374"
         id="feGaussianBlur203234" />
    </filter>
    <clipPath
       clipPathUnits="userSpaceOnUse"
       id="clipPath203241">
      <rect
         style="opacity:1;fill:url(#linearGradient203245);fill-opacity:1;stroke:none;stroke-width:0.698359;stroke-linecap:square;stroke-linejoin:miter;stroke-miterlimit:4;stroke-dasharray:none;stroke-opacity:1"
         id="rect203243"
         width="23.12002"
         height="23.12002"
         x="43.511749"
         y="268.4393" />
    </clipPath>
    <linearGradient
       inkscape:collect="always"
       xlink:href="#linearGradient202676"
       id="linearGradient203245"
       gradientUnits="userSpaceOnUse"
       x1="58.105217"
       y1="270.78882"
       x2="65.047493"
       y2="296.69772" />
    <filter
       inkscape:collect="always"
       style="color-interpolation-filters:sRGB"
       id="filter204223"
       x="-0.34670768"
       y="-0.69341535"
       width="1.6934154"
       height="2.3868307">
      <feGaussianBlur
         inkscape:collect="always"
         stdDeviation="4.6686862"
         id="feGaussianBlur204221" />
    </filter>
  </defs>
  <g
     inkscape:label="Layer 1"
     inkscape:groupmode="layer"
     id="layer1"
     transform="translate(-34.454757,-40.66814)">
    <g
       id="g189193"
       transform="matrix(7.2317963,0,0,7.2317963,-280.21335,-1900.6302)"
       inkscape:export-filename="/run/media/ichsan/Share/Document/Design/Jenui/Post.png"
       inkscape:export-xdpi="223.362"
       inkscape:export-ydpi="223.362">
      <rect
         style="opacity:1;fill:#ffffff;fill-opacity:1;stroke:none;stroke-width:0.698358;stroke-linecap:square;stroke-linejoin:miter;stroke-miterlimit:4;stroke-dasharray:none;stroke-opacity:1"
         id="rect135131"
         width="23.12002"
         height="23.12002"
         x="43.511749"
         y="268.4393" />
      <g
         aria-label="FALL"
         id="text132367"
         style="font-size:7.95256px;line-height:1.2;font-family:'Creato Display';-inkscape-font-specification:'Creato Display';text-align:center;letter-spacing:-0.62336px;text-anchor:middle;stroke-width:0.198814">
        <path
           d="m 49.915417,279.90829 v -6.83423 h 2.345384 v 0.90476 h -1.304717 v 1.81729 h 1.211523 v 0.90864 h -1.211523 v 3.20354 z"
           style="font-weight:bold;font-stretch:ultra-condensed;font-family:Antonio;-inkscape-font-specification:'Antonio Bold Ultra-Condensed'"
           id="path162860" />
        <path
           d="m 54.138148,277.85414 -0.458204,-3.43265 h -0.01553 l -0.419374,3.43265 z m -2.143463,2.05415 0.974654,-6.83423 h 1.374613 l 1.036783,6.83423 h -0.970771 l -0.16309,-1.21928 h -1.102796 l -0.147557,1.21928 z"
           style="font-weight:bold;font-stretch:ultra-condensed;font-family:Antonio;-inkscape-font-specification:'Antonio Bold Ultra-Condensed'"
           id="path162862"
           sodipodi:nodetypes="cccccccccccccc" />
        <path
           d="m 55.471863,279.1613 v -6.08724 h 1.040668 v 5.2019 h 0.898639 v 0.88534 z"
           style="font-weight:bold;font-stretch:ultra-condensed;font-family:Antonio;-inkscape-font-specification:'Antonio Bold Ultra-Condensed'"
           id="path162864"
           sodipodi:nodetypes="ccccccc" />
        <path
           d="m 57.803532,279.1613 v -6.08724 h 1.040667 v 5.2019 h 1.316366 v 0.88534 z"
           style="font-weight:bold;font-stretch:ultra-condensed;font-family:Antonio;-inkscape-font-specification:'Antonio Bold Ultra-Condensed'"
           id="path162866"
           sodipodi:nodetypes="ccccccc" />
      </g>
      <path
         id="path147885-3"
         style="font-weight:bold;font-stretch:ultra-condensed;font-size:10.1283px;line-height:1.2;font-family:Antonio;-inkscape-font-specification:'Antonio Bold Ultra-Condensed';text-align:center;letter-spacing:-1.32292px;text-anchor:middle;fill:#ffffff;stroke-width:0.793973"
         sodipodi:type="inkscape:offset"
         inkscape:radius="1.6259339"
         inkscape:original="M 201.95508 1056.459 C 197.8715 1056.459 195.82813 1058.9612 195.82812 1063.9648 L 195.82812 1076.4492 C 195.82814 1078.0597 196.0082 1079.4225 196.36523 1080.543 L 192.8125 1080.543 L 192.8125 1056.7852 L 188.65625 1056.7852 L 188.65625 1084.0781 L 198.07031 1084.0781 L 198.07031 1083.2344 C 199.02052 1084.0029 200.29491 1084.3887 201.89258 1084.3887 C 203.99122 1084.3887 205.51568 1083.731 206.4668 1082.418 C 207.41791 1081.105 207.89258 1079.1165 207.89258 1076.4492 L 207.89258 1063.9648 C 207.89258 1061.5043 207.42848 1059.6388 206.49805 1058.3672 C 205.57795 1057.0956 204.06406 1056.459 201.95508 1056.459 z M 218.31445 1056.7852 L 218.31445 1084.0781 L 227.64844 1084.0781 L 227.64844 1080.4961 L 222.4707 1080.4961 L 222.4707 1071.8125 L 227.21484 1071.8125 L 227.21484 1068.3066 L 222.4707 1068.3066 L 222.4707 1060.3672 L 227.46289 1060.3672 L 227.46289 1056.7852 L 218.31445 1056.7852 z M 201.92383 1060.0566 C 202.63716 1060.0566 203.11183 1060.3574 203.34961 1060.957 C 203.59772 1061.5463 203.72266 1062.487 203.72266 1063.7793 L 203.72266 1076.4941 C 203.72266 1078.0655 203.60302 1079.1768 203.36523 1079.8281 C 203.12746 1080.4691 202.63164 1080.791 201.87695 1080.791 C 201.12226 1080.791 200.62116 1080.4743 200.37305 1079.8438 C 200.13526 1079.2131 200.01563 1078.0966 200.01562 1076.4941 L 200.01562 1063.7637 C 200.01562 1062.4817 200.15446 1061.5463 200.43359 1060.957 C 200.72306 1060.3574 201.22083 1060.0566 201.92383 1060.0566 z "
         transform="scale(0.26458333)"
         d="m 201.95508,1054.834 c -2.37389,0 -4.49649,0.8104 -5.85352,2.4726 -0.99501,1.2189 -1.43791,2.858 -1.66406,4.67 v -5.1914 a 1.6260965,1.6260965 0 0 0 -1.625,-1.625 h -4.15625 a 1.6260965,1.6260965 0 0 0 -1.625,1.625 v 27.2929 a 1.6260965,1.6260965 0 0 0 1.625,1.625 h 9.41406 a 1.6260965,1.6260965 0 0 0 0.44141,-0.4414 c 1.02491,0.4526 2.1368,0.752 3.38086,0.752 2.43834,0 4.60661,-0.8701 5.89062,-2.6426 1.25787,-1.7365 1.73438,-4.0617 1.73438,-6.9219 v -12.4844 c 0,-2.6613 -0.48105,-4.8763 -1.70313,-6.5507 -1.26555,-1.7491 -3.4232,-2.5801 -5.85937,-2.5801 z m 16.35937,0.3262 a 1.6260965,1.6260965 0 0 0 -1.625,1.625 v 27.2929 a 1.6260965,1.6260965 0 0 0 1.625,1.625 h 9.33399 a 1.6260965,1.6260965 0 0 0 1.625,-1.625 v -3.582 a 1.6260965,1.6260965 0 0 0 -1.625,-1.625 h -3.55274 v -5.4336 h 3.11914 a 1.6260965,1.6260965 0 0 0 1.625,-1.625 v -3.5059 a 1.6260965,1.6260965 0 0 0 -1.625,-1.625 h -3.11914 v -4.6894 h 3.36719 a 1.6260965,1.6260965 0 0 0 1.625,-1.625 v -3.582 a 1.6260965,1.6260965 0 0 0 -1.625,-1.625 z m -16.43554,6.6757 c 0.0872,0.2955 0.21875,0.8903 0.21875,1.9434 v 12.7148 c 0,1.3244 -0.13566,2.0917 -0.23047,2.4688 -0.0854,-0.345 -0.22656,-1.1153 -0.22657,-2.4688 v -12.7304 c 0,-1.0633 0.14894,-1.6739 0.23829,-1.9278 z m -7.44141,16.3672 c 0.0236,0.2454 0.0619,0.4792 0.0957,0.7149 h -0.0957 z" />
      <path
         style="opacity:1;fill:#ff5555;fill-opacity:1;stroke:none;stroke-width:0.282891;stroke-linecap:square;stroke-linejoin:miter;stroke-miterlimit:4;stroke-dasharray:none;stroke-opacity:1"
         d="m 54.690936,283.15295 1.204816,-1.05015 -1.24576,-1.22831 -0.511089,1.72641 z"
         id="path176857"
         sodipodi:nodetypes="ccccc" />
      <g
         id="g160908"
         transform="matrix(0.82964171,0,0,0.82964171,9.6142867,47.723344)">
        <path
           style="opacity:1;fill:#ff5555;fill-opacity:1;stroke:none;stroke-width:0.629233;stroke-linecap:square;stroke-linejoin:miter;stroke-miterlimit:4;stroke-dasharray:none;stroke-opacity:1"
           d="M 56.314745,287.85192 54.2197,285.69225 v -2.16431 l 2.095045,2.26638 2.154107,-2.26638 v 2.16431 z"
           id="path141448"
           sodipodi:nodetypes="ccccccc" />
        <path
           d="m 56.366206,283.35502 -2.882761,-2.91861 0.562236,-0.56223 2.882761,2.91861 z"
           style="font-weight:bold;font-stretch:ultra-condensed;font-size:3.65623px;line-height:0.9;font-family:'Creato Display';-inkscape-font-specification:'Antonio Bold Ultra-Condensed';letter-spacing:0px;fill:#000000;fill-opacity:1;stroke-width:0.0530721"
           id="path102820"
           sodipodi:nodetypes="ccccc" />
        <path
           d="m 56.309422,279.47683 c 0.38735,-0.38736 0.832054,-0.33001 1.334115,0.17205 l 1.348427,1.34843 -0.592198,0.5922 -1.312665,-1.31265 c -0.09683,-0.0969 -0.195168,-0.15048 -0.294988,-0.16091 -0.09836,-0.0118 -0.189263,0.0238 -0.272694,0.10729 -0.08344,0.0833 -0.113982,0.18547 -0.09161,0.30616 0.02384,0.11921 0.09609,0.23912 0.216766,0.35979 l 2.336686,2.38601 -0.592199,0.5922 -3.170243,-3.21956 0.592199,-0.5922 0.38438,0.38437 c -0.08939,-0.14898 -0.12589,-0.31359 -0.1095,-0.49386 0.01639,-0.18028 0.09087,-0.33672 0.223463,-0.4693 z"
           style="font-weight:bold;font-stretch:ultra-condensed;font-size:3.65623px;line-height:0.9;font-family:'Creato Display';-inkscape-font-specification:'Antonio Bold Ultra-Condensed';letter-spacing:0px;fill:#000000;fill-opacity:1;stroke-width:0.0559006"
           id="path102822"
           sodipodi:nodetypes="csccscscscccccscc" />
        <g
           aria-label="LO       E"
           id="text129951"
           style="font-size:10.1283px;line-height:1.2;font-family:'Creato Display';-inkscape-font-specification:'Creato Display';text-align:center;letter-spacing:-1.32292px;text-anchor:middle;stroke-width:0.253208">
          <path
             d="m 48.576546,288.23343 v -8.70401 h 1.325383 v 7.57644 h 1.67651 v 1.12757 z"
             style="font-weight:bold;font-stretch:ultra-condensed;font-family:Antonio;-inkscape-font-specification:'Antonio Bold Ultra-Condensed';fill:#ff5555"
             id="path147885" />
          <path
             d="m 52.199085,285.8151 q 0,0.76655 0.113745,1.06822 0.118691,0.30167 0.47971,0.30167 0.361018,0 0.474764,-0.30662 0.113745,-0.31156 0.113745,-1.06327 v -4.05528 q 0,-0.61818 -0.118691,-0.90007 -0.113745,-0.28684 -0.454982,-0.28684 -0.336291,0 -0.474764,0.28684 -0.133527,0.28189 -0.133527,0.89513 z m 2.512293,-0.0148 q 0,1.27593 -0.454982,1.904 -0.454983,0.62808 -1.458911,0.62808 -0.998982,0 -1.468801,-0.62808 -0.464873,-0.63301 -0.464873,-1.904 v -3.98109 q 0,-2.3936 1.953456,-2.3936 1.008874,0 1.44902,0.60829 0.445091,0.60829 0.445091,1.78531 z"
             style="font-weight:bold;font-stretch:ultra-condensed;font-family:Antonio;-inkscape-font-specification:'Antonio Bold Ultra-Condensed';fill:#ff5555"
             id="path147887" />
          <path
             d="m 58.034648,288.23343 v -8.70401 h 2.917821 v 1.1424 h -1.592438 v 2.53208 h 1.51331 v 1.11767 h -1.51331 v 2.76946 h 1.651783 v 1.1424 z"
             style="font-weight:bold;font-stretch:ultra-condensed;font-family:Antonio;-inkscape-font-specification:'Antonio Bold Ultra-Condensed';fill:#ff5555"
             id="path147889" />
        </g>
      </g>
      <path
         d="m 54.655,280.95704 -0.461634,-0.45558 0.466455,-0.46645 0.461634,0.45558 z"
         style="font-weight:bold;font-stretch:ultra-condensed;font-size:3.65623px;line-height:0.9;font-family:'Creato Display';-inkscape-font-specification:'Antonio Bold Ultra-Condensed';letter-spacing:0px;fill:#ffffff;fill-opacity:1;stroke-width:0.0440308"
         id="path102820-56"
         sodipodi:nodetypes="ccccc" />
      <path
         d="m 54.656193,280.72887 -0.233157,-0.2301 0.235592,-0.23559 0.233157,0.2301 z"
         style="font-weight:bold;font-stretch:ultra-condensed;font-size:3.65623px;line-height:0.9;font-family:'Creato Display';-inkscape-font-specification:'Antonio Bold Ultra-Condensed';letter-spacing:0px;fill:#000000;fill-opacity:1;stroke-width:0.0222386"
         id="path187561"
         sodipodi:nodetypes="ccccc" />
    </g>
    <g
       id="g189444"
       transform="matrix(7.2317963,0,0,7.2317963,-455.51415,-1900.6302)"
       inkscape:export-filename="/run/media/ichsan/Share/Document/Design/Jenui/Post.png"
       inkscape:export-xdpi="223.362"
       inkscape:export-ydpi="223.362">
      <rect
         style="opacity:1;fill:url(#linearGradient202678);fill-opacity:1;stroke:none;stroke-width:0.698358;stroke-linecap:square;stroke-linejoin:miter;stroke-miterlimit:4;stroke-dasharray:none;stroke-opacity:1"
         id="rect189408"
         width="23.12002"
         height="23.12002"
         x="43.511749"
         y="268.4393" />
      <g
         id="g202402"
         transform="translate(0,0.36517622)"
         style="mix-blend-mode:normal;filter:url(#filter202404);opacity:0.60765003">
        <path
           id="path202006"
           style="font-weight:bold;font-stretch:ultra-condensed;font-size:7.95256px;line-height:1.2;font-family:Antonio;-inkscape-font-specification:'Antonio Bold Ultra-Condensed';text-align:center;letter-spacing:-0.62336px;text-anchor:middle;fill:#000000;fill-opacity:1;stroke-width:5.43414"
           d="m -487.52344,126.68164 v 166.83203 h 28.44336 v -67.5957 h 33.11524 v -24.83594 h -33.11524 v -49.67187 h 35.66211 v -24.72852 z m 83.47071,0 -25.35938,177.82422 c 7.64131,-7.04393 17.607,-11.26356 28.73242,-12.74609 l 1.4043,-11.60743 h 30.14258 l 2.08203,15.56446 c 7.27213,3.08341 13.48399,7.75422 18.07226,14.0957 0.86454,1.18351 1.67578,2.40816 2.43946,3.66602 h 8.39648 l -28.33789,-186.79688 z m 68.40234,0 V 293.0625 h 53.00586 v -24.19922 h -24.5625 V 126.68164 Z m 63.73047,0 V 293.0625 h 64.42383 v -24.19922 h -35.98047 V 126.68164 Z m -113.13477,36.82813 h 0.42578 l 12.52344,93.82421 h -24.41015 z"
           transform="matrix(0.03658612,0,0,0.03658612,67.752034,268.4393)" />
        <g
           id="g202026"
           transform="matrix(0.82964171,0,0,0.82964171,9.6142867,47.723344)"
           style="fill:#000000">
          <g
             aria-label="LO       E"
             id="g202024"
             style="font-size:10.1283px;line-height:1.2;font-family:'Creato Display';-inkscape-font-specification:'Creato Display';text-align:center;letter-spacing:-1.32292px;text-anchor:middle;fill:#000000;stroke-width:0.253208">
            <g
               id="g202022"
               style="fill:#000000">
              <path
                 id="path202008"
                 style="opacity:1;fill:#000000;fill-opacity:1;stroke:none;stroke-width:7.7322;stroke-linecap:square;stroke-linejoin:miter;stroke-miterlimit:4;stroke-dasharray:none;stroke-opacity:1"
                 d="m -356.91016,341.07617 -1.06836,1.06836 -0.62304,-0.61523 -13.48242,45.54687 15.08789,15.08789 32.93164,-28.70312 z"
                 transform="matrix(0.04409869,0,0,0.04409869,70.075729,266.03768)" />
              <path
                 style="opacity:1;fill:#000000;fill-opacity:1;stroke:none;stroke-width:0.629233;stroke-linecap:square;stroke-linejoin:miter;stroke-miterlimit:4;stroke-dasharray:none;stroke-opacity:1"
                 d="M 56.314745,287.85192 54.2197,285.69225 v -2.16431 l 2.095045,2.26638 2.154107,-2.26638 v 2.16431 z"
                 id="path202010"
                 sodipodi:nodetypes="ccccccc"
                 transform="translate(-1.4488038e-6)" />
              <path
                 id="path202012"
                 style="font-weight:bold;font-stretch:ultra-condensed;font-size:3.65623px;line-height:0.9;font-family:'Creato Display';-inkscape-font-specification:'Antonio Bold Ultra-Condensed';letter-spacing:0px;fill:#000000;fill-opacity:1;stroke-width:1.20348"
                 d="m -363.50391,313.76172 -12.75,12.75 65.3711,66.18359 12.75,-12.75 -48.52149,-49.125 -11.32422,11.32422 -12.61718,-12.45312 11.48437,-11.48243 z"
                 transform="matrix(0.04409869,0,0,0.04409869,70.075728,266.03768)" />
              <path
                 d="m 56.309422,279.47683 c 0.38735,-0.38736 0.832054,-0.33001 1.334115,0.17205 l 1.348427,1.34843 -0.592198,0.5922 -1.312665,-1.31265 c -0.09683,-0.0969 -0.195168,-0.15048 -0.294988,-0.16091 -0.09836,-0.0118 -0.189263,0.0238 -0.272694,0.10729 -0.08344,0.0833 -0.113982,0.18547 -0.09161,0.30616 0.02384,0.11921 0.09609,0.23912 0.216766,0.35979 l 2.336686,2.38601 -0.592199,0.5922 -3.170243,-3.21956 0.592199,-0.5922 0.38438,0.38437 c -0.08939,-0.14898 -0.12589,-0.31359 -0.1095,-0.49386 0.01639,-0.18028 0.09087,-0.33672 0.223463,-0.4693 z"
                 style="font-weight:bold;font-stretch:ultra-condensed;font-size:3.65623px;line-height:0.9;font-family:'Creato Display';-inkscape-font-specification:'Antonio Bold Ultra-Condensed';letter-spacing:0px;fill:#000000;fill-opacity:1;stroke-width:0.0559006"
                 id="path202014"
                 sodipodi:nodetypes="csccscscscccccscc"
                 transform="translate(-1.4488038e-6)" />
              <path
                 d="m 48.576546,288.23343 v -8.70401 h 1.325383 v 7.57644 h 1.67651 v 1.12757 z"
                 style="font-weight:bold;font-stretch:ultra-condensed;font-family:Antonio;-inkscape-font-specification:'Antonio Bold Ultra-Condensed';fill:#000000"
                 id="path202016" />
              <path
                 id="path202018"
                 style="font-weight:bold;font-stretch:ultra-condensed;font-family:Antonio;-inkscape-font-specification:'Antonio Bold Ultra-Condensed';fill:#000000;stroke-width:5.74185"
                 d="m -391.35938,303.58984 c -29.53157,0 -44.29882,18.0938 -44.29882,54.2793 v 90.27539 c 0,19.21433 3.5152,33.60619 10.54297,43.17578 7.10253,9.49507 18.20442,14.24414 33.30664,14.24414 15.17698,0 26.20377,-4.74907 33.08203,-14.24414 6.87824,-9.49491 10.31836,-23.88677 10.31836,-43.17578 v -90.27539 c 0,-8.65228 -0.79576,-16.28883 -2.38672,-22.9082 l -7.1836,7.18359 -12.61718,-12.45312 12.18359,-12.18164 c -0.0301,-0.0415 -0.0596,-0.0837 -0.0898,-0.125 -6.65396,-9.19589 -17.60567,-13.79493 -32.85743,-13.79493 z m -0.2246,26.01758 c 5.15868,0 8.59685,2.16757 10.3164,6.50391 1.79433,4.2615 2.69141,11.06475 2.69141,20.41015 v 91.95899 c 0,11.36405 -0.85857,19.40129 -2.57813,24.11133 -1.71956,4.63536 -5.30789,6.95312 -10.76562,6.95312 -5.45774,0 -9.08458,-2.27931 -10.87891,-6.83984 -1.71955,-4.56053 -2.58008,-12.63621 -2.58008,-24.22461 v -92.07031 c 0,-9.27072 1.01069,-16.03733 3.0293,-20.29883 2.09338,-4.33634 5.68171,-6.50391 10.76563,-6.50391 z"
                 transform="matrix(0.04409869,0,0,0.04409869,70.075728,266.03768)" />
              <path
                 d="m 58.034648,288.23343 v -8.70401 h 2.917821 v 1.1424 h -1.592438 v 2.53208 h 1.51331 v 1.11767 h -1.51331 v 2.76946 h 1.651783 v 1.1424 z"
                 style="font-weight:bold;font-stretch:ultra-condensed;font-family:Antonio;-inkscape-font-specification:'Antonio Bold Ultra-Condensed';fill:#000000"
                 id="path202020" />
            </g>
          </g>
        </g>
      </g>
      <g
         id="g203237"
         clip-path="url(#clipPath203241)">
        <ellipse
           style="opacity:0.354405;fill:#9137e4;fill-opacity:1;stroke:none;stroke-width:0.0361695;stroke-linecap:square;stroke-opacity:1;filter:url(#filter203232)"
           id="path203096"
           cx="67.564423"
           cy="290.22662"
           rx="16.158926"
           ry="8.079463"
           transform="matrix(0.91577166,0,0,1.3158631,5.1793973,-85.967223)" />
        <ellipse
           style="opacity:0.290862;fill:#ffb25b;fill-opacity:1;stroke:none;stroke-width:0.0361695;stroke-linecap:square;stroke-opacity:1;filter:url(#filter204223)"
           id="ellipse203841"
           cx="67.564423"
           cy="290.22662"
           rx="16.158926"
           ry="8.079463"
           transform="matrix(0.91577166,0,0,1.3158631,-14.539885,-115.43404)" />
      </g>
      <g
         id="g202157">
        <path
           id="path189410"
           style="font-weight:bold;font-stretch:ultra-condensed;font-size:7.95256px;line-height:1.2;font-family:Antonio;-inkscape-font-specification:'Antonio Bold Ultra-Condensed';text-align:center;letter-spacing:-0.62336px;text-anchor:middle;fill:url(#linearGradient202924);fill-opacity:1;stroke-width:5.43414"
           d="M -487.52344 126.68164 L -487.52344 293.51367 L -459.08008 293.51367 L -459.08008 225.91797 L -425.96484 225.91797 L -425.96484 201.08203 L -459.08008 201.08203 L -459.08008 151.41016 L -423.41797 151.41016 L -423.41797 126.68164 L -487.52344 126.68164 z M -404.05273 126.68164 L -429.41211 304.50586 C -421.7708 297.46196 -411.80511 293.24235 -400.67969 291.75977 L -399.27539 280.15234 L -369.13281 280.15234 L -367.05078 295.7168 C -359.77866 298.80011 -353.5668 303.47109 -348.97852 309.8125 C -348.11401 310.99697 -347.30277 312.21986 -346.53906 313.47852 L -338.14258 313.47852 L -366.48047 126.68164 L -404.05273 126.68164 z M -335.65039 126.68164 L -335.65039 293.0625 L -282.64453 293.0625 L -282.64453 268.86328 L -307.20703 268.86328 L -307.20703 126.68164 L -335.65039 126.68164 z M -271.91992 126.68164 L -271.91992 293.0625 L -207.49609 293.0625 L -207.49609 268.86328 L -243.47656 268.86328 L -243.47656 126.68164 L -271.91992 126.68164 z M -385.05469 163.50977 L -384.62891 163.50977 L -372.10547 257.33398 L -396.51562 257.33398 L -385.05469 163.50977 z "
           transform="matrix(0.03658612,0,0,0.03658612,67.752034,268.4393)" />
        <g
           id="g189438"
           transform="matrix(0.82964171,0,0,0.82964171,9.6142867,47.723344)">
          <g
             aria-label="LO       E"
             id="g189436"
             style="font-size:10.1283px;line-height:1.2;font-family:'Creato Display';-inkscape-font-specification:'Creato Display';text-align:center;letter-spacing:-1.32292px;text-anchor:middle;stroke-width:0.253208">
            <g
               id="g202004">
              <path
                 id="path189422"
                 style="opacity:1;fill:url(#linearGradient201601);fill-opacity:1;stroke:none;stroke-width:7.7322;stroke-linecap:square;stroke-linejoin:miter;stroke-miterlimit:4;stroke-dasharray:none;stroke-opacity:1"
                 d="M -356.91016 341.07617 L -357.97852 342.14453 L -358.60156 341.5293 L -372.08398 387.07617 L -356.99609 402.16406 L -324.06445 373.46094 L -356.91016 341.07617 z "
                 transform="matrix(0.04409869,0,0,0.04409869,70.075729,266.03768)" />
              <path
                 style="opacity:1;fill:url(#linearGradient201783);fill-opacity:1;stroke:none;stroke-width:0.629233;stroke-linecap:square;stroke-linejoin:miter;stroke-miterlimit:4;stroke-dasharray:none;stroke-opacity:1"
                 d="M 56.314745,287.85192 54.2197,285.69225 v -2.16431 l 2.095045,2.26638 2.154107,-2.26638 v 2.16431 z"
                 id="path189424"
                 sodipodi:nodetypes="ccccccc"
                 transform="translate(-1.4488038e-6)" />
              <path
                 id="path189426"
                 style="font-weight:bold;font-stretch:ultra-condensed;font-size:3.65623px;line-height:0.9;font-family:'Creato Display';-inkscape-font-specification:'Antonio Bold Ultra-Condensed';letter-spacing:0px;fill:#ffffff;fill-opacity:1;stroke-width:1.20348"
                 d="M -363.50391 313.76172 L -376.25391 326.51172 L -310.88281 392.69531 L -298.13281 379.94531 L -346.6543 330.82031 L -357.97852 342.14453 L -370.5957 329.69141 L -359.11133 318.20898 L -363.50391 313.76172 z "
                 transform="matrix(0.04409869,0,0,0.04409869,70.075728,266.03768)" />
              <path
                 d="m 56.309422,279.47683 c 0.38735,-0.38736 0.832054,-0.33001 1.334115,0.17205 l 1.348427,1.34843 -0.592198,0.5922 -1.312665,-1.31265 c -0.09683,-0.0969 -0.195168,-0.15048 -0.294988,-0.16091 -0.09836,-0.0118 -0.189263,0.0238 -0.272694,0.10729 -0.08344,0.0833 -0.113982,0.18547 -0.09161,0.30616 0.02384,0.11921 0.09609,0.23912 0.216766,0.35979 l 2.336686,2.38601 -0.592199,0.5922 -3.170243,-3.21956 0.592199,-0.5922 0.38438,0.38437 c -0.08939,-0.14898 -0.12589,-0.31359 -0.1095,-0.49386 0.01639,-0.18028 0.09087,-0.33672 0.223463,-0.4693 z"
                 style="font-weight:bold;font-stretch:ultra-condensed;font-size:3.65623px;line-height:0.9;font-family:'Creato Display';-inkscape-font-specification:'Antonio Bold Ultra-Condensed';letter-spacing:0px;fill:#ffffff;fill-opacity:1;stroke-width:0.0559006"
                 id="path189428"
                 sodipodi:nodetypes="csccscscscccccscc"
                 transform="translate(-1.4488038e-6)" />
              <path
                 d="m 48.576546,288.23343 v -8.70401 h 1.325383 v 7.57644 h 1.67651 v 1.12757 z"
                 style="font-weight:bold;font-stretch:ultra-condensed;font-family:Antonio;-inkscape-font-specification:'Antonio Bold Ultra-Condensed';fill:#ff5555"
                 id="path189430" />
              <path
                 id="path189432"
                 style="font-weight:bold;font-stretch:ultra-condensed;font-family:Antonio;-inkscape-font-specification:'Antonio Bold Ultra-Condensed';fill:#ff5555;stroke-width:5.74185"
                 d="M -391.35938 303.58984 C -420.89095 303.58984 -435.6582 321.68364 -435.6582 357.86914 L -435.6582 448.14453 C -435.6582 467.35886 -432.143 481.75072 -425.11523 491.32031 C -418.0127 500.81538 -406.91081 505.56445 -391.80859 505.56445 C -376.63161 505.56445 -365.60482 500.81538 -358.72656 491.32031 C -351.84832 481.8254 -348.4082 467.43354 -348.4082 448.14453 L -348.4082 357.86914 C -348.4082 349.21686 -349.20396 341.58031 -350.79492 334.96094 L -357.97852 342.14453 L -370.5957 329.69141 L -358.41211 317.50977 C -358.44219 317.4683 -358.47174 317.42606 -358.50195 317.38477 C -365.15591 308.18888 -376.10762 303.58984 -391.35938 303.58984 z M -391.58398 329.60742 C -386.4253 329.60742 -382.98713 331.77499 -381.26758 336.11133 C -379.47325 340.37283 -378.57617 347.17608 -378.57617 356.52148 L -378.57617 448.48047 C -378.57617 459.84452 -379.43474 467.88176 -381.1543 472.5918 C -382.87386 477.22716 -386.46219 479.54492 -391.91992 479.54492 C -397.37766 479.54492 -401.0045 477.26561 -402.79883 472.70508 C -404.51838 468.14455 -405.37891 460.06887 -405.37891 448.48047 L -405.37891 356.41016 C -405.37891 347.13944 -404.36822 340.37283 -402.34961 336.11133 C -400.25623 331.77499 -396.6679 329.60742 -391.58398 329.60742 z "
                 transform="matrix(0.04409869,0,0,0.04409869,70.075728,266.03768)" />
              <path
                 d="m 58.034648,288.23343 v -8.70401 h 2.917821 v 1.1424 h -1.592438 v 2.53208 h 1.51331 v 1.11767 h -1.51331 v 2.76946 h 1.651783 v 1.1424 z"
                 style="font-weight:bold;font-stretch:ultra-condensed;font-family:Antonio;-inkscape-font-specification:'Antonio Bold Ultra-Condensed';fill:#ff5555"
                 id="path189434" />
            </g>
          </g>
        </g>
        <path
           d="m 54.656193,280.72887 -0.233157,-0.2301 0.235592,-0.23559 0.233157,0.2301 z"
           style="font-weight:bold;font-stretch:ultra-condensed;font-size:3.65623px;line-height:0.9;font-family:'Creato Display';-inkscape-font-specification:'Antonio Bold Ultra-Condensed';letter-spacing:0px;fill:#ffffff;fill-opacity:1;stroke-width:0.0222386"
           id="path189442"
           sodipodi:nodetypes="ccccc" />
      </g>
    </g>
    <path
       id="path204927"
       style="font-weight:bold;font-stretch:ultra-condensed;font-size:7.95256px;line-height:1.2;font-family:Antonio;-inkscape-font-specification:'Antonio Bold Ultra-Condensed';text-align:center;letter-spacing:-0.62336px;text-anchor:middle;fill:#ff2a2a;fill-opacity:1;stroke-width:1.43778"
       d="m -266.15883,74.185964 v 44.140976 h 7.52564 v -17.88469 h 8.76174 v -6.571181 h -8.76174 v -13.14235 h 9.4356 v -6.542755 z m 22.08496,0 -6.70967,47.049326 c 2.02176,-1.8637 4.65852,-2.98013 7.60212,-3.3724 l 0.37156,-3.07113 h 7.97522 l 0.55087,4.11809 c 1.92408,0.8158 3.56764,2.05166 4.78162,3.72949 0.22874,0.31339 0.44338,0.63695 0.64544,0.96997 h 2.22157 l -7.49773,-49.423346 z m 18.09812,0 v 44.021606 h 14.02447 v -6.40271 h -6.49883 V 74.185964 Z m 16.86202,0 v 44.021606 h 17.04548 v -6.40271 h -9.51984 V 74.185964 Z m -29.93357,9.74411 h 0.11265 l 3.31349,24.824326 h -6.45852 z" />
    <path
       style="opacity:1;fill:none;fill-opacity:1;stroke:#000000;stroke-width:2.222;stroke-linecap:round;stroke-miterlimit:4;stroke-dasharray:none;stroke-opacity:1"
       id="circle205315"
       sodipodi:type="arc"
       sodipodi:cx="-289.84381"
       sodipodi:cy="147.6915"
       sodipodi:rx="12.057574"
       sodipodi:ry="12.057574"
       sodipodi:start="2.6811232"
       sodipodi:end="0.32529125"
       sodipodi:arc-type="arc"
       d="m -300.64552,153.04951 a 12.057574,12.057574 0 0 1 2.83168,-14.40587 12.057574,12.057574 0 0 1 14.648,-0.99155 12.057574,12.057574 0 0 1 4.74728,13.89282"
       sodipodi:open="true" />
    <path
       style="opacity:1;fill:none;fill-opacity:1;stroke:#000000;stroke-width:2.222;stroke-linecap:round;stroke-linejoin:round;stroke-miterlimit:4;stroke-dasharray:none;stroke-opacity:1"
       id="path205532"
       sodipodi:type="arc"
       sodipodi:cx="-120.81353"
       sodipodi:cy="-314.39407"
       sodipodi:rx="12.057574"
       sodipodi:ry="12.057574"
       sodipodi:start="4.3050415"
       sodipodi:end="1.3938207"
       sodipodi:arc-type="arc"
       d="m -125.59044,-325.46504 a 12.057574,12.057574 0 0 1 12.69699,1.97936 12.057574,12.057574 0 0 1 3.7012,12.30579 12.057574,12.057574 0 0 1 -9.4985,8.65506"
       sodipodi:open="true"
       transform="matrix(0.73793109,0.67487607,0.67487607,-0.73793109,0,0)" />
    <text
       xml:space="preserve"
       style="font-size:52.615px;line-height:1.2;font-family:'Creato Display';-inkscape-font-specification:'Creato Display';text-align:center;letter-spacing:0px;text-anchor:middle;stroke-width:1.31538"
       x="-168.19392"
       y="312.94135"
       id="text206803"
       transform="rotate(42.151975)"><tspan
         sodipodi:role="line"
         id="tspan206801"
         style="font-style:normal;font-variant:normal;font-weight:900;font-stretch:normal;font-family:'Creato Display';-inkscape-font-specification:'Creato Display Heavy';stroke-width:1.31538"
         x="-168.19392"
         y="312.94135">S</tspan></text>
    <circle
       style="opacity:1;fill:#ffffff;fill-opacity:1;stroke:none;stroke-width:2.222;stroke-linecap:round;stroke-linejoin:round;stroke-miterlimit:4;stroke-dasharray:none;stroke-opacity:1"
       id="path208277"
       cx="-311.78995"
       cy="90.810272"
       r="24.086618" />
  </g>
</svg>
