<?xml version="1.0" encoding="UTF-8" standalone="no"?>
<!-- Created with Inkscape (http://www.inkscape.org/) -->

<svg
   width="210mm"
   height="297mm"
   viewBox="0 0 210 297"
   version="1.1"
   id="svg5"
   inkscape:version="1.2.2 (732a01da63, 2022-12-09)"
   sodipodi:docname="LogoMagniVIIcent.svg"
   xmlns:inkscape="http://www.inkscape.org/namespaces/inkscape"
   xmlns:sodipodi="http://sodipodi.sourceforge.net/DTD/sodipodi-0.dtd"
   xmlns="http://www.w3.org/2000/svg"
   xmlns:svg="http://www.w3.org/2000/svg">
  <sodipodi:namedview
     id="namedview7"
     pagecolor="#ffffff"
     bordercolor="#666666"
     borderopacity="1.0"
     inkscape:showpageshadow="2"
     inkscape:pageopacity="0.0"
     inkscape:pagecheckerboard="0"
     inkscape:deskcolor="#d1d1d1"
     inkscape:document-units="mm"
     showgrid="false"
     inkscape:zoom="1.3480463"
     inkscape:cx="679.50188"
     inkscape:cy="757.39238"
     inkscape:window-width="1350"
     inkscape:window-height="699"
     inkscape:window-x="7"
     inkscape:window-y="0"
     inkscape:window-maximized="0"
     inkscape:current-layer="layer1" />
  <defs
     id="defs2" />
  <g
     inkscape:label="Layer 1"
     inkscape:groupmode="layer"
     id="layer1">
    <text
       xml:space="preserve"
       style="font-style:normal;font-weight:normal;font-size:10.5833px;line-height:1.25;font-family:Celliad;fill:#000000;fill-opacity:1;stroke:none;stroke-width:0.264583;-inkscape-font-specification:'Celliad, Normal';font-stretch:normal;font-variant:normal;font-variant-ligatures:normal;font-variant-caps:normal;font-variant-numeric:normal;font-variant-east-asian:normal"
       x="30.532711"
       y="111.02804"
       id="text186"><tspan
         sodipodi:role="line"
         id="tspan184"
         style="font-style:normal;font-variant:normal;font-weight:normal;font-stretch:normal;font-family:Celliad;-inkscape-font-specification:'Celliad, Normal';stroke-width:0.264583;font-size:10.58330002px;font-variant-ligatures:normal;font-variant-caps:normal;font-variant-numeric:normal;font-variant-east-asian:normal"
         x="30.532711"
         y="111.02804">MAGNIVIICENT</tspan></text>
    <text
       xml:space="preserve"
       style="font-style:normal;font-variant:normal;font-weight:normal;font-stretch:normal;font-size:10.5833px;line-height:1.25;font-family:'Coral Lovers';-inkscape-font-specification:'Coral Lovers, Normal';font-variant-ligatures:normal;font-variant-caps:normal;font-variant-numeric:normal;font-variant-east-asian:normal;fill:#000000;fill-opacity:1;stroke:none;stroke-width:0.264583"
       x="30.532711"
       y="133.78879"
       id="text290"><tspan
         sodipodi:role="line"
         id="tspan288"
         style="font-style:normal;font-variant:normal;font-weight:normal;font-stretch:normal;font-size:10.58330002px;font-family:'Coral Lovers';-inkscape-font-specification:'Coral Lovers, Normal';font-variant-ligatures:normal;font-variant-caps:normal;font-variant-numeric:normal;font-variant-east-asian:normal;stroke-width:0.264583"
         x="30.532711"
         y="133.78879">MAGNIVIICENT</tspan></text>
    <text
       xml:space="preserve"
       style="font-style:normal;font-variant:normal;font-weight:normal;font-stretch:normal;font-size:10.5833px;line-height:1.25;font-family:Enfolding;-inkscape-font-specification:'Enfolding, Normal';font-variant-ligatures:normal;font-variant-caps:normal;font-variant-numeric:normal;font-variant-east-asian:normal;fill:#000000;fill-opacity:1;stroke:none;stroke-width:0.264583"
       x="30.532711"
       y="147.72408"
       id="text402"><tspan
         sodipodi:role="line"
         id="tspan400"
         style="font-style:normal;font-variant:normal;font-weight:normal;font-stretch:normal;font-size:10.58330002px;font-family:Enfolding;-inkscape-font-specification:'Enfolding, Normal';font-variant-ligatures:normal;font-variant-caps:normal;font-variant-numeric:normal;font-variant-east-asian:normal;stroke-width:0.264583"
         x="30.532711"
         y="147.72408">MAGNIVIICENT</tspan></text>
    <text
       xml:space="preserve"
       style="font-style:normal;font-variant:normal;font-weight:normal;font-stretch:normal;font-size:10.5833px;line-height:1.25;font-family:Figtree;-inkscape-font-specification:'Figtree, Normal';font-variant-ligatures:normal;font-variant-caps:normal;font-variant-numeric:normal;font-variant-east-asian:normal;fill:#000000;fill-opacity:1;stroke:none;stroke-width:0.264583"
       x="30.532711"
       y="163.42581"
       id="text406"><tspan
         sodipodi:role="line"
         id="tspan404"
         style="font-style:normal;font-variant:normal;font-weight:normal;font-stretch:normal;font-size:10.58330002px;font-family:Figtree;-inkscape-font-specification:'Figtree, Normal';font-variant-ligatures:normal;font-variant-caps:normal;font-variant-numeric:normal;font-variant-east-asian:normal;stroke-width:0.264583"
         x="30.532711"
         y="163.42581">MAGNIVIICENT</tspan></text>
    <text
       xml:space="preserve"
       style="font-style:normal;font-variant:normal;font-weight:normal;font-stretch:normal;font-size:10.5833px;line-height:1.25;font-family:'Kanopi Brazil';-inkscape-font-specification:'Kanopi Brazil, Normal';font-variant-ligatures:normal;font-variant-caps:normal;font-variant-numeric:normal;font-variant-east-asian:normal;fill:#000000;fill-opacity:1;stroke:none;stroke-width:0.264583"
       x="30.532711"
       y="177.75365"
       id="text410"><tspan
         sodipodi:role="line"
         id="tspan408"
         style="font-style:normal;font-variant:normal;font-weight:normal;font-stretch:normal;font-size:10.58330002px;font-family:'Kanopi Brazil';-inkscape-font-specification:'Kanopi Brazil, Normal';font-variant-ligatures:normal;font-variant-caps:normal;font-variant-numeric:normal;font-variant-east-asian:normal;stroke-width:0.264583"
         x="30.532711"
         y="177.75365">MAGNIVIICENT</tspan></text>
    <text
       xml:space="preserve"
       style="font-style:normal;font-variant:normal;font-weight:normal;font-stretch:normal;font-size:10.5833px;line-height:1.25;font-family:'League Gothic';-inkscape-font-specification:'League Gothic, Normal';font-variant-ligatures:normal;font-variant-caps:normal;font-variant-numeric:normal;font-variant-east-asian:normal;fill:#000000;fill-opacity:1;stroke:none;stroke-width:0.264583"
       x="30.532711"
       y="190.51131"
       id="text414"><tspan
         sodipodi:role="line"
         id="tspan412"
         style="font-style:normal;font-variant:normal;font-weight:normal;font-stretch:normal;font-size:10.58330002px;font-family:'League Gothic';-inkscape-font-specification:'League Gothic, Normal';font-variant-ligatures:normal;font-variant-caps:normal;font-variant-numeric:normal;font-variant-east-asian:normal;stroke-width:0.264583"
         x="30.532711"
         y="190.51131">MAGNIVIICENT</tspan></text>
    <text
       xml:space="preserve"
       style="font-style:normal;font-variant:normal;font-weight:normal;font-stretch:normal;font-size:10.5833px;line-height:1.25;font-family:'The Rumor';-inkscape-font-specification:'The Rumor, Normal';font-variant-ligatures:normal;font-variant-caps:normal;font-variant-numeric:normal;font-variant-east-asian:normal;fill:#000000;fill-opacity:1;stroke:none;stroke-width:0.264583"
       x="30.532711"
       y="206.21304"
       id="text418"><tspan
         sodipodi:role="line"
         id="tspan416"
         style="font-style:normal;font-variant:normal;font-weight:normal;font-stretch:normal;font-size:10.58330002px;font-family:'The Rumor';-inkscape-font-specification:'The Rumor, Normal';font-variant-ligatures:normal;font-variant-caps:normal;font-variant-numeric:normal;font-variant-east-asian:normal;stroke-width:0.264583"
         x="30.532711"
         y="206.21304">MAGNIVIICENT</tspan></text>
    <text
       xml:space="preserve"
       style="font-style:normal;font-variant:normal;font-weight:bold;font-stretch:normal;font-size:10.5833px;line-height:1.25;font-family:'Playfair 144pt';-inkscape-font-specification:'Playfair 144pt, Bold';font-variant-ligatures:normal;font-variant-caps:normal;font-variant-numeric:normal;font-variant-east-asian:normal;fill:#000000;fill-opacity:1;stroke:none;stroke-width:0.264583"
       x="30.532711"
       y="219.75578"
       id="text422"><tspan
         sodipodi:role="line"
         id="tspan420"
         style="font-style:normal;font-variant:normal;font-weight:bold;font-stretch:normal;font-size:10.58330002px;font-family:'Playfair 144pt';-inkscape-font-specification:'Playfair 144pt, Bold';font-variant-ligatures:normal;font-variant-caps:normal;font-variant-numeric:normal;font-variant-east-asian:normal;stroke-width:0.264583"
         x="30.532711"
         y="219.75578">MAGNIVIICENT</tspan></text>
    <text
       xml:space="preserve"
       style="font-style:normal;font-variant:normal;font-weight:bold;font-stretch:normal;font-size:10.5833px;line-height:1.25;font-family:'Playfair 144pt';-inkscape-font-specification:'Playfair 144pt, Bold';font-variant-ligatures:normal;font-variant-caps:normal;font-variant-numeric:normal;font-variant-east-asian:normal;fill:#000000;fill-opacity:1;stroke:none;stroke-width:0.264583"
       x="75.675201"
       y="189.92249"
       id="text426"><tspan
         sodipodi:role="line"
         id="tspan424"
         style="font-style:normal;font-variant:normal;font-weight:bold;font-stretch:normal;font-size:10.5833px;font-family:'Playfair 144pt';-inkscape-font-specification:'Playfair 144pt, Bold';font-variant-ligatures:normal;font-variant-caps:normal;font-variant-numeric:normal;font-variant-east-asian:normal;stroke-width:0.264583"
         x="75.675201"
         y="189.92249">MAGNIVIICENT</tspan></text>
    <g
       aria-label="MAGNIVIICENT"
       id="text430"
       style="font-size:10.5833px;line-height:1.25;font-family:Celliad;-inkscape-font-specification:'Celliad, Normal';stroke-width:0.264583">
      <path
         d="m 105.7577,112.66845 c 0,-1.87324 0.16933,-4.98473 0.83608,-8.80531 0,-0.16933 -0.13758,-0.254 -0.30691,-0.254 -0.11642,0 -0.23284,0.0212 -0.26459,0.0953 l -3.00565,6.06424 c -0.37042,0.75141 -0.635,1.04774 -0.80433,1.04774 -0.13759,0 -0.1905,-0.0635 -0.1905,-0.1905 l -0.21167,-6.07481 c -0.0212,-0.60325 -0.22225,-0.86783 -0.5715,-0.86783 -0.35983,0 -0.5715,0.34925 -0.79374,1.40758 l -1.566333,7.37656 c -0.01058,0.0423 -0.01058,0.0741 -0.01058,0.10583 0,0.127 0.05292,0.16933 0.126999,0.16933 0.08467,0 0.179917,-0.0635 0.201083,-0.13758 l 1.598074,-7.49298 c 0.17992,-0.85724 0.27517,-1.11124 0.4445,-1.11124 0.13759,0 0.24342,0.14816 0.254,0.55033 l 0.21167,6.07481 c 0.0106,0.3175 0.15875,0.508 0.508,0.508 0.26458,0 0.58208,-0.1905 1.05833,-1.143 l 3.00565,-6.06423 c -0.59266,2.29658 -0.87841,6.77332 -0.87841,8.74181 0,0.16933 0.0741,0.34925 0.21167,0.34925 0.10583,0 0.14816,-0.17992 0.14816,-0.34925 z"
         id="path432" />
      <path
         d="m 112.12886,109.66279 -1.06892,0.0847 v -0.99483 c 0,-1.69333 0.14817,-3.59832 0.254,-4.80482 0,-0.0847 -0.14816,-0.22225 -0.26458,-0.22225 -0.0741,0 -0.16933,0.0635 -0.29633,0.30692 l -3.18558,5.96898 -1.11124,0.0847 c -0.15875,0 -0.24342,0.0529 -0.24342,0.15875 0,0.10584 0.0847,0.15875 0.24342,0.15875 l 0.94191,-0.0635 -1.05833,1.97908 c -0.0317,0.0635 -0.0635,0.14817 -0.0635,0.22225 0,0.0953 0.0318,0.15875 0.11642,0.15875 0.0423,0 0.127,-0.0212 0.16933,-0.10583 l 1.21708,-2.286 2.93157,-0.22225 c 0.0529,1.5875 0.22225,2.57175 0.65617,2.83633 0.0106,0.0106 0.0318,0.0106 0.0423,0.0106 0.0635,0 0.13759,-0.0741 0.13759,-0.16933 0,-0.0529 -0.0212,-0.10583 -0.0741,-0.15875 -0.254,-0.27517 -0.35983,-1.143 -0.40216,-2.53999 l 1.05833,-0.0847 c 0.15875,0 0.24341,-0.0529 0.24341,-0.15875 0,-0.10583 -0.0847,-0.15875 -0.24341,-0.15875 z m -1.15358,-5.35515 c -0.10584,0.508 -0.27517,2.46591 -0.27517,4.44499 0,0.35983 0,0.6985 0.0106,1.016 l -2.75165,0.21166 z"
         id="path434" />
      <path
         d="m 118.56351,109.63104 c -0.78316,1.50283 -2.05316,2.77283 -3.28082,2.77283 -1.2065,0 -1.93675,-0.99483 -1.93675,-2.52941 0,-3.05858 1.778,-5.8314 4.11691,-5.8314 0.98424,0 1.44991,0.40217 1.44991,1.2065 0,0.74083 -0.47625,1.30174 -1.06891,1.67216 -0.0953,0.0635 -0.13759,0.127 -0.13759,0.1905 0,0.0635 0.0529,0.0847 0.10584,0.0847 0.0529,0 0.10583,-0.0106 0.13758,-0.0212 0.71966,-0.29634 1.32291,-1.143 1.32291,-1.92616 0,-1.05833 -0.6985,-1.524 -1.80974,-1.524 -2.73049,0 -4.47674,3.32316 -4.47674,6.1489 0,1.83091 0.93133,2.84691 2.29658,2.84691 1.24883,0 2.42357,-1.2065 3.17499,-2.52941 -0.17992,0.78316 -0.48683,1.80974 -0.48683,2.42357 0,0.127 0.0953,0.21167 0.20108,0.21167 0.0635,0 0.0952,-0.0741 0.0952,-0.21167 0,-0.86783 0.67733,-2.68816 0.67733,-3.23849 0,-0.62441 -0.56092,-0.80433 -1.10066,-0.80433 -0.67733,0 -1.59808,0.33867 -1.651,0.48683 -0.0212,0.0529 -0.0318,0.10584 -0.0318,0.14817 0,0.0741 0.0318,0.11642 0.0847,0.11642 0.0212,0 0.0529,-0.0106 0.0847,-0.0212 0.48684,-0.24342 1.03717,-0.41275 1.51342,-0.41275 0.43391,0 0.74083,0.16933 0.74083,0.48683 0,0.0741 -0.0106,0.15875 -0.0212,0.254 z"
         id="path436" />
      <path
         d="m 123.73875,112.72137 c 0.17992,0 0.28575,-0.11642 0.32808,-0.3175 l 1.00542,-5.29165 c 0.47625,-2.48708 0.78316,-2.67758 1.41816,-3.14324 0,-0.0847 -0.0212,-0.24342 -0.0847,-0.24342 -0.78316,0 -1.29116,1.24883 -1.69333,3.38666 l -1.00541,5.29165 -0.68791,-5.23874 c -0.254,-1.89441 -0.42334,-2.7199 -1.143,-2.7199 -0.41275,0 -0.81491,0.38099 -1.06891,1.58749 l -1.23825,5.90548 c 0,0.15875 0.0635,0.254 0.15875,0.254 0.11642,0 0.15875,-0.11642 0.21167,-0.37041 l 1.18533,-5.52449 c 0.254,-1.17474 0.43391,-1.53458 0.75141,-1.53458 0.41275,0 0.5715,0.42334 0.8255,2.40241 l 0.6985,5.36574 c 0.0212,0.15875 0.16933,0.1905 0.33866,0.1905 z"
         id="path438" />
      <path
         d="m 128.02499,112.5097 c 0.381,0 0.56092,-0.0847 0.56092,-0.15875 0,-0.0847 -0.1905,-0.15875 -0.56092,-0.15875 -0.59266,0 -1.09008,0 -1.51341,0.0106 0.0423,-0.0529 0.0847,-0.15875 0.11642,-0.28574 l 1.64041,-7.71523 c 0,-0.0317 -0.0423,-0.0741 -0.0847,-0.11642 0.53975,-0.0318 1.0795,-0.0423 1.64042,-0.0423 0.38099,0 0.56091,-0.0847 0.56091,-0.15875 0,-0.0847 -0.1905,-0.15875 -0.56091,-0.15875 -1.28058,0 -3.16441,0.127 -3.69358,0.28575 -0.15875,0.0423 -0.27516,0.15875 -0.27516,0.24342 0,0.0529 0.0423,0.0847 0.14816,0.0847 0.0318,0 0.0741,0 0.127,-0.0106 0.65617,-0.11642 1.24883,-0.17992 1.83091,-0.22225 -0.0318,0.0423 -0.0635,0.11642 -0.0847,0.24342 l -1.64041,7.7258 c 0,0.0635 0,0.10584 0.0106,0.13759 -0.98425,0.0423 -1.49224,0.127 -1.64041,0.254 -0.0529,0.0423 -0.10583,0.11641 -0.10583,0.15875 0,0.0318 0.0423,0.0635 0.127,0.0635 0.0212,0 0.0529,-0.0106 0.0847,-0.0106 0.39158,-0.0529 2.08491,-0.16933 3.31257,-0.16933 z"
         id="path440" />
      <path
         d="m 135.14379,103.04281 c 0,-0.20139 -0.23692,-0.41463 -0.5094,-0.41463 -0.0592,0 -0.10656,0 -0.15399,0.0238 -0.40278,0.18955 -0.9951,1.45712 -1.61112,3.03271 l -1.78882,4.58456 c -0.4857,1.24389 -0.88847,2.09683 -1.12541,2.09683 -0.49755,0 -0.92403,-0.54494 -0.92403,-3.86195 0,-1.93097 0.18955,-3.43548 0.28432,-3.93302 0,-0.13031 -0.083,-0.17769 -0.21324,-0.17769 -0.1303,0 -0.14216,0.0474 -0.18953,0.0948 -0.16586,0.36725 -0.28432,1.70589 -0.28432,4.01595 0,3.17486 0.52124,4.21734 1.3268,4.21734 0.43832,0 0.97142,-1.03064 1.52819,-2.45222 l 1.78882,-4.58458 c 0.90033,-2.3219 1.23203,-2.66545 1.64665,-2.66545 0.0592,0 0.14216,0.083 0.18955,0.083 0.0237,0 0.0356,-0.0238 0.0356,-0.0592 z"
         id="path442"
         style="fill:#ff6600;stroke-width:0.296162" />
      <path
         d="m 134.676,112.53757 c 0.32201,0 0.47407,-0.0716 0.47407,-0.13418 0,-0.0716 -0.161,-0.13417 -0.47407,-0.13417 -0.50091,0 -0.92131,0 -1.2791,0.009 0.0358,-0.0447 0.0716,-0.13417 0.0984,-0.2415 l 1.38644,-6.52073 c 0,-0.0268 -0.0358,-0.0626 -0.0716,-0.0984 0.45619,-0.0269 0.91237,-0.0358 1.38644,-0.0358 0.32201,0 0.47407,-0.0716 0.47407,-0.13417 0,-0.0716 -0.161,-0.13417 -0.47407,-0.13417 -1.08232,0 -2.67448,0.10734 -3.12172,0.24151 -0.13417,0.0358 -0.23256,0.13417 -0.23256,0.20573 0,0.0447 0.0358,0.0716 0.12522,0.0716 0.0268,0 0.0626,0 0.10734,-0.009 0.55458,-0.0984 1.05548,-0.15206 1.54744,-0.18784 -0.0269,0.0357 -0.0537,0.0984 -0.0716,0.20573 l -1.38644,6.52967 c 0,0.0537 0,0.0894 0.009,0.11628 -0.83187,0.0358 -1.26122,0.10734 -1.38644,0.21468 -0.0447,0.0357 -0.0894,0.0984 -0.0894,0.13417 0,0.0269 0.0358,0.0537 0.10734,0.0537 0.0179,0 0.0447,-0.009 0.0716,-0.009 0.33096,-0.0447 1.76212,-0.14311 2.79971,-0.14311 z"
         id="path444"
         style="fill:#ff6600;stroke-width:0.223619" />
      <path
         d="m 138.0268,112.05182 c 0.32201,0 0.47408,-0.0716 0.47408,-0.13418 0,-0.0716 -0.16101,-0.13417 -0.47408,-0.13417 -0.5009,0 -0.9213,0 -1.2791,0.009 0.0358,-0.0447 0.0716,-0.13417 0.0984,-0.2415 l 1.38644,-6.52073 c 0,-0.0268 -0.0358,-0.0626 -0.0716,-0.0984 0.45618,-0.0269 0.91237,-0.0358 1.38644,-0.0358 0.32201,0 0.47407,-0.0716 0.47407,-0.13417 0,-0.0716 -0.161,-0.13417 -0.47407,-0.13417 -1.08231,0 -2.67448,0.10734 -3.12172,0.24151 -0.13418,0.0358 -0.23256,0.13417 -0.23256,0.20573 0,0.0447 0.0358,0.0716 0.12522,0.0716 0.0269,0 0.0626,0 0.10734,-0.009 0.55458,-0.0984 1.05548,-0.15206 1.54745,-0.18784 -0.0268,0.0357 -0.0537,0.0984 -0.0716,0.20573 l -1.38644,6.52967 c 0,0.0537 0,0.0894 0.009,0.11628 -0.83186,0.0358 -1.2612,0.10734 -1.38643,0.21468 -0.0447,0.0357 -0.0894,0.0984 -0.0894,0.13417 0,0.0269 0.0357,0.0537 0.10734,0.0537 0.0179,0 0.0447,-0.009 0.0716,-0.009 0.33095,-0.0447 1.76211,-0.14311 2.7997,-0.14311 z"
         id="path446"
         style="fill:#ff6600;stroke-width:0.223619" />
      <path
         d="m 144.83129,110.54121 c 0.0212,-0.0212 0.0318,-0.0529 0.0318,-0.0741 0,-0.0847 -0.0318,-0.11641 -0.0741,-0.11641 -0.0741,0 -0.20108,0.0847 -0.254,0.127 -1.42875,1.35466 -2.43416,1.92616 -3.66182,1.92616 -1.2065,0 -1.93675,-0.99483 -1.93675,-2.52941 0,-3.05858 1.778,-5.8314 4.11691,-5.8314 0.98424,0 1.44991,0.508 1.44991,1.41816 0,0.84667 -0.47625,1.72508 -1.06891,2.0955 -0.0953,0.0635 -0.13759,0.127 -0.13759,0.1905 0,0.0635 0.0529,0.0847 0.10584,0.0847 0.0529,0 0.10583,-0.0106 0.13758,-0.0212 0.71966,-0.29633 1.32291,-1.46049 1.32291,-2.34949 0,-1.16416 -0.6985,-1.73566 -1.80974,-1.73566 -2.73049,0 -4.47674,3.32316 -4.47674,6.1489 0,1.83091 0.93133,2.84691 2.29658,2.84691 1.40758,0 2.70932,-0.8255 3.95815,-2.18016 z"
         id="path448" />
      <path
         d="m 149.86895,107.96946 -3.38665,0.34925 0.82549,-3.01624 c 0,-0.0847 -0.0741,-0.13758 -0.13758,-0.13758 -0.10583,0 -0.20108,0.0423 -0.27517,0.30692 l -0.78316,2.88924 -0.37042,0.0317 c -0.15874,0 -0.24341,0.0529 -0.24341,0.15875 0,0.10583 0.0847,0.15875 0.24341,0.15875 l 0.28575,-0.0318 -0.70908,2.61407 c -0.0317,0.127 -0.0529,0.24342 -0.0529,0.37042 0,0.57149 0.34925,1.09008 1.00541,1.09008 0.0952,0 0.1905,-0.0106 0.29633,-0.0318 l 3.34432,-0.71967 c 0.15875,-0.0318 0.22225,-0.127 0.22225,-0.20108 0,-0.0635 -0.0423,-0.127 -0.14816,-0.127 -0.0212,0 -0.0423,0 -0.0741,0.0106 l -3.34432,0.71967 c -0.11641,0.0212 -0.20108,0.0318 -0.29633,0.0318 -0.45508,0 -0.64558,-0.28575 -0.64558,-0.77258 0,-0.11642 0.0106,-0.24342 0.0529,-0.381 l 0.71967,-2.63524 3.47132,-0.35984 c 0.15875,0 0.24342,-0.0529 0.24342,-0.15875 0,-0.10583 -0.0847,-0.15875 -0.24342,-0.15875 z m -4.85773,-2.62465 c 0,-0.68792 3.46074,-1.30175 5.91606,-1.30175 1.57691,0 1.42875,1.06891 1.75683,1.06891 0.0741,0 0.13758,-0.0212 0.13758,-0.10583 0,-0.47625 -0.46566,-1.28058 -1.89441,-1.28058 -1.90499,0 -6.2759,0.52917 -6.2759,1.61925 0,0.127 0.0741,0.17991 0.15875,0.17991 0.0953,0 0.20109,-0.0741 0.20109,-0.17991 z"
         id="path450" />
      <path
         d="m 154.30334,112.72137 c 0.17992,0 0.28575,-0.11642 0.32809,-0.3175 l 1.00541,-5.29165 c 0.47625,-2.48708 0.78316,-2.67758 1.41816,-3.14324 0,-0.0847 -0.0212,-0.24342 -0.0847,-0.24342 -0.78316,0 -1.29116,1.24883 -1.69332,3.38666 l -1.00542,5.29165 -0.68791,-5.23874 c -0.254,-1.89441 -0.42333,-2.7199 -1.143,-2.7199 -0.41275,0 -0.81491,0.38099 -1.06891,1.58749 l -1.23825,5.90548 c 0,0.15875 0.0635,0.254 0.15875,0.254 0.11642,0 0.15875,-0.11642 0.21167,-0.37041 l 1.18533,-5.52449 c 0.254,-1.17474 0.43391,-1.53458 0.75141,-1.53458 0.41275,0 0.5715,0.42334 0.8255,2.40241 l 0.6985,5.36574 c 0.0212,0.15875 0.16933,0.1905 0.33866,0.1905 z"
         id="path452" />
      <path
         d="m 159.0235,104.31823 c 0,-0.0318 -0.0635,-0.0952 -0.127,-0.127 1.06892,-0.0953 2.13783,-0.14817 2.76225,-0.14817 1.38641,0 1.44991,1.06891 1.75682,1.06891 0.0741,0 0.13759,-0.0212 0.13759,-0.10583 0,-0.47625 -0.77258,-1.28058 -1.89441,-1.28058 -1.41817,0 -3.31258,0.17992 -4.76249,0.39158 -0.47625,0.0635 -1.30174,0.22225 -1.55574,0.28575 -0.0847,0.0212 -0.127,0.10584 -0.127,0.17992 0,0.10583 0.0741,0.16933 0.15875,0.16933 0.0212,0 0.0529,0 0.0847,-0.0106 0.17992,-0.0635 1.04775,-0.23283 1.43933,-0.30692 0.52917,-0.0953 1.18533,-0.16933 1.8415,-0.23283 -0.0423,0.0318 -0.0741,0.11642 -0.10584,0.26458 l -1.70391,8.04331 c 0,0.15875 0.0423,0.21167 0.11642,0.21167 0.127,0 0.22225,-0.11642 0.27516,-0.37042 z"
         id="path454" />
    </g>
    <g
       aria-label="MAGNIVIICENT"
       id="text494"
       style="font-size:10.5833px;line-height:1.25;font-family:'Coral Lovers';-inkscape-font-specification:'Coral Lovers, Normal';stroke-width:0.264583" />
    <g
       id="g8635">
      <text
         xml:space="preserve"
         style="font-style:normal;font-variant:normal;font-weight:normal;font-stretch:normal;font-size:10.5833px;line-height:1.25;font-family:Figtree;-inkscape-font-specification:'Figtree, Normal';font-variant-ligatures:normal;font-variant-caps:normal;font-variant-numeric:normal;font-variant-east-asian:normal;fill:#000000;fill-opacity:1;stroke:none;stroke-width:0.264583"
         x="117.96793"
         y="163.42581"
         id="text2393"><tspan
           sodipodi:role="line"
           id="tspan2391"
           style="font-style:normal;font-variant:normal;font-weight:normal;font-stretch:normal;font-size:10.5833px;font-family:Figtree;-inkscape-font-specification:'Figtree, Normal';font-variant-ligatures:normal;font-variant-caps:normal;font-variant-numeric:normal;font-variant-east-asian:normal;stroke-width:0.264583"
           x="117.96793"
           y="163.42581">MAGNI<tspan
   style="font-style:normal;font-variant:normal;font-weight:800;font-stretch:normal;font-family:Figtree;-inkscape-font-specification:'Figtree Ultra-Bold';fill:#ff6600"
   id="tspan2395">VII</tspan>CENT</tspan></text>
      <text
         xml:space="preserve"
         style="font-style:normal;font-variant:normal;font-weight:normal;font-stretch:normal;font-size:2.65745px;line-height:1.25;font-family:Figtree;-inkscape-font-specification:'Figtree, Normal';font-variant-ligatures:normal;font-variant-caps:normal;font-variant-numeric:normal;font-variant-east-asian:normal;letter-spacing:0.864048px;fill:#000000;fill-opacity:1;stroke:none;stroke-width:0.0664364"
         x="130.41838"
         y="167.52548"
         id="text3168"><tspan
           sodipodi:role="line"
           id="tspan3166"
           style="font-style:normal;font-variant:normal;font-weight:300;font-stretch:normal;font-size:2.65745px;font-family:Figtree;-inkscape-font-specification:'Figtree Light';font-variant-ligatures:normal;font-variant-caps:normal;font-variant-numeric:normal;font-variant-east-asian:normal;stroke-width:0.0664364"
           x="130.41838"
           y="167.52548">ISTIQLAL ISLAMIC SCHOOL</tspan></text>
      <rect
         style="fill:#000000;fill-opacity:1;stroke:none;stroke-width:0.0263272;stroke-dasharray:none"
         id="rect3222"
         width="1.4980675"
         height="1.4980675"
         x="219.7345"
         y="-2.1040554"
         transform="rotate(45)" />
      <path
         id="rect4747"
         style="fill:#ff6600;fill-opacity:1;stroke:none;stroke-width:0.03204;stroke-dasharray:none"
         d="m 171.19452,158.44415 c -0.009,0.77106 -0.62749,1.39002 -1.39855,1.39856 v 0.002 c 0.77106,0.009 1.39001,0.62749 1.39855,1.39855 h 0.002 c 0.009,-0.77106 0.6275,-1.39001 1.39856,-1.39855 v -0.002 c -0.77106,-0.009 -1.39002,-0.6275 -1.39856,-1.39856 z" />
    </g>
    <rect
       style="fill:#1a1a1a;fill-opacity:1;stroke:none;stroke-width:0.1;stroke-dasharray:none"
       id="rect8626"
       width="37.471962"
       height="37.471962"
       x="162.10094"
       y="193.18878" />
    <g
       id="g8651"
       transform="matrix(0.35347816,0,0,0.35347816,125.57672,155.00595)"
       style="fill:#ffffff">
      <text
         xml:space="preserve"
         style="font-style:normal;font-variant:normal;font-weight:normal;font-stretch:normal;font-size:10.5833px;line-height:1.25;font-family:Figtree;-inkscape-font-specification:'Figtree, Normal';font-variant-ligatures:normal;font-variant-caps:normal;font-variant-numeric:normal;font-variant-east-asian:normal;fill:#ffffff;fill-opacity:1;stroke:none;stroke-width:0.264583"
         x="117.96793"
         y="163.42581"
         id="text8641"><tspan
           sodipodi:role="line"
           id="tspan8639"
           style="font-style:normal;font-variant:normal;font-weight:normal;font-stretch:normal;font-size:10.5833px;font-family:Figtree;-inkscape-font-specification:'Figtree, Normal';font-variant-ligatures:normal;font-variant-caps:normal;font-variant-numeric:normal;font-variant-east-asian:normal;fill:#ffffff;stroke-width:0.264583"
           x="117.96793"
           y="163.42581">MAGNI<tspan
   style="font-style:normal;font-variant:normal;font-weight:800;font-stretch:normal;font-family:Figtree;-inkscape-font-specification:'Figtree Ultra-Bold';fill:#ff6600"
   id="tspan8637">VII</tspan>CENT</tspan></text>
      <text
         xml:space="preserve"
         style="font-style:normal;font-variant:normal;font-weight:normal;font-stretch:normal;font-size:2.65745px;line-height:1.25;font-family:Figtree;-inkscape-font-specification:'Figtree, Normal';font-variant-ligatures:normal;font-variant-caps:normal;font-variant-numeric:normal;font-variant-east-asian:normal;letter-spacing:0.864048px;fill:#ffffff;fill-opacity:1;stroke:none;stroke-width:0.0664364"
         x="130.41838"
         y="167.52548"
         id="text8645"><tspan
           sodipodi:role="line"
           id="tspan8643"
           style="font-style:normal;font-variant:normal;font-weight:300;font-stretch:normal;font-size:2.65745px;font-family:Figtree;-inkscape-font-specification:'Figtree Light';font-variant-ligatures:normal;font-variant-caps:normal;font-variant-numeric:normal;font-variant-east-asian:normal;fill:#ffffff;stroke-width:0.0664364"
           x="130.41838"
           y="167.52548">ISTIQLAL ISLAMIC SCHOOL</tspan></text>
      <rect
         style="fill:#ffffff;fill-opacity:1;stroke:none;stroke-width:0.0263272;stroke-dasharray:none"
         id="rect8647"
         width="1.4980675"
         height="1.4980675"
         x="219.7345"
         y="-2.1040554"
         transform="rotate(45)" />
      <path
         id="path8649"
         style="fill:#ff6600;fill-opacity:1;stroke:none;stroke-width:0.03204;stroke-dasharray:none"
         d="m 171.19452,158.44415 c -0.009,0.77106 -0.62749,1.39002 -1.39855,1.39856 v 0.002 c 0.77106,0.009 1.39001,0.62749 1.39855,1.39855 h 0.002 c 0.009,-0.77106 0.6275,-1.39001 1.39856,-1.39855 v -0.002 c -0.77106,-0.009 -1.39002,-0.6275 -1.39856,-1.39856 z" />
    </g>
  </g>
</svg>
