<?xml version="1.0" encoding="UTF-8" standalone="no"?>
<!-- Created with Inkscape (http://www.inkscape.org/) -->

<svg
   width="210mm"
   height="297mm"
   viewBox="0 0 210 297"
   version="1.1"
   id="svg5"
   inkscape:version="1.2.2 (732a01da63, 2022-12-09)"
   sodipodi:docname="sertifikatWisuda.svg"
   xmlns:inkscape="http://www.inkscape.org/namespaces/inkscape"
   xmlns:sodipodi="http://sodipodi.sourceforge.net/DTD/sodipodi-0.dtd"
   xmlns:xlink="http://www.w3.org/1999/xlink"
   xmlns="http://www.w3.org/2000/svg"
   xmlns:svg="http://www.w3.org/2000/svg">
  <sodipodi:namedview
     id="namedview7"
     pagecolor="#ffffff"
     bordercolor="#666666"
     borderopacity="1.0"
     inkscape:pageshadow="2"
     inkscape:pageopacity="0.0"
     inkscape:pagecheckerboard="0"
     inkscape:document-units="mm"
     showgrid="false"
     inkscape:snap-global="false"
     inkscape:zoom="0.5894754"
     inkscape:cx="1495.3974"
     inkscape:cy="273.12421"
     inkscape:window-width="1366"
     inkscape:window-height="715"
     inkscape:window-x="-8"
     inkscape:window-y="-8"
     inkscape:window-maximized="1"
     inkscape:current-layer="layer1"
     inkscape:showpageshadow="2"
     inkscape:deskcolor="#d1d1d1" />
  <defs
     id="defs2">
    <linearGradient
       inkscape:collect="always"
       id="linearGradient11911">
      <stop
         style="stop-color:#ff9d00;stop-opacity:1;"
         offset="0"
         id="stop11907" />
      <stop
         style="stop-color:#ffffff;stop-opacity:1"
         offset="1"
         id="stop11909" />
    </linearGradient>
    <linearGradient
       inkscape:collect="always"
       id="linearGradient3015">
      <stop
         style="stop-color:#ffa700;stop-opacity:1;"
         offset="0"
         id="stop3011" />
      <stop
         style="stop-color:#ff6600;stop-opacity:1"
         offset="1"
         id="stop3013" />
    </linearGradient>
    <linearGradient
       inkscape:collect="always"
       id="linearGradient2713">
      <stop
         style="stop-color:#808080;stop-opacity:1;"
         offset="0"
         id="stop2709" />
      <stop
         style="stop-color:#808080;stop-opacity:0;"
         offset="1"
         id="stop2711" />
    </linearGradient>
    <clipPath
       clipPathUnits="userSpaceOnUse"
       id="clipPath113126">
      <rect
         style="fill:#ffffff;fill-opacity:1;stroke:none;stroke-width:0.64439;stroke-linecap:square"
         id="rect113128"
         width="210"
         height="297"
         x="-209.54396"
         y="-15.443998"
         transform="rotate(-90)" />
    </clipPath>
    <clipPath
       clipPathUnits="userSpaceOnUse"
       id="clipPath6436-2-5-7-56-7-03-3">
      <circle
         r="18.674574"
         cy="-222.91019"
         cx="-159.05081"
         id="circle6438-3-9-5-9-5-4-6"
         style="opacity:0.25;fill:#ffffff;fill-opacity:1;fill-rule:nonzero;stroke:none;stroke-width:1.50976;stroke-linecap:round;stroke-linejoin:round;stroke-miterlimit:4;stroke-dasharray:none;stroke-dashoffset:0;stroke-opacity:1;paint-order:fill markers stroke" />
    </clipPath>
    <clipPath
       clipPathUnits="userSpaceOnUse"
       id="clipPath38108">
      <rect
         style="opacity:1;fill:none;fill-opacity:1;stroke:#333333;stroke-width:0.457999;stroke-linecap:round;stroke-miterlimit:4;stroke-dasharray:none;stroke-opacity:1"
         id="rect38110"
         width="52.963776"
         height="70.019875"
         x="451.53848"
         y="3.1419179"
         ry="5.3188152" />
    </clipPath>
    <clipPath
       clipPathUnits="userSpaceOnUse"
       id="clipPath2084">
      <path
         id="path2086"
         style="fill:none;stroke:#ffa700;stroke-width:1;stroke-linecap:round;stroke-miterlimit:4;stroke-dasharray:none;stroke-opacity:1"
         sodipodi:type="inkscape:offset"
         inkscape:radius="-6.8405838"
         inkscape:original="M 271.125 -10.265625 A 14.354578 14.354578 0 0 1 256.9082 3.3984375 A 14.354578 14.354578 0 0 1 256.75 3.3671875 L 256.75 160.82617 A 14.354578 14.354578 0 0 1 256.9082 160.79492 A 14.354578 14.354578 0 0 1 271.26172 175.15039 A 14.354578 14.354578 0 0 1 271.00195 176.46094 L 506.86523 176.46094 A 14.354578 14.354578 0 0 1 506.60547 175.15039 A 14.354578 14.354578 0 0 1 520.83398 160.82031 L 520.83398 3.375 A 14.354578 14.354578 0 0 1 520.71875 3.3984375 A 14.354578 14.354578 0 0 1 506.5 -10.265625 L 271.125 -10.265625 z "
         d="m 264.20703,-11.574219 c -0.12236,0.358542 -0.2794,1.439725 -0.37695,2.3203128 -0.18452,0.4833555 -0.29669,0.8045466 -0.44922,1.2988281 -0.27055,0.4376883 -0.43614,0.7294435 -0.67774,1.1835937 -0.34993,0.3807447 -0.57205,0.6381286 -0.89648,1.0410156 -0.41373,0.3070616 -0.67735,0.5163403 -1.07031,0.8496094 -0.46542,0.2242799 -0.76701,0.3806559 -1.2168,0.6347656 -0.49706,0.1322081 -0.819,0.2284236 -1.30664,0.3925782 -1.51008,0.10642 -3.9035,0.4335552 -1.36328,0.4121094 a 6.8412679,6.8412679 0 0 1 1.2793,0.1152343 6.8412679,6.8412679 0 0 1 5.46093,6.6933594 V 160.82617 a 6.8412679,6.8412679 0 0 1 -5.46093,6.69336 6.8412679,6.8412679 0 0 1 -1.22071,0.11524 c -2.08083,-1.6e-4 2.80713,0.24121 0.73633,0.0371 -2.0708,-0.20411 2.76934,0.51352 0.72852,0.10742 -2.04083,-0.4061 2.70603,0.78386 0.71484,0.17968 -1.99119,-0.60417 2.6177,1.04449 0.69531,0.24805 -1.92238,-0.79644 2.50108,1.29744 0.66602,0.31641 -1.83507,-0.98103 2.36288,1.53507 0.63281,0.3789 -1.73007,-1.15617 2.20021,1.75964 0.5918,0.43946 -1.60842,-1.32018 2.01815,1.96561 0.54687,0.49414 -1.47127,-1.47148 1.81606,2.15547 0.4961,0.54687 -1.31996,-1.60859 1.59343,2.32203 0.4375,0.5918 -1.15594,-1.73023 1.35968,2.46801 0.3789,0.63281 -0.98078,-1.8352 1.11259,2.59046 0.31641,0.66797 -0.79618,-1.92249 0.85195,2.68463 0.24805,0.69336 -0.60391,-1.99127 0.5855,2.75572 0.17968,0.71484 -0.40582,-2.04087 0.31125,2.8013 0.10743,0.73047 -0.0692,-0.70297 0.005,-0.10603 0.0117,0.25 1.16426,-5.38724 -2.44414,9.90594 -0.0351,0.15625 a 6.8412679,6.8412679 0 0 1 0.041,-0.0625 c 0.0328,0.74171 0.0195,1.50196 0.0195,0.39258 a 6.8412679,6.8412679 0 0 1 0.0351,-0.47851 6.8412679,6.8412679 0 0 1 6.54492,-5.05079 h 235.86328 a 6.8412679,6.8412679 0 0 1 6.56641,5.08399 6.8412679,6.8412679 0 0 1 0.0137,0.45703 c -0.004,2.52939 0.31854,0.1007 0.41602,-1.4082 0.16909,-0.49659 0.27135,-0.83313 0.40625,-1.33985 0.26437,-0.45768 0.43164,-0.77479 0.66406,-1.25 0.34666,-0.39636 0.57175,-0.67049 0.89063,-1.08984 0.41741,-0.32199 0.69127,-0.55026 1.08593,-0.90039 0.47278,-0.23548 0.78716,-0.40475 1.24219,-0.67188 0.50866,-0.13925 0.84855,-0.24448 1.3457,-0.41797 1.50936,-0.10901 3.92284,-0.44599 1.39844,-0.42382 a 6.8412679,6.8412679 0 0 1 -6.90039,-6.83985 V 3.375 a 6.8412679,6.8412679 0 0 1 5.4375,-6.6894531 6.8412679,6.8412679 0 0 1 1.34375,-0.1269531 c 2.53765,0.021079 0.15126,-0.3035405 -1.35937,-0.4101563 -0.4894,-0.1647882 -0.8136,-0.2619931 -1.3125,-0.3945313 -0.44985,-0.2540108 -0.74994,-0.4108276 -1.21485,-0.6347656 -0.39291,-0.3331602 -0.65671,-0.5426971 -1.07031,-0.8496094 -0.32446,-0.4028693 -0.54652,-0.6602915 -0.89648,-1.0410156 -0.24161,-0.4541415 -0.40716,-0.7459164 -0.67774,-1.1835937 -0.15255,-0.4942792 -0.26469,-0.8154764 -0.44922,-1.2988281 -0.16677,-1.5054018 -0.58483,-3.8736518 -0.46289,-1.3398438 A 6.8412679,6.8412679 0 0 1 506.5,-3.4257812 H 271.125 a 6.8412679,6.8412679 0 0 1 -6.83203,-7.1679688 c 0.0506,-1.051679 8.8e-4,-1.234868 -0.0859,-0.980469 z"
         transform="matrix(1.0517473,0,0,1.0517473,-20.122773,-4.3055863)" />
    </clipPath>
    <linearGradient
       inkscape:collect="always"
       xlink:href="#linearGradient2713"
       id="linearGradient2715"
       x1="466.55103"
       y1="-97.753548"
       x2="250.92824"
       y2="63.725952"
       gradientUnits="userSpaceOnUse" />
    <linearGradient
       inkscape:collect="always"
       xlink:href="#linearGradient3015"
       id="linearGradient3017"
       x1="422.75235"
       y1="52.050587"
       x2="382.09555"
       y2="203.78381"
       gradientUnits="userSpaceOnUse"
       gradientTransform="matrix(0.97044532,0,0,0.97044532,17.565826,13.381317)" />
    <linearGradient
       inkscape:collect="always"
       xlink:href="#linearGradient3015"
       id="linearGradient3021"
       gradientUnits="userSpaceOnUse"
       x1="409.24634"
       y1="23.61688"
       x2="426.87863"
       y2="155.44652"
       gradientTransform="matrix(0.81032181,0,0,0.81032181,92.248507,18.20934)" />
    <linearGradient
       inkscape:collect="always"
       xlink:href="#linearGradient11911"
       id="linearGradient11913"
       x1="467.0575"
       y1="31.139893"
       x2="495.83698"
       y2="79.132957"
       gradientUnits="userSpaceOnUse"
       gradientTransform="matrix(1.2343908,0.12413455,-0.12413455,1.2343908,-105.73836,-76.269642)" />
  </defs>
  <g
     inkscape:label="Layer 1"
     inkscape:groupmode="layer"
     id="layer1">
    <rect
       style="fill:#333333;stroke:none;stroke-width:7.10635;stroke-linecap:round"
       id="rect1343"
       width="255.97673"
       height="362.02423"
       x="-211.08607"
       y="207.77994"
       transform="rotate(-90)" />
    <g
       id="g14432"
       inkscape:export-filename="sertiSample.png"
       inkscape:export-xdpi="96"
       inkscape:export-ydpi="96">
      <rect
         style="fill:#ffffff;stroke:none;stroke-width:5.82996;stroke-linecap:round"
         id="rect846"
         width="210"
         height="297"
         x="-188.0977"
         y="240.29205"
         transform="rotate(-90)" />
      <g
         id="g2082"
         clip-path="url(#clipPath2084)">
        <path
           style="color:#000000;fill:url(#linearGradient3017);fill-opacity:1;stroke-width:0.970444;stroke-linecap:round;-inkscape-stroke:none;paint-order:markers stroke fill"
           d="m 514.98728,27.708653 c -75.95847,0 -138.13303,62.174556 -138.13303,138.133037 0,75.95847 62.17456,138.13492 138.13303,138.13492 75.95848,0 138.13493,-62.17645 138.13493,-138.13492 0,-75.958481 -62.17645,-138.133037 -138.13493,-138.133037 z m 0,55.870734 c 45.76277,10e-7 82.2623,36.499533 82.2623,82.262303 0,45.76276 -36.49953,82.26229 -82.2623,82.26229 -45.76276,0 -82.2604,-36.49953 -82.2604,-82.26229 0,-45.76277 36.49764,-82.262303 82.2604,-82.262303 z"
           id="path1221" />
        <path
           style="color:#000000;fill:url(#linearGradient3021);fill-opacity:1;stroke-width:0.810321;stroke-linecap:round;-inkscape-stroke:none;paint-order:markers stroke fill"
           d="m 507.5954,30.172664 c -63.42532,0 -115.34107,51.915753 -115.34107,115.341076 0,63.42533 51.91575,115.34266 115.34107,115.34266 63.42533,0 115.34266,-51.91733 115.34266,-115.34266 0,-63.425323 -51.91733,-115.341076 -115.34266,-115.341076 z m 0,46.652061 c 38.21191,10e-7 68.68901,30.477115 68.68901,68.689015 0,38.21191 -30.4771,68.68902 -68.68901,68.68902 -38.2119,0 -68.68743,-30.47711 -68.68743,-68.68902 0,-38.2119 30.47553,-68.689015 68.68743,-68.689015 z"
           id="path3019" />
        <path
           style="color:#000000;fill:url(#linearGradient2715);stroke-width:0.794865;stroke-linecap:round;-inkscape-stroke:none;paint-order:markers stroke fill;fill-opacity:1"
           d="m 284.6905,-165.5091 c -62.21547,0 -113.14093,50.92546 -113.14093,113.140937 0,62.2154751 50.92546,113.14248 113.14093,113.14248 62.21548,0 113.14249,-50.9270049 113.14249,-113.14248 0,-62.215477 -50.92701,-113.140937 -113.14249,-113.140937 z m 0,45.76217 c 37.48301,0 67.37877,29.895758 67.37877,67.378767 0,37.483003 -29.89576,67.378758 -67.37877,67.378758 -37.483,0 -67.37721,-29.895755 -67.37721,-67.378758 0,-37.483009 29.89421,-67.378767 67.37721,-67.378767 z"
           id="path2647" />
      </g>
      <g
         id="g16002"
         transform="matrix(1.0517473,0,0,1.0517473,-20.122773,-4.3055858)">
        <path
           id="rect3351"
           style="fill:none;stroke:#1a1a1a;stroke-width:1;stroke-linecap:round;stroke-miterlimit:4;stroke-dasharray:none"
           d="M 271.12518,-10.26554 A 14.354578,14.354578 0 0 1 256.90815,3.3978886 14.354578,14.354578 0 0 1 256.75013,3.3666028 V 160.82666 a 14.354578,14.354578 0 0 1 0.15802,-0.0313 14.354578,14.354578 0 0 1 14.35436,14.35437 14.354578,14.354578 0 0 1 -0.26089,1.31082 H 506.8656 a 14.354578,14.354578 0 0 1 -0.26091,-1.31082 14.354578,14.354578 0 0 1 14.22924,-14.32945 V 3.3745566 a 14.354578,14.354578 0 0 1 -0.11615,0.023332 14.354578,14.354578 0 0 1 -14.21702,-13.6634286 z" />
        <path
           id="path3657"
           style="fill:none;stroke:#ffa700;stroke-width:1;stroke-linecap:round;stroke-miterlimit:4;stroke-dasharray:none;stroke-opacity:1"
           sodipodi:type="inkscape:offset"
           inkscape:radius="-6.8405838"
           inkscape:original="M 271.125 -10.265625 A 14.354578 14.354578 0 0 1 256.9082 3.3984375 A 14.354578 14.354578 0 0 1 256.75 3.3671875 L 256.75 160.82617 A 14.354578 14.354578 0 0 1 256.9082 160.79492 A 14.354578 14.354578 0 0 1 271.26172 175.15039 A 14.354578 14.354578 0 0 1 271.00195 176.46094 L 506.86523 176.46094 A 14.354578 14.354578 0 0 1 506.60547 175.15039 A 14.354578 14.354578 0 0 1 520.83398 160.82031 L 520.83398 3.375 A 14.354578 14.354578 0 0 1 520.71875 3.3984375 A 14.354578 14.354578 0 0 1 506.5 -10.265625 L 271.125 -10.265625 z "
           d="m 264.20703,-11.574219 c -0.12236,0.358542 -0.2794,1.439725 -0.37695,2.3203128 -0.18452,0.4833555 -0.29669,0.8045466 -0.44922,1.2988281 -0.27055,0.4376883 -0.43614,0.7294435 -0.67774,1.1835937 -0.34993,0.3807447 -0.57205,0.6381286 -0.89648,1.0410156 -0.41373,0.3070616 -0.67735,0.5163403 -1.07031,0.8496094 -0.46542,0.2242799 -0.76701,0.3806559 -1.2168,0.6347656 -0.49706,0.1322081 -0.819,0.2284236 -1.30664,0.3925782 -1.51008,0.10642 -3.9035,0.4335552 -1.36328,0.4121094 a 6.8412679,6.8412679 0 0 1 1.2793,0.1152343 6.8412679,6.8412679 0 0 1 5.46093,6.6933594 V 160.82617 a 6.8412679,6.8412679 0 0 1 -5.46093,6.69336 6.8412679,6.8412679 0 0 1 -1.22071,0.11524 c -2.08083,-1.6e-4 2.80713,0.24121 0.73633,0.0371 -2.0708,-0.20411 2.76934,0.51352 0.72852,0.10742 -2.04083,-0.4061 2.70603,0.78386 0.71484,0.17968 -1.99119,-0.60417 2.6177,1.04449 0.69531,0.24805 -1.92238,-0.79644 2.50108,1.29744 0.66602,0.31641 -1.83507,-0.98103 2.36288,1.53507 0.63281,0.3789 -1.73007,-1.15617 2.20021,1.75964 0.5918,0.43946 -1.60842,-1.32018 2.01815,1.96561 0.54687,0.49414 -1.47127,-1.47148 1.81606,2.15547 0.4961,0.54687 -1.31996,-1.60859 1.59343,2.32203 0.4375,0.5918 -1.15594,-1.73023 1.35968,2.46801 0.3789,0.63281 -0.98078,-1.8352 1.11259,2.59046 0.31641,0.66797 -0.79618,-1.92249 0.85195,2.68463 0.24805,0.69336 -0.60391,-1.99127 0.5855,2.75572 0.17968,0.71484 -0.40582,-2.04087 0.31125,2.8013 0.10743,0.73047 -0.0692,-0.70297 0.005,-0.10603 0.0117,0.25 1.16426,-5.38724 -2.44414,9.90594 -0.0351,0.15625 a 6.8412679,6.8412679 0 0 1 0.041,-0.0625 c 0.0328,0.74171 0.0195,1.50196 0.0195,0.39258 a 6.8412679,6.8412679 0 0 1 0.0351,-0.47851 6.8412679,6.8412679 0 0 1 6.54492,-5.05079 h 235.86328 a 6.8412679,6.8412679 0 0 1 6.56641,5.08399 6.8412679,6.8412679 0 0 1 0.0137,0.45703 c -0.004,2.52939 0.31854,0.1007 0.41602,-1.4082 0.16909,-0.49659 0.27135,-0.83313 0.40625,-1.33985 0.26437,-0.45768 0.43164,-0.77479 0.66406,-1.25 0.34666,-0.39636 0.57175,-0.67049 0.89063,-1.08984 0.41741,-0.32199 0.69127,-0.55026 1.08593,-0.90039 0.47278,-0.23548 0.78716,-0.40475 1.24219,-0.67188 0.50866,-0.13925 0.84855,-0.24448 1.3457,-0.41797 1.50936,-0.10901 3.92284,-0.44599 1.39844,-0.42382 a 6.8412679,6.8412679 0 0 1 -6.90039,-6.83985 V 3.375 a 6.8412679,6.8412679 0 0 1 5.4375,-6.6894531 6.8412679,6.8412679 0 0 1 1.34375,-0.1269531 c 2.53765,0.021079 0.15126,-0.3035405 -1.35937,-0.4101563 -0.4894,-0.1647882 -0.8136,-0.2619931 -1.3125,-0.3945313 -0.44985,-0.2540108 -0.74994,-0.4108276 -1.21485,-0.6347656 -0.39291,-0.3331602 -0.65671,-0.5426971 -1.07031,-0.8496094 -0.32446,-0.4028693 -0.54652,-0.6602915 -0.89648,-1.0410156 -0.24161,-0.4541415 -0.40716,-0.7459164 -0.67774,-1.1835937 -0.15255,-0.4942792 -0.26469,-0.8154764 -0.44922,-1.2988281 -0.16677,-1.5054018 -0.58483,-3.8736518 -0.46289,-1.3398438 A 6.8412679,6.8412679 0 0 1 506.5,-3.4257812 H 271.125 a 6.8412679,6.8412679 0 0 1 -6.83203,-7.1679688 c 0.0506,-1.051679 8.8e-4,-1.234868 -0.0859,-0.980469 z" />
        <path
           id="path3796"
           style="fill:none;stroke:#999999;stroke-width:1;stroke-linecap:round;stroke-miterlimit:4;stroke-dasharray:none"
           sodipodi:type="inkscape:offset"
           inkscape:radius="-3.5331104"
           inkscape:original="M 271.125 -10.265625 C 271.94094 -1.6260602 262.22525 2.4700979 256.75 4.015625 L 256.75 160.82617 C 266.30992 159.12165 270.94221 170.74556 271.65039 176.46094 L 506.86523 176.46094 C 503.73589 166.4503 516.27107 162.40618 520.83398 159.52148 L 520.83398 3.375 C 511.29121 5.3059918 508.57349 -6.3686717 505.20117 -10.265625 L 271.125 -10.265625 z "
           d="m 274.41406,-6.7324219 c -0.79249,3.8682661 -3.24076,6.99067587 -5.97461,9.0761719 -2.6954,2.0561659 -5.56073,3.2557628 -8.15625,4.1582031 V 157.31641 c 4.33631,0.62852 7.87399,3.36947 10.10742,6.48632 2.14768,2.99718 3.27473,6.18469 4.00196,9.125 h 228.49609 c 0.0616,-1.55862 0.38402,-3.04041 0.96289,-4.35546 1.12785,-2.56221 2.98041,-4.4879 4.91992,-6.02344 3.13031,-2.47832 6.37054,-4.02186 8.5293,-5.14453 V 6.9726562 c -1.50114,-0.1868108 -2.90844,-0.5979721 -4.1289,-1.2519531 -2.31655,-1.2413163 -3.99516,-3.067371 -5.32813,-4.90624998 -2.18361,-3.01238142 -3.62435,-5.91104912 -4.59961,-7.54687502 z" />
      </g>
      <g
         id="g14193">
        <circle
           style="fill:#ffffff;fill-opacity:1;stroke:#ffe3b6;stroke-width:0.83368;stroke-linecap:round;stroke-dasharray:none;stroke-opacity:1;paint-order:markers stroke fill"
           id="path13899"
           cx="466.5748"
           cy="68.897774"
           r="9.5658369" />
        <path
           style="fill:none;stroke:#ffffff;stroke-width:0.837316;stroke-linecap:butt;stroke-linejoin:miter;stroke-dasharray:none;stroke-opacity:1"
           d="m 459.76939,31.147824 c 0,0 -14.96263,7.583329 -7.15311,20.296712 7.80953,12.71338 20.40663,11.708183 20.40663,11.708183 z"
           id="path10113"
           sodipodi:nodetypes="cscc" />
        <rect
           style="fill:#ffffff;fill-opacity:1;stroke:none;stroke-width:62.0307;stroke-linecap:round;stroke-dasharray:none;stroke-opacity:1;paint-order:markers stroke fill"
           id="rect10111"
           width="5.5684519"
           height="21.716961"
           x="480.73343"
           y="20.833691"
           transform="rotate(5.7425528)" />
        <path
           style="fill:none;stroke:#ffe3b6;stroke-width:0.837316;stroke-linecap:butt;stroke-linejoin:miter;stroke-dasharray:none;stroke-opacity:1"
           d="m 508.53355,36.051715 c 0,0 13.15309,10.410741 2.96853,21.314578 -10.18455,10.903833 -22.32926,7.410515 -22.32926,7.410515 z"
           id="path11690"
           sodipodi:nodetypes="cscc" />
        <path
           style="fill:url(#linearGradient11913);fill-opacity:1;stroke:none;stroke-width:0.349526px;stroke-linecap:butt;stroke-linejoin:miter;stroke-opacity:1"
           d="m 457.98979,18.050866 c 0,0 33.40261,-4.545881 57.88135,6.854823 0,0 -10.71306,55.098421 -36.73866,52.481198 -28.35977,-2.851955 -21.14269,-59.336021 -21.14269,-59.336021 z"
           id="path9959"
           sodipodi:nodetypes="ccsc" />
        <path
           style="fill:#ffffff;stroke:none;stroke-width:0.240329px;stroke-linecap:butt;stroke-linejoin:miter;stroke-opacity:1"
           d="m 478.77745,81.538003 c -6.044,-1.017562 -14.7229,9.344597 -15.61183,18.184084 -0.88892,8.839493 19.71054,12.096863 25.23932,5.542963 5.5288,-6.5539 -3.58347,-22.709484 -9.62749,-23.727047 z"
           id="path10057"
           sodipodi:nodetypes="zszz" />
        <circle
           style="fill:#ffffff;fill-opacity:1;stroke:none;stroke-width:1.02339;stroke-linecap:round;stroke-dasharray:none;stroke-opacity:1;paint-order:markers stroke fill"
           id="path10779"
           cx="485.44534"
           cy="-5.4776788"
           r="12.43332"
           transform="rotate(5.7425528)" />
        <circle
           style="fill:#ff9a00;fill-opacity:1;stroke:#ffe3b6;stroke-width:0.383869;stroke-linecap:round;stroke-dasharray:none;stroke-opacity:1;paint-order:markers stroke fill"
           id="circle13901"
           cx="449.96753"
           cy="33.887833"
           r="4.4045973" />
      </g>
    </g>
    <g
       id="g4985"
       inkscape:export-filename="D:\Ichsan\design\Istiqlal\Sekolah\Kelulusan 2021\Sertifikat_SMP.png"
       inkscape:export-xdpi="150.00539"
       inkscape:export-ydpi="150.00539"
       transform="translate(-143.24094,141.73461)">
      <rect
         style="fill:#ffffff;fill-opacity:1;stroke:none;stroke-width:0.644391;stroke-linecap:square"
         id="rect109735"
         width="210"
         height="297"
         x="-209.54396"
         y="-15.443998"
         transform="rotate(-90)" />
      <text
         id="text5868"
         y="157.54276"
         x="68.399773"
         style="font-size:4.03863px;line-height:1.25;font-family:Montserrat;-inkscape-font-specification:Montserrat;text-align:start;letter-spacing:0px;word-spacing:0px;text-anchor:start;stroke-width:0.411575"
         xml:space="preserve"><tspan
           id="tspan5866"
           style="font-style:normal;font-variant:normal;font-weight:normal;font-stretch:normal;font-size:4.03863px;font-family:Sen;-inkscape-font-specification:Sen;text-align:start;text-anchor:start;stroke-width:0.411575"
           y="157.54276"
           x="68.399773"
           sodipodi:role="line">Bekasi, 28 Juni 2021</tspan><tspan
           id="tspan5881"
           style="font-style:normal;font-variant:normal;font-weight:bold;font-stretch:normal;font-size:4.03863px;font-family:Sen;-inkscape-font-specification:'Sen Bold';text-align:start;text-anchor:start;stroke-width:0.411575"
           y="162.61836"
           x="68.399773"
           sodipodi:role="line">Kepala SMP Islam Istiqlal</tspan><tspan
           id="tspan5887"
           style="font-style:normal;font-variant:normal;font-weight:normal;font-stretch:normal;font-size:4.03863px;font-family:Sen;-inkscape-font-specification:Sen;text-align:start;text-anchor:start;stroke-width:0.411575"
           y="167.69395"
           x="68.399773"
           sodipodi:role="line" /><tspan
           id="tspan5897"
           style="font-style:normal;font-variant:normal;font-weight:normal;font-stretch:normal;font-size:4.03863px;font-family:Sen;-inkscape-font-specification:Sen;text-align:start;text-anchor:start;stroke-width:0.411575"
           y="172.76956"
           x="68.399773"
           sodipodi:role="line" /><tspan
           id="tspan5889"
           style="font-style:normal;font-variant:normal;font-weight:bold;font-stretch:normal;font-size:4.03863px;font-family:Sen;-inkscape-font-specification:'Sen Bold';text-align:start;text-anchor:start;stroke-width:0.411575"
           y="177.84517"
           x="68.399773"
           sodipodi:role="line">Sukandar, M.Pd</tspan><tspan
           id="tspan5891"
           style="font-style:normal;font-variant:normal;font-weight:normal;font-stretch:normal;font-size:4.03863px;font-family:Sen;-inkscape-font-specification:Sen;text-align:start;text-anchor:start;stroke-width:0.411575"
           y="182.92076"
           x="68.399773"
           sodipodi:role="line">NIPY : 201603009</tspan></text>
      <g
         id="g113000"
         clip-path="url(#clipPath113126)">
        <g
           id="g31459"
           transform="matrix(1.0818458,0,0,1.0818458,127.41427,-28.541324)">
          <g
             id="g33864">
            <path
               style="opacity:0.0694981;fill:#ffb98c;fill-opacity:1;stroke:none;stroke-width:0.582083;stroke-linecap:square;stroke-opacity:1"
               d="m -39.902034,221.35129 -82.744216,-63.42324 c 0,0 -23.5212,49.14251 -20.58105,51.66264 2.94014,2.52013 -6.72035,7.98041 33.18169,15.12077 39.902032,7.14036 66.363381,6.30032 66.363381,6.30032 z"
               id="path31067"
               sodipodi:nodetypes="ccsscc" />
            <path
               style="opacity:0.0694981;fill:#ffb98c;fill-opacity:1;stroke:none;stroke-width:0.582083;stroke-linecap:square;stroke-opacity:1"
               d="m -39.902034,221.35129 -85.684366,-58.803 c 0,0 -20.58105,44.52227 -17.6409,47.0424 2.94014,2.52013 -6.72035,7.98041 33.18169,15.12077 39.902032,7.14036 66.363381,6.30032 66.363381,6.30032 z"
               id="path30498"
               sodipodi:nodetypes="ccsscc" />
            <g
               id="g29484"
               transform="matrix(1.2673031,0,0,1.2673031,4.6563933,-54.378197)">
              <g
                 id="g29337"
                 transform="matrix(0.87439613,0,0,0.87439613,-16.779746,25.813066)">
                <path
                   style="fill:#ffccaa;fill-opacity:1;stroke:none;stroke-width:0.995796;stroke-linecap:square;stroke-opacity:1"
                   d="m -122.72726,206.01981 28.175913,-16.26738 -1.755192,47.76902 -46.744361,-12.19418 z"
                   id="path24423" />
                <path
                   style="fill:#ffbe94;fill-opacity:1;stroke:none;stroke-width:0.995796;stroke-linecap:square;stroke-opacity:1"
                   d="m -94.551347,189.75243 26.697901,6.10556 -28.453093,41.66346 z"
                   id="path25240" />
                <path
                   style="fill:#ffb98c;fill-opacity:1;stroke:none;stroke-width:0.995796;stroke-linecap:square;stroke-opacity:1"
                   d="m -67.853446,195.85799 15.242727,37.59873 -43.69582,4.06473 z"
                   id="path25242" />
                <path
                   style="fill:#ffccaa;fill-opacity:1;stroke:none;stroke-width:0.995796;stroke-linecap:square;stroke-opacity:1"
                   d="m -67.853446,195.85799 21.339819,9.14564 -6.097092,28.45309 z"
                   id="path25244" />
                <path
                   style="fill:#ffccaa;fill-opacity:1;stroke:none;stroke-width:0.995796;stroke-linecap:square;stroke-opacity:1"
                   d="m -46.513627,205.00363 20.323633,12.11297 6.097093,10.24303 z"
                   id="path25246"
                   sodipodi:nodetypes="cccc" />
                <path
                   style="fill:#ffb98c;fill-opacity:1;stroke:none;stroke-width:0.995796;stroke-linecap:square;stroke-opacity:1"
                   d="m -46.513627,205.00363 26.420726,22.356 -32.517818,6.09709 z"
                   id="path25248" />
                <path
                   style="fill:#ffb98c;fill-opacity:1;stroke:none;stroke-width:0.995796;stroke-linecap:square;stroke-opacity:1"
                   d="m -94.551347,189.75243 -22.028303,-21.00572 -6.14761,37.2731 z"
                   id="path25250"
                   sodipodi:nodetypes="cccc" />
              </g>
            </g>
          </g>
          <path
             id="path33866"
             style="opacity:0.660232;mix-blend-mode:difference;fill:#004aa7;fill-opacity:1;stroke:none;stroke-width:0.582083;stroke-linecap:square;stroke-opacity:1"
             d="m -142.24826,157.92783 c 0,0 -1.01189,2.13282 -2.36368,5.01623 l -0.57671,-0.39584 c 0,0 -3.20293,6.93837 -6.89622,15.4714 l -13.31081,-12.69224 -6.81199,41.3029 -22.5211,21.39507 51.79838,13.51288 48.4203,-4.50412 36.033978,-6.7567 -2.727484,-4.58215 1.699638,-4.34391 c -18.936723,-26.90431 -50.653332,-45.2887 -82.744302,-63.42352 z"
             sodipodi:nodetypes="ccccccccccccc" />
        </g>
        <g
           id="g19399"
           transform="matrix(0.65177832,-0.15048452,0.15048452,0.65177832,80.051799,141.12355)">
          <g
             id="use61240"
             transform="matrix(1.806635,1.0496413,-1.0496413,1.806635,407.93899,-281.09529)">
            <path
               id="path112188"
               style="fill:#ff8841;fill-opacity:1;stroke-width:0.651218;stroke-linecap:square"
               d="m 31.463943,188.28661 h 13.201054 c 0.6329,0 1.142419,0.50951 1.142419,1.14242 v 10.18678 c 0,0.6329 -0.509519,1.14242 -1.142419,1.14242 l -6.600527,2.00475 -6.600527,-2.00475 c -0.605584,-0.18393 -1.142419,-0.50952 -1.142419,-1.14242 v -10.18678 c 0,-0.63291 0.509519,-1.14242 1.142419,-1.14242 z"
               sodipodi:nodetypes="ssssscssss" />
            <rect
               style="fill:#ffffff;stroke-width:0.806528;stroke-linecap:square"
               id="rect112190"
               width="14.694919"
               height="14.694919"
               x="354.04932"
               y="314.4198"
               transform="matrix(0.96050802,0.27825229,-0.96050802,0.27825229,0,0)" />
            <rect
               style="fill:#5599ff;stroke-width:0.806528;stroke-linecap:square"
               id="rect112192"
               width="14.694919"
               height="14.694919"
               x="351.95892"
               y="312.32941"
               transform="matrix(0.96050802,0.27825229,-0.96050802,0.27825229,0,0)" />
            <rect
               style="fill:#ff8841;fill-opacity:1;stroke-width:0.596082;stroke-linecap:square"
               id="rect112194"
               width="1.0461084"
               height="6.9828563"
               x="29.786562"
               y="181.18393"
               transform="matrix(0.95358266,0.30113138,0,1,0,0)" />
          </g>
          <g
             id="use61232"
             transform="matrix(2.1259622,-0.50582402,0.50582402,2.1259622,36.704132,-199.32368)"
             style="opacity:1">
            <rect
               style="fill:#5599ff;fill-opacity:1;stroke:none;stroke-width:0.49033;stroke-linecap:square;stroke-opacity:1"
               id="rect112264"
               width="25.627415"
               height="18.47551"
               x="41.379025"
               y="160.23149" />
            <rect
               style="fill:none;fill-opacity:1;stroke:#ffffff;stroke-width:0.449438;stroke-linecap:square;stroke-opacity:1"
               id="rect112266"
               width="24.111105"
               height="16.498615"
               x="42.213245"
               y="161.21994" />
            <g
               id="g112272"
               transform="translate(0.78754018,0.17925536)"
               style="fill:#ff8841;fill-opacity:1">
              <rect
                 style="fill:#ff8841;fill-opacity:1;stroke:none;stroke-width:0.494671;stroke-linecap:square;stroke-opacity:1"
                 id="rect112268"
                 width="4.7572627"
                 height="2.1234"
                 x="58.645493"
                 y="175.20145"
                 ry="0.51975" />
              <rect
                 style="fill:#ff8841;fill-opacity:1;stroke:none;stroke-width:0.494671;stroke-linecap:square;stroke-opacity:1"
                 id="rect112270"
                 width="4.7572632"
                 height="1.0467728"
                 x="58.645493"
                 y="176.27808"
                 ry="0" />
            </g>
          </g>
          <g
             id="use61236"
             transform="matrix(1.2501119,0.43246794,-0.43246794,1.2501119,204.2148,-154.83012)">
            <rect
               style="fill:#ff8841;fill-opacity:1;stroke-width:0.582083;stroke-linecap:square"
               id="rect112242"
               width="3.7124999"
               height="3.7124999"
               x="62.963997"
               y="201.36601"
               ry="1.3365" />
            <g
               id="g112248"
               transform="translate(0,0.4455)">
              <rect
                 style="fill:#ff8841;fill-opacity:1;stroke-width:0.582404;stroke-linecap:square"
                 id="rect112244"
                 width="10.426773"
                 height="13.415207"
                 x="55.775295"
                 y="190.52849"
                 ry="0.71141255" />
              <rect
                 style="fill:#ff8841;fill-opacity:1;stroke-width:0.582404;stroke-linecap:square"
                 id="rect112246"
                 width="10.426773"
                 height="13.415207"
                 x="63.269539"
                 y="190.52849"
                 ry="0.71141255" />
            </g>
            <g
               id="g112254"
               transform="matrix(0.91547596,0,0,0.91547596,4.8846481,17.26319)"
               style="fill:#ffffff;fill-opacity:1">
              <rect
                 style="fill:#ffffff;fill-opacity:1;stroke-width:0.54904;stroke-linecap:square"
                 id="rect112250"
                 width="9.5409441"
                 height="13.029107"
                 x="56.982182"
                 y="182.88181"
                 ry="0.69093752"
                 transform="matrix(0.99316325,0.11673374,0,1,0,0)" />
              <rect
                 style="fill:#ffffff;fill-opacity:1;stroke-width:0.54904;stroke-linecap:square"
                 id="rect112252"
                 width="9.5409441"
                 height="13.029107"
                 x="-74.672089"
                 y="198.25031"
                 ry="0.69093752"
                 transform="matrix(-0.99316325,0.11673374,0,1,0,0)" />
            </g>
            <g
               id="g112260"
               transform="matrix(0.91547596,0,0,0.91547596,4.8846481,16.318142)">
              <rect
                 style="fill:#5599ff;fill-opacity:1;stroke-width:0.54904;stroke-linecap:square"
                 id="rect112256"
                 width="9.5409441"
                 height="13.029107"
                 x="56.982182"
                 y="182.88181"
                 ry="0.69093752"
                 transform="matrix(0.99316325,0.11673374,0,1,0,0)" />
              <rect
                 style="fill:#5599ff;fill-opacity:1;stroke-width:0.54904;stroke-linecap:square"
                 id="rect112258"
                 width="9.5409441"
                 height="13.029107"
                 x="-74.672089"
                 y="198.25031"
                 ry="0.69093752"
                 transform="matrix(-0.99316325,0.11673374,0,1,0,0)" />
            </g>
          </g>
        </g>
        <g
           id="g78594"
           transform="matrix(1.8874881,-2.2529808,2.2529808,1.8874881,73.554349,-541.71671)">
          <path
             style="opacity:0.509652;fill:#6c86b4;fill-opacity:1;stroke:none;stroke-width:0.582083;stroke-linecap:square;stroke-opacity:1"
             d="m -107.9455,170.10868 3.04515,6.93035 -9.34547,-4.83025 z"
             id="path78584"
             sodipodi:nodetypes="cccc" />
          <path
             style="opacity:1;fill:#6c86b4;fill-opacity:1;stroke:none;stroke-width:0.582083;stroke-linecap:square;stroke-opacity:1"
             d="m -101.39949,168.88223 -1.05006,3.67519 -2.31011,-2.73015 z"
             id="path78586"
             sodipodi:nodetypes="cccc" />
          <path
             style="opacity:1;fill:#ff8d3f;fill-opacity:1;stroke:none;stroke-width:0.291041;stroke-linecap:square;stroke-opacity:1"
             d="m -110.82724,167.64106 -0.52503,1.83759 -1.15505,-1.36507 z"
             id="path78588"
             sodipodi:nodetypes="cccc" />
          <path
             style="opacity:1;fill:#ff8d3f;fill-opacity:1;stroke:none;stroke-width:0.529803;stroke-linecap:square;stroke-opacity:1"
             d="m -101.73753,174.17079 -4.17043,3.99695 -1.754,-5.19645 z"
             id="path78590"
             sodipodi:nodetypes="cccc" />
          <path
             style="opacity:0.586873;fill:#ff8d3f;fill-opacity:1;stroke:none;stroke-width:0.336029;stroke-linecap:square;stroke-opacity:1"
             d="m -98.686053,173.57936 0.862835,2.03084 -2.028017,-0.38685 z"
             id="path78592"
             sodipodi:nodetypes="cccc" />
        </g>
        <g
           id="g78564"
           transform="matrix(1.497252,0,0,1.497252,152.96926,-116.80998)">
          <path
             style="opacity:0.509652;fill:#6c86b4;fill-opacity:1;stroke:none;stroke-width:0.582083;stroke-linecap:square;stroke-opacity:1"
             d="m -107.9455,170.10868 3.04515,6.93035 -9.34547,-4.83025 z"
             id="path70470"
             sodipodi:nodetypes="cccc" />
          <path
             style="opacity:1;fill:#6c86b4;fill-opacity:1;stroke:none;stroke-width:0.582083;stroke-linecap:square;stroke-opacity:1"
             d="m -99.12505,176.30399 -1.05006,3.67519 -2.31011,-2.73015 z"
             id="path71873"
             sodipodi:nodetypes="cccc" />
          <path
             style="opacity:1;fill:#ff8d3f;fill-opacity:1;stroke:none;stroke-width:0.291041;stroke-linecap:square;stroke-opacity:1"
             d="m -110.82724,167.64106 -0.52503,1.83759 -1.15505,-1.36507 z"
             id="path73874"
             sodipodi:nodetypes="cccc" />
          <path
             style="opacity:1;fill:#ff8d3f;fill-opacity:1;stroke:none;stroke-width:1.30467;stroke-linecap:square;stroke-opacity:1"
             d="m -92.857771,166.2382 -10.269909,9.84271 -4.31933,-12.79656 z"
             id="path73876"
             sodipodi:nodetypes="cccc" />
          <path
             style="opacity:0.586873;fill:#ff8d3f;fill-opacity:1;stroke:none;stroke-width:0.336029;stroke-linecap:square;stroke-opacity:1"
             d="m -98.686053,173.57936 0.862835,2.03084 -2.028017,-0.38685 z"
             id="path75658"
             sodipodi:nodetypes="cccc" />
        </g>
      </g>
      <g
         id="g17661"
         transform="matrix(0.67609048,0,0,0.67609048,-80.49423,1.7543016)">
        <g
           inkscape:label="LogoIstiqlal"
           transform="matrix(0.77047592,0,0,0.77047592,370.11776,-80.163401)"
           id="LogoIstiqlal">
          <g
             id="g2693"
             transform="matrix(0.70807921,0,0,0.70807915,-187.96985,300.9316)"
             style="display:inline;image-rendering:auto">
            <g
               id="g2614">
              <circle
                 r="21.826302"
                 cy="-222.91022"
                 cx="-159.05081"
                 id="circle2606"
                 style="opacity:1;fill:#f86900;fill-opacity:1;fill-rule:nonzero;stroke:none;stroke-width:1.76456;stroke-linecap:round;stroke-linejoin:round;stroke-miterlimit:4;stroke-dasharray:none;stroke-dashoffset:0;stroke-opacity:1;paint-order:fill markers stroke" />
              <circle
                 r="21.639214"
                 cy="-222.9102"
                 cx="-159.05081"
                 id="circle2608"
                 style="opacity:1;fill:#ffffff;fill-opacity:1;fill-rule:nonzero;stroke:none;stroke-width:1.74943;stroke-linecap:round;stroke-linejoin:round;stroke-miterlimit:4;stroke-dasharray:none;stroke-dashoffset:0;stroke-opacity:1;paint-order:fill markers stroke" />
              <circle
                 r="21.311808"
                 cy="-222.9102"
                 cx="-159.05081"
                 id="circle2610"
                 style="opacity:1;fill:#f86900;fill-opacity:1;fill-rule:nonzero;stroke:none;stroke-width:1.72296;stroke-linecap:round;stroke-linejoin:round;stroke-miterlimit:4;stroke-dasharray:none;stroke-dashoffset:0;stroke-opacity:1;paint-order:fill markers stroke" />
              <circle
                 r="20.451916"
                 cy="-222.91019"
                 cx="-159.05081"
                 id="circle2612"
                 style="opacity:1;fill:#ffffff;fill-opacity:1;fill-rule:nonzero;stroke:none;stroke-width:1.65345;stroke-linecap:round;stroke-linejoin:round;stroke-miterlimit:4;stroke-dasharray:none;stroke-dashoffset:0;stroke-opacity:1;paint-order:fill markers stroke" />
            </g>
            <g
               clip-path="none"
               id="g2622">
              <rect
                 style="opacity:1;fill:#ff6600;fill-opacity:1;fill-rule:nonzero;stroke:none;stroke-width:0.2;stroke-linecap:round;stroke-linejoin:round;stroke-miterlimit:4;stroke-dasharray:none;stroke-dashoffset:0;stroke-opacity:1;paint-order:fill markers stroke"
                 id="rect2616"
                 width="18.4547"
                 height="18.917711"
                 x="-168.20885"
                 y="-221.05418"
                 clip-path="url(#clipPath6436-2-5-7-56-7-03-3)"
                 transform="matrix(1.0108901,0,0,1.0136582,1.8318185,2.7608221)" />
              <path
                 style="opacity:1;fill:#ffff01;fill-opacity:1;fill-rule:nonzero;stroke:none;stroke-width:0.765183;stroke-linecap:round;stroke-linejoin:round;stroke-miterlimit:4;stroke-dasharray:none;stroke-dashoffset:0;stroke-opacity:1;paint-order:fill markers stroke"
                 clip-path="none"
                 d="m -635.75,788.45508 v 10.09375 c 2.53754,1.43626 4.88688,2.63323 7.22656,3.63476 v -2.19726 l 8.35547,2.23828 v 2.66601 c 2.26469,0.5065 4.69357,0.87677 7.38867,1.13672 v -2.78125 l 8.35547,0.27735 v 2.95508 c 1.2666,0.0264 2.56919,0.0418 3.95703,0.041 1.37322,-9.4e-4 2.66161,-0.0228 3.91407,-0.0488 v -2.94726 l 8.35546,-0.27735 v 2.74219 c 2.69844,-0.27742 5.12493,-0.67162 7.38868,-1.20703 v -2.55664 l 8.35547,-2.23828 v 1.95117 c 2.32282,-1.03669 4.66677,-2.27087 7.21289,-3.74609 v -9.73633 z"
                 transform="matrix(0.26458333,0,0,0.26458333,0,-429.90601)"
                 id="path2618"
                 inkscape:connector-curvature="0" />
              <ellipse
                 style="opacity:1;fill:#669934;fill-opacity:1;fill-rule:nonzero;stroke:none;stroke-width:0.2;stroke-linecap:round;stroke-linejoin:round;stroke-miterlimit:4;stroke-dasharray:none;stroke-dashoffset:0;stroke-opacity:1;paint-order:fill markers stroke"
                 id="ellipse2620"
                 cx="-158.88229"
                 cy="-221.28568"
                 rx="9.3265629"
                 ry="1.8190104" />
            </g>
            <path
               inkscape:connector-curvature="0"
               id="path2624"
               transform="matrix(1.101749,0,0,1.1017491,-951.57031,-302.89023)"
               d="m 711.01562,78.980469 v 8.427734 a 16.752967,16.752964 0 0 0 2.32618,1.095703 c 0.0219,-0.10337 0.0391,-0.209827 0.0391,-0.324218 v -6.59961 c 0,-0.928332 -1.63765,-2.116188 -2.36524,-2.599609 z"
               style="opacity:1;fill:#ffffff;fill-opacity:1;fill-rule:nonzero;stroke:none;stroke-width:0.205303;stroke-linecap:round;stroke-linejoin:round;stroke-miterlimit:4;stroke-dasharray:none;stroke-dashoffset:0;stroke-opacity:1;paint-order:fill markers stroke" />
            <path
               inkscape:connector-curvature="0"
               id="path2626"
               transform="matrix(1.101749,0,0,1.1017491,-951.57031,-302.89023)"
               d="m 711.01562,80.201172 v 7.207031 a 16.752967,16.752964 0 0 0 1.78711,0.900391 16.752967,16.752964 0 0 0 0.002,0 c 0.0703,-0.152253 0.11328,-0.321441 0.11328,-0.511719 v -5.480469 c 0,-0.733075 -1.25924,-1.678798 -1.90235,-2.115234 z"
               style="opacity:1;fill:#f70402;fill-opacity:1;fill-rule:nonzero;stroke:none;stroke-width:0.170463;stroke-linecap:round;stroke-linejoin:round;stroke-miterlimit:4;stroke-dasharray:none;stroke-dashoffset:0;stroke-opacity:1;paint-order:fill markers stroke" />
            <path
               inkscape:connector-curvature="0"
               id="path2628"
               transform="matrix(1.101749,0,0,1.1017491,-951.57031,-302.89023)"
               d="m 727.94922,78.982422 c -0.73075,0.486078 -2.36328,1.671854 -2.36328,2.597656 v 6.59961 c 0,0.07647 0.0174,0.145196 0.0273,0.216796 a 16.752967,16.752964 0 0 0 2.33594,-1.173828 z"
               style="opacity:1;fill:#ffffff;fill-opacity:1;fill-rule:nonzero;stroke:none;stroke-width:0.205303;stroke-linecap:round;stroke-linejoin:round;stroke-miterlimit:4;stroke-dasharray:none;stroke-dashoffset:0;stroke-opacity:1;paint-order:fill markers stroke" />
            <path
               inkscape:connector-curvature="0"
               id="path2630"
               transform="matrix(1.101749,0,0,1.1017491,-951.57031,-302.89023)"
               d="m 727.94922,80.203125 c -0.64397,0.437309 -1.89844,1.381293 -1.89844,2.113281 v 5.480469 c 0,0.136399 0.0255,0.259644 0.0625,0.376953 a 16.752967,16.752964 0 0 0 1.83594,-0.951172 z"
               style="opacity:1;fill:#97cd9a;fill-opacity:1;fill-rule:nonzero;stroke:none;stroke-width:0.170463;stroke-linecap:round;stroke-linejoin:round;stroke-miterlimit:4;stroke-dasharray:none;stroke-dashoffset:0;stroke-opacity:1;paint-order:fill markers stroke" />
            <path
               inkscape:connector-curvature="0"
               id="path2632"
               transform="matrix(1.101749,0,0,1.1017491,-951.57031,-302.89023)"
               d="m 716.40039,79.533203 c 0,0 -2.45508,1.104641 -2.45508,2.525391 v 6.666015 a 16.752967,16.752964 0 0 0 4.90821,0.882813 v -7.548828 c 0,-1.42075 -2.45313,-2.525391 -2.45313,-2.525391 z"
               style="opacity:1;fill:#ffffff;fill-opacity:1;fill-rule:nonzero;stroke:none;stroke-width:0.212892;stroke-linecap:round;stroke-linejoin:round;stroke-miterlimit:4;stroke-dasharray:none;stroke-dashoffset:0;stroke-opacity:1;paint-order:fill markers stroke" />
            <path
               inkscape:connector-curvature="0"
               id="path2634"
               transform="matrix(1.101749,0,0,1.1017491,-951.57031,-302.89023)"
               d="m 716.40039,80.994141 c 0,0 -2.03906,0.916042 -2.03906,2.095703 v 5.787109 a 16.752967,16.752964 0 0 0 4.07617,0.708985 v -6.496094 c 0,-1.179661 -2.03711,-2.095703 -2.03711,-2.095703 z"
               style="opacity:1;fill:#020066;fill-opacity:1;fill-rule:nonzero;stroke:none;stroke-width:0.176764;stroke-linecap:round;stroke-linejoin:round;stroke-miterlimit:4;stroke-dasharray:none;stroke-dashoffset:0;stroke-opacity:1;paint-order:fill markers stroke" />
            <path
               inkscape:connector-curvature="0"
               id="path2636"
               transform="matrix(1.101749,0,0,1.1017491,-951.57031,-302.89023)"
               d="m 722.36914,79.533203 c 0,0 -2.45312,1.104641 -2.45312,2.525391 v 7.550781 a 16.752967,16.752964 0 0 0 4.9082,-0.925781 v -6.625 c 0,-1.42075 -2.45508,-2.525391 -2.45508,-2.525391 z"
               style="opacity:1;fill:#ffffff;fill-opacity:1;fill-rule:nonzero;stroke:none;stroke-width:0.212892;stroke-linecap:round;stroke-linejoin:round;stroke-miterlimit:4;stroke-dasharray:none;stroke-dashoffset:0;stroke-opacity:1;paint-order:fill markers stroke" />
            <path
               inkscape:connector-curvature="0"
               id="path2638"
               transform="matrix(1.101749,0,0,1.1017491,-951.57031,-302.89023)"
               d="m 722.36914,80.994141 c 0,0 -2.03711,0.916042 -2.03711,2.095703 v 6.503906 a 16.752967,16.752964 0 0 0 4.07617,-0.773438 v -5.730468 c 0,-1.179661 -2.03906,-2.095703 -2.03906,-2.095703 z"
               style="opacity:1;fill:#999999;fill-opacity:1;fill-rule:nonzero;stroke:none;stroke-width:0.176764;stroke-linecap:round;stroke-linejoin:round;stroke-miterlimit:4;stroke-dasharray:none;stroke-dashoffset:0;stroke-opacity:1;paint-order:fill markers stroke" />
            <g
               id="g2664">
              <path
                 sodipodi:type="star"
                 style="opacity:1;fill:#fffe03;fill-opacity:1;fill-rule:nonzero;stroke:#d54a1e;stroke-width:0.2;stroke-linecap:round;stroke-linejoin:round;stroke-miterlimit:4;stroke-dasharray:none;stroke-dashoffset:0;stroke-opacity:1;paint-order:fill markers stroke"
                 id="path2640"
                 sodipodi:sides="5"
                 sodipodi:cx="-147.09846"
                 sodipodi:cy="-212.34891"
                 sodipodi:r1="0.99728298"
                 sodipodi:r2="2.2591491"
                 sodipodi:arg1="1.0471976"
                 sodipodi:arg2="1.6755161"
                 inkscape:flatsided="false"
                 inkscape:rounded="0"
                 inkscape:randomized="0"
                 inkscape:transform-center-x="-0.27154355"
                 inkscape:transform-center-y="-0.3941582"
                 transform="rotate(30,-151.31759,-210.9672)"
                 d="m -146.59982,-211.48524 -0.73479,1.38311 -0.43117,-1.50565 -1.54247,-0.27142 1.29872,-0.87534 -0.21851,-1.55085 1.23382,0.96466 1.40742,-0.68705 -0.53617,1.47153 1.08834,1.12622 z" />
              <path
                 sodipodi:type="star"
                 style="opacity:1;fill:#fffe03;fill-opacity:1;fill-rule:nonzero;stroke:#d54a1e;stroke-width:0.2;stroke-linecap:round;stroke-linejoin:round;stroke-miterlimit:4;stroke-dasharray:none;stroke-dashoffset:0;stroke-opacity:1;paint-order:fill markers stroke"
                 id="path2642"
                 sodipodi:sides="5"
                 sodipodi:cx="-147.09846"
                 sodipodi:cy="-212.34891"
                 sodipodi:r1="0.99728298"
                 sodipodi:r2="2.2591491"
                 sodipodi:arg1="1.0471976"
                 sodipodi:arg2="1.6755161"
                 inkscape:flatsided="false"
                 inkscape:rounded="0"
                 inkscape:randomized="0"
                 inkscape:transform-center-x="-0.23878265"
                 inkscape:transform-center-y="-0.34660748"
                 transform="matrix(0.76155036,0.4396813,-0.4396813,0.76155036,-125.33178,12.920373)"
                 d="m -146.59982,-211.48524 -0.73479,1.38311 -0.43117,-1.50565 -1.54247,-0.27142 1.29872,-0.87534 -0.21851,-1.55085 1.23382,0.96466 1.40742,-0.68705 -0.53617,1.47153 1.08834,1.12622 z" />
              <path
                 sodipodi:type="star"
                 style="opacity:1;fill:#fffe03;fill-opacity:1;fill-rule:nonzero;stroke:#d54a1e;stroke-width:0.2;stroke-linecap:round;stroke-linejoin:round;stroke-miterlimit:4;stroke-dasharray:none;stroke-dashoffset:0;stroke-opacity:1;paint-order:fill markers stroke"
                 id="path2644"
                 sodipodi:sides="5"
                 sodipodi:cx="-147.09846"
                 sodipodi:cy="-212.34891"
                 sodipodi:r1="0.99728298"
                 sodipodi:r2="2.2591491"
                 sodipodi:arg1="1.0471976"
                 sodipodi:arg2="1.6755161"
                 inkscape:flatsided="false"
                 inkscape:rounded="0"
                 inkscape:randomized="0"
                 inkscape:transform-center-x="-0.20247657"
                 inkscape:transform-center-y="-0.29391208"
                 transform="matrix(0.64576967,0.37283528,-0.37283528,0.64576967,-126.16998,-24.047101)"
                 d="m -146.59982,-211.48524 -0.73479,1.38311 -0.43117,-1.50565 -1.54247,-0.27142 1.29872,-0.87534 -0.21851,-1.55085 1.23382,0.96466 1.40742,-0.68705 -0.53617,1.47153 1.08834,1.12622 z" />
              <path
                 sodipodi:type="star"
                 style="opacity:1;fill:#fffe03;fill-opacity:1;fill-rule:nonzero;stroke:#d54a1e;stroke-width:0.2;stroke-linecap:round;stroke-linejoin:round;stroke-miterlimit:4;stroke-dasharray:none;stroke-dashoffset:0;stroke-opacity:1;paint-order:fill markers stroke"
                 id="path2646"
                 sodipodi:sides="5"
                 sodipodi:cx="-147.09846"
                 sodipodi:cy="-212.34891"
                 sodipodi:r1="0.99728298"
                 sodipodi:r2="2.2591491"
                 sodipodi:arg1="1.0471976"
                 sodipodi:arg2="1.6755161"
                 inkscape:flatsided="false"
                 inkscape:rounded="0"
                 inkscape:randomized="0"
                 inkscape:transform-center-x="-0.15963814"
                 inkscape:transform-center-y="-0.23173239"
                 transform="matrix(0.50914807,0.29395676,-0.29395676,0.50914807,-128.57767,-67.907361)"
                 d="m -146.59982,-211.48524 -0.73479,1.38311 -0.43117,-1.50565 -1.54247,-0.27142 1.29872,-0.87534 -0.21851,-1.55085 1.23382,0.96466 1.40742,-0.68705 -0.53617,1.47153 1.08834,1.12622 z" />
              <path
                 sodipodi:type="star"
                 style="opacity:1;fill:#fffe03;fill-opacity:1;fill-rule:nonzero;stroke:#d54a1e;stroke-width:0.2;stroke-linecap:round;stroke-linejoin:round;stroke-miterlimit:4;stroke-dasharray:none;stroke-dashoffset:0;stroke-opacity:1;paint-order:fill markers stroke"
                 id="path2648"
                 sodipodi:sides="5"
                 sodipodi:cx="-147.09846"
                 sodipodi:cy="-212.34891"
                 sodipodi:r1="0.99728298"
                 sodipodi:r2="2.2591491"
                 sodipodi:arg1="1.0471976"
                 sodipodi:arg2="1.6755161"
                 inkscape:flatsided="false"
                 inkscape:rounded="0"
                 inkscape:randomized="0"
                 inkscape:transform-center-x="-0.12940323"
                 inkscape:transform-center-y="-0.18783874"
                 transform="matrix(0.41270918,0.23827775,-0.23827775,0.41270918,-130.90038,-99.152346)"
                 d="m -146.59982,-211.48524 -0.73479,1.38311 -0.43117,-1.50565 -1.54247,-0.27142 1.29872,-0.87534 -0.21851,-1.55085 1.23382,0.96466 1.40742,-0.68705 -0.53617,1.47153 1.08834,1.12622 z" />
              <path
                 sodipodi:type="star"
                 style="opacity:1;fill:#fffe03;fill-opacity:1;fill-rule:nonzero;stroke:#d54a1e;stroke-width:0.2;stroke-linecap:round;stroke-linejoin:round;stroke-miterlimit:4;stroke-dasharray:none;stroke-dashoffset:0;stroke-opacity:1;paint-order:fill markers stroke"
                 id="path2650"
                 sodipodi:sides="5"
                 sodipodi:cx="-147.09846"
                 sodipodi:cy="-212.34891"
                 sodipodi:r1="0.99728298"
                 sodipodi:r2="2.2591491"
                 sodipodi:arg1="1.0471976"
                 sodipodi:arg2="1.6755161"
                 inkscape:flatsided="false"
                 inkscape:rounded="0"
                 inkscape:randomized="0"
                 inkscape:transform-center-x="-0.096648729"
                 inkscape:transform-center-y="-0.14028409"
                 transform="matrix(0.30823392,0.17795894,-0.17795894,0.30823392,-133.60958,-132.05972)"
                 d="m -146.59982,-211.48524 -0.73479,1.38311 -0.43117,-1.50565 -1.54247,-0.27142 1.29872,-0.87534 -0.21851,-1.55085 1.23382,0.96466 1.40742,-0.68705 -0.53617,1.47153 1.08834,1.12622 z" />
              <path
                 sodipodi:type="star"
                 style="opacity:1;fill:#fffe03;fill-opacity:1;fill-rule:nonzero;stroke:#d54a1e;stroke-width:0.2;stroke-linecap:round;stroke-linejoin:round;stroke-miterlimit:4;stroke-dasharray:none;stroke-dashoffset:0;stroke-opacity:1;paint-order:fill markers stroke"
                 id="path2652"
                 sodipodi:sides="5"
                 sodipodi:cx="-147.09846"
                 sodipodi:cy="-212.34891"
                 sodipodi:r1="0.99728298"
                 sodipodi:r2="2.2591491"
                 sodipodi:arg1="1.0471976"
                 sodipodi:arg2="1.6755161"
                 inkscape:flatsided="false"
                 inkscape:rounded="0"
                 inkscape:randomized="0"
                 inkscape:transform-center-x="-0.27154355"
                 inkscape:transform-center-y="-0.3941582"
                 transform="matrix(-0.8660254,0.5,0.5,0.8660254,-192.04996,47.44131)"
                 d="m -146.59982,-211.48524 -0.73479,1.38311 -0.43117,-1.50565 -1.54247,-0.27142 1.29872,-0.87534 -0.21851,-1.55085 1.23382,0.96466 1.40742,-0.68705 -0.53617,1.47153 1.08834,1.12622 z" />
              <path
                 sodipodi:type="star"
                 style="opacity:1;fill:#fffe03;fill-opacity:1;fill-rule:nonzero;stroke:#d54a1e;stroke-width:0.2;stroke-linecap:round;stroke-linejoin:round;stroke-miterlimit:4;stroke-dasharray:none;stroke-dashoffset:0;stroke-opacity:1;paint-order:fill markers stroke"
                 id="path2654"
                 sodipodi:sides="5"
                 sodipodi:cx="-147.09846"
                 sodipodi:cy="-212.34891"
                 sodipodi:r1="0.99728298"
                 sodipodi:r2="2.2591491"
                 sodipodi:arg1="1.0471976"
                 sodipodi:arg2="1.6755161"
                 inkscape:flatsided="false"
                 inkscape:rounded="0"
                 inkscape:randomized="0"
                 inkscape:transform-center-x="-0.23878265"
                 inkscape:transform-center-y="-0.34660748"
                 transform="matrix(-0.76155036,0.4396813,0.4396813,0.76155036,-192.47449,12.967133)"
                 d="m -146.59982,-211.48524 -0.73479,1.38311 -0.43117,-1.50565 -1.54247,-0.27142 1.29872,-0.87534 -0.21851,-1.55085 1.23382,0.96466 1.40742,-0.68705 -0.53617,1.47153 1.08834,1.12622 z" />
              <path
                 sodipodi:type="star"
                 style="opacity:1;fill:#fffe03;fill-opacity:1;fill-rule:nonzero;stroke:#d54a1e;stroke-width:0.2;stroke-linecap:round;stroke-linejoin:round;stroke-miterlimit:4;stroke-dasharray:none;stroke-dashoffset:0;stroke-opacity:1;paint-order:fill markers stroke"
                 id="path2656"
                 sodipodi:sides="5"
                 sodipodi:cx="-147.09846"
                 sodipodi:cy="-212.34891"
                 sodipodi:r1="0.99728298"
                 sodipodi:r2="2.2591491"
                 sodipodi:arg1="1.0471976"
                 sodipodi:arg2="1.6755161"
                 inkscape:flatsided="false"
                 inkscape:rounded="0"
                 inkscape:randomized="0"
                 inkscape:transform-center-x="-0.20247657"
                 inkscape:transform-center-y="-0.29391208"
                 transform="matrix(-0.64576967,0.37283528,0.37283528,0.64576967,-191.63629,-24.000341)"
                 d="m -146.59982,-211.48524 -0.73479,1.38311 -0.43117,-1.50565 -1.54247,-0.27142 1.29872,-0.87534 -0.21851,-1.55085 1.23382,0.96466 1.40742,-0.68705 -0.53617,1.47153 1.08834,1.12622 z" />
              <path
                 sodipodi:type="star"
                 style="opacity:1;fill:#fffe03;fill-opacity:1;fill-rule:nonzero;stroke:#d54a1e;stroke-width:0.2;stroke-linecap:round;stroke-linejoin:round;stroke-miterlimit:4;stroke-dasharray:none;stroke-dashoffset:0;stroke-opacity:1;paint-order:fill markers stroke"
                 id="path2658"
                 sodipodi:sides="5"
                 sodipodi:cx="-147.09846"
                 sodipodi:cy="-212.34891"
                 sodipodi:r1="0.99728298"
                 sodipodi:r2="2.2591491"
                 sodipodi:arg1="1.0471976"
                 sodipodi:arg2="1.6755161"
                 inkscape:flatsided="false"
                 inkscape:rounded="0"
                 inkscape:randomized="0"
                 inkscape:transform-center-x="-0.15963814"
                 inkscape:transform-center-y="-0.23173239"
                 transform="matrix(-0.50914807,0.29395676,0.29395676,0.50914807,-189.2286,-67.860601)"
                 d="m -146.59982,-211.48524 -0.73479,1.38311 -0.43117,-1.50565 -1.54247,-0.27142 1.29872,-0.87534 -0.21851,-1.55085 1.23382,0.96466 1.40742,-0.68705 -0.53617,1.47153 1.08834,1.12622 z" />
              <path
                 sodipodi:type="star"
                 style="opacity:1;fill:#fffe03;fill-opacity:1;fill-rule:nonzero;stroke:#d54a1e;stroke-width:0.2;stroke-linecap:round;stroke-linejoin:round;stroke-miterlimit:4;stroke-dasharray:none;stroke-dashoffset:0;stroke-opacity:1;paint-order:fill markers stroke"
                 id="path2660"
                 sodipodi:sides="5"
                 sodipodi:cx="-147.09846"
                 sodipodi:cy="-212.34891"
                 sodipodi:r1="0.99728298"
                 sodipodi:r2="2.2591491"
                 sodipodi:arg1="1.0471976"
                 sodipodi:arg2="1.6755161"
                 inkscape:flatsided="false"
                 inkscape:rounded="0"
                 inkscape:randomized="0"
                 inkscape:transform-center-x="-0.12940323"
                 inkscape:transform-center-y="-0.18783874"
                 transform="matrix(-0.41270918,0.23827775,0.23827775,0.41270918,-186.90589,-99.105586)"
                 d="m -146.59982,-211.48524 -0.73479,1.38311 -0.43117,-1.50565 -1.54247,-0.27142 1.29872,-0.87534 -0.21851,-1.55085 1.23382,0.96466 1.40742,-0.68705 -0.53617,1.47153 1.08834,1.12622 z" />
              <path
                 sodipodi:type="star"
                 style="opacity:1;fill:#fffe03;fill-opacity:1;fill-rule:nonzero;stroke:#d54a1e;stroke-width:0.2;stroke-linecap:round;stroke-linejoin:round;stroke-miterlimit:4;stroke-dasharray:none;stroke-dashoffset:0;stroke-opacity:1;paint-order:fill markers stroke"
                 id="path2662"
                 sodipodi:sides="5"
                 sodipodi:cx="-147.09846"
                 sodipodi:cy="-212.34891"
                 sodipodi:r1="0.99728298"
                 sodipodi:r2="2.2591491"
                 sodipodi:arg1="1.0471976"
                 sodipodi:arg2="1.6755161"
                 inkscape:flatsided="false"
                 inkscape:rounded="0"
                 inkscape:randomized="0"
                 inkscape:transform-center-x="-0.096648729"
                 inkscape:transform-center-y="-0.14028409"
                 transform="matrix(-0.30823392,0.17795894,0.17795894,0.30823392,-184.19669,-132.01296)"
                 d="m -146.59982,-211.48524 -0.73479,1.38311 -0.43117,-1.50565 -1.54247,-0.27142 1.29872,-0.87534 -0.21851,-1.55085 1.23382,0.96466 1.40742,-0.68705 -0.53617,1.47153 1.08834,1.12622 z" />
            </g>
            <g
               id="g2682">
              <path
                 style="opacity:1;fill:#fae847;fill-opacity:1;fill-rule:nonzero;stroke:#836b3d;stroke-width:0.377953;stroke-linecap:round;stroke-linejoin:round;stroke-miterlimit:4;stroke-dasharray:none;stroke-dashoffset:0;stroke-opacity:1;paint-order:fill markers stroke"
                 d="m -608.36523,764.58398 c -1.69078,0.0635 -3.73148,0.37116 -6.19532,1.03125 l -0.17187,0.0879 -0.0625,0.0664 -1.46485,2.19727 h -3.51562 v 20.65429 l 15.86914,-0.92773 c 0,0 1.85231,0.67065 3.02148,0.875 v 0.0625 c 0.0781,0 0.17965,-0.0147 0.27539,-0.0254 0.096,0.0108 0.19904,0.0254 0.27735,0.0254 v -0.0625 c 1.16928,-0.20472 3.01953,-0.875 3.01953,-0.875 l 15.86914,0.92773 V 767.9668 h -3.51562 l -1.46485,-2.19727 -0.0606,-0.0664 -0.17382,-0.0879 c -2.46384,-0.66009 -4.50454,-0.96775 -6.19532,-1.03125 -5.2973,-0.19918 -7.1341,1.98213 -7.75586,3.2129 -0.62175,-1.23077 -2.45855,-3.41208 -7.75585,-3.2129 z"
                 transform="matrix(0.26458333,0,0,0.26458333,0,-429.90601)"
                 id="path2666"
                 inkscape:connector-curvature="0" />
              <path
                 style="opacity:1;fill:#ffffff;fill-opacity:1;fill-rule:nonzero;stroke:#836b3d;stroke-width:0.1;stroke-linecap:round;stroke-linejoin:round;stroke-miterlimit:4;stroke-dasharray:none;stroke-dashoffset:0;stroke-opacity:1;paint-order:fill markers stroke"
                 d="m -162.36885,-227.04926 v 4.09257 c 0,0 2.44823,-0.51157 3.30694,0.21924 v -3.61753 c 0,0 -0.26075,-1.5105 -3.30694,-0.69428 z"
                 id="path2668"
                 inkscape:connector-curvature="0" />
              <path
                 style="opacity:1;fill:#ffffff;fill-opacity:1;fill-rule:nonzero;stroke:#836b3d;stroke-width:0.1;stroke-linecap:round;stroke-linejoin:round;stroke-miterlimit:4;stroke-dasharray:none;stroke-dashoffset:0;stroke-opacity:1;paint-order:fill markers stroke"
                 d="m -162.38027,-222.72281 -0.45217,0.65888 3.29881,-0.21963 0.52525,0.23255 c 0.25153,-0.30743 -0.0664,-1.21791 -3.37189,-0.6718 z"
                 id="path2670"
                 inkscape:connector-curvature="0"
                 sodipodi:nodetypes="ccccc" />
              <path
                 style="opacity:1;fill:#ffffff;fill-opacity:1;fill-rule:nonzero;stroke:#836b3d;stroke-width:0.1;stroke-linecap:round;stroke-linejoin:round;stroke-miterlimit:4;stroke-dasharray:none;stroke-dashoffset:0;stroke-opacity:1;paint-order:fill markers stroke"
                 d="m -162.66449,-226.71481 -0.37465,0.52968 0.0258,3.82406 0.40049,-0.56844 z"
                 id="path2672"
                 inkscape:connector-curvature="0" />
              <path
                 style="opacity:1;fill:#ffffff;fill-opacity:1;fill-rule:nonzero;stroke:#836b3d;stroke-width:0.377953;stroke-linecap:round;stroke-linejoin:round;stroke-miterlimit:4;stroke-dasharray:none;stroke-dashoffset:0;stroke-opacity:1;paint-order:fill markers stroke"
                 d="m -618.45703,769.13867 v 18.31055 l 14.94141,-0.78125 c 0.76142,0.63742 1.76654,0.81775 2.7832,0.97656 l 0.0488,0.0312 c 0.10848,0.0252 0.0749,-0.0582 0.19726,-0.0312 1.01666,-0.15881 2.02178,-0.33914 2.78321,-0.97656 l 14.9414,0.78125 v -18.31055 h -1.36719 l 0.39063,0.39063 -0.14649,17.28515 -14.25781,-0.78125 c -0.56439,0.6618 -2.43408,0.861 -2.34375,0.78125 -0.0925,0.003 -0.15683,0.008 -0.24609,0.0117 v -0.0117 c 0.0903,0.0797 -1.77936,-0.11945 -2.34375,-0.78125 l -14.25781,0.78125 -0.14649,-17.28515 0.39063,-0.39063 z"
                 transform="matrix(0.26458333,0,0,0.26458333,0,-429.90601)"
                 id="path2674"
                 inkscape:connector-curvature="0"
                 sodipodi:nodetypes="ccccccccccccccccccccc" />
              <path
                 style="opacity:1;fill:#ffffff;fill-opacity:1;fill-rule:nonzero;stroke:#836b3d;stroke-width:0.1;stroke-linecap:round;stroke-linejoin:round;stroke-miterlimit:4;stroke-dasharray:none;stroke-dashoffset:0;stroke-opacity:1;paint-order:fill markers stroke"
                 d="m -155.45348,-227.04926 v 4.09257 c 0,0 -2.44823,-0.51157 -3.30694,0.21924 v -3.61753 c 0,0 0.26075,-1.5105 3.30694,-0.69428 z"
                 id="path2676"
                 inkscape:connector-curvature="0" />
              <path
                 style="opacity:1;fill:#ffffff;fill-opacity:1;fill-rule:nonzero;stroke:#836b3d;stroke-width:0.1;stroke-linecap:round;stroke-linejoin:round;stroke-miterlimit:4;stroke-dasharray:none;stroke-dashoffset:0;stroke-opacity:1;paint-order:fill markers stroke"
                 d="m -155.44206,-222.72281 0.45217,0.65888 -3.29881,-0.21963 -0.52525,0.23255 c -0.25153,-0.30743 0.0664,-1.21791 3.37189,-0.6718 z"
                 id="path2678"
                 inkscape:connector-curvature="0"
                 sodipodi:nodetypes="ccccc" />
              <path
                 style="opacity:1;fill:#ffffff;fill-opacity:1;fill-rule:nonzero;stroke:#836b3d;stroke-width:0.1;stroke-linecap:round;stroke-linejoin:round;stroke-miterlimit:4;stroke-dasharray:none;stroke-dashoffset:0;stroke-opacity:1;paint-order:fill markers stroke"
                 d="m -155.15784,-226.71481 0.37465,0.52968 -0.0258,3.82406 -0.40049,-0.56844 z"
                 id="path2680"
                 inkscape:connector-curvature="0" />
            </g>
            <g
               transform="translate(-34.146662,-38.019982)"
               id="g2691">
              <path
                 transform="matrix(0.26458333,0,0,0.26458333,0,-429.90601)"
                 inkscape:connector-curvature="0"
                 style="fill:#0a15ee;fill-opacity:1;stroke-width:0.171899"
                 d="m -470.72852,856.32031 -0.64062,2.79297 c -0.35305,1.53634 -0.7884,3.41012 -0.9668,4.16406 -0.17839,0.75398 -0.29781,1.39555 -0.26758,1.42578 0.0307,0.0306 0.38806,0.0729 0.79493,0.0918 0.6912,0.0323 0.74794,-5.3e-4 0.86132,-0.48242 0.0668,-0.28365 0.3162,-1.3917 0.55469,-2.46289 0.45971,-2.06684 0.55163,-2.30453 0.69336,-1.80469 0.0489,0.17258 0.37589,1.37777 0.72852,2.67774 l 0.64258,2.36328 h 0.72265 0.72461 l 0.99609,-2.57813 c 0.54834,-1.41819 1.01639,-2.55783 1.03907,-2.53515 0.0223,0.0237 0.16976,1.12559 0.32812,2.44922 0.15836,1.32362 0.31572,2.50279 0.35352,2.62109 h 0.002 c 0.0402,0.1285 0.36645,0.21484 0.81641,0.21484 h 0.75 l -0.13868,-1.01953 c -0.0768,-0.56096 -0.2596,-2.24291 -0.40624,-3.73828 -0.39255,-3.99825 -0.3297,-3.78977 -1.17579,-3.88086 -0.39299,-0.0423 -0.76091,-0.0294 -0.81836,0.0273 -0.0576,0.0568 -0.59603,1.36186 -1.19531,2.9004 -0.59924,1.53853 -1.13919,2.69831 -1.20117,2.57812 -0.0618,-0.12038 -0.44719,-1.47538 -0.85742,-3.01172 l -0.7461,-2.79297 h -0.79687 z m -7.125,0.17188 c -0.77185,0 -0.825,0.0309 -0.98828,0.55859 -0.095,0.30728 -0.71999,2.23809 -1.38867,4.29102 -0.66863,2.05292 -1.2168,3.80571 -1.2168,3.89453 0,0.17008 1.37958,0.057 1.57422,-0.12891 0.062,-0.059 0.22817,-0.45543 0.36914,-0.88086 l 0.25586,-0.77344 1.76172,-0.0859 1.76172,-0.084 0.33008,0.76953 c 0.18126,0.42358 0.39688,0.81106 0.47851,0.86133 0.0816,0.0491 0.49033,0.0653 0.91016,0.0312 l 0.76367,-0.0625 -0.42773,-0.88672 c -0.23539,-0.48782 -0.87391,-1.89203 -1.41797,-3.12109 -0.54406,-1.22906 -1.20494,-2.7177 -1.46875,-3.30859 l -0.47852,-1.07422 z m 17.60352,0.82031 -0.10938,0.83594 c -0.13874,1.07248 -0.9401,6.32177 -1.07617,7.04687 -0.095,0.50657 -0.0638,0.5581 0.38477,0.625 1.25956,0.18845 1.08424,0.53468 1.68359,-3.3125 0.2431,-1.55996 0.51716,-3.29639 0.60938,-3.85742 0.0921,-0.56103 0.13457,-1.05293 0.0937,-1.09375 -0.0409,-0.0408 -0.41437,-0.11329 -0.83008,-0.16016 z m -25.37109,0.21484 -0.70703,0.10547 c -0.38846,0.0586 -0.77062,0.1649 -0.84961,0.23633 -0.11388,0.10326 0.93565,7.3164 1.19531,8.2168 0.0359,0.12434 0.20126,0.18667 0.36719,0.13867 0.16592,-0.048 0.91942,-0.17309 1.67578,-0.2793 1.80986,-0.25375 1.95317,-0.30267 1.88476,-0.65039 -0.25478,-1.29664 -0.13257,-1.20158 -1.28711,-1.01562 -0.61523,0.10015 -1.10277,0.10633 -1.18554,0.0156 -0.14684,-0.16078 -0.80076,-3.96539 -0.98633,-5.74219 z m -5.85547,1.02735 c -1.73893,0 -3.02014,1.8904 -2.18555,3.22461 0.34526,0.55188 1.56893,1.43234 2.78125,2.00195 0.76093,0.35754 1.35547,0.89302 1.35547,1.2207 0,0.36477 -0.69822,0.94532 -1.13672,0.94532 -0.21127,0 -0.61043,-0.19139 -0.88672,-0.42383 l -0.50195,-0.42188 -0.54492,0.5625 -0.54492,0.5625 0.38867,0.36328 c 0.21407,0.20055 0.6224,0.49146 0.90625,0.64454 v -0.002 c 0.63261,0.34182 1.91415,0.24397 2.68359,-0.20508 0.59312,-0.34616 1.18359,-1.35806 1.18359,-2.02734 0,-1.2107 -0.77588,-2.01558 -3.04492,-3.1582 -1.22298,-0.6158 -1.56936,-1.05755 -1.15429,-1.47266 0.34994,-0.34809 0.92325,-0.34066 1.4375,0.0195 0.39583,0.27746 0.4225,0.27011 0.81054,-0.21484 0.22088,-0.27595 0.40182,-0.59157 0.40235,-0.70117 10e-4,-0.2713 -1.37164,-0.91797 -1.94922,-0.91797 z m 38.38281,0.15625 c -2.29227,-0.0486 -4.17222,1.51016 -4.54883,4.02148 -0.28301,1.88723 1.11516,4.08839 2.95703,4.6543 1.29079,0.39643 2.57185,0.34366 3.62891,-0.14844 l 0.9082,-0.42383 -0.35351,-0.6914 c -0.19435,-0.38087 -0.39265,-0.69336 -0.44141,-0.69336 -0.0487,0 -0.27436,0.12175 -0.5,0.26953 -0.22571,0.14816 -0.82247,0.30829 -1.32617,0.35742 -0.74994,0.0734 -1.05601,0.0152 -1.68945,-0.32422 -1.05052,-0.56258 -1.54688,-1.33183 -1.54688,-2.39648 0,-1.11814 0.34461,-1.88395 1.11133,-2.46875 1.27627,-0.97346 3.17769,-0.6958 4.28906,0.625 l 0.46094,0.54492 0.59375,-0.31836 c 0.3264,-0.17582 0.59375,-0.43274 0.59375,-0.57031 0,-0.45037 -1.62528,-1.84123 -2.49805,-2.13867 -0.55942,-0.19061 -1.10968,-0.28762 -1.63867,-0.29883 z m -24.65234,0.17578 0.64648,1.30469 c 0.35539,0.71814 0.59973,1.37797 0.54492,1.46679 -0.11803,0.19238 -1.91723,0.22067 -2.02343,0.0332 -0.0401,-0.071 0.13021,-0.7307 0.3789,-1.4668 z m -19.26172,1.51758 c -0.16879,0.007 -0.36945,0.0927 -0.64453,0.19726 l -0.45508,0.17383 1.08594,3.14258 c 0.59693,1.72921 1.22035,3.55282 1.38476,4.05273 0.26359,0.80115 0.34104,0.89659 0.66797,0.79492 1.01178,-0.31498 1.18188,-0.42734 1.0957,-0.71874 -0.0483,-0.16377 -0.66571,-1.95949 -1.37304,-3.99219 -1.04066,-2.99061 -1.25536,-3.67279 -1.76172,-3.65039 z m 55.38086,2.27343 c -0.75096,0 -0.91275,0.0729 -1.5293,0.68946 -0.63352,0.63375 -0.68301,0.74765 -0.60742,1.41992 0.0453,0.40225 0.31614,1.23462 0.59961,1.84766 0.84843,1.8353 1.00941,2.37985 0.80078,2.71093 -0.37754,0.59955 -1.43825,0.46234 -1.75195,-0.22656 -0.11074,-0.24306 -0.20118,-0.59618 -0.20118,-0.78516 0,-0.30122 -0.079,-0.33043 -0.64453,-0.23632 -1.07747,0.17907 -1.05912,0.15952 -0.87695,0.97265 0.18542,0.82795 0.8285,1.61127 1.60742,1.95899 0.80795,0.36079 1.84349,0.29928 2.50781,-0.14844 1.2759,-0.85973 1.34622,-2.05955 0.26172,-4.4043 -0.8496,-1.83651 -0.85627,-2.2985 -0.0391,-2.21875 0.42255,0.0411 0.60104,0.18519 0.8418,0.67774 l 0.30468,0.625 0.72657,-0.22071 c 0.77355,-0.23542 0.79253,-0.30452 0.34375,-1.2539 -0.40233,-0.85119 -1.32944,-1.40821 -2.34375,-1.40821 z m -63.98438,1.20313 c -0.0482,0 -0.38282,0.1515 -0.74414,0.33594 l -0.65625,0.33593 1.82422,3.57422 c 1.00403,1.96653 1.88925,3.67272 1.96484,3.79102 0.076,0.11792 0.16968,0.21484 0.20899,0.21484 0.23671,0 3.3457,-1.78071 3.3457,-1.91601 0,-0.25629 -0.50897,-1.17926 -0.64844,-1.17578 -0.0685,0.002 -0.54491,0.23449 -1.05859,0.51757 -0.71316,0.39307 -0.96852,0.46438 -1.07812,0.29883 -0.079,-0.11939 -0.80273,-1.51208 -1.60743,-3.0957 -0.80466,-1.58362 -1.5024,-2.88086 -1.55078,-2.88086 z m 70.91992,2.84766 c -1.309,0.0144 -1.99745,0.31604 -3.05273,1.33398 -0.78735,0.75953 -1.41602,2.1364 -1.41602,3.09961 0,0.31019 0.11608,0.95298 0.25782,1.42969 0.29843,1.00497 1.51838,2.27116 2.71093,2.8125 0.48416,0.21997 1.11676,0.33149 1.89258,0.33398 1.30492,0.004 1.4396,-0.11288 1.19922,-1.04101 -0.14547,-0.56289 -0.16313,-0.57075 -1.01953,-0.52539 -1.38236,0.0734 -2.74122,-0.70559 -3.16211,-1.8125 -0.61954,-1.62959 0.36263,-3.54789 2.04883,-4.00196 1.44533,-0.38918 3.36403,0.82557 3.66601,2.32227 0.057,0.28346 0.18677,0.3249 0.83594,0.27539 0.42248,-0.0321 0.79814,-0.0872 0.83594,-0.125 0.15307,-0.1499 -0.55434,-1.63555 -1.12891,-2.37305 -0.87454,-1.12252 -2.19497,-1.74363 -3.66797,-1.72851 z m -76.75781,0.51367 c -0.17345,0.0209 -0.46244,0.14122 -0.74023,0.3164 l -0.67383,0.42383 0.4082,2.28906 c 0.22417,1.25874 0.58094,3.27503 0.79297,4.48047 0.21211,1.20545 0.40922,2.19141 0.43945,2.19141 0.0301,0 0.36222,-0.17393 0.73828,-0.38672 0.65726,-0.3719 0.67948,-0.41307 0.58008,-1.07422 -0.0567,-0.37818 -0.13735,-0.81133 -0.17968,-0.96289 -0.0551,-0.1971 0.32679,-0.51507 1.34375,-1.11719 0.78194,-0.46299 1.48212,-0.87015 1.55468,-0.90039 0.0725,-0.032 0.40373,0.1805 0.73633,0.47266 0.71448,0.62736 0.83985,0.64056 1.60547,0.17383 0.68757,-0.41919 0.74238,-0.3397 -1.29297,-1.91406 -0.76902,-0.59486 -2.20548,-1.70533 -3.1914,-2.46876 -0.98593,-0.76342 -1.88139,-1.44249 -1.99024,-1.50976 -0.0272,-0.0168 -0.073,-0.0206 -0.13086,-0.0137 z m 0.63281,2.55078 c 0.24173,-0.07 2.17601,1.28028 2.19727,1.56445 0.007,0.0946 -0.36716,0.3845 -0.83008,0.64453 -0.46292,0.25992 -0.87683,0.47266 -0.91992,0.47266 -0.0815,0 -0.47266,-2.19003 -0.47266,-2.64649 0,-0.018 0.009,-0.0305 0.0254,-0.0352 z m 83.85743,1.48242 c -0.0496,-0.003 -0.56316,0.55673 -1.14063,1.24219 -0.57744,0.68545 -1.65849,1.96549 -2.40234,2.8457 -2.25778,2.67148 -2.0884,2.32233 -1.41602,2.9336 0.31888,0.28977 0.61877,0.52615 0.66602,0.52343 0.0472,-0.003 0.57705,-0.62025 1.17773,-1.37109 0.60064,-0.75084 1.16837,-1.36524 1.26172,-1.36524 0.0933,0 0.60751,0.36445 1.14258,0.81055 0.53507,0.4461 1.00101,0.82876 1.03125,0.84766 0.0322,0.0194 -0.49116,0.67959 -1.16406,1.46679 l -1.22461,1.42969 0.52343,0.47266 c 0.28766,0.25992 0.5915,0.47265 0.67579,0.47265 0.0842,0 0.48847,-0.40597 0.89843,-0.90234 0.82088,-0.9939 2.47073,-2.93969 3.78321,-4.46484 l 0.8457,-0.98438 -0.56445,-0.51562 c -0.31098,-0.28283 -0.608,-0.51482 -0.66016,-0.51758 -0.052,-0.003 -0.54171,0.53722 -1.08789,1.20117 l -0.99219,1.20703 -0.63281,-0.51758 c -0.34719,-0.28482 -0.85489,-0.70493 -1.12891,-0.93359 l -0.49804,-0.41602 0.92773,-1.08984 c 0.5105,-0.59973 0.99655,-1.14032 1.08008,-1.20117 0.13334,-0.0968 -0.86497,-1.15871 -1.10156,-1.17383 z m -92.0254,1.20508 c -0.10677,0.003 -0.42022,0.19157 -0.69726,0.41797 -0.37493,0.30659 -0.45921,0.46972 -0.32617,0.63867 0.20402,0.25931 1.29764,1.61537 3.54101,4.39453 0.8586,1.06364 1.61758,1.93359 1.6875,1.93359 0.0699,0 0.65674,-0.43247 1.30274,-0.96289 0.64599,-0.53038 1.32047,-1.06869 1.5,-1.19531 0.31408,-0.22129 0.30704,-0.2515 -0.18555,-0.8125 l -0.51172,-0.58398 -0.82422,0.66015 c -0.45263,0.36325 -0.88667,0.66016 -0.96679,0.66016 -0.15379,0 -0.9847,-0.96857 -3.0586,-3.56836 -0.69683,-0.87352 -1.35435,-1.58543 -1.46094,-1.58203 z m -2.73046,4.14453 c -1.50836,-0.1441 -3.04032,0.51047 -4.03516,1.90039 -1.6224,2.26666 -0.58671,5.60991 2.07227,6.68945 2.06664,0.83906 4.36467,-0.006 5.55859,-2.04296 0.41941,-0.71381 0.49991,-0.77028 1.00976,-0.6875 0.47075,0.0764 0.64635,-0.007 1.17579,-0.54883 0.34257,-0.35074 0.62304,-0.68153 0.62304,-0.73633 0,-0.0548 -0.54133,-0.15337 -1.20312,-0.21875 -1.17305,-0.11569 -1.20313,-0.12964 -1.20313,-0.59766 0,-0.6432 -0.75379,-2.02491 -1.42968,-2.62109 -0.76648,-0.67614 -1.66335,-1.05026 -2.56836,-1.13672 z m -0.38086,1.57812 c 0.6136,0.0226 1.24197,0.25995 1.79882,0.72852 0.49441,0.41601 1.03321,1.23148 1.03321,1.56445 0,0.0816 -0.27817,0.11391 -0.61719,0.0742 -0.53068,-0.0619 -0.71111,0.021 -1.29883,0.59375 l -0.68164,0.66406 0.48242,0.10938 c 0.26533,0.0597 0.81109,0.11757 1.21289,0.12891 0.40177,0.0113 0.73047,0.0924 0.73047,0.17968 0,0.32005 -0.94492,1.26819 -1.49023,1.4961 -2.36893,0.98978 -4.8917,-1.6763 -3.72852,-3.94141 0.55264,-1.07622 1.53592,-1.63523 2.5586,-1.59766 z m 101.64453,0.47071 c -1.06114,-0.0369 -2.13939,0.33764 -3.06836,1.13281 -2.41433,2.06653 -1.94151,5.91975 0.90039,7.33594 2.15898,1.07584 4.80321,0.18656 5.9043,-1.98633 0.9366,-1.8483 0.65535,-3.70789 -0.77539,-5.13867 -0.8573,-0.85731 -1.89981,-1.30684 -2.96094,-1.34375 z m -0.10547,1.69336 c 2.83468,0 3.79486,3.50721 1.4082,5.14258 -0.67128,0.45996 -1.97316,0.63112 -2.64648,0.34765 -1.59201,-0.67011 -2.21198,-2.88983 -1.19336,-4.26758 0.63983,-0.86524 1.35115,-1.22265 2.43164,-1.22265 z m -108.91602,3.24023 c -0.10582,-0.061 -0.39193,0.17591 -0.64062,0.5293 l -0.45117,0.63867 1.79883,1.36328 c 0.98959,0.74907 2.50791,1.88194 3.37304,2.51758 0.86514,0.63564 1.61663,1.15762 1.66992,1.16016 0.13013,0.006 0.84936,-0.97723 0.8418,-1.14844 -0.006,-0.11445 -6.0184,-4.73022 -6.5918,-5.06055 z m -2.41015,2.82227 -0.75586,1.30859 c -0.41594,0.72034 -0.94441,1.63956 -1.17383,2.04102 l -0.41797,0.73047 0.56445,0.34375 c 0.69377,0.423 0.94036,0.43192 1.07227,0.043 0.0563,-0.16543 0.21065,-0.44093 0.3418,-0.61328 0.22828,-0.30005 0.26443,-0.29503 0.89648,0.10352 0.3628,0.22877 1.24014,0.74922 1.94922,1.1582 0.70908,0.40895 1.71148,1.00195 2.22852,1.31641 h 0.002 c 0.51704,0.31445 0.9985,0.57031 1.07031,0.57031 0.0719,0 0.28444,-0.30104 0.47266,-0.66992 0.26305,-0.51576 0.2942,-0.70806 0.13281,-0.83203 -0.11539,-0.0886 -1.46791,-0.88061 -3.00391,-1.75977 l -2.79101,-1.59765 0.3418,-0.55469 c 0.45686,-0.73947 0.44261,-0.80138 -0.29493,-1.22461 z m 117.77734,1.22265 c -0.31682,-0.0138 -0.63808,0.0107 -0.96094,0.0781 -2.23797,0.4673 -3.82893,2.34805 -3.79492,4.48242 0.0267,1.61223 0.98242,3.14478 2.41406,3.87109 0.81918,0.41435 1.07072,0.46238 2.21289,0.4004 1.44926,-0.0785 2.02304,-0.3208 2.98633,-1.25782 0.90486,-0.88014 1.30411,-1.81959 1.30664,-3.08203 0.005,-2.41467 -1.9463,-4.39571 -4.16406,-4.49219 z m -0.44531,1.66993 c 0.79091,-0.0536 1.59969,0.16816 2.05859,0.60546 1.39193,1.32658 1.23537,3.51276 -0.32422,4.52344 -0.65945,0.42629 -1.88754,0.61708 -2.54492,0.39258 -1.32465,-0.45199 -2.14501,-2.0381 -1.76562,-3.41211 0.2211,-0.80077 1.06412,-1.7164 1.80468,-1.96094 0.24611,-0.0812 0.50785,-0.13056 0.77149,-0.14843 z m -119.41016,3.12304 c -0.0187,-0.0249 -0.2975,0.0639 -0.61914,0.19922 -0.61478,0.25852 -1.35622,0.96229 -1.68164,1.5957 -0.5094,0.99156 0.0468,2.46212 1.0957,2.90039 0.87013,0.36356 1.16049,0.32008 2.91211,-0.45117 1.90436,-0.83826 2.72986,-0.87538 2.81641,-0.125 0.0807,0.69933 -0.2415,1.13311 -1.00977,1.36328 -0.47829,0.14332 -0.66386,0.28374 -0.59961,0.45118 0.051,0.13341 0.0938,0.47523 0.0938,0.76171 -10e-6,0.5079 0.0159,0.51914 0.63867,0.40235 2.56376,-0.48095 3.50393,-3.32993 1.5625,-4.73633 -0.98189,-0.71142 -1.68942,-0.6746 -3.65625,0.19141 -1.72419,0.75904 -2.37943,0.81552 -2.46485,0.21484 -0.0611,-0.42871 0.56291,-1.08984 1.0293,-1.08984 0.17121,0 0.3125,-0.10468 0.3125,-0.23243 0,-0.19997 -0.3318,-1.31529 -0.42969,-1.44531 z m 126.44727,4.10352 -0.9961,0.39844 c -3.93218,1.5699 -6.68884,2.71461 -6.79882,2.82421 -0.0713,0.0709 0.18845,0.91686 0.57812,1.88086 0.38967,0.96401 0.76803,1.75391 0.83985,1.75391 0.0718,0 0.40625,-0.11646 0.74414,-0.25781 l 0.61523,-0.25586 -0.25781,-0.64649 c -0.14158,-0.35516 -0.34302,-0.81846 -0.44922,-1.03125 -0.10621,-0.21256 -0.13872,-0.44331 -0.0703,-0.51172 0.0686,-0.0685 1.49518,-0.67554 3.16797,-1.34765 3.26887,-1.31335 3.21317,-1.26568 2.79882,-2.35547 z m -130.32617,2.34375 c -0.17016,0.1923 -0.5187,1.29185 -0.43555,1.375 0.0395,0.0395 1.80034,0.63774 3.91211,1.33008 2.11177,0.69233 3.92416,1.26783 4.02734,1.27539 0.17772,0.0158 0.68029,-1.32166 0.54688,-1.45508 -0.19903,-0.19903 -7.9563,-2.63235 -8.05078,-2.52539 z"
                 id="path2685" />
              <path
                 style="fill:#000000;stroke-width:0.0454815"
                 d="m -111.47022,-185.35195 c -0.0841,0.008 -0.16129,0.0456 -0.2005,0.11886 -0.0721,0.13466 -0.009,0.18442 0.13797,0.10852 0.11549,-0.0601 0.13587,-0.0592 0.19017,0.006 0.0521,0.0628 0.0458,0.0832 -0.0413,0.14107 -0.13367,0.0888 -0.12823,0.16602 0.0155,0.23152 0.16255,0.0741 0.13785,0.2511 -0.0377,0.2713 -0.0818,0.009 -0.13465,-0.0103 -0.15244,-0.0568 -0.0349,-0.0909 -0.19999,-0.0936 -0.19999,-0.003 0,0.0375 0.0415,0.10917 0.0915,0.15917 v 5.1e-4 c 0.0563,0.0563 0.15162,0.0909 0.25012,0.0909 0.28458,0 0.44853,-0.30629 0.26975,-0.50384 -0.0579,-0.064 -0.0608,-0.0956 -0.016,-0.16743 0.0299,-0.0486 0.0425,-0.13903 0.0269,-0.20103 -0.0342,-0.13641 -0.1937,-0.2086 -0.33383,-0.19585 z m -1.56218,0.003 c -0.13364,-0.003 -0.26522,0.0741 -0.31884,0.20361 -0.0784,0.18935 -0.0377,0.65245 0.0677,0.76895 0.12195,0.13476 0.40895,0.12721 0.50075,-0.0129 0.17942,-0.27383 0.10973,-0.8188 -0.11834,-0.92811 -0.0421,-0.0202 -0.0867,-0.0304 -0.13126,-0.0315 z m -0.80977,0.008 c -0.0957,2.2e-4 -0.19464,0.0374 -0.26561,0.11989 -0.13643,0.15841 -0.13443,0.2098 0.007,0.2098 0.0669,0 0.11369,-0.0263 0.11369,-0.0636 0,-0.0875 0.13452,-0.13111 0.21032,-0.0682 0.11246,0.0933 0.0664,0.2135 -0.18758,0.48782 -0.13758,0.1486 -0.25012,0.29301 -0.25012,0.32091 0,0.0329 0.12028,0.0506 0.34107,0.0506 0.31081,0 0.34158,-0.008 0.34158,-0.0909 0,-0.0737 -0.0308,-0.091 -0.15968,-0.091 -0.1829,0 -0.19881,-0.0409 -0.0636,-0.16329 0.12585,-0.11391 0.22272,-0.30587 0.22272,-0.44132 0,-0.16849 -0.15063,-0.27115 -0.31006,-0.27078 z m 1.52343,0.0186 c -0.0581,0.005 -0.0928,0.0295 -0.12041,0.0811 -0.0429,0.0802 -0.0369,0.0935 0.0424,0.0935 0.0866,0 0.0925,0.0277 0.0925,0.43511 0,0.42155 0.003,0.43475 0.0992,0.42065 0.0953,-0.014 0.0996,-0.0333 0.0946,-0.5147 l -0.005,-0.50023 -0.13642,-0.0139 c -0.0251,-0.003 -0.0473,-0.003 -0.0667,-0.002 z m -0.69815,0.15245 c 0.0235,0.006 0.0465,0.0186 0.0677,0.0398 0.0695,0.0696 0.0952,0.51558 0.0351,0.61288 -0.0505,0.0818 -0.2011,0.0602 -0.2527,-0.0362 -0.0516,-0.0965 -0.0608,-0.33336 -0.0191,-0.48886 0.0259,-0.0965 0.0985,-0.14504 0.16898,-0.12764 z"
                 id="path2687"
                 inkscape:connector-curvature="0" />
              <path
                 style="fill:#000000;stroke-width:0.0454815"
                 d="m -139.33686,-185.26956 c -0.0907,0 -0.0909,0.26708 -5.1e-4,0.41549 0.0512,0.0841 0.10615,0.25011 0.12195,0.36845 0.0381,0.28555 0.10801,0.23054 0.10801,-0.0847 0,-0.2434 -0.14965,-0.69919 -0.22945,-0.69919 z m 1.2175,0.01 c -0.0121,-0.001 -0.0359,0.0198 -0.0832,0.0625 -0.0527,0.0477 -0.13795,0.14609 -0.18965,0.21859 l -0.0941,0.1323 0.10232,0.0827 c 0.0957,0.0775 0.0975,0.0893 0.0305,0.185 -0.0985,0.14061 -0.0901,0.21453 0.0305,0.26303 l 5.2e-4,-5.1e-4 c 0.16787,0.0675 0.25327,0.0527 0.28577,-0.0496 0.031,-0.0975 -0.034,-0.1747 -0.14934,-0.1757 -0.083,-0.001 -0.0704,-0.0626 0.0434,-0.20723 0.0558,-0.0704 0.081,-0.13514 0.0568,-0.14314 -0.0241,-0.008 -0.0741,-0.0359 -0.11162,-0.061 -0.0595,-0.0398 -0.058,-0.0516 0.0114,-0.0925 0.0438,-0.0258 0.0796,-0.0899 0.0796,-0.14262 0,-0.0472 -7.7e-4,-0.0707 -0.0129,-0.0718 z m 0.65474,0.003 c -0.0131,0.007 -0.0268,0.0372 -0.0486,0.0946 -0.0406,0.10684 -0.0334,0.15527 0.0388,0.27285 0.0484,0.0786 0.10122,0.22498 0.11782,0.32504 0.0165,0.10006 0.0435,0.21262 0.06,0.25012 0.0165,0.0375 0.0364,-0.0644 0.0444,-0.22635 0.0152,-0.31051 0.0593,-0.37721 0.22169,-0.33641 0.11742,0.0295 0.19879,-0.092 0.19379,-0.28732 -0.002,-0.0704 -0.0143,-0.10261 -0.0269,-0.0713 -0.0126,0.0313 -0.0622,0.0574 -0.11007,0.0574 -0.0479,0 -0.0876,-0.0261 -0.0884,-0.0574 -9e-4,-0.0348 -0.0251,-0.0259 -0.062,0.0227 -0.0332,0.0438 -0.10325,0.0796 -0.15555,0.0796 -0.0523,0 -0.11502,-0.0358 -0.13952,-0.0796 -0.0196,-0.0352 -0.0324,-0.0509 -0.0455,-0.0439 z m 1.31672,0.12402 c -0.10972,0 -0.22537,0.16332 -0.27647,0.38964 -0.0301,0.13322 -0.0206,0.18045 0.0501,0.25115 0.1026,0.1026 0.0824,0.0999 0.26355,0.0367 0.14193,-0.0495 0.27802,-0.23682 0.27802,-0.38189 0,-0.10275 -0.20572,-0.29559 -0.31522,-0.29559 z m -0.11163,0.24546 c 0.0873,0.004 0.29043,0.11157 0.29043,0.16485 0,0.0456 -0.20566,0.0554 -0.30696,0.0145 -0.0674,-0.0272 -0.0755,-0.13493 -0.0129,-0.17363 0.007,-0.004 0.017,-0.006 0.0294,-0.006 z"
                 id="path2689"
                 inkscape:connector-curvature="0" />
            </g>
          </g>
        </g>
        <g
           id="g17609">
          <text
             xml:space="preserve"
             style="font-style:normal;font-weight:normal;font-size:6.20066px;line-height:1.25;font-family:sans-serif;fill:#1a1a1a;fill-opacity:1;stroke:none;stroke-width:0.155017"
             x="157.01686"
             y="27.813858"
             id="text15801"><tspan
               sodipodi:role="line"
               id="tspan15799"
               style="font-style:normal;font-variant:normal;font-weight:bold;font-stretch:normal;font-family:Metropolis;-inkscape-font-specification:'Metropolis Bold';fill:#1a1a1a;fill-opacity:1;stroke-width:0.155017"
               x="157.01686"
               y="27.813858">Istiqlal Islamic School</tspan></text>
          <text
             xml:space="preserve"
             style="font-style:normal;font-weight:normal;font-size:6.20066px;line-height:1.25;font-family:sans-serif;fill:#1a1a1a;fill-opacity:1;stroke:none;stroke-width:0.155017"
             x="157.01686"
             y="34.42844"
             id="text16489"><tspan
               sodipodi:role="line"
               id="tspan16487"
               style="font-style:normal;font-variant:normal;font-weight:normal;font-stretch:normal;font-family:Metropolis;-inkscape-font-specification:Metropolis;fill:#1a1a1a;fill-opacity:1;stroke-width:0.155017"
               x="157.01686"
               y="34.42844">Tambun Selatan</tspan></text>
        </g>
      </g>
      <g
         id="g19253"
         transform="translate(0,-4.589076)">
        <text
           xml:space="preserve"
           style="font-style:normal;font-weight:normal;font-size:24.6826px;line-height:1.25;font-family:sans-serif;fill:#5599ff;fill-opacity:1;stroke:none;stroke-width:0.617068"
           x="68.300034"
           y="60.638695"
           id="text113633"><tspan
             sodipodi:role="line"
             id="tspan113631"
             style="font-style:normal;font-variant:normal;font-weight:bold;font-stretch:normal;font-family:Arvo;-inkscape-font-specification:'Arvo Bold';fill:#5599ff;fill-opacity:1;stroke-width:0.617068"
             x="68.300034"
             y="60.638695">Sertifikat</tspan></text>
        <text
           xml:space="preserve"
           style="font-style:normal;font-weight:normal;font-size:4.59751px;line-height:1.35;font-family:sans-serif;fill:#1a1a1a;fill-opacity:1;stroke:none;stroke-width:0.114937"
           x="68.749275"
           y="124.29462"
           id="text2418"><tspan
             sodipodi:role="line"
             id="tspan2416"
             style="font-style:normal;font-variant:normal;font-weight:normal;font-stretch:normal;font-family:Sen;-inkscape-font-specification:Sen;fill:#1a1a1a;fill-opacity:1;stroke-width:0.114937"
             x="68.749275"
             y="124.29462">Atas kesungguhan dan prestasinya meraih</tspan><tspan
             sodipodi:role="line"
             style="font-style:normal;font-variant:normal;font-weight:normal;font-stretch:normal;font-family:Sen;-inkscape-font-specification:Sen;fill:#1a1a1a;fill-opacity:1;stroke-width:0.114937"
             x="68.749275"
             y="130.50125"
             id="tspan9634">pada Ujian Akhir Sekolah (UAS) Kelas 9                        </tspan><tspan
             sodipodi:role="line"
             style="font-style:normal;font-variant:normal;font-weight:normal;font-stretch:normal;font-family:Sen;-inkscape-font-specification:Sen;fill:#1a1a1a;fill-opacity:1;stroke-width:0.114937"
             x="68.749275"
             y="136.7079"
             id="tspan9636">TP. 2020-2021</tspan></text>
        <text
           xml:space="preserve"
           style="font-style:normal;font-weight:normal;font-size:5.26906px;line-height:1.25;font-family:sans-serif;fill:#1a1a1a;fill-opacity:1;stroke:none;stroke-width:0.131726"
           x="68.228157"
           y="77.196045"
           id="text11144"><tspan
             sodipodi:role="line"
             style="font-style:normal;font-variant:normal;font-weight:normal;font-stretch:normal;font-family:Sen;-inkscape-font-specification:Sen;fill:#1a1a1a;fill-opacity:1;stroke-width:0.131726"
             x="68.228157"
             y="77.196045"
             id="tspan11142">Diberikan Kepada</tspan></text>
        <rect
           style="fill:#1a1a1a;fill-opacity:1;stroke-width:6.75408;stroke-linecap:square"
           id="rect15507"
           width="94.671219"
           height="0.82682288"
           x="68.794174"
           y="102.46717"
           ry="0.41341144" />
        <text
           xml:space="preserve"
           style="font-style:normal;font-weight:normal;font-size:5.26906px;line-height:1.35;font-family:sans-serif;fill:#1a1a1a;fill-opacity:1;stroke:none;stroke-width:0.131726"
           x="68.646637"
           y="111.92261"
           id="text17669"><tspan
             sodipodi:role="line"
             style="font-style:normal;font-variant:normal;font-weight:bold;font-stretch:normal;font-family:Metropolis;-inkscape-font-specification:'Metropolis Bold';fill:#1a1a1a;fill-opacity:1;stroke-width:0.131726"
             x="68.646637"
             y="111.92261"
             id="tspan17667">SMP Islam Istiqlal </tspan></text>
      </g>
    </g>
    <g
       id="g14459">
      <text
         id="text5868-5"
         y="115.45653"
         x="451.99594"
         style="font-style:normal;font-variant:normal;font-weight:normal;font-stretch:normal;font-size:4.42095px;line-height:1.25;font-family:Figtree;-inkscape-font-specification:Figtree;text-align:start;letter-spacing:0px;word-spacing:0px;text-anchor:start;stroke-width:0.450537"
         xml:space="preserve"><tspan
           id="tspan5866-6"
           style="font-style:normal;font-variant:normal;font-weight:normal;font-stretch:normal;font-size:4.42095px;font-family:Figtree;-inkscape-font-specification:Figtree;text-align:start;text-anchor:start;stroke-width:0.450537"
           y="115.45653"
           x="451.99594"
           sodipodi:role="line">Bekasi, 24 Juni 2023</tspan><tspan
           id="tspan5881-4"
           style="font-style:normal;font-variant:normal;font-weight:normal;font-stretch:normal;font-size:4.42095px;font-family:Figtree;-inkscape-font-specification:Figtree;text-align:start;text-anchor:start;stroke-width:0.450537"
           y="120.98271"
           x="451.99594"
           sodipodi:role="line">Kepala SMP Islam Istiqlal</tspan><tspan
           id="tspan5887-5"
           style="font-style:normal;font-variant:normal;font-weight:normal;font-stretch:normal;font-size:4.42095px;font-family:Figtree;-inkscape-font-specification:Figtree;text-align:start;text-anchor:start;stroke-width:0.450537"
           y="126.5089"
           x="451.99594"
           sodipodi:role="line" /><tspan
           id="tspan5897-1"
           style="font-style:normal;font-variant:normal;font-weight:normal;font-stretch:normal;font-size:4.42095px;font-family:Figtree;-inkscape-font-specification:Figtree;text-align:start;text-anchor:start;stroke-width:0.450537"
           y="132.0351"
           x="451.99594"
           sodipodi:role="line" /><tspan
           id="tspan5889-6"
           style="font-style:normal;font-variant:normal;font-weight:normal;font-stretch:normal;font-size:4.42095px;font-family:Figtree;-inkscape-font-specification:Figtree;text-align:start;text-anchor:start;stroke-width:0.450537"
           y="137.56128"
           x="451.99594"
           sodipodi:role="line" /><tspan
           style="font-style:normal;font-variant:normal;font-weight:normal;font-stretch:normal;font-size:4.42095px;font-family:Figtree;-inkscape-font-specification:Figtree;text-align:start;text-anchor:start;stroke-width:0.450537"
           y="143.08746"
           x="451.99594"
           sodipodi:role="line"
           id="tspan22758">Akhmad Fauzi, S.Pd.I</tspan><tspan
           style="font-style:normal;font-variant:normal;font-weight:normal;font-stretch:normal;font-size:4.42095px;font-family:Figtree;-inkscape-font-specification:Figtree;text-align:start;text-anchor:start;stroke-width:0.450537"
           y="148.61365"
           x="451.99594"
           sodipodi:role="line"
           id="tspan21706">NIPY : 201412005</tspan></text>
      <rect
         style="fill:#ff9a00;fill-opacity:1;stroke-width:2.43259;stroke-linecap:square"
         id="rect15507-9"
         width="13.307465"
         height="0.76303023"
         x="281.00897"
         y="64.077301"
         ry="0.38151512" />
      <g
         id="g34158"
         transform="translate(-0.89769083)">
        <circle
           style="opacity:1;fill:#ffa700;fill-opacity:1;stroke:none;stroke-width:1.72028;stroke-linecap:round;stroke-miterlimit:4;stroke-dasharray:none"
           id="path14202"
           cx="283.68121"
           cy="14.726562"
           r="6.7435937" />
        <text
           xml:space="preserve"
           style="font-style:normal;font-weight:normal;font-size:18.1064px;line-height:0;font-family:sans-serif;white-space:pre;inline-size:141.173;display:inline;fill:#333333;fill-opacity:1;stroke:none;stroke-width:0.452539;stroke-miterlimit:4;stroke-dasharray:none"
           x="281.39499"
           y="46.848877"
           id="text113633-6"
           transform="matrix(1.2764386,0,0,1.2764386,-76.556264,-27.023586)"><tspan
             x="281.39499"
             y="46.848877"
             id="tspan19141"><tspan
               style="font-weight:bold;line-height:1.25;font-family:'Playfair Display';-inkscape-font-specification:'Playfair Display Bold'"
               id="tspan19139">Piagam </tspan></tspan><tspan
             x="281.39499"
             y="64.049958"
             id="tspan19145"><tspan
               style="font-weight:bold;line-height:0.65;font-family:'Playfair Display';-inkscape-font-specification:'Playfair Display Bold'"
               id="tspan19143">Penghargaan</tspan></tspan></text>
      </g>
      <g
         id="g34152"
         transform="translate(0,10.77229)">
        <text
           xml:space="preserve"
           style="font-style:normal;font-weight:normal;font-size:4.66995px;line-height:1.35;font-family:sans-serif;text-align:start;text-anchor:start;fill:#1a1a1a;fill-opacity:1;stroke:none;stroke-width:0.116748"
           x="280.98099"
           y="79.050293"
           id="text2418-4"><tspan
             sodipodi:role="line"
             style="font-style:normal;font-variant:normal;font-weight:normal;font-stretch:normal;font-family:Figtree;-inkscape-font-specification:Figtree;text-align:start;text-anchor:start;fill:#1a1a1a;fill-opacity:1;stroke-width:0.116748"
             x="280.98099"
             y="79.050293"
             id="tspan9636-9">Is given to</tspan></text>
        <text
           xml:space="preserve"
           style="font-style:normal;font-variant:normal;font-weight:normal;font-stretch:normal;font-size:9.78023px;line-height:1.15;font-family:Figtree;-inkscape-font-specification:Figtree;white-space:pre;inline-size:123.027;display:inline;fill:#1a1a1a;fill-opacity:1;stroke:none;stroke-width:0.244503"
           x="280.34393"
           y="85.587936"
           id="text27995"
           transform="translate(0,8.0792184)"><tspan
             x="280.34393"
             y="85.587936"
             id="tspan19149"><tspan
               style="font-weight:800;-inkscape-font-specification:'Figtree Ultra-Bold'"
               id="tspan19147">MUHAMMAD HARITS </tspan></tspan><tspan
             x="280.34393"
             y="96.8352"
             id="tspan19153"><tspan
               style="font-weight:800;-inkscape-font-specification:'Figtree Ultra-Bold'"
               id="tspan19151">ABDURRAHMAN</tspan></tspan></text>
        <text
           xml:space="preserve"
           style="font-style:normal;font-variant:normal;font-weight:normal;font-stretch:normal;font-size:10.4842px;line-height:1.25;font-family:Figtree;-inkscape-font-specification:Figtree;fill:#1a1a1a;fill-opacity:1;stroke:none;stroke-width:0.262102"
           x="280.68085"
           y="70.25679"
           id="text30311"><tspan
             sodipodi:role="line"
             style="font-style:normal;font-variant:normal;font-weight:800;font-stretch:normal;font-family:Figtree;-inkscape-font-specification:'Figtree Ultra-Bold';fill:#1a1a1a;fill-opacity:1;stroke-width:0.262102"
             x="280.68085"
             y="70.25679"
             id="tspan30309">4<tspan
   style="font-size:6.81473px;baseline-shift:super;stroke-width:0.262102"
   id="tspan9491">th</tspan> Place</tspan></text>
        <text
           xml:space="preserve"
           style="font-style:normal;font-weight:normal;font-size:4.24279px;line-height:1.35;font-family:sans-serif;text-align:start;text-anchor:start;white-space:pre;inline-size:78.2688;display:inline;fill:#1a1a1a;fill-opacity:1;stroke:none;stroke-width:0.106069"
           x="281.92096"
           y="126.11226"
           id="text34792"
           transform="matrix(1.2560342,0,0,1.2560342,-73.339675,-42.655383)"><tspan
             x="281.92096"
             y="126.11226"
             id="tspan19157"><tspan
               style="font-family:Figtree;-inkscape-font-specification:Figtree"
               id="tspan19155">Congratulations on receiving this award. 
</tspan></tspan><tspan
             x="281.92096"
             y="131.85842"
             id="tspan19161"><tspan
               style="font-family:Figtree;-inkscape-font-specification:Figtree"
               id="tspan19159">You have been amazing, keep up the </tspan></tspan><tspan
             x="281.92096"
             y="137.60458"
             id="tspan19165"><tspan
               style="font-family:Figtree;-inkscape-font-specification:Figtree"
               id="tspan19163">great work</tspan></tspan></text>
      </g>
    </g>
  </g>
</svg>
