<?xml version="1.0" encoding="UTF-8" standalone="no"?>
<!-- Created with Inkscape (http://www.inkscape.org/) -->

<svg
   xmlns:dc="http://purl.org/dc/elements/1.1/"
   xmlns:cc="http://creativecommons.org/ns#"
   xmlns:rdf="http://www.w3.org/1999/02/22-rdf-syntax-ns#"
   xmlns:svg="http://www.w3.org/2000/svg"
   xmlns="http://www.w3.org/2000/svg"
   xmlns:xlink="http://www.w3.org/1999/xlink"
   xmlns:sodipodi="http://sodipodi.sourceforge.net/DTD/sodipodi-0.dtd"
   xmlns:inkscape="http://www.inkscape.org/namespaces/inkscape"
   width="300mm"
   height="420mm"
   viewBox="0 0 300 420"
   version="1.1"
   id="svg8"
   inkscape:version="0.92.4 (0.92.4+202002201503+ce16d39)"
   sodipodi:docname="cover_buku.svg">
  <defs
     id="defs2">
    <linearGradient
       inkscape:collect="always"
       id="linearGradient1576">
      <stop
         style="stop-color:#ffcc00;stop-opacity:1;"
         offset="0"
         id="stop1572" />
      <stop
         style="stop-color:#ffcc00;stop-opacity:0;"
         offset="1"
         id="stop1574" />
    </linearGradient>
    <linearGradient
       inkscape:collect="always"
       id="linearGradient1504">
      <stop
         style="stop-color:#ffcc00;stop-opacity:1;"
         offset="0"
         id="stop1500" />
      <stop
         style="stop-color:#ffcc00;stop-opacity:0;"
         offset="1"
         id="stop1502" />
    </linearGradient>
    <clipPath
       clipPathUnits="userSpaceOnUse"
       id="clipPath1190">
      <rect
         style="opacity:1;fill:#ffffff;fill-opacity:1;stroke:none;stroke-width:5;stroke-miterlimit:4;stroke-dasharray:none;stroke-opacity:1"
         id="rect1192"
         width="420"
         height="300"
         x="-449.86905"
         y="-149.39882"
         transform="rotate(-90)" />
    </clipPath>
    <radialGradient
       inkscape:collect="always"
       xlink:href="#linearGradient1504"
       id="radialGradient1506"
       cx="14.445225"
       cy="516.13318"
       fx="14.445225"
       fy="516.13318"
       r="209.24353"
       gradientTransform="matrix(0.8263158,0,0,0.5466967,-15.220352,198.90322)"
       gradientUnits="userSpaceOnUse" />
    <filter
       inkscape:label="Pointillism"
       style="color-interpolation-filters:sRGB;"
       inkscape:menu-tooltip="Gives a turbulent pointillist HSL sensitive transparency"
       inkscape:menu="Scatter"
       height="1.2"
       width="1.2"
       y="-0.1"
       x="-0.1"
       id="filter1548">
      <feTurbulence
         seed="50"
         type="fractalNoise"
         baseFrequency="1"
         numOctaves="3"
         result="result1"
         id="feTurbulence1530" />
      <feColorMatrix
         type="luminanceToAlpha"
         in="SourceGraphic"
         result="result0"
         id="feColorMatrix1532" />
      <feColorMatrix
         result="result2"
         values="1 0 0 0 0 0 1 0 0 0 0 0 1 0 0 0 0 0 0.5 0 "
         id="feColorMatrix1534" />
      <feComposite
         result="result3"
         operator="over"
         in="result1"
         in2="result2"
         id="feComposite1536" />
      <feColorMatrix
         result="result91"
         values="1 0 0 0 0 0 1 0 0 0 0 0 1 0 0 0 0 0 5 -3.2"
         id="feColorMatrix1538" />
      <feComposite
         in2="result91"
         operator="arithmetic"
         k1="1.5"
         result="result93"
         id="feComposite1540" />
      <feComposite
         in2="result93"
         in="SourceGraphic"
         operator="out"
         result="result4"
         id="feComposite1542" />
      <feComposite
         in2="result4"
         operator="arithmetic"
         k2="0.5"
         k1="1"
         id="feComposite1544" />
      <feDisplacementMap
         scale="15"
         xChannelSelector="R"
         yChannelSelector="A"
         in2="result1"
         result="result92"
         id="feDisplacementMap1546" />
    </filter>
    <radialGradient
       inkscape:collect="always"
       xlink:href="#linearGradient1576"
       id="radialGradient1578"
       cx="224.02354"
       cy="18.732224"
       fx="224.02354"
       fy="18.732224"
       r="205.04214"
       gradientTransform="matrix(0.40215585,0.40215585,-0.43364032,0.43364029,-92.267969,16.21529)"
       gradientUnits="userSpaceOnUse" />
    <filter
       inkscape:label="Pointillism"
       style="color-interpolation-filters:sRGB;"
       inkscape:menu-tooltip="Gives a turbulent pointillist HSL sensitive transparency"
       inkscape:menu="Scatter"
       height="1.2"
       width="1.2"
       y="-0.1"
       x="-0.1"
       id="filter1598">
      <feTurbulence
         seed="50"
         type="fractalNoise"
         baseFrequency="1"
         numOctaves="3"
         result="result1"
         id="feTurbulence1580" />
      <feColorMatrix
         type="luminanceToAlpha"
         in="SourceGraphic"
         result="result0"
         id="feColorMatrix1582" />
      <feColorMatrix
         result="result2"
         values="1 0 0 0 0 0 1 0 0 0 0 0 1 0 0 0 0 0 0.5 0 "
         id="feColorMatrix1584" />
      <feComposite
         result="result3"
         operator="over"
         in="result1"
         in2="result2"
         id="feComposite1586" />
      <feColorMatrix
         result="result91"
         values="1 0 0 0 0 0 1 0 0 0 0 0 1 0 0 0 0 0 5 -3.2"
         id="feColorMatrix1588" />
      <feComposite
         in2="result91"
         operator="arithmetic"
         k1="1.5"
         result="result93"
         id="feComposite1590" />
      <feComposite
         in2="result93"
         in="SourceGraphic"
         operator="out"
         result="result4"
         id="feComposite1592" />
      <feComposite
         in2="result4"
         operator="arithmetic"
         k2="0.5"
         k1="1"
         id="feComposite1594" />
      <feDisplacementMap
         scale="15"
         xChannelSelector="R"
         yChannelSelector="A"
         in2="result1"
         result="result92"
         id="feDisplacementMap1596" />
    </filter>
    <clipPath
       clipPathUnits="userSpaceOnUse"
       id="clipPath1622">
      <rect
         transform="rotate(-90)"
         y="-149.39882"
         x="-449.86905"
         height="300"
         width="420"
         id="rect1624"
         style="opacity:1;fill:#e6e6e6;fill-opacity:1;stroke:none;stroke-width:5;stroke-miterlimit:4;stroke-dasharray:none;stroke-opacity:1" />
    </clipPath>
  </defs>
  <sodipodi:namedview
     id="base"
     pagecolor="#ffffff"
     bordercolor="#666666"
     borderopacity="1.0"
     inkscape:pageopacity="0.0"
     inkscape:pageshadow="2"
     inkscape:zoom="0.30868056"
     inkscape:cx="566.92914"
     inkscape:cy="793.70079"
     inkscape:document-units="mm"
     inkscape:current-layer="layer1"
     showgrid="false"
     inkscape:pagecheckerboard="true"
     inkscape:window-width="1311"
     inkscape:window-height="676"
     inkscape:window-x="20"
     inkscape:window-y="35"
     inkscape:window-maximized="1"
     inkscape:snap-global="false" />
  <metadata
     id="metadata5">
    <rdf:RDF>
      <cc:Work
         rdf:about="">
        <dc:format>image/svg+xml</dc:format>
        <dc:type
           rdf:resource="http://purl.org/dc/dcmitype/StillImage" />
        <dc:title />
      </cc:Work>
    </rdf:RDF>
  </metadata>
  <g
     inkscape:label="Layer 1"
     inkscape:groupmode="layer"
     id="layer1"
     transform="translate(149.39882,-29.869049)">
    <rect
       style="opacity:1;fill:#ffffff;fill-opacity:1;stroke:none;stroke-width:5;stroke-miterlimit:4;stroke-dasharray:none;stroke-opacity:1"
       id="rect10"
       width="420"
       height="300"
       x="-449.86905"
       y="-149.39882"
       transform="rotate(-90)" />
    <rect
       style="opacity:1;fill:#ffffff;fill-opacity:1;stroke:none;stroke-width:7.72669363;stroke-miterlimit:4;stroke-dasharray:none;stroke-opacity:1"
       id="rect54"
       width="351.53308"
       height="124.85484"
       x="357.2937"
       y="149.24767"
       ry="7.0672555" />
    <g
       id="g1612"
       clip-path="url(#clipPath1622)" />
    <rect
       style="opacity:1;fill:none;fill-opacity:1;stroke:#ffcc00;stroke-width:1.11108041;stroke-miterlimit:4;stroke-dasharray:none;stroke-opacity:1"
       id="rect106"
       width="121.88087"
       height="171.22864"
       x="-61.493858"
       y="160.84863"
       ry="8.0810041" />
    <g
       id="g1632"
       style="fill:#ffcc00;fill-opacity:1"
       transform="translate(-3.0358458,-10.529256)">
      <text
         id="text14"
         y="222.28638"
         x="-29.234289"
         style="font-style:normal;font-weight:normal;font-size:34.7337265px;line-height:1.25;font-family:sans-serif;letter-spacing:0px;word-spacing:0px;fill:#ffcc00;fill-opacity:1;stroke:none;stroke-width:0.86834311"
         xml:space="preserve"><tspan
           style="font-style:normal;font-variant:normal;font-weight:normal;font-stretch:normal;font-family:'ONE DAY';-inkscape-font-specification:'ONE DAY';fill:#ffcc00;fill-opacity:1;stroke-width:0.86834311"
           y="222.28638"
           x="-29.234289"
           id="tspan12"
           sodipodi:role="line">PTQ</tspan></text>
      <text
         id="text41"
         y="256.51965"
         x="-48.440178"
         style="font-style:normal;font-weight:normal;font-size:28.64648819px;line-height:1.25;font-family:sans-serif;letter-spacing:0px;word-spacing:0px;fill:#ffcc00;fill-opacity:1;stroke:none;stroke-width:0.71616215"
         xml:space="preserve"><tspan
           style="font-style:normal;font-variant:normal;font-weight:normal;font-stretch:normal;font-family:'ONE DAY';-inkscape-font-specification:'ONE DAY';fill:#ffcc00;fill-opacity:1;stroke-width:0.71616215"
           y="256.51965"
           x="-48.440178"
           id="tspan39"
           sodipodi:role="line">zaid Bin</tspan></text>
      <text
         xml:space="preserve"
         style="font-style:normal;font-weight:normal;font-size:32.40263367px;line-height:1.25;font-family:sans-serif;letter-spacing:0px;word-spacing:0px;fill:#ffcc00;fill-opacity:1;stroke:none;stroke-width:0.81006581"
         x="-44.75423"
         y="293.37747"
         id="text45"><tspan
           sodipodi:role="line"
           id="tspan43"
           x="-44.75423"
           y="293.37747"
           style="font-style:normal;font-variant:normal;font-weight:normal;font-stretch:normal;font-family:'ONE DAY';-inkscape-font-specification:'ONE DAY';fill:#ffcc00;fill-opacity:1;stroke-width:0.81006581">tsabit</tspan></text>
      <text
         id="text892"
         y="316.14023"
         x="-16.547279"
         style="font-style:normal;font-weight:normal;font-size:16.40256882px;line-height:1.25;font-family:sans-serif;letter-spacing:0px;word-spacing:0px;fill:#ffcc00;fill-opacity:1;stroke:none;stroke-width:0.41006416"
         xml:space="preserve"><tspan
           style="font-style:normal;font-variant:normal;font-weight:normal;font-stretch:normal;font-family:'ONE DAY';-inkscape-font-specification:'ONE DAY';fill:#ffcc00;fill-opacity:1;stroke-width:0.41006416"
           y="316.14023"
           x="-16.547279"
           id="tspan890"
           sodipodi:role="line">Putri</tspan></text>
    </g>
    <rect
       style="opacity:1;fill:#ffcc00;fill-opacity:1;stroke:none;stroke-width:5;stroke-miterlimit:4;stroke-dasharray:none;stroke-opacity:1"
       id="rect66"
       width="25.714285"
       height="25.714285"
       x="-315.68454"
       y="305.86905" />
    <text
       xml:space="preserve"
       style="font-style:normal;font-weight:normal;font-size:32.11166px;line-height:1.25;font-family:sans-serif;letter-spacing:0px;word-spacing:0px;fill:#000000;fill-opacity:1;stroke:none;stroke-width:0.80279148"
       x="-672.19275"
       y="162.8764"
       id="text66"><tspan
         sodipodi:role="line"
         id="tspan64"
         x="-672.19275"
         y="162.8764"
         style="font-style:normal;font-variant:normal;font-weight:normal;font-stretch:normal;font-family:'Walkway Bonus';-inkscape-font-specification:'Walkway Bonus';stroke-width:0.80279148">abcdefghi</tspan></text>
    <path
       inkscape:connector-curvature="0"
       id="path72"
       style="font-style:normal;font-variant:normal;font-weight:normal;font-stretch:normal;font-size:32.11166px;line-height:1.25;font-family:'Walkway Bonus';-inkscape-font-specification:'Walkway Bonus';letter-spacing:0px;word-spacing:0px;fill:#000000;fill-opacity:1;stroke:none;stroke-width:0.80279148"
       d="m -661.18572,234.45406 q -3.49654,0 -4.84498,0.79966 -1.34844,0.79965 -1.34844,2.72823 0,1.5366 1.00349,2.44601 1.01917,0.89373 2.7596,0.89373 2.39897,0 3.84148,-1.69339 1.4582,-1.70906 1.4582,-4.53138 v -0.64286 z m 5.75438,-1.19164 v 10.01921 h -2.88503 v -2.66552 q -0.98781,1.59931 -2.46169,2.36761 -1.47387,0.75262 -3.60629,0.75262 -2.69688,0 -4.29619,-1.50524 -1.58363,-1.52091 -1.58363,-4.06099 0,-2.96343 1.97562,-4.46867 1.9913,-1.50523 5.92686,-1.50523 h 4.04532 v -0.28223 q 0,-1.9913 -1.31708,-3.07319 -1.3014,-1.09756 -3.66901,-1.09756 -1.50523,0 -2.93207,0.36062 -1.42684,0.36063 -2.74392,1.08189 v -2.66552 q 1.58363,-0.6115 3.07319,-0.90941 1.48955,-0.31359 2.90071,-0.31359 3.81012,0 5.69167,1.97562 1.88154,1.97562 1.88154,5.98958 z" />
    <path
       inkscape:connector-curvature="0"
       id="path76"
       style="font-style:normal;font-variant:normal;font-weight:normal;font-stretch:normal;font-size:32.11166px;line-height:1.25;font-family:'Walkway Bonus';-inkscape-font-specification:'Walkway Bonus';letter-spacing:0px;word-spacing:0px;fill:#000000;fill-opacity:1;stroke:none;stroke-width:0.80279148"
       d="m -492.33263,278.62435 v 0 q 0.0314,0 0.047,0.0314 0.0314,0.0157 0.0314,0.047 0,0.0157 -0.0314,0.0314 -2.1481,1.19164 -4.57842,0.95645 l -0.39199,-0.047 q -0.48606,0.12543 -1.31708,0.17247 0.12544,0.0314 0.25087,0.0627 1.27004,0.32927 2.00698,1.39548 0.0314,0.047 0.0157,0.0784 -0.0157,0.0314 -0.047,0.047 -0.0314,0.0157 -0.0784,0 -0.0784,-0.0627 -0.25087,-0.047 -0.15679,0.0157 -0.32927,0.0314 -0.17247,0.0314 -0.26655,0.0314 -0.25087,0 -0.48606,-0.0314 -0.59583,-0.10975 -1.12893,-0.36062 -0.90941,-0.47039 -1.69339,-1.12893 -0.31359,0 -0.62718,0 -1.19164,0.0314 -2.57144,0.0784 0.62718,0.0627 1.25436,0.20383 1.25436,0.34495 1.9913,1.39548 0.0314,0.047 0.0157,0.0941 -0.0157,0.0314 -0.047,0.047 -0.0314,0.0157 -0.0784,-0.0157 -0.0784,-0.047 -0.25087,-0.0314 -0.15679,0 -0.32927,0.0314 -0.17247,0.0314 -0.26655,0.0314 -0.25087,0 -0.48607,-0.047 -0.59582,-0.0941 -1.12892,-0.36063 -0.94077,-0.48607 -1.74043,-1.16029 -0.0784,-0.0627 -0.17247,-0.14111 -1.27004,0.0627 -2.63416,0.18815 0.4547,0.0627 0.90941,0.17248 1.25436,0.32927 2.00698,1.39547 0.0314,0.047 0.0157,0.0941 -0.0157,0.0314 -0.0627,0.047 -0.0314,0 -0.0627,-0.0157 -0.0941,-0.047 -0.26655,-0.0314 -0.1568,0 -0.32927,0.0314 -0.1568,0.0157 -0.25087,0.0314 -0.25087,-0.0157 -0.48607,-0.047 -0.59582,-0.0941 -1.1446,-0.36063 -0.92509,-0.48606 -1.72475,-1.16028 -1.39548,0.17247 -2.79095,0.43902 0.0784,0.0157 0.15679,0.0314 0.65854,0.0627 1.3014,0.20384 1.25436,0.34494 1.9913,1.41115 0.0314,0.0314 0.0157,0.0784 -0.0157,0.0314 -0.047,0.047 -0.0314,0.0157 -0.0784,-0.0157 -0.0784,-0.047 -0.25087,-0.0314 -0.15679,0 -0.32927,0.0314 -0.17247,0.0314 -0.26655,0.0314 -0.25087,0 -0.48607,-0.047 -0.59582,-0.0941 -1.12892,-0.36063 -0.94077,-0.48606 -1.74043,-1.16028 -0.0157,-0.0157 -0.0157,-0.0157 -1.55227,0.34495 -2.99479,0.87805 0.31359,0.047 0.6115,0.0784 0.64287,0.0627 1.28573,0.21951 1.25436,0.32927 2.00697,1.39548 0.0314,0.047 0.0157,0.0784 -0.0157,0.0314 -0.0627,0.047 -0.0314,0.0157 -0.0627,0 -0.0941,-0.0627 -0.26655,-0.047 -0.1568,0.0157 -0.32927,0.0314 -0.1568,0.0314 -0.26656,0.0314 -0.23519,0 -0.48606,-0.0314 -0.58014,-0.10975 -1.12893,-0.36062 -0.92509,-0.48607 -1.72474,-1.17597 -0.047,-0.0314 -0.0941,-0.0627 -1.27004,0.50175 -2.39897,1.19165 0.36063,0.25087 0.70558,0.5331 0.0941,0.0941 0.0941,0.21951 0.0157,0.10976 -0.0627,0.21952 -0.0941,0.10975 -0.23519,0.10975 -0.0941,0 -0.18816,-0.0784 -0.42334,-0.34495 -0.87805,-0.64286 -0.43903,0.29791 -0.86237,0.64286 -0.0941,0.0784 -0.18816,0.0784 -0.14111,0 -0.23519,-0.10975 -0.0784,-0.10976 -0.0784,-0.21952 0.0157,-0.12543 0.10976,-0.21951 0.34495,-0.28223 0.70558,-0.5331 -1.12893,-0.6899 -2.39897,-1.19165 -0.047,0.0314 -0.0941,0.0627 -0.79965,0.6899 -1.72475,1.17597 -0.54878,0.25087 -1.1446,0.36062 -0.23519,0.0314 -0.48607,0.0314 -0.0941,0 -0.25087,-0.0314 -0.17247,-0.0157 -0.34495,-0.0314 -0.15679,-0.0157 -0.25087,0.047 -0.0314,0.0157 -0.0784,0 -0.0314,-0.0157 -0.047,-0.047 -0.0157,-0.0314 0.0157,-0.0784 0.75262,-1.06621 2.00698,-1.39548 0.64286,-0.15679 1.28572,-0.21951 0.29791,-0.0314 0.6115,-0.0784 -1.45819,-0.5331 -2.99478,-0.87805 -0.0157,0 -0.0157,0.0157 -0.79966,0.67422 -1.74043,1.16028 -0.5331,0.26655 -1.12893,0.36063 -0.25087,0.047 -0.48606,0.047 -0.0941,0 -0.26655,-0.0314 -0.17248,-0.0314 -0.34495,-0.0314 -0.1568,-0.0157 -0.2352,0.0314 -0.047,0.0314 -0.0784,0.0157 -0.0314,-0.0157 -0.047,-0.047 -0.0157,-0.047 0,-0.0784 0.75262,-1.06621 2.00698,-1.41115 0.64286,-0.14112 1.3014,-0.20384 0.0784,-0.0157 0.15679,-0.0314 -1.39547,-0.26655 -2.80663,-0.43902 -0.78398,0.67422 -1.72475,1.16028 -0.5331,0.26655 -1.12892,0.36063 -0.2352,0.0314 -0.48607,0.047 -0.0941,-0.0157 -0.26655,-0.0314 -0.1568,-0.0314 -0.32927,-0.0314 -0.1568,-0.0157 -0.25087,0.0314 -0.0314,0.0157 -0.0784,0.0157 -0.0314,-0.0157 -0.047,-0.047 -0.0157,-0.047 0.0157,-0.0941 0.75262,-1.0662 2.00698,-1.39547 0.4547,-0.10976 0.90941,-0.17248 -1.36412,-0.12544 -2.63416,-0.18815 -0.0941,0.0784 -0.17247,0.14111 -0.79966,0.67422 -1.74043,1.16029 -0.5331,0.26655 -1.12893,0.36063 -0.25087,0.047 -0.48606,0.047 -0.0941,0 -0.26655,-0.0314 -0.17248,-0.0314 -0.34495,-0.0314 -0.1568,-0.0157 -0.2352,0.0314 -0.047,0.0314 -0.0784,0.0157 -0.0314,-0.0157 -0.047,-0.047 -0.0157,-0.047 0,-0.0941 0.75262,-1.05053 2.00698,-1.39548 0.62718,-0.14111 1.25436,-0.20383 -1.3798,-0.047 -2.57144,-0.0784 -0.32927,0 -0.62718,0 -0.78398,0.65854 -1.69339,1.12893 -0.53311,0.25087 -1.12893,0.36062 -0.25087,0.0314 -0.48606,0.0314 -0.0941,0 -0.26655,-0.0314 -0.17248,-0.0157 -0.34495,-0.0314 -0.1568,-0.0157 -0.2352,0.047 -0.047,0.0157 -0.0784,0 -0.0314,-0.0157 -0.047,-0.047 -0.0157,-0.0314 0,-0.0784 0.75261,-1.06621 2.00698,-1.39548 0.14111,-0.0314 0.26655,-0.0627 -0.83102,-0.047 -1.31708,-0.17247 l -0.39199,0.047 q -2.43033,0.23519 -4.57842,-0.95645 -0.0314,-0.0157 -0.0314,-0.0314 0,-0.0314 0.0157,-0.047 0.0157,-0.0314 0.047,-0.0314 0.31359,-0.0314 0.64286,-0.0784 0.7683,-0.12543 1.50523,-0.0941 -0.23519,-0.18815 -0.4547,-0.39198 -0.10976,-0.12544 -0.25088,-0.31359 -0.14111,-0.20384 -0.31359,-0.37631 -0.15679,-0.17248 -0.32927,-0.21952 -0.047,-0.0157 -0.0627,-0.047 0,-0.047 0.0314,-0.0784 0.0313,-0.0314 0.0784,-0.0157 1.41116,0.17247 2.6028,0.94077 0.34495,0.23519 0.65854,0.47039 0.40767,0.31359 0.83102,0.59582 0.0157,0 0.0157,0 0,0 0,0 0.86237,0.23519 3.35541,0.26655 0,-0.10976 0.0157,-0.20383 0.0157,-1.05053 0.28224,-2.0697 0.15679,-0.58014 0.48606,-1.08189 0.12544,-0.20383 0.29791,-0.39199 0.0627,-0.0784 0.18816,-0.17247 0.14111,-0.10976 0.25087,-0.21951 0.12543,-0.12544 0.14111,-0.21952 0,-0.047 0.0314,-0.0627 0.047,-0.0157 0.0784,0 0.047,0 0.047,0.047 0.29791,1.27004 -0.28223,2.43033 -0.31359,0.58014 -0.70558,1.09756 -0.28223,0.42335 -0.54878,0.8467 0.12543,0 0.25087,0 0.0314,0.0157 0.0627,0.0157 1.63067,0.0157 3.62197,0.10976 0.0157,-0.0157 0.0157,-0.0314 0.0157,-1.05053 0.28223,-2.0697 0.15679,-0.56446 0.48606,-1.08189 0.12544,-0.20383 0.29791,-0.39199 0.0627,-0.0627 0.18816,-0.17247 0.14111,-0.10976 0.25087,-0.21951 0.12544,-0.10976 0.14112,-0.21952 0,-0.047 0.0313,-0.0627 0.047,-0.0157 0.0784,0 0.047,0.0157 0.047,0.0627 0.29791,1.27004 -0.28223,2.43033 -0.31359,0.56446 -0.70558,1.09757 -0.23519,0.32927 -0.45471,0.67421 1.85019,0.0941 3.82581,0.32927 0.0157,-0.0941 0.0157,-0.17247 0.0314,-1.05053 0.28223,-2.0697 0.17247,-0.58014 0.48606,-1.08188 0.14112,-0.20384 0.29791,-0.39199 0.0627,-0.0627 0.18816,-0.17248 0.14111,-0.10975 0.25087,-0.21951 0.12544,-0.12544 0.14112,-0.21951 0.0157,-0.047 0.047,-0.0627 0.0314,-0.0157 0.0627,0 0.047,0.0157 0.0627,0.0627 0.29791,1.25436 -0.29791,2.41464 -0.31359,0.58015 -0.6899,1.11325 -0.29791,0.40767 -0.56446,0.83101 1.69339,0.21952 3.3711,0.58015 0,-0.0627 0.0157,-0.12544 0.0157,-1.05053 0.28223,-2.05402 0.15679,-0.58014 0.48606,-1.09756 0.12544,-0.20384 0.29791,-0.37631 0.0627,-0.0784 0.18816,-0.18816 0.14111,-0.10975 0.25087,-0.21951 0.12544,-0.10976 0.14112,-0.21951 0,-0.047 0.0313,-0.0627 0.047,-0.0157 0.0784,0 0.047,0.0157 0.047,0.0627 0.29791,1.27004 -0.28223,2.43032 -0.31359,0.56447 -0.70558,1.09757 -0.28223,0.40767 -0.54878,0.83101 1.63067,0.37631 3.15158,0.95645 0.0314,-1.0662 0.28223,-2.08537 0.17248,-0.58014 0.48607,-1.08189 0.14111,-0.20383 0.29791,-0.39199 0.0627,-0.0784 0.20383,-0.17247 0.12544,-0.10976 0.2352,-0.21952 0.12543,-0.12543 0.14111,-0.21951 0.0157,-0.047 0.047,-0.0627 0.047,-0.0157 0.0784,0 0.0314,0 0.047,0.047 0.29791,1.27004 -0.29791,2.43033 -0.3136,0.58014 -0.6899,1.09756 -0.26656,0.37631 -0.51743,0.78398 1.44252,0.58014 2.71256,1.3798 1.28572,-0.79966 2.72824,-1.3798 -0.25088,-0.40767 -0.51743,-0.78398 -0.37631,-0.51742 -0.6899,-1.09756 -0.59582,-1.16029 -0.29791,-2.43033 0.0157,-0.047 0.047,-0.047 0.0314,-0.0157 0.0627,0 0.047,0.0157 0.047,0.0627 0.0314,0.0941 0.14111,0.21951 0.12544,0.10976 0.25088,0.21952 0.12543,0.0941 0.20383,0.17247 0.15679,0.18816 0.28223,0.39199 0.32927,0.50175 0.48607,1.08189 0.26655,1.01917 0.29791,2.08537 1.52091,-0.58014 3.1359,-0.95645 -0.25087,-0.42334 -0.5331,-0.83101 -0.39199,-0.5331 -0.70558,-1.09757 -0.58014,-1.16028 -0.29791,-2.43032 0.0157,-0.047 0.047,-0.0627 0.047,-0.0157 0.0784,0 0.0314,0.0157 0.047,0.0627 0.0157,0.10975 0.12544,0.21951 0.12543,0.10976 0.26655,0.21951 0.12544,0.10976 0.18815,0.18816 0.17248,0.17247 0.29792,0.37631 0.31359,0.51742 0.48606,1.09756 0.26655,1.00349 0.28223,2.05402 0.0157,0.0627 0.0157,0.12544 1.67771,-0.36063 3.3711,-0.58015 -0.26655,-0.42334 -0.56446,-0.83101 -0.37631,-0.5331 -0.6899,-1.11325 -0.59582,-1.16028 -0.29791,-2.41464 0.0157,-0.047 0.047,-0.0627 0.047,-0.0157 0.0784,0 0.0314,0.0157 0.047,0.0627 0.0157,0.0941 0.12544,0.21951 0.12543,0.10976 0.25087,0.21951 0.14112,0.10976 0.20383,0.17248 0.1568,0.18815 0.29791,0.39199 0.31359,0.50174 0.48607,1.08188 0.25087,1.01917 0.28223,2.0697 0,0.0784 0.0157,0.17247 1.97562,-0.23519 3.8258,-0.32927 -0.21951,-0.34494 -0.4547,-0.67421 -0.39199,-0.53311 -0.70558,-1.09757 -0.58014,-1.16029 -0.29791,-2.43033 0.0157,-0.047 0.047,-0.0627 0.047,-0.0157 0.0784,0 0.0314,0.0157 0.047,0.0627 0.0157,0.10976 0.12544,0.21952 0.12543,0.10975 0.26655,0.21951 0.12544,0.10976 0.18815,0.17247 0.17248,0.18816 0.29792,0.39199 0.31359,0.51743 0.48606,1.08189 0.26655,1.01917 0.28223,2.0697 0,0.0157 0,0.0314 1.9913,-0.0941 3.63765,-0.10976 0.0314,0 0.0627,-0.0157 0.12544,0 0.25087,0 -0.26655,-0.42335 -0.54878,-0.8467 -0.39199,-0.51742 -0.70558,-1.09756 -0.58014,-1.16029 -0.29791,-2.43033 0.0157,-0.047 0.047,-0.047 0.047,-0.0157 0.0784,0 0.0313,0.0157 0.047,0.0627 0.0157,0.0941 0.12544,0.21952 0.12544,0.10975 0.26655,0.21951 0.12544,0.0941 0.18816,0.17247 0.17247,0.18816 0.29791,0.39199 0.31359,0.50175 0.48606,1.08189 0.26655,1.01917 0.28223,2.0697 0.0157,0.0941 0.0157,0.20383 2.47737,-0.0314 3.35542,-0.26655 0,0 0,0 0,0 0.0157,0 0.42335,-0.28223 0.83101,-0.59582 0.3136,-0.2352 0.65854,-0.47039 1.19165,-0.7683 2.60281,-0.94077 0.047,-0.0157 0.0627,0.0157 0.0314,0.0314 0.0314,0.0784 0,0.0314 -0.047,0.047 -0.17247,0.047 -0.34495,0.21952 -0.15679,0.17247 -0.29791,0.37631 -0.14111,0.18815 -0.25087,0.31359 -0.21951,0.20383 -0.4547,0.39198 0.73693,-0.0313 1.48955,0.0941 0.34495,0.047 0.64286,0.0784 z m -1.00349,-1.58363 v 0 q 0,0.047 -0.0314,0.0784 0,0 0,0 0.0157,0 0.0157,0 0.0157,-0.047 0.0157,-0.0784 z m -51.64834,0.0784 v 0 q 0,0 0,0 0,0 0.0157,0 -0.0314,-0.0314 -0.0314,-0.0784 0,0.0314 0.0157,0.0784 z m 5.80142,3.24567 v 0 q 0.64286,-0.12544 1.19164,-0.48607 -0.0314,0 -0.0627,0 -0.0627,0 -0.14112,0 -0.65854,0.29791 -1.42684,0.47039 -0.76829,0.14111 -1.42683,0.58014 -0.0157,0.0157 -0.0157,0.047 0,0.0157 0.0157,0.0314 0.0314,0 0.0627,-0.0157 0.75262,-0.40767 1.59932,-0.56447 0.10975,-0.0314 0.20383,-0.0627 z m 1.64635,-1.27005 v 0 q 0,0.0157 0,0.0157 0.0157,0 0.0157,0 0.0157,0 0.0157,-0.0157 0.21951,-0.92509 0.70558,-1.77178 0.40766,-0.67422 0.51742,-1.44252 0.0157,-0.0314 -0.0157,-0.047 -0.0157,-0.0157 -0.047,0 -0.0157,0 -0.0314,0.0314 -0.20383,0.8467 -0.62718,1.58363 -0.047,0.0941 -0.10975,0.20384 -0.17248,0.32927 -0.31359,0.70558 -0.14112,0.36063 -0.10976,0.73693 z m 2.57144,1.58364 v 0 q 0.37631,-0.0941 0.73694,-0.2352 0.37631,-0.14111 0.64286,-0.42334 0,0 0,0 0,0 0,0 0,0 0,-0.0157 -0.0157,0 -0.0157,0 -0.0157,0 -0.0314,0 -0.83101,0.4547 -1.77179,0.65854 -0.76829,0.12543 -1.42683,0.56446 -0.0314,0.0157 -0.0314,0.047 0.0157,0.0157 0.0314,0.0314 0.0314,0.0157 0.0627,0 0.75261,-0.40767 1.59931,-0.58015 0.10975,-0.0314 0.20383,-0.047 z m 1.66203,-1.27004 v 0 q 0,0 0,0 0.0157,0 0.0157,0 0.21951,-0.94078 0.70558,-1.77179 0.40767,-0.67422 0.51742,-1.4582 0,-0.0314 -0.0157,-0.0314 -0.0157,-0.0157 -0.047,0 -0.0157,0 -0.0313,0.0314 -0.20384,0.83102 -0.62719,1.58364 -0.047,0.0941 -0.10975,0.18815 -0.17248,0.32927 -0.31359,0.70558 -0.14112,0.36063 -0.10976,0.75262 0,0 0,0 0.0157,0 0.0157,0 0,0 0,0 0,0 0,0 z m 2.55576,1.45819 v 0 q 0.67422,-0.12544 1.23868,-0.5331 -0.047,0 -0.0941,0 -0.0157,-0.0157 -0.047,-0.0157 -0.72126,0.36063 -1.53659,0.54878 -0.78398,0.12544 -1.44252,0.56446 -0.0157,0.0157 -0.0157,0.047 0,0.0157 0.0157,0.0314 0.0314,0.0157 0.0627,0 0.76829,-0.40767 1.59931,-0.58014 0.10976,-0.0314 0.21951,-0.0627 z m 1.63067,-1.27004 v 0 q 0,0.0157 0,0.0157 0.0157,0 0.0157,0 0.0157,0 0.0157,0 0.23519,-0.94077 0.70558,-1.78747 0.42335,-0.65854 0.5331,-1.44251 0,-0.0314 -0.0314,-0.0314 -0.0157,-0.0157 -0.047,0 -0.0157,0 -0.0157,0.0314 -0.20384,0.83101 -0.64286,1.56795 -0.047,0.10976 -0.0941,0.20383 -0.18816,0.32927 -0.32927,0.70558 -0.14112,0.36063 -0.10976,0.73694 z m 2.00698,1.94426 v 0 q 0.72126,-0.14112 1.3014,-0.58014 -0.0314,-0.0157 -0.047,-0.0157 -0.0314,0 -0.047,0 -0.76829,0.37631 -1.64635,0.58014 -0.76829,0.14112 -1.42683,0.56446 -0.0314,0.0157 -0.0314,0.047 0.0157,0.0157 0.0314,0.0314 0.0314,0.0157 0.0627,0 0.75261,-0.40767 1.59931,-0.58014 0.10975,-0.0314 0.20383,-0.047 z m 1.64635,-1.27004 v 0 q 0,0 0,0.0157 0.0157,0 0.0157,0 0.0157,-0.0157 0.0157,-0.0157 0.21951,-0.94077 0.70558,-1.77179 0.40767,-0.67422 0.51742,-1.45819 0,-0.0157 -0.0157,-0.0314 -0.0157,-0.0157 -0.047,0 -0.0157,0 -0.0314,0.0314 -0.20384,0.84669 -0.62719,1.58363 -0.047,0.0941 -0.10975,0.18815 -0.17248,0.32927 -0.31359,0.70558 -0.14112,0.36063 -0.10976,0.75262 z m 1.78747,2.39897 v 0 q 0.36063,-0.0784 0.72125,-0.21952 0.37631,-0.15679 0.64286,-0.42334 0,0 0,0 0,-0.0157 0,-0.0157 0,0 0,0 0,0 -0.0157,0 0,0 0,-0.0157 -0.8467,0.4547 -1.78747,0.65854 -0.78398,0.14111 -1.42684,0.58014 -0.0314,0.0157 -0.0314,0.047 0.0157,0.0157 0.0314,0.0314 0.0157,0 0.047,-0.0157 0.7683,-0.40767 1.59931,-0.56447 0.10976,-0.0314 0.21952,-0.0627 z m 1.64635,-1.27005 v 0 q 0,0.0157 0,0.0157 0,0 0,0 0.0157,0 0.0157,-0.0157 0.23519,-0.92509 0.70557,-1.77178 0.42335,-0.67422 0.53311,-1.44252 0,-0.0314 -0.0314,-0.047 -0.0157,-0.0157 -0.047,0 -0.0157,0 -0.0157,0.0314 -0.20383,0.8467 -0.64286,1.58363 -0.047,0.0941 -0.0941,0.20384 -0.18815,0.32927 -0.32927,0.70558 -0.12543,0.36063 -0.0941,0.73693 z m 5.72302,0 v 0 q 0.0314,-0.3763 -0.10975,-0.73693 -0.14112,-0.37631 -0.3136,-0.70558 -0.047,-0.10976 -0.0941,-0.20384 -0.43903,-0.73693 -0.64286,-1.58363 -0.0157,-0.0314 -0.047,-0.0314 -0.0157,-0.0157 -0.0314,0 -0.0157,0.0157 -0.0157,0.047 0.10976,0.7683 0.5331,1.44252 0.47039,0.84669 0.6899,1.77178 0.0157,0.0157 0.0157,0.0157 0,0 0,0 0.0157,0 0.0157,-0.0157 z m 2.08538,1.25437 v 0 q -0.94077,-0.20384 -1.78747,-0.65854 0,0.0157 -0.0157,0.0157 0,0 0,0 0,0 0,0 0,0 0,0.0157 0,0 0,0 0.26655,0.26655 0.62718,0.42334 0.37631,0.14112 0.73694,0.21952 0.10976,0.0314 0.21951,0.0627 0.83102,0.1568 1.59932,0.56447 0.0157,0.0157 0.0313,0.0157 0.0314,-0.0157 0.0314,-0.0314 0.0157,-0.0314 -0.0157,-0.047 -0.64286,-0.43903 -1.42683,-0.58014 z m 1.34844,-2.38329 v 0 q 0.0314,-0.39199 -0.10976,-0.75262 -0.14112,-0.37631 -0.32927,-0.70558 -0.047,-0.0941 -0.0941,-0.18815 -0.42334,-0.73694 -0.64286,-1.58363 0,-0.0314 -0.0314,-0.0314 -0.0157,-0.0157 -0.047,0 -0.0157,0.0157 -0.0157,0.0314 0.12543,0.78397 0.5331,1.45819 0.48606,0.83102 0.70558,1.77179 0,0 0,0.0157 0.0157,0 0.0157,0 0.0157,-0.0157 0.0157,-0.0157 z m 2.08537,1.25436 v 0 q -0.87805,-0.20383 -1.64635,-0.58014 -0.0314,0 -0.047,0 -0.0157,0 -0.047,0.0157 0.56446,0.43902 1.3014,0.58014 0.0941,0.0157 0.20383,0.047 0.84669,0.17247 1.59931,0.58014 0.0314,0.0157 0.047,0 0.0314,-0.0157 0.0314,-0.0314 0,-0.0314 -0.0157,-0.047 -0.65854,-0.42334 -1.42684,-0.56446 z m 1.55228,-1.92858 v 0 q 0.0313,-0.37631 -0.10976,-0.73694 -0.12544,-0.37631 -0.31359,-0.70558 -0.047,-0.0941 -0.0941,-0.20383 -0.43902,-0.73694 -0.64286,-1.56795 0,-0.0314 -0.0314,-0.0314 -0.0157,-0.0157 -0.047,0 -0.0157,0 -0.0157,0.0314 0.10976,0.78397 0.53311,1.44251 0.47038,0.8467 0.70558,1.78747 0,0 0,0 0.0157,0 0.0157,0 0,0 0,-0.0157 z m 2.08537,1.27004 v 0 q -0.81533,-0.18815 -1.55227,-0.54878 -0.0157,0 -0.0314,0.0157 -0.047,0 -0.0941,0 0.54879,0.40766 1.23869,0.5331 0.10975,0.0314 0.21951,0.0627 0.83101,0.17247 1.59931,0.58014 0.0314,0.0157 0.047,0 0.0157,-0.0157 0.0157,-0.0314 0.0157,-0.0314 0,-0.047 -0.65854,-0.43902 -1.44252,-0.56446 z m 2.13242,-1.45819 v 0 q 0.0314,-0.39199 -0.10976,-0.75262 -0.14112,-0.37631 -0.32927,-0.70558 -0.047,-0.0941 -0.0941,-0.18815 -0.42334,-0.75262 -0.64286,-1.58364 0,-0.0314 -0.0314,-0.0314 -0.0157,-0.0157 -0.047,0 -0.0157,0 -0.0157,0.0314 0.12543,0.78398 0.5331,1.4582 0.48606,0.83101 0.70558,1.77179 0,0 0,0 0,0 0.0157,0 0,0 0,0 0,0 0,0 0,0 0,0 0.0157,0 0.0157,0 z m 2.08537,1.25436 v 0 q -0.94077,-0.20384 -1.77178,-0.65854 -0.0157,0 -0.0314,0 0,0 -0.0157,0 0,0.0157 0,0.0157 0,0 0,0 0,0 0,0 0.26655,0.28223 0.62718,0.42334 0.37631,0.14112 0.75262,0.2352 0.0941,0.0157 0.20383,0.047 0.84669,0.17248 1.59931,0.58015 0.0314,0.0157 0.047,0 0.0314,-0.0157 0.0314,-0.0314 0,-0.0314 -0.0157,-0.047 -0.65854,-0.43903 -1.42684,-0.56446 z m 2.13242,-1.56796 v 0 q 0.0314,-0.3763 -0.10976,-0.73693 -0.14111,-0.37631 -0.32927,-0.70558 -0.047,-0.10976 -0.0941,-0.20384 -0.42334,-0.73693 -0.64286,-1.58363 0,-0.0314 -0.0313,-0.0314 -0.0157,-0.0157 -0.047,0 -0.0157,0.0157 -0.0157,0.047 0.10975,0.7683 0.5331,1.44252 0.47039,0.84669 0.70558,1.77178 0,0.0157 0,0.0157 0.0157,0 0.0157,0 0.0157,0 0.0157,-0.0157 z m 3.51221,1.83451 v 0 q -0.65854,-0.43903 -1.42684,-0.58014 -0.76829,-0.17248 -1.42683,-0.47039 -0.0784,0 -0.14112,0 -0.0314,0 -0.0627,0 0.54879,0.36063 1.19165,0.48607 0.0941,0.0314 0.20383,0.0627 0.83102,0.1568 1.59931,0.56447 0.0314,0.0157 0.047,0.0157 0.0314,-0.0157 0.0314,-0.0314 0,-0.0314 -0.0157,-0.047 z" />
    <path
       inkscape:connector-curvature="0"
       id="path78"
       style="font-style:normal;font-variant:normal;font-weight:normal;font-stretch:normal;font-size:32.11166px;line-height:1.25;font-family:'Walkway Bonus';-inkscape-font-specification:'Walkway Bonus';letter-spacing:0px;word-spacing:0px;fill:#000000;fill-opacity:1;stroke:none;stroke-width:0.80279148"
       d="m -467.93562,236.96278 v 0 q 0.10976,0.0314 0.17247,0.10976 0.0627,0.0784 0.0627,0.18816 0,0.10975 -0.0627,0.18815 -0.047,0.0784 -0.15679,0.10976 l -6.38157,1.69338 q -0.0314,0.0157 -0.0784,0.0157 -0.0941,0 -0.18816,-0.0627 -0.10976,-0.0941 -0.10976,-0.25088 v -1.17596 H -507.009 l -3.81012,5.3624 q -0.0941,0.12543 -0.23519,0.12543 h -15.55409 q -0.1568,0 -0.26655,-0.15679 -0.0784,-0.14112 0.0157,-0.29791 l 3.16726,-5.34672 -3.16726,-5.33104 q -0.0941,-0.15679 -0.0157,-0.31359 0.10975,-0.15679 0.26655,-0.15679 h 15.55409 q 0.14111,0 0.23519,0.12543 l 3.81012,5.37808 h 32.33117 v -1.39548 q 0,-0.14112 0.10976,-0.23519 0.10976,-0.0941 0.26655,-0.0627 z m -45.65877,-4.68817 v 0 h -2.54008 l 2.88503,4.89201 h 2.54008 z m -3.26134,0 v 0 h -2.54008 l 2.90071,4.89201 h 2.54008 z m -3.24566,0 v 0 h -2.55576 l 2.90071,4.89201 h 2.54008 z m -5.95822,0 v 0 l 2.90071,4.89201 h 2.69688 l -2.90071,-4.89201 z m 0,10.37984 v 0 h 2.69688 l 2.90071,-4.87633 h -2.69688 z m 3.40246,0 v 0 h 2.55576 l 2.88503,-4.87633 h -2.54008 z m 3.26134,0 v 0 h 2.54008 l 2.90071,-4.87633 h -2.54008 z m 3.26134,0 v 0 h 2.54008 l 2.88503,-4.87633 h -2.54008 z m 4.92337,0 v 0 l 3.44949,-4.87633 h -2.22649 l -2.90071,4.87633 z m 1.223,-5.48783 v 0 h 2.22649 l -3.44949,-4.89201 h -1.67771 z m 35.92179,1.39548 v 0 l 4.81361,-1.28573 -4.81361,-1.11324 z" />
    <path
       inkscape:connector-curvature="0"
       id="path82"
       style="font-style:normal;font-variant:normal;font-weight:normal;font-stretch:normal;font-size:32.11166px;line-height:1.25;font-family:'Walkway Bonus';-inkscape-font-specification:'Walkway Bonus';letter-spacing:0px;word-spacing:0px;fill:#000000;fill-opacity:1;stroke:none;stroke-width:0.80279148"
       d="m -381.46307,230.20491 v 0 q 0,0.14112 -0.0627,0.37631 -0.0627,0.23519 -0.39198,0.5331 -0.32927,0.29791 -1.08189,0.64286 -0.73694,0.32927 -2.08538,0.65854 -1.34844,0.32927 -3.44949,0.62718 l 0.32927,5.87982 q 0,0.17248 -0.14112,0.26656 -0.14111,0.0941 -0.29791,0.0314 l -2.85367,-1.31708 -1.92858,2.02265 q -0.10976,0.0784 -0.21952,0.0784 -0.047,0 -0.10975,0 -0.17248,-0.0784 -0.20384,-0.25087 l -0.81533,-6.09933 q -0.67422,0.0313 -1.36412,0.0784 l 0.65854,8.62374 q 0,0.17247 -0.14112,0.26655 -0.15679,0.0941 -0.31359,0.0157 l -4.20211,-2.32057 -2.17945,2.85367 q -0.0941,0.12544 -0.2352,0.12544 -0.047,0 -0.0784,-0.0157 -0.18816,-0.0627 -0.2352,-0.25087 l -1.45819,-9.09412 q -0.0314,0 -0.0627,0 -0.0314,0 -0.0627,0 -0.21951,0 -0.67422,0 l -1.42683,8.87461 q -0.047,0.18815 -0.2352,0.25087 -0.0313,0 -0.0627,0 -0.14112,0 -0.25088,-0.10976 l -2.17945,-2.85367 -4.20211,2.32057 q -0.1568,0.0784 -0.31359,-0.0157 -0.14112,-0.0941 -0.12544,-0.28223 l 0.64286,-8.43559 q -0.59582,-0.0313 -1.20732,-0.0627 l -0.81534,6.13069 q -0.0314,0.17247 -0.21951,0.25087 -0.047,0 -0.0941,0 -0.10975,0 -0.21951,-0.0784 l -1.92858,-2.02265 -2.85367,1.31708 q -0.1568,0.0627 -0.29791,-0.0314 -0.14112,-0.0941 -0.14112,-0.26656 l 0.32927,-5.92685 q -2.93207,-0.40767 -4.86065,-1.08189 -1.92858,-0.67422 -1.92858,-1.70907 0,-0.12544 0.0941,-0.21951 0.0941,-0.0941 0.21952,-0.0941 0.12543,0 0.20383,0.0941 0.0941,0.0941 0.0941,0.21951 0,0.83102 3.1359,1.59931 3.15159,0.7683 8.98437,1.19165 0.0314,0 0.0784,0 0,0 0.0157,0 0,0.0157 0.0157,0.0157 0.81534,0.047 1.67771,0.0941 0.0314,0 0.0627,0 0.0157,0 0.047,0.0157 3.79444,0.20384 8.43558,0.20384 5.22128,0 9.7997,-0.29792 0.047,-0.0157 0.0941,-0.0314 0.0784,0 0.14112,0.0157 2.96343,-0.20383 5.36239,-0.51742 0.0784,-0.0627 0.17248,-0.0627 0.0784,0 0.14111,0.0157 2.30489,-0.31359 3.65333,-0.65854 1.34844,-0.34495 1.9913,-0.65854 0.65854,-0.31359 0.83102,-0.56446 0.18815,-0.25087 0.18815,-0.36063 0,-0.12544 0.0941,-0.21951 0.0941,-0.0941 0.21951,-0.0941 0.12544,0 0.20383,0.0941 0.0941,0.0941 0.0941,0.21951 z m -34.36951,8.82757 v 0 l 0.73694,-5.45647 q -2.58712,-0.17248 -5.01745,-0.48607 l -0.29791,5.3624 2.58712,-1.19164 q 0.20383,-0.0784 0.34495,0.0627 z m 8.79621,2.97911 v 0 l 1.3014,-8.07495 q -2.49304,-0.0157 -6.94603,-0.21952 l -0.59582,7.8868 3.93556,-2.16377 q 0.0941,-0.047 0.20384,-0.0314 0.10975,0.0157 0.18815,0.10976 z m 10.89727,-0.17247 v 0 l -0.6115,-8.07496 q -3.32406,0.1568 -6.96171,0.17248 l 1.34844,8.29446 1.89722,-2.49304 q 0.0784,-0.0784 0.18816,-0.0941 0.10975,-0.0314 0.20383,0.0157 z m 4.70386,-4.57842 v 0 l 2.58712,1.19164 -0.29791,-5.33104 q -2.27353,0.29791 -5.01745,0.48607 l 0.73694,5.42511 1.64635,-1.70907 q 0.14111,-0.14111 0.34495,-0.0627 z" />
    <path
       inkscape:connector-curvature="0"
       id="path84"
       style="font-style:normal;font-variant:normal;font-weight:normal;font-stretch:normal;font-size:32.11166px;line-height:1.25;font-family:'Walkway Bonus';-inkscape-font-specification:'Walkway Bonus';letter-spacing:0px;word-spacing:0px;fill:#000000;fill-opacity:1;stroke:none;stroke-width:0.80279148"
       d="m -348.95941,235.8025 v 0 q 0,0 0,0 0,0 0,0 -0.25087,0.50174 -0.56446,0.94077 1.03485,-0.43903 2.21081,-0.26655 0.0784,0 0.10976,0.0627 0.0314,0.0627 0,0.14111 -0.47039,0.87806 -1.36412,1.19165 -0.89373,0.29791 -1.80314,-0.10976 -0.0157,0 -0.0157,-0.0157 0,0 -0.0157,0 -0.42335,0.40767 -0.89373,0.75262 0.59582,-0.10976 1.223,0.12543 0.62718,0.2352 1.1446,0.56447 0.047,0.0314 0.0627,0.0941 0.0157,0.0627 -0.047,0.10976 -0.79965,0.65854 -1.80314,0.62718 -0.98781,-0.047 -1.70907,-0.81533 0,0 0,0 0,0 0,0 -0.6115,0.34495 -1.25436,0.6115 -0.25087,0.0941 -0.50175,0.18815 0.7683,-0.0627 1.44252,0.18816 0.6899,0.23519 0.98781,1.00349 0.0157,0.0627 -0.0314,0.12543 -0.047,0.047 -0.0941,0.047 -0.83101,0.0157 -1.67771,-0.1568 -0.83101,-0.18815 -1.31708,-0.90941 -0.0157,-0.0314 -0.0157,-0.047 -0.89374,0.29791 -1.80315,0.56447 -0.047,0.0157 -0.10976,0.0314 1.20733,0.28223 1.94426,1.31708 0.047,0.0627 0.0157,0.12543 -0.0314,0.0627 -0.0941,0.0784 -0.89374,0.28223 -1.67771,-0.0627 -0.78398,-0.36063 -1.28572,-1.11324 -1.03485,0.26655 -1.97562,0.76829 -0.92509,0.48607 -1.27004,1.53659 -0.0314,0.0627 -0.10976,0.0784 0,0 0,0 -0.0157,0 -0.0157,0 0,0 0,0 0,0 -0.0157,0 -0.0627,-0.0157 -0.0941,-0.0784 -0.34495,-1.05052 -1.28572,-1.53659 -0.92509,-0.50174 -1.95994,-0.76829 -0.50174,0.75261 -1.3014,1.11324 -0.78397,0.34495 -1.66203,0.0627 -0.0627,-0.0157 -0.0941,-0.0784 -0.0314,-0.0627 0,-0.12543 0.75261,-1.03485 1.95994,-1.31708 -0.0627,-0.0157 -0.12544,-0.0314 -0.89373,-0.26656 -1.78747,-0.56447 0,0.0157 -0.0157,0.047 -0.50174,0.72126 -1.33275,0.90941 -0.83102,0.17248 -1.66203,0.1568 -0.0627,0 -0.10976,-0.047 -0.0314,-0.0627 -0.0157,-0.12543 0.28223,-0.7683 0.97213,-1.00349 0.6899,-0.25088 1.4582,-0.18816 -0.25088,-0.0941 -0.50175,-0.18815 -0.64286,-0.26655 -1.27004,-0.6115 0,0 0,0 0,0 0,0 -0.70558,0.76829 -1.70907,0.81533 -1.00349,0.0314 -1.80314,-0.62718 -0.047,-0.047 -0.0314,-0.10976 0.0157,-0.0627 0.0627,-0.0941 0.50174,-0.32927 1.12892,-0.56447 0.64286,-0.23519 1.23868,-0.12543 -0.48606,-0.34495 -0.90941,-0.75262 0,0 0,0 0,0.0157 -0.0157,0.0157 -0.90941,0.40767 -1.80314,0.10976 -0.89374,-0.31359 -1.36412,-1.19165 -0.047,-0.0784 -0.0157,-0.14111 0.047,-0.0627 0.12544,-0.0627 1.17596,-0.17248 2.21081,0.26655 -0.31359,-0.43903 -0.56446,-0.94077 0,0 0,0 0,0 0,0 -0.32927,-0.0784 -0.75262,-0.0784 -0.54879,0.0157 -0.97213,-0.12543 -0.42335,-0.1568 -0.43903,-0.78398 0.0627,-0.58014 0.51743,-0.73694 0.47038,-0.17247 0.87805,0.17248 -0.17248,-0.47039 0.047,-0.90942 0.17247,-0.26655 0.43902,-0.32927 0.26656,-0.0627 0.53311,0.0941 0.59582,0.40767 0.50174,1.19165 -0.0941,0.76829 -0.42335,1.34843 l -0.0157,0.0627 q 0.3763,0.72126 0.89373,1.31708 -0.26655,-0.72126 -0.047,-1.44251 0.21951,-0.72126 0.81533,-1.22301 0.0627,-0.0314 0.12544,-0.0157 0.0627,0 0.0784,0.0784 0.54878,1.67771 -0.50175,3.08887 0.59583,0.56446 1.28572,1.00349 -0.56446,-1.31708 0.1568,-2.57144 0.0314,-0.0627 0.0784,-0.0627 0.0627,-0.0157 0.10975,0.0314 0.61151,0.59582 0.73694,1.45819 0.12544,0.8467 -0.36063,1.55227 0.79966,0.42335 1.64635,0.75262 -0.65854,-1.12892 -0.18815,-2.38329 0.0157,-0.0627 0.0784,-0.0784 0.0627,-0.0157 0.10975,0.0314 0.65854,0.72125 0.8467,1.6777 0,0.0157 0.0157,0.047 0.047,0.2352 0.0627,0.51743 0.0157,0.28223 -0.10975,0.47038 0.62718,0.21952 1.25436,0.40767 0.36063,0.10976 0.79965,0.21951 0.0941,0.0314 0.20384,0.0627 -0.75262,-0.62718 -0.94077,-1.56795 -0.0157,-0.14112 -0.047,-0.39199 -0.0157,-0.25087 0.047,-0.4547 0.0627,-0.20384 0.28223,-0.21952 0.17247,0.0157 0.34495,0.17248 0.18815,0.15679 0.31359,0.31359 0.047,0.0627 0.0941,0.0941 0.3763,0.37631 0.59582,0.86238 0.10975,0.25087 0.15679,0.67422 0.047,0.42334 -0.10975,0.72126 1.03484,0.28223 1.92858,0.78397 0.89373,0.50175 1.223,1.36412 0.34495,-0.86237 1.23868,-1.36412 0.89373,-0.50174 1.9129,-0.78397 -0.15679,-0.29792 -0.10975,-0.72126 0.0627,-0.42335 0.17247,-0.67422 0.21952,-0.48607 0.59582,-0.86238 0.0314,-0.0314 0.0784,-0.0941 0.14112,-0.1568 0.31359,-0.31359 0.17248,-0.1568 0.36063,-0.17248 0.21951,0.0157 0.28223,0.21952 0.0627,0.20383 0.0314,0.4547 -0.0157,0.25087 -0.047,0.39199 -0.18815,0.94077 -0.92509,1.56795 0.0941,-0.0314 0.20383,-0.0627 0.43903,-0.10975 0.79966,-0.21951 0.62718,-0.18815 1.25436,-0.40767 -0.14111,-0.18815 -0.12543,-0.47038 0.0157,-0.28223 0.0784,-0.51743 0,-0.0314 0,-0.047 0.20384,-0.95645 0.8467,-1.6777 0.0627,-0.047 0.10975,-0.0314 0.0627,0.0157 0.0941,0.0784 0.47039,1.25437 -0.20383,2.38329 0.86237,-0.32927 1.66203,-0.75262 -0.48607,-0.70557 -0.36063,-1.55227 0.12543,-0.86237 0.72126,-1.45819 0.047,-0.047 0.10975,-0.0314 0.0627,0 0.0941,0.0627 0.72126,1.25436 0.14112,2.57144 0.68989,-0.43903 1.28572,-1.00349 -1.03485,-1.41116 -0.50175,-3.08887 0.0314,-0.0784 0.0941,-0.0784 0.0627,-0.0157 0.10975,0.0157 0.61151,0.50175 0.81534,1.22301 0.21951,0.72125 -0.0314,1.44251 0.50175,-0.59582 0.87805,-1.31708 v -0.0627 q -0.32927,-0.58014 -0.42334,-1.34843 -0.0941,-0.78398 0.50174,-1.19165 0.26655,-0.15679 0.53311,-0.0941 0.26655,0.0627 0.43902,0.32927 0.20384,0.43903 0.0314,0.90942 0.42335,-0.34495 0.87805,-0.17248 0.47039,0.1568 0.51743,0.73694 0,0.62718 -0.43903,0.78398 -0.42335,0.14111 -0.95645,0.12543 -0.42335,0 -0.75262,0.0784 z m -25.80849,-0.31359 v 0 q 0.25087,0.0157 0.51743,0 0.40766,-0.0314 0.81533,0.0941 0.42335,-0.83102 0.31359,-1.74043 -0.0627,-0.23519 -0.25087,-0.39199 -0.18815,-0.17247 -0.40767,-0.15679 -0.20383,0 -0.32927,0.29791 -0.0627,0.17247 -0.0314,0.36063 0.0314,0.18815 0.0784,0.3763 0.0314,0.0941 0.047,0.18816 0.0157,0.047 -0.0314,0.0784 -0.0314,0.0314 -0.0784,0.0314 -0.047,-0.0157 -0.0784,-0.0627 -0.0157,-0.0314 -0.0313,-0.0627 0,-0.0157 0,-0.0314 -0.0314,0.0314 -0.0627,0.0314 -0.0314,-0.0157 -0.0627,-0.0314 -0.26655,-0.26655 -0.64286,-0.20383 -0.36063,0.047 -0.45471,0.43902 -0.0627,0.34495 0.14112,0.54879 0.21951,0.18815 0.54878,0.23519 z m -0.17247,1.25436 v 0 q 0.10975,0.0314 0.21951,0.0627 1.08189,0.28223 2.13242,0.59582 -0.42335,-0.51742 -1.08189,-0.62718 -0.64286,-0.12544 -1.31708,-0.047 0.0157,0 0.0157,0 0,0.0157 0,0.0157 0,0 0,0 0.0157,0 0.0157,0 0,0 0.0157,0 z m 0.047,0.10976 v 0 q 1.00349,1.17596 2.50872,0.81533 -0.0157,-0.0157 -0.0314,-0.0314 -0.0314,0.0314 -0.0941,0.0157 -1.09756,-0.34495 -2.17945,-0.72125 -0.0941,-0.0314 -0.20383,-0.0784 z m 2.79095,0.43902 v 0 q 0.0157,0.0157 0.0314,0.0314 0.0157,0.0157 0.0314,0.0314 0.79965,-1.20732 0.50174,-2.58712 -0.34495,1.19164 -0.47038,2.43033 0,0.0314 -0.0314,0.047 -0.0157,0.0157 -0.047,0 -0.0157,-0.0157 -0.0157,-0.047 0.0157,-1.17597 0.34495,-2.30489 -0.81534,1.05053 -0.34495,2.35193 0.0157,0.0313 0,0.047 z m 1.39548,1.72475 v 0 q -0.58014,-0.43902 -1.25436,-0.28223 -0.65854,0.1568 -1.27005,0.5331 1.27005,-0.15679 2.52441,-0.25087 z m -2.44601,0.39199 v 0 q 1.50524,0.81533 2.90071,-0.28223 -0.0313,-0.0157 -0.0784,-0.047 0,0 -0.0157,-0.0157 0,0.047 -0.0157,0.0784 0,0.047 -0.047,0.0784 -0.0314,0.0157 -0.0784,-0.0157 -1.33276,0.14111 -2.66552,0.20383 z m 3.07319,-0.59582 v 0 q 0,0 0,-0.0157 0,0 0,0 -0.0314,0 -0.0627,-0.0157 -0.0314,-0.0314 -0.0314,-0.0784 -0.0157,-1.1446 -0.23519,-2.27353 -0.42335,1.12893 0.0941,2.25785 0.10975,0.0627 0.23519,0.12544 0,0 0,0 z m -0.23519,-2.57144 v 0 q 0.31359,1.16028 0.32927,2.38328 0.58014,-1.3014 -0.31359,-2.41464 -0.0157,0.0157 -0.0157,0.0157 0,0 0,0.0157 z m 1.9913,1.56795 v 0 q -0.18816,0.98781 0.32927,1.86586 -0.0627,-0.95645 -0.32927,-1.86586 z m -0.0157,2.39897 v 0 q -0.64286,-0.0157 -1.23869,0.14111 -0.58014,0.1568 -0.87805,0.75262 1.05053,-0.47039 2.11674,-0.89373 z m -1.70907,0.87805 v 0 q 1.223,0.0314 2.11673,-0.81534 -0.0157,0 -0.0157,0 0,0 -0.0157,0.0157 -1.03484,0.42335 -2.08537,0.79966 z m 2.38329,-1.25436 v 0 q 0.0784,0.0157 0.0784,-0.1568 0,-0.18815 -0.0314,-0.43903 -0.0314,-0.25087 -0.0627,-0.43902 -0.0314,-0.20384 -0.047,-0.23519 -0.17248,-0.53311 -0.51743,-0.95646 0.43903,1.06621 0.47039,2.2265 0,0 0.0157,0.0157 0,0 0.0157,0 0.0314,-0.0314 0.0784,-0.0157 z m 2.58712,1.223 v 0 q -1.28572,0.0627 -2.13242,0.98781 1.06621,-0.58014 2.21081,-0.95645 0.0157,0 0.0157,0 0,0 0.0157,0 -0.0157,0 -0.0314,0 -0.0157,-0.0157 -0.0314,-0.0157 -0.0157,0 -0.0314,-0.0157 -0.0157,0 -0.0157,0 z m -2.10106,1.1446 v 0 q 1.31708,0.10976 2.22649,-0.92509 -1.11324,0.47039 -2.22649,0.92509 z m 1.56795,-2.43032 v 0 q 0.29791,0.51742 0.75262,0.87805 -0.43903,-1.08189 -0.94077,-2.11673 -0.12544,0.12543 -0.10976,0.36063 0.0314,0.23519 0.12544,0.48606 0.0941,0.25087 0.17247,0.39199 z m 1.03485,0.72126 v 0 q 0.0627,-0.29791 -0.0157,-0.6115 -0.0784,-0.3136 -0.25087,-0.59583 -0.17248,-0.28223 -0.39199,-0.51742 -0.047,-0.0314 -0.0784,-0.0784 -0.0784,-0.0941 -0.17247,-0.15679 -0.0784,-0.0784 -0.18816,-0.0627 0.61151,1.05053 1.05053,2.19513 0.0157,-0.0784 0.047,-0.17247 z m 6.6638,0.17247 v 0 q 0.4547,-1.1446 1.05053,-2.19513 -0.0941,-0.0157 -0.18816,0.0627 -0.0784,0.0627 -0.15679,0.15679 -0.047,0.047 -0.0784,0.0784 -0.23519,0.23519 -0.40767,0.51742 -0.17247,0.28223 -0.23519,0.59583 -0.0784,0.31359 -0.0157,0.6115 0.0314,0.0941 0.0314,0.17247 z m 1.19164,-2.13241 v 0 q -0.51742,1.03484 -0.94077,2.11673 0.45471,-0.36063 0.73694,-0.87805 0.0784,-0.14112 0.17247,-0.39199 0.10976,-0.25087 0.12544,-0.48606 0.0314,-0.2352 -0.0941,-0.36063 z m -0.84669,2.74391 v 0 q 0.90941,1.03485 2.21081,0.92509 -1.11325,-0.4547 -2.21081,-0.92509 z m 2.25785,0.7683 v 0 q -0.8467,-0.92509 -2.13242,-0.98781 -0.0157,0 -0.0314,0 -0.0157,0.0157 -0.0314,0.0157 -0.0157,0 -0.0314,0.0157 0,0 -0.0157,0 0,0 0,0 0.0157,0 0.0157,0 1.16028,0.37631 2.22649,0.95645 z m 1.11324,-4.23347 v 0 q -0.28223,0.90941 -0.34495,1.86586 0.53311,-0.87805 0.34495,-1.86586 z m -0.54878,2.02266 v 0 q 0.0157,-1.16029 0.47039,-2.2265 -0.34495,0.42335 -0.53311,0.95646 0,0.0314 -0.047,0.23519 -0.0313,0.18815 -0.0627,0.43902 -0.0157,0.25088 -0.0157,0.43903 0,0.17248 0.0627,0.1568 0.047,-0.0157 0.0941,0.0157 0,0 0.0157,0 0,-0.0157 0.0157,-0.0157 z m 0.1568,0.43902 v 0 q 0.89373,0.8467 2.11673,0.81534 -1.06621,-0.37631 -2.10105,-0.79966 0,-0.0157 -0.0157,-0.0157 0,0 0,0 z m 2.50872,0.83102 v 0 q -0.28223,-0.59582 -0.87805,-0.75262 -0.59583,-0.15679 -1.23869,-0.14111 1.06621,0.42334 2.11674,0.89373 z m -0.14112,-4.89201 v 0 q -0.89373,1.11324 -0.31359,2.41464 0.0157,-1.223 0.32927,-2.38328 0,-0.0157 -0.0157,-0.0157 0,0 0,-0.0157 z m -0.21951,2.6028 v 0 q 0,0 0,0 0.10976,-0.0627 0.23519,-0.12544 0.50175,-1.12892 0.0784,-2.25785 -0.20383,1.12893 -0.21951,2.27353 0,0.047 -0.0314,0.0784 -0.0314,0.0157 -0.0784,0.0157 0,0 0,0 0.0157,0.0157 0.0157,0.0157 z m 0.17248,0.31359 v 0 q 1.37979,1.09756 2.90071,0.28223 -1.33276,-0.0627 -2.66552,-0.20383 -0.047,0.0314 -0.0941,0.0157 -0.0314,-0.0314 -0.047,-0.0784 -0.0157,-0.0314 0,-0.0784 -0.0157,0.0157 -0.0314,0.0157 -0.0314,0.0314 -0.0627,0.047 z m 2.96342,0.14111 v 0 q -0.6115,-0.3763 -1.27004,-0.5331 -0.65854,-0.15679 -1.25436,0.28223 1.27004,0.0941 2.5244,0.25087 z m -1.11324,-2.02265 v 0 q 0.4547,-1.3014 -0.34495,-2.35193 0.32927,1.12892 0.34495,2.30489 0,0.0314 -0.0314,0.047 -0.0157,0.0157 -0.047,0 -0.0157,-0.0157 -0.0314,-0.047 -0.12543,-1.23869 -0.47038,-2.43033 -0.29791,1.3798 0.51742,2.58712 0.0157,-0.0157 0.0314,-0.0314 0.0157,-0.0157 0.0314,-0.0314 -0.0157,-0.0157 0,-0.047 z m 0.28223,0.42334 v 0 q 1.50523,0.36063 2.49304,-0.81533 -0.0941,0.047 -0.18815,0.0784 -1.08189,0.3763 -2.19513,0.72125 -0.047,0.0157 -0.0784,-0.0157 -0.0157,0.0157 -0.0314,0.0314 z m 2.58712,-0.94077 v 0 q -0.67422,-0.0784 -1.31708,0.047 -0.64286,0.10976 -1.08189,0.62718 1.06621,-0.31359 2.1481,-0.59582 0.10976,-0.0314 0.21951,-0.0627 0,0 0,0 0.0157,0 0.0157,0 0,0 0,0 0.0157,0 0.0157,-0.0157 0,0 0,0 z m -1.85018,-2.88503 v 0 q -0.12544,0.90941 0.31359,1.74043 0.40767,-0.12544 0.81533,-0.0941 0.25088,0.0157 0.51743,0 0.31359,-0.047 0.5331,-0.23519 0.21951,-0.20384 0.1568,-0.54879 -0.10976,-0.39198 -0.47039,-0.43902 -0.36063,-0.0627 -0.64286,0.20383 -0.0314,0.0157 -0.0627,0.0314 -0.0314,0 -0.047,-0.0314 0,0.0157 -0.0157,0.0314 -0.0157,0.0314 -0.0314,0.0627 -0.0157,0.047 -0.0784,0.0627 -0.047,0 -0.0784,-0.0314 -0.0314,-0.0314 -0.0314,-0.0784 0.0314,-0.0941 0.047,-0.18816 0.0627,-0.18815 0.0784,-0.3763 0.0314,-0.18816 -0.0314,-0.36063 -0.12544,-0.29791 -0.32927,-0.29791 -0.20384,-0.0157 -0.39199,0.15679 -0.18815,0.1568 -0.25087,0.39199 z" />
    <path
       inkscape:connector-curvature="0"
       id="path86"
       style="font-style:normal;font-variant:normal;font-weight:normal;font-stretch:normal;font-size:32.11166px;line-height:1.25;font-family:'Walkway Bonus';-inkscape-font-specification:'Walkway Bonus';letter-spacing:0px;word-spacing:0px;fill:#000000;fill-opacity:1;stroke:none;stroke-width:0.80279148"
       d="m -218.35639,256.06739 v 0 q 0.47038,0 0.79965,0.34495 0.34495,0.32927 0.34495,0.81533 0,0.47039 -0.34495,0.81534 -0.32927,0.32927 -0.79965,0.32927 -0.20384,0 -0.37631,-0.0627 -0.10976,0.23519 -1.12893,1.3014 -1.00349,1.06621 -3.01047,2.38329 -0.0627,0.0784 -0.14111,0.0784 -0.78398,0.48607 -1.70907,0.9251 l 2.6812,-0.21952 q 0.047,-0.47038 0.36063,-0.78397 0.32927,-0.31359 0.79965,-0.31359 0.47039,0 0.79966,0.34495 0.34495,0.32927 0.34495,0.79965 0,0.48607 -0.34495,0.83102 -0.32927,0.32927 -0.79966,0.32927 -0.76829,0 -1.09756,-0.81534 l -3.85717,0.34495 q -0.0157,0 -0.0314,0 0,0 0,0 0,0 0,0 -1.42684,0.58014 -3.18295,1.01917 -0.0627,0.0314 -0.10975,0.0314 0,0 0,0 -0.0157,0 -0.0157,0 -0.87806,0.21951 -1.85019,0.37631 l 1.66203,0.50174 q 0.36063,-0.47038 0.94077,-0.47038 0.47039,0 0.79966,0.34495 0.34495,0.32927 0.34495,0.79965 0,0.48607 -0.34495,0.83102 -0.32927,0.32927 -0.79966,0.32927 -0.48606,0 -0.83101,-0.32927 -0.32927,-0.34495 -0.32927,-0.83102 0,-0.15679 0.047,-0.29791 l -2.41465,-0.73694 q 0,-0.0157 -0.0157,-0.0157 0,0 0,0 -1.72475,0.2352 -3.71605,0.2352 -2.35192,0 -4.59409,0 l 1.36411,0.42334 q 0.0314,0.0157 0.0627,0.0314 0.32927,-0.36063 0.83102,-0.36063 0.47038,0 0.79965,0.34495 0.34495,0.34495 0.34495,0.81534 0,0.47038 -0.34495,0.81533 -0.32927,0.34495 -0.79965,0.34495 -0.48607,0 -0.83102,-0.34495 -0.32927,-0.34495 -0.32927,-0.81533 0,-0.25087 0.0941,-0.45471 l -2.55576,-0.78397 q -3.40246,0.0157 -6.49133,0.0627 l 1.55228,0.48607 q 0.34495,-0.39199 0.86237,-0.39199 0.48607,0 0.81534,0.34495 0.34495,0.32927 0.34495,0.79966 0,0.48606 -0.34495,0.83101 -0.32927,0.32927 -0.81534,0.32927 -0.47038,0 -0.81533,-0.32927 -0.32927,-0.34495 -0.32927,-0.83101 0,-0.20384 0.0627,-0.39199 l -2.46168,-0.7683 q -0.047,-0.0157 -0.0784,-0.047 -3.35542,0.0627 -6.28749,0.20384 l 1.52092,0.47038 q 0,0 0,0 0,0 0,0 0.36063,-0.42335 0.89373,-0.42335 0.47039,0 0.79966,0.34495 0.34494,0.34495 0.34494,0.81534 0,0.47039 -0.34494,0.81533 -0.32927,0.34495 -0.79966,0.34495 -0.48607,0 -0.83101,-0.34495 -0.32927,-0.34494 -0.32927,-0.81533 0,-0.20383 0.0627,-0.37631 l -2.49304,-0.7683 q -2.82231,0.1568 -5.22128,0.40767 l 1.223,0.21952 q 0.32927,-0.29792 0.7683,-0.29792 0.47038,0 0.81533,0.34495 0.34495,0.32927 0.34495,0.81534 0,0.47038 -0.34495,0.81533 -0.34495,0.32927 -0.81533,0.32927 -0.47039,0 -0.81534,-0.32927 -0.34495,-0.34495 -0.34495,-0.81533 0,-0.26655 0.12544,-0.50175 l -2.33625,-0.40766 q -2.50872,0.31359 -4.4373,0.79965 l 1.67771,0.14112 q 0.36062,-0.65854 1.03484,-0.65854 0.48607,0 0.81534,0.34495 0.34495,0.32927 0.34495,0.81533 0,0.47039 -0.34495,0.81534 -0.32927,0.32927 -0.81534,0.32927 -0.47038,0 -0.81533,-0.32927 -0.32927,-0.34495 -0.32927,-0.81534 0,-0.0627 0,-0.10975 l -2.69688,-0.21952 q -3.04183,0.92509 -4.17075,2.50873 l 2.35193,-0.79966 q 0.0314,-0.47039 0.36063,-0.78398 0.32927,-0.31359 0.79965,-0.31359 0.47039,0 0.79966,0.34495 0.34495,0.32927 0.34495,0.79966 0,0.47038 -0.34495,0.81533 -0.32927,0.34495 -0.79966,0.34495 -0.7683,0 -1.09757,-0.78397 l -2.71255,0.90941 q -0.29791,0.64286 -0.29791,1.39548 0,0.0941 -0.0627,0.15679 -0.0627,0.047 -0.14112,0.047 -0.0941,0 -0.15679,-0.047 -0.047,-0.0627 -0.047,-0.15679 0,-0.75262 -0.29791,-1.39548 l -2.71256,-0.90941 q -0.32927,0.78397 -1.09757,0.78397 -0.47038,0 -0.81533,-0.34495 -0.34495,-0.34495 -0.34495,-0.81533 0,-0.47039 0.34495,-0.79966 0.34495,-0.34495 0.81533,-0.34495 0.47039,0 0.79966,0.31359 0.32927,0.31359 0.34495,0.78398 l 2.35193,0.79966 q -1.11325,-1.58364 -4.15508,-2.50873 l -2.71255,0.21952 q 0.0157,0.047 0.0157,0.10975 0,0.47039 -0.34495,0.81534 -0.32927,0.32927 -0.81534,0.32927 -0.47038,0 -0.81533,-0.32927 -0.32927,-0.34495 -0.32927,-0.81534 0,-0.48606 0.32927,-0.81533 0.34495,-0.34495 0.81533,-0.34495 0.6899,0 1.03485,0.65854 l 1.67771,-0.14112 q -1.9129,-0.48606 -4.42163,-0.79965 l -2.33624,0.40766 q 0.10975,0.2352 0.10975,0.50175 0,0.47038 -0.34495,0.81533 -0.32927,0.32927 -0.79965,0.32927 -0.48607,0 -0.83102,-0.32927 -0.32927,-0.34495 -0.32927,-0.81533 0,-0.48607 0.32927,-0.81534 0.34495,-0.34495 0.83102,-0.34495 0.43902,0 0.76829,0.29792 l 1.20733,-0.21952 q -2.38329,-0.25087 -5.22128,-0.40767 l -2.49305,0.7683 q 0.0627,0.17248 0.0627,0.37631 0,0.47039 -0.34495,0.81533 -0.32927,0.34495 -0.79965,0.34495 -0.48607,0 -0.83102,-0.34495 -0.32927,-0.34494 -0.32927,-0.81533 0,-0.47039 0.32927,-0.81534 0.34495,-0.34495 0.83102,-0.34495 0.5331,0 0.87805,0.42335 0,0 0,0 0,0 0.0157,0 l 1.50523,-0.47038 q -2.93207,-0.14112 -6.27181,-0.20384 -0.0314,0.0314 -0.0941,0.047 l -2.46169,0.7683 q 0.0784,0.18815 0.0784,0.39199 0,0.48606 -0.34495,0.83101 -0.32927,0.32927 -0.81534,0.32927 -0.47038,0 -0.81533,-0.32927 -0.32927,-0.34495 -0.32927,-0.83101 0,-0.47039 0.32927,-0.79966 0.34495,-0.34495 0.81533,-0.34495 0.51743,0 0.86238,0.39199 l 1.56795,-0.48607 q -3.08887,-0.047 -6.507,-0.0627 l -2.54008,0.78397 q 0.0941,0.20384 0.0941,0.45471 0,0.47038 -0.34495,0.81533 -0.34495,0.34495 -0.81533,0.34495 -0.47039,0 -0.81534,-0.34495 -0.34495,-0.34495 -0.34495,-0.81533 0,-0.47039 0.34495,-0.81534 0.34495,-0.34495 0.81534,-0.34495 0.48606,0 0.83101,0.36063 0.0314,-0.0157 0.0627,-0.0314 l 1.34844,-0.42334 q -2.22649,0 -4.5941,0 -1.9913,0 -3.70037,-0.2352 -0.0157,0 -0.0157,0 0,0 0,0.0157 l -2.41464,0.73694 q 0.0314,0.14112 0.0314,0.29791 0,0.48607 -0.34495,0.83102 -0.32927,0.32927 -0.79966,0.32927 -0.48606,0 -0.83101,-0.32927 -0.32927,-0.34495 -0.32927,-0.83102 0,-0.47038 0.32927,-0.79965 0.34495,-0.34495 0.83101,-0.34495 0.58014,0 0.94077,0.47038 l 1.66203,-0.50174 q -0.97213,-0.1568 -1.86586,-0.37631 0,0 0,0 0,0 0,0 -0.0627,0 -0.10976,-0.0314 -1.7561,-0.43903 -3.18294,-1.01917 -0.0157,0 -0.0157,0 0,0 0,0 0,0 -0.0157,0 l -3.85716,-0.34495 q -0.32927,0.81534 -1.09757,0.81534 -0.48606,0 -0.83101,-0.32927 -0.32927,-0.34495 -0.32927,-0.83102 0,-0.47038 0.32927,-0.79965 0.34495,-0.34495 0.83101,-0.34495 0.45471,0 0.78398,0.31359 0.32927,0.31359 0.36063,0.78397 l 2.69687,0.21952 q -0.92509,-0.43903 -1.70906,-0.9251 -0.0941,0 -0.14112,-0.0784 -2.02266,-1.31708 -3.02615,-2.38329 -1.00349,-1.06621 -1.12892,-1.3014 -0.17248,0.0627 -0.36063,0.0627 -0.48607,0 -0.83102,-0.32927 -0.32927,-0.34495 -0.32927,-0.81534 0,-0.48606 0.32927,-0.81533 0.34495,-0.34495 0.83102,-0.34495 0.47038,0 0.79965,0.34495 0.34495,0.32927 0.34495,0.81533 0,0.53311 -0.42334,0.89373 0.14111,0.2352 0.97213,1.12893 0.84669,0.89373 2.46168,2.02266 l -0.81533,-1.63067 q 0,0 -0.0157,0 -0.0314,0.0157 -0.0627,0.0157 -0.47039,0 -0.81534,-0.34495 -0.32927,-0.34495 -0.32927,-0.81534 0,-0.47038 0.32927,-0.81533 0.34495,-0.34495 0.81534,-0.34495 0.48606,0 0.81533,0.34495 0.34495,0.34495 0.34495,0.81533 0,0.6899 -0.67422,1.05053 l 1.08189,2.16378 q 2.00698,1.28572 5.15856,2.22649 l -1.223,-1.08189 q -0.26655,0.17248 -0.59582,0.17248 -0.48607,0 -0.83102,-0.32927 -0.32927,-0.34495 -0.32927,-0.81534 0,-0.48607 0.32927,-0.81534 0.34495,-0.34494 0.83102,-0.34494 0.47039,0 0.79966,0.34494 0.34494,0.32927 0.34494,0.81534 0,0.39199 -0.25087,0.70558 l 1.81883,1.56795 q 2.75959,0.73694 6.4286,0.73694 0.20383,0 0.40767,0 0.0941,0 0.20383,0 l -1.45819,-0.75262 q -0.26656,0.17248 -0.58015,0.17248 -0.48606,0 -0.83101,-0.34495 -0.32927,-0.34495 -0.32927,-0.81534 0,-0.47038 0.32927,-0.81533 0.34495,-0.34495 0.83101,-0.34495 0.47039,0 0.79966,0.34495 0.34495,0.34495 0.34495,0.81533 0,0.39199 -0.23519,0.70558 l 2.00698,1.01917 q 0,0 0,0.0157 0,0 0.0157,0 3.91988,0 7.3537,0.0314 l -1.48955,-0.75262 q -0.32927,0.28223 -0.7683,0.28223 -0.47039,0 -0.81534,-0.32927 -0.34495,-0.34495 -0.34495,-0.81533 0,-0.48607 0.34495,-0.81534 0.34495,-0.34495 0.81534,-0.34495 0.47038,0 0.81533,0.34495 0.34495,0.32927 0.34495,0.81534 0,0.28223 -0.14111,0.5331 l 1.97562,1.00349 q 0.0627,0.0314 0.0941,0.0941 3.84149,0.0314 7.08715,0.14111 l -1.3014,-0.65854 q -0.26655,0.17248 -0.6115,0.17248 -0.47039,0 -0.81534,-0.32927 -0.32927,-0.34495 -0.32927,-0.83102 0,-0.47038 0.32927,-0.79965 0.34495,-0.34495 0.81534,-0.34495 0.48606,0 0.81533,0.34495 0.34495,0.32927 0.34495,0.79965 0,0.39199 -0.23519,0.6899 l 1.94426,0.98781 q 2.97911,0.10976 5.48783,0.28223 l -1.19164,-0.67422 q -0.26655,0.1568 -0.59582,0.1568 -0.47039,0 -0.81534,-0.32927 -0.32927,-0.34495 -0.32927,-0.81534 0,-0.48606 0.32927,-0.81533 0.34495,-0.34495 0.81534,-0.34495 0.48606,0 0.81533,0.34495 0.34495,0.32927 0.34495,0.81533 0,0.39199 -0.25087,0.70558 l 1.85018,1.03485 q 2.28921,0.18815 4.21779,0.45471 0.79966,0.10975 1.52092,0.23519 l -1.19165,-0.94077 q -0.29791,0.23519 -0.6899,0.23519 -0.47038,0 -0.81533,-0.32927 -0.34495,-0.34495 -0.34495,-0.83101 0,-0.47039 0.34495,-0.79966 0.34495,-0.34495 0.81533,-0.34495 0.47039,0 0.81534,0.34495 0.34495,0.32927 0.34495,0.79966 0,0.34495 -0.18816,0.62718 l 1.77179,1.39547 q 3.2143,0.62719 5.03313,1.63067 l -0.87806,-1.50523 q -0.14111,0.0314 -0.29791,0.0314 -0.47038,0 -0.81533,-0.32927 -0.32927,-0.34495 -0.32927,-0.81534 0,-0.48606 0.32927,-0.81533 0.34495,-0.34495 0.81533,-0.34495 0.48607,0 0.81534,0.34495 0.34495,0.32927 0.34495,0.81533 0,0.58015 -0.48607,0.9251 l 1.23868,2.14809 q 1.3014,0.90941 1.70907,2.13242 0.40767,-1.22301 1.70907,-2.13242 l 1.23868,-2.14809 q -0.48606,-0.34495 -0.48606,-0.9251 0,-0.48606 0.32927,-0.81533 0.34495,-0.34495 0.81533,-0.34495 0.48607,0 0.81534,0.34495 0.34495,0.32927 0.34495,0.81533 0,0.47039 -0.34495,0.81534 -0.32927,0.32927 -0.81534,0.32927 -0.15679,0 -0.29791,-0.0314 l -0.87805,1.50523 q 1.8345,-1.00348 5.03312,-1.63067 l 1.78747,-1.39547 q -0.18815,-0.28223 -0.18815,-0.62718 0,-0.47039 0.32927,-0.79966 0.34495,-0.34495 0.83101,-0.34495 0.47039,0 0.79966,0.34495 0.34495,0.32927 0.34495,0.79966 0,0.48606 -0.34495,0.83101 -0.32927,0.32927 -0.79966,0.32927 -0.39199,0 -0.6899,-0.23519 l -1.20732,0.94077 q 0.73694,-0.12544 1.53659,-0.23519 1.92858,-0.26656 4.21779,-0.45471 l 1.83451,-1.03485 q -0.2352,-0.31359 -0.2352,-0.70558 0,-0.48606 0.32927,-0.81533 0.34495,-0.34495 0.81534,-0.34495 0.48606,0 0.81533,0.34495 0.34495,0.32927 0.34495,0.81533 0,0.47039 -0.34495,0.81534 -0.32927,0.32927 -0.81533,0.32927 -0.31359,0 -0.58014,-0.1568 l -1.20733,0.67422 q 2.50873,-0.17247 5.50352,-0.28223 l 1.92858,-0.98781 q -0.21952,-0.29791 -0.21952,-0.6899 0,-0.47038 0.32927,-0.79965 0.34495,-0.34495 0.81534,-0.34495 0.48606,0 0.81533,0.34495 0.34495,0.32927 0.34495,0.79965 0,0.48607 -0.34495,0.83102 -0.32927,0.32927 -0.81533,0.32927 -0.32927,0 -0.59582,-0.17248 l -1.3014,0.65854 q 3.24566,-0.10975 7.08714,-0.14111 0.0314,-0.0627 0.0784,-0.0941 l 1.97562,-1.00349 q -0.12544,-0.25087 -0.12544,-0.5331 0,-0.48607 0.32927,-0.81534 0.34495,-0.34495 0.83102,-0.34495 0.47038,0 0.79965,0.34495 0.34495,0.32927 0.34495,0.81534 0,0.47038 -0.34495,0.81533 -0.32927,0.32927 -0.79965,0.32927 -0.43903,0 -0.7683,-0.28223 l -1.48956,0.75262 q 3.41814,-0.0314 7.3537,-0.0314 0,0 0,0 0.0157,-0.0157 0.0157,-0.0157 l 2.00698,-1.01917 q -0.25087,-0.31359 -0.25087,-0.70558 0,-0.47038 0.32927,-0.81533 0.34495,-0.34495 0.83101,-0.34495 0.47039,0 0.79966,0.34495 0.34495,0.34495 0.34495,0.81533 0,0.47039 -0.34495,0.81534 -0.32927,0.34495 -0.79966,0.34495 -0.32927,0 -0.58014,-0.17248 l -1.4582,0.75262 q 0.0941,0 0.20384,0 0.18815,0 0.39198,0 3.68469,0 6.44429,-0.73694 l 1.80314,-1.56795 q -0.25087,-0.31359 -0.25087,-0.70558 0,-0.48607 0.34495,-0.81534 0.34495,-0.34494 0.81534,-0.34494 0.47038,0 0.81533,0.34494 0.34495,0.32927 0.34495,0.81534 0,0.47039 -0.34495,0.81534 -0.34495,0.32927 -0.81533,0.32927 -0.32927,0 -0.59583,-0.17248 l -1.23868,1.08189 q 3.16726,-0.94077 5.17424,-2.22649 l 1.08189,-2.16378 q -0.67422,-0.36063 -0.67422,-1.05053 0,-0.47038 0.32927,-0.81533 0.34495,-0.34495 0.81534,-0.34495 0.48606,0 0.81533,0.34495 0.34495,0.34495 0.34495,0.81533 0,0.47039 -0.34495,0.81534 -0.32927,0.34495 -0.81533,0.34495 -0.0314,0 -0.0627,-0.0157 0,0 -0.0157,0 l -0.79966,1.63067 q 1.61499,-1.12893 2.44601,-2.02266 0.83101,-0.89373 0.97213,-1.12893 -0.42335,-0.36062 -0.42335,-0.89373 0,-0.48606 0.32927,-0.81533 0.34495,-0.34495 0.83102,-0.34495 z m -4.01396,2.43032 v 0 q 0,0.31359 0.21951,0.53311 0.21952,0.21951 0.51743,0.21951 0.31359,0 0.5331,-0.21951 0.21951,-0.21952 0.21951,-0.53311 0,-0.31359 -0.21951,-0.5331 -0.21951,-0.21951 -0.5331,-0.21951 -0.29791,0 -0.51743,0.21951 -0.21951,0.21951 -0.21951,0.5331 z m -4.15507,2.63416 v 0 q -0.3136,0 -0.53311,0.21952 -0.21951,0.21951 -0.21951,0.5331 0,0.29791 0.21951,0.51742 0.21951,0.21952 0.53311,0.21952 0.31359,0 0.5331,-0.21952 0.21951,-0.21951 0.21951,-0.51742 0,-0.31359 -0.21951,-0.5331 -0.21951,-0.21952 -0.5331,-0.21952 z m -7.71433,1.27004 v 0 q -0.31359,0 -0.5331,0.21952 -0.21952,0.21951 -0.21952,0.5331 0,0.31359 0.21952,0.53311 0.21951,0.21951 0.5331,0.21951 0.29791,0 0.51743,-0.21951 0.21951,-0.21952 0.21951,-0.53311 0,-0.31359 -0.21951,-0.5331 -0.21952,-0.21952 -0.51743,-0.21952 z m -8.02791,0.1568 v 0 q -0.31359,0 -0.53311,0.21951 -0.21951,0.21952 -0.21951,0.53311 0,0.29791 0.21951,0.51742 0.21952,0.21951 0.53311,0.21951 0.29791,0 0.51742,-0.21951 0.21951,-0.21951 0.21951,-0.51742 0,-0.31359 -0.21951,-0.53311 -0.21951,-0.21951 -0.51742,-0.21951 z m -8.27879,0.14112 v 0 q -0.29791,0 -0.51743,0.21951 -0.21951,0.21951 -0.21951,0.51742 0,0.31359 0.21951,0.53311 0.21952,0.21951 0.51743,0.21951 0.31359,0 0.5331,-0.21951 0.21952,-0.21952 0.21952,-0.53311 0,-0.29791 -0.21952,-0.51742 -0.21951,-0.21951 -0.5331,-0.21951 z m -6.56972,0.28223 v 0 q -0.29791,0 -0.51743,0.21951 -0.21951,0.21951 -0.21951,0.5331 0,0.29791 0.21951,0.51743 0.21952,0.21951 0.51743,0.21951 0.31359,0 0.5331,-0.21951 0.21952,-0.21952 0.21952,-0.51743 0,-0.31359 -0.21952,-0.5331 -0.21951,-0.21951 -0.5331,-0.21951 z m -6.60108,0.58014 v 0 q -0.31359,0 -0.5331,0.21951 -0.21952,0.21952 -0.21952,0.51743 0,0.31359 0.21952,0.5331 0.21951,0.21951 0.5331,0.21951 0.29791,0 0.51742,-0.21951 0.21952,-0.21951 0.21952,-0.5331 0,-0.29791 -0.21952,-0.51743 -0.21951,-0.21951 -0.51742,-0.21951 z m -7.3537,1.77178 v 0 q 0,0.29792 0.21952,0.51743 0.21951,0.21951 0.51742,0.21951 0.31359,0 0.53311,-0.21951 0.21951,-0.21951 0.21951,-0.51743 0,-0.31359 -0.21951,-0.5331 -0.21952,-0.21951 -0.53311,-0.21951 -0.29791,0 -0.51742,0.21951 -0.21952,0.21951 -0.21952,0.5331 z m -6.49132,0.73694 v 0 q 0.31359,0 0.53311,-0.21951 0.21951,-0.21951 0.21951,-0.51743 0,-0.31359 -0.21951,-0.5331 -0.21952,-0.21951 -0.53311,-0.21951 -0.29791,0 -0.51742,0.21951 -0.21951,0.21951 -0.21951,0.5331 0,0.29792 0.21951,0.51743 0.21951,0.21951 0.51742,0.21951 z m -6.60108,-1.01917 v 0 q 0.31359,0 0.53311,-0.21951 0.21951,-0.21951 0.21951,-0.5331 0,-0.29791 -0.21951,-0.51743 -0.21952,-0.21951 -0.53311,-0.21951 -0.31359,0 -0.5331,0.21951 -0.21951,0.21952 -0.21951,0.51743 0,0.31359 0.21951,0.5331 0.21951,0.21951 0.5331,0.21951 z m -6.61675,-0.58014 v 0 q 0.31359,0 0.5331,-0.21951 0.21951,-0.21952 0.21951,-0.51743 0,-0.31359 -0.21951,-0.5331 -0.21951,-0.21951 -0.5331,-0.21951 -0.29791,0 -0.51743,0.21951 -0.21951,0.21951 -0.21951,0.5331 0,0.29791 0.21951,0.51743 0.21952,0.21951 0.51743,0.21951 z m -6.56972,-0.28223 v 0 q 0.31359,0 0.5331,-0.21951 0.21951,-0.21952 0.21951,-0.53311 0,-0.29791 -0.21951,-0.51742 -0.21951,-0.21951 -0.5331,-0.21951 -0.29791,0 -0.51743,0.21951 -0.21951,0.21951 -0.21951,0.51742 0,0.31359 0.21951,0.53311 0.21952,0.21951 0.51743,0.21951 z m -8.26311,-0.14112 v 0 q 0.31359,0 0.5331,-0.21951 0.21952,-0.21951 0.21952,-0.51742 0,-0.31359 -0.21952,-0.53311 -0.21951,-0.21951 -0.5331,-0.21951 -0.31359,0 -0.5331,0.21951 -0.21952,0.21952 -0.21952,0.53311 0,0.29791 0.21952,0.51742 0.21951,0.21951 0.5331,0.21951 z m -8.02792,-0.14111 v 0 q 0.31359,0 0.51743,-0.21951 0.21951,-0.21952 0.21951,-0.53311 0,-0.31359 -0.21951,-0.5331 -0.20384,-0.21952 -0.51743,-0.21952 -0.31359,0 -0.5331,0.21952 -0.21951,0.21951 -0.21951,0.5331 0,0.31359 0.21951,0.53311 0.21951,0.21951 0.5331,0.21951 z m -7.71432,-1.28572 v 0 q 0.29791,0 0.51742,-0.21952 0.21952,-0.21951 0.21952,-0.51742 0,-0.31359 -0.21952,-0.5331 -0.21951,-0.21952 -0.51742,-0.21952 -0.31359,0 -0.5331,0.21952 -0.21952,0.21951 -0.21952,0.5331 0,0.29791 0.21952,0.51742 0.21951,0.21952 0.5331,0.21952 z m -4.90769,-3.3711 v 0 q 0.31359,0 0.5331,-0.21951 0.21952,-0.21952 0.21952,-0.53311 0,-0.31359 -0.21952,-0.5331 -0.21951,-0.21951 -0.5331,-0.21951 -0.29791,0 -0.51742,0.21951 -0.21952,0.21951 -0.21952,0.5331 0,0.31359 0.21952,0.53311 0.21951,0.21951 0.51742,0.21951 z m -3.26134,-1.28572 v 0 q 0.29791,0 0.51742,-0.20383 0.21952,-0.21952 0.21952,-0.53311 0,-0.31359 -0.21952,-0.5331 -0.21951,-0.21951 -0.51742,-0.21951 -0.31359,0 -0.5331,0.21951 -0.21952,0.21951 -0.21952,0.5331 0,0.31359 0.21952,0.53311 0.21951,0.20383 0.5331,0.20383 z m 2.5244,5.61327 v 0 q 0.29791,0 0.51743,-0.21951 0.21951,-0.21952 0.21951,-0.53311 0,-0.29791 -0.21951,-0.51742 -0.21952,-0.21952 -0.51743,-0.21952 -0.31359,0 -0.5331,0.21952 -0.21952,0.21951 -0.21952,0.51742 0,0.31359 0.21952,0.53311 0.21951,0.21951 0.5331,0.21951 z m 7.54185,3.2927 v 0 q 0.29791,0 0.51743,-0.21952 0.21951,-0.21951 0.21951,-0.5331 0,-0.31359 -0.21951,-0.51742 -0.21952,-0.21952 -0.51743,-0.21952 -0.31359,0 -0.5331,0.21952 -0.21952,0.20383 -0.21952,0.51742 0,0.31359 0.21952,0.5331 0.21951,0.21952 0.5331,0.21952 z m 9.59587,0.43902 v 0 q 0.31359,0 0.5331,-0.21951 0.21952,-0.21951 0.21952,-0.5331 0,-0.31359 -0.21952,-0.53311 -0.21951,-0.21951 -0.5331,-0.21951 -0.31359,0 -0.53311,0.21951 -0.21951,0.21952 -0.21951,0.53311 0,0.31359 0.21951,0.5331 0.21952,0.21951 0.53311,0.21951 z m 7.68296,0.0627 v 0 q 0.31359,0 0.53311,-0.21951 0.21951,-0.21951 0.21951,-0.5331 0,-0.29792 -0.21951,-0.51743 -0.21952,-0.21951 -0.53311,-0.21951 -0.29791,0 -0.51742,0.21951 -0.21951,0.21951 -0.21951,0.51743 0,0.31359 0.21951,0.5331 0.21951,0.21951 0.51742,0.21951 z m 7.5105,0.20384 v 0 q 0.29791,0 0.51742,-0.21952 0.21951,-0.21951 0.21951,-0.5331 0,-0.31359 -0.21951,-0.5331 -0.21951,-0.21952 -0.51742,-0.21952 -0.3136,0 -0.53311,0.21952 -0.21951,0.21951 -0.21951,0.5331 0,0.31359 0.21951,0.5331 0.21951,0.21952 0.53311,0.21952 z m 6.82059,0.32927 v 0 q 0.29791,0 0.51742,-0.21952 0.21951,-0.21951 0.21951,-0.51742 0,-0.31359 -0.21951,-0.5331 -0.21951,-0.21952 -0.51742,-0.21952 -0.31359,0 -0.53311,0.21952 -0.21951,0.21951 -0.21951,0.5331 0,0.29791 0.21951,0.51742 0.21952,0.21952 0.53311,0.21952 z m 5.08016,0.5331 v 0 q 0.31359,0 0.53311,-0.21951 0.21951,-0.21952 0.21951,-0.51743 0,-0.31359 -0.21951,-0.5331 -0.21952,-0.21951 -0.53311,-0.21951 -0.29791,0 -0.51742,0.21951 -0.21952,0.21951 -0.21952,0.5331 0,0.29791 0.21952,0.51743 0.21951,0.21951 0.51742,0.21951 z m 4.5157,1.44252 v 0 q 0.31359,0 0.53311,-0.21952 0.21951,-0.21951 0.21951,-0.5331 0,-0.31359 -0.21951,-0.5331 -0.21952,-0.21952 -0.53311,-0.21952 -0.31359,0 -0.5331,0.21952 -0.21951,0.21951 -0.21951,0.5331 0,0.31359 0.21951,0.5331 0.21951,0.21952 0.5331,0.21952 z m 8.62374,-1.50524 v 0 q -0.31359,0 -0.5331,0.21952 -0.21952,0.21951 -0.21952,0.5331 0,0.31359 0.21952,0.5331 0.21951,0.21952 0.5331,0.21952 0.29791,0 0.51743,-0.21952 0.21951,-0.21951 0.21951,-0.5331 0,-0.31359 -0.21951,-0.5331 -0.21952,-0.21952 -0.51743,-0.21952 z m 4.50002,-1.42683 v 0 q -0.29791,0 -0.51742,0.21951 -0.21951,0.21951 -0.21951,0.5331 0,0.29791 0.21951,0.51743 0.21951,0.21951 0.51742,0.21951 0.31359,0 0.53311,-0.21951 0.21951,-0.21952 0.21951,-0.51743 0,-0.31359 -0.21951,-0.5331 -0.21952,-0.21951 -0.53311,-0.21951 z m 5.09585,-0.53311 v 0 q -0.31359,0 -0.53311,0.21952 -0.21951,0.21951 -0.21951,0.5331 0,0.29791 0.21951,0.51742 0.21952,0.21952 0.53311,0.21952 0.31359,0 0.5331,-0.21952 0.21951,-0.21951 0.21951,-0.51742 0,-0.31359 -0.21951,-0.5331 -0.21951,-0.21952 -0.5331,-0.21952 z m 6.82059,-0.34495 v 0 q -0.31359,0 -0.5331,0.21952 -0.21952,0.21951 -0.21952,0.5331 0,0.31359 0.21952,0.5331 0.21951,0.21952 0.5331,0.21952 0.31359,0 0.51742,-0.21952 0.21952,-0.21951 0.21952,-0.5331 0,-0.31359 -0.21952,-0.5331 -0.20383,-0.21952 -0.51742,-0.21952 z m 7.49481,-0.18815 v 0 q -0.29791,0 -0.51742,0.21951 -0.21952,0.21951 -0.21952,0.51743 0,0.31359 0.21952,0.5331 0.21951,0.21951 0.51742,0.21951 0.31359,0 0.5331,-0.21951 0.21952,-0.21951 0.21952,-0.5331 0,-0.29792 -0.21952,-0.51743 -0.21951,-0.21951 -0.5331,-0.21951 z m 7.69865,-0.0784 v 0 q -0.31359,0 -0.53311,0.21951 -0.21951,0.21952 -0.21951,0.53311 0,0.31359 0.21951,0.5331 0.21952,0.21951 0.53311,0.21951 0.29791,0 0.51742,-0.21951 0.21951,-0.21951 0.21951,-0.5331 0,-0.31359 -0.21951,-0.53311 -0.21951,-0.21951 -0.51742,-0.21951 z m 9.59586,-0.42335 v 0 q -0.31359,0 -0.5331,0.21952 -0.21951,0.20383 -0.21951,0.51742 0,0.31359 0.21951,0.5331 0.21951,0.21952 0.5331,0.21952 0.31359,0 0.51743,-0.21952 0.21951,-0.21951 0.21951,-0.5331 0,-0.31359 -0.21951,-0.51742 -0.20384,-0.21952 -0.51743,-0.21952 z m 7.54185,-3.2927 v 0 q -0.31359,0 -0.5331,0.21952 -0.21951,0.21951 -0.21951,0.51742 0,0.31359 0.21951,0.53311 0.21951,0.21951 0.5331,0.21951 0.31359,0 0.51743,-0.21951 0.21951,-0.21952 0.21951,-0.53311 0,-0.29791 -0.21951,-0.51742 -0.20384,-0.21952 -0.51743,-0.21952 z m 2.52441,-4.12371 v 0 q 0.31359,0 0.51742,-0.20383 0.21951,-0.21952 0.21951,-0.53311 0,-0.31359 -0.21951,-0.5331 -0.20383,-0.21951 -0.51742,-0.21951 -0.31359,0 -0.53311,0.21951 -0.21951,0.21951 -0.21951,0.5331 0,0.31359 0.21951,0.53311 0.21952,0.20383 0.53311,0.20383 z" />
    <path
       inkscape:connector-curvature="0"
       id="path88"
       style="font-style:normal;font-variant:normal;font-weight:normal;font-stretch:normal;font-size:32.11166px;line-height:1.25;font-family:'Walkway Bonus';-inkscape-font-specification:'Walkway Bonus';letter-spacing:0px;word-spacing:0px;fill:#ffcc00;fill-opacity:1;stroke:none;stroke-width:1.64220881"
       d="m 99.947853,280.46897 v 0 q 1.454727,-0.24837 2.171567,0.75642 0.71077,0.97337 0.11713,2.29677 -1.30895,2.01699 -3.419215,3.43749 -0.227587,0.1746 -0.455182,0.34928 0.466718,1.73923 -0.784538,4.56177 -1.257401,2.79105 -6.210438,6.06759 1.578549,0.0542 3.483115,0.27427 5.638268,1.62189 8.970618,6.69482 0.15525,0.29669 -0.0164,0.59119 -0.1464,0.25697 -0.42369,0.34322 -4.253514,1.1486 -7.908865,-0.69312 -3.623839,-1.84781 -5.85855,-5.46679 -0.180702,-0.25909 -0.336051,-0.55573 -4.2234,2.31882 -11.377368,4.51792 0.333153,0.0336 0.672437,0.0988 5.669742,1.61582 8.970618,6.69481 0.186783,0.29058 0.01515,0.5851 -0.1464,0.25696 -0.423709,0.34321 -4.253516,1.14862 -7.908845,-0.69311 -3.655336,-1.84174 -5.890048,-5.46072 -0.05586,-0.11987 -0.111747,-0.23973 -4.228132,1.11103 -9.392786,2.10903 -1.4801,0.28602 -2.865741,0.55378 5.754185,1.2075 9.402525,6.05601 0.186782,0.29058 0.04647,0.57904 -0.114862,0.25087 -0.417624,0.3747 -4.16117,1.45744 -7.925277,-0.10187 -3.770202,-1.59087 -6.238579,-5.06669 -0.2244,-0.31596 -0.417315,-0.63805 -7.093866,1.66483 -12.502556,3.42867 0.295629,0.009 0.616608,-0.0212 5.826433,0.73619 9.866987,5.24756 0.218317,0.28449 0.109539,0.56685 -0.108782,0.28238 -0.373957,0.43162 -4.031246,1.79168 -7.929545,0.55225 -3.872893,-1.277 -6.62577,-4.5345 -0.212233,-0.253 -0.430534,-0.5375 -8.223923,3.25522 -12.517764,6.73106 1.670141,-0.48608 3.780077,-0.8938 5.87651,-0.18819 10.575484,3.67326 0.237681,0.21542 0.166523,0.52318 -0.03962,0.30167 -0.298801,0.48243 -3.68911,2.37892 -7.729794,1.75502 -4.015277,-0.66147 -7.261983,-3.43153 -0.437701,-0.40544 -0.831715,-0.75396 -4.868157,4.73015 -6.100746,9.50914 -0.153488,0.38902 -0.468417,0.44987 -0.157464,0.0304 -0.301659,-0.0396 -0.276278,-0.0773 -0.387952,-0.31704 -0.105668,-0.20826 -0.02212,-0.45308 1.265147,-4.94864 6.171926,-9.81695 -1.642295,-0.89134 -3.784195,-2.33952 -4.276354,-4.04114 -4.82815,-10.10869 0.0022,-0.32713 0.267305,-0.47635 0.259084,-0.18069 0.560754,-0.1411 4.233599,0.94598 6.602498,4.24501 2.394289,3.26146 2.719102,7.47815 4.332468,-3.61396 12.695601,-6.99408 -1.565008,-1.16763 -3.672213,-3.11251 -3.580337,-4.66567 -3.219953,-10.74617 0.03354,-0.33316 0.336381,-0.45702 0.302713,-0.12395 0.585095,-0.0151 4.097276,1.59298 5.916512,5.25956 1.844634,3.62904 1.489826,7.87904 -0.03354,0.33317 -0.09874,0.67244 6.508006,-2.49897 15.939416,-4.74614 -1.419717,-1.26105 -3.281086,-3.2861 -3.213548,-4.96521 -2.34424,-10.94806 0.09661,-0.34534 0.373939,-0.4316 0.302714,-0.12396 0.585095,-0.0151 3.937701,1.9505 5.454186,5.74093 1.547954,3.78433 0.828531,8.00683 -0.04572,0.27016 -0.110916,0.60945 3.597213,-0.82576 7.65966,-1.61078 4.786762,-0.92498 8.895003,-1.98019 -1.375003,-1.36768 -3.446455,-3.97283 -2.828501,-5.17027 -1.556959,-11.10019 0.10269,-0.31385 0.411517,-0.40619 0.308829,-0.0924 0.565783,0.054 3.797429,2.23896 5.036584,6.11565 1.270627,3.87061 0.274899,8.01582 -0.115979,0.41441 -0.231841,0.82883 0.295629,0.009 0.654168,0.004 8.790486,-2.35199 14.332583,-5.28502 -1.343512,-1.37376 -3.240328,-3.75131 -2.828483,-5.1703 -1.556962,-11.1002 0.102702,-0.31384 0.41154,-0.40618 0.308811,-0.0924 0.565785,0.054 3.797424,2.23894 5.036559,6.11563 1.270627,3.87061 0.274921,8.01583 -0.03265,0.16964 -0.10269,0.31383 1.174476,-0.68429 2.179339,-1.40114 3.457547,-2.56288 4.408993,-4.73947 0.982939,-2.18267 0.621767,-3.7136 -2.531979,-1.43812 -4.537556,-3.5333 -0.443786,-0.43693 -0.724025,-0.8728 -0.248746,-0.44196 -0.332836,-1.0464 -0.101238,-0.86246 0.422934,-1.19241 0.518165,-0.36147 1.348051,-0.29323 0.999509,0.10088 1.631166,0.66482 0.625595,0.53247 1.0368,1.13902 0.262027,0.3414 0.474217,0.59439 0.243765,0.24691 0.507821,0.26123 0.195095,-0.005 0.467341,-0.28637 0.266243,-0.3128 0.608691,-0.73831 0.412587,-0.56972 0.900342,-1.08868 0.487742,-0.51892 1.017012,-0.65386 z m -44.800502,25.12171 v 0 q 0.332086,-6.56506 -4.542606,-10.49056 2.318531,5.23615 4.542606,10.49056 z m -5.186746,-10.10477 v 0 q -0.146039,6.00644 4.014385,10.462 0.06916,0.0194 0.144176,0.0701 0.03762,0.0254 0.106549,0.0447 0.07527,0.0509 0.144176,0.0701 0.03762,0.0254 0.106586,0.0448 -0.03153,0.006 -0.03762,-0.0254 -0.03153,0.006 -0.04373,-0.0571 -2.646695,-5.07473 -4.434891,-10.60939 z m -26.649651,23.70502 v 0 q -1.215981,-6.46191 -6.89154,-9.12197 3.455433,4.52646 6.89154,9.12197 z m -1.060676,0.59697 v 0 q 0.06916,0.0194 0.106599,0.0449 0.06916,0.0193 0.138125,0.0387 0.100494,0.0133 0.169659,0.0326 0.03153,-0.006 0.100494,0.0133 0,0 -0.03762,-0.0254 -0.03153,0.006 -0.03762,-0.0254 -3.777487,-4.33354 -6.795991,-9.30377 1.238449,5.90222 6.356177,9.22541 z m 4.21503,1.86425 v 0 q -0.06307,0.0124 -0.119826,0.0558 -0.05698,0.0438 -0.113733,0.0875 0.03153,-0.006 0.03153,-0.006 0.02544,-0.0376 0.09439,-0.0182 5.715847,0.33287 11.368402,1.69066 -5.067896,-3.23483 -11.026998,-1.95262 -0.06307,0.0124 -0.119838,0.056 -0.05698,0.0438 -0.113733,0.0875 z m 11.237105,2.53273 v 0 q -5.656798,-0.70363 -11.331869,-1.50171 5.474104,3.64635 11.331869,1.50171 z m 2.39611,-9.57732 v 0 q 4.820681,4.4913 10.955507,3.27315 -5.50011,-1.58325 -10.955507,-3.27315 z m 11.073568,2.53164 v 0 q -4.496801,-3.99853 -10.600891,-3.63569 -0.05698,0.0438 -0.119838,0.0558 -0.06307,0.0124 -0.119838,0.056 -0.06307,0.0124 -0.151366,0.062 -0.03153,0.006 -0.0883,0.0498 0,0 0.03153,-0.006 0.03153,-0.006 0.06307,-0.0124 5.628212,1.23182 10.985936,3.43061 z m -13.589565,-6.42294 v 0 q -0.227611,-6.58756 -5.41326,-10.09364 2.735072,5.025 5.41326,10.09364 z m -1.128673,0.41415 v 0 q 0.03762,0.0254 0.112641,0.0762 0.06916,0.0194 0.138125,0.0387 0.06916,0.0194 0.144177,0.0701 0.03762,0.0254 0.100506,0.0133 -0.03153,0.006 -0.03153,0.006 -0.03762,-0.0254 -0.04373,-0.0571 -3.063233,-4.86358 -5.305547,-10.21248 0.344587,6.00961 4.885054,10.06506 z m 20.862033,-1.41792 v 0 q 4.466051,4.85385 10.666746,4.14565 -5.327293,-2.04131 -10.666746,-4.14565 z m 10.853882,3.42348 v 0 q -4.167572,-4.3235 -10.243075,-4.48885 -0.06307,0.0124 -0.157464,0.0304 -0.05698,0.0438 -0.119838,0.0558 -0.06307,0.0124 -0.157464,0.0304 -0.02544,0.0376 -0.0883,0.0498 0,0 0.03153,-0.006 0.03153,-0.006 0.06916,0.0194 5.486894,1.68382 10.665702,4.3092 z m 6.666972,-7.5932 v 0 q 4.06777,5.1595 10.322168,4.89826 -5.167701,-2.39885 -10.322168,-4.89826 z m 10.578354,4.19541 v 0 q -3.869836,-4.64239 -9.923865,-5.2039 -0.06307,0.0124 -0.125931,0.0243 -0.06307,0.0124 -0.12593,0.0243 -0.0944,0.0182 -0.157465,0.0304 -0.06307,0.0124 -0.12593,0.0243 0.03762,0.0254 0.03762,0.0254 0.03153,-0.006 0.06916,0.0194 5.364876,2.06674 10.352591,5.0557 z m -12.444143,-8.44101 v 0 q 0.797325,-6.5243 -3.785717,-10.80018 1.921301,5.37827 3.785717,10.80018 z m -1.190588,0.26279 v 0 q 0.03762,0.0254 0.106586,0.0449 0.04373,0.0571 0.112654,0.0762 0.07527,0.0509 0.144175,0.0701 0.04373,0.0571 0.08131,0.0823 -0.0061,-0.0315 -0.0061,-0.0315 -0.03762,-0.0254 -0.04373,-0.0571 -2.293145,-5.27374 -3.678019,-10.91898 -0.573704,5.99104 3.282915,10.73397 z m 19.302806,-1.54128 v 0 q 4.067784,5.15947 10.353681,4.89217 -5.205281,-2.42426 -10.353681,-4.89217 z m 10.578371,4.1954 v 0 q -3.869853,-4.64238 -9.929972,-5.2354 -0.05698,0.0437 -0.119838,0.0558 -0.06307,0.0124 -0.125932,0.0243 -0.09439,0.0182 -0.157463,0.0304 -0.06307,0.0124 -0.125932,0.0243 0.03762,0.0254 0.03762,0.0254 0.03153,-0.006 0.100494,0.0133 5.333384,2.07282 10.321103,5.06181 z m -12.444144,-8.44102 v 0 q 0.797329,-6.52428 -3.785733,-10.80016 1.921316,5.37824 3.785733,10.80016 z M 84.743877,285.3018 v 0 q -0.573699,5.99107 3.28292,10.73399 0.03762,0.0254 0.106586,0.0449 0.04373,0.0571 0.112641,0.0762 0.07527,0.0509 0.144175,0.0701 0.04373,0.0571 0.08131,0.0823 -0.0061,-0.0315 -0.0061,-0.0315 -0.03762,-0.0254 -0.04373,-0.0571 -2.293123,-5.27373 -3.678001,-10.91899 z" />
    <path
       d="m -84.458947,308.42832 v 0 q -1.818975,0.0397 -2.451663,1.42355 -0.632688,1.34447 0.395439,2.80755 2.056224,2.13531 4.942886,3.36116 0.31632,0.15813 0.632687,0.31634 -0.15813,2.21443 2.01668,5.33833 2.174887,3.08435 8.93675,5.89192 -1.898082,0.43495 -4.152025,1.14673 -6.44554,3.28207 -9.292627,10.20212 -0.118555,0.39544 0.158129,0.71177 0.237311,0.2768 0.593144,0.31635 5.417383,0.39541 9.41126,-2.68894 3.954295,-3.08434 5.812825,-7.98769 0.158127,-0.35589 0.276784,-0.75131 5.654656,1.81896 14.828649,2.80754 -0.395418,0.11855 -0.790861,0.27681 -6.485058,3.28208 -9.292626,10.20211 -0.158127,0.39543 0.118525,0.71178 0.237315,0.27678 0.593163,0.31633 5.41739,0.39545 9.411234,-2.6889 3.993845,-3.08438 5.852375,-7.98773 0.03959,-0.15813 0.0792,-0.31632 5.377869,0.35586 11.862928,0.35586 1.858505,0 3.598402,0 -6.68278,2.80758 -9.964853,9.5299 -0.158125,0.39542 0.0792,0.71177 0.197722,0.27681 0.593164,0.35587 5.377844,0.79086 9.56941,-1.97713 4.191568,-2.80756 6.366425,-7.59227 0.19772,-0.43497 0.355898,-0.86996 8.976273,0.3559 15.9358617,1.22585 -0.355899,0.0793 -0.75134,0.11855 -6.8804757,2.25398 -10.7161687,8.65994 -0.197722,0.39543 0,0.71177 0.19772,0.31636 0.553619,0.43499 5.298755,1.22581 9.7275877,-1.18631 4.389287,-2.45166 6.9595879,-7.03865 0.1977213,-0.35589 0.3954182,-0.75133 10.7161687,2.01669 16.7267242,5.2197 -2.135342,-0.19772 -4.784708,-0.19772 -7.1573114,1.14676 -11.9420162,6.92003 -0.2373153,0.31635 -0.079198,0.67223 0.1185252,0.3559 0.4745323,0.51407 5.0219722,2.01668 9.7671326,0.31634 4.7056133,-1.73991 7.9876833,-5.85239 0.434998,-0.59314 0.830408,-1.10718 6.999139,4.58698 9.608978,10.08347 0.276792,0.43498 0.672231,0.43498 0.19772,0 0.355881,-0.11856 0.316352,-0.15813 0.395439,-0.47452 0.07924,-0.2768 -0.07924,-0.55361 -2.688942,-5.69421 -9.767139,-10.43937 1.779446,-1.46308 4.03339,-3.71705 4.231109,-5.89193 3.47979,-13.36553 -0.07924,-0.39545 -0.434983,-0.51408 -0.355865,-0.15812 -0.711776,-0.0397 -4.903326,2.13534 -6.999124,6.68279 -2.135312,4.50791 -1.542184,9.68803 -6.08961,-3.36116 -17.00349969,-5.49647 1.6212637,-1.77945 3.71703459,-4.62653 3.2425291,-6.48509 1.384024,-13.76101 -0.1185243,-0.39542 -0.5140759,-0.4745 -0.3954166,-0.0793 -0.7117704,0.11855 -4.5869851,2.88663 -5.9314629,7.75041 -1.384,4.8243 0.03959,9.88578 0.118525,0.39543 0.27681,0.79086 -8.4622207,-1.50264 -20.4042127,-2.01667 1.423544,-1.85854 3.202987,-4.74517 2.728477,-6.76189 0.276784,-13.80055 -0.197721,-0.39542 -0.553595,-0.43497 -0.395418,-0.0792 -0.711772,0.11856 -4.310198,3.28206 -5.259235,8.22495 -0.988557,4.94288 0.869948,9.88576 0.118539,0.31633 0.276809,0.71177 -4.547438,-0.15813 -9.648497,-0.15813 -6.010554,0 -11.230245,-0.31635 1.34448,-1.97713 3.242529,-5.6151 2.214429,-6.92002 -0.711772,-13.80053 -0.197721,-0.35589 -0.593139,-0.39544 -0.395443,-0.0397 -0.672227,0.19772 -4.072935,3.59843 -4.666098,8.58085 -0.632683,4.98243 1.542202,9.76714 0.237316,0.47449 0.474506,0.94904 -0.355899,0.0793 -0.790861,0.15811 -11.190699,-0.79084 -18.58525,-3.04481 1.304934,-1.97715 3.044832,-5.29878 2.214403,-6.92003 -0.711772,-13.80054 -0.197721,-0.35586 -0.593164,-0.3954 -0.395418,-0.0397 -0.672226,0.19771 -4.072935,3.59841 -4.666067,8.58082 -0.632688,4.98243 1.542171,9.76716 0.0792,0.19773 0.19772,0.35588 -1.581721,-0.5536 -2.965738,-1.18628 -4.784709,-2.29351 -6.445526,-4.70565 -1.700342,-2.41212 -1.621255,-4.34974 2.728472,-2.33303 4.666062,-5.33829 0.435,-0.63269 0.672263,-1.22585 0.19772,-0.59314 0.158114,-1.34446 -0.07924,-1.06766 -0.790848,-1.34445 -0.711775,-0.31635 -1.700358,-0.0397 -1.186273,0.35587 -1.818961,1.18628 -0.632703,0.79085 -0.988583,1.62125 -0.237309,0.47453 -0.434983,0.83041 -0.237325,0.35589 -0.5536,0.43499 -0.237309,0.0397 -0.632673,-0.23732 -0.395454,-0.31635 -0.909495,-0.75132 -0.632687,-0.59313 -1.344478,-1.10721 -0.711776,-0.51406 -1.384008,-0.5536 z m 60.105453,19.92969 v 0 q -1.937594,-7.86907 3.044832,-13.76097 -1.581721,6.88048 -3.044832,13.76097 z m 3.91478,-13.44465 v 0 q 1.581722,7.23639 -2.412123,13.60284 -0.0792,0.0397 -0.158126,0.11855 -0.03959,0.0397 -0.118541,0.0789 -0.0792,0.0793 -0.158126,0.11856 -0.03959,0.0397 -0.118526,0.0792 0.03959,0 0.03959,-0.0397 0.03959,0 0.03959,-0.0793 2.016707,-6.76184 2.886655,-13.87961 z m 37.803163,22.46047 v 0 q -0.03962,-8.10632 6.208246,-12.65378 -3.123894,6.28737 -6.208246,12.65378 z m 1.423537,0.47452 v 0 q -0.07924,0.0397 -0.118556,0.0793 -0.07924,0.0397 -0.158115,0.0792 -0.118554,0.0397 -0.197734,0.0793 -0.03962,0 -0.118555,0.0397 0,0 0.03962,-0.0397 0.03962,0 0.03962,-0.0397 3.558863,-6.12916 6.05007,-12.85147 -0.118555,7.43408 -5.536013,12.65375 z m -4.666063,3.24253 v 0 q 0.07924,0 0.158115,0.0397 0.07924,0.0397 0.15813,0.0793 -0.03962,0 -0.03962,0 -0.03962,-0.0397 -0.118556,0 -6.8409521,1.73989 -13.36555559,4.70563 5.37784439,-5.10106 12.89102959,-4.94288 0.07924,0 0.158129,0.0397 0.07924,0.0397 0.15813,0.0792 z m -13.0096662,5.69421 v 0 q 6.6827544,-2.17488 13.3655312,-4.46836 -5.7732835,5.69419 -13.3655312,4.46836 z m -5.1406041,-11.03252 v 0 q -4.784705,6.56416 -12.4956097,6.52461 6.287338,-3.20299 12.4956097,-6.52461 z m -12.8119627,5.65466 v 0 q 4.50792,-5.89192 11.9815587,-6.8805 0.0792,0.0397 0.158127,0.0397 0.0792,0 0.158127,0.0397 0.0792,0 0.197721,0.0397 0.03959,0 0.118525,0.0397 0,0 -0.03959,0 -0.03959,0 -0.0792,0 -6.5246017,2.80756 -12.4956097,6.72233 z m 14.9472774,-10.95344 v 0 q -1.2653667,-8.02723 4.1915677,-13.48417 -2.13531449,6.72233 -4.1915677,13.48417 z m 1.46308771,0.23732 v 0 q -0.039591,0.0397 -0.1185244,0.11856 -0.079198,0.0397 -0.1581273,0.0792 -0.079198,0.0397 -0.1581265,0.11856 -0.039591,0.0397 -0.1185398,0.0397 0.039591,0 0.039591,0 0.039591,-0.0397 0.039591,-0.0793 2.57030149,-6.60368 4.03338919,-13.60282 0.9885814,7.355 -3.55888209,13.32601 z m -25.58435811,3.16344 v 0 q -4.270631,6.92005 -11.941992,7.51318 5.971009,-3.71703 11.941992,-7.51318 z m -12.337433,6.68278 v 0 q 4.033388,-6.20826 11.348876,-7.82951 0.0792,0 0.19772,0 0.0792,0.0397 0.158128,0.0397 0.0792,0 0.19772,0 0.03959,0.0397 0.118525,0.0397 0,0 -0.03959,0 -0.03959,0 -0.0792,0.0397 -6.247819,3.32162 -11.902473,7.7109 z m -9.846221,-7.63182 v 0 q -3.717035,7.19686 -11.348851,8.34358 5.694197,-4.11247 11.348851,-8.34358 z m -11.823357,7.55273 v 0 q 3.598402,-6.5246 10.795232,-8.62037 0.0792,0 0.158126,0 0.0792,0 0.158126,0 0.118539,0 0.197722,0 0.0792,0 0.158127,0 -0.03959,0.0397 -0.03959,0.0397 -0.03959,0 -0.0792,0.0397 -6.010553,3.75658 -11.348852,8.54127 z m 13.088749,-13.12829 v 0 q -2.491215,-7.71092 2.056225,-13.95871 -1.067645,6.9596 -2.056225,13.95871 z m 1.50263,0.0397 v 0 q -0.03959,0.0397 -0.118524,0.0793 -0.03959,0.0792 -0.118541,0.11855 -0.0792,0.0792 -0.158126,0.11855 -0.03959,0.0793 -0.0792,0.11855 0,-0.0397 0,-0.0397 0.03959,-0.0397 0.03959,-0.0793 1.542201,-6.92004 1.898073,-14.07732 2.095797,7.11774 -1.463087,13.76098 z m -23.725829,2.64939 v 0 q -3.717053,7.19682 -11.388426,8.34358 5.73375,-4.15202 11.388426,-8.34358 z m -11.823378,7.55272 v 0 q 3.598422,-6.52459 10.795251,-8.65994 0.07924,0.0397 0.158131,0.0397 0.0792,0 0.158124,0 0.118525,0 0.197721,0 0.0792,0 0.158128,0 -0.03959,0.0397 -0.03959,0.0397 -0.03959,0 -0.118524,0.0397 -5.971006,3.75661 -11.309317,8.54131 z m 13.088744,-13.12829 v 0 q -2.491212,-7.71091 2.056251,-13.9587 -1.067668,6.95957 -2.056251,13.9587 z m 2.965719,-13.72145 v 0 q 2.095797,7.11776 -1.463087,13.761 -0.03959,0.0397 -0.118525,0.0793 -0.03959,0.0792 -0.118524,0.11855 -0.0792,0.0792 -0.158126,0.11855 -0.03959,0.0793 -0.0792,0.11855 0,-0.0397 0,-0.0397 0.03959,-0.0397 0.03959,-0.0793 1.542175,-6.92002 1.898049,-14.07731 z"
       style="font-style:normal;font-variant:normal;font-weight:normal;font-stretch:normal;font-size:32.11166px;line-height:1.25;font-family:'Walkway Bonus';-inkscape-font-specification:'Walkway Bonus';letter-spacing:0px;word-spacing:0px;fill:#ffcc00;fill-opacity:1;stroke:none;stroke-width:2.02460456"
       id="path100"
       inkscape:connector-curvature="0" />
  </g>
</svg>
