<?xml version="1.0" encoding="UTF-8" standalone="no"?>
<!-- Created with Inkscape (http://www.inkscape.org/) -->

<svg
   width="210mm"
   height="297mm"
   viewBox="0 0 210 297"
   version="1.1"
   id="svg5"
   inkscape:version="1.1 (c68e22c387, 2021-05-23)"
   sodipodi:docname="SPS.svg"
   xmlns:inkscape="http://www.inkscape.org/namespaces/inkscape"
   xmlns:sodipodi="http://sodipodi.sourceforge.net/DTD/sodipodi-0.dtd"
   xmlns:xlink="http://www.w3.org/1999/xlink"
   xmlns="http://www.w3.org/2000/svg"
   xmlns:svg="http://www.w3.org/2000/svg">
  <sodipodi:namedview
     id="namedview7"
     pagecolor="#ffffff"
     bordercolor="#666666"
     borderopacity="1.0"
     inkscape:pageshadow="2"
     inkscape:pageopacity="0.0"
     inkscape:pagecheckerboard="0"
     inkscape:document-units="mm"
     showgrid="false"
     inkscape:snap-global="false"
     inkscape:zoom="0.44542649"
     inkscape:cx="789.13134"
     inkscape:cy="438.9052"
     inkscape:current-layer="layer1" />
  <defs
     id="defs2">
    <clipPath
       clipPathUnits="userSpaceOnUse"
       id="clipPath14429">
      <rect
         style="fill:#e6e6e6;fill-opacity:1;stroke:none;stroke-width:0.529167;stroke-miterlimit:4;stroke-dasharray:none;stroke-opacity:1"
         id="rect14431"
         width="63.261002"
         height="73.953003"
         x="-22.438999"
         y="195.42601" />
    </clipPath>
    <clipPath
       clipPathUnits="userSpaceOnUse"
       id="clipPath22240">
      <rect
         style="fill:none;fill-opacity:1;stroke:#000000;stroke-width:0.529167;stroke-linecap:square;stroke-miterlimit:4;stroke-dasharray:none;stroke-opacity:1"
         id="rect22242"
         width="19.824751"
         height="32.077118"
         x="27.84375"
         y="208.56824" />
    </clipPath>
    <clipPath
       clipPathUnits="userSpaceOnUse"
       id="clipPath22240-1">
      <rect
         style="fill:none;fill-opacity:1;stroke:#000000;stroke-width:0.529167;stroke-linecap:square;stroke-miterlimit:4;stroke-dasharray:none;stroke-opacity:1"
         id="rect22242-9"
         width="19.824751"
         height="32.077118"
         x="27.84375"
         y="208.56824" />
    </clipPath>
    <mask
       maskUnits="userSpaceOnUse"
       id="mask37395">
      <g
         id="g37469"
         transform="translate(91.510091,32.287067)">
        <circle
           style="fill:#000000;stroke:#ffffff;stroke-width:0.529167;stroke-miterlimit:4;stroke-dasharray:none;stroke-opacity:1"
           id="circle37397"
           cx="77.913979"
           cy="152.25778"
           r="29.821524" />
        <circle
           style="fill:#000000;stroke:#ffffff;stroke-width:0.529167;stroke-miterlimit:4;stroke-dasharray:none;stroke-opacity:1"
           id="circle37399"
           cx="77.913979"
           cy="152.25778"
           r="27.102417" />
        <text
           xml:space="preserve"
           style="font-style:normal;font-weight:normal;font-size:4.23333px;line-height:1.25;font-family:sans-serif;fill:#ffffff;fill-opacity:1;stroke:none;stroke-width:0.168462"
           id="text37403"><textPath
             xlink:href="#circle3881"
             id="textPath37401"
             style="font-style:normal;font-variant:normal;font-weight:bold;font-stretch:normal;font-size:4.23333px;font-family:'Liberation Sans';-inkscape-font-specification:'Liberation Sans Bold';fill:#ffffff;fill-opacity:1;stroke-width:0.168462">SPS USWATUN HASANAH CIKUNIR</textPath></text>
        <circle
           style="fill:none;stroke:none;stroke-width:0.174665"
           id="circle37405"
           cx="-63.093266"
           cy="-158.9725"
           r="21.523798"
           transform="rotate(174.5473)" />
        <circle
           style="fill:#000000;stroke:#ffffff;stroke-width:0.529167;stroke-miterlimit:4;stroke-dasharray:none;stroke-opacity:1"
           id="circle37407"
           cx="77.913979"
           cy="152.25778"
           r="18.945099" />
        <path
           sodipodi:type="star"
           style="fill:#ffffff;fill-opacity:1;stroke:none;stroke-width:0.914646"
           id="path37409"
           inkscape:flatsided="false"
           sodipodi:sides="5"
           sodipodi:cx="76.992905"
           sodipodi:cy="812.79108"
           sodipodi:r1="35.087917"
           sodipodi:r2="22.217672"
           sodipodi:arg1="0.98115517"
           sodipodi:arg2="1.6094737"
           inkscape:rounded="0"
           inkscape:randomized="0"
           d="m 96.503991,841.95406 -20.370193,-6.96193 -20.847279,5.36695 0.326448,-21.52456 -11.546433,-18.16846 20.571949,-6.34099 13.711192,-16.59567 12.387715,17.60562 20.02042,7.91177 -12.915925,17.22185 z"
           transform="matrix(0.06762944,-0.00285829,0.00285829,0.06762944,91.761639,106.04549)"
           inkscape:transform-center-x="-0.051547315"
           inkscape:transform-center-y="-0.18795382" />
        <text
           xml:space="preserve"
           style="font-style:normal;font-weight:normal;font-size:4.23333px;line-height:1.25;font-family:sans-serif;fill:#ffffff;fill-opacity:1;stroke:none;stroke-width:0.168462"
           id="text37415"><textPath
             xlink:href="#circle8543"
             id="textPath37413"><tspan
               style="font-style:normal;font-variant:normal;font-weight:bold;font-stretch:normal;font-family:'Liberation Sans';-inkscape-font-specification:'Liberation Sans Bold';fill:#ffffff;fill-opacity:1"
               id="tspan37411">JAKAMULYA - BEKASI</tspan></textPath></text>
        <circle
           style="fill:none;stroke:none;stroke-width:0.198264"
           id="circle37417"
           cx="23.066954"
           cy="169.47252"
           r="24.431814"
           transform="matrix(-0.82064253,0.5714419,0.5714419,0.82064253,0,0)" />
        <path
           sodipodi:type="star"
           style="fill:#ffffff;fill-opacity:1;stroke:none;stroke-width:0.914646"
           id="path37419"
           inkscape:flatsided="false"
           sodipodi:sides="5"
           sodipodi:cx="76.992905"
           sodipodi:cy="812.79108"
           sodipodi:r1="35.087917"
           sodipodi:r2="22.217672"
           sodipodi:arg1="0.98115517"
           sodipodi:arg2="1.6094737"
           inkscape:rounded="0"
           inkscape:randomized="0"
           d="m 96.503991,841.95406 -20.370193,-6.96193 -20.847279,5.36695 0.326448,-21.52456 -11.546433,-18.16846 20.571949,-6.34099 13.711192,-16.59567 12.387715,17.60562 20.02042,7.91177 -12.915925,17.22185 z"
           transform="matrix(0.06762944,-0.00285829,0.00285829,0.06762944,49.339475,106.04549)"
           inkscape:transform-center-x="-0.051547315"
           inkscape:transform-center-y="-0.18795382" />
        <g
           id="g37467"
           transform="matrix(0.71761404,0,0,0.71761404,48.898557,-24.554545)">
          <path
             style="fill:#000000;fill-opacity:1;stroke:#ffffff;stroke-width:0.582083;stroke-linecap:square;stroke-miterlimit:4;stroke-dasharray:none;stroke-opacity:1"
             d="m 24.334992,235.36951 1.233813,12.86315 0.05251,4.51523 15.173273,-1.68008 14.858259,1.31256 1.785091,-17.11587 -2.677636,-1.9426 -28.876474,1.10256 z"
             id="path37421" />
          <g
             id="g37441"
             clip-path="url(#clipPath14429)"
             transform="matrix(0.86400023,0,0,0.86400023,5.5465284,35.241038)"
             style="fill:#ffffff">
            <path
               id="path37423"
               style="fill:#000000;stroke:#ffffff;stroke-width:0.673707;stroke-miterlimit:4;stroke-dasharray:none"
               d="m 25.056831,256.63272 c -1.043247,-0.83149 -2.027411,-1.74825 -2.94146,-2.74563 l -0.08378,3.43075 -3.756785,1.18242 v 0 c 3.416601,3.54318 7.568118,6.20348 12.101082,7.83658 l 0.08643,-2.83011" />
            <path
               id="path37425"
               style="fill:#000000;stroke:#ffffff;stroke-width:0.673707;stroke-miterlimit:4;stroke-dasharray:none"
               d="m 49.491433,213.02933 c 7.537875,2.97515 13.089182,9.52193 14.792185,17.44474 v 0 c 2.811976,13.08203 -5.51355,25.96667 -18.595585,28.77864 -6.874917,1.47776 -14.052707,-0.1043 -19.669337,-4.33535 l -2.755268,4.91524 v 0 c 6.828507,4.87737 15.395943,6.65206 23.60005,4.88859 16.102187,-3.46116 26.349768,-19.32038 22.888609,-35.42257 v 0 c -2.039848,-9.48991 -8.570743,-17.39327 -17.506161,-21.18506"
               sodipodi:nodetypes="cssscccsssc" />
            <path
               id="path37427"
               style="fill:#000000;fill-opacity:1;stroke:#ffffff;stroke-width:0.673707;stroke-linecap:square;stroke-miterlimit:4;stroke-dasharray:none;stroke-opacity:1"
               d="m 21.961983,231.18955 c 0,0 3.568915,-4.33573 13.87006,-3.08392 4.856455,0.59016 7.484448,2.7247 7.484448,2.7247 v 19.75908 M 19.759179,234.47096 c 0,0 2.339529,4.02581 2.400297,7.24646 0.06076,3.22066 0.03038,11.28746 0.03038,11.28746 l 1.488788,-1.86857 c 0,0 1.944546,-5.40827 1.215341,-10.81653 -0.729204,-5.40825 -3.190267,-8.76562 -3.190267,-8.76562 z m 2.507015,18.48479 1.36139,-1.70825 c 0,0 4.759168,-2.82793 9.998869,-2.82793 6.07097,0 9.644582,2.12021 9.644582,2.12021 v 3.35156 C 41.761281,253.4868 30.806631,249.3249 22.266194,252.95575 Z"
               sodipodi:nodetypes="cscccsccsccccsccc" />
            <path
               style="fill:none;fill-opacity:1;stroke:#ffffff;stroke-width:0.673707;stroke-miterlimit:4;stroke-dasharray:none;stroke-opacity:1"
               d="m 27.76695,231.11791 c 0,0 5.929689,-1.89063 10.054685,0.77344"
               id="path37429" />
            <path
               style="fill:none;fill-opacity:1;stroke:#ffffff;stroke-width:0.673707;stroke-miterlimit:4;stroke-dasharray:none;stroke-opacity:1"
               d="m 27.76695,234.94213 c 0,0 5.929689,-1.89062 10.054685,0.77344"
               id="path37431" />
            <path
               style="fill:none;fill-opacity:1;stroke:#ffffff;stroke-width:0.673707;stroke-miterlimit:4;stroke-dasharray:none;stroke-opacity:1"
               d="m 27.76695,238.72338 c 0,0 5.929689,-1.89062 10.054685,0.77344"
               id="path37433" />
            <path
               style="fill:none;fill-opacity:1;stroke:#ffffff;stroke-width:0.673707;stroke-miterlimit:4;stroke-dasharray:none;stroke-opacity:1"
               d="m 27.76695,241.90307 c 0,0 5.929689,-1.89063 10.054685,0.77344"
               id="path37435" />
            <path
               style="fill:none;fill-opacity:1;stroke:#ffffff;stroke-width:0.673707;stroke-miterlimit:4;stroke-dasharray:none;stroke-opacity:1"
               d="m 27.76695,245.46948 c 0,0 5.929689,-1.89063 10.054685,0.77344"
               id="path37437" />
            <g
               id="g37439"
               clip-path="url(#clipPath22240-1)"
               transform="matrix(1.1574071,0,0,1.1574071,-14.179174,-15.995301)"
               style="fill:#ffffff;stroke-width:0.582083;stroke-miterlimit:4;stroke-dasharray:none" />
          </g>
          <g
             id="g37461"
             clip-path="url(#clipPath14429)"
             transform="matrix(-0.86400023,0,0,0.86400023,76.020206,35.241038)"
             style="fill:#000000;fill-opacity:1;stroke:#ffffff;stroke-opacity:1">
            <path
               id="path37443"
               style="fill:#000000;fill-opacity:1;stroke:#ffffff;stroke-width:0.673707;stroke-miterlimit:4;stroke-dasharray:none;stroke-opacity:1"
               d="m 25.056831,256.63272 c -1.043247,-0.83149 -2.027411,-1.74825 -2.94146,-2.74563 l -0.08378,3.43075 -3.756785,1.18242 v 0 c 3.416601,3.54318 7.568118,6.20348 12.101082,7.83658 l 0.08643,-2.83011" />
            <path
               id="path37445"
               style="fill:#000000;fill-opacity:1;stroke:#ffffff;stroke-width:0.673707;stroke-miterlimit:4;stroke-dasharray:none;stroke-opacity:1"
               d="m 49.491433,213.02933 c 7.537875,2.97515 13.089182,9.52193 14.792185,17.44474 v 0 c 2.811976,13.08203 -5.51355,25.96667 -18.595585,28.77864 -6.874917,1.47776 -14.052707,-0.1043 -19.669337,-4.33535 l -2.755268,4.91524 v 0 c 6.828507,4.87737 15.395943,6.65206 23.60005,4.88859 16.102187,-3.46116 26.349768,-19.32038 22.888609,-35.42257 v 0 c -2.039848,-9.48991 -8.570743,-17.39327 -17.506161,-21.18506"
               sodipodi:nodetypes="cssscccsssc" />
            <path
               id="path37447"
               style="fill:#000000;fill-opacity:1;stroke:#ffffff;stroke-width:0.673707;stroke-linecap:square;stroke-miterlimit:4;stroke-dasharray:none;stroke-opacity:1"
               d="m 21.961983,231.18955 c 0,0 3.568915,-4.33573 13.87006,-3.08392 4.856455,0.59016 7.484448,2.7247 7.484448,2.7247 v 19.75908 M 19.759179,234.47096 c 0,0 2.339529,4.02581 2.400297,7.24646 0.06076,3.22066 0.03038,11.28746 0.03038,11.28746 l 1.488788,-1.86857 c 0,0 1.944546,-5.40827 1.215341,-10.81653 -0.729204,-5.40825 -3.190267,-8.76562 -3.190267,-8.76562 z m 2.507015,18.48479 1.36139,-1.70825 c 0,0 4.759168,-2.82793 9.998869,-2.82793 6.07097,0 9.644582,2.12021 9.644582,2.12021 v 3.35156 C 41.761281,253.4868 30.806631,249.3249 22.266194,252.95575 Z"
               sodipodi:nodetypes="cscccsccsccccsccc" />
            <path
               style="fill:#000000;fill-opacity:1;stroke:#ffffff;stroke-width:0.673707;stroke-miterlimit:4;stroke-dasharray:none;stroke-opacity:1"
               d="m 27.76695,231.11791 c 0,0 5.929689,-1.89063 10.054685,0.77344"
               id="path37449" />
            <path
               style="fill:#000000;fill-opacity:1;stroke:#ffffff;stroke-width:0.673707;stroke-miterlimit:4;stroke-dasharray:none;stroke-opacity:1"
               d="m 27.76695,234.94213 c 0,0 5.929689,-1.89062 10.054685,0.77344"
               id="path37451" />
            <path
               style="fill:#000000;fill-opacity:1;stroke:#ffffff;stroke-width:0.673707;stroke-miterlimit:4;stroke-dasharray:none;stroke-opacity:1"
               d="m 27.76695,238.72338 c 0,0 5.929689,-1.89062 10.054685,0.77344"
               id="path37453" />
            <path
               style="fill:#000000;fill-opacity:1;stroke:#ffffff;stroke-width:0.673707;stroke-miterlimit:4;stroke-dasharray:none;stroke-opacity:1"
               d="m 27.76695,241.90307 c 0,0 5.929689,-1.89063 10.054685,0.77344"
               id="path37455" />
            <path
               style="fill:#000000;fill-opacity:1;stroke:#ffffff;stroke-width:0.673707;stroke-miterlimit:4;stroke-dasharray:none;stroke-opacity:1"
               d="m 27.76695,245.46948 c 0,0 5.929689,-1.89063 10.054685,0.77344"
               id="path37457" />
            <g
               id="g37459"
               clip-path="url(#clipPath22240-1)"
               transform="matrix(1.1574071,0,0,1.1574071,-14.179174,-15.995301)"
               style="fill:#000000;fill-opacity:1;stroke:#ffffff;stroke-width:0.582083;stroke-miterlimit:4;stroke-dasharray:none;stroke-opacity:1" />
          </g>
          <path
             style="fill:#000000;fill-opacity:1;stroke:#ffffff;stroke-width:0.489198;stroke-linecap:square;stroke-miterlimit:4;stroke-dasharray:none;stroke-opacity:1"
             d="m 39.697167,234.14786 c 0,0 0.57362,1.58849 2.029731,0.26476 0,0 0.789367,-8.72353 2.245481,-10.88564 0,0 -3.789841,6.29667 -4.275212,10.62088 z"
             id="path37463"
             sodipodi:nodetypes="cccc" />
          <path
             style="fill:none;fill-opacity:1;stroke:#000000;stroke-width:0.529167;stroke-linecap:square;stroke-miterlimit:4;stroke-dasharray:none;stroke-opacity:1"
             d="m 40.804271,250.59791 v -6.0903"
             id="path37465" />
        </g>
      </g>
    </mask>
  </defs>
  <g
     inkscape:label="Layer 1"
     inkscape:groupmode="layer"
     id="layer1">
    <image
       width="154.78125"
       height="275.16666"
       preserveAspectRatio="none"
       xlink:href="file:///C:/Users/SERVER%20ISTIQLAL/Downloads/WhatsApp%20Image%202021-05-28%20at%2014.21.45.jpeg"
       id="image17"
       x="-205.65027"
       y="77.869446"
       transform="rotate(-1.7108526)" />
    <g
       id="g26367"
       transform="translate(204.37009,-99.658731)">
      <circle
         style="fill:#ffffff;stroke:#000000;stroke-width:0.529167;stroke-miterlimit:4;stroke-dasharray:none;stroke-opacity:1"
         id="path43"
         cx="77.913979"
         cy="152.25778"
         r="29.821524" />
      <circle
         style="fill:#ffffff;stroke:#000000;stroke-width:0.529167;stroke-miterlimit:4;stroke-dasharray:none;stroke-opacity:1"
         id="circle143"
         cx="77.913979"
         cy="152.25778"
         r="27.102417" />
      <text
         xml:space="preserve"
         style="font-style:normal;font-weight:normal;font-size:4.23333px;line-height:1.25;font-family:sans-serif;fill:#000000;fill-opacity:1;stroke:none;stroke-width:0.168462"
         id="text565"><textPath
           xlink:href="#circle3881"
           id="textPath3883"
           style="font-style:normal;font-variant:normal;font-weight:bold;font-stretch:normal;font-size:4.23333px;font-family:'Liberation Sans';-inkscape-font-specification:'Liberation Sans Bold';stroke-width:0.168462">SPS USWATUN HASANAH CIKUNIR</textPath></text>
      <circle
         style="fill:none;stroke:none;stroke-width:0.174665"
         id="circle3881"
         cx="-63.093266"
         cy="-158.9725"
         r="21.523798"
         transform="rotate(174.5473)" />
      <circle
         style="fill:none;stroke:#000000;stroke-width:0.529167;stroke-miterlimit:4;stroke-dasharray:none;stroke-opacity:1"
         id="circle4972"
         cx="77.913979"
         cy="152.25778"
         r="18.945099" />
      <path
         sodipodi:type="star"
         style="fill:#000000;fill-opacity:1;stroke:none;stroke-width:0.914646"
         id="path5199"
         inkscape:flatsided="false"
         sodipodi:sides="5"
         sodipodi:cx="76.992905"
         sodipodi:cy="812.79108"
         sodipodi:r1="35.087917"
         sodipodi:r2="22.217672"
         sodipodi:arg1="0.98115517"
         sodipodi:arg2="1.6094737"
         inkscape:rounded="0"
         inkscape:randomized="0"
         d="m 96.503991,841.95406 -20.370193,-6.96193 -20.847279,5.36695 0.326448,-21.52456 -11.546433,-18.16846 20.571949,-6.34099 13.711192,-16.59567 12.387715,17.60562 20.02042,7.91177 -12.915925,17.22185 z"
         transform="matrix(0.06762944,-0.00285829,0.00285829,0.06762944,91.761639,106.04549)"
         inkscape:transform-center-x="-0.051547315"
         inkscape:transform-center-y="-0.18795382" />
      <text
         xml:space="preserve"
         style="font-style:normal;font-weight:normal;font-size:4.23333px;line-height:1.25;font-family:sans-serif;fill:#000000;fill-opacity:1;stroke:none;stroke-width:0.168462"
         id="text5203"><textPath
           xlink:href="#circle8543"
           id="textPath8545"><tspan
             style="font-style:normal;font-variant:normal;font-weight:bold;font-stretch:normal;font-family:'Liberation Sans';-inkscape-font-specification:'Liberation Sans Bold'"
             id="tspan6073">JAKAMULYA - BEKASI</tspan></textPath></text>
      <circle
         style="fill:none;stroke:none;stroke-width:0.198264"
         id="circle8543"
         cx="23.066954"
         cy="169.47252"
         r="24.431814"
         transform="matrix(-0.82064253,0.5714419,0.5714419,0.82064253,0,0)" />
      <path
         sodipodi:type="star"
         style="fill:#000000;fill-opacity:1;stroke:none;stroke-width:0.914646"
         id="path8784"
         inkscape:flatsided="false"
         sodipodi:sides="5"
         sodipodi:cx="76.992905"
         sodipodi:cy="812.79108"
         sodipodi:r1="35.087917"
         sodipodi:r2="22.217672"
         sodipodi:arg1="0.98115517"
         sodipodi:arg2="1.6094737"
         inkscape:rounded="0"
         inkscape:randomized="0"
         d="m 96.503991,841.95406 -20.370193,-6.96193 -20.847279,5.36695 0.326448,-21.52456 -11.546433,-18.16846 20.571949,-6.34099 13.711192,-16.59567 12.387715,17.60562 20.02042,7.91177 -12.915925,17.22185 z"
         transform="matrix(0.06762944,-0.00285829,0.00285829,0.06762944,49.339475,106.04549)"
         inkscape:transform-center-x="-0.051547315"
         inkscape:transform-center-y="-0.18795382" />
      <g
         id="g26145"
         transform="matrix(0.71761404,0,0,0.71761404,48.898557,-24.554545)">
        <path
           style="fill:#ffffff;fill-opacity:1;stroke:none;stroke-width:0.582083;stroke-linecap:square;stroke-miterlimit:4;stroke-dasharray:none;stroke-opacity:1"
           d="m 24.334992,235.36951 1.233813,12.86315 0.05251,4.51523 15.173273,-1.68008 14.858259,1.31256 1.785091,-17.11587 -2.677636,-1.9426 -28.876474,1.10256 z"
           id="path25881" />
        <g
           id="g14287"
           clip-path="url(#clipPath14429)"
           transform="matrix(0.86400023,0,0,0.86400023,5.5465284,35.241038)"
           style="fill:#ffffff">
          <path
             id="path17681"
             style="fill:#ffffff;stroke:#000000;stroke-width:0.673707;stroke-miterlimit:4;stroke-dasharray:none"
             d="m 25.056831,256.63272 c -1.043247,-0.83149 -2.027411,-1.74825 -2.94146,-2.74563 l -0.08378,3.43075 -3.756785,1.18242 v 0 c 3.416601,3.54318 7.568118,6.20348 12.101082,7.83658 l 0.08643,-2.83011" />
          <path
             id="circle14148"
             style="fill:#ffffff;stroke:#000000;stroke-width:0.673707;stroke-miterlimit:4;stroke-dasharray:none"
             d="m 49.491433,213.02933 c 7.537875,2.97515 13.089182,9.52193 14.792185,17.44474 v 0 c 2.811976,13.08203 -5.51355,25.96667 -18.595585,28.77864 -6.874917,1.47776 -14.052707,-0.1043 -19.669337,-4.33535 l -2.755268,4.91524 v 0 c 6.828507,4.87737 15.395943,6.65206 23.60005,4.88859 16.102187,-3.46116 26.349768,-19.32038 22.888609,-35.42257 v 0 c -2.039848,-9.48991 -8.570743,-17.39327 -17.506161,-21.18506"
             sodipodi:nodetypes="cssscccsssc" />
          <path
             id="path18993"
             style="fill:#ffffff;fill-opacity:1;stroke:#000000;stroke-width:0.673707;stroke-linecap:square;stroke-miterlimit:4;stroke-dasharray:none;stroke-opacity:1"
             d="m 21.961983,231.18955 c 0,0 3.568915,-4.33573 13.87006,-3.08392 4.856455,0.59016 7.484448,2.7247 7.484448,2.7247 v 19.75908 M 19.759179,234.47096 c 0,0 2.339529,4.02581 2.400297,7.24646 0.06076,3.22066 0.03038,11.28746 0.03038,11.28746 l 1.488788,-1.86857 c 0,0 1.944546,-5.40827 1.215341,-10.81653 -0.729204,-5.40825 -3.190267,-8.76562 -3.190267,-8.76562 z m 2.507015,18.48479 1.36139,-1.70825 c 0,0 4.759168,-2.82793 9.998869,-2.82793 6.07097,0 9.644582,2.12021 9.644582,2.12021 v 3.35156 C 41.761281,253.4868 30.806631,249.3249 22.266194,252.95575 Z"
             sodipodi:nodetypes="cscccsccsccccsccc" />
          <path
             style="fill:#ffffff;fill-opacity:1;stroke:#000000;stroke-width:0.673707;stroke-miterlimit:4;stroke-dasharray:none;stroke-opacity:1"
             d="m 27.76695,231.11791 c 0,0 5.929689,-1.89063 10.054685,0.77344"
             id="path19773" />
          <path
             style="fill:#ffffff;fill-opacity:1;stroke:#000000;stroke-width:0.673707;stroke-miterlimit:4;stroke-dasharray:none;stroke-opacity:1"
             d="m 27.76695,234.94213 c 0,0 5.929689,-1.89062 10.054685,0.77344"
             id="path19855" />
          <path
             style="fill:#ffffff;fill-opacity:1;stroke:#000000;stroke-width:0.673707;stroke-miterlimit:4;stroke-dasharray:none;stroke-opacity:1"
             d="m 27.76695,238.72338 c 0,0 5.929689,-1.89062 10.054685,0.77344"
             id="path19857" />
          <path
             style="fill:#ffffff;fill-opacity:1;stroke:#000000;stroke-width:0.673707;stroke-miterlimit:4;stroke-dasharray:none;stroke-opacity:1"
             d="m 27.76695,241.90307 c 0,0 5.929689,-1.89063 10.054685,0.77344"
             id="path19859" />
          <path
             style="fill:#ffffff;fill-opacity:1;stroke:#000000;stroke-width:0.673707;stroke-miterlimit:4;stroke-dasharray:none;stroke-opacity:1"
             d="m 27.76695,245.46948 c 0,0 5.929689,-1.89063 10.054685,0.77344"
             id="path19861" />
          <g
             id="g22040"
             clip-path="url(#clipPath22240-1)"
             transform="matrix(1.1574071,0,0,1.1574071,-14.179174,-15.995301)"
             style="fill:#ffffff;stroke-width:0.582083;stroke-miterlimit:4;stroke-dasharray:none" />
        </g>
        <use
           x="0"
           y="0"
           xlink:href="#g14287"
           id="use14519"
           width="100%"
           height="100%"
           transform="matrix(-1,0,0,1,81.566734,-3.7329244e-7)" />
        <path
           style="fill:#ffffff;fill-opacity:1;stroke:#000000;stroke-width:0.489198;stroke-linecap:square;stroke-miterlimit:4;stroke-dasharray:none;stroke-opacity:1"
           d="m 39.697167,234.14786 c 0,0 0.57362,1.58849 2.029731,0.26476 0,0 0.789367,-8.72353 2.245481,-10.88564 0,0 -3.789841,6.29667 -4.275212,10.62088 z"
           id="path23721"
           sodipodi:nodetypes="cccc" />
        <path
           style="fill:none;fill-opacity:1;stroke:#000000;stroke-width:0.529167;stroke-linecap:square;stroke-miterlimit:4;stroke-dasharray:none;stroke-opacity:1"
           d="m 40.804271,250.59791 v -6.0903"
           id="path22286" />
      </g>
    </g>
    <g
       id="g26423"
       transform="translate(204.37009,-34.021735)">
      <circle
         style="fill:#000000;stroke:#ffffff;stroke-width:0.529167;stroke-miterlimit:4;stroke-dasharray:none;stroke-opacity:1"
         id="circle26369"
         cx="77.913979"
         cy="152.25778"
         r="29.821524" />
      <circle
         style="fill:#000000;stroke:#ffffff;stroke-width:0.529167;stroke-miterlimit:4;stroke-dasharray:none;stroke-opacity:1"
         id="circle26371"
         cx="77.913979"
         cy="152.25778"
         r="27.102417" />
      <text
         xml:space="preserve"
         style="font-style:normal;font-weight:normal;font-size:4.23333px;line-height:1.25;font-family:sans-serif;fill:#ffffff;fill-opacity:1;stroke:none;stroke-width:0.168462"
         id="text26375"><textPath
           xlink:href="#circle3881"
           id="textPath26373"
           style="font-style:normal;font-variant:normal;font-weight:bold;font-stretch:normal;font-size:4.23333px;font-family:'Liberation Sans';-inkscape-font-specification:'Liberation Sans Bold';fill:#ffffff;fill-opacity:1;stroke-width:0.168462">SPS USWATUN HASANAH CIKUNIR</textPath></text>
      <circle
         style="fill:none;stroke:none;stroke-width:0.174665"
         id="circle26377"
         cx="-63.093266"
         cy="-158.9725"
         r="21.523798"
         transform="rotate(174.5473)" />
      <circle
         style="fill:#000000;stroke:#ffffff;stroke-width:0.529167;stroke-miterlimit:4;stroke-dasharray:none;stroke-opacity:1"
         id="circle26379"
         cx="77.913979"
         cy="152.25778"
         r="18.945099" />
      <path
         sodipodi:type="star"
         style="fill:#ffffff;fill-opacity:1;stroke:none;stroke-width:0.914646"
         id="path26381"
         inkscape:flatsided="false"
         sodipodi:sides="5"
         sodipodi:cx="76.992905"
         sodipodi:cy="812.79108"
         sodipodi:r1="35.087917"
         sodipodi:r2="22.217672"
         sodipodi:arg1="0.98115517"
         sodipodi:arg2="1.6094737"
         inkscape:rounded="0"
         inkscape:randomized="0"
         d="m 96.503991,841.95406 -20.370193,-6.96193 -20.847279,5.36695 0.326448,-21.52456 -11.546433,-18.16846 20.571949,-6.34099 13.711192,-16.59567 12.387715,17.60562 20.02042,7.91177 -12.915925,17.22185 z"
         transform="matrix(0.06762944,-0.00285829,0.00285829,0.06762944,91.761639,106.04549)"
         inkscape:transform-center-x="-0.051547315"
         inkscape:transform-center-y="-0.18795382" />
      <text
         xml:space="preserve"
         style="font-style:normal;font-weight:normal;font-size:4.23333px;line-height:1.25;font-family:sans-serif;fill:#ffffff;fill-opacity:1;stroke:none;stroke-width:0.168462"
         id="text26387"><textPath
           xlink:href="#circle8543"
           id="textPath26385"><tspan
             style="font-style:normal;font-variant:normal;font-weight:bold;font-stretch:normal;font-family:'Liberation Sans';-inkscape-font-specification:'Liberation Sans Bold';fill:#ffffff;fill-opacity:1"
             id="tspan26383">JAKAMULYA - BEKASI</tspan></textPath></text>
      <circle
         style="fill:none;stroke:none;stroke-width:0.198264"
         id="circle26389"
         cx="23.066954"
         cy="169.47252"
         r="24.431814"
         transform="matrix(-0.82064253,0.5714419,0.5714419,0.82064253,0,0)" />
      <path
         sodipodi:type="star"
         style="fill:#ffffff;fill-opacity:1;stroke:none;stroke-width:0.914646"
         id="path26391"
         inkscape:flatsided="false"
         sodipodi:sides="5"
         sodipodi:cx="76.992905"
         sodipodi:cy="812.79108"
         sodipodi:r1="35.087917"
         sodipodi:r2="22.217672"
         sodipodi:arg1="0.98115517"
         sodipodi:arg2="1.6094737"
         inkscape:rounded="0"
         inkscape:randomized="0"
         d="m 96.503991,841.95406 -20.370193,-6.96193 -20.847279,5.36695 0.326448,-21.52456 -11.546433,-18.16846 20.571949,-6.34099 13.711192,-16.59567 12.387715,17.60562 20.02042,7.91177 -12.915925,17.22185 z"
         transform="matrix(0.06762944,-0.00285829,0.00285829,0.06762944,49.339475,106.04549)"
         inkscape:transform-center-x="-0.051547315"
         inkscape:transform-center-y="-0.18795382" />
      <g
         id="g26421"
         transform="matrix(0.71761404,0,0,0.71761404,48.898557,-24.554545)">
        <path
           style="fill:#000000;fill-opacity:1;stroke:#ffffff;stroke-width:0.582083;stroke-linecap:square;stroke-miterlimit:4;stroke-dasharray:none;stroke-opacity:1"
           d="m 24.334992,235.36951 1.233813,12.86315 0.05251,4.51523 15.173273,-1.68008 14.858259,1.31256 1.785091,-17.11587 -2.677636,-1.9426 -28.876474,1.10256 z"
           id="path26393" />
        <g
           id="g26413"
           clip-path="url(#clipPath14429)"
           transform="matrix(0.86400023,0,0,0.86400023,5.5465284,35.241038)"
           style="fill:#ffffff">
          <path
             id="path26395"
             style="fill:#000000;stroke:#ffffff;stroke-width:0.673707;stroke-miterlimit:4;stroke-dasharray:none"
             d="m 25.056831,256.63272 c -1.043247,-0.83149 -2.027411,-1.74825 -2.94146,-2.74563 l -0.08378,3.43075 -3.756785,1.18242 v 0 c 3.416601,3.54318 7.568118,6.20348 12.101082,7.83658 l 0.08643,-2.83011" />
          <path
             id="path26397"
             style="fill:#000000;stroke:#ffffff;stroke-width:0.673707;stroke-miterlimit:4;stroke-dasharray:none"
             d="m 49.491433,213.02933 c 7.537875,2.97515 13.089182,9.52193 14.792185,17.44474 v 0 c 2.811976,13.08203 -5.51355,25.96667 -18.595585,28.77864 -6.874917,1.47776 -14.052707,-0.1043 -19.669337,-4.33535 l -2.755268,4.91524 v 0 c 6.828507,4.87737 15.395943,6.65206 23.60005,4.88859 16.102187,-3.46116 26.349768,-19.32038 22.888609,-35.42257 v 0 c -2.039848,-9.48991 -8.570743,-17.39327 -17.506161,-21.18506"
             sodipodi:nodetypes="cssscccsssc" />
          <path
             id="path26399"
             style="fill:#000000;fill-opacity:1;stroke:#ffffff;stroke-width:0.673707;stroke-linecap:square;stroke-miterlimit:4;stroke-dasharray:none;stroke-opacity:1"
             d="m 21.961983,231.18955 c 0,0 3.568915,-4.33573 13.87006,-3.08392 4.856455,0.59016 7.484448,2.7247 7.484448,2.7247 v 19.75908 M 19.759179,234.47096 c 0,0 2.339529,4.02581 2.400297,7.24646 0.06076,3.22066 0.03038,11.28746 0.03038,11.28746 l 1.488788,-1.86857 c 0,0 1.944546,-5.40827 1.215341,-10.81653 -0.729204,-5.40825 -3.190267,-8.76562 -3.190267,-8.76562 z m 2.507015,18.48479 1.36139,-1.70825 c 0,0 4.759168,-2.82793 9.998869,-2.82793 6.07097,0 9.644582,2.12021 9.644582,2.12021 v 3.35156 C 41.761281,253.4868 30.806631,249.3249 22.266194,252.95575 Z"
             sodipodi:nodetypes="cscccsccsccccsccc" />
          <path
             style="fill:none;fill-opacity:1;stroke:#ffffff;stroke-width:0.673707;stroke-miterlimit:4;stroke-dasharray:none;stroke-opacity:1"
             d="m 27.76695,231.11791 c 0,0 5.929689,-1.89063 10.054685,0.77344"
             id="path26401" />
          <path
             style="fill:none;fill-opacity:1;stroke:#ffffff;stroke-width:0.673707;stroke-miterlimit:4;stroke-dasharray:none;stroke-opacity:1"
             d="m 27.76695,234.94213 c 0,0 5.929689,-1.89062 10.054685,0.77344"
             id="path26403" />
          <path
             style="fill:none;fill-opacity:1;stroke:#ffffff;stroke-width:0.673707;stroke-miterlimit:4;stroke-dasharray:none;stroke-opacity:1"
             d="m 27.76695,238.72338 c 0,0 5.929689,-1.89062 10.054685,0.77344"
             id="path26405" />
          <path
             style="fill:none;fill-opacity:1;stroke:#ffffff;stroke-width:0.673707;stroke-miterlimit:4;stroke-dasharray:none;stroke-opacity:1"
             d="m 27.76695,241.90307 c 0,0 5.929689,-1.89063 10.054685,0.77344"
             id="path26407" />
          <path
             style="fill:none;fill-opacity:1;stroke:#ffffff;stroke-width:0.673707;stroke-miterlimit:4;stroke-dasharray:none;stroke-opacity:1"
             d="m 27.76695,245.46948 c 0,0 5.929689,-1.89063 10.054685,0.77344"
             id="path26409" />
          <g
             id="g26411"
             clip-path="url(#clipPath22240-1)"
             transform="matrix(1.1574071,0,0,1.1574071,-14.179174,-15.995301)"
             style="fill:#ffffff;stroke-width:0.582083;stroke-miterlimit:4;stroke-dasharray:none" />
        </g>
        <g
           id="use26415"
           clip-path="url(#clipPath14429)"
           transform="matrix(-0.86400023,0,0,0.86400023,76.020206,35.241038)"
           style="fill:#000000;fill-opacity:1;stroke:#ffffff;stroke-opacity:1">
          <path
             id="path30856"
             style="fill:#000000;fill-opacity:1;stroke:#ffffff;stroke-width:0.673707;stroke-miterlimit:4;stroke-dasharray:none;stroke-opacity:1"
             d="m 25.056831,256.63272 c -1.043247,-0.83149 -2.027411,-1.74825 -2.94146,-2.74563 l -0.08378,3.43075 -3.756785,1.18242 v 0 c 3.416601,3.54318 7.568118,6.20348 12.101082,7.83658 l 0.08643,-2.83011" />
          <path
             id="path30858"
             style="fill:#000000;fill-opacity:1;stroke:#ffffff;stroke-width:0.673707;stroke-miterlimit:4;stroke-dasharray:none;stroke-opacity:1"
             d="m 49.491433,213.02933 c 7.537875,2.97515 13.089182,9.52193 14.792185,17.44474 v 0 c 2.811976,13.08203 -5.51355,25.96667 -18.595585,28.77864 -6.874917,1.47776 -14.052707,-0.1043 -19.669337,-4.33535 l -2.755268,4.91524 v 0 c 6.828507,4.87737 15.395943,6.65206 23.60005,4.88859 16.102187,-3.46116 26.349768,-19.32038 22.888609,-35.42257 v 0 c -2.039848,-9.48991 -8.570743,-17.39327 -17.506161,-21.18506"
             sodipodi:nodetypes="cssscccsssc" />
          <path
             id="path30860"
             style="fill:#000000;fill-opacity:1;stroke:#ffffff;stroke-width:0.673707;stroke-linecap:square;stroke-miterlimit:4;stroke-dasharray:none;stroke-opacity:1"
             d="m 21.961983,231.18955 c 0,0 3.568915,-4.33573 13.87006,-3.08392 4.856455,0.59016 7.484448,2.7247 7.484448,2.7247 v 19.75908 M 19.759179,234.47096 c 0,0 2.339529,4.02581 2.400297,7.24646 0.06076,3.22066 0.03038,11.28746 0.03038,11.28746 l 1.488788,-1.86857 c 0,0 1.944546,-5.40827 1.215341,-10.81653 -0.729204,-5.40825 -3.190267,-8.76562 -3.190267,-8.76562 z m 2.507015,18.48479 1.36139,-1.70825 c 0,0 4.759168,-2.82793 9.998869,-2.82793 6.07097,0 9.644582,2.12021 9.644582,2.12021 v 3.35156 C 41.761281,253.4868 30.806631,249.3249 22.266194,252.95575 Z"
             sodipodi:nodetypes="cscccsccsccccsccc" />
          <path
             style="fill:#000000;fill-opacity:1;stroke:#ffffff;stroke-width:0.673707;stroke-miterlimit:4;stroke-dasharray:none;stroke-opacity:1"
             d="m 27.76695,231.11791 c 0,0 5.929689,-1.89063 10.054685,0.77344"
             id="path30862" />
          <path
             style="fill:#000000;fill-opacity:1;stroke:#ffffff;stroke-width:0.673707;stroke-miterlimit:4;stroke-dasharray:none;stroke-opacity:1"
             d="m 27.76695,234.94213 c 0,0 5.929689,-1.89062 10.054685,0.77344"
             id="path30864" />
          <path
             style="fill:#000000;fill-opacity:1;stroke:#ffffff;stroke-width:0.673707;stroke-miterlimit:4;stroke-dasharray:none;stroke-opacity:1"
             d="m 27.76695,238.72338 c 0,0 5.929689,-1.89062 10.054685,0.77344"
             id="path30866" />
          <path
             style="fill:#000000;fill-opacity:1;stroke:#ffffff;stroke-width:0.673707;stroke-miterlimit:4;stroke-dasharray:none;stroke-opacity:1"
             d="m 27.76695,241.90307 c 0,0 5.929689,-1.89063 10.054685,0.77344"
             id="path30868" />
          <path
             style="fill:#000000;fill-opacity:1;stroke:#ffffff;stroke-width:0.673707;stroke-miterlimit:4;stroke-dasharray:none;stroke-opacity:1"
             d="m 27.76695,245.46948 c 0,0 5.929689,-1.89063 10.054685,0.77344"
             id="path30870" />
          <g
             id="g30872"
             clip-path="url(#clipPath22240-1)"
             transform="matrix(1.1574071,0,0,1.1574071,-14.179174,-15.995301)"
             style="fill:#000000;fill-opacity:1;stroke:#ffffff;stroke-width:0.582083;stroke-miterlimit:4;stroke-dasharray:none;stroke-opacity:1" />
        </g>
        <path
           style="fill:#000000;fill-opacity:1;stroke:#ffffff;stroke-width:0.489198;stroke-linecap:square;stroke-miterlimit:4;stroke-dasharray:none;stroke-opacity:1"
           d="m 39.697167,234.14786 c 0,0 0.57362,1.58849 2.029731,0.26476 0,0 0.789367,-8.72353 2.245481,-10.88564 0,0 -3.789841,6.29667 -4.275212,10.62088 z"
           id="path26417"
           sodipodi:nodetypes="cccc" />
        <path
           style="fill:none;fill-opacity:1;stroke:#000000;stroke-width:0.529167;stroke-linecap:square;stroke-miterlimit:4;stroke-dasharray:none;stroke-opacity:1"
           d="m 40.804271,250.59791 v -6.0903"
           id="path26419" />
      </g>
    </g>
    <rect
       style="fill:#008000;fill-opacity:1;stroke:none;stroke-width:0.582083;stroke-linecap:square;stroke-miterlimit:4;stroke-dasharray:none;stroke-opacity:1"
       id="rect37203"
       width="63.423237"
       height="63.423237"
       x="137.97704"
       y="152.6778"
       mask="url(#mask37395)"
       transform="translate(-8.91,-64.152)" />
    <rect
       style="fill:#1a1a1a;fill-opacity:1;stroke:none;stroke-width:0.582083;stroke-linecap:square;stroke-miterlimit:4;stroke-dasharray:none;stroke-opacity:1"
       id="rect37719"
       width="63.423237"
       height="63.423237"
       x="137.97704"
       y="152.6778"
       mask="url(#mask37395)"
       transform="translate(-8.91,5.991579)" />
    <rect
       style="fill:#ffffff;fill-opacity:1;stroke:none;stroke-width:0.582083;stroke-linecap:square;stroke-miterlimit:4;stroke-dasharray:none;stroke-opacity:1"
       id="rect37757"
       width="63.423237"
       height="63.423237"
       x="137.97704"
       y="152.6778"
       mask="url(#mask37395)"
       transform="translate(-8.91,-131.22242)" />
  </g>
</svg>
