<?xml version="1.0" encoding="UTF-8" standalone="no"?>
<svg
   xmlns:dc="http://purl.org/dc/elements/1.1/"
   xmlns:cc="http://creativecommons.org/ns#"
   xmlns:rdf="http://www.w3.org/1999/02/22-rdf-syntax-ns#"
   xmlns:svg="http://www.w3.org/2000/svg"
   xmlns="http://www.w3.org/2000/svg"
   xmlns:sodipodi="http://sodipodi.sourceforge.net/DTD/sodipodi-0.dtd"
   xmlns:inkscape="http://www.inkscape.org/namespaces/inkscape"
   inkscape:version="1.0 (4035a4fb49, 2020-05-01)"
   sodipodi:docname="tandatangan.svg"
   id="svg82"
   version="1.1"
   viewBox="0 0 210 297"
   height="297mm"
   width="210mm">
  <defs
     id="defs76" />
  <sodipodi:namedview
     inkscape:window-maximized="1"
     inkscape:window-y="-8"
     inkscape:window-x="-8"
     inkscape:window-height="715"
     inkscape:window-width="1366"
     showgrid="false"
     inkscape:document-rotation="0"
     inkscape:current-layer="layer1"
     inkscape:document-units="mm"
     inkscape:cy="589.4451"
     inkscape:cx="3042.4416"
     inkscape:zoom="0.24748737"
     inkscape:pageshadow="2"
     inkscape:pageopacity="0.0"
     borderopacity="1.0"
     bordercolor="#666666"
     pagecolor="#ffffff"
     id="base" />
  <metadata
     id="metadata79">
    <rdf:RDF>
      <cc:Work
         rdf:about="">
        <dc:format>image/svg+xml</dc:format>
        <dc:type
           rdf:resource="http://purl.org/dc/dcmitype/StillImage" />
      </cc:Work>
    </rdf:RDF>
  </metadata>
  <g
     id="layer1"
     inkscape:groupmode="layer"
     inkscape:label="Layer 1">
    <path
       id="path21"
       style="fill:#000000;stroke-width:0.338246"
       d="m 618.53216,131.80163 c -0.55579,0 -2.22076,3.91648 -3.0334,7.13487 -0.70735,2.8011 -3.04048,10.06084 -3.82619,11.90659 -0.22133,0.51986 -1.05102,1.32721 -1.84427,1.79334 -1.40332,0.82468 -2.17801,0.83392 -2.07826,0.0267 0.12304,-0.99739 -0.0706,-1.58144 -0.52575,-1.58144 -0.64453,0 -1.19603,1.05442 -1.19603,2.28611 0,0.865 -0.30018,1.14618 -2.62191,2.46089 -5.4499,3.08613 -6.29014,4.38541 -2.83796,4.38635 1.13931,2.6e-4 2.38456,0.2389 3.09122,0.59177 l 1.185,0.59187 0.0439,2.70581 c 0.064,3.83994 0.0719,3.88947 0.61247,3.88947 0.62969,0 1.46977,-1.2033 1.88831,-2.7058 0.56567,-2.03075 0.73666,-2.1509 2.19524,-1.5415 0.70808,0.29591 1.52938,0.45494 1.82501,0.35375 1.03133,-0.35332 3.37282,-6.53328 4.56663,-12.05254 0.13051,-0.60384 0.63758,-1.12564 1.5594,-1.60616 0.75119,-0.39151 1.41234,-0.71293 1.46851,-0.71293 0.18697,0 -0.96272,7.57854 -1.63231,10.76149 -0.6786,3.22553 -0.68523,5.13648 -0.0187,5.13648 0.55258,0 1.86628,-2.32185 1.86628,-3.29768 0,-0.34016 0.27161,-1.14921 0.60285,-1.79883 0.33119,-0.64972 0.88922,-1.93831 1.24006,-2.86275 0.66222,-1.74508 2.21296,-4.33429 2.45261,-4.09461 0.0755,0.0754 -0.26458,1.63873 -0.7556,3.47383 -1.46458,5.47359 -1.46671,5.48925 -1.03775,5.84526 0.21786,0.18084 0.56117,0.22239 0.76249,0.0935 0.48539,-0.31075 1.80986,-2.94337 1.80986,-3.59768 0,-0.8695 2.09865,-4.57652 3.4298,-6.05861 l 1.25796,-1.40111 -0.94966,2.70591 c -0.5225,1.48828 -1.27342,3.51006 -1.6681,4.49366 -0.84399,2.10317 -0.91459,3.54748 -0.20921,4.25286 1.17369,1.17371 3.7599,-0.67782 5.28646,-3.78488 0.59239,-1.20571 0.68906,-1.87756 0.5519,-3.79456 -0.13333,-1.86352 -0.0569,-2.42895 0.37987,-2.82422 0.57891,-0.52385 3.58363,-1.89521 4.15237,-1.89521 0.49161,0 0.0106,1.93644 -0.92489,3.7216 -3.14939,6.01028 -3.32479,11.03632 -0.28215,8.08732 l 1.10244,-1.06808 -0.0977,0.87949 c -0.12636,1.15105 0.66566,2.24893 1.62268,2.24893 1.58134,0 5.17338,-3.6351 4.37809,-4.4304 -0.24705,-0.24716 -0.5811,-0.0655 -1.10381,0.60005 -0.59284,0.75451 -2.72088,2.13884 -3.28804,2.13884 -0.34813,0 6.5e-4,-2.06999 0.7033,-4.16887 1.08258,-3.23491 1.1832,-4.07474 0.50374,-4.21017 -0.35069,-0.0698 -0.70586,0.28785 -0.99921,1.00605 -0.25047,0.61321 -0.95756,1.81758 -1.57039,2.67693 -0.61282,0.85944 -1.11345,1.81074 -1.11345,2.11404 0,0.30336 -0.15253,0.5519 -0.33858,0.5519 -0.18603,0 -0.33857,-0.14702 -0.33857,-0.32613 0,-0.41892 1.1642,-3.37132 2.19661,-5.57138 1.64872,-3.51347 1.56356,-5.26481 -0.25736,-5.26443 -1.13113,2.6e-4 -5.06459,1.67903 -5.46951,2.33424 -0.50943,0.82425 -0.75799,0.28045 -0.60421,-1.31993 0.13461,-1.40092 0.0676,-1.69011 -0.38674,-1.69011 -0.59155,0 -2.87686,2.14991 -4.31753,4.06156 l -0.89049,1.1809 0.1748,-2.45263 c 0.11522,-1.61796 0.0531,-2.45265 -0.18444,-2.45265 -0.66023,0 -2.86216,2.86318 -4.16888,5.42138 -1.11051,2.17399 -1.2926,2.38588 -1.302,1.51119 -0.005,-0.55931 0.12677,-1.49582 0.29453,-2.08098 0.52447,-1.82871 0.83454,-6.88029 0.42252,-6.88029 -0.20161,0 -1.08313,0.45423 -1.95988,1.01023 -0.87672,0.55601 -1.64886,0.95796 -1.71491,0.89185 -0.066,-0.0663 0.18245,-1.54916 0.55193,-3.29488 0.88836,-4.19814 2.15353,-13.42744 1.9227,-14.02891 -0.10041,-0.2618 -0.34973,-0.47621 -0.55326,-0.47621 z m -1.36255,5.581 -0.18297,1.52223 c -0.10067,0.83717 -0.38666,2.58723 -0.63587,3.88948 -0.24929,1.30224 -0.64488,3.48145 -0.87947,4.84192 -0.37859,2.1959 -0.53757,2.53021 -1.41485,2.98388 -0.54354,0.28101 -1.05098,0.4479 -1.1286,0.37015 -0.0778,-0.0775 0.59732,-2.41011 1.50019,-5.18317 0.90288,-2.77313 1.8884,-5.80283 2.19111,-6.733 z m -3.01965,14.57937 c 0.20348,-0.0187 0.33444,0.0466 0.33444,0.22584 0,1.82935 -3.14789,10.73254 -3.79453,10.73254 -0.75538,0 -1.9777,-1.14623 -1.76719,-1.65706 0.12278,-0.29809 0.72877,-1.93626 1.34603,-3.64038 0.61726,-1.70411 1.34619,-3.53051 1.61994,-4.05878 0.38359,-0.74028 1.65125,-1.5468 2.26131,-1.60211 z m -3.85922,1.82503 c 0.22718,0 -0.0437,0.86958 -1.26347,4.05191 -0.53318,1.39102 -0.97031,2.72229 -0.97031,2.95907 0,0.23677 -0.32195,0.43077 -0.71569,0.43077 -0.57619,0 -0.67698,-0.14862 -0.51611,-0.76106 0.11,-0.41857 0.38299,-1.84919 0.60695,-3.17935 0.37918,-2.25202 0.48585,-2.45502 1.54285,-2.95909 0.62432,-0.29773 1.21654,-0.54225 1.31578,-0.54225 z m 19.78329,0.008 c 0.37815,-0.0106 0.98508,1.72162 0.98131,2.80223 -0.006,1.75586 -1.45266,4.46723 -2.72237,5.10068 -0.60764,0.30309 -1.149,0.50806 -1.20153,0.45549 -0.17754,-0.17738 0.49993,-2.42852 1.62407,-5.39789 0.61509,-1.62478 1.20886,-2.95768 1.31852,-2.96051 z m 18.06013,1.72458 c -0.20564,0 -0.61119,0.21467 -1.82776,0.82574 -1.8749,0.94171 -2.27987,1.84152 -0.82855,1.84152 1.691,0 3.71732,-1.70672 2.94396,-2.48011 -0.11247,-0.11239 -0.16427,-0.18776 -0.28765,-0.18723 z m -42.47888,0.67988 c 0.3207,0 0.3591,0.29962 0.24237,0.88908 -0.10147,0.5116 -0.28056,1.48835 -0.39777,2.17046 l -0.21334,1.24012 -1.40521,-0.46932 c -0.77282,-0.25807 -1.83593,-0.55602 -2.36316,-0.66192 l -0.95929,-0.19256 0.79001,-0.6001 c 0.4342,-0.3296 1.50112,-1.00832 2.37142,-1.50844 1.01085,-0.58094 1.61439,-0.87013 1.93511,-0.86711 z m 1.04875,6.38479 c 0.42379,0 0.42379,0.35854 0,1.01431 -0.265,0.41026 -0.32929,0.36222 -0.33305,-0.25328 -0.003,-0.41858 0.14702,-0.76105 0.33305,-0.76105 z" />
    <path
       id="path21-8"
       style="fill:#000000;stroke-width:0.338246"
       d="m 732.81268,127.86274 c -1.00857,0 -3.36563,1.99221 -4.55288,3.84825 -1.82488,2.85277 -2.32388,5.34663 -2.10303,10.51925 0.16974,3.97598 0.12398,4.50304 -0.49272,5.60028 -0.37441,0.66613 -0.97423,1.39357 -1.33229,1.61716 -0.59601,0.37221 -0.651,0.30759 -0.651,-0.77903 0,-1.74971 -0.72783,-1.5082 -2.53657,0.84239 -0.85889,1.11621 -1.63211,2.02871 -1.71902,2.02871 -0.30389,0 0.84329,-1.86938 1.86767,-3.0431 0.96872,-1.10995 1.37493,-2.36864 0.76385,-2.36864 -0.32066,0 -1.81836,1.59012 -3.50687,3.72154 -2.77546,3.50362 -8.42305,8.45614 -9.64252,8.45614 -0.0598,0 -0.10561,-0.64759 -0.10185,-1.43823 0.007,-1.4768 0.91704,-4.30968 3.28529,-10.23158 0.74398,-1.86035 1.43524,-3.62493 1.53598,-3.9212 0.38983,-1.14642 6.55829,-2.16749 10.02653,-1.65978 1.64158,0.24024 1.747,-0.54294 0.13349,-0.991 -1.7475,-0.48524 -4.89738,-0.44273 -7.49685,0.10174 l -2.14705,0.45011 0.22159,-2.07276 c 0.72714,-6.79013 -3.7774,-9.55514 -13.55818,-8.32401 -7.72841,0.97282 -15.39694,4.6239 -20.79351,9.89989 -2.66101,2.60159 -3.87659,4.50626 -5.18736,8.12719 -3.14559,8.68988 -2.79945,16.7435 0.89185,20.74811 2.15401,2.3368 5.17386,2.68447 12.69522,1.46306 5.3,-0.86077 7.83237,-1.4446 10.18756,-2.34806 4.46821,-1.71392 6.8996,-3.48428 6.72885,-4.89969 -0.0667,-0.55291 -0.37558,-0.69473 -1.68876,-0.77903 -1.89657,-0.12171 -2.20957,0.51315 -0.33857,0.68677 l 1.26897,0.11853 -0.93727,0.40328 c -0.51512,0.22239 -1.7327,0.99204 -2.70586,1.70941 -2.38609,1.75875 -2.79782,1.95592 -5.69248,2.72232 -4.64819,1.23079 -11.42292,2.15356 -14.0041,1.90763 -2.68759,-0.25595 -4.56326,-1.00289 -4.57077,-1.81813 -0.003,-0.30435 -0.22549,-0.93327 -0.49547,-1.39837 -1.02077,-1.75846 -1.95915,-3.92674 -2.12367,-4.90521 -0.57056,-3.39273 0.5235,-11.51901 1.75343,-13.02279 0.22825,-0.27907 0.42935,-0.81904 0.4473,-1.20013 0.0181,-0.3811 0.59188,-1.63014 1.27448,-2.77609 3.91864,-6.57824 15.73877,-13.16671 24.7009,-13.76737 4.91313,-0.3293 7.6572,0.2096 9.41543,1.8498 1.2665,1.18139 1.36551,1.40955 1.48369,3.42155 0.0696,1.18562 -0.003,2.75479 -0.16103,3.48625 -0.28066,1.29873 -0.35009,1.35165 -2.9825,2.26407 -2.07741,0.72003 -2.72151,1.0938 -2.80494,1.6309 -0.16969,1.0921 0.61932,1.10092 2.80769,0.0317 1.11204,-0.5433 2.07176,-0.93686 2.13331,-0.87534 0.0615,0.0615 -0.90193,2.65726 -2.14156,5.76821 -2.35101,5.89991 -2.98175,8.82158 -2.21313,10.25771 0.872,1.62936 2.93141,0.57163 7.56841,-3.88671 1.63455,-1.57159 2.41388,-2.11102 2.70585,-1.87593 0.66225,0.53315 1.77781,-0.1068 3.01827,-1.73139 1.09006,-1.42761 1.17016,-1.47116 1.4713,-0.78728 0.48509,1.10177 1.49547,1.10331 2.48978,0.003 0.47999,-0.53131 1.17628,-0.96618 1.54835,-0.96618 0.65272,0 0.67716,-0.22639 0.67716,-6.42744 0,-6.92256 0.14044,-7.6941 1.9475,-10.70504 0.89949,-1.49878 2.87118,-3.33207 3.58394,-3.33207 0.57342,0 0.77058,1.84062 0.42667,3.97622 -0.2912,1.80813 -1.16895,4.58443 -3.43118,10.85089 -1.8362,5.08639 -0.72135,8.20395 2.76504,7.73635 1.11823,-0.14995 1.30337,-0.0831 1.30337,0.4693 0,0.78127 0.77225,0.83946 1.49882,0.11293 0.57144,-0.57142 0.73242,-2.17465 0.21885,-2.17465 -0.17125,0 -0.42497,-0.49368 -0.5643,-1.09831 -0.24535,-1.06462 -0.25949,-1.07371 -0.46382,-0.25728 -0.22835,0.91243 -1.42371,1.68265 -2.62602,1.6901 -0.50156,0.003 -0.93198,-0.34354 -1.29238,-1.04046 -0.69797,-1.34973 -0.45213,-2.8292 1.20567,-7.23949 2.71637,-7.22647 3.50941,-12.245 2.16909,-13.72609 v -6.4e-4 c -0.32417,-0.35819 -0.8463,-0.65108 -1.16162,-0.65108 z m 18.94787,22.0089 c -0.1988,-0.024 -0.37382,0.0929 -0.52989,0.34541 -0.3287,0.53189 0.38094,1.11317 1.04738,0.85746 0.46137,-0.17711 0.49061,-0.31388 0.15138,-0.72256 -0.24745,-0.29817 -0.47008,-0.45786 -0.66888,-0.48031 z m -15.75617,5.45017 c -0.32163,0.0397 -1.42521,0.61193 -3.80692,1.91314 -4.00272,2.18674 -5.76908,2.9671 -6.39853,2.82696 -0.72453,-0.1614 -1.7674,0.5882 -1.56213,1.12311 0.29419,0.76661 1.9683,0.60588 3.93767,-0.3799 2.13868,-1.07048 7.07431,-4.30219 7.673,-5.02359 0.26253,-0.31633 0.34989,-0.48353 0.1569,-0.45972 z" />
    <path
       id="path21-5"
       style="fill:#000000;stroke-width:0.338246"
       d="m 652.33345,185.4695 c -0.0779,-0.008 -0.15908,-0.008 -0.23949,0.008 -0.67668,0.13024 -1.88566,3.38365 -3.5289,9.49524 -0.99204,3.68959 -1.03949,4.10846 -0.65788,5.81359 0.64425,2.87884 1.51268,3.87677 4.90659,5.63874 l 3.00728,1.56083 0.63586,1.99149 c 1.21822,3.81336 2.28539,8.01173 2.10852,8.29783 -0.28759,0.46537 -2.14764,0.33129 -3.30042,-0.2381 -1.575,-0.77778 -3.21782,-3.03417 -3.84133,-5.27674 -0.75389,-2.71169 -1.45232,-2.64553 -1.45889,0.13743 -0.006,2.40916 -0.48698,2.13875 -0.84644,-0.47477 -0.2188,-1.59076 -0.8598,-2.55138 -1.45615,-2.18288 -0.17005,0.10494 -0.42909,2.05813 -0.57531,4.34089 l -0.26562,4.15105 -0.60421,-1.86084 c -0.33163,-1.02309 -0.61211,-2.66452 -0.62348,-3.64722 -0.0178,-1.53235 -0.12906,-1.82748 -0.78174,-2.07411 -0.93353,-0.35289 -1.2676,-0.18244 -1.2676,0.64549 0,0.34896 -0.17485,1.06321 -0.38812,1.58694 l -0.38813,0.95228 -0.39637,-1.1836 c -1.92548,-5.75166 -7.1031,-11.03431 -15.53045,-15.84427 -4.83294,-2.75838 -8.39115,-3.08158 -12.49151,-1.13272 -2.61701,1.24378 -4.78069,3.10565 -5.69661,4.90106 -0.91753,1.79844 -1.40756,7.04313 -0.77765,8.32545 0.23651,0.48143 0.67196,2.85424 0.96618,5.27269 0.29422,2.41846 0.77046,5.84233 1.05977,7.60968 0.38886,2.37504 0.46841,4.29534 0.30144,7.35777 -0.21892,4.01705 -0.2056,4.14276 0.46244,4.14276 0.37894,0 0.75008,-0.18164 0.82441,-0.40467 0.0935,-0.28047 0.4409,-0.19336 1.12721,0.28215 0.54578,0.37826 1.67739,0.95546 2.51456,1.28278 1.95482,0.76444 8.82253,2.22275 10.46693,2.22275 1.81347,0 6.31415,-1.21297 8.39283,-2.26136 4.18489,-2.11044 8.2764,-6.5703 9.14843,-9.97279 0.20652,-0.80569 0.4527,-3.29075 0.54778,-5.52317 0.0951,-2.23243 0.186,-4.13504 0.20094,-4.22808 0.0149,-0.093 0.44705,1.0483 0.96068,2.53658 1.59019,4.60773 2.59015,6.26955 3.45045,5.73784 0.27479,-0.16992 0.32435,-1.33325 0.17205,-4.00368 l -0.21472,-3.76419 0.6221,1.73416 c 0.34199,0.95393 0.89026,2.14503 1.21805,2.64526 0.48463,0.73962 0.68697,0.8335 1.08591,0.50239 0.36962,-0.30687 0.44227,-0.87605 0.29454,-2.30675 l -0.19544,-1.89794 1.02673,1.22765 c 1.33422,1.59522 3.43281,2.4476 5.32637,2.16355 1.42095,-0.21307 1.42871,-0.20881 1.78785,1.07224 0.41057,1.46434 1.0532,4.82527 1.86493,9.74299 0.30708,1.86035 0.62337,3.69889 0.70192,4.08627 0.12137,0.59888 -0.28775,0.8971 -2.73063,1.99706 -3.62814,1.63373 -5.41484,2.94649 -6.25402,4.5914 -0.82564,1.61841 -0.55379,1.83095 2.21589,1.72862 1.18431,-0.0431 2.68276,0.14595 3.53714,0.44734 0.81522,0.28761 1.94894,0.49994 2.52005,0.47213 0.57112,-0.0282 1.30576,0.0621 1.63233,0.19949 0.46931,0.19762 0.70729,-0.024 1.13821,-1.05562 0.42605,-1.01969 0.49728,-1.90403 0.32344,-4.04643 l -0.22294,-2.74168 2.1278,-0.41013 c 1.17023,-0.22559 3.42163,-0.69716 5.00293,-1.04875 1.5813,-0.35158 4.32152,-0.95657 6.08885,-1.34329 4.95777,-1.08483 5.24243,-1.17664 5.24243,-1.70523 0,-0.75879 -1.2506,-0.77317 -3.95968,-0.0442 -2.52611,0.67987 -10.32271,2.46967 -13.2141,3.0334 -0.88801,0.17311 -1.69311,0.18723 -1.78923,0.0319 -0.0961,-0.15554 -0.61937,-2.76009 -1.16299,-5.78887 -0.54364,-3.02871 -1.17765,-6.48455 -1.40935,-7.67844 -0.3897,-2.00807 -0.37468,-2.19797 0.20507,-2.53658 0.34471,-0.20135 1.63127,-1.16309 2.86001,-2.13742 1.22875,-0.97434 2.37484,-1.7727 2.5462,-1.77553 0.58097,-0.0106 1.54837,-1.12108 1.54837,-1.78084 0,-1.54514 -1.28018,-2.57773 -4.3313,-3.49323 -5.05284,-1.516 -6.51169,-2.18216 -6.89538,-3.1517 -0.77298,-1.95328 -1.95099,-7.37535 -2.9536,-13.59119 -0.58272,-3.61283 -1.13095,-6.77021 -1.21804,-7.01657 -0.0653,-0.18457 -0.26997,-0.31619 -0.50374,-0.34402 z m -0.49961,3.32794 c 0.0684,0 0.22565,0.72389 0.34959,1.60757 0.44558,3.17658 1.83861,10.45056 2.47739,12.93741 0.35839,1.39525 0.59606,2.59472 0.52851,2.66594 -0.21299,0.22451 -4.00018,-1.67871 -4.78136,-2.40304 -0.42425,-0.3933 -0.92466,-1.48377 -1.15749,-2.52424 -0.34759,-1.55313 -0.32106,-2.22962 0.17618,-4.43722 0.32259,-1.43219 0.72341,-2.90769 0.89049,-3.27976 0.16707,-0.37207 0.54839,-1.5522 0.84781,-2.62191 0.29941,-1.06968 0.60049,-1.94475 0.6689,-1.94475 z m -32.81157,7.60964 c 1.76492,-0.0461 3.58148,0.2939 5.09928,0.99924 5.23973,2.43518 10.77756,6.63843 13.71094,10.4064 0.62048,0.79704 1.22619,1.52557 1.34605,1.6186 0.37864,0.2939 2.00005,4.05876 2.41269,5.60161 0.42949,1.60574 0.43454,1.58976 -1.76307,5.38282 -1.0856,1.8737 -0.89016,2.65813 0.61523,2.47737 0.61343,-0.0732 0.96928,-0.4276 1.29511,-1.28544 0.4468,-1.17643 0.44949,-1.17099 0.35097,0.85051 -0.14065,2.8858 -1.24181,4.9552 -4.16201,7.81891 -2.86087,2.80555 -4.79014,3.97271 -8.07077,4.88182 -4.99148,1.38323 -11.95665,0.26918 -16.6893,-2.66865 -1.31846,-0.81848 -1.437,-1.00046 -1.24833,-1.9186 0.27164,-1.32198 0.25488,-1.89652 -0.13637,-4.73592 -0.17924,-1.30225 -0.48915,-3.79088 -0.68815,-5.53013 -0.19896,-1.73922 -0.4247,-3.26358 -0.50101,-3.38706 -0.0764,-0.12358 -0.23251,-1.21137 -0.34682,-2.41827 -0.11425,-1.20687 -0.29326,-2.61877 -0.39774,-3.13796 -0.10574,-0.52524 -0.005,-1.16452 0.22159,-1.43972 0.56769,-0.6839 0.2784,-6.19187 -0.34544,-6.57747 -0.37132,-0.22931 -0.37569,-0.46348 -0.0187,-1.32403 0.23837,-0.57531 0.60617,-1.05176 0.81615,-1.05834 0.62568,-0.0187 1.972,-1.29585 1.74794,-1.65844 -0.25569,-0.41351 1.8795,-1.79044 3.70642,-2.39073 0.94584,-0.31071 1.98686,-0.47861 3.04581,-0.50652 z m 38.80409,12.42139 c 0.1483,0 0.51436,0.16433 1.27723,0.49818 0.65112,0.28488 2.00206,0.73304 3.00314,0.99509 1.00108,0.26207 2.23697,0.81594 2.74576,1.23046 0.50878,0.41455 1.21165,0.94418 1.56215,1.17672 0.62097,0.41203 0.62053,0.43314 0.007,0.84514 -0.34642,0.23251 -1.75647,1.22266 -3.1339,2.19937 -1.37742,0.97667 -2.64836,1.77541 -2.82422,1.77541 -0.17583,0 -0.48999,-0.64756 -0.69916,-1.43821 -0.37706,-1.42524 -1.56435,-5.62643 -1.91172,-6.76464 -0.10486,-0.34368 -0.17445,-0.51525 -0.0261,-0.51752 z m 3.99134,28.20641 c 0.36416,-0.0405 0.49119,0.13076 0.73358,0.57115 0.42091,0.76481 0.51015,4.5093 0.117,4.90251 -0.12073,0.12065 -0.34961,0.0106 -0.50925,-0.24929 -0.22324,-0.36128 -1.12219,-0.45288 -3.89362,-0.395 -3.38165,0.0706 -3.58216,0.0375 -3.27152,-0.53536 0.49358,-0.91044 2.0999,-2.31877 3.38714,-2.96876 0.62576,-0.31598 1.72729,-0.78193 2.44847,-1.03636 0.46519,-0.16406 0.76971,-0.26474 0.9882,-0.289 z" />
    <path
       id="path21-7"
       style="fill:#000000;stroke-width:0.338246"
       d="m 672.43204,77.239527 c -0.45236,-0.06498 -0.62145,1.536965 -0.78451,5.298814 -0.12702,2.930058 -0.27271,5.860335 -0.32344,6.51144 -0.0507,0.651111 -0.12191,2.514925 -0.15828,4.142735 -0.0521,2.334033 -0.16937,2.96048 -0.55741,2.96048 -0.30667,0 -0.57012,-0.478474 -0.69781,-1.268981 -0.49896,-3.089783 -0.92827,-4.481331 -1.38183,-4.481331 -0.60681,0 -0.59582,1.03362 0.0344,3.381607 0.67658,2.520728 0.66239,2.59125 -0.58495,2.840778 -0.8584,0.171523 -1.20354,0.07325 -1.60755,-0.456972 -0.60276,-0.790938 -1.24042,-0.518851 -1.40935,0.601486 -0.0974,0.645921 -0.8945,1.141596 -4.44966,2.763629 -9.90521,4.519168 -14.08382,8.011968 -14.22569,11.894198 -0.0411,1.12381 -0.18363,1.34324 -1.06252,1.63373 -1.87519,0.61968 -8.41894,1.68276 -12.87,2.09063 -3.85643,0.3534 -4.76825,0.33353 -7.22022,-0.15821 -7.02096,-1.40821 -10.40698,-3.81181 -8.64741,-6.13844 0.27395,-0.36227 0.41705,-0.91531 0.31793,-1.22761 -0.50538,-1.59229 7.94274,-6.61047 15.22903,-9.046577 6.39383,-2.137794 15.74901,-4.010772 23.79802,-4.7649 1.92668,-0.180571 3.5871,-0.414656 3.6913,-0.518871 0.57122,-0.571206 -8.05735,0.110526 -14.63583,1.156104 -5.77223,0.917473 -13.13541,2.935204 -17.23159,4.722179 -8.69562,3.793515 -12.29317,6.692895 -12.62777,10.175225 -0.14834,1.54301 -0.0666,1.82714 0.78311,2.71406 1.96883,2.05496 7.16801,3.94253 11.78135,4.2776 2.8923,0.21015 10.5165,-0.62125 15.46163,-1.68595 3.50891,-0.75549 3.60613,-0.75796 4.90522,-0.15287 1.66186,0.7741 4.4043,0.60399 9.15669,-0.56706 3.11547,-0.76765 9.35651,-2.56806 10.68716,-3.08296 0.32556,-0.12597 0.59182,-0.0772 0.59182,0.10866 0,0.18591 0.23637,0.42987 0.52575,0.54091 0.37177,0.14275 0.63381,-0.10627 0.89186,-0.84645 0.2466,-0.70744 0.74992,-1.20788 1.54837,-1.54149 1.24684,-0.52097 1.62657,-0.36834 1.82501,0.73218 0.0668,0.36994 0.39769,0.72638 0.73495,0.79142 0.54403,0.10493 0.58746,-0.053 0.38675,-1.39147 -0.18257,-1.21739 -0.11194,-1.59764 0.36886,-1.97365 0.3277,-0.25622 1.3224,-1.17787 2.209,-2.04796 1.87324,-1.83835 2.32868,-3.12938 2.33149,-6.59677 0.002,-2.025156 0.0994,-2.452839 0.59321,-2.584674 0.50128,-0.133966 0.4766,-0.19629 -0.16793,-0.403283 -0.41858,-0.134501 -0.76111,-0.401397 -0.76111,-0.593212 0,-0.191763 1.6562,-2.001483 3.68166,-4.021603 4.63327,-4.620997 5.96821,-5.282676 11.15787,-5.528694 1.50753,-0.07138 1.84624,0.01868 1.97778,0.52162 0.11505,0.440145 0.39277,0.563885 1.01297,0.451408 0.66555,-0.120649 0.81087,-0.03967 0.65513,0.366158 -0.12433,0.323946 -0.0112,0.521595 0.29728,0.521595 0.38145,0 0.49207,0.451356 0.47759,1.944775 -0.025,2.572503 -0.93876,4.783086 -2.38654,5.773636 -1.25308,0.85739 -1.52225,1.647954 -0.50098,1.471292 1.80721,-0.31265 3.21417,-2.338399 3.91977,-5.644332 0.523,-2.450284 0.0851,-4.112134 -1.39972,-5.313973 -1.63387,-1.322379 -5.33358,-1.672341 -8.10104,-0.766615 -3.18002,1.040755 -4.35787,1.827243 -7.86019,5.2521 -1.87837,1.836754 -3.42341,3.309398 -3.43392,3.271474 -0.0104,-0.0378 -0.22029,-0.602716 -0.46658,-1.253827 -0.84868,-2.243631 -3.41729,-10.31726 -3.42293,-10.760071 -0.003,-0.244227 -0.39811,-1.270261 -0.87671,-2.281986 -0.53572,-1.132406 -0.90809,-1.772196 -1.17951,-1.811208 z m 0.34545,4.029918 c 0.1276,0 0.65751,1.332605 1.17676,2.960395 1.66316,5.213932 2.63336,8.023689 2.89028,8.37083 0.42066,0.568599 0.6679,2.012187 0.41427,2.420982 -0.13316,0.21467 -1.36609,0.439643 -2.77604,0.505109 -3.11187,0.144618 -2.94367,0.706584 -2.36315,-7.915217 0.23486,-3.488159 0.53028,-6.342099 0.65788,-6.342099 z m 2.87652,14.922035 c 0.42225,0.03033 0.42875,0.168857 0.21608,0.55331 -0.53456,0.966531 -3.33175,3.98749 -3.52201,3.80415 -0.0966,-0.093 -0.21986,-1.005798 -0.27389,-2.028708 -0.0959,-1.815742 -0.0742,-1.864851 0.90149,-2.074086 0.54962,-0.117982 1.49875,-0.231174 2.1099,-0.253282 0.24061,-0.008 0.42768,-0.01063 0.56843,-0.0019 z m 2.13468,0.129439 0.24498,1.271723 c 0.28804,1.492009 -0.0462,4.106508 -0.68264,5.337378 -0.62147,1.20176 -3.55046,3.84431 -3.86886,3.4904 -0.25245,-0.28058 -1.02949,-3.13588 -1.02949,-3.78355 0,-0.17578 0.64762,-0.99508 1.43826,-1.81947 0.79065,-0.824415 1.99064,-2.173377 2.66733,-2.997627 z m -6.7839,0.6359 c 0.0355,0.03542 0.0607,0.153943 0.0688,0.350922 0.0146,0.356569 -0.0651,0.556988 -0.17754,0.444595 -0.11236,-0.112394 -0.12522,-0.404057 -0.0276,-0.648233 0.054,-0.135035 0.10071,-0.182973 0.13626,-0.147284 z m -1.98053,0.287639 0.10736,3.089812 c 0.1012,2.90707 0.0589,3.13631 -0.71707,3.86473 -1.07916,1.0132 -1.23052,0.69165 -1.49055,-3.17239 l -0.20647,-3.07338 1.15336,-0.355075 z m -4.01612,1.275825 c 0.3993,0 0.58556,0.845193 0.81754,3.720197 0.0976,1.20924 0.22108,2.48584 0.27389,2.83663 0.0634,0.42132 -0.27363,0.84737 -0.99233,1.25524 -1.97485,1.12074 -8.00051,3.59922 -10.58118,4.35196 -1.39527,0.40688 -2.91793,0.87444 -3.38302,1.03911 -0.46508,0.1646 -1.39899,0.39463 -2.07548,0.51195 l -1.23045,0.21333 -0.13626,-1.43275 c -0.12616,-1.32296 -0.009,-1.57263 1.50846,-3.23298 2.16124,-2.36477 4.78263,-4.0691 10.64724,-6.91883 2.65311,-1.289224 4.97121,-2.343908 5.15159,-2.343908 z m 5.1681,1.615837 c 0.12989,-0.0448 0.26428,0.0943 0.36473,0.46931 0.34825,1.30069 0.25094,1.97367 -0.28628,1.97367 -0.32925,0 -0.50612,-0.32677 -0.50236,-0.93039 0.005,-0.85294 0.20743,-1.43797 0.42391,-1.51259 z m 0.76661,3.86473 c 0.32546,0.0504 0.60763,0.51272 0.9414,1.52218 0.58578,1.77169 0.41821,2.18627 -1.05564,2.62881 -0.76114,0.22852 -0.77501,0.18777 -0.67576,-1.90483 0.0782,-1.64816 0.22707,-2.16328 0.64824,-2.24342 0.0486,-0.0106 0.0953,-0.0106 0.14177,-0.003 z m -1.91859,1.24559 c 0.30544,-0.016 0.2889,0.87097 0.0634,3.08297 -0.0285,0.27906 -0.28913,-0.0653 -0.57942,-0.76529 -0.4221,-1.0177 -0.44401,-1.37312 -0.11011,-1.77544 0.28294,-0.34091 0.48739,-0.53499 0.62622,-0.54224 z m -2.38792,1.72999 c 0.1664,0 0.53627,0.59672 0.82304,1.32677 l 0.52162,1.32818 -1.06252,0.39913 c -2.03313,0.76359 -2.77106,1.00196 -5.67183,1.83329 -5.84171,1.67403 -10.26381,2.39604 -11.9231,1.94609 -0.84693,-0.22958 -0.44852,-0.41103 3.04443,-1.3818 4.30239,-1.19576 7.20332,-2.27604 11.3588,-4.22807 1.43318,-0.67324 2.74314,-1.22359 2.90956,-1.22359 z" />
    <path
       id="path21-79"
       style="fill:#000000;stroke-width:0.338246"
       d="m 751.04992,69.821936 c -1.70493,0.03941 -4.39843,1.529907 -8.46439,4.650582 -5.35506,4.110111 -13.68134,11.340389 -16.0617,13.947699 -1.93729,2.122004 -3.08297,4.322064 -3.08297,5.916825 0,1.391123 1.75113,3.263644 3.49723,3.739452 1.96353,0.535118 6.84738,0.156338 10.5399,-0.818906 4.99881,-1.320221 11.16881,-4.055934 12.34426,-5.472249 0.56119,-0.676226 0.96009,-0.366081 0.77487,0.602845 -0.0844,0.441349 0.0623,0.967464 0.33445,1.193236 0.83091,0.689595 2.27145,-1.058439 2.2847,-2.773263 0.0115,-1.484261 0.0638,-1.577213 2.55996,-4.53777 2.37625,-2.818302 10.89988,-11.298595 9.75676,-9.707221 -0.5345,0.744146 -1.19169,1.5774 -1.46027,1.852525 -0.74867,0.766963 -1.66311,3.03851 -2.26268,5.620918 -0.46085,1.984946 -0.48044,2.729646 -0.13352,4.963051 0.2245,1.445159 0.54909,2.715073 0.7212,2.821471 0.17213,0.106269 0.83778,-0.05622 1.47955,-0.360588 1.37428,-0.652174 1.62404,-1.703052 0.34684,-1.458876 -0.98156,0.1875 -1.19871,-0.379128 -1.20153,-3.122941 -0.002,-1.989364 0.95212,-5.606274 1.83464,-6.953207 0.29563,-0.451118 1.48986,-2.001561 2.65355,-3.444885 1.16369,-1.443382 2.37763,-3.042084 2.69898,-3.553684 0.32134,-0.5116 0.82938,-1.309519 1.12859,-1.772698 0.49656,-0.76894 0.49692,-0.860185 0.006,-1.048779 -0.35487,-0.136092 -1.43352,0.541545 -3.16555,1.988752 -2.68635,2.2447 -10.28119,9.884868 -13.6201,13.70134 -1.47566,1.686727 -2.0115,2.08916 -2.59162,1.944781 -0.59889,-0.149145 -0.85832,0.0775 -1.43414,1.253828 -1.28094,2.616821 -6.55466,5.43419 -13.49761,7.211898 -4.86157,1.244799 -7.99859,1.421191 -9.94807,0.558797 -1.83508,-0.811705 -2.37014,-1.633644 -2.06725,-3.177963 0.41791,-2.130787 1.54816,-3.683574 4.9699,-6.834799 6.12729,-5.642864 14.11603,-12.049716 15.02535,-12.049716 0.18665,0 0.4217,-0.21626 0.523,-0.480309 0.26773,-0.697716 4.49509,-2.625503 5.48328,-2.500829 0.83214,0.1052 0.82529,0.123579 -0.60146,1.78098 -0.79311,0.921388 -2.27279,2.475263 -3.28803,3.453224 -1.93003,1.859152 -2.26231,2.680743 -0.51887,1.282722 0.55645,-0.446191 1.84734,-1.470036 2.86825,-2.275063 3.40357,-2.683911 4.43318,-5.040419 2.59576,-5.938875 -0.2929,-0.143284 -0.6333,-0.211204 -1.02675,-0.202414 z m -6.50726,8.73145 c -0.0404,-0.0019 -0.0843,0.01063 -0.13074,0.03864 -0.43765,0.270541 -0.43765,0.846461 0,0.846461 0.18604,0 0.33721,-0.237035 0.33721,-0.527101 0,-0.217599 -0.0851,-0.352467 -0.20647,-0.357818 z m -4.20191,2.247495 c -0.18042,-0.008 -0.32618,0.09215 -0.32618,0.30831 0,0.399046 0.65918,0.825874 0.90149,0.583539 0.0993,-0.09935 0.0799,-0.342479 -0.0426,-0.54085 -0.13778,-0.222918 -0.35221,-0.342054 -0.53264,-0.350999 z" />
    <path
       d="m 793.40113,131.80163 c -0.55579,0 -2.22076,3.91648 -3.0334,7.13487 -0.70736,2.8011 -3.04048,10.06084 -3.8262,11.90659 -0.22132,0.51986 -1.05101,1.32721 -1.84426,1.79334 -1.40332,0.82468 -2.17801,0.83392 -2.07826,0.0267 0.12304,-0.99739 -0.0706,-1.58144 -0.52575,-1.58144 -0.64453,0 -1.19603,1.05442 -1.19603,2.28611 0,0.865 -0.30019,1.14618 -2.62191,2.46089 -5.44991,3.08613 -6.29014,4.38541 -2.83796,4.38635 1.1393,2.6e-4 2.38455,0.2389 3.09122,0.59177 l 1.185,0.59187 0.0439,2.70581 c 0.0639,3.83994 0.0719,3.88947 0.61247,3.88947 0.62969,0 1.46977,-1.2033 1.88831,-2.7058 0.56567,-2.03075 0.73665,-2.1509 2.19524,-1.5415 0.70808,0.29591 1.52938,0.45494 1.82501,0.35375 1.03133,-0.35332 3.37282,-6.53328 4.56663,-12.05254 0.13051,-0.60384 0.63758,-1.12564 1.55939,-1.60616 0.7512,-0.39151 1.41235,-0.71293 1.46852,-0.71293 0.18697,0 -0.96272,7.57854 -1.63231,10.76149 -0.6786,3.22553 -0.68523,5.13648 -0.0187,5.13648 0.55259,0 1.86629,-2.32185 1.86629,-3.29768 0,-0.34016 0.27161,-1.14921 0.60285,-1.79883 0.33119,-0.64972 0.88922,-1.93831 1.24006,-2.86275 0.66222,-1.74508 2.21295,-4.33429 2.45261,-4.09461 0.0755,0.0754 -0.26458,1.63873 -0.7556,3.47383 -1.46458,5.47359 -1.46671,5.48925 -1.03775,5.84526 0.21786,0.18084 0.56117,0.22239 0.76249,0.0935 0.48539,-0.31075 1.80986,-2.94337 1.80986,-3.59768 0,-0.8695 2.09864,-4.57652 3.4298,-6.05861 l 1.25796,-1.40111 -0.94966,2.70591 c -0.5225,1.48828 -1.27343,3.51006 -1.66811,4.49366 -0.84398,2.10317 -0.91458,3.54748 -0.2092,4.25286 1.17369,1.17371 3.75989,-0.67782 5.28646,-3.78488 0.59239,-1.20571 0.68906,-1.87756 0.5519,-3.79456 -0.13333,-1.86352 -0.0569,-2.42895 0.37987,-2.82422 0.57891,-0.52385 3.58363,-1.89521 4.15237,-1.89521 0.49161,0 0.0106,1.93644 -0.92489,3.7216 -3.14939,6.01028 -3.32479,11.03632 -0.28215,8.08732 l 1.10244,-1.06808 -0.0977,0.87949 c -0.12636,1.15105 0.66566,2.24893 1.62268,2.24893 1.58134,0 5.17338,-3.6351 4.37809,-4.4304 -0.24705,-0.24716 -0.5811,-0.0655 -1.10381,0.60005 -0.59284,0.75451 -2.72088,2.13884 -3.28804,2.13884 -0.34813,0 6.4e-4,-2.06999 0.7033,-4.16887 1.08258,-3.23491 1.1832,-4.07474 0.50374,-4.21017 -0.35069,-0.0698 -0.70587,0.28785 -0.99922,1.00605 -0.25046,0.61321 -0.95756,1.81758 -1.57038,2.67693 -0.61282,0.85944 -1.11345,1.81074 -1.11345,2.11404 0,0.30336 -0.15253,0.5519 -0.33858,0.5519 -0.18603,0 -0.33857,-0.14702 -0.33857,-0.32613 0,-0.41892 1.1642,-3.37132 2.19661,-5.57138 1.64872,-3.51347 1.56356,-5.26481 -0.25736,-5.26443 -1.13113,2.6e-4 -5.06459,1.67903 -5.46952,2.33424 -0.50942,0.82425 -0.75798,0.28045 -0.6042,-1.31993 0.1346,-1.40092 0.0676,-1.69011 -0.38675,-1.69011 -0.59154,0 -2.87686,2.14991 -4.31753,4.06156 l -0.89048,1.1809 0.1748,-2.45263 c 0.11522,-1.61796 0.0531,-2.45265 -0.18444,-2.45265 -0.66023,0 -2.86216,2.86318 -4.16888,5.42138 -1.11051,2.17399 -1.2926,2.38588 -1.302,1.51119 -0.005,-0.55931 0.12677,-1.49582 0.29453,-2.08098 0.52447,-1.82871 0.83454,-6.88029 0.42252,-6.88029 -0.20162,0 -1.08313,0.45423 -1.95988,1.01023 -0.87672,0.55601 -1.64886,0.95796 -1.71491,0.89185 -0.0661,-0.0663 0.18245,-1.54916 0.55193,-3.29488 0.88836,-4.19814 2.15353,-13.42744 1.9227,-14.02891 -0.10041,-0.2618 -0.34973,-0.47621 -0.55326,-0.47621 z m -1.36255,5.581 -0.18297,1.52223 c -0.10067,0.83717 -0.38666,2.58723 -0.63587,3.88948 -0.24929,1.30224 -0.64488,3.48145 -0.87947,4.84192 -0.37859,2.1959 -0.53757,2.53021 -1.41485,2.98388 -0.54354,0.28101 -1.05098,0.4479 -1.1286,0.37015 -0.0778,-0.0775 0.59732,-2.41011 1.50019,-5.18317 0.90287,-2.77313 1.8884,-5.80283 2.19111,-6.733 z m -3.01965,14.57937 c 0.20348,-0.0187 0.33443,0.0466 0.33443,0.22584 0,1.82935 -3.14788,10.73254 -3.79452,10.73254 -0.75538,0 -1.9777,-1.14623 -1.76719,-1.65706 0.12278,-0.29809 0.72877,-1.93626 1.34603,-3.64038 0.61726,-1.70411 1.34619,-3.53051 1.61993,-4.05878 0.3836,-0.74028 1.65125,-1.5468 2.26132,-1.60211 z m -3.85922,1.82503 c 0.22718,0 -0.0437,0.86958 -1.26347,4.05191 -0.53318,1.39102 -0.97031,2.72229 -0.97031,2.95907 0,0.23677 -0.32195,0.43077 -0.71569,0.43077 -0.57619,0 -0.67698,-0.14862 -0.51611,-0.76106 0.11,-0.41857 0.38299,-1.84919 0.60695,-3.17935 0.37918,-2.25202 0.48585,-2.45502 1.54285,-2.95909 0.62432,-0.29773 1.21654,-0.54225 1.31578,-0.54225 z m 19.78329,0.008 c 0.37815,-0.0106 0.98508,1.72162 0.98131,2.80223 -0.006,1.75586 -1.45266,4.46723 -2.72237,5.10068 -0.60764,0.30309 -1.149,0.50806 -1.20153,0.45549 -0.17754,-0.17738 0.49993,-2.42852 1.62407,-5.39789 0.61509,-1.62478 1.20885,-2.95768 1.31852,-2.96051 z m 18.06013,1.72458 c -0.20564,0 -0.61119,0.21467 -1.82776,0.82574 -1.8749,0.94171 -2.27987,1.84152 -0.82855,1.84152 1.691,0 3.71732,-1.70672 2.94396,-2.48011 -0.11247,-0.11239 -0.16427,-0.18776 -0.28765,-0.18723 z m -42.47888,0.67988 c 0.3207,0 0.3591,0.29962 0.24237,0.88908 -0.10147,0.5116 -0.28056,1.48835 -0.39777,2.17046 l -0.21334,1.24012 -1.40521,-0.46932 c -0.77282,-0.25807 -1.83593,-0.55602 -2.36316,-0.66192 l -0.95929,-0.19256 0.79,-0.6001 c 0.43421,-0.3296 1.50112,-1.00832 2.37143,-1.50844 1.01084,-0.58094 1.61439,-0.87013 1.9351,-0.86711 z m 1.04875,6.38479 c 0.42379,0 0.42379,0.35854 0,1.01431 -0.26501,0.41026 -0.32929,0.36222 -0.33305,-0.25328 -0.003,-0.41858 0.14701,-0.76105 0.33305,-0.76105 z"
       style="fill:#000080;stroke-width:0.338246"
       id="path126" />
    <path
       d="m 907.68164,127.86274 c -1.00856,0 -3.36563,1.99221 -4.55287,3.84825 -1.82488,2.85277 -2.32388,5.34663 -2.10303,10.51925 0.16973,3.97598 0.12398,4.50304 -0.49272,5.60028 -0.37441,0.66613 -0.97424,1.39357 -1.33229,1.61716 -0.59602,0.37221 -0.651,0.30759 -0.651,-0.77903 0,-1.74971 -0.72783,-1.5082 -2.53657,0.84239 -0.85889,1.11621 -1.63212,2.02871 -1.71902,2.02871 -0.30389,0 0.84329,-1.86938 1.86767,-3.0431 0.96872,-1.10995 1.37493,-2.36864 0.76385,-2.36864 -0.32066,0 -1.81836,1.59012 -3.50687,3.72154 -2.77546,3.50362 -8.42305,8.45614 -9.64252,8.45614 -0.0598,0 -0.10561,-0.64759 -0.10185,-1.43823 0.007,-1.4768 0.91704,-4.30968 3.28529,-10.23158 0.74397,-1.86035 1.43524,-3.62493 1.53597,-3.9212 0.38984,-1.14642 6.5583,-2.16749 10.02654,-1.65978 1.64158,0.24024 1.747,-0.54294 0.13348,-0.991 -1.74749,-0.48524 -4.89737,-0.44273 -7.49684,0.10174 l -2.14705,0.45011 0.22159,-2.07276 c 0.72714,-6.79013 -3.7774,-9.55514 -13.55818,-8.32401 -7.72841,0.97282 -15.39694,4.6239 -20.79351,9.89989 -2.66101,2.60159 -3.87659,4.50626 -5.18736,8.12719 -3.14559,8.68988 -2.79945,16.7435 0.89185,20.74811 2.15401,2.3368 5.17386,2.68447 12.69522,1.46306 5.3,-0.86077 7.83236,-1.4446 10.18756,-2.34806 4.46821,-1.71392 6.89959,-3.48428 6.72885,-4.89969 -0.0667,-0.55291 -0.37558,-0.69473 -1.68876,-0.77903 -1.89657,-0.12171 -2.20957,0.51315 -0.33857,0.68677 l 1.26897,0.11853 -0.93727,0.40328 c -0.51513,0.22239 -1.7327,0.99204 -2.70586,1.70941 -2.38609,1.75875 -2.79783,1.95592 -5.69248,2.72232 -4.6482,1.23079 -11.42293,2.15356 -14.0041,1.90763 -2.68759,-0.25595 -4.56326,-1.00289 -4.57078,-1.81813 -0.003,-0.30435 -0.22548,-0.93327 -0.49546,-1.39837 -1.02077,-1.75846 -1.95915,-3.92674 -2.12368,-4.90521 -0.57055,-3.39273 0.5235,-11.51901 1.75344,-13.02279 0.22825,-0.27907 0.42935,-0.81904 0.4473,-1.20013 0.0181,-0.3811 0.59188,-1.63014 1.27448,-2.77609 3.91864,-6.57824 15.73877,-13.16671 24.7009,-13.76737 4.91313,-0.3293 7.6572,0.2096 9.41543,1.8498 1.2665,1.18139 1.3655,1.40955 1.48369,3.42155 0.0696,1.18562 -0.003,2.75479 -0.16103,3.48625 -0.28066,1.29873 -0.35009,1.35165 -2.9825,2.26407 -2.07741,0.72003 -2.72152,1.0938 -2.80494,1.6309 -0.16969,1.0921 0.61931,1.10092 2.80769,0.0317 1.11204,-0.5433 2.07176,-0.93686 2.13331,-0.87534 0.0615,0.0615 -0.90193,2.65726 -2.14156,5.76821 -2.35101,5.89991 -2.98175,8.82158 -2.21314,10.25771 0.87201,1.62936 2.93142,0.57163 7.56841,-3.88671 1.63456,-1.57159 2.41389,-2.11102 2.70586,-1.87593 0.66225,0.53315 1.77781,-0.1068 3.01827,-1.73139 1.09005,-1.42761 1.17016,-1.47116 1.4713,-0.78728 0.48509,1.10177 1.49547,1.10331 2.48978,0.003 0.47999,-0.53131 1.17628,-0.96618 1.54835,-0.96618 0.65272,0 0.67716,-0.22639 0.67716,-6.42744 0,-6.92256 0.14044,-7.6941 1.9475,-10.70504 0.89949,-1.49878 2.87118,-3.33207 3.58394,-3.33207 0.57342,0 0.77058,1.84062 0.42667,3.97622 -0.2912,1.80813 -1.16895,4.58443 -3.43118,10.85089 -1.8362,5.08639 -0.72135,8.20395 2.76504,7.73635 1.11823,-0.14995 1.30337,-0.0831 1.30337,0.4693 0,0.78127 0.77224,0.83946 1.49882,0.11293 0.57144,-0.57142 0.73242,-2.17465 0.21885,-2.17465 -0.17125,0 -0.42497,-0.49368 -0.5643,-1.09831 -0.24535,-1.06462 -0.25949,-1.07371 -0.46382,-0.25728 -0.22835,0.91243 -1.42371,1.68265 -2.62602,1.6901 -0.50156,0.003 -0.93198,-0.34354 -1.29238,-1.04046 -0.69797,-1.34973 -0.45213,-2.8292 1.20567,-7.23949 2.71637,-7.22647 3.50941,-12.245 2.16909,-13.72609 v -6.4e-4 c -0.32417,-0.35819 -0.8463,-0.65108 -1.16163,-0.65108 z m 18.94789,22.0089 c -0.1988,-0.024 -0.37383,0.0929 -0.52993,0.34541 -0.32869,0.53189 0.38098,1.11317 1.04743,0.85746 0.46134,-0.17711 0.49058,-0.31388 0.15133,-0.72256 -0.24741,-0.29817 -0.47004,-0.45786 -0.66883,-0.48031 z m -15.75618,5.45017 c -0.32163,0.0397 -1.42521,0.61193 -3.80692,1.91314 -4.00272,2.18674 -5.76908,2.9671 -6.39853,2.82696 -0.72453,-0.1614 -1.7674,0.5882 -1.56213,1.12311 0.29419,0.76661 1.9683,0.60588 3.93766,-0.3799 2.13869,-1.07048 7.07432,-4.30219 7.67301,-5.02359 0.26253,-0.31633 0.34988,-0.48353 0.1569,-0.45972 z"
       style="fill:#000080;stroke-width:0.338246"
       id="path128" />
    <path
       d="m 827.20242,185.4695 c -0.0779,-0.008 -0.15909,-0.008 -0.23949,0.008 -0.67669,0.13024 -1.88566,3.38365 -3.5289,9.49524 -0.99204,3.68959 -1.03949,4.10846 -0.65789,5.81359 0.64426,2.87884 1.51269,3.87677 4.9066,5.63874 l 3.00727,1.56083 0.63587,1.99149 c 1.21822,3.81336 2.28539,8.01173 2.10852,8.29783 -0.28759,0.46537 -2.14764,0.33129 -3.30042,-0.2381 -1.575,-0.77778 -3.21782,-3.03417 -3.84133,-5.27674 -0.75389,-2.71169 -1.45232,-2.64553 -1.45889,0.13743 -0.006,2.40916 -0.48698,2.13875 -0.84645,-0.47477 -0.21879,-1.59076 -0.85979,-2.55138 -1.45614,-2.18288 -0.17006,0.10494 -0.42909,2.05813 -0.57531,4.34089 l -0.26562,4.15105 -0.60421,-1.86084 c -0.33164,-1.02309 -0.61211,-2.66452 -0.62348,-3.64722 -0.0178,-1.53235 -0.12906,-1.82748 -0.78174,-2.07411 -0.93353,-0.35289 -1.2676,-0.18244 -1.2676,0.64549 0,0.34896 -0.17485,1.06321 -0.38812,1.58694 l -0.38813,0.95228 -0.39637,-1.1836 c -1.92549,-5.75166 -7.1031,-11.03431 -15.53046,-15.84427 -4.83293,-2.75838 -8.39114,-3.08158 -12.4915,-1.13272 -2.61701,1.24378 -4.78069,3.10565 -5.69661,4.90106 -0.91753,1.79844 -1.40756,7.04313 -0.77765,8.32545 0.23651,0.48143 0.67196,2.85424 0.96618,5.27269 0.29422,2.41846 0.77045,5.84233 1.05977,7.60968 0.38886,2.37504 0.46841,4.29534 0.30144,7.35777 -0.21892,4.01705 -0.20561,4.14276 0.46244,4.14276 0.37894,0 0.75008,-0.18164 0.82441,-0.40467 0.0935,-0.28047 0.44089,-0.19336 1.12721,0.28215 0.54578,0.37826 1.67739,0.95546 2.51455,1.28278 1.95482,0.76444 8.82254,2.22275 10.46694,2.22275 1.81347,0 6.31415,-1.21297 8.39283,-2.26136 4.18488,-2.11044 8.2764,-6.5703 9.14843,-9.97279 0.20652,-0.80569 0.4527,-3.29075 0.54777,-5.52317 0.0951,-2.23243 0.18601,-4.13504 0.20095,-4.22808 0.0149,-0.093 0.44705,1.0483 0.96068,2.53658 1.59019,4.60773 2.59015,6.26955 3.45045,5.73784 0.27479,-0.16992 0.32435,-1.33325 0.17205,-4.00368 l -0.21472,-3.76419 0.6221,1.73416 c 0.34199,0.95393 0.89026,2.14503 1.21805,2.64526 0.48462,0.73962 0.68697,0.8335 1.08591,0.50239 0.36962,-0.30687 0.44226,-0.87605 0.29454,-2.30675 l -0.19544,-1.89794 1.02673,1.22765 c 1.33422,1.59522 3.43281,2.4476 5.32637,2.16355 1.42095,-0.21307 1.42871,-0.20881 1.78785,1.07224 0.41057,1.46434 1.0532,4.82527 1.86492,9.74299 0.30708,1.86035 0.62338,3.69889 0.70192,4.08627 0.12138,0.59888 -0.28774,0.8971 -2.73062,1.99706 -3.62814,1.63373 -5.41485,2.94649 -6.25402,4.5914 -0.82564,1.61841 -0.55379,1.83095 2.21589,1.72862 1.18431,-0.0431 2.68276,0.14595 3.53714,0.44734 0.81522,0.28761 1.94894,0.49994 2.52005,0.47213 0.57112,-0.0282 1.30576,0.0621 1.63233,0.19949 0.46931,0.19762 0.70729,-0.024 1.13821,-1.05562 0.42604,-1.01969 0.49727,-1.90403 0.32344,-4.04643 l -0.22295,-2.74168 2.1278,-0.41013 c 1.17024,-0.22559 3.42164,-0.69716 5.00294,-1.04875 1.5813,-0.35158 4.32152,-0.95657 6.08885,-1.34329 4.95777,-1.08483 5.24243,-1.17664 5.24243,-1.70523 0,-0.75879 -1.2506,-0.77317 -3.95968,-0.0442 -2.52612,0.67987 -10.32271,2.46967 -13.2141,3.0334 -0.88801,0.17311 -1.69311,0.18723 -1.78923,0.0319 -0.0961,-0.15554 -0.61937,-2.76009 -1.16299,-5.78887 -0.54364,-3.02871 -1.17766,-6.48455 -1.40935,-7.67844 -0.3897,-2.00807 -0.37468,-2.19797 0.20507,-2.53658 0.3447,-0.20135 1.63127,-1.16309 2.86001,-2.13742 1.22875,-0.97434 2.37483,-1.7727 2.5462,-1.77553 0.58097,-0.0106 1.54837,-1.12108 1.54837,-1.78084 0,-1.54514 -1.28018,-2.57773 -4.3313,-3.49323 -5.05284,-1.516 -6.51169,-2.18216 -6.89538,-3.1517 -0.77298,-1.95328 -1.95099,-7.37535 -2.9536,-13.59119 -0.58272,-3.61283 -1.13095,-6.77021 -1.21804,-7.01657 -0.0653,-0.18457 -0.26997,-0.31619 -0.50374,-0.34402 z m -0.49961,3.32794 c 0.0684,0 0.22565,0.72389 0.34958,1.60757 0.44558,3.17658 1.83862,10.45056 2.4774,12.93741 0.35838,1.39525 0.59606,2.59472 0.5285,2.66594 -0.21298,0.22451 -4.00017,-1.67871 -4.78135,-2.40304 -0.42425,-0.3933 -0.92467,-1.48377 -1.15749,-2.52424 -0.34759,-1.55313 -0.32107,-2.22962 0.17618,-4.43722 0.32259,-1.43219 0.7234,-2.90769 0.89048,-3.27976 0.16708,-0.37207 0.54839,-1.5522 0.84782,-2.62191 0.29941,-1.06968 0.60049,-1.94475 0.6689,-1.94475 z m -32.81157,7.60964 c 1.76492,-0.0461 3.58148,0.2939 5.09928,0.99924 5.23973,2.43518 10.77756,6.63843 13.71094,10.4064 0.62047,0.79704 1.22619,1.52557 1.34605,1.6186 0.37864,0.2939 2.00005,4.05876 2.41269,5.60161 0.42949,1.60574 0.43454,1.58976 -1.76307,5.38282 -1.0856,1.8737 -0.89017,2.65813 0.61522,2.47737 0.61344,-0.0732 0.96929,-0.4276 1.29512,-1.28544 0.4468,-1.17643 0.44949,-1.17099 0.35097,0.85051 -0.14065,2.8858 -1.24181,4.9552 -4.16202,7.81891 -2.86086,2.80555 -4.79013,3.97271 -8.07076,4.88182 -4.99148,1.38323 -11.95665,0.26918 -16.6893,-2.66865 -1.31846,-0.81848 -1.437,-1.00046 -1.24833,-1.9186 0.27163,-1.32198 0.25488,-1.89652 -0.13637,-4.73592 -0.17924,-1.30225 -0.48915,-3.79088 -0.68815,-5.53013 -0.19896,-1.73922 -0.4247,-3.26358 -0.50101,-3.38706 -0.0764,-0.12358 -0.23251,-1.21137 -0.34682,-2.41827 -0.11425,-1.20687 -0.29326,-2.61877 -0.39774,-3.13796 -0.10574,-0.52524 -0.005,-1.16452 0.22159,-1.43972 0.56769,-0.6839 0.2784,-6.19187 -0.34544,-6.57747 -0.37132,-0.22931 -0.37569,-0.46348 -0.0187,-1.32403 0.23837,-0.57531 0.60617,-1.05176 0.81615,-1.05834 0.62568,-0.0187 1.972,-1.29585 1.74793,-1.65844 -0.25568,-0.41351 1.87951,-1.79044 3.70643,-2.39073 0.94584,-0.31071 1.98686,-0.47861 3.04581,-0.50652 z m 38.80409,12.42139 c 0.1483,0 0.51436,0.16433 1.27723,0.49818 0.65112,0.28488 2.00206,0.73304 3.00314,0.99509 1.00108,0.26207 2.23697,0.81594 2.74576,1.23046 0.50878,0.41455 1.21165,0.94418 1.56214,1.17672 0.62098,0.41203 0.62054,0.43314 0.007,0.84514 -0.34642,0.23251 -1.75647,1.22266 -3.1339,2.19937 -1.37742,0.97667 -2.64836,1.77541 -2.82422,1.77541 -0.17584,0 -0.48999,-0.64756 -0.69916,-1.43821 -0.37706,-1.42524 -1.56436,-5.62643 -1.91172,-6.76464 -0.10486,-0.34368 -0.17446,-0.51525 -0.0261,-0.51752 z m 3.99134,28.20641 c 0.36416,-0.0405 0.49119,0.13076 0.73358,0.57115 0.4209,0.76481 0.51015,4.5093 0.117,4.90251 -0.12073,0.12065 -0.34961,0.0106 -0.50925,-0.24929 -0.22324,-0.36128 -1.12219,-0.45288 -3.89362,-0.395 -3.38165,0.0706 -3.58216,0.0375 -3.27152,-0.53536 0.49358,-0.91044 2.0999,-2.31877 3.38714,-2.96876 0.62576,-0.31598 1.72728,-0.78193 2.44847,-1.03636 0.46519,-0.16406 0.76971,-0.26474 0.9882,-0.289 z"
       style="fill:#000080;stroke-width:0.338246"
       id="path130" />
    <path
       d="m 847.30101,77.239527 c -0.45236,-0.06498 -0.62145,1.536965 -0.78452,5.298814 -0.12701,2.930058 -0.2727,5.860335 -0.32343,6.51144 -0.0507,0.651111 -0.12191,2.514925 -0.15828,4.142735 -0.0521,2.334033 -0.16937,2.96048 -0.55741,2.96048 -0.30668,0 -0.57013,-0.478474 -0.69781,-1.268981 -0.49896,-3.089783 -0.92828,-4.481331 -1.38183,-4.481331 -0.60682,0 -0.59582,1.03362 0.0344,3.381607 0.67659,2.520728 0.6624,2.59125 -0.58494,2.840778 -0.8584,0.171523 -1.20354,0.07325 -1.60755,-0.456972 -0.60276,-0.790938 -1.24042,-0.518851 -1.40935,0.601486 -0.0974,0.645921 -0.8945,1.141596 -4.44966,2.763629 -9.90521,4.519168 -14.08382,8.011968 -14.22569,11.894198 -0.0411,1.12381 -0.18363,1.34324 -1.06252,1.63373 -1.87519,0.61968 -8.41894,1.68276 -12.87001,2.09063 -3.85642,0.3534 -4.76824,0.33353 -7.22021,-0.15821 -7.02096,-1.40821 -10.40698,-3.81181 -8.64741,-6.13844 0.27395,-0.36227 0.41705,-0.91531 0.31793,-1.22761 -0.50538,-1.59229 7.94274,-6.61047 15.22903,-9.046577 6.39383,-2.137794 15.74901,-4.010772 23.79802,-4.7649 1.92667,-0.180571 3.5871,-0.414656 3.6913,-0.518871 0.57122,-0.571206 -8.05735,0.110526 -14.63584,1.156104 -5.77222,0.917473 -13.1354,2.935204 -17.23158,4.722179 -8.69562,3.793515 -12.29317,6.692895 -12.62777,10.175225 -0.14834,1.54301 -0.0666,1.82714 0.78311,2.71406 1.96883,2.05496 7.16801,3.94253 11.78135,4.2776 2.8923,0.21015 10.5165,-0.62125 15.46163,-1.68595 3.50891,-0.75549 3.60613,-0.75796 4.90522,-0.15287 1.66186,0.7741 4.4043,0.60399 9.15669,-0.56706 3.11547,-0.76765 9.35651,-2.56806 10.68716,-3.08296 0.32556,-0.12597 0.59182,-0.0772 0.59182,0.10866 0,0.18591 0.23637,0.42987 0.52575,0.54091 0.37177,0.14275 0.6338,-0.10627 0.89186,-0.84645 0.2466,-0.70744 0.74992,-1.20788 1.54837,-1.54149 1.24684,-0.52097 1.62657,-0.36834 1.82501,0.73218 0.0667,0.36994 0.39769,0.72638 0.73495,0.79142 0.54403,0.10493 0.58746,-0.053 0.38675,-1.39147 -0.18257,-1.21739 -0.11194,-1.59764 0.36886,-1.97365 0.3277,-0.25622 1.3224,-1.17787 2.209,-2.04796 1.87324,-1.83835 2.32867,-3.12938 2.33149,-6.59677 0.002,-2.025156 0.0994,-2.452839 0.5932,-2.584674 0.50129,-0.133966 0.47661,-0.19629 -0.16793,-0.403283 -0.41857,-0.134501 -0.7611,-0.401397 -0.7611,-0.593212 0,-0.191763 1.6562,-2.001483 3.68166,-4.021603 4.63327,-4.620997 5.9682,-5.282676 11.15786,-5.528694 1.50754,-0.07138 1.84625,0.01868 1.97779,0.52162 0.11505,0.440145 0.39277,0.563885 1.01297,0.451408 0.66555,-0.120649 0.81087,-0.03967 0.65513,0.366158 -0.12433,0.323946 -0.0112,0.521595 0.29728,0.521595 0.38145,0 0.49206,0.451356 0.47759,1.944775 -0.025,2.572503 -0.93876,4.783086 -2.38655,5.773636 -1.25308,0.85739 -1.52224,1.647954 -0.50098,1.471292 1.80722,-0.31265 3.21418,-2.338399 3.91978,-5.644332 0.52299,-2.450284 0.0851,-4.112134 -1.39972,-5.313973 -1.63387,-1.322379 -5.33358,-1.672341 -8.10104,-0.766615 -3.18002,1.040755 -4.35787,1.827243 -7.86019,5.2521 -1.87837,1.836754 -3.42341,3.309398 -3.43392,3.271474 -0.0104,-0.0378 -0.22029,-0.602716 -0.46658,-1.253827 -0.84868,-2.243631 -3.41729,-10.31726 -3.42293,-10.760071 -0.003,-0.244227 -0.39811,-1.270261 -0.87671,-2.281986 -0.53572,-1.132406 -0.90809,-1.772196 -1.17951,-1.811208 z m 0.34545,4.029918 c 0.1276,0 0.65751,1.332605 1.17676,2.960395 1.66316,5.213932 2.63336,8.023689 2.89028,8.37083 0.42066,0.568599 0.6679,2.012187 0.41427,2.420982 -0.13317,0.21467 -1.36609,0.439643 -2.77604,0.505109 -3.11187,0.144618 -2.94367,0.706584 -2.36315,-7.915217 0.23486,-3.488159 0.53028,-6.342099 0.65788,-6.342099 z m 2.87652,14.922035 c 0.42225,0.03033 0.42874,0.168857 0.21608,0.55331 -0.53456,0.966531 -3.33175,3.98749 -3.52201,3.80415 -0.0966,-0.093 -0.21986,-1.005798 -0.2739,-2.028708 -0.0959,-1.815742 -0.0742,-1.864851 0.9015,-2.074086 0.54962,-0.117982 1.49875,-0.231174 2.1099,-0.253282 0.24061,-0.008 0.42767,-0.01063 0.56843,-0.0019 z m 2.13468,0.129439 0.24498,1.271723 c 0.28804,1.492009 -0.0462,4.106508 -0.68264,5.337378 -0.62147,1.20176 -3.55046,3.84431 -3.86886,3.4904 -0.25245,-0.28058 -1.0295,-3.13588 -1.0295,-3.78355 0,-0.17578 0.64763,-0.99508 1.43827,-1.81947 0.79065,-0.824415 1.99064,-2.173377 2.66733,-2.997627 z m -6.7839,0.6359 c 0.0355,0.03542 0.0607,0.153943 0.0688,0.350922 0.0146,0.356569 -0.0651,0.556988 -0.17754,0.444595 -0.11237,-0.112394 -0.12523,-0.404057 -0.0276,-0.648233 0.054,-0.135035 0.1007,-0.182973 0.13626,-0.147284 z m -1.98053,0.287639 0.10735,3.089812 c 0.10121,2.90707 0.0589,3.13631 -0.71706,3.86473 -1.07916,1.0132 -1.23053,0.69165 -1.49056,-3.17239 l -0.20646,-3.07338 1.15336,-0.355075 z m -4.01612,1.275825 c 0.3993,0 0.58556,0.845193 0.81754,3.720197 0.0976,1.20924 0.22108,2.48584 0.27389,2.83663 0.0634,0.42132 -0.27363,0.84737 -0.99233,1.25524 -1.97485,1.12074 -8.00051,3.59922 -10.58119,4.35196 -1.39526,0.40688 -2.91792,0.87444 -3.38301,1.03911 -0.46508,0.1646 -1.39899,0.39463 -2.07549,0.51195 l -1.23044,0.21333 -0.13626,-1.43275 c -0.12616,-1.32296 -0.009,-1.57263 1.50846,-3.23298 2.16124,-2.36477 4.78262,-4.0691 10.64724,-6.91883 2.65311,-1.289224 4.97121,-2.343908 5.15159,-2.343908 z m 5.1681,1.615837 c 0.12989,-0.0448 0.26428,0.0943 0.36473,0.46931 0.34825,1.30069 0.25094,1.97367 -0.28628,1.97367 -0.32925,0 -0.50612,-0.32677 -0.50236,-0.93039 0.005,-0.85294 0.20742,-1.43797 0.42391,-1.51259 z m 0.76661,3.86473 c 0.32546,0.0504 0.60763,0.51272 0.9414,1.52218 0.58578,1.77169 0.4182,2.18627 -1.05564,2.62881 -0.76114,0.22852 -0.77501,0.18777 -0.67577,-1.90483 0.0782,-1.64816 0.22708,-2.16328 0.64825,-2.24342 0.0486,-0.0106 0.0953,-0.0106 0.14177,-0.003 z m -1.91859,1.24559 c 0.30543,-0.016 0.2889,0.87097 0.0634,3.08297 -0.0285,0.27906 -0.28912,-0.0653 -0.57941,-0.76529 -0.4221,-1.0177 -0.44401,-1.37312 -0.11011,-1.77544 0.28294,-0.34091 0.48739,-0.53499 0.62622,-0.54224 z m -2.38792,1.72999 c 0.1664,0 0.53627,0.59672 0.82304,1.32677 l 0.52162,1.32818 -1.06252,0.39913 c -2.03313,0.76359 -2.77106,1.00196 -5.67184,1.83329 -5.8417,1.67403 -10.26381,2.39604 -11.92309,1.94609 -0.84693,-0.22958 -0.44852,-0.41103 3.04443,-1.3818 4.30239,-1.19576 7.20332,-2.27604 11.3588,-4.22807 1.43318,-0.67324 2.74314,-1.22359 2.90956,-1.22359 z"
       style="fill:#000080;stroke-width:0.338246"
       id="path132" />
    <path
       d="m 925.9189,69.821936 c -1.70493,0.03941 -4.39842,1.529907 -8.46441,4.650582 -5.35505,4.110111 -13.68133,11.340389 -16.06169,13.947699 -1.93729,2.122004 -3.08297,4.322064 -3.08297,5.916825 0,1.391123 1.75113,3.263644 3.49723,3.739452 1.96353,0.535118 6.84737,0.156338 10.5399,-0.818906 4.99881,-1.320221 11.16882,-4.055934 12.34426,-5.472249 0.56116,-0.676226 0.96011,-0.366081 0.77484,0.602845 -0.0844,0.441349 0.0625,0.967464 0.33448,1.193236 0.83092,0.689595 2.27143,-1.058439 2.28469,-2.773263 0.0116,-1.484261 0.0638,-1.577213 2.55994,-4.53777 2.37627,-2.818302 10.89993,-11.298595 9.75681,-9.707221 -0.5345,0.744146 -1.19174,1.5774 -1.46028,1.852525 -0.74868,0.766963 -1.66313,3.03851 -2.26267,5.620918 -0.4609,1.984946 -0.48047,2.729646 -0.13356,4.963051 0.22449,1.445159 0.54912,2.715073 0.72119,2.821471 0.17213,0.106269 0.83781,-0.05622 1.4796,-0.360588 1.37424,-0.652174 1.62404,-1.703052 0.34684,-1.458876 -0.98161,0.1875 -1.19876,-0.379128 -1.20153,-3.122941 0,-1.989364 0.95212,-5.606274 1.83462,-6.953207 0.29565,-0.451118 1.48984,-2.001561 2.65357,-3.444885 1.16366,-1.443382 2.37762,-3.042084 2.69897,-3.553684 0.32134,-0.5116 0.82937,-1.309519 1.12857,-1.772698 0.49657,-0.76894 0.49695,-0.860185 0.006,-1.048779 -0.35484,-0.136092 -1.4335,0.541545 -3.16553,1.988752 -2.68635,2.2447 -10.28121,9.884868 -13.62009,13.70134 -1.47567,1.686727 -2.01153,2.08916 -2.59162,1.944781 -0.5989,-0.149145 -0.85835,0.0775 -1.43413,1.253828 -1.281,2.616821 -6.55469,5.43419 -13.49763,7.211898 -4.86158,1.244799 -7.9986,1.421191 -9.94808,0.558797 -1.83507,-0.811705 -2.37014,-1.633644 -2.06725,-3.177963 0.41791,-2.130787 1.54816,-3.683574 4.96991,-6.834799 6.12729,-5.642864 14.11602,-12.049716 15.02533,-12.049716 0.18663,0 0.42168,-0.21626 0.52304,-0.480309 0.2677,-0.697716 4.49508,-2.625503 5.48326,-2.500829 0.83215,0.1052 0.82526,0.123579 -0.60147,1.78098 -0.79312,0.921388 -2.27279,2.475263 -3.28801,3.453224 -1.93006,1.859152 -2.26236,2.680743 -0.51892,1.282722 0.55646,-0.446191 1.84737,-1.470036 2.86827,-2.275063 3.4036,-2.683911 4.43319,-5.040419 2.59574,-5.938875 -0.29288,-0.143284 -0.63329,-0.211204 -1.02669,-0.202414 z m -6.50725,8.73145 c -0.0406,-0.0019 -0.0843,0.01063 -0.13079,0.03864 -0.43763,0.270541 -0.43763,0.846461 0,0.846461 0.18605,0 0.33725,-0.237035 0.33725,-0.527101 0,-0.217599 -0.0851,-0.352467 -0.20646,-0.357818 z m -4.20193,2.247495 c -0.18042,-0.008 -0.32618,0.09215 -0.32618,0.30831 0,0.399046 0.65918,0.825874 0.90149,0.583539 0.0993,-0.09935 0.0799,-0.342479 -0.0426,-0.54085 -0.13777,-0.222918 -0.35221,-0.342054 -0.53263,-0.350999 z"
       style="fill:#000080;stroke-width:0.338246"
       id="path134" />
  </g>
</svg>
