<?xml version="1.0" encoding="UTF-8" standalone="no"?>
<!-- Created with Inkscape (http://www.inkscape.org/) -->

<svg
   width="210mm"
   height="297mm"
   viewBox="0 0 210 297"
   version="1.1"
   id="svg5"
   inkscape:version="1.1 (c68e22c387, 2021-05-23)"
   sodipodi:docname="Sketch.svg"
   xmlns:inkscape="http://www.inkscape.org/namespaces/inkscape"
   xmlns:sodipodi="http://sodipodi.sourceforge.net/DTD/sodipodi-0.dtd"
   xmlns:xlink="http://www.w3.org/1999/xlink"
   xmlns="http://www.w3.org/2000/svg"
   xmlns:svg="http://www.w3.org/2000/svg">
  <sodipodi:namedview
     id="namedview7"
     pagecolor="#ffffff"
     bordercolor="#666666"
     borderopacity="1.0"
     inkscape:pageshadow="2"
     inkscape:pageopacity="0.0"
     inkscape:pagecheckerboard="0"
     inkscape:document-units="mm"
     showgrid="false"
     inkscape:snap-global="false"
     inkscape:zoom="0.22271324"
     inkscape:cx="1717.4551"
     inkscape:cy="267.15968"
     inkscape:current-layer="layer1" />
  <defs
     id="defs2">
    <linearGradient
       inkscape:collect="always"
       id="linearGradient59264">
      <stop
         style="stop-color:#b1b67c;stop-opacity:1;"
         offset="0"
         id="stop59260" />
      <stop
         style="stop-color:#8f9741;stop-opacity:1"
         offset="1"
         id="stop59262" />
    </linearGradient>
    <linearGradient
       inkscape:collect="always"
       id="linearGradient58304">
      <stop
         style="stop-color:#50726c;stop-opacity:1;"
         offset="0"
         id="stop58300" />
      <stop
         style="stop-color:#50726c;stop-opacity:0;"
         offset="1"
         id="stop58302" />
    </linearGradient>
    <linearGradient
       inkscape:collect="always"
       id="linearGradient33734">
      <stop
         style="stop-color:#bb7e21;stop-opacity:1"
         offset="0"
         id="stop33730" />
      <stop
         style="stop-color:#916219;stop-opacity:1"
         offset="1"
         id="stop33732" />
    </linearGradient>
    <linearGradient
       inkscape:collect="always"
       id="linearGradient25786">
      <stop
         style="stop-color:#e0cd72;stop-opacity:1;"
         offset="0"
         id="stop25782" />
      <stop
         style="stop-color:#e0cd72;stop-opacity:0;"
         offset="1"
         id="stop25784" />
    </linearGradient>
    <clipPath
       clipPathUnits="userSpaceOnUse"
       id="clipPath22948">
      <path
         style="fill:#ccae70;fill-opacity:1;stroke:none;stroke-width:1;stroke-linecap:square"
         d="m -112.31784,257.89315 c 0,0 16.947142,-66.0905 49.521732,-57.12587 32.574593,8.96463 40.514446,47.04536 40.514446,47.04536 L -51.489988,211.6908 c 0,0 7.607527,-64.59687 30.462617,-70.5636 22.8550856,-5.96673 43.066771,89.91366 43.066771,89.91366 0,0 -18.4274708,-36.37729 16.683561,-45.54365 35.111029,-9.16636 36.880896,72.39594 36.880896,72.39594 z"
         id="path22950"
         sodipodi:nodetypes="csccscscc" />
    </clipPath>
    <clipPath
       clipPathUnits="userSpaceOnUse"
       id="clipPath24374">
      <path
         style="fill:#e0b04f;fill-opacity:1;stroke:none;stroke-width:1;stroke-linecap:square"
         d="m -112.31784,257.89315 c 0,0 16.947142,-66.0905 49.521732,-57.12587 32.574593,8.96463 40.514446,47.04536 40.514446,47.04536 L -51.489988,211.6908 c 0,0 7.607527,-64.59687 30.462617,-70.5636 22.8550856,-5.96673 43.066771,89.91366 43.066771,89.91366 0,0 -18.4274708,-36.37729 16.683561,-45.54365 35.111029,-9.16636 36.880896,72.39594 36.880896,72.39594 z"
         id="path24376"
         sodipodi:nodetypes="csccscscc" />
    </clipPath>
    <filter
       inkscape:collect="always"
       style="color-interpolation-filters:sRGB"
       id="filter24378"
       x="-0.042400076"
       y="-0.13384809"
       width="1.0848002"
       height="1.2676962">
      <feGaussianBlur
         inkscape:collect="always"
         stdDeviation="3.9472211"
         id="feGaussianBlur24380" />
    </filter>
    <linearGradient
       inkscape:collect="always"
       xlink:href="#linearGradient25786"
       id="linearGradient25788"
       x1="-71.015556"
       y1="209.00282"
       x2="-114.06612"
       y2="252.05339"
       gradientUnits="userSpaceOnUse" />
    <filter
       inkscape:collect="always"
       style="color-interpolation-filters:sRGB"
       id="filter27267"
       x="-0.073868051"
       y="-0.10055143"
       width="1.1477361"
       height="1.2011029">
      <feGaussianBlur
         inkscape:collect="always"
         stdDeviation="4.4495516"
         id="feGaussianBlur27269" />
    </filter>
    <linearGradient
       inkscape:collect="always"
       xlink:href="#linearGradient25786"
       id="linearGradient27868"
       gradientUnits="userSpaceOnUse"
       x1="-71.015556"
       y1="209.00282"
       x2="-114.06612"
       y2="252.05339" />
    <linearGradient
       inkscape:collect="always"
       xlink:href="#linearGradient33734"
       id="linearGradient33736"
       x1="-13.020664"
       y1="153.09781"
       x2="-13.020664"
       y2="159.18813"
       gradientUnits="userSpaceOnUse" />
    <clipPath
       clipPathUnits="userSpaceOnUse"
       id="clipPath38491">
      <g
         id="g38501"
         transform="matrix(0.96672486,0,0,0.96672486,-0.55343158,1.4678594)">
        <rect
           style="opacity:1;fill:#e1ab59;fill-opacity:1;stroke:none;stroke-width:0.485445;stroke-linecap:square"
           id="rect38493"
           width="20.548233"
           height="24.6187"
           x="-39.68372"
           y="98.212425"
           ry="1.3948764" />
        <rect
           style="opacity:1;fill:#e1ab59;fill-opacity:1;stroke:none;stroke-width:0.485445;stroke-linecap:square"
           id="rect38495"
           width="20.548233"
           height="24.6187"
           x="-14.169377"
           y="98.212425"
           ry="1.3948764" />
        <rect
           style="opacity:1;fill:#e1ab59;fill-opacity:1;stroke:none;stroke-width:0.485445;stroke-linecap:square"
           id="rect38497"
           width="20.548233"
           height="24.6187"
           x="-39.68372"
           y="126.13042"
           ry="1.3948764" />
        <rect
           style="opacity:1;fill:#e1ab59;fill-opacity:1;stroke:none;stroke-width:0.485445;stroke-linecap:square"
           id="rect38499"
           width="20.548233"
           height="24.6187"
           x="-14.169377"
           y="126.13042"
           ry="1.3948764" />
      </g>
    </clipPath>
    <clipPath
       clipPathUnits="userSpaceOnUse"
       id="clipPath45636">
      <rect
         style="fill:#aa7e3c;fill-opacity:1;stroke:none;stroke-width:0.758893;stroke-linecap:square"
         id="rect45638"
         width="32.123024"
         height="36.348591"
         x="-23.207754"
         y="114.37685"
         ry="0" />
    </clipPath>
    <clipPath
       clipPathUnits="userSpaceOnUse"
       id="clipPath46140">
      <rect
         style="fill:#aa7e3c;fill-opacity:1;stroke:none;stroke-width:1.22308;stroke-linecap:square"
         id="rect46142"
         width="51.771477"
         height="58.581661"
         x="-42.517742"
         y="92.479179"
         ry="0" />
    </clipPath>
    <clipPath
       clipPathUnits="userSpaceOnUse"
       id="clipPath46505">
      <rect
         style="opacity:1;fill:#bf8827;fill-opacity:1;stroke:none;stroke-width:1.1613;stroke-linecap:square"
         id="rect46507"
         width="129.492"
         height="190.5968"
         x="-82.566002"
         y="39.875187"
         ry="14.460878" />
    </clipPath>
    <linearGradient
       inkscape:collect="always"
       xlink:href="#linearGradient58304"
       id="linearGradient58306"
       x1="199.72018"
       y1="74.973824"
       x2="199.72018"
       y2="69.059013"
       gradientUnits="userSpaceOnUse" />
    <linearGradient
       inkscape:collect="always"
       xlink:href="#linearGradient59264"
       id="linearGradient59266"
       x1="132.30675"
       y1="55.442829"
       x2="234.16194"
       y2="157.29802"
       gradientUnits="userSpaceOnUse" />
    <clipPath
       clipPathUnits="userSpaceOnUse"
       id="clipPath59538">
      <path
         style="opacity:1;fill:#2b6459;fill-opacity:1;stroke:none;stroke-width:0.999999;stroke-linecap:square"
         d="m 169.91359,161.28823 -33.18169,-42.00215 10.92055,-3.78019 56.28288,47.0424 z"
         id="path59540" />
    </clipPath>
    <filter
       inkscape:collect="always"
       style="color-interpolation-filters:sRGB"
       id="filter61302"
       x="-0.13907223"
       y="-0.16615232"
       width="1.2781445"
       height="1.3323046">
      <feGaussianBlur
         inkscape:collect="always"
         stdDeviation="3.5515073"
         id="feGaussianBlur61304" />
    </filter>
    <clipPath
       clipPathUnits="userSpaceOnUse"
       id="clipPath61426">
      <path
         style="opacity:1;fill:#2b6459;fill-opacity:1;stroke:none;stroke-width:0.999999;stroke-linecap:square"
         d="m 146.79749,117.18598 c 0,0 2.10011,-5.04026 0.63003,-8.19042 -1.47007,-3.15016 -4.62023,-9.240471 -4.62023,-9.240471 0,0 -2.52013,-1.470075 -1.68009,3.150161 0.84004,4.62024 1.60502,7.76666 -1.20756,6.14282 -2.81258,-1.62384 -7.7704,-5.40778 -7.7704,-5.40778 l -3.62268,-9.765503 c 0,0 -0.84005,-1.050051 -1.68009,0.840046 -0.84004,1.890095 1.8901,10.500537 1.8901,10.500537 l 4.41022,6.51033 7.35038,8.61044 z"
         id="path61428"
         sodipodi:nodetypes="cscszccscccc" />
    </clipPath>
    <filter
       inkscape:collect="always"
       style="color-interpolation-filters:sRGB"
       id="filter61430"
       x="-0.069341811"
       y="-0.053153526"
       width="1.1386836"
       height="1.1063071">
      <feGaussianBlur
         inkscape:collect="always"
         stdDeviation="0.6066295"
         id="feGaussianBlur61432" />
    </filter>
    <clipPath
       clipPathUnits="userSpaceOnUse"
       id="clipPath63181">
      <rect
         style="opacity:1;fill:url(#linearGradient63185);fill-opacity:1;stroke:none;stroke-width:0.554578;stroke-linecap:square"
         id="rect63183"
         width="86.307838"
         height="62.919083"
         x="115.83235"
         y="80.919258"
         ry="3.0281496" />
    </clipPath>
    <linearGradient
       inkscape:collect="always"
       xlink:href="#linearGradient59264"
       id="linearGradient63185"
       gradientUnits="userSpaceOnUse"
       x1="132.30675"
       y1="55.442829"
       x2="234.16194"
       y2="157.29802"
       gradientTransform="matrix(0.55457784,0,0,0.55457784,71.360758,55.224562)" />
    <filter
       inkscape:collect="always"
       style="color-interpolation-filters:sRGB"
       id="filter64845"
       x="-0.24013671"
       y="-0.21059435"
       width="1.4802734"
       height="1.4211887">
      <feGaussianBlur
         inkscape:collect="always"
         stdDeviation="10.485502"
         id="feGaussianBlur64847" />
    </filter>
    <clipPath
       clipPathUnits="userSpaceOnUse"
       id="clipPath64854">
      <path
         style="opacity:1;fill:#4d4d4d;fill-opacity:1;stroke:none;stroke-width:1;stroke-linecap:square"
         d="m 198.43611,209.17067 104.58533,-53.34273 v 49.14251 l -104.79533,70.35359 z"
         id="path64856"
         sodipodi:nodetypes="ccccc" />
    </clipPath>
  </defs>
  <g
     inkscape:label="Layer 1"
     inkscape:groupmode="layer"
     id="layer1">
    <rect
       style="opacity:1;fill:#845d1b;fill-opacity:1;stroke:none;stroke-width:1.1613;stroke-linecap:square"
       id="rect27300"
       width="129.492"
       height="190.67398"
       x="-82.566002"
       y="39.798004"
       ry="14.460878" />
    <g
       id="g30538"
       clip-path="url(#clipPath46505)">
      <rect
         style="opacity:1;fill:#d48f25;fill-opacity:1;stroke:none;stroke-width:1.27992;stroke-linecap:square"
         id="rect33214"
         width="228.39275"
         height="15.397361"
         x="-135.44861"
         y="175.07635"
         ry="0.87240249" />
      <g
         id="g27866"
         transform="matrix(-0.86333568,0,0.11564117,0.60448631,-106.32384,74.401131)">
        <path
           style="fill:#e0ab3f;fill-opacity:1;stroke:none;stroke-width:1;stroke-linecap:square"
           d="m -112.31784,257.89315 c 0,0 16.947142,-66.0905 49.521733,-57.12587 32.574592,8.96463 40.514445,47.04536 40.514445,47.04536 L -51.489989,211.6908 c 0,0 7.607529,-64.59687 30.462618,-70.5636 22.8550856,-5.96673 43.066771,89.91366 43.066771,89.91366 0,0 -18.4274707,-36.37729 16.683562,-45.54365 35.111029,-9.16636 36.880894,72.39594 36.880894,72.39594 z"
           id="path27856"
           sodipodi:nodetypes="csccscscc" />
        <g
           id="g27860"
           clip-path="url(#clipPath22948)"
           style="opacity:0.667954;mix-blend-mode:normal">
          <path
             style="opacity:1;mix-blend-mode:color-dodge;fill:url(#linearGradient27868);fill-opacity:1;stroke:none;stroke-width:1;stroke-linecap:square;filter:url(#filter27267)"
             d="m -57.542935,215.89101 c 0,0 6.720343,-13.86071 7.560384,-18.90096 l -76.046479,-34.79996 -68.52108,71.76891 85.76456,34.43469 c 0,0 16.380837,-77.70396 51.242615,-52.50268 z"
             id="path27858"
             sodipodi:nodetypes="cccccc"
             transform="matrix(1.0293072,0,0,1.0293072,5.8933961,-8.0575415)" />
        </g>
        <g
           id="g27864"
           clip-path="url(#clipPath24374)"
           style="opacity:0.667954">
          <path
             style="opacity:1;fill:#bf9643;fill-opacity:1;stroke:none;stroke-width:1;stroke-linecap:square;filter:url(#filter24378)"
             d="m -112.86,247.698 c 0,0 90.288,0 103.3560001,-3.564 13.0679998,-3.564 14.8499997,1.782 22.5719999,2.376 7.722,0.594 27.324,0.594 35.046,-1.782 7.721999,-2.376 8.909999,2.97 11.286,2.97 2.375998,0 7.721999,-15.444 7.127999,-24.948 -0.594,-9.504 5.345999,-11.88 11.286001,-6.534 5.939999,5.346 59.4,52.86599 4.157998,60.58798 C 26.729999,284.52601 -86.723999,289.278 -100.98,275.02199 -115.236,260.766 -121.176,253.638 -112.86,247.698 Z"
             id="path27862" />
        </g>
      </g>
      <g
         id="g27276"
         transform="matrix(0.62441464,0,-0.11409129,0.62441464,47.826428,79.634891)">
        <path
           style="fill:#e0b04f;fill-opacity:1;stroke:none;stroke-width:1;stroke-linecap:square"
           d="m -112.31784,257.89315 c 0,0 16.947142,-66.0905 49.521733,-57.12587 32.574592,8.96463 40.514445,47.04536 40.514445,47.04536 L -51.489989,211.6908 c 0,0 7.607529,-64.59687 30.462618,-70.5636 22.8550856,-5.96673 43.066771,89.91366 43.066771,89.91366 0,0 -18.4274707,-36.37729 16.683562,-45.54365 35.111029,-9.16636 36.880894,72.39594 36.880894,72.39594 z"
           id="path22281"
           sodipodi:nodetypes="csccscscc" />
        <g
           id="g22944"
           clip-path="url(#clipPath22948)"
           style="mix-blend-mode:normal">
          <path
             style="opacity:1;mix-blend-mode:color-dodge;fill:url(#linearGradient25788);fill-opacity:1;stroke:none;stroke-width:1;stroke-linecap:square;filter:url(#filter27267)"
             d="m -57.542935,215.89101 c 0,0 6.720343,-13.86071 7.560384,-18.90096 l -76.046479,-34.79996 -68.52108,71.76891 85.76456,34.43469 c 0,0 16.380837,-77.70396 51.242615,-52.50268 z"
             id="path22609"
             sodipodi:nodetypes="cccccc"
             transform="matrix(1.0293072,0,0,1.0293072,5.8933961,-8.0575415)" />
        </g>
        <g
           id="g24370"
           clip-path="url(#clipPath24374)">
          <path
             style="opacity:1;fill:#bf9643;fill-opacity:1;stroke:none;stroke-width:1;stroke-linecap:square;filter:url(#filter24378)"
             d="m -112.86,247.698 c 0,0 90.288,0 103.3560001,-3.564 13.0679998,-3.564 14.8499997,1.782 22.5719999,2.376 7.722,0.594 27.324,0.594 35.046,-1.782 7.721999,-2.376 8.909999,2.97 11.286,2.97 2.375998,0 7.721999,-15.444 7.127999,-24.948 -0.594,-9.504 5.345999,-11.88 11.286001,-6.534 5.939999,5.346 59.4,52.86599 4.157998,60.58798 C 26.729999,284.52601 -86.723999,289.278 -100.98,275.02199 -115.236,260.766 -121.176,253.638 -112.86,247.698 Z"
             id="path24233" />
        </g>
      </g>
      <g
         id="g36373"
         transform="matrix(1.734203,0,0,1.734203,12.560281,-120.47485)">
        <rect
           style="opacity:1;fill:#d48f25;fill-opacity:1;stroke:none;stroke-width:1.34717;stroke-linecap:square"
           id="rect30961"
           width="57.023994"
           height="68.320061"
           x="-45.143997"
           y="89.391975"
           ry="2.6829641" />
        <rect
           style="fill:#6e5127;fill-opacity:1;stroke:none;stroke-width:1.22308;stroke-linecap:square"
           id="rect42750"
           width="51.771477"
           height="58.581661"
           x="-42.517742"
           y="92.479179"
           ry="0" />
        <g
           id="g42776"
           transform="translate(0,-2.5422165)">
          <rect
             style="fill:#e1a74f;fill-opacity:1;stroke:none;stroke-width:1.22308;stroke-linecap:square"
             id="rect34259"
             width="51.771477"
             height="58.581661"
             x="-42.517742"
             y="77.734322"
             ry="0" />
          <g
             id="g33498"
             transform="matrix(0.96672485,0,0,0.96672485,-0.55343235,-13.276996)">
            <rect
               style="opacity:1;fill:#bd8c42;fill-opacity:1;stroke:none;stroke-width:0.485445;stroke-linecap:square"
               id="rect33216"
               width="20.548233"
               height="24.6187"
               x="-39.68372"
               y="98.212425"
               ry="1.3948764" />
            <rect
               style="opacity:1;fill:#bd8c42;fill-opacity:1;stroke:none;stroke-width:0.485445;stroke-linecap:square"
               id="rect33218"
               width="20.548233"
               height="24.6187"
               x="-14.169377"
               y="98.212425"
               ry="1.3948764" />
            <rect
               style="opacity:1;fill:#bd8c42;fill-opacity:1;stroke:none;stroke-width:0.485445;stroke-linecap:square"
               id="rect33490"
               width="20.548233"
               height="24.6187"
               x="-39.68372"
               y="126.13042"
               ry="1.3948764" />
            <rect
               style="opacity:1;fill:#bd8c42;fill-opacity:1;stroke:none;stroke-width:0.485445;stroke-linecap:square"
               id="rect33492"
               width="20.548233"
               height="24.6187"
               x="-14.169377"
               y="126.13042"
               ry="1.3948764" />
          </g>
        </g>
        <g
           id="g38489"
           clip-path="url(#clipPath38491)" />
        <rect
           style="opacity:1;fill:url(#linearGradient33736);fill-opacity:1;stroke:none;stroke-width:1.4454;stroke-linecap:square"
           id="rect33599"
           width="61.181995"
           height="4.182447"
           x="-47.222996"
           y="153.75735"
           ry="2.0912235" />
        <g
           id="g46136"
           clip-path="url(#clipPath46140)">
          <g
             id="g46022">
            <path
               style="fill:#ffbd5a;fill-opacity:1;stroke:none;stroke-width:1.18424;stroke-linecap:square"
               d="m -30.441063,141.74119 13.616511,-4.10359 1.05699,2.42485 -14.113919,4.04143 c 0,0 -1.917408,-0.0113 -0.559582,-2.36269 z"
               id="path45146" />
            <path
               style="opacity:1;fill:#926d34;fill-opacity:1;stroke:none;stroke-width:0.734796;stroke-linecap:square"
               d="m -16.717497,137.26565 0.231472,0.61726 -13.926913,4.24365 c 0,0 -0.559459,0.61576 -0.290033,1.08242 0.269427,0.46666 0.36719,0.96226 0.36719,0.96226 l -0.57868,0.11573 c 0,0 -1.041625,-2.3533 0.347208,-2.93198 1.388834,-0.57868 13.849756,-4.08934 13.849756,-4.08934 z"
               id="path45768" />
          </g>
          <g
             id="g45111"
             transform="matrix(1.6116625,0,0,1.6116625,-5.1146737,-91.857697)">
            <g
               id="g45097"
               transform="translate(-1.4185218,0.98205359)">
              <path
                 style="opacity:1;fill:#d59e4b;fill-opacity:1;stroke:none;stroke-width:0.734796;stroke-linecap:square"
                 d="m -27.558114,143.36108 1.851778,-0.92588 11.264983,3.08629 v 1.38883 z"
                 id="path44265" />
              <path
                 style="opacity:1;fill:#d59e4b;fill-opacity:1;stroke:none;stroke-width:0.734796;stroke-linecap:square"
                 d="m -16.569135,146.03781 -3.764539,3.87365 h 2.94616 l 2.946161,-2.94616 v -0.92749 z"
                 id="path44668"
                 sodipodi:nodetypes="cccccc" />
            </g>
            <g
               id="g45103"
               transform="matrix(-1,0,0,1,-31.305995,0.98205359)">
              <path
                 style="opacity:1;fill:#d59e4b;fill-opacity:1;stroke:none;stroke-width:0.734796;stroke-linecap:square"
                 d="m -26.305578,143.80116 0.599242,-1.36596 11.264983,3.08629 v 1.38883 z"
                 id="path45099"
                 sodipodi:nodetypes="ccccc" />
              <path
                 style="opacity:1;fill:#d59e4b;fill-opacity:1;stroke:none;stroke-width:0.734796;stroke-linecap:square"
                 d="m -16.569135,146.03781 -3.764539,3.87365 h 2.94616 l 2.946161,-2.94616 v -0.92749 z"
                 id="path45101"
                 sodipodi:nodetypes="cccccc" />
            </g>
          </g>
        </g>
      </g>
      <circle
         id="path33963"
         style="fill:#916219;stroke:#000000;stroke-width:0.264583"
         cx="59.013012"
         cy="156.45799"
         r="0.10490035" />
    </g>
    <g
       id="g64899">
      <g
         id="g64236"
         transform="matrix(1.4318209,0,0,1.4318209,-34.627716,-20.007125)">
        <rect
           style="opacity:1;fill:url(#linearGradient59266);fill-opacity:1;stroke:none;stroke-width:1;stroke-linecap:square"
           id="rect46702"
           width="155.62801"
           height="113.45402"
           x="80.190002"
           y="46.331997"
           ry="5.4602785" />
        <g
           id="g57159"
           style="opacity:0.409266"
           transform="matrix(1.0953167,0,0,1.0953167,-18.588999,-7.2128334)">
          <rect
             style="opacity:1;fill:#8a913f;fill-opacity:1;stroke:none;stroke-width:1.05951;stroke-linecap:square"
             id="rect47175"
             width="16.465597"
             height="16.465597"
             x="102.48522"
             y="81.904182" />
          <rect
             style="opacity:1;fill:#8a913f;fill-opacity:1;stroke:none;stroke-width:1.05951;stroke-linecap:square"
             id="rect47383"
             width="16.465597"
             height="16.465597"
             x="126.41219"
             y="81.904182" />
          <rect
             style="opacity:1;fill:#8a913f;fill-opacity:1;stroke:none;stroke-width:1.05951;stroke-linecap:square"
             id="rect47385"
             width="16.465597"
             height="16.465597"
             x="150.33916"
             y="81.904182" />
          <rect
             style="opacity:1;fill:#8a913f;fill-opacity:1;stroke:none;stroke-width:1.05951;stroke-linecap:square"
             id="rect47387"
             width="16.465597"
             height="16.465597"
             x="174.26611"
             y="81.904182" />
          <rect
             style="opacity:1;fill:#8a913f;fill-opacity:1;stroke:none;stroke-width:1.05951;stroke-linecap:square"
             id="rect50757"
             width="16.465597"
             height="16.465597"
             x="198.19308"
             y="81.904182" />
          <g
             id="g50866"
             style="opacity:1">
            <rect
               style="opacity:1;fill:#8a913f;fill-opacity:1;stroke:none;stroke-width:1.05951;stroke-linecap:square"
               id="rect50841"
               width="16.465597"
               height="16.465597"
               x="102.48522"
               y="102.23045" />
            <rect
               style="opacity:1;fill:#8a913f;fill-opacity:1;stroke:none;stroke-width:1.05951;stroke-linecap:square"
               id="rect50843"
               width="16.465597"
               height="16.465597"
               x="126.41219"
               y="102.23045" />
            <rect
               style="opacity:1;fill:#8a913f;fill-opacity:1;stroke:none;stroke-width:1.05951;stroke-linecap:square"
               id="rect50845"
               width="16.465597"
               height="16.465597"
               x="150.33916"
               y="102.23045" />
            <rect
               style="opacity:1;fill:#8a913f;fill-opacity:1;stroke:none;stroke-width:1.05951;stroke-linecap:square"
               id="rect50847"
               width="16.465597"
               height="16.465597"
               x="174.26611"
               y="102.23045" />
            <rect
               style="opacity:1;fill:#8a913f;fill-opacity:1;stroke:none;stroke-width:1.05951;stroke-linecap:square"
               id="rect50849"
               width="16.465597"
               height="16.465597"
               x="198.19308"
               y="102.23045" />
          </g>
          <g
             id="g50873"
             transform="translate(0,-7.128)"
             style="opacity:1">
            <rect
               style="opacity:1;fill:#8a913f;fill-opacity:1;stroke:none;stroke-width:1.05951;stroke-linecap:square"
               id="rect50851"
               width="16.465597"
               height="16.465597"
               x="102.48522"
               y="130.62666" />
            <rect
               style="opacity:1;fill:#8a913f;fill-opacity:1;stroke:none;stroke-width:1.05951;stroke-linecap:square"
               id="rect50853"
               width="16.465597"
               height="16.465597"
               x="126.41219"
               y="130.62666" />
            <rect
               style="opacity:1;fill:#8a913f;fill-opacity:1;stroke:none;stroke-width:1.05951;stroke-linecap:square"
               id="rect50855"
               width="16.465597"
               height="16.465597"
               x="150.33916"
               y="130.62666" />
            <rect
               style="opacity:1;fill:#8a913f;fill-opacity:1;stroke:none;stroke-width:1.05951;stroke-linecap:square"
               id="rect50857"
               width="16.465597"
               height="16.465597"
               x="174.26611"
               y="130.62666" />
            <rect
               style="opacity:1;fill:#8a913f;fill-opacity:1;stroke:none;stroke-width:1.05951;stroke-linecap:square"
               id="rect50859"
               width="16.465597"
               height="16.465597"
               x="198.19308"
               y="130.62666" />
          </g>
        </g>
        <g
           id="g55485"
           transform="matrix(1.8031734,0,0,1.8031734,-128.67582,-99.579461)"
           clip-path="url(#clipPath63181)">
          <g
             id="g61446"
             transform="translate(-0.25396052,0.33861402)">
            <path
               style="opacity:1;fill:#378173;fill-opacity:1;stroke:none;stroke-width:1;stroke-linecap:square"
               d="m 129.86325,97.713 c 0,0 0.1485,-1.188001 0.891,-0.965251 0.7425,0.222751 2.59875,5.865751 2.59875,5.865751 l 4.752,6.31125 -8.68725,-7.2765 z"
               id="path55064" />
            <path
               style="fill:#2b6459;fill-opacity:1;stroke:none;stroke-width:1;stroke-linecap:square"
               d="m 146.79749,117.18598 c 0,0 2.10011,-5.04026 0.63003,-8.19042 -1.47007,-3.15016 -4.62023,-9.240471 -4.62023,-9.240471 0,0 -2.52013,-1.470076 -1.68009,3.150161 0.84004,4.62024 1.60502,7.76666 -1.20756,6.14282 -2.81258,-1.62384 -7.7704,-5.40778 -7.7704,-5.40778 l -3.62268,-9.765502 c 0,0 -0.84005,-1.050052 -1.68009,0.840044 -0.84004,1.890096 1.8901,10.500538 1.8901,10.500538 l 4.41022,6.51033 7.35038,8.61044 z"
               id="path54949"
               sodipodi:nodetypes="cscszccscccc" />
            <g
               id="g61424"
               clip-path="url(#clipPath61426)">
              <path
                 style="opacity:1;fill:#417a6f;fill-opacity:1;stroke:none;stroke-width:0.570058;stroke-linecap:square;filter:url(#filter61430)"
                 d="m 126.82922,93.917043 2.20099,11.682187 3.55545,5.33317 9.39654,8.21139 c 0,0 -10.07377,2.5396 -10.49704,2.11634 -0.42327,-0.42327 -10.66634,-20.23219 -10.49703,-21.332688 0.16931,-1.100495 5.84109,-6.010399 5.84109,-6.010399 z"
                 id="path61339" />
            </g>
          </g>
          <path
             style="opacity:1;fill:#2b6459;fill-opacity:1;stroke:none;stroke-width:1;stroke-linecap:square"
             d="m 169.91359,161.28823 -33.18169,-42.00215 10.92055,-3.78019 56.28288,47.0424 z"
             id="path51923" />
          <g
             id="g59534"
             clip-path="url(#clipPath59538)">
            <path
               style="opacity:0.710425;fill:#417a6f;fill-opacity:1;stroke:none;stroke-width:0.570058;stroke-linecap:square;filter:url(#filter61302)"
               d="m 136.64903,116.51953 55.87131,51.30002 -36.06239,-0.33861 -25.22675,-50.96141 z"
               id="path59451" />
          </g>
          <path
             style="opacity:1;fill:none;fill-opacity:1;stroke:#ffffff;stroke-width:0.554578;stroke-linecap:square"
             d="m 114.22072,141.87622 c 0,0 17.23716,-7.4539 30.28149,-3.49402 13.04434,3.95989 26.08867,-5.82336 34.70725,-5.35749 8.61858,0.46587 10.48206,9.31738 17.70303,7.68684 7.22097,-1.63054 13.97608,-9.31738 14.44195,-3.26109 0.46586,6.0563 27.95214,22.82759 -8.15272,23.06053 -36.10485,0.23293 -93.63969,-2.79522 -92.47502,-9.08445 1.16467,-6.28923 3.49402,-9.55032 3.49402,-9.55032 z"
             id="path63220" />
          <path
             style="opacity:0.227799;fill:none;fill-opacity:1;stroke:#ffffff;stroke-width:0.554578;stroke-linecap:square"
             d="m 150.32558,147.23372 c 0,0 9.48618,-15.60662 18.40183,-15.60662 9.55031,0 8.38564,14.20901 18.40183,14.67488 10.01619,0.46587 6.52217,-15.37368 13.74314,-18.40183 7.22097,-3.02815 7.45391,-3.02815 7.45391,-3.02815"
             id="path63407"
             sodipodi:nodetypes="csssc" />
          <path
             style="opacity:0.138996;fill:none;fill-opacity:1;stroke:#ffffff;stroke-width:0.554578;stroke-linecap:square"
             d="m 112.59018,133.49058 c 0,0 16.53835,-1.86348 21.89585,5.12456 5.35749,6.98803 8.15271,9.55032 14.44194,9.55032 6.28923,0 -14.67488,26.78747 -26.08867,14.90781 -11.4138,-11.87966 -12.57847,-22.12879 -10.24912,-29.58269 z"
             id="path64099" />
        </g>
        <g
           id="g63177">
          <g
             id="g58994"
             transform="matrix(1.2716823,0,0,1,-99.769401,0)">
            <rect
               style="opacity:1;fill:#5d847d;fill-opacity:1;stroke:none;stroke-width:0.19399;stroke-linecap:square"
               id="rect50974"
               width="66.684509"
               height="20.352444"
               x="169.13351"
               y="54.647999"
               ry="0.97951579" />
            <rect
               style="opacity:0.567568;fill:url(#linearGradient58306);fill-opacity:1;stroke:none;stroke-width:0.19399;stroke-linecap:square"
               id="rect57971"
               width="66.684509"
               height="8.2526321"
               x="169.13351"
               y="66.74781"
               ry="0.97951579" />
          </g>
          <text
             xml:space="preserve"
             style="font-style:normal;font-weight:normal;font-size:11.1105px;line-height:1.25;font-family:sans-serif;letter-spacing:0.277763px;fill:#ffffff;fill-opacity:1;stroke:none;stroke-width:0.277763"
             x="126.70667"
             y="69.086845"
             id="text47897"><tspan
               sodipodi:role="line"
               id="tspan47895"
               style="font-style:normal;font-variant:normal;font-weight:900;font-stretch:normal;font-family:Montserrat;-inkscape-font-specification:'Montserrat Heavy';fill:#ffffff;fill-opacity:1;stroke-width:0.277763"
               x="126.70667"
               y="69.086845">Dzulhijjah</tspan></text>
        </g>
      </g>
      <path
         style="opacity:1;fill:#4d4d4d;fill-opacity:1;stroke:none;stroke-width:1;stroke-linecap:square"
         d="m 198.43611,209.17067 104.58533,-53.34273 0,49.14251 -104.79533,70.3536 z"
         id="path64271"
         sodipodi:nodetypes="ccccc" />
      <g
         id="g64850"
         clip-path="url(#clipPath64854)">
        <path
           style="opacity:1;mix-blend-mode:normal;fill:#6e6e6e;fill-opacity:1;stroke:none;stroke-width:1;stroke-linecap:square;filter:url(#filter64845)"
           d="m 233.71792,220.93126 104.58533,-53.34273 v 49.14251 l -104.79533,70.3536 z"
           id="path64771"
           sodipodi:nodetypes="ccccc" />
      </g>
    </g>
  </g>
</svg>
