<?xml version="1.0" encoding="UTF-8" standalone="no"?>
<svg
   xmlns:dc="http://purl.org/dc/elements/1.1/"
   xmlns:cc="http://creativecommons.org/ns#"
   xmlns:rdf="http://www.w3.org/1999/02/22-rdf-syntax-ns#"
   xmlns:svg="http://www.w3.org/2000/svg"
   xmlns="http://www.w3.org/2000/svg"
   xmlns:xlink="http://www.w3.org/1999/xlink"
   xmlns:sodipodi="http://sodipodi.sourceforge.net/DTD/sodipodi-0.dtd"
   xmlns:inkscape="http://www.inkscape.org/namespaces/inkscape"
   width="210mm"
   height="297mm"
   viewBox="0 0 210 297"
   version="1.1"
   id="svg11256"
   inkscape:version="1.0 (1.0+r73+1)"
   sodipodi:docname="logo.svg">
  <defs
     id="defs11250">
    <inkscape:path-effect
       fuse_tolerance="0"
       hide_knot="false"
       vertical_pattern="false"
       prop_units="false"
       tang_offset="0"
       normal_offset="0"
       spacing="0"
       scale_y_rel="false"
       prop_scale="1.2712421"
       copytype="single_stretched"
       pattern="M 24.455015,7.3310248 V 13.265655 L 1.9200254,9.5669448 Z"
       lpeversion="1"
       is_visible="true"
       id="path-effect156"
       effect="skeletal" />
    <linearGradient
       id="linearGradient116"
       inkscape:collect="always">
      <stop
         id="stop112"
         offset="0"
         style="stop-color:#f9ccdc;stop-opacity:1;" />
      <stop
         id="stop114"
         offset="1"
         style="stop-color:#f9ccdc;stop-opacity:0;" />
    </linearGradient>
    <linearGradient
       id="linearGradient108"
       inkscape:collect="always">
      <stop
         id="stop104"
         offset="0"
         style="stop-color:#f5a0bd;stop-opacity:1;" />
      <stop
         id="stop106"
         offset="1"
         style="stop-color:#f5a0bd;stop-opacity:0;" />
    </linearGradient>
    <inkscape:path-effect
       fuse_tolerance="0"
       hide_knot="false"
       vertical_pattern="false"
       prop_units="false"
       tang_offset="0"
       normal_offset="0"
       spacing="0"
       scale_y_rel="false"
       prop_scale="1.2712421"
       copytype="single_stretched"
       pattern="M 24.455015,7.3310248 V 13.265655 L 1.9200254,9.5669448 Z"
       lpeversion="1"
       is_visible="true"
       id="path-effect1194"
       effect="skeletal" />
    <inkscape:path-effect
       effect="skeletal"
       id="path-effect1100"
       is_visible="true"
       lpeversion="1"
       pattern="M 24.455015,7.3310248 V 13.265655 L 1.9200254,9.5669448 Z"
       copytype="single_stretched"
       prop_scale="1.2712421"
       scale_y_rel="false"
       spacing="0"
       normal_offset="0"
       tang_offset="0"
       prop_units="false"
       vertical_pattern="false"
       hide_knot="false"
       fuse_tolerance="0" />
    <inkscape:path-effect
       effect="powerstroke"
       id="path-effect1098"
       is_visible="true"
       lpeversion="1"
       offset_points="0.2,0.1322915 | 2,0.1322915 | 3.8,0.1322915"
       sort_points="true"
       interpolator_type="Linear"
       interpolator_beta="0.41875"
       start_linecap_type="zerowidth"
       linejoin_type="round"
       miter_limit="4"
       scale_width="1"
       end_linecap_type="zerowidth" />
    <inkscape:path-effect
       effect="powerstroke"
       id="path-effect1096"
       is_visible="true"
       lpeversion="1"
       offset_points="0.2,0.5 | 2,0.5 | 3.8,0.5"
       sort_points="true"
       interpolator_type="CentripetalCatmullRom"
       interpolator_beta="0.2"
       start_linecap_type="zerowidth"
       linejoin_type="round"
       miter_limit="4"
       scale_width="1"
       end_linecap_type="zerowidth" />
    <inkscape:path-effect
       effect="skeletal"
       id="path-effect1055"
       is_visible="true"
       lpeversion="1"
       pattern="M 0,0 H 1"
       copytype="single_stretched"
       prop_scale="1000000"
       scale_y_rel="false"
       spacing="0"
       normal_offset="0"
       tang_offset="0"
       prop_units="false"
       vertical_pattern="false"
       hide_knot="false"
       fuse_tolerance="0" />
    <inkscape:path-effect
       effect="perspective-envelope"
       up_left_point="-113.48249,110.00251"
       up_right_point="-61.395506,110.00251"
       down_left_point="-113.48249,159.46864"
       down_right_point="-61.395506,159.46864"
       id="path-effect1053"
       is_visible="true"
       lpeversion="1"
       deform_type="perspective"
       horizontal_mirror="false"
       vertical_mirror="false"
       overflow_perspective="false" />
    <clipPath
       id="clipPath100"
       clipPathUnits="userSpaceOnUse">
      <rect
         ry="0"
         y="61.722851"
         x="-194.57562"
         height="191.91908"
         width="191.91908"
         id="rect102"
         style="fill:#ffffff;fill-opacity:1;stroke-width:11.8837;stroke-linecap:round" />
    </clipPath>
    <linearGradient
       gradientTransform="translate(11.423635,-14.6274)"
       y2="338.80234"
       x2="-26.844967"
       y1="244.36191"
       x1="-26.844967"
       gradientUnits="userSpaceOnUse"
       id="linearGradient130"
       xlink:href="#linearGradient108"
       inkscape:collect="always" />
    <linearGradient
       y2="205.79762"
       x2="191.32001"
       y1="205.79762"
       x1="67.408798"
       gradientTransform="matrix(1.3068207,0,0,1.3068207,-24.348939,-183.99564)"
       gradientUnits="userSpaceOnUse"
       id="linearGradient132"
       xlink:href="#linearGradient116"
       inkscape:collect="always" />
    <linearGradient
       y2="205.79762"
       x2="191.32001"
       y1="205.79762"
       x1="67.408798"
       gradientTransform="matrix(1.3068207,0,0,1.3068207,-24.348939,-183.99564)"
       gradientUnits="userSpaceOnUse"
       id="linearGradient317"
       xlink:href="#linearGradient116"
       inkscape:collect="always" />
    <linearGradient
       y2="338.80234"
       x2="-26.844967"
       y1="244.36191"
       x1="-26.844967"
       gradientTransform="translate(11.423635,-14.6274)"
       gradientUnits="userSpaceOnUse"
       id="linearGradient319"
       xlink:href="#linearGradient108"
       inkscape:collect="always" />
  </defs>
  <sodipodi:namedview
     id="base"
     pagecolor="#ffffff"
     bordercolor="#666666"
     borderopacity="1.0"
     inkscape:pageopacity="0.0"
     inkscape:pageshadow="2"
     inkscape:zoom="0.34258687"
     inkscape:cx="-465.86115"
     inkscape:cy="483.91356"
     inkscape:document-units="mm"
     inkscape:current-layer="g128"
     showgrid="false"
     inkscape:pagecheckerboard="true"
     inkscape:showpageshadow="false"
     inkscape:window-width="1306"
     inkscape:window-height="672"
     inkscape:window-x="30"
     inkscape:window-y="40"
     inkscape:window-maximized="1"
     inkscape:document-rotation="0"
     inkscape:snap-global="false"
     showguides="false"
     inkscape:guide-bbox="true">
    <sodipodi:guide
       position="-103.75704,196.74397"
       orientation="0,-1"
       id="guide1135" />
  </sodipodi:namedview>
  <metadata
     id="metadata11253">
    <rdf:RDF>
      <cc:Work
         rdf:about="">
        <dc:format>image/svg+xml</dc:format>
        <dc:type
           rdf:resource="http://purl.org/dc/dcmitype/StillImage" />
        <dc:title />
      </cc:Work>
    </rdf:RDF>
  </metadata>
  <g
     inkscape:label="Layer 1"
     inkscape:groupmode="layer"
     id="layer1">
    <g
       id="g305">
      <rect
         style="fill:#ffffff;fill-opacity:1;stroke-width:11.8837;stroke-linecap:round"
         id="rect134"
         width="191.91908"
         height="191.91908"
         x="46.45607"
         y="61.722851"
         ry="0" />
      <g
         clip-path="url(#clipPath100)"
         id="g170"
         transform="translate(241.03169)">
        <g
           id="g258"
           transform="translate(-7.8121929,0.7949836)"
           style="fill:#ec407a">
          <rect
             transform="rotate(30)"
             ry="0"
             y="-31.869276"
             x="-156.54784"
             height="421.83386"
             width="399.96442"
             id="rect250"
             style="fill:#ec407a;fill-opacity:1;stroke-width:15.5299;stroke-linecap:round" />
          <rect
             style="fill:#ec407a;fill-opacity:1;stroke-width:11.8837;stroke-linecap:round"
             id="rect252"
             width="295.17252"
             height="160.77303"
             x="-145.44722"
             y="171.8676"
             ry="0"
             transform="rotate(30)" />
          <rect
             transform="rotate(-150)"
             ry="0"
             y="-143.53963"
             x="-124.3372"
             height="191.91908"
             width="267.7619"
             id="rect254"
             style="fill:#ec407a;fill-opacity:1;stroke-width:11.8837;stroke-linecap:round" />
          <rect
             style="fill:#ec407a;fill-opacity:1;stroke-width:15.5299;stroke-linecap:round"
             id="rect256"
             width="250.80382"
             height="250.80382"
             x="13.722752"
             y="-316.13043"
             ry="0"
             transform="rotate(-150)" />
        </g>
      </g>
      <g
         transform="matrix(0.88947389,0,0,0.88947389,230.62498,17.1476)"
         style="fill:#ffffff;fill-opacity:1"
         id="g154">
        <g
           style="fill:#ffffff;fill-opacity:1"
           id="g150">
          <g
             style="fill:#ffffff;fill-opacity:1"
             id="g140"
             transform="matrix(0.99704157,0,0,1.0667467,-0.95635991,-7.7047039)">
            <path
               inkscape:original-d="m -123.17284,166.26071 c 20.68177,-15.70931 7.35372,-38.59304 15.17263,-46.41195 7.81891,-7.81891 21.269581,-4.59782 25.029,9.43252 3.308992,12.34933 9.359777,17.02036 18.174442,27.75506"
               inkscape:path-effect="#path-effect156"
               sodipodi:nodetypes="czsc"
               id="path136"
               d="m -61.881486,154.64251 -5.830551,4.78768 c -3.362236,-4.45775 -7.267516,-8.85411 -10.702559,-13.82358 -3.292063,-4.77541 -5.631187,-10.12544 -6.903451,-15.6965 -1.210451,-5.10984 -4.346906,-10.17472 -9.183252,-11.90281 -4.071536,-1.60129 -9.285881,-0.52543 -12.712711,2.62766 -0.87062,0.773 -1.50079,1.88005 -1.93059,3.0817 -0.49607,1.40114 -0.71962,2.9401 -0.86557,4.5107 0,1e-5 0,1e-5 0,1e-5 -0.35418,3.89361 -0.21287,7.89349 -0.47758,11.87579 -0.30215,4.57102 -1.10137,9.15256 -2.94154,13.27729 -2.205,4.95602 -5.9318,9.0864 -10.30594,12.13985 4.16136,-3.33359 7.53872,-7.64747 9.32533,-12.52999 1.51279,-4.06661 1.96913,-8.49726 1.98927,-12.9386 0.008,-3.85718 -0.38839,-7.82647 -0.28453,-11.95806 0,0 0,0 0,0 0.0346,-1.67637 0.19163,-3.44744 0.68168,-5.24648 0.42854,-1.59774 1.23137,-3.18272 2.49311,-4.52857 4.10767,-4.25458 10.476909,-6.08654 16.358162,-4.35307 10e-7,0 3e-6,0 4e-6,1e-5 6.65591,2.2013 11.291538,8.10907 13.0607,14.54948 1.42268,4.81966 3.765093,9.34187 6.848748,13.24269 3.395299,4.32731 7.478942,8.35142 11.38127,12.8848 z"
               style="opacity:1;fill:#ffffff;fill-opacity:1;fill-rule:nonzero;stroke:none;stroke-width:0.0700042;stroke-linecap:round;stroke-miterlimit:4;stroke-dasharray:none" />
            <path
               sodipodi:nodetypes="csscc"
               id="path138"
               d="m -110.05866,124.41945 c 0,0 2.9584,0.58765 7.24808,0 4.289685,-0.58765 0.56054,12.80051 -1.30099,14.54723 -3.13077,2.93767 -7.30313,-0.25975 -7.16488,-0.67823 0,0 -1.01588,-9.54352 1.21779,-13.869 z"
               style="opacity:1;fill:#ffffff;fill-opacity:1;stroke:none;stroke-width:0.65014;stroke-linecap:round;stroke-miterlimit:4;stroke-dasharray:none" />
          </g>
          <text
             id="text144"
             y="172.05276"
             x="-161.74739"
             style="font-size:49.0469px;line-height:1.25;font-family:Montserrat;-inkscape-font-specification:Montserrat;letter-spacing:0px;word-spacing:0px;fill:#ffffff;fill-opacity:1;stroke-width:1.22618"
             xml:space="preserve"><tspan
               style="font-style:normal;font-variant:normal;font-weight:normal;font-stretch:normal;font-family:'Tahu!';-inkscape-font-specification:'Tahu!';fill:#ffffff;fill-opacity:1;stroke-width:1.22618"
               y="172.05276"
               x="-161.74739"
               id="tspan142"
               sodipodi:role="line">Aaisyah</tspan></text>
          <text
             id="text148"
             y="186.5517"
             x="-151.61734"
             style="font-size:18.642px;line-height:1.25;font-family:Montserrat;-inkscape-font-specification:Montserrat;letter-spacing:0px;word-spacing:0px;fill:#ffffff;fill-opacity:1;stroke-width:0.466052"
             xml:space="preserve"><tspan
               style="font-style:normal;font-variant:normal;font-weight:normal;font-stretch:normal;font-family:'Tahu!';-inkscape-font-specification:'Tahu!';fill:#ffffff;fill-opacity:1;stroke-width:0.466052"
               y="186.5517"
               x="-151.61734"
               id="tspan146"
               sodipodi:role="line">Collection</tspan></text>
        </g>
        <path
           sodipodi:nodetypes="ccsc"
           id="path152"
           d="m -141.49627,137.37129 -0.5052,3.00668 c 0,0 5.49773,-2.29754 3.52839,-4.51305 -1.96934,-2.21551 -3.02319,1.50637 -3.02319,1.50637 z"
           style="fill:#ffffff;fill-opacity:1;stroke-width:4.47851;stroke-linecap:round" />
      </g>
    </g>
    <rect
       style="fill:#ffffff;fill-opacity:1;stroke-width:11.8837;stroke-linecap:round"
       id="rect19"
       width="191.91908"
       height="191.91908"
       x="-194.57562"
       y="61.722851"
       ry="0" />
    <g
       clip-path="url(#clipPath100)"
       id="g96">
      <g
         transform="rotate(180,-95.105503,251.71178)"
         id="g128">
        <g
           transform="translate(-139.91414,-9.4766382)"
           id="g309">
          <rect
             style="fill:url(#linearGradient132);fill-opacity:1;stroke-width:15.5299;stroke-linecap:round"
             id="rect126"
             width="250.80382"
             height="250.80382"
             x="61.018875"
             y="2.4403262"
             ry="0"
             transform="rotate(30)" />
          <rect
             transform="rotate(30)"
             ry="0"
             y="219.04178"
             x="-80.877541"
             height="191.91908"
             width="191.91908"
             id="rect124"
             style="fill:url(#linearGradient130);fill-opacity:1;stroke-width:11.8837;stroke-linecap:round" />
        </g>
        <g
           transform="rotate(-180,-0.71208086,334.45669)"
           id="g315">
          <rect
             transform="rotate(30)"
             ry="0"
             y="2.4403262"
             x="61.018875"
             height="250.80382"
             width="250.80382"
             id="rect311"
             style="fill:url(#linearGradient317);fill-opacity:1;stroke-width:15.5299;stroke-linecap:round" />
          <rect
             style="fill:url(#linearGradient319);fill-opacity:1;stroke-width:11.8837;stroke-linecap:round"
             id="rect313"
             width="191.91908"
             height="191.91908"
             x="-80.877541"
             y="219.04178"
             ry="0"
             transform="rotate(30)" />
        </g>
      </g>
    </g>
    <g
       transform="matrix(0.77559108,0,0,0.77559108,-21.12947,34.815975)"
       style="fill:#ec407a;fill-opacity:1"
       id="g60">
      <g
         style="fill:#ec407a;fill-opacity:1"
         id="g1252">
        <g
           style="fill:#ec407a;fill-opacity:1"
           id="g1147"
           transform="matrix(0.99704157,0,0,1.0667467,-0.95635991,-7.7047039)">
          <path
             inkscape:original-d="m -123.17284,166.26071 c 20.68177,-15.70931 7.35372,-38.59304 15.17263,-46.41195 7.81891,-7.81891 21.269581,-4.59782 25.029,9.43252 3.308992,12.34933 9.359777,17.02036 18.174442,27.75506"
             inkscape:path-effect="#path-effect1100"
             sodipodi:nodetypes="czsc"
             id="path1051"
             d="m -61.881486,154.64251 -5.830551,4.78768 c -3.362236,-4.45775 -7.267516,-8.85411 -10.702559,-13.82358 -3.292063,-4.77541 -5.631187,-10.12544 -6.903451,-15.6965 -1.210451,-5.10984 -4.346906,-10.17472 -9.183252,-11.90281 -4.071536,-1.60129 -9.285881,-0.52543 -12.712711,2.62766 -0.87062,0.773 -1.50079,1.88005 -1.93059,3.0817 -0.49607,1.40114 -0.71962,2.9401 -0.86557,4.5107 0,1e-5 0,1e-5 0,1e-5 -0.35418,3.89361 -0.21287,7.89349 -0.47758,11.87579 -0.30215,4.57102 -1.10137,9.15256 -2.94154,13.27729 -2.205,4.95602 -5.9318,9.0864 -10.30594,12.13985 4.16136,-3.33359 7.53872,-7.64747 9.32533,-12.52999 1.51279,-4.06661 1.96913,-8.49726 1.98927,-12.9386 0.008,-3.85718 -0.38839,-7.82647 -0.28453,-11.95806 0,0 0,0 0,0 0.0346,-1.67637 0.19163,-3.44744 0.68168,-5.24648 0.42854,-1.59774 1.23137,-3.18272 2.49311,-4.52857 4.10767,-4.25458 10.476909,-6.08654 16.358162,-4.35307 10e-7,0 3e-6,0 4e-6,1e-5 6.65591,2.2013 11.291538,8.10907 13.0607,14.54948 1.42268,4.81966 3.765093,9.34187 6.848748,13.24269 3.395299,4.32731 7.478942,8.35142 11.38127,12.8848 z"
             style="opacity:1;fill:#ec407a;fill-opacity:1;fill-rule:nonzero;stroke:none;stroke-width:0.0700042;stroke-linecap:round;stroke-miterlimit:4;stroke-dasharray:none" />
          <path
             sodipodi:nodetypes="csscc"
             id="path1137"
             d="m -110.05866,124.41945 c 0,0 2.9584,0.58765 7.24808,0 4.289685,-0.58765 0.56054,12.80051 -1.30099,14.54723 -3.13077,2.93767 -7.30313,-0.25975 -7.16488,-0.67823 0,0 -1.01588,-9.54352 1.21779,-13.869 z"
             style="opacity:1;fill:#ec407a;fill-opacity:1;stroke:none;stroke-width:0.65014;stroke-linecap:round;stroke-miterlimit:4;stroke-dasharray:none" />
        </g>
        <text
           id="text9"
           y="172.05276"
           x="-161.74739"
           style="font-size:49.0469px;line-height:1.25;font-family:Montserrat;-inkscape-font-specification:Montserrat;letter-spacing:0px;word-spacing:0px;fill:#ec407a;fill-opacity:1;stroke-width:1.22618"
           xml:space="preserve"><tspan
             style="font-style:normal;font-variant:normal;font-weight:normal;font-stretch:normal;font-family:'Tahu!';-inkscape-font-specification:'Tahu!';fill:#ec407a;fill-opacity:1;stroke-width:1.22618"
             y="172.05276"
             x="-161.74739"
             id="tspan7"
             sodipodi:role="line">Aaisyah</tspan></text>
        <text
           id="text13"
           y="186.5517"
           x="-151.61734"
           style="font-size:18.642px;line-height:1.25;font-family:Montserrat;-inkscape-font-specification:Montserrat;letter-spacing:0px;word-spacing:0px;fill:#ec407a;fill-opacity:1;stroke-width:0.466052"
           xml:space="preserve"><tspan
             style="font-style:normal;font-variant:normal;font-weight:normal;font-stretch:normal;font-family:'Tahu!';-inkscape-font-specification:'Tahu!';fill:#ec407a;fill-opacity:1;stroke-width:0.466052"
             y="186.5517"
             x="-151.61734"
             id="tspan11"
             sodipodi:role="line">Collection</tspan></text>
      </g>
      <path
         sodipodi:nodetypes="ccsc"
         id="path90"
         d="m -141.49627,137.37129 -0.5052,3.00668 c 0,0 5.49773,-2.29754 3.52839,-4.51305 -1.96934,-2.21551 -3.02319,1.50637 -3.02319,1.50637 z"
         style="fill:#ec407a;fill-opacity:1;stroke-width:4.47851;stroke-linecap:round" />
    </g>
  </g>
</svg>
