<?xml version="1.0" encoding="UTF-8" standalone="no"?>
<svg
   xmlns:dc="http://purl.org/dc/elements/1.1/"
   xmlns:cc="http://creativecommons.org/ns#"
   xmlns:rdf="http://www.w3.org/1999/02/22-rdf-syntax-ns#"
   xmlns:svg="http://www.w3.org/2000/svg"
   xmlns="http://www.w3.org/2000/svg"
   xmlns:sodipodi="http://sodipodi.sourceforge.net/DTD/sodipodi-0.dtd"
   xmlns:inkscape="http://www.inkscape.org/namespaces/inkscape"
   width="210mm"
   height="297mm"
   viewBox="0 0 210 297"
   version="1.1"
   id="svg11256"
   inkscape:version="1.0 (1.0+r73+1)"
   sodipodi:docname="OurLogo.svg">
  <defs
     id="defs11250" />
  <sodipodi:namedview
     id="base"
     pagecolor="#ffffff"
     bordercolor="#666666"
     borderopacity="1.0"
     inkscape:pageopacity="0.0"
     inkscape:pageshadow="2"
     inkscape:zoom="0.32376225"
     inkscape:cx="-136.40043"
     inkscape:cy="1233.5572"
     inkscape:document-units="mm"
     inkscape:current-layer="layer1"
     showgrid="false"
     inkscape:pagecheckerboard="true"
     inkscape:showpageshadow="false"
     inkscape:window-width="1306"
     inkscape:window-height="672"
     inkscape:window-x="30"
     inkscape:window-y="40"
     inkscape:window-maximized="1"
     inkscape:document-rotation="0"
     inkscape:snap-global="false" />
  <metadata
     id="metadata11253">
    <rdf:RDF>
      <cc:Work
         rdf:about="">
        <dc:format>image/svg+xml</dc:format>
        <dc:type
           rdf:resource="http://purl.org/dc/dcmitype/StillImage" />
        <dc:title />
      </cc:Work>
    </rdf:RDF>
  </metadata>
  <g
     inkscape:label="Layer 1"
     inkscape:groupmode="layer"
     id="layer1">
    <rect
       ry="0"
       y="-42.188271"
       x="-381.6109"
       height="499.80466"
       width="407.92416"
       id="rect3417"
       style="fill:#1a1a1a;stroke:none;stroke-width:8.73273;stroke-linecap:square;stroke-miterlimit:4;stroke-dasharray:none" />
    <rect
       style="opacity:1;fill:#1e88e5;stroke-width:3.54856;stroke-linecap:square"
       id="rect5561"
       width="70.667923"
       height="71.798882"
       x="-242.08138"
       y="290.47925"
       ry="0" />
    <circle
       r="20.246283"
       cy="16.164389"
       cx="-179.37671"
       id="path4347"
       style="opacity:1;fill:#ffffff;fill-opacity:1;stroke:none;stroke-width:0.296225;stroke-linecap:square;stroke-miterlimit:4;stroke-dasharray:none" />
    <g
       transform="matrix(2.378445,0,0,2.378445,1207.6311,-2661.5106)"
       id="g3507">
      <path
         d="m -631.48694,1135.4233 v 1.4867 h -6.8535 v -1.1745 l 4.35591,-5.2776 h -4.26671 v -1.4867 h 6.64537 v 1.1745 l -4.37078,5.2776 z"
         style="font-style:normal;font-variant:normal;font-weight:600;font-stretch:normal;font-size:14.8666px;line-height:1.25;font-family:Montserrat;-inkscape-font-specification:'Montserrat Semi-Bold';letter-spacing:0px;word-spacing:0px;fill:#ffffff;stroke-width:0.371668"
         id="path3474" />
      <path
         transform="matrix(0.11940271,0,0,0.11940271,-341.54096,644.8789)"
         d="m -2377.4727,4053.5352 c -4.5652,0 -8.7159,0.7879 -12.4511,2.3652 -3.7352,1.5773 -6.8477,3.8614 -9.3379,6.8496 v -8.4668 h -14.8164 v 66.4863 h 15.5644 v -33.7422 c 0,-6.4738 1.5343,-11.4128 4.6055,-14.8164 3.1542,-3.403 7.3888,-5.1035 12.7012,-5.1035 4.8143,0 8.5069,1.4942 11.08,4.4824 2.5732,2.9051 3.8594,7.2617 3.8594,13.0723 v 13.5625 h 15.5645 v -11.1973 c 0,-6.3912 1.5762,-11.2883 4.7304,-14.6914 3.1542,-3.4862 7.3469,-5.2285 12.5762,-5.2285 4.8143,0 8.5069,1.4942 11.0801,4.4824 2.5731,2.9051 3.8613,7.2617 3.8613,13.0723 v 36.1074 h 15.5625 v -38.0996 c 0,-9.7117 -2.4484,-16.9731 -7.3457,-21.7871 -4.8973,-4.8977 -11.5383,-7.3476 -19.9219,-7.3476 -5.2293,0 -10.002,0.9961 -14.3183,2.9882 -4.3163,1.9095 -7.8429,4.6075 -10.582,8.0938 -2.2412,-3.6526 -5.3136,-6.3911 -9.2149,-8.2168 -3.8182,-1.9095 -8.2169,-2.8652 -13.1973,-2.8652 z"
         style="font-style:normal;font-variant:normal;font-weight:600;font-stretch:normal;font-size:14.8666px;line-height:1.25;font-family:Montserrat;-inkscape-font-specification:'Montserrat Semi-Bold';letter-spacing:0px;word-spacing:0px;fill:#ffffff;stroke-width:3.11273"
         id="path3476" />
      <rect
         ry="0"
         y="1135.2363"
         x="-624.09045"
         height="1.6860352"
         width="7.5779166"
         id="rect3478"
         style="opacity:1;fill:#ffffff;stroke:none;stroke-width:3.2;stroke-linecap:square;stroke-miterlimit:4;stroke-dasharray:none" />
      <rect
         style="opacity:1;fill:#ffffff;stroke:none;stroke-width:3.2;stroke-linecap:square;stroke-miterlimit:4;stroke-dasharray:none"
         id="rect3480"
         width="1.6297685"
         height="1.682373"
         x="-626.84192"
         y="1135.2363"
         ry="0.84117854" />
      <path
         id="path3492"
         style="font-style:normal;font-variant:normal;font-weight:600;font-stretch:normal;font-size:14.8666px;line-height:1.25;font-family:Montserrat;-inkscape-font-specification:'Montserrat Semi-Bold';letter-spacing:0px;word-spacing:0px;fill:#ffffff;stroke-width:1.40473"
         d="m -2432.5332,4266.8379 v 6.0234 c 0.1861,-0.01 0.3272,-0.096 0.5195,-0.096 2.1727,0 3.8407,0.6749 5.002,2.0235 1.1612,1.311 1.7402,3.2762 1.7402,5.8984 v 16.2949 h 7.0254 v -17.1933 c 0,-4.3828 -1.1063,-7.6615 -3.3164,-9.834 -2.2101,-2.2103 -5.2069,-3.3145 -8.9902,-3.3145 -0.6905,0 -1.3254,0.1204 -1.9805,0.1973 z"
         transform="scale(0.26458333)" />
      <path
         d="m -642.98512,1128.9342 v 1.5937 c -0.0492,0 -0.0866,-0.025 -0.13745,-0.025 -0.57486,0 -1.01618,0.1785 -1.32344,0.5353 -0.30724,0.3469 -0.46043,0.8669 -0.46043,1.5607 v 4.3113 h -1.8588 v -4.549 c 0,-1.1597 0.2927,-2.0272 0.87746,-2.602 0.58476,-0.5848 1.37766,-0.8769 2.37866,-0.8769 0.18269,0 0.35068,0.032 0.524,0.052 z"
         style="font-style:normal;font-variant:normal;font-weight:600;font-stretch:normal;font-size:14.8666px;line-height:1.25;font-family:Montserrat;-inkscape-font-specification:'Montserrat Semi-Bold';letter-spacing:0px;word-spacing:0px;fill:#ffffff;stroke-width:0.371668"
         id="path3496" />
      <rect
         style="opacity:1;fill:#ffffff;stroke:none;stroke-width:3.2;stroke-linecap:square;stroke-miterlimit:4;stroke-dasharray:none"
         id="rect3484"
         width="6.7238169"
         height="1.682373"
         x="-646.5791"
         y="1133.6959"
         ry="0.84117854" />
    </g>
    <g
       id="g6033"
       transform="matrix(0.74971819,0,0,0.74971819,-83.066617,-0.24133759)">
      <path
         id="path3427"
         style="font-style:normal;font-variant:normal;font-weight:600;font-stretch:normal;font-size:14.8666px;line-height:1.25;font-family:Montserrat;-inkscape-font-specification:'Montserrat Semi-Bold';letter-spacing:0px;word-spacing:0px;fill:#ffffff;stroke-width:1.1791"
         d="m -320.47875,-0.96426339 q 5.5653,0 8.48944,2.68838089 2.97129,2.6413425 2.97129,8.0180446 V 24.504238 h -5.5653 v -3.065549 q -1.08475,1.650599 -3.11277,2.546804 -1.98089,0.848993 -4.81071,0.848993 -2.8298,0 -4.95216,-0.943474 -2.12237,-0.990569 -3.30145,-2.688379 -1.13193,-1.74479 -1.13193,-3.914542 0,-3.395795 2.49967,-5.423912 2.54684,-2.075097 7.97066,-2.075097 h 6.50856 V 9.4118552 q 0,-2.6410515 -1.60358,-4.0559426 -1.55636,-1.4149495 -4.66917,-1.4149495 -2.12237,0 -4.19757,0.6601469 -2.02802,0.660263 -3.44293,1.8394454 l -2.31101,-4.2920572 q 1.98084,-1.50914006 4.7635,-2.31074699 2.78265,-0.8020146 5.89546,-0.8020146 z m -0.80178,21.50674839 q 2.21669,0 3.91456,-0.990452 1.74507,-1.037664 2.45252,-2.924089 v -2.92432 h -6.08409 q -5.0937,0 -5.0937,3.348817 0,1.603329 1.27343,2.546802 1.27342,0.943242 3.53728,0.943242 z" />
      <path
         id="path3429"
         style="font-style:normal;font-variant:normal;font-weight:600;font-stretch:normal;font-size:14.8666px;line-height:1.25;font-family:Montserrat;-inkscape-font-specification:'Montserrat Semi-Bold';letter-spacing:0px;word-spacing:0px;fill:#ffffff;stroke-width:1.1791"
         d="m -281.78474,19.787683 v 4.716555 h -21.74239 v -3.726102 l 13.81891,-16.7429824 h -13.53592 v -4.71637901 h 21.08211 V 3.044701 l -13.86609,16.742982 z" />
      <path
         id="path3431"
         style="font-style:normal;font-variant:normal;font-weight:600;font-stretch:normal;font-size:14.8666px;line-height:1.25;font-family:Montserrat;-inkscape-font-specification:'Montserrat Semi-Bold';letter-spacing:0px;word-spacing:0px;fill:#ffffff;stroke-width:1.1791"
         d="m -244.60804,-0.96426339 q 4.76354,0 7.54618,2.78292039 2.78265,2.7351841 2.78265,8.253461 v 14.43212 h -5.89545 V 10.826805 q 0,-3.3016064 -1.46206,-4.9522048 -1.46209,-1.6978704 -4.19757,-1.6978704 -2.97131,0 -4.76354,1.9809067 -1.7922,1.9336352 -1.7922,5.5650815 v 12.78152 h -5.89543 V 10.826805 q 0,-3.3016064 -1.46209,-4.9522048 -1.46205,-1.6978704 -4.19754,-1.6978704 -3.01849,0 -4.81071,1.9335205 -1.74503,1.9340416 -1.74503,5.6124677 v 12.78152 h -5.89546 V -0.68122541 h 5.61247 V 2.5260148 q 1.41492,-1.69781156 3.53726,-2.59407303 2.12237,-0.89620516 4.71636,-0.89620516 2.82982,0 4.99934,1.08493528 2.21669,1.03737251 3.49011,3.11287481 1.5564,-1.980846 4.0089,-3.06595491 2.45253,-1.13185518 5.42381,-1.13185518 z" />
      <rect
         style="opacity:1;fill:#ffffff;stroke:none;stroke-width:10.1518;stroke-linecap:square;stroke-miterlimit:4;stroke-dasharray:none"
         id="rect3468"
         width="23.51498"
         height="5.3371968"
         x="-257.88116"
         y="19.194506"
         ry="2.6685984" />
      <rect
         ry="2.6685984"
         y="19.194506"
         x="-267.04871"
         height="5.3372474"
         width="5.1703625"
         id="rect3470"
         style="opacity:1;fill:#ffffff;stroke:none;stroke-width:10.1518;stroke-linecap:square;stroke-miterlimit:4;stroke-dasharray:none" />
    </g>
    <g
       transform="matrix(2.378445,0,0,2.378445,1207.6311,-2633.6014)"
       id="g3524">
      <path
         id="path3510"
         style="font-style:normal;font-variant:normal;font-weight:600;font-stretch:normal;font-size:14.8666px;line-height:1.25;font-family:Montserrat;-inkscape-font-specification:'Montserrat Semi-Bold';letter-spacing:0px;word-spacing:0px;fill:#ffffff;stroke-width:0.371668"
         d="m -631.48694,1135.4233 v 1.4867 h -6.8535 v -1.1745 l 4.35591,-5.2776 h -4.26671 v -1.4867 h 6.64537 v 1.1745 l -4.37078,5.2776 z" />
      <path
         id="path3512"
         style="font-style:normal;font-variant:normal;font-weight:600;font-stretch:normal;font-size:14.8666px;line-height:1.25;font-family:Montserrat;-inkscape-font-specification:'Montserrat Semi-Bold';letter-spacing:0px;word-spacing:0px;fill:#ffffff;stroke-width:0.371668"
         d="m -619.76834,1128.882 q 1.50153,0 2.37866,0.8772 0.87713,0.8622 0.87713,2.6016 v 4.5492 h -1.85833 v -4.3113 q 0,-1.0407 -0.46086,-1.561 -0.46087,-0.5352 -1.32313,-0.5352 -0.9366,0 -1.50153,0.6244 -0.56493,0.6095 -0.56493,1.7542 v 4.0289 h -1.85832 v -4.3113 q 0,-1.0407 -0.46087,-1.561 -0.46086,-0.5352 -1.32312,-0.5352 -0.95147,0 -1.5164,0.6095 -0.55006,0.6096 -0.55006,1.7691 v 4.0289 h -1.85833 v -7.9388 h 1.76913 v 1.011 q 0.446,-0.5352 1.11499,-0.8177 0.669,-0.2825 1.48666,-0.2825 0.892,0 1.57586,0.342 0.69873,0.327 1.10013,0.9812 0.4906,-0.6244 1.26366,-0.9664 0.77307,-0.3568 1.70966,-0.3568 z" />
      <rect
         style="opacity:1;fill:#ffffff;stroke:none;stroke-width:3.2;stroke-linecap:square;stroke-miterlimit:4;stroke-dasharray:none"
         id="rect3516"
         width="7.5779166"
         height="1.6860352"
         x="-624.08911"
         y="1135.2363"
         ry="0" />
      <rect
         ry="0.84117854"
         y="1135.2363"
         x="-626.84192"
         height="1.682373"
         width="1.6297685"
         id="rect3518"
         style="opacity:1;fill:#ffffff;stroke:none;stroke-width:3.2;stroke-linecap:square;stroke-miterlimit:4;stroke-dasharray:none" />
      <path
         transform="scale(0.26458333)"
         d="m -2432.5332,4266.8379 v 6.0234 c 0.1861,-0.01 0.3272,-0.096 0.5195,-0.096 2.1727,0 3.8407,0.6749 5.002,2.0235 1.1612,1.311 1.7402,3.2762 1.7402,5.8984 v 16.2949 h 7.0254 v -17.1933 c 0,-4.3828 -1.1063,-7.6615 -3.3164,-9.834 -2.2101,-2.2103 -5.2069,-3.3145 -8.9902,-3.3145 -0.6905,0 -1.3254,0.1204 -1.9805,0.1973 z"
         style="font-style:normal;font-variant:normal;font-weight:600;font-stretch:normal;font-size:14.8666px;line-height:1.25;font-family:Montserrat;-inkscape-font-specification:'Montserrat Semi-Bold';letter-spacing:0px;word-spacing:0px;fill:#ffffff;stroke-width:1.40473"
         id="path3520" />
      <path
         id="path3522"
         style="font-style:normal;font-variant:normal;font-weight:600;font-stretch:normal;font-size:14.8666px;line-height:1.25;font-family:Montserrat;-inkscape-font-specification:'Montserrat Semi-Bold';letter-spacing:0px;word-spacing:0px;fill:#ffffff;stroke-width:0.371668"
         d="m -642.98512,1128.9342 v 1.5937 c -0.0492,0 -0.0866,-0.025 -0.13745,-0.025 -0.57486,0 -1.01618,0.1785 -1.32344,0.5353 -0.30724,0.3469 -0.46043,0.8669 -0.46043,1.5607 v 4.3113 h -1.8588 v -4.549 c 0,-1.1597 0.2927,-2.0272 0.87746,-2.602 0.58476,-0.5848 1.37766,-0.8769 2.37866,-0.8769 0.18269,0 0.35068,0.032 0.524,0.052 z" />
      <rect
         ry="0.84117854"
         y="1133.8939"
         x="-646.5791"
         height="1.682373"
         width="6.7238169"
         id="rect3526"
         style="opacity:1;fill:#ffffff;stroke:none;stroke-width:3.2;stroke-linecap:square;stroke-miterlimit:4;stroke-dasharray:none" />
    </g>
    <g
       id="g3558"
       transform="matrix(2.378445,0,0,2.378445,1207.6311,-2608.8484)">
      <path
         d="m -631.48694,1135.4233 v 1.4867 h -6.8535 v -1.1745 l 4.35591,-5.2776 h -4.26671 v -1.4867 h 6.64537 v 1.1745 l -4.37078,5.2776 z"
         style="font-style:normal;font-variant:normal;font-weight:600;font-stretch:normal;font-size:14.8666px;line-height:1.25;font-family:Montserrat;-inkscape-font-specification:'Montserrat Semi-Bold';letter-spacing:0px;word-spacing:0px;fill:#ffffff;stroke-width:0.371668"
         id="path3543" />
      <path
         d="m -619.76834,1128.882 q 1.50153,0 2.37866,0.8772 0.87713,0.8622 0.87713,2.6016 v 4.5492 h -1.85833 v -4.3113 q 0,-1.0407 -0.46086,-1.561 -0.46087,-0.5352 -1.32313,-0.5352 -0.9366,0 -1.50153,0.6244 -0.56493,0.6095 -0.56493,1.7542 v 4.0289 h -1.85832 v -4.3113 q 0,-1.0407 -0.46087,-1.561 -0.46086,-0.5352 -1.32312,-0.5352 -0.95147,0 -1.5164,0.6095 -0.55006,0.6096 -0.55006,1.7691 v 4.0289 h -1.85833 v -7.9388 h 1.76913 v 1.011 q 0.446,-0.5352 1.11499,-0.8177 0.669,-0.2825 1.48666,-0.2825 0.892,0 1.57586,0.342 0.69873,0.327 1.10013,0.9812 0.4906,-0.6244 1.26366,-0.9664 0.77307,-0.3568 1.70966,-0.3568 z"
         style="font-style:normal;font-variant:normal;font-weight:600;font-stretch:normal;font-size:14.8666px;line-height:1.25;font-family:Montserrat;-inkscape-font-specification:'Montserrat Semi-Bold';letter-spacing:0px;word-spacing:0px;fill:#ffffff;stroke-width:0.371668"
         id="path3546" />
      <rect
         style="opacity:1;fill:#1a1a1a;fill-opacity:1;stroke:none;stroke-width:7.47282;stroke-linecap:square;stroke-miterlimit:4;stroke-dasharray:none"
         id="rect3550"
         width="3.8059258"
         height="3.9287708"
         x="-619.42151"
         y="1129.6722"
         ry="1.9643667" />
      <path
         id="path3552"
         style="font-style:normal;font-variant:normal;font-weight:600;font-stretch:normal;font-size:14.8666px;line-height:1.25;font-family:Montserrat;-inkscape-font-specification:'Montserrat Semi-Bold';letter-spacing:0px;word-spacing:0px;fill:#ffffff;stroke-width:1.40473"
         d="m -2432.5332,4266.8379 v 6.0234 c 0.1861,-0.01 0.3272,-0.096 0.5195,-0.096 2.1727,0 3.8407,0.6749 5.002,2.0235 1.1612,1.311 1.7402,3.2762 1.7402,5.8984 v 16.2949 h 7.0254 v -17.1933 c 0,-4.3828 -1.1063,-7.6615 -3.3164,-9.834 -2.2101,-2.2103 -5.2069,-3.3145 -8.9902,-3.3145 -0.6905,0 -1.3254,0.1204 -1.9805,0.1973 z"
         transform="scale(0.26458333)" />
      <path
         d="m -642.98512,1128.9342 v 1.5937 c -0.0492,0 -0.0866,-0.025 -0.13745,-0.025 -0.57486,0 -1.01618,0.1785 -1.32344,0.5353 -0.30724,0.3469 -0.46043,0.8669 -0.46043,1.5607 v 4.3113 h -1.8588 v -4.549 c 0,-1.1597 0.2927,-2.0272 0.87746,-2.602 0.58476,-0.5848 1.37766,-0.8769 2.37866,-0.8769 0.18269,0 0.35068,0.032 0.524,0.052 z"
         style="font-style:normal;font-variant:normal;font-weight:600;font-stretch:normal;font-size:14.8666px;line-height:1.25;font-family:Montserrat;-inkscape-font-specification:'Montserrat Semi-Bold';letter-spacing:0px;word-spacing:0px;fill:#ffffff;stroke-width:0.371668"
         id="path3554" />
      <rect
         style="opacity:1;fill:#ffffff;stroke:none;stroke-width:3.2;stroke-linecap:square;stroke-miterlimit:4;stroke-dasharray:none"
         id="rect3556"
         width="6.7238169"
         height="1.682373"
         x="-646.5791"
         y="1133.8939"
         ry="0.84117854" />
      <rect
         ry="0.97919488"
         y="1130.6575"
         x="-618.4671"
         height="1.9584084"
         width="1.8971728"
         id="rect3560"
         style="opacity:1;fill:#ffffff;fill-opacity:1;stroke:none;stroke-width:3.72504;stroke-linecap:square;stroke-miterlimit:4;stroke-dasharray:none" />
    </g>
    <g
       id="g3576"
       transform="matrix(2.378445,0,0,2.378445,1207.6311,-2582.8732)">
      <path
         d="m -631.48694,1135.4233 v 1.4867 h -6.8535 v -1.1745 l 4.35591,-5.2776 h -4.26671 v -1.4867 h 6.64537 v 1.1745 l -4.37078,5.2776 z"
         style="font-style:normal;font-variant:normal;font-weight:600;font-stretch:normal;font-size:14.8666px;line-height:1.25;font-family:Montserrat;-inkscape-font-specification:'Montserrat Semi-Bold';letter-spacing:0px;word-spacing:0px;fill:#ffffff;stroke-width:0.371668"
         id="path3562" />
      <path
         d="m -619.76834,1128.882 q 1.50153,0 2.37866,0.8772 0.87713,0.8622 0.87713,2.6016 v 4.5492 h -1.85833 v -4.3113 q 0,-1.0407 -0.46086,-1.561 -0.46087,-0.5352 -1.32313,-0.5352 -0.9366,0 -1.50153,0.6244 -0.56493,0.6095 -0.56493,1.7542 v 4.0289 h -1.85832 v -4.3113 q 0,-1.0407 -0.46087,-1.561 -0.46086,-0.5352 -1.32312,-0.5352 -0.95147,0 -1.5164,0.6095 -0.55006,0.6096 -0.55006,1.7691 v 4.0289 h -1.85833 v -7.9388 h 1.76913 v 1.011 q 0.446,-0.5352 1.11499,-0.8177 0.669,-0.2825 1.48666,-0.2825 0.892,0 1.57586,0.342 0.69873,0.327 1.10013,0.9812 0.4906,-0.6244 1.26366,-0.9664 0.77307,-0.3568 1.70966,-0.3568 z"
         style="font-style:normal;font-variant:normal;font-weight:600;font-stretch:normal;font-size:14.8666px;line-height:1.25;font-family:Montserrat;-inkscape-font-specification:'Montserrat Semi-Bold';letter-spacing:0px;word-spacing:0px;fill:#ffffff;stroke-width:0.371668"
         id="path3564" />
      <rect
         style="opacity:1;fill:#1a1a1a;fill-opacity:1;stroke:none;stroke-width:4.71289;stroke-linecap:square;stroke-miterlimit:4;stroke-dasharray:none"
         id="rect3578"
         width="14.361307"
         height="2.7871237"
         x="-630.27869"
         y="1134.4886"
         ry="0" />
      <rect
         ry="0"
         y="1135.2363"
         x="-629.7135"
         height="1.6860352"
         width="13.202321"
         id="rect3566"
         style="opacity:1;fill:#ffffff;stroke:none;stroke-width:3.2;stroke-linecap:square;stroke-miterlimit:4;stroke-dasharray:none" />
      <path
         id="path3570"
         style="font-style:normal;font-variant:normal;font-weight:600;font-stretch:normal;font-size:14.8666px;line-height:1.25;font-family:Montserrat;-inkscape-font-specification:'Montserrat Semi-Bold';letter-spacing:0px;word-spacing:0px;fill:#ffffff;stroke-width:1.40473"
         d="m -2432.5332,4266.8379 v 6.0234 c 0.1861,-0.01 0.3272,-0.096 0.5195,-0.096 2.1727,0 3.8407,0.6749 5.002,2.0235 1.1612,1.311 1.7402,3.2762 1.7402,5.8984 v 16.2949 h 7.0254 v -17.1933 c 0,-4.3828 -1.1063,-7.6615 -3.3164,-9.834 -2.2101,-2.2103 -5.2069,-3.3145 -8.9902,-3.3145 -0.6905,0 -1.3254,0.1204 -1.9805,0.1973 z"
         transform="scale(0.26458333)" />
      <path
         d="m -642.98512,1128.9342 v 1.5937 c -0.0492,0 -0.0866,-0.025 -0.13745,-0.025 -0.57486,0 -1.01618,0.1785 -1.32344,0.5353 -0.30724,0.3469 -0.46043,0.8669 -0.46043,1.5607 v 4.3113 h -1.8588 v -4.549 c 0,-1.1597 0.2927,-2.0272 0.87746,-2.602 0.58476,-0.5848 1.37766,-0.8769 2.37866,-0.8769 0.18269,0 0.35068,0.032 0.524,0.052 z"
         style="font-style:normal;font-variant:normal;font-weight:600;font-stretch:normal;font-size:14.8666px;line-height:1.25;font-family:Montserrat;-inkscape-font-specification:'Montserrat Semi-Bold';letter-spacing:0px;word-spacing:0px;fill:#ffffff;stroke-width:0.371668"
         id="path3572" />
      <rect
         style="opacity:1;fill:#ffffff;stroke:none;stroke-width:3.2;stroke-linecap:square;stroke-miterlimit:4;stroke-dasharray:none"
         id="rect3574"
         width="6.7238169"
         height="1.682373"
         x="-646.5791"
         y="1133.8939"
         ry="0.84117854" />
      <path
         sodipodi:nodetypes="cscccc"
         id="path3591"
         d="m -627.99196,1129.4597 c 0,0 -1.95002,0.4386 -1.95002,2.168 0,1.1888 -0.41416,-2.5011 -0.41416,-2.5011 l 0.79984,-1.2448 1.72925,-0.086 z"
         style="opacity:1;fill:#1a1a1a;fill-opacity:1;stroke:none;stroke-width:0.0902572;stroke-linecap:square;stroke-miterlimit:4;stroke-dasharray:none" />
    </g>
    <g
       style="fill:#1a1a1a;fill-opacity:1"
       transform="matrix(1.4384186,0,0,1.4384186,650.422,-1565.3887)"
       id="g4299">
      <path
         transform="scale(0.26458333)"
         d="m -2189.8105,4137.6934 c -2.3614,0 -4.5074,0.4087 -6.4395,1.2246 -1.932,0.8158 -3.542,1.9974 -4.8301,3.5429 v -4.3808 h -7.664 v 34.3906 h 8.0507 v -17.4531 c 0,-3.3487 0.7943,-5.9016 2.3829,-7.6621 1.6315,-1.7603 3.8205,-2.6407 6.5683,-2.6407 2.4902,0 4.4015,0.7728 5.7324,2.3184 1.331,1.5027 1.9961,3.7562 1.9961,6.7617 v 7.0156 h 8.0508 v -5.7929 c 0,-3.3058 0.8158,-5.8374 2.4473,-7.5977 1.6315,-1.8033 3.799,-2.7051 6.5039,-2.7051 2.4902,0 4.4014,0.7728 5.7324,2.3184 1.331,1.5027 1.9961,3.7562 1.9961,6.7617 v 18.6758 h 8.0508 v -19.707 c 0,-5.0233 -1.2677,-8.7796 -3.8008,-11.2696 -2.5332,-2.5335 -5.9683,-3.8007 -10.3047,-3.8007 -2.7049,0 -5.1736,0.5163 -7.4062,1.5468 -2.2326,0.9878 -4.0558,2.3822 -5.4727,4.1856 -1.1592,-1.8895 -2.7477,-3.3056 -4.7656,-4.25 -1.975,-0.9877 -4.252,-1.4824 -6.8281,-1.4824 z"
         style="font-style:normal;font-variant:normal;font-weight:600;font-stretch:normal;font-size:14.8666px;line-height:1.25;font-family:Montserrat;-inkscape-font-specification:'Montserrat Semi-Bold';letter-spacing:0px;word-spacing:0px;fill:#1a1a1a;fill-opacity:1;stroke-width:1.61007"
         id="path4293" />
      <rect
         ry="0"
         y="1102.0481"
         x="-577.86584"
         height="1.9324906"
         width="8.6856146"
         id="rect4295"
         style="opacity:1;fill:#1a1a1a;fill-opacity:1;stroke:none;stroke-width:3.66776;stroke-linecap:square;stroke-miterlimit:4;stroke-dasharray:none" />
      <rect
         style="opacity:1;fill:#1a1a1a;fill-opacity:1;stroke:none;stroke-width:3.66776;stroke-linecap:square;stroke-miterlimit:4;stroke-dasharray:none"
         id="rect4297"
         width="1.8679991"
         height="1.9282932"
         x="-581.01965"
         y="1102.0481"
         ry="0.96413738" />
    </g>
    <circle
       style="opacity:1;fill:#333333;fill-opacity:1;stroke:none;stroke-width:0.296225;stroke-linecap:square;stroke-miterlimit:4;stroke-dasharray:none"
       id="circle4353"
       cx="-179.37671"
       cy="64.600632"
       r="20.246283" />
    <g
       style="fill:#1a1a1a;fill-opacity:1"
       id="g4371"
       transform="matrix(0.51692351,0,0,0.51692351,146.64523,-520.81111)">
      <path
         id="path4357"
         style="font-style:normal;font-variant:normal;font-weight:600;font-stretch:normal;font-size:14.8666px;line-height:1.25;font-family:Montserrat;-inkscape-font-specification:'Montserrat Semi-Bold';letter-spacing:0px;word-spacing:0px;fill:#1a1a1a;fill-opacity:1;stroke-width:0.371668"
         d="m -631.48694,1135.4233 v 1.4867 h -6.8535 v -1.1745 l 4.35591,-5.2776 h -4.26671 v -1.4867 h 6.64537 v 1.1745 l -4.37078,5.2776 z" />
      <path
         id="path4359"
         style="font-style:normal;font-variant:normal;font-weight:600;font-stretch:normal;font-size:14.8666px;line-height:1.25;font-family:Montserrat;-inkscape-font-specification:'Montserrat Semi-Bold';letter-spacing:0px;word-spacing:0px;fill:#1a1a1a;fill-opacity:1;stroke-width:3.11273"
         d="m -2377.4727,4053.5352 c -4.5652,0 -8.7159,0.7879 -12.4511,2.3652 -3.7352,1.5773 -6.8477,3.8614 -9.3379,6.8496 v -8.4668 h -14.8164 v 66.4863 h 15.5644 v -33.7422 c 0,-6.4738 1.5343,-11.4128 4.6055,-14.8164 3.1542,-3.403 7.3888,-5.1035 12.7012,-5.1035 4.8143,0 8.5069,1.4942 11.08,4.4824 2.5732,2.9051 3.8594,7.2617 3.8594,13.0723 v 13.5625 h 15.5645 v -11.1973 c 0,-6.3912 1.5762,-11.2883 4.7304,-14.6914 3.1542,-3.4862 7.3469,-5.2285 12.5762,-5.2285 4.8143,0 8.5069,1.4942 11.0801,4.4824 2.5731,2.9051 3.8613,7.2617 3.8613,13.0723 v 36.1074 h 15.5625 v -38.0996 c 0,-9.7117 -2.4484,-16.9731 -7.3457,-21.7871 -4.8973,-4.8977 -11.5383,-7.3476 -19.9219,-7.3476 -5.2293,0 -10.002,0.9961 -14.3183,2.9882 -4.3163,1.9095 -7.8429,4.6075 -10.582,8.0938 -2.2412,-3.6526 -5.3136,-6.3911 -9.2149,-8.2168 -3.8182,-1.9095 -8.2169,-2.8652 -13.1973,-2.8652 z"
         transform="matrix(0.11940271,0,0,0.11940271,-341.54096,644.8789)" />
      <rect
         style="opacity:1;fill:#1a1a1a;fill-opacity:1;stroke:none;stroke-width:3.2;stroke-linecap:square;stroke-miterlimit:4;stroke-dasharray:none"
         id="rect4361"
         width="7.5779166"
         height="1.6860352"
         x="-624.09045"
         y="1135.2363"
         ry="0" />
      <rect
         ry="0.81517696"
         y="1135.2363"
         x="-626.98975"
         height="1.6303694"
         width="1.6303694"
         id="rect4363"
         style="opacity:1;fill:#1a1a1a;fill-opacity:1;stroke:none;stroke-width:3.15074;stroke-linecap:square;stroke-miterlimit:4;stroke-dasharray:none" />
      <path
         transform="scale(0.26458333)"
         d="m -2432.5332,4266.8379 v 6.0234 c 0.1861,-0.01 0.3272,-0.096 0.5195,-0.096 2.1727,0 3.8407,0.6749 5.002,2.0235 1.1612,1.311 1.7402,3.2762 1.7402,5.8984 v 16.2949 h 7.0254 v -17.1933 c 0,-4.3828 -1.1063,-7.6615 -3.3164,-9.834 -2.2101,-2.2103 -5.2069,-3.3145 -8.9902,-3.3145 -0.6905,0 -1.3254,0.1204 -1.9805,0.1973 z"
         style="font-style:normal;font-variant:normal;font-weight:600;font-stretch:normal;font-size:14.8666px;line-height:1.25;font-family:Montserrat;-inkscape-font-specification:'Montserrat Semi-Bold';letter-spacing:0px;word-spacing:0px;fill:#1a1a1a;fill-opacity:1;stroke-width:1.40473"
         id="path4365" />
      <path
         id="path4367"
         style="font-style:normal;font-variant:normal;font-weight:600;font-stretch:normal;font-size:14.8666px;line-height:1.25;font-family:Montserrat;-inkscape-font-specification:'Montserrat Semi-Bold';letter-spacing:0px;word-spacing:0px;fill:#1a1a1a;fill-opacity:1;stroke-width:0.371668"
         d="m -642.98512,1128.9342 v 1.5937 c -0.0492,0 -0.0866,-0.025 -0.13745,-0.025 -0.57486,0 -1.01618,0.1785 -1.32344,0.5353 -0.30724,0.3469 -0.46043,0.8669 -0.46043,1.5607 v 4.3113 h -1.8588 v -4.549 c 0,-1.1597 0.2927,-2.0272 0.87746,-2.602 0.58476,-0.5848 1.37766,-0.8769 2.37866,-0.8769 0.18269,0 0.35068,0.032 0.524,0.052 z" />
      <rect
         ry="0.84117854"
         y="1133.6959"
         x="-646.5791"
         height="1.682373"
         width="6.7238169"
         id="rect4369"
         style="opacity:1;fill:#1a1a1a;fill-opacity:1;stroke:none;stroke-width:3.2;stroke-linecap:square;stroke-miterlimit:4;stroke-dasharray:none" />
    </g>
    <g
       transform="matrix(2.1719968,0,0,2.1719968,1076.4881,-2295.5025)"
       id="g4429"
       style="fill:#ffffff;fill-opacity:1">
      <path
         d="m -631.48694,1135.4233 v 1.4867 h -6.8535 v -1.1745 l 4.35591,-5.2776 h -4.26671 v -1.4867 h 6.64537 v 1.1745 l -4.37078,5.2776 z"
         style="font-style:normal;font-variant:normal;font-weight:600;font-stretch:normal;font-size:14.8666px;line-height:1.25;font-family:Montserrat;-inkscape-font-specification:'Montserrat Semi-Bold';letter-spacing:0px;word-spacing:0px;fill:#ffffff;fill-opacity:1;stroke-width:0.371668"
         id="path4415" />
      <path
         transform="matrix(0.11940271,0,0,0.11940271,-341.54096,644.8789)"
         d="m -2377.4727,4053.5352 c -4.5652,0 -8.7159,0.7879 -12.4511,2.3652 -3.7352,1.5773 -6.8477,3.8614 -9.3379,6.8496 v -8.4668 h -14.8164 v 66.4863 h 15.5644 v -33.7422 c 0,-6.4738 1.5343,-11.4128 4.6055,-14.8164 3.1542,-3.403 7.3888,-5.1035 12.7012,-5.1035 4.8143,0 8.5069,1.4942 11.08,4.4824 2.5732,2.9051 3.8594,7.2617 3.8594,13.0723 v 13.5625 h 15.5645 v -11.1973 c 0,-6.3912 1.5762,-11.2883 4.7304,-14.6914 3.1542,-3.4862 7.3469,-5.2285 12.5762,-5.2285 4.8143,0 8.5069,1.4942 11.0801,4.4824 2.5731,2.9051 3.8613,7.2617 3.8613,13.0723 v 36.1074 h 15.5625 v -38.0996 c 0,-9.7117 -2.4484,-16.9731 -7.3457,-21.7871 -4.8973,-4.8977 -11.5383,-7.3476 -19.9219,-7.3476 -5.2293,0 -10.002,0.9961 -14.3183,2.9882 -4.3163,1.9095 -7.8429,4.6075 -10.582,8.0938 -2.2412,-3.6526 -5.3136,-6.3911 -9.2149,-8.2168 -3.8182,-1.9095 -8.2169,-2.8652 -13.1973,-2.8652 z"
         style="font-style:normal;font-variant:normal;font-weight:600;font-stretch:normal;font-size:14.8666px;line-height:1.25;font-family:Montserrat;-inkscape-font-specification:'Montserrat Semi-Bold';letter-spacing:0px;word-spacing:0px;fill:#ffffff;fill-opacity:1;stroke-width:3.11273"
         id="path4417" />
      <rect
         ry="0"
         y="1135.2363"
         x="-624.09045"
         height="1.6860352"
         width="7.5779166"
         id="rect4419"
         style="opacity:1;fill:#ffffff;fill-opacity:1;stroke:none;stroke-width:3.2;stroke-linecap:square;stroke-miterlimit:4;stroke-dasharray:none" />
      <rect
         style="opacity:1;fill:#ffffff;fill-opacity:1;stroke:none;stroke-width:3.15074;stroke-linecap:square;stroke-miterlimit:4;stroke-dasharray:none"
         id="rect4421"
         width="1.6303694"
         height="1.6303694"
         x="-626.98975"
         y="1135.2363"
         ry="0.81517696" />
      <path
         id="path4423"
         style="font-style:normal;font-variant:normal;font-weight:600;font-stretch:normal;font-size:14.8666px;line-height:1.25;font-family:Montserrat;-inkscape-font-specification:'Montserrat Semi-Bold';letter-spacing:0px;word-spacing:0px;fill:#ffffff;fill-opacity:1;stroke-width:1.40473"
         d="m -2432.5332,4266.8379 v 6.0234 c 0.1861,-0.01 0.3272,-0.096 0.5195,-0.096 2.1727,0 3.8407,0.6749 5.002,2.0235 1.1612,1.311 1.7402,3.2762 1.7402,5.8984 v 16.2949 h 7.0254 v -17.1933 c 0,-4.3828 -1.1063,-7.6615 -3.3164,-9.834 -2.2101,-2.2103 -5.2069,-3.3145 -8.9902,-3.3145 -0.6905,0 -1.3254,0.1204 -1.9805,0.1973 z"
         transform="scale(0.26458333)" />
      <path
         d="m -642.98512,1128.9342 v 1.5937 c -0.0492,0 -0.0866,-0.025 -0.13745,-0.025 -0.57486,0 -1.01618,0.1785 -1.32344,0.5353 -0.30724,0.3469 -0.46043,0.8669 -0.46043,1.5607 v 4.3113 h -1.8588 v -4.549 c 0,-1.1597 0.2927,-2.0272 0.87746,-2.602 0.58476,-0.5848 1.37766,-0.8769 2.37866,-0.8769 0.18269,0 0.35068,0.032 0.524,0.052 z"
         style="font-style:normal;font-variant:normal;font-weight:600;font-stretch:normal;font-size:14.8666px;line-height:1.25;font-family:Montserrat;-inkscape-font-specification:'Montserrat Semi-Bold';letter-spacing:0px;word-spacing:0px;fill:#ffffff;fill-opacity:1;stroke-width:0.371668"
         id="path4425" />
      <rect
         style="opacity:1;fill:#ffffff;fill-opacity:1;stroke:none;stroke-width:3.2;stroke-linecap:square;stroke-miterlimit:4;stroke-dasharray:none"
         id="rect4427"
         width="6.7238169"
         height="1.682373"
         x="-646.5791"
         y="1133.6959"
         ry="0.84117854" />
    </g>
    <g
       id="g5558"
       transform="matrix(1.6713191,0,0,1.6713191,-69.502553,-112.87193)"
       style="fill:#ffffff">
      <g
         style="fill:#ffffff;fill-opacity:1"
         id="g4393"
         transform="matrix(0.86044789,0,0,0.86044789,460.66724,-711.98651)">
        <path
           id="path4379"
           style="font-style:normal;font-variant:normal;font-weight:600;font-stretch:normal;font-size:14.8666px;line-height:1.25;font-family:Montserrat;-inkscape-font-specification:'Montserrat Semi-Bold';letter-spacing:0px;word-spacing:0px;fill:#ffffff;fill-opacity:1;stroke-width:0.371668"
           d="m -630.6215,1135.4233 v 1.4867 h -6.8535 v -1.1745 l 4.35591,-5.2776 h -4.26671 v -1.4867 h 6.64537 v 1.1745 l -4.37078,5.2776 z" />
        <path
           id="path4381"
           style="font-style:normal;font-variant:normal;font-weight:600;font-stretch:normal;font-size:14.8666px;line-height:1.25;font-family:Montserrat;-inkscape-font-specification:'Montserrat Semi-Bold';letter-spacing:0px;word-spacing:0px;fill:#ffffff;fill-opacity:1;stroke-width:2.43993"
           d="m -118.17773,947.41992 c -3.57846,0 -6.83191,0.6191 -9.75977,1.85547 -2.92786,1.23638 -5.3664,3.02682 -7.31836,5.36914 v -6.63672 h -11.61523 v 52.11519 h 12.20117 v -26.44917 c 0,-5.07452 1.202,-8.94535 3.60937,-11.61328 2.47244,-2.66746 5.79288,-4.00196 9.95703,-4.00196 3.77372,0 6.66861,1.17136 8.68555,3.51368 2.01702,2.27717 3.02344,5.69337 3.02344,10.24804 v 2.60742 c 0.10157,1.47373 0.85441,5.88672 6.37109,5.88672 3.536216,0 5.116965,-2.1401 5.830081,-4.13086 v -2.50976 c 0,-5.00978 1.234594,-8.84809 3.707031,-11.51563 2.472437,-2.73267 5.76036,-4.09961 9.859375,-4.09961 3.773715,0 6.66853,1.17136 8.685547,3.51368 2.016938,2.27717 3.02539,5.69337 3.02539,10.24804 v 28.30269 h 12.199219 v -29.86519 c 0,-7.61257 -1.919037,-13.30464 -5.757812,-17.07812 -3.838775,-3.83909 -9.043705,-5.75977 -15.615235,-5.75977 -4.099015,0 -7.841254,0.78223 -11.224609,2.34375 -3.383355,1.49677 -6.147864,3.611 -8.294927,6.34375 -1.75677,-2.86311 -4.1646,-5.01032 -7.22265,-6.4414 -2.99292,-1.49678 -6.44179,-2.2461 -10.3457,-2.2461 z"
           transform="matrix(0.15232747,0,0,0.15232747,-607.41606,984.5638)" />
        <rect
           style="opacity:1;fill:#ffffff;fill-opacity:1;stroke:none;stroke-width:3.2;stroke-linecap:square;stroke-miterlimit:4;stroke-dasharray:none"
           id="rect4383"
           width="7.5779166"
           height="1.6860352"
           x="-624.53149"
           y="1135.2363"
           ry="0.84301758" />
        <rect
           ry="0.81517696"
           y="1135.2363"
           x="-626.98975"
           height="1.6303694"
           width="1.6303694"
           id="rect4385"
           style="opacity:1;fill:#ffffff;fill-opacity:1;stroke:none;stroke-width:3.15074;stroke-linecap:square;stroke-miterlimit:4;stroke-dasharray:none" />
        <path
           d="m -641.9634,1128.9342 v 1.5937 c 0.0492,0 0.0866,-0.025 0.13745,-0.025 0.57486,0 1.01619,0.1785 1.32345,0.5354 0.30723,0.3468 0.46043,0.8668 0.46043,1.5606 v 4.3113 h 1.8588 v -4.549 c 0,-1.1596 -0.29271,-2.0271 -0.87746,-2.6019 -0.58476,-0.5848 -1.37766,-0.877 -2.37866,-0.877 -0.1827,0 -0.35068,0.032 -0.52401,0.052 z"
           style="font-style:normal;font-variant:normal;font-weight:600;font-stretch:normal;font-size:14.8666px;line-height:1.25;font-family:Montserrat;-inkscape-font-specification:'Montserrat Semi-Bold';letter-spacing:0px;word-spacing:0px;fill:#ffffff;fill-opacity:1;stroke-width:0.371668"
           id="path4387" />
        <path
           id="path4389"
           style="font-style:normal;font-variant:normal;font-weight:600;font-stretch:normal;font-size:14.8666px;line-height:1.25;font-family:Montserrat;-inkscape-font-specification:'Montserrat Semi-Bold';letter-spacing:0px;word-spacing:0px;fill:#ffffff;fill-opacity:1;stroke-width:0.371668"
           d="m -641.34078,1128.9342 v 1.5937 c -0.0492,0 -0.0866,-0.025 -0.13745,-0.025 -0.57486,0 -1.01618,0.1785 -1.32344,0.5353 -0.30724,0.3469 -0.46043,0.8669 -0.46043,1.5607 v 4.3113 h -1.8588 v -4.549 c 0,-1.1597 0.2927,-2.0272 0.87746,-2.602 0.58476,-0.5848 1.37766,-0.8769 2.37866,-0.8769 0.18269,0 0.35068,0.032 0.524,0.052 z" />
        <rect
           ry="0.84117854"
           y="1133.6959"
           x="-644.93475"
           height="1.682373"
           width="6.7238169"
           id="rect4391"
           style="opacity:1;fill:#ffffff;fill-opacity:1;stroke:none;stroke-width:3.2;stroke-linecap:square;stroke-miterlimit:4;stroke-dasharray:none" />
      </g>
    </g>
    <rect
       style="opacity:1;fill:#1e88e5;fill-opacity:1;stroke-width:2.33945;stroke-linecap:square"
       id="rect5648"
       width="28.849882"
       height="28.849882"
       x="-26.783876"
       y="209.10483"
       ry="1.4180913" />
    <g
       id="g5628"
       transform="translate(25.673337,-85.306768)">
      <g
         id="g5691">
        <path
           d="m -40.9095,308.90064 c -0.783896,0 -1.496595,0.13562 -2.137971,0.40646 -0.641376,0.27084 -1.175561,0.66305 -1.603157,1.17616 v -1.45384 h -2.544427 v 11.41633 h 2.672783 v -5.79394 c 0,-1.11162 0.26331,-1.95956 0.790667,-2.544 0.541611,-0.58433 1.268986,-0.87667 2.181182,-0.87667 0.82667,0 1.460823,0.2566 1.902653,0.76971 0.441848,0.49883 0.662313,1.24719 0.662313,2.24493 v 0.57118 c 0.02225,0.32283 0.187167,1.28954 1.395649,1.28954 0.774641,0 1.12092,-0.46881 1.277135,-0.9049 v -0.54979 c 0,-1.09744 0.270449,-1.93826 0.81206,-2.52261 0.541611,-0.59862 1.261862,-0.89806 2.15979,-0.89806 0.826669,0 1.460805,0.2566 1.902652,0.76971 0.44183,0.49883 0.662741,1.24719 0.662741,2.24493 v 6.19997 h 2.672355 v -6.54225 c 0,-1.66761 -0.420383,-2.91451 -1.261303,-3.74113 -0.840921,-0.84099 -1.98111,-1.26173 -3.420667,-1.26173 -0.897928,0 -1.717701,0.17136 -2.458858,0.51342 -0.741156,0.32788 -1.346748,0.79103 -1.817083,1.38966 -0.384837,-0.62719 -0.912295,-1.09756 -1.58219,-1.41105 -0.655628,-0.32788 -1.411136,-0.49203 -2.266324,-0.49203 z"
           style="font-style:normal;font-variant:normal;font-weight:600;font-stretch:normal;font-size:14.8666px;line-height:1.25;font-family:Montserrat;-inkscape-font-specification:'Montserrat Semi-Bold';letter-spacing:0px;word-spacing:0px;fill:#ffffff;fill-opacity:1;stroke-width:0.53449"
           id="path5565" />
        <rect
           ry="1.2123293"
           y="318.03888"
           x="-39.634956"
           height="2.4246585"
           width="10.897673"
           id="rect5567"
           style="fill:#ffffff;fill-opacity:1;stroke:none;stroke-width:4.60187;stroke-linecap:square;stroke-miterlimit:4;stroke-dasharray:none" />
        <rect
           style="fill:#ffffff;fill-opacity:1;stroke:none;stroke-width:4.53103;stroke-linecap:square;stroke-miterlimit:4;stroke-dasharray:none"
           id="rect5569"
           width="2.3446066"
           height="2.3446066"
           x="-43.170124"
           y="318.03888"
           ry="1.1722921" />
      </g>
      <g
         transform="matrix(0.90789381,0,0,0.90789381,15.585963,16.092252)"
         id="g5600">
        <path
           d="m -48.392889,318.30775 v 2.13799 h -9.855901 v -1.68902 l 6.26416,-7.58963 h -6.135883 v -2.138 h 9.556593 v 1.68903 l -6.285544,7.58963 z"
           style="font-style:normal;font-variant:normal;font-weight:600;font-stretch:normal;font-size:14.8666px;line-height:1.25;font-family:Montserrat;-inkscape-font-specification:'Montserrat Semi-Bold';letter-spacing:0px;word-spacing:0px;fill:#ffffff;fill-opacity:1;stroke-width:0.534489"
           id="path5563" />
        <path
           id="path5571"
           style="font-style:normal;font-variant:normal;font-weight:600;font-stretch:normal;font-size:14.8666px;line-height:1.25;font-family:Montserrat;-inkscape-font-specification:'Montserrat Semi-Bold';letter-spacing:0px;word-spacing:0px;fill:#ffffff;fill-opacity:1;stroke-width:0.534489"
           d="m -64.703482,308.97588 v 2.29187 c 0.07075,0 0.124538,-0.0359 0.197664,-0.0359 0.826697,0 1.461366,0.2567 1.903231,0.76995 0.441823,0.49873 0.662137,1.24653 0.662137,2.24427 v 6.20001 h 2.673109 v -6.54184 c 0,-1.6676 -0.420942,-2.91514 -1.261861,-3.74175 -0.840933,-0.84099 -1.981189,-1.2612 -3.42071,-1.2612 -0.262738,0 -0.504307,0.046 -0.75357,0.0748 z" />
        <path
           d="m -63.808103,308.97588 v 2.29187 c -0.07075,0 -0.124538,-0.0359 -0.197664,-0.0359 -0.826697,0 -1.461352,0.2567 -1.903217,0.76981 -0.441837,0.49887 -0.662137,1.24667 -0.662137,2.24441 v 6.20001 h -2.673108 v -6.54184 c 0,-1.66774 0.420927,-2.91528 1.26186,-3.74189 0.840933,-0.84099 1.98119,-1.26106 3.420711,-1.26106 0.262723,0 0.504307,0.046 0.753555,0.0748 z"
           style="font-style:normal;font-variant:normal;font-weight:600;font-stretch:normal;font-size:14.8666px;line-height:1.25;font-family:Montserrat;-inkscape-font-specification:'Montserrat Semi-Bold';letter-spacing:0px;word-spacing:0px;fill:#ffffff;fill-opacity:1;stroke-width:0.534489"
           id="path5573" />
        <rect
           style="fill:#ffffff;fill-opacity:1;stroke:none;stroke-width:4.60187;stroke-linecap:square;stroke-miterlimit:4;stroke-dasharray:none"
           id="rect5575"
           width="9.6694069"
           height="2.4193921"
           x="-68.976532"
           y="315.82364"
           ry="1.2096846" />
      </g>
    </g>
    <g
       style="fill:#ffffff"
       transform="matrix(2.6598698,0,0,2.6598698,-75.205714,-504.24809)"
       id="g5618">
      <g
         transform="matrix(0.86044789,0,0,0.86044789,460.66724,-711.98651)"
         id="g5616"
         style="fill:#ffffff;fill-opacity:1">
        <path
           d="m -630.6215,1135.4233 v 1.4867 h -6.8535 v -1.1745 l 4.35591,-5.2776 h -4.26671 v -1.4867 h 6.64537 v 1.1745 l -4.37078,5.2776 z"
           style="font-style:normal;font-variant:normal;font-weight:600;font-stretch:normal;font-size:14.8666px;line-height:1.25;font-family:Montserrat;-inkscape-font-specification:'Montserrat Semi-Bold';letter-spacing:0px;word-spacing:0px;fill:#ffffff;fill-opacity:1;stroke-width:0.371668"
           id="path5602" />
        <path
           transform="matrix(0.15232747,0,0,0.15232747,-607.41606,984.5638)"
           d="m -118.17773,947.41992 c -3.57846,0 -6.83191,0.6191 -9.75977,1.85547 -2.92786,1.23638 -5.3664,3.02682 -7.31836,5.36914 v -6.63672 h -11.61523 v 52.11519 h 12.20117 v -26.44917 c 0,-5.07452 1.202,-8.94535 3.60937,-11.61328 2.47244,-2.66746 5.79288,-4.00196 9.95703,-4.00196 3.77372,0 6.66861,1.17136 8.68555,3.51368 2.01702,2.27717 3.02344,5.69337 3.02344,10.24804 v 2.60742 c 0.10157,1.47373 0.85441,5.88672 6.37109,5.88672 3.536216,0 5.116965,-2.1401 5.830081,-4.13086 v -2.50976 c 0,-5.00978 1.234594,-8.84809 3.707031,-11.51563 2.472437,-2.73267 5.76036,-4.09961 9.859375,-4.09961 3.773715,0 6.66853,1.17136 8.685547,3.51368 2.016938,2.27717 3.02539,5.69337 3.02539,10.24804 v 28.30269 h 12.199219 v -29.86519 c 0,-7.61257 -1.919037,-13.30464 -5.757812,-17.07812 -3.838775,-3.83909 -9.043705,-5.75977 -15.615235,-5.75977 -4.099015,0 -7.841254,0.78223 -11.224609,2.34375 -3.383355,1.49677 -6.147864,3.611 -8.294927,6.34375 -1.75677,-2.86311 -4.1646,-5.01032 -7.22265,-6.4414 -2.99292,-1.49678 -6.44179,-2.2461 -10.3457,-2.2461 z"
           style="font-style:normal;font-variant:normal;font-weight:600;font-stretch:normal;font-size:14.8666px;line-height:1.25;font-family:Montserrat;-inkscape-font-specification:'Montserrat Semi-Bold';letter-spacing:0px;word-spacing:0px;fill:#ffffff;fill-opacity:1;stroke-width:2.43993"
           id="path5604" />
        <rect
           ry="0.84301758"
           y="1135.2363"
           x="-624.53149"
           height="1.6860352"
           width="7.5779166"
           id="rect5606"
           style="opacity:1;fill:#ffffff;fill-opacity:1;stroke:none;stroke-width:3.2;stroke-linecap:square;stroke-miterlimit:4;stroke-dasharray:none" />
        <rect
           style="opacity:1;fill:#ffffff;fill-opacity:1;stroke:none;stroke-width:3.15074;stroke-linecap:square;stroke-miterlimit:4;stroke-dasharray:none"
           id="rect5608"
           width="1.6303694"
           height="1.6303694"
           x="-626.98975"
           y="1135.2363"
           ry="0.81517696" />
        <path
           id="path5610"
           style="font-style:normal;font-variant:normal;font-weight:600;font-stretch:normal;font-size:14.8666px;line-height:1.25;font-family:Montserrat;-inkscape-font-specification:'Montserrat Semi-Bold';letter-spacing:0px;word-spacing:0px;fill:#ffffff;fill-opacity:1;stroke-width:0.371668"
           d="m -641.9634,1128.9342 v 1.5937 c 0.0492,0 0.0866,-0.025 0.13745,-0.025 0.57486,0 1.01619,0.1785 1.32345,0.5354 0.30723,0.3468 0.46043,0.8668 0.46043,1.5606 v 4.3113 h 1.8588 v -4.549 c 0,-1.1596 -0.29271,-2.0271 -0.87746,-2.6019 -0.58476,-0.5848 -1.37766,-0.877 -2.37866,-0.877 -0.1827,0 -0.35068,0.032 -0.52401,0.052 z" />
        <path
           d="m -641.34078,1128.9342 v 1.5937 c -0.0492,0 -0.0866,-0.025 -0.13745,-0.025 -0.57486,0 -1.01618,0.1785 -1.32344,0.5353 -0.30724,0.3469 -0.46043,0.8669 -0.46043,1.5607 v 4.3113 h -1.8588 v -4.549 c 0,-1.1597 0.2927,-2.0272 0.87746,-2.602 0.58476,-0.5848 1.37766,-0.8769 2.37866,-0.8769 0.18269,0 0.35068,0.032 0.524,0.052 z"
           style="font-style:normal;font-variant:normal;font-weight:600;font-stretch:normal;font-size:14.8666px;line-height:1.25;font-family:Montserrat;-inkscape-font-specification:'Montserrat Semi-Bold';letter-spacing:0px;word-spacing:0px;fill:#ffffff;fill-opacity:1;stroke-width:0.371668"
           id="path5612" />
        <rect
           style="opacity:1;fill:#ffffff;fill-opacity:1;stroke:none;stroke-width:3.2;stroke-linecap:square;stroke-miterlimit:4;stroke-dasharray:none"
           id="rect5614"
           width="6.7238169"
           height="1.682373"
           x="-644.93475"
           y="1133.6959"
           ry="0.84117854" />
      </g>
    </g>
    <g
       id="g5646"
       transform="matrix(2.6598698,0,0,2.6598698,-75.205714,-477.12495)"
       style="fill:#ffffff">
      <g
         style="fill:#ffffff;fill-opacity:1"
         id="g5644"
         transform="matrix(0.86044789,0,0,0.86044789,460.66724,-711.98651)">
        <path
           id="path5630"
           style="font-style:normal;font-variant:normal;font-weight:600;font-stretch:normal;font-size:14.8666px;line-height:1.25;font-family:Montserrat;-inkscape-font-specification:'Montserrat Semi-Bold';letter-spacing:0px;word-spacing:0px;fill:#ffffff;fill-opacity:1;stroke-width:0.371668"
           d="m -630.6215,1135.4233 v 1.4867 h -6.8535 v -1.1745 l 4.35591,-5.2776 h -4.26671 v -1.4867 h 6.64537 v 1.1745 l -4.37078,5.2776 z" />
        <path
           id="path5632"
           style="font-style:normal;font-variant:normal;font-weight:600;font-stretch:normal;font-size:14.8666px;line-height:1.25;font-family:Montserrat;-inkscape-font-specification:'Montserrat Semi-Bold';letter-spacing:0px;word-spacing:0px;fill:#ffffff;fill-opacity:1;stroke-width:2.43993"
           d="m -118.17773,947.41992 c -3.57846,0 -6.83191,0.6191 -9.75977,1.85547 -2.92786,1.23638 -5.3664,3.02682 -7.31836,5.36914 v -6.63672 h -11.61523 v 52.11519 h 12.20117 v -26.44917 c 0,-5.07452 1.202,-8.94535 3.60937,-11.61328 2.47244,-2.66746 5.79288,-4.00196 9.95703,-4.00196 3.77372,0 6.66861,1.17136 8.68555,3.51368 2.01702,2.27717 3.02344,5.69337 3.02344,10.24804 v 2.60742 c 0.10157,1.47373 0.85441,5.88672 6.37109,5.88672 3.536216,0 5.116965,-2.1401 5.830081,-4.13086 v -2.50976 c 0,-5.00978 1.234594,-8.84809 3.707031,-11.51563 2.472437,-2.73267 5.76036,-4.09961 9.859375,-4.09961 3.773715,0 6.66853,1.17136 8.685547,3.51368 2.016938,2.27717 3.02539,5.69337 3.02539,10.24804 v 28.30269 h 12.199219 v -29.86519 c 0,-7.61257 -1.919037,-13.30464 -5.757812,-17.07812 -3.838775,-3.83909 -9.043705,-5.75977 -15.615235,-5.75977 -4.099015,0 -7.841254,0.78223 -11.224609,2.34375 -3.383355,1.49677 -6.147864,3.611 -8.294927,6.34375 -1.75677,-2.86311 -4.1646,-5.01032 -7.22265,-6.4414 -2.99292,-1.49678 -6.44179,-2.2461 -10.3457,-2.2461 z"
           transform="matrix(0.15232747,0,0,0.15232747,-607.41606,984.5638)" />
        <rect
           style="opacity:1;fill:#ffffff;fill-opacity:1;stroke:none;stroke-width:3.2;stroke-linecap:square;stroke-miterlimit:4;stroke-dasharray:none"
           id="rect5634"
           width="5.5571742"
           height="1.6860352"
           x="-624.72333"
           y="1135.2363"
           ry="0.84301758" />
        <rect
           ry="0.81517696"
           y="1135.2363"
           x="-626.828"
           height="1.6303694"
           width="1.6303694"
           id="rect5636"
           style="opacity:1;fill:#ffffff;fill-opacity:1;stroke:none;stroke-width:3.15074;stroke-linecap:square;stroke-miterlimit:4;stroke-dasharray:none" />
        <path
           d="m -641.9634,1128.9342 v 1.5937 c 0.0492,0 0.0866,-0.025 0.13745,-0.025 0.57486,0 1.01619,0.1785 1.32345,0.5354 0.30723,0.3468 0.46043,0.8668 0.46043,1.5606 v 4.3113 h 1.8588 v -4.549 c 0,-1.1596 -0.29271,-2.0271 -0.87746,-2.6019 -0.58476,-0.5848 -1.37766,-0.877 -2.37866,-0.877 -0.1827,0 -0.35068,0.032 -0.52401,0.052 z"
           style="font-style:normal;font-variant:normal;font-weight:600;font-stretch:normal;font-size:14.8666px;line-height:1.25;font-family:Montserrat;-inkscape-font-specification:'Montserrat Semi-Bold';letter-spacing:0px;word-spacing:0px;fill:#ffffff;fill-opacity:1;stroke-width:0.371668"
           id="path5638" />
        <path
           id="path5640"
           style="font-style:normal;font-variant:normal;font-weight:600;font-stretch:normal;font-size:14.8666px;line-height:1.25;font-family:Montserrat;-inkscape-font-specification:'Montserrat Semi-Bold';letter-spacing:0px;word-spacing:0px;fill:#ffffff;fill-opacity:1;stroke-width:0.371668"
           d="m -641.34078,1128.9342 v 1.5937 c -0.0492,0 -0.0866,-0.025 -0.13745,-0.025 -0.57486,0 -1.01618,0.1785 -1.32344,0.5353 -0.30724,0.3469 -0.46043,0.8669 -0.46043,1.5607 v 4.3113 h -1.8588 v -4.549 c 0,-1.1597 0.2927,-2.0272 0.87746,-2.602 0.58476,-0.5848 1.37766,-0.8769 2.37866,-0.8769 0.18269,0 0.35068,0.032 0.524,0.052 z" />
        <rect
           ry="0.84117854"
           y="1133.6959"
           x="-644.93475"
           height="1.682373"
           width="6.7238169"
           id="rect5642"
           style="opacity:1;fill:#ffffff;fill-opacity:1;stroke:none;stroke-width:3.2;stroke-linecap:square;stroke-miterlimit:4;stroke-dasharray:none" />
      </g>
    </g>
    <g
       transform="matrix(2.09505,0,0,2.09505,1021.6989,-2233.3466)"
       id="g5763"
       style="fill:#ffffff;fill-opacity:1">
      <path
         d="m -630.6215,1135.4233 v 1.4867 h -6.8535 v -1.1745 l 4.35591,-5.2776 h -4.26671 v -1.4867 h 6.64537 v 1.1745 l -4.37078,5.2776 z"
         style="font-style:normal;font-variant:normal;font-weight:600;font-stretch:normal;font-size:14.8666px;line-height:1.25;font-family:Montserrat;-inkscape-font-specification:'Montserrat Semi-Bold';letter-spacing:0px;word-spacing:0px;fill:#ffffff;fill-opacity:1;stroke-width:0.371668"
         id="path5749" />
      <path
         d="m -118.17773,947.41992 c -3.57846,0 -6.83191,0.6191 -9.75977,1.85547 -2.92786,1.23638 -5.3664,3.02682 -7.31836,5.36914 v -6.63672 h -11.61523 v 52.11519 h 12.20117 v -26.44917 c 0,-5.07452 1.202,-8.94535 3.60937,-11.61328 2.47244,-2.66746 5.79288,-4.00196 9.95703,-4.00196 3.77372,0 6.66861,1.17136 8.68555,3.51368 2.01702,2.27717 3.02344,5.69337 3.02344,10.24804 v 2.60742 c 0.10157,1.47373 0.85441,5.88672 6.37109,5.88672 3.536216,0 5.116965,-2.1401 5.830081,-4.13086 v -2.50976 c 0,-5.00978 1.234594,-8.84809 3.707031,-11.51563 2.472437,-2.73267 5.76036,-4.09961 9.859375,-4.09961 3.773715,0 6.66853,1.17136 8.685547,3.51368 2.016938,2.27717 3.02539,5.69337 3.02539,10.24804 v 28.30269 h 12.199219 v -29.86519 c 0,-7.61257 -1.919037,-13.30464 -5.757812,-17.07812 -3.838775,-3.83909 -9.043705,-5.75977 -15.615235,-5.75977 -4.099015,0 -7.841254,0.78223 -11.224609,2.34375 -3.383355,1.49677 -6.147864,3.611 -8.294927,6.34375 -1.75677,-2.86311 -4.1646,-5.01032 -7.22265,-6.4414 -2.99292,-1.49678 -6.44179,-2.2461 -10.3457,-2.2461 z"
         style="font-style:normal;font-variant:normal;font-weight:600;font-stretch:normal;font-size:14.8666px;line-height:1.25;font-family:Montserrat;-inkscape-font-specification:'Montserrat Semi-Bold';letter-spacing:0px;word-spacing:0px;fill:#ffffff;fill-opacity:1;stroke-width:2.43993"
         id="path5751"
         transform="matrix(0.15232747,0,0,0.15232747,-607.41606,984.5638)" />
      <g
         id="g5777"
         transform="rotate(90,-616.10137,1137.8582)">
        <rect
           style="opacity:1;fill:#ffffff;fill-opacity:1;stroke:none;stroke-width:3.2;stroke-linecap:square;stroke-miterlimit:4;stroke-dasharray:none"
           id="rect5753"
           width="7.5779166"
           height="1.6860352"
           x="-624.53149"
           y="1135.2363"
           ry="0.84301758" />
        <rect
           ry="0.81517696"
           y="1135.2363"
           x="-626.98975"
           height="1.6303694"
           width="1.6303694"
           id="rect5755"
           style="opacity:1;fill:#ffffff;fill-opacity:1;stroke:none;stroke-width:3.15074;stroke-linecap:square;stroke-miterlimit:4;stroke-dasharray:none" />
      </g>
      <path
         id="path5757"
         style="font-style:normal;font-variant:normal;font-weight:600;font-stretch:normal;font-size:14.8666px;line-height:1.25;font-family:Montserrat;-inkscape-font-specification:'Montserrat Semi-Bold';letter-spacing:0px;word-spacing:0px;fill:#ffffff;fill-opacity:1;stroke-width:0.371668"
         d="m -641.9634,1128.9342 v 1.5937 c 0.0492,0 0.0866,-0.025 0.13745,-0.025 0.57486,0 1.01619,0.1785 1.32345,0.5354 0.30723,0.3468 0.46043,0.8668 0.46043,1.5606 v 4.3113 h 1.8588 v -4.549 c 0,-1.1596 -0.29271,-2.0271 -0.87746,-2.6019 -0.58476,-0.5848 -1.37766,-0.877 -2.37866,-0.877 -0.1827,0 -0.35068,0.032 -0.52401,0.052 z" />
      <path
         d="m -641.34078,1128.9342 v 1.5937 c -0.0492,0 -0.0866,-0.025 -0.13745,-0.025 -0.57486,0 -1.01618,0.1785 -1.32344,0.5353 -0.30724,0.3469 -0.46043,0.8669 -0.46043,1.5607 v 4.3113 h -1.8588 v -4.549 c 0,-1.1597 0.2927,-2.0272 0.87746,-2.602 0.58476,-0.5848 1.37766,-0.8769 2.37866,-0.8769 0.18269,0 0.35068,0.032 0.524,0.052 z"
         style="font-style:normal;font-variant:normal;font-weight:600;font-stretch:normal;font-size:14.8666px;line-height:1.25;font-family:Montserrat;-inkscape-font-specification:'Montserrat Semi-Bold';letter-spacing:0px;word-spacing:0px;fill:#ffffff;fill-opacity:1;stroke-width:0.371668"
         id="path5759" />
      <rect
         style="opacity:1;fill:#ffffff;fill-opacity:1;stroke:none;stroke-width:3.2;stroke-linecap:square;stroke-miterlimit:4;stroke-dasharray:none"
         id="rect5761"
         width="6.7238169"
         height="1.682373"
         x="-644.93475"
         y="1133.6959"
         ry="0.84117854" />
    </g>
    <rect
       ry="0"
       y="290.55438"
       x="-327.7265"
       height="71.798882"
       width="70.667923"
       id="rect6024"
       style="opacity:1;fill:#1e88e5;stroke-width:3.54856;stroke-linecap:square" />
    <g
       id="g6078"
       style="fill:#ffffff">
      <path
         id="path5808"
         style="font-style:normal;font-variant:normal;font-weight:600;font-stretch:normal;font-size:14.8666px;line-height:1.25;font-family:Montserrat;-inkscape-font-specification:'Montserrat Semi-Bold';letter-spacing:0px;word-spacing:0px;fill:#ffffff;fill-opacity:1;stroke-width:0.53449"
         d="m -301.76173,320.80097 c 0.004,0.0288 0.01,0.0479 0.01,0.0904 0,1.2665 0.67171,1.81173 1.21181,2.04742 h 4.83692 l -6.26422,7.58971 v 0.18137 c 0.36941,1.4152 1.79007,1.50069 1.79007,1.50069 l -0.0181,0.007 h 7.92045 c -0.0362,-1.72775 -1.33778,-2.07248 -1.7446,-2.13786 h -4.54856 l 6.15157,-7.42796 c -0.11181,-1.25667 -0.93332,-1.69603 -1.44746,-1.85052 z" />
      <path
         id="path5810"
         style="font-style:normal;font-variant:normal;font-weight:600;font-stretch:normal;font-size:14.8666px;line-height:1.25;font-family:Montserrat;-inkscape-font-specification:'Montserrat Semi-Bold';letter-spacing:0px;word-spacing:0px;fill:#ffffff;fill-opacity:1;stroke-width:0.53449"
         d="m -284.62841,320.67228 c -0.78389,0 -1.49648,0.13581 -2.13785,0.40672 -0.64138,0.27085 -1.1754,0.66302 -1.603,1.17615 v -1.45418 h -0.79375 c -0.14887,0.0132 -1.39558,0.16476 -1.7508,1.47794 v 9.93841 h 0.8785 l -0.0181,-0.007 c 0,0 1.48683,-0.0921 1.81229,-1.6066 v -4.18063 c 0,-1.11162 0.2633,-1.95958 0.79065,-2.54404 0.54162,-0.58431 1.26907,-0.87644 2.18127,-0.87644 0.82666,0 1.46089,0.25638 1.90272,0.76946 0.44185,0.49885 0.66249,1.24762 0.66249,2.24536 v 0.57103 c 0.0222,0.32282 0.18679,1.28931 1.39527,1.28931 0.77464,0 1.12122,-0.46876 1.27744,-0.90485 v -0.54983 c 0,-1.09744 0.27022,-1.93796 0.81184,-2.52232 0.54161,-0.59862 1.26214,-0.89816 2.16007,-0.89816 0.82667,0 1.46036,0.25638 1.90221,0.76946 0.44183,0.49885 0.66301,1.24762 0.66301,2.24536 v 2.37112 c 0,1.61004 -1.57665,1.7108 -1.57665,1.7108 l 1.57665,0.59065 v 1.52705 h 1.26245 c 0.50295,-0.15881 1.26932,-0.58317 1.40974,-1.74512 v -4.79713 c 0,-1.66759 -0.42051,-2.91423 -1.26143,-3.74084 -0.84092,-0.841 -1.9809,-1.26196 -3.42046,-1.26196 -0.89793,0 -1.71761,0.17161 -2.45876,0.51369 -0.74116,0.32787 -1.34661,0.79092 -1.81695,1.38957 -0.38483,-0.6272 -0.91243,-1.09778 -1.58233,-1.41129 -0.65563,-0.32787 -1.41134,-0.49197 -2.26653,-0.49197 z"
         sodipodi:nodetypes="ssccccccccscscscscscscsccccccscscccs" />
      <path
         id="rect5812"
         style="fill:#ffffff;fill-opacity:1;stroke:none;stroke-width:4.60187;stroke-linecap:square;stroke-miterlimit:4;stroke-dasharray:none"
         d="m -282.14122,329.81075 c -0.0298,0 -0.0576,0.007 -0.0868,0.009 -0.0194,0.54131 0.0497,1.9367 1.24592,2.41588 h 7.31377 c 0.67163,0 1.21233,-0.54073 1.21233,-1.21234 0,-0.67162 -0.5407,-1.21232 -1.21233,-1.21232 z" />
      <rect
         ry="1.1722922"
         y="329.81061"
         x="-286.12067"
         height="2.3446064"
         width="2.3446064"
         id="rect5814"
         style="fill:#ffffff;fill-opacity:1;stroke:none;stroke-width:4.53103;stroke-linecap:square;stroke-miterlimit:4;stroke-dasharray:none" />
      <path
         id="path5816"
         style="font-style:normal;font-variant:normal;font-weight:600;font-stretch:normal;font-size:14.8666px;line-height:1.25;font-family:Montserrat;-inkscape-font-specification:'Montserrat Semi-Bold';letter-spacing:0px;word-spacing:0px;fill:#ffffff;fill-opacity:1;stroke-width:0.53449"
         d="m -308.28019,320.67281 c -1.43952,0 -2.58005,0.42042 -3.42098,1.26143 -0.84094,0.82661 -1.26194,2.07412 -1.26194,3.74189 v 4.80796 c 0.27082,1.62909 1.83348,1.72651 1.83348,1.72651 l -0.0191,0.007 h 0.85886 v -2.20297 h 4.63073 v 2.20297 h 0.85886 l -0.0191,-0.007 c 0,0 1.56117,-0.0973 1.83348,-1.72339 v -4.81108 c 0,-1.66761 -0.42102,-2.91531 -1.26194,-3.74189 -0.84093,-0.84101 -1.98146,-1.26143 -3.42098,-1.26143 -0.10491,0 -0.20592,0.008 -0.30592,0.019 -0.0999,-0.0106 -0.20057,-0.019 -0.30541,-0.019 z m 0.30592,2.34095 c 0.70498,0.0478 1.2572,0.29967 1.65313,0.75965 0.44183,0.49871 0.66198,1.24655 0.66198,2.2443 v 1.57768 h -4.63073 v -1.57768 c 0,-0.99775 0.22014,-1.74543 0.66198,-2.2443 0.39603,-0.45995 0.94842,-0.71192 1.65364,-0.75965 z" />
    </g>
    <rect
       ry="0"
       y="290.47925"
       x="-156.61627"
       height="71.798882"
       width="70.667923"
       id="rect6026"
       style="opacity:1;fill:#1e88e5;stroke-width:3.54856;stroke-linecap:square" />
    <g
       id="g5731"
       transform="matrix(1.3684148,0,0,1.3684148,-58.5472,-142.82117)">
      <path
         id="path5695"
         style="font-style:normal;font-variant:normal;font-weight:600;font-stretch:normal;font-size:14.8666px;line-height:1.25;font-family:Montserrat;-inkscape-font-specification:'Montserrat Semi-Bold';letter-spacing:0px;word-spacing:0px;fill:#ffffff;fill-opacity:1;stroke-width:0.53449"
         d="m -49.10553,337.09694 c -0.783896,0 -1.496595,0.13562 -2.137971,0.40646 -0.641376,0.27084 -1.175561,0.66305 -1.603157,1.17616 v -1.45384 h -2.544427 v 11.41633 h 2.672783 v -5.79394 c 0,-1.11162 0.26331,-1.95956 0.790667,-2.544 0.541611,-0.58433 1.268986,-0.87667 2.181182,-0.87667 0.82667,0 1.460823,0.2566 1.902653,0.76971 0.441848,0.49883 0.662313,1.24719 0.662313,2.24493 v 0.57118 c 0.02225,0.32283 0.187167,1.28954 1.395649,1.28954 0.774641,0 1.12092,-0.46881 1.277135,-0.9049 v -0.54979 c 0,-1.09744 0.270449,-1.93826 0.81206,-2.52261 0.541611,-0.59862 1.261862,-0.89806 2.15979,-0.89806 0.826669,0 1.460805,0.2566 1.902652,0.76971 0.44183,0.49883 0.662741,1.24719 0.662741,2.24493 v 6.19997 h 2.672355 v -6.54225 c 0,-1.66761 -0.420383,-2.91451 -1.261303,-3.74113 -0.840921,-0.84099 -1.98111,-1.26173 -3.420667,-1.26173 -0.897928,0 -1.717701,0.17136 -2.458858,0.51342 -0.741156,0.32788 -1.346748,0.79103 -1.817083,1.38966 -0.384837,-0.62719 -0.912295,-1.09756 -1.58219,-1.41105 -0.655628,-0.32788 -1.411136,-0.49203 -2.266324,-0.49203 z" />
      <rect
         style="fill:#ffffff;fill-opacity:1;stroke:none;stroke-width:4.60187;stroke-linecap:square;stroke-miterlimit:4;stroke-dasharray:none"
         id="rect5697"
         width="8.4055405"
         height="2.4246521"
         x="-48.466499"
         y="346.23517"
         ry="1.212326" />
      <rect
         ry="1.1722921"
         y="346.23517"
         x="-51.706379"
         height="2.3446066"
         width="2.3446066"
         id="rect5699"
         style="fill:#ffffff;fill-opacity:1;stroke:none;stroke-width:4.53103;stroke-linecap:square;stroke-miterlimit:4;stroke-dasharray:none" />
    </g>
    <g
       id="g5686"
       transform="matrix(1.1236773,0,0,1.1236773,49.665891,-107.65696)">
      <path
         id="path5652"
         style="font-style:normal;font-variant:normal;font-weight:600;font-stretch:normal;font-size:14.8666px;line-height:1.25;font-family:Montserrat;-inkscape-font-specification:'Montserrat Semi-Bold';letter-spacing:0px;word-spacing:0px;fill:#ffffff;fill-opacity:1;stroke-width:0.53449"
         d="m -49.10553,320.24324 c -0.783896,0 -1.496595,0.13562 -2.137971,0.40646 -0.641376,0.27084 -1.175561,0.66305 -1.603157,1.17616 v -1.45384 h -2.544427 v 11.41633 h 2.672783 v -5.79394 c 0,-1.11162 0.26331,-1.95956 0.790667,-2.544 0.541611,-0.58433 1.268986,-0.87667 2.181182,-0.87667 0.82667,0 1.460823,0.2566 1.902653,0.76971 0.441848,0.49883 0.662313,1.24719 0.662313,2.24493 v 0.57118 c 0.02225,0.32283 0.187167,1.28954 1.395649,1.28954 0.774641,0 1.12092,-0.46881 1.277135,-0.9049 v -0.54979 c 0,-1.09744 0.270449,-1.93826 0.81206,-2.52261 0.541611,-0.59862 1.261862,-0.89806 2.15979,-0.89806 0.826669,0 1.460805,0.2566 1.902652,0.76971 0.44183,0.49883 0.662741,1.24719 0.662741,2.24493 v 6.19997 h 2.672355 v -6.54225 c 0,-1.66761 -0.420383,-2.91451 -1.261303,-3.74113 -0.840921,-0.84099 -1.98111,-1.26173 -3.420667,-1.26173 -0.897928,0 -1.717701,0.17136 -2.458858,0.51342 -0.741156,0.32788 -1.346748,0.79103 -1.817083,1.38966 -0.384837,-0.62719 -0.912295,-1.09756 -1.58219,-1.41105 -0.655628,-0.32788 -1.411136,-0.49203 -2.266324,-0.49203 z" />
      <rect
         style="fill:#ffffff;fill-opacity:1;stroke:none;stroke-width:4.60187;stroke-linecap:square;stroke-miterlimit:4;stroke-dasharray:none"
         id="rect5654"
         width="10.889143"
         height="2.4246521"
         x="-48.106857"
         y="329.38147"
         ry="1.212326" />
      <rect
         ry="1.1722921"
         y="329.38147"
         x="-51.604481"
         height="2.3446066"
         width="2.3446066"
         id="rect5656"
         style="fill:#ffffff;fill-opacity:1;stroke:none;stroke-width:4.53103;stroke-linecap:square;stroke-miterlimit:4;stroke-dasharray:none" />
    </g>
    <rect
       style="opacity:1;fill:#1e88e5;stroke-width:14.1617;stroke-linecap:square"
       id="rect6082"
       width="282.02414"
       height="286.5376"
       x="-726.72961"
       y="290.55438"
       ry="0" />
    <g
       style="fill:#ffffff"
       id="g6094"
       transform="matrix(3.9908366,0,0,3.9908366,581.17322,-869.00069)">
      <path
         d="m -301.76173,320.80097 c 0.004,0.0288 0.01,0.0479 0.01,0.0904 0,1.2665 0.67171,1.81173 1.21181,2.04742 h 4.83692 l -6.26422,7.58971 v 0.18137 c 0.36941,1.4152 1.79007,1.50069 1.79007,1.50069 l -0.0181,0.007 h 7.92045 c -0.0362,-1.72775 -1.33778,-2.07248 -1.7446,-2.13786 h -4.54856 l 6.15157,-7.42796 c -0.11181,-1.25667 -0.93332,-1.69603 -1.44746,-1.85052 z"
         style="font-style:normal;font-variant:normal;font-weight:600;font-stretch:normal;font-size:14.8666px;line-height:1.25;font-family:Montserrat;-inkscape-font-specification:'Montserrat Semi-Bold';letter-spacing:0px;word-spacing:0px;fill:#ffffff;fill-opacity:1;stroke-width:0.53449"
         id="path6084" />
      <path
         sodipodi:nodetypes="ssccccccccscscscscscscsccccccscscccs"
         d="m -284.62841,320.67228 c -0.78389,0 -1.49648,0.13581 -2.13785,0.40672 -0.64138,0.27085 -1.1754,0.66302 -1.603,1.17615 v -1.45418 h -0.79375 c -0.14887,0.0132 -1.39558,0.16476 -1.7508,1.47794 v 9.93841 h 0.8785 l -0.0181,-0.007 c 0,0 1.48683,-0.0921 1.81229,-1.6066 v -4.18063 c 0,-1.11162 0.2633,-1.95958 0.79065,-2.54404 0.54162,-0.58431 1.26907,-0.87644 2.18127,-0.87644 0.82666,0 1.46089,0.25638 1.90272,0.76946 0.44185,0.49885 0.66249,1.24762 0.66249,2.24536 v 0.57103 c 0.0222,0.32282 0.18679,1.28931 1.39527,1.28931 0.77464,0 1.12122,-0.46876 1.27744,-0.90485 v -0.54983 c 0,-1.09744 0.27022,-1.93796 0.81184,-2.52232 0.54161,-0.59862 1.26214,-0.89816 2.16007,-0.89816 0.82667,0 1.46036,0.25638 1.90221,0.76946 0.44183,0.49885 0.66301,1.24762 0.66301,2.24536 v 2.37112 c 0,1.61004 -1.57665,1.7108 -1.57665,1.7108 l 1.57665,0.59065 v 1.52705 h 1.26245 c 0.50295,-0.15881 1.26932,-0.58317 1.40974,-1.74512 v -4.79713 c 0,-1.66759 -0.42051,-2.91423 -1.26143,-3.74084 -0.84092,-0.841 -1.9809,-1.26196 -3.42046,-1.26196 -0.89793,0 -1.71761,0.17161 -2.45876,0.51369 -0.74116,0.32787 -1.34661,0.79092 -1.81695,1.38957 -0.38483,-0.6272 -0.91243,-1.09778 -1.58233,-1.41129 -0.65563,-0.32787 -1.41134,-0.49197 -2.26653,-0.49197 z"
         style="font-style:normal;font-variant:normal;font-weight:600;font-stretch:normal;font-size:14.8666px;line-height:1.25;font-family:Montserrat;-inkscape-font-specification:'Montserrat Semi-Bold';letter-spacing:0px;word-spacing:0px;fill:#ffffff;fill-opacity:1;stroke-width:0.53449"
         id="path6086" />
      <path
         d="m -282.14122,329.81075 c -0.0298,0 -0.0576,0.007 -0.0868,0.009 -0.0194,0.54131 0.0497,1.9367 1.24592,2.41588 h 7.31377 c 0.67163,0 1.21233,-0.54073 1.21233,-1.21234 0,-0.67162 -0.5407,-1.21232 -1.21233,-1.21232 z"
         style="fill:#ffffff;fill-opacity:1;stroke:none;stroke-width:4.60187;stroke-linecap:square;stroke-miterlimit:4;stroke-dasharray:none"
         id="path6088" />
      <rect
         style="fill:#ffffff;fill-opacity:1;stroke:none;stroke-width:4.53103;stroke-linecap:square;stroke-miterlimit:4;stroke-dasharray:none"
         id="rect6090"
         width="2.3446064"
         height="2.3446064"
         x="-286.12067"
         y="329.81061"
         ry="1.1722922" />
      <path
         d="m -308.28019,320.67281 c -1.43952,0 -2.58005,0.42042 -3.42098,1.26143 -0.84094,0.82661 -1.26194,2.07412 -1.26194,3.74189 v 4.80796 c 0.27082,1.62909 1.83348,1.72651 1.83348,1.72651 l -0.0191,0.007 h 0.85886 v -2.20297 h 4.63073 v 2.20297 h 0.85886 l -0.0191,-0.007 c 0,0 1.56117,-0.0973 1.83348,-1.72339 v -4.81108 c 0,-1.66761 -0.42102,-2.91531 -1.26194,-3.74189 -0.84093,-0.84101 -1.98146,-1.26143 -3.42098,-1.26143 -0.10491,0 -0.20592,0.008 -0.30592,0.019 -0.0999,-0.0106 -0.20057,-0.019 -0.30541,-0.019 z m 0.30592,2.34095 c 0.70498,0.0478 1.2572,0.29967 1.65313,0.75965 0.44183,0.49871 0.66198,1.24655 0.66198,2.2443 v 1.57768 h -4.63073 v -1.57768 c 0,-0.99775 0.22014,-1.74543 0.66198,-2.2443 0.39603,-0.45995 0.94842,-0.71192 1.65364,-0.75965 z"
         style="font-style:normal;font-variant:normal;font-weight:600;font-stretch:normal;font-size:14.8666px;line-height:1.25;font-family:Montserrat;-inkscape-font-specification:'Montserrat Semi-Bold';letter-spacing:0px;word-spacing:0px;fill:#ffffff;fill-opacity:1;stroke-width:0.53449"
         id="path6092" />
    </g>
  </g>
</svg>
