<?xml version="1.0" encoding="UTF-8" standalone="no"?>
<!-- Created with Inkscape (http://www.inkscape.org/) -->

<svg
   xmlns:dc="http://purl.org/dc/elements/1.1/"
   xmlns:cc="http://creativecommons.org/ns#"
   xmlns:rdf="http://www.w3.org/1999/02/22-rdf-syntax-ns#"
   xmlns:svg="http://www.w3.org/2000/svg"
   xmlns="http://www.w3.org/2000/svg"
   xmlns:xlink="http://www.w3.org/1999/xlink"
   xmlns:sodipodi="http://sodipodi.sourceforge.net/DTD/sodipodi-0.dtd"
   xmlns:inkscape="http://www.inkscape.org/namespaces/inkscape"
   width="210mm"
   height="297mm"
   viewBox="0 0 210 297"
   version="1.1"
   id="svg7235"
   inkscape:version="0.92.4 5da689c313, 2019-01-14"
   sodipodi:docname="Peramu_Logo.svg">
  <defs
     id="defs7229">
    <filter
       inkscape:collect="always"
       style="color-interpolation-filters:sRGB"
       id="filter1926"
       x="-0.10250004"
       width="1.205"
       y="-0.090275198"
       height="1.1805505">
      <feGaussianBlur
         inkscape:collect="always"
         stdDeviation="1.0528503"
         id="feGaussianBlur1928" />
    </filter>
    <clipPath
       clipPathUnits="userSpaceOnUse"
       id="clipPath1664">
      <path
         style="opacity:1;fill:none;fill-opacity:1;stroke:#333333;stroke-width:2;stroke-linecap:round;stroke-linejoin:miter;stroke-miterlimit:4;stroke-dasharray:none;stroke-dashoffset:0;stroke-opacity:1;paint-order:stroke fill markers"
         d="m 155.2112,219.3202 c -1.92917,4.12142 -0.96459,12.75871 0,16.04708 0.96459,3.28837 5.2694,9.02416 11.21198,9.02416 5.94258,0 10.24791,-5.73579 11.2125,-9.02416 0.96459,-3.28837 1.92917,-11.92566 0,-16.04708 0,0 -7.47508,-2.91918 -11.2125,-2.91918 -3.73741,0 -11.21197,2.91918 -11.21197,2.91918 z"
         id="path1666"
         inkscape:connector-curvature="0"
         sodipodi:nodetypes="czzzczcc" />
    </clipPath>
    <linearGradient
       inkscape:collect="always"
       xlink:href="#linearGradient1047"
       id="linearGradient1049"
       x1="138.15256"
       y1="201.46854"
       x2="146.09871"
       y2="201.46854"
       gradientUnits="userSpaceOnUse"
       gradientTransform="matrix(2.4545454,0,0,1,-209.37603,0)" />
    <linearGradient
       inkscape:collect="always"
       id="linearGradient1047">
      <stop
         style="stop-color:#000000;stop-opacity:1"
         offset="0"
         id="stop1043" />
      <stop
         style="stop-color:#000000;stop-opacity:0"
         offset="1"
         id="stop1045" />
    </linearGradient>
    <clipPath
       clipPathUnits="userSpaceOnUse"
       id="clipPath7175">
      <path
         style="opacity:1;fill:none;fill-opacity:1;stroke:#333333;stroke-width:2;stroke-linecap:round;stroke-linejoin:miter;stroke-miterlimit:4;stroke-dasharray:none;stroke-dashoffset:0;stroke-opacity:1;paint-order:stroke fill markers"
         d="m 155.2112,219.3202 c -1.92917,4.12142 -0.96459,12.75871 0,16.04708 0.96459,3.28837 5.2694,9.02416 11.21198,9.02416 5.94258,0 10.24791,-5.73579 11.2125,-9.02416 0.96459,-3.28837 1.92917,-11.92566 0,-16.04708 0,0 -7.47508,-2.91918 -11.2125,-2.91918 -3.73741,0 -11.21197,2.91918 -11.21197,2.91918 z"
         id="path7173"
         inkscape:connector-curvature="0"
         sodipodi:nodetypes="czzzczcc" />
    </clipPath>
  </defs>
  <sodipodi:namedview
     id="base"
     pagecolor="#ffffff"
     bordercolor="#666666"
     borderopacity="1.0"
     inkscape:pageopacity="0.0"
     inkscape:pageshadow="2"
     inkscape:zoom="0.35"
     inkscape:cx="400"
     inkscape:cy="560"
     inkscape:document-units="mm"
     inkscape:current-layer="layer1"
     showgrid="false"
     inkscape:window-width="1366"
     inkscape:window-height="712"
     inkscape:window-x="0"
     inkscape:window-y="0"
     inkscape:window-maximized="1" />
  <metadata
     id="metadata7232">
    <rdf:RDF>
      <cc:Work
         rdf:about="">
        <dc:format>image/svg+xml</dc:format>
        <dc:type
           rdf:resource="http://purl.org/dc/dcmitype/StillImage" />
        <dc:title></dc:title>
      </cc:Work>
    </rdf:RDF>
  </metadata>
  <g
     inkscape:label="Layer 1"
     inkscape:groupmode="layer"
     id="layer1">
    <g
       transform="translate(-282.72619,-420.30951)"
       id="g1023"
       inkscape:export-xdpi="149.99298"
       inkscape:export-ydpi="149.99298">
      <g
         id="g971"
         transform="matrix(2.4914266,0,0,2.4914266,31.841576,81.119778)">
        <rect
           ry="0.099658221"
           y="176.55717"
           x="144.38406"
           height="46.052914"
           width="46.052914"
           id="rect923"
           style="opacity:1;fill:#808080;fill-opacity:1;stroke:none;stroke-width:0.156;stroke-linecap:round;stroke-linejoin:miter;stroke-miterlimit:4;stroke-dasharray:none;stroke-dashoffset:0;stroke-opacity:1;paint-order:stroke fill markers" />
        <g
           transform="translate(0.97304486,-30.179987)"
           id="g969">
          <path
             sodipodi:nodetypes="czzzczcc"
             inkscape:connector-curvature="0"
             id="path925"
             d="m 156.28428,220.03559 c -1.92917,4.12142 -0.96459,12.75871 0,16.04708 0.96459,3.28837 5.2694,9.02416 11.21198,9.02416 5.94258,0 10.24791,-5.73579 11.2125,-9.02416 0.96459,-3.28837 1.92917,-11.92566 0,-16.04708 0,0 -7.47508,-2.91918 -11.2125,-2.91918 -3.73741,0 -11.21197,2.91918 -11.21197,2.91918 z"
             style="opacity:0.253;fill:#1a1a1a;fill-opacity:1;stroke:#1a1a1a;stroke-width:1;stroke-linecap:round;stroke-linejoin:miter;stroke-miterlimit:4;stroke-dasharray:none;stroke-dashoffset:0;stroke-opacity:1;paint-order:stroke fill markers;filter:url(#filter1926)" />
          <g
             id="g965"
             clip-path="url(#clipPath1664)">
            <path
               sodipodi:nodetypes="cczcczcc"
               inkscape:connector-curvature="0"
               id="path927"
               d="m 155.2112,219.3202 c -1.92917,4.12142 -1.92918,9.47034 0,16.04708 0,0 5.2694,9.02416 11.21198,9.02416 5.94258,0 11.2125,-9.02416 11.2125,-9.02416 1.92918,-6.57674 1.92917,-11.92566 0,-16.04708 0,0 -7.47508,-2.45307 -11.2125,-2.45307 -3.73741,0 -11.21197,2.45307 -11.21197,2.45307 z"
               style="opacity:1;fill:#0088aa;fill-opacity:1;stroke:none;stroke-width:2.37800002;stroke-linecap:round;stroke-linejoin:miter;stroke-miterlimit:4;stroke-dasharray:none;stroke-dashoffset:0;stroke-opacity:1;paint-order:stroke fill markers" />
            <ellipse
               style="opacity:1;fill:#ffcc00;fill-opacity:1;stroke:#1a1a1a;stroke-width:1.05802834;stroke-linecap:round;stroke-linejoin:round;stroke-miterlimit:4;stroke-dasharray:none;stroke-dashoffset:0;stroke-opacity:1;paint-order:stroke fill markers"
               id="ellipse929"
               cx="166.26463"
               cy="229.22545"
               rx="4.3456779"
               ry="3.7170997" />
            <g
               id="g933"
               transform="translate(-2.9004405,-2.2412495)">
              <path
                 sodipodi:nodetypes="ccsscc"
                 style="opacity:1;fill:#37c837;fill-opacity:1;stroke:#1a1a1a;stroke-width:1.05799997;stroke-linecap:round;stroke-linejoin:miter;stroke-miterlimit:4;stroke-dasharray:none;stroke-dashoffset:0;stroke-opacity:1;paint-order:stroke fill markers"
                 d="m 147.55597,235.62557 c 0,0 11.10474,-9.13289 16.14562,-7.78218 5.04087,1.35069 7.36918,6.62833 14.1633,6.62833 6.79411,0 1.47055,10.81551 -6.2155,10.81551 -7.68605,0 -14.9575,3.20321 -17.75421,-0.15285 -2.79671,-3.35605 -6.33921,-9.50881 -6.33921,-9.50881 z"
                 id="path931"
                 inkscape:connector-curvature="0" />
            </g>
            <g
               id="g937"
               transform="matrix(-1,0,0,1,335.45855,0.26367641)">
              <path
                 inkscape:connector-curvature="0"
                 id="path935"
                 d="m 148.85445,234.60004 c 0,0 11.10474,-9.13289 16.14562,-7.78218 5.04087,1.35069 7.36918,6.62833 14.1633,6.62833 6.79411,0 1.47055,10.81551 -6.2155,10.81551 -7.68605,0 -14.9575,3.20321 -17.75421,-0.15285 -2.79671,-3.35605 -6.33921,-9.50881 -6.33921,-9.50881 z"
                 style="opacity:1;fill:#37c837;fill-opacity:1;stroke:#1a1a1a;stroke-width:1.05802834;stroke-linecap:round;stroke-linejoin:miter;stroke-miterlimit:4;stroke-dasharray:none;stroke-dashoffset:0;stroke-opacity:1;paint-order:stroke fill markers"
                 sodipodi:nodetypes="ccsscc" />
            </g>
            <path
               inkscape:connector-curvature="0"
               id="path939"
               d="m 178.42151,224.42408 a 2.5049259,2.5049259 0 0 0 -2.35789,2.39345 1.1865438,1.1865438 0 0 0 -1.10466,-0.60841 1.1865438,1.1865438 0 0 0 -1.11589,1.25312 1.1865438,1.1865438 0 0 0 0.0572,0.29847 l -2.4891,1.03088 5.36561,-0.11877 a 2.5049259,2.5049259 0 0 0 1.93449,0.75238 2.5049259,2.5049259 0 0 0 1.72254,-0.83327 l 2.05598,-0.0456 -0.47093,-1.29372 -0.97552,0.0394 a 2.5049259,2.5049259 0 0 0 0.0236,-0.51228 2.5049259,2.5049259 0 0 0 -2.64542,-2.3557 z"
               style="opacity:1;fill:#ffffff;fill-opacity:1;stroke:#1a1a1a;stroke-width:1.05799997;stroke-linecap:round;stroke-linejoin:round;stroke-miterlimit:4;stroke-dasharray:none;stroke-dashoffset:0;stroke-opacity:1;paint-order:stroke fill markers" />
            <text
               xml:space="preserve"
               style="font-style:normal;font-weight:normal;font-size:3.20413518px;line-height:1.25;font-family:sans-serif;letter-spacing:0px;word-spacing:0px;fill:#ffffff;fill-opacity:1;stroke:none;stroke-width:0.08010338"
               x="158.89825"
               y="222.02834"
               id="text943"><tspan
                 sodipodi:role="line"
                 id="tspan941"
                 x="158.89825"
                 y="222.02834"
                 style="font-style:normal;font-variant:normal;font-weight:900;font-stretch:normal;font-family:Montserrat;-inkscape-font-specification:'Montserrat Heavy';fill:#ffffff;fill-opacity:1;stroke-width:0.08010338">PERAMU</tspan></text>
            <g
               id="g945"
               transform="matrix(1.8251069,0,0,0.96865979,-160.20317,12.106516)" />
            <path
               sodipodi:nodetypes="cccc"
               inkscape:connector-curvature="0"
               id="path947"
               d="m 177.27708,233.71353 c 0.43768,1.02126 -5.63772,9.60755 -7.38783,9.76461 l 8.92215,-5.23185 z"
               style="opacity:1;fill:#25c967;fill-opacity:1;stroke:none;stroke-width:1;stroke-linecap:round;stroke-linejoin:round;stroke-miterlimit:4;stroke-dasharray:none;stroke-dashoffset:0;stroke-opacity:1;paint-order:stroke fill markers" />
            <path
               style="opacity:1;fill:#ffffff;fill-opacity:1;stroke:#1a1a1a;stroke-width:1.30892217;stroke-linecap:round;stroke-linejoin:round;stroke-miterlimit:4;stroke-dasharray:none;stroke-dashoffset:0;stroke-opacity:1;paint-order:stroke fill markers"
               d="m 179.16571,227.31572 a 1.5580973,1.5580973 0 0 0 -1.46665,1.48876 0.73804602,0.73804602 0 0 0 -0.68711,-0.37845 0.73804602,0.73804602 0 0 0 -0.69409,0.77946 0.73804602,0.73804602 0 0 0 0.0355,0.18566 l -1.54825,0.64123 3.33748,-0.0739 a 1.5580973,1.5580973 0 0 0 1.20328,0.46798 1.5580973,1.5580973 0 0 0 1.07143,-0.5183 l 1.27885,-0.0283 -0.29292,-0.80471 -0.60682,0.024 a 1.5580973,1.5580973 0 0 0 0.0147,-0.31865 1.5580973,1.5580973 0 0 0 -1.64549,-1.46527 z"
               id="path949"
               inkscape:connector-curvature="0" />
            <path
               sodipodi:nodetypes="ccccccc"
               inkscape:connector-curvature="0"
               id="path951"
               d="m 166.35137,229.20303 c 0,0 -0.3073,0.46765 0.33398,0.46764 -0.92248,0.76349 -8.75968,7.56506 -14.58859,5.00034 l 0.37411,0.48101 -0.37412,-1.49646 13.6775,-4.74107 c -0.072,0.36409 -0.0189,0.58971 0.57712,0.28854 z"
               style="opacity:1;fill:#37c837;fill-opacity:1;stroke:none;stroke-width:1;stroke-linecap:round;stroke-linejoin:round;stroke-miterlimit:4;stroke-dasharray:none;stroke-dashoffset:0;stroke-opacity:1;paint-order:stroke fill markers" />
            <path
               style="opacity:1;fill:#25c967;fill-opacity:1;stroke:none;stroke-width:1;stroke-linecap:round;stroke-linejoin:round;stroke-miterlimit:4;stroke-dasharray:none;stroke-dashoffset:0;stroke-opacity:1;paint-order:stroke fill markers"
               d="m 155.51042,232.33399 c -0.43768,1.7074 5.70867,11.49626 7.45878,11.14415 l -11.23081,-7.22208 z"
               id="path953"
               inkscape:connector-curvature="0"
               sodipodi:nodetypes="cccc" />
            <text
               id="text957"
               y="223.06065"
               x="156.27164"
               style="font-style:normal;font-weight:normal;font-size:0.90866333px;line-height:1.25;font-family:sans-serif;letter-spacing:0px;word-spacing:0px;fill:#ffffff;fill-opacity:1;stroke:none;stroke-width:0.02271659"
               xml:space="preserve"><tspan
                 style="font-style:normal;font-variant:normal;font-weight:bold;font-stretch:normal;font-family:Montserrat;-inkscape-font-specification:'Montserrat Bold';fill:#ffffff;fill-opacity:1;stroke-width:0.02271659"
                 y="223.06065"
                 x="156.27164"
                 id="tspan955"
                 sodipodi:role="line">PENGEMBARAAN RANTING MUSTIKA JAYA</tspan></text>
            <path
               style="opacity:1;fill:#ffffff;fill-opacity:1;stroke:#1a1a1a;stroke-width:1.05799997;stroke-linecap:round;stroke-linejoin:round;stroke-miterlimit:4;stroke-dasharray:none;stroke-dashoffset:0;stroke-opacity:1;paint-order:stroke fill markers"
               d="m 155.91143,228.08399 a 1.950465,1.950465 0 0 1 1.83597,1.86367 0.92390445,0.92390445 0 0 1 0.86015,-0.47374 0.92390445,0.92390445 0 0 1 0.86889,0.97574 0.92390445,0.92390445 0 0 1 -0.0445,0.23241 l 1.93814,0.80269 -4.17794,-0.0925 a 1.950465,1.950465 0 0 1 -1.5063,0.58584 1.950465,1.950465 0 0 1 -1.34126,-0.64882 l -1.60089,-0.0355 0.36669,-1.00736 0.75959,0.0307 a 1.950465,1.950465 0 0 1 -0.0184,-0.39889 1.950465,1.950465 0 0 1 2.05986,-1.83427 z"
               id="path959"
               inkscape:connector-curvature="0" />
            <path
               inkscape:connector-curvature="0"
               id="path961"
               d="m 154.45123,230.16983 a 1.2672161,1.2672161 0 0 1 1.19285,1.21082 0.60026022,0.60026022 0 0 1 0.55883,-0.30779 0.60026022,0.60026022 0 0 1 0.56451,0.63395 0.60026022,0.60026022 0 0 1 -0.0289,0.151 l 1.2592,0.52151 -2.71441,-0.0601 a 1.2672161,1.2672161 0 0 1 -0.97862,0.38062 1.2672161,1.2672161 0 0 1 -0.87142,-0.42154 l -1.04009,-0.023 0.23822,-0.65448 0.49354,0.0196 a 1.2672161,1.2672161 0 0 1 -0.0117,-0.25916 1.2672161,1.2672161 0 0 1 1.3383,-1.19172 z"
               style="opacity:1;fill:#ffffff;fill-opacity:1;stroke:#1a1a1a;stroke-width:1.05799997;stroke-linecap:round;stroke-linejoin:round;stroke-miterlimit:4;stroke-dasharray:none;stroke-dashoffset:0;stroke-opacity:1;paint-order:stroke fill markers" />
            <path
               style="fill:#1a1a1a;fill-opacity:1;stroke-width:0.03965855"
               d="m 165.95244,241.28309 c -0.0661,-0.0192 -0.18046,-0.0935 -0.25408,-0.16497 -0.23921,-0.23233 -0.33557,-0.53413 -0.42071,-1.31755 l -0.0256,-0.23575 -0.074,0.21008 c -0.31951,0.90727 -1.22901,1.40934 -2.29742,1.26822 -1.20779,-0.15953 -2.26957,-1.01644 -2.66133,-2.14783 -0.12818,-0.37019 -0.1277,-0.37214 0.20345,-0.82208 0.97059,-1.31873 2.56805,-1.86216 3.70019,-1.25874 0.4262,0.22716 0.82292,0.69996 1.02532,1.22194 0.0501,0.1293 0.10201,0.2351 0.11525,0.2351 0.0795,0 0.30757,-0.20686 0.38726,-0.35121 0.12375,-0.22417 0.12492,-0.56969 0.003,-0.89548 -0.10196,-0.27253 -0.16539,-0.38486 -0.50219,-0.88935 -0.45156,-0.67636 -0.83128,-1.54733 -1.10657,-2.53812 -0.17337,-0.62401 -0.16912,-0.90466 0.0223,-1.47292 0.0905,-0.26864 0.13339,-0.48202 0.14946,-0.74359 0.0124,-0.20177 0.0382,-0.36685 0.0574,-0.36685 0.0583,0 0.18928,0.24384 0.27018,0.50301 0.0642,0.20551 0.13595,0.53852 0.30505,1.4149 0.0181,0.0938 0.0305,0.10413 0.0721,0.0595 0.1722,-0.18522 0.18715,-0.80546 0.037,-1.53617 -0.17191,-0.83684 -0.0967,-1.50506 0.22139,-1.96741 0.0678,-0.0985 0.12685,-0.17897 0.13125,-0.17877 0.004,1.4e-4 0.0118,0.10913 0.0163,0.24207 0.0127,0.3696 0.21842,1.00529 0.57495,1.77662 0.28406,0.61454 0.32903,0.84078 0.32789,1.64936 -0.001,0.77628 -0.0286,0.96841 -0.28645,2.00276 -0.12309,0.49374 -0.14374,0.64234 -0.14607,1.05095 -0.002,0.45461 0.005,0.50163 0.17401,1.05095 0.16651,0.54181 0.17683,0.60256 0.17846,1.05095 0.002,0.39057 -0.0115,0.5008 -0.0722,0.61471 -0.0969,0.18187 -0.25996,0.35596 -0.37552,0.40085 l -0.0925,0.0359 0.10086,0.11987 c 0.11237,0.13354 0.13233,0.22426 0.15677,0.71241 0.0207,0.41344 0.0799,0.56117 0.33976,0.84815 0.22693,0.25059 0.2539,0.36364 0.10065,0.42191 -0.11882,0.0452 -0.19085,0.0445 -0.3556,-0.003 z m 0.60604,-0.19673 c -0.11457,-0.0705 -0.0796,-0.18982 0.11339,-0.38721 0.27109,-0.27723 0.34175,-0.46413 0.37053,-0.98011 0.025,-0.44848 0.0369,-0.49283 0.1722,-0.64323 l 0.0792,-0.088 -0.095,-0.0371 c -0.13554,-0.0529 -0.2597,-0.1807 -0.36267,-0.37337 -0.0787,-0.14725 -0.0891,-0.2234 -0.0876,-0.64294 0.002,-0.4451 0.0126,-0.51184 0.17136,-1.03112 0.23228,-0.75982 0.25446,-1.12946 0.10593,-1.76481 -0.337,-1.44146 -0.34858,-1.5175 -0.35357,-2.32003 -0.005,-0.8447 0.0356,-1.06313 0.30905,-1.65525 0.35326,-0.76478 0.5489,-1.3466 0.60072,-1.78649 l 0.0271,-0.2294 0.11523,0.15669 c 0.30019,0.40819 0.38971,1.14371 0.22744,1.86863 -0.12641,0.56473 -0.13533,1.38877 -0.017,1.56817 l 0.0774,0.11731 0.0305,-0.11897 c 0.0168,-0.0654 0.0766,-0.35663 0.13292,-0.64709 0.11785,-0.60768 0.22179,-0.96381 0.33491,-1.14746 0.12234,-0.19861 0.15988,-0.15985 0.15988,0.1651 0,0.22866 0.0353,0.41119 0.15863,0.82135 0.19809,0.6585 0.20052,0.82023 0.0221,1.47117 -0.27994,1.02143 -0.64047,1.83478 -1.18274,2.66825 -0.18449,0.28356 -0.37545,0.62264 -0.42435,0.75351 -0.10998,0.29436 -0.11918,0.6604 -0.0217,0.86572 0.0742,0.15626 0.30715,0.38352 0.39321,0.38352 0.029,0 0.0908,-0.10413 0.13716,-0.2314 0.25572,-0.70132 0.85105,-1.25604 1.51629,-1.41285 1.17991,-0.27812 2.68862,0.50161 3.42162,1.76838 l 0.10625,0.18361 -0.12342,0.34108 c -0.29094,0.80405 -0.88064,1.44581 -1.68081,1.82919 -1.04023,0.4984 -2.09459,0.41818 -2.76885,-0.21066 -0.22809,-0.21272 -0.36241,-0.41083 -0.48826,-0.72015 l -0.0885,-0.2176 -0.0248,0.19777 c -0.0828,0.66137 -0.11538,0.81152 -0.22636,1.04213 -0.0844,0.17546 -0.16592,0.27983 -0.27468,0.3518 -0.16981,0.11237 -0.45384,0.15875 -0.56258,0.0918 z"
               id="path963"
               inkscape:connector-curvature="0" />
          </g>
          <path
             sodipodi:nodetypes="czzzczcc"
             inkscape:connector-curvature="0"
             id="path967"
             d="m 155.2112,219.3202 c -1.92917,4.12142 -0.96459,12.75871 0,16.04708 0.96459,3.28837 5.2694,9.02416 11.21198,9.02416 5.94258,0 10.24791,-5.73579 11.2125,-9.02416 0.96459,-3.28837 1.92917,-11.92566 0,-16.04708 0,0 -7.47508,-2.91918 -11.2125,-2.91918 -3.73741,0 -11.21197,2.91918 -11.21197,2.91918 z"
             style="opacity:1;fill:none;fill-opacity:1;stroke:#1a1a1a;stroke-width:1;stroke-linecap:round;stroke-linejoin:miter;stroke-miterlimit:4;stroke-dasharray:none;stroke-dashoffset:0;stroke-opacity:1;paint-order:stroke fill markers" />
        </g>
        <rect
           style="opacity:1;fill:url(#linearGradient1049);fill-opacity:1;stroke:none;stroke-width:0.06186763;stroke-linecap:round;stroke-linejoin:miter;stroke-miterlimit:4;stroke-dasharray:none;stroke-dashoffset:0;stroke-opacity:1;paint-order:stroke fill markers"
           id="rect1025"
           width="7.2432737"
           height="46.052914"
           x="145.02127"
           y="176.55717"
           ry="0.099658221" />
      </g>
      <g
         transform="matrix(2.4914266,0,0,2.4914266,-79.999592,81.119778)"
         id="g1954">
        <rect
           style="opacity:1;fill:#ffffff;fill-opacity:1;stroke:none;stroke-width:0.156;stroke-linecap:round;stroke-linejoin:miter;stroke-miterlimit:4;stroke-dasharray:none;stroke-dashoffset:0;stroke-opacity:1;paint-order:stroke fill markers"
           id="rect1824"
           width="46.052914"
           height="46.052914"
           x="144.38406"
           y="176.55717"
           ry="0.099658221" />
        <g
           id="g1721"
           transform="translate(0.97304486,-30.179987)">
          <path
             style="opacity:0.253;fill:#1a1a1a;fill-opacity:1;stroke:#1a1a1a;stroke-width:1;stroke-linecap:round;stroke-linejoin:miter;stroke-miterlimit:4;stroke-dasharray:none;stroke-dashoffset:0;stroke-opacity:1;paint-order:stroke fill markers;filter:url(#filter1926)"
             d="m 156.28428,220.03559 c -1.92917,4.12142 -0.96459,12.75871 0,16.04708 0.96459,3.28837 5.2694,9.02416 11.21198,9.02416 5.94258,0 10.24791,-5.73579 11.2125,-9.02416 0.96459,-3.28837 1.92917,-11.92566 0,-16.04708 0,0 -7.47508,-2.91918 -11.2125,-2.91918 -3.73741,0 -11.21197,2.91918 -11.21197,2.91918 z"
             id="path1596-3"
             inkscape:connector-curvature="0"
             sodipodi:nodetypes="czzzczcc" />
          <g
             clip-path="url(#clipPath1664)"
             id="g1623">
            <path
               style="opacity:1;fill:#008066;fill-opacity:1;stroke:none;stroke-width:2.37800002;stroke-linecap:round;stroke-linejoin:miter;stroke-miterlimit:4;stroke-dasharray:none;stroke-dashoffset:0;stroke-opacity:1;paint-order:stroke fill markers"
               d="m 155.2112,219.3202 c -1.92917,4.12142 -1.92918,9.47034 0,16.04708 0,0 5.2694,9.02416 11.21198,9.02416 5.94258,0 11.2125,-9.02416 11.2125,-9.02416 1.92918,-6.57674 1.92917,-11.92566 0,-16.04708 0,0 -7.47508,-2.45307 -11.2125,-2.45307 -3.73741,0 -11.21197,2.45307 -11.21197,2.45307 z"
               id="path1587"
               inkscape:connector-curvature="0"
               sodipodi:nodetypes="cczcczcc" />
            <ellipse
               ry="3.7170997"
               rx="4.3456779"
               cy="229.22545"
               cx="166.26463"
               id="path1697"
               style="opacity:1;fill:#ffcc00;fill-opacity:1;stroke:#1a1a1a;stroke-width:1.05802834;stroke-linecap:round;stroke-linejoin:round;stroke-miterlimit:4;stroke-dasharray:none;stroke-dashoffset:0;stroke-opacity:1;paint-order:stroke fill markers" />
            <g
               transform="translate(-2.9004405,-2.2412495)"
               id="g1674">
              <path
                 inkscape:connector-curvature="0"
                 id="path1594"
                 d="m 147.55597,235.62557 c 0,0 11.10474,-9.13289 16.14562,-7.78218 5.04087,1.35069 7.36918,6.62833 14.1633,6.62833 6.79411,0 1.47055,10.81551 -6.2155,10.81551 -7.68605,0 -14.9575,3.20321 -17.75421,-0.15285 -2.79671,-3.35605 -6.33921,-9.50881 -6.33921,-9.50881 z"
                 style="opacity:1;fill:#00ff66;fill-opacity:1;stroke:#1a1a1a;stroke-width:1.05799997;stroke-linecap:round;stroke-linejoin:miter;stroke-miterlimit:4;stroke-dasharray:none;stroke-dashoffset:0;stroke-opacity:1;paint-order:stroke fill markers"
                 sodipodi:nodetypes="ccsscc" />
            </g>
            <g
               transform="matrix(-1,0,0,1,335.45855,0.26367641)"
               id="g1680">
              <path
                 sodipodi:nodetypes="ccsscc"
                 style="opacity:1;fill:#00ff66;fill-opacity:1;stroke:#1a1a1a;stroke-width:1.05802834;stroke-linecap:round;stroke-linejoin:miter;stroke-miterlimit:4;stroke-dasharray:none;stroke-dashoffset:0;stroke-opacity:1;paint-order:stroke fill markers"
                 d="m 148.85445,234.60004 c 0,0 11.10474,-9.13289 16.14562,-7.78218 5.04087,1.35069 7.36918,6.62833 14.1633,6.62833 6.79411,0 1.47055,10.81551 -6.2155,10.81551 -7.68605,0 -14.9575,3.20321 -17.75421,-0.15285 -2.79671,-3.35605 -6.33921,-9.50881 -6.33921,-9.50881 z"
                 id="path1676"
                 inkscape:connector-curvature="0" />
            </g>
            <path
               style="opacity:1;fill:#ffffff;fill-opacity:1;stroke:#1a1a1a;stroke-width:1.05799997;stroke-linecap:round;stroke-linejoin:round;stroke-miterlimit:4;stroke-dasharray:none;stroke-dashoffset:0;stroke-opacity:1;paint-order:stroke fill markers"
               d="m 178.42151,224.42408 a 2.5049259,2.5049259 0 0 0 -2.35789,2.39345 1.1865438,1.1865438 0 0 0 -1.10466,-0.60841 1.1865438,1.1865438 0 0 0 -1.11589,1.25312 1.1865438,1.1865438 0 0 0 0.0572,0.29847 l -2.4891,1.03088 5.36561,-0.11877 a 2.5049259,2.5049259 0 0 0 1.93449,0.75238 2.5049259,2.5049259 0 0 0 1.72254,-0.83327 l 2.05598,-0.0456 -0.47093,-1.29372 -0.97552,0.0394 a 2.5049259,2.5049259 0 0 0 0.0236,-0.51228 2.5049259,2.5049259 0 0 0 -2.64542,-2.3557 z"
               id="path1693"
               inkscape:connector-curvature="0" />
            <text
               id="text1631"
               y="222.02834"
               x="158.89825"
               style="font-style:normal;font-weight:normal;font-size:3.20413518px;line-height:1.25;font-family:sans-serif;letter-spacing:0px;word-spacing:0px;fill:#ffffff;fill-opacity:1;stroke:none;stroke-width:0.08010338"
               xml:space="preserve"><tspan
                 style="font-style:normal;font-variant:normal;font-weight:900;font-stretch:normal;font-family:Montserrat;-inkscape-font-specification:'Montserrat Heavy';fill:#ffffff;fill-opacity:1;stroke-width:0.08010338"
                 y="222.02834"
                 x="158.89825"
                 id="tspan1629"
                 sodipodi:role="line">PERAMU</tspan></text>
            <g
               transform="matrix(1.8251069,0,0,0.96865979,-160.20317,12.106516)"
               id="g1524" />
            <path
               style="opacity:1;fill:#25c967;fill-opacity:1;stroke:none;stroke-width:1;stroke-linecap:round;stroke-linejoin:round;stroke-miterlimit:4;stroke-dasharray:none;stroke-dashoffset:0;stroke-opacity:1;paint-order:stroke fill markers"
               d="m 177.27708,233.71353 c 0.43768,1.02126 -5.63772,9.60755 -7.38783,9.76461 l 8.92215,-5.23185 z"
               id="path1548"
               inkscape:connector-curvature="0"
               sodipodi:nodetypes="cccc" />
            <path
               inkscape:connector-curvature="0"
               id="path1695"
               d="m 179.16571,227.31572 a 1.5580973,1.5580973 0 0 0 -1.46665,1.48876 0.73804602,0.73804602 0 0 0 -0.68711,-0.37845 0.73804602,0.73804602 0 0 0 -0.69409,0.77946 0.73804602,0.73804602 0 0 0 0.0355,0.18566 l -1.54825,0.64123 3.33748,-0.0739 a 1.5580973,1.5580973 0 0 0 1.20328,0.46798 1.5580973,1.5580973 0 0 0 1.07143,-0.5183 l 1.27885,-0.0283 -0.29292,-0.80471 -0.60682,0.024 a 1.5580973,1.5580973 0 0 0 0.0147,-0.31865 1.5580973,1.5580973 0 0 0 -1.64549,-1.46527 z"
               style="opacity:1;fill:#ffffff;fill-opacity:1;stroke:#1a1a1a;stroke-width:1.30892217;stroke-linecap:round;stroke-linejoin:round;stroke-miterlimit:4;stroke-dasharray:none;stroke-dashoffset:0;stroke-opacity:1;paint-order:stroke fill markers" />
            <path
               style="opacity:1;fill:#00ff66;fill-opacity:1;stroke:none;stroke-width:1;stroke-linecap:round;stroke-linejoin:round;stroke-miterlimit:4;stroke-dasharray:none;stroke-dashoffset:0;stroke-opacity:1;paint-order:stroke fill markers"
               d="m 166.35137,229.20303 c 0,0 -0.3073,0.46765 0.33398,0.46764 -0.92248,0.76349 -8.75968,7.56506 -14.58859,5.00034 l 0.37411,0.48101 -0.37412,-1.49646 13.6775,-4.74107 c -0.072,0.36409 -0.0189,0.58971 0.57712,0.28854 z"
               id="path1556"
               inkscape:connector-curvature="0"
               sodipodi:nodetypes="ccccccc" />
            <path
               sodipodi:nodetypes="cccc"
               inkscape:connector-curvature="0"
               id="path1550"
               d="m 155.51042,232.33399 c -0.43768,1.7074 5.70867,11.49626 7.45878,11.14415 l -11.23081,-7.22208 z"
               style="opacity:1;fill:#25c967;fill-opacity:1;stroke:none;stroke-width:1;stroke-linecap:round;stroke-linejoin:round;stroke-miterlimit:4;stroke-dasharray:none;stroke-dashoffset:0;stroke-opacity:1;paint-order:stroke fill markers" />
            <text
               xml:space="preserve"
               style="font-style:normal;font-weight:normal;font-size:0.90866333px;line-height:1.25;font-family:sans-serif;letter-spacing:0px;word-spacing:0px;fill:#ffffff;fill-opacity:1;stroke:none;stroke-width:0.02271659"
               x="156.27164"
               y="223.06065"
               id="text1554"><tspan
                 sodipodi:role="line"
                 id="tspan1552"
                 x="156.27164"
                 y="223.06065"
                 style="font-style:normal;font-variant:normal;font-weight:bold;font-stretch:normal;font-family:Montserrat;-inkscape-font-specification:'Montserrat Bold';fill:#ffffff;fill-opacity:1;stroke-width:0.02271659">PENGEMBARAAN RANTING MUSTIKA JAYA</tspan></text>
            <path
               inkscape:connector-curvature="0"
               id="path1684"
               d="m 155.91143,228.08399 a 1.950465,1.950465 0 0 1 1.83597,1.86367 0.92390445,0.92390445 0 0 1 0.86015,-0.47374 0.92390445,0.92390445 0 0 1 0.86889,0.97574 0.92390445,0.92390445 0 0 1 -0.0445,0.23241 l 1.93814,0.80269 -4.17794,-0.0925 a 1.950465,1.950465 0 0 1 -1.5063,0.58584 1.950465,1.950465 0 0 1 -1.34126,-0.64882 l -1.60089,-0.0355 0.36669,-1.00736 0.75959,0.0307 a 1.950465,1.950465 0 0 1 -0.0184,-0.39889 1.950465,1.950465 0 0 1 2.05986,-1.83427 z"
               style="opacity:1;fill:#ffffff;fill-opacity:1;stroke:#1a1a1a;stroke-width:1.05799997;stroke-linecap:round;stroke-linejoin:round;stroke-miterlimit:4;stroke-dasharray:none;stroke-dashoffset:0;stroke-opacity:1;paint-order:stroke fill markers" />
            <path
               style="opacity:1;fill:#ffffff;fill-opacity:1;stroke:#1a1a1a;stroke-width:1.05799997;stroke-linecap:round;stroke-linejoin:round;stroke-miterlimit:4;stroke-dasharray:none;stroke-dashoffset:0;stroke-opacity:1;paint-order:stroke fill markers"
               d="m 154.45123,230.16983 a 1.2672161,1.2672161 0 0 1 1.19285,1.21082 0.60026022,0.60026022 0 0 1 0.55883,-0.30779 0.60026022,0.60026022 0 0 1 0.56451,0.63395 0.60026022,0.60026022 0 0 1 -0.0289,0.151 l 1.2592,0.52151 -2.71441,-0.0601 a 1.2672161,1.2672161 0 0 1 -0.97862,0.38062 1.2672161,1.2672161 0 0 1 -0.87142,-0.42154 l -1.04009,-0.023 0.23822,-0.65448 0.49354,0.0196 a 1.2672161,1.2672161 0 0 1 -0.0117,-0.25916 1.2672161,1.2672161 0 0 1 1.3383,-1.19172 z"
               id="path1691"
               inkscape:connector-curvature="0" />
            <path
               inkscape:connector-curvature="0"
               id="path643"
               d="m 165.95244,241.28309 c -0.0661,-0.0192 -0.18046,-0.0935 -0.25408,-0.16497 -0.23921,-0.23233 -0.33557,-0.53413 -0.42071,-1.31755 l -0.0256,-0.23575 -0.074,0.21008 c -0.31951,0.90727 -1.22901,1.40934 -2.29742,1.26822 -1.20779,-0.15953 -2.26957,-1.01644 -2.66133,-2.14783 -0.12818,-0.37019 -0.1277,-0.37214 0.20345,-0.82208 0.97059,-1.31873 2.56805,-1.86216 3.70019,-1.25874 0.4262,0.22716 0.82292,0.69996 1.02532,1.22194 0.0501,0.1293 0.10201,0.2351 0.11525,0.2351 0.0795,0 0.30757,-0.20686 0.38726,-0.35121 0.12375,-0.22417 0.12492,-0.56969 0.003,-0.89548 -0.10196,-0.27253 -0.16539,-0.38486 -0.50219,-0.88935 -0.45156,-0.67636 -0.83128,-1.54733 -1.10657,-2.53812 -0.17337,-0.62401 -0.16912,-0.90466 0.0223,-1.47292 0.0905,-0.26864 0.13339,-0.48202 0.14946,-0.74359 0.0124,-0.20177 0.0382,-0.36685 0.0574,-0.36685 0.0583,0 0.18928,0.24384 0.27018,0.50301 0.0642,0.20551 0.13595,0.53852 0.30505,1.4149 0.0181,0.0938 0.0305,0.10413 0.0721,0.0595 0.1722,-0.18522 0.18715,-0.80546 0.037,-1.53617 -0.17191,-0.83684 -0.0967,-1.50506 0.22139,-1.96741 0.0678,-0.0985 0.12685,-0.17897 0.13125,-0.17877 0.004,1.4e-4 0.0118,0.10913 0.0163,0.24207 0.0127,0.3696 0.21842,1.00529 0.57495,1.77662 0.28406,0.61454 0.32903,0.84078 0.32789,1.64936 -0.001,0.77628 -0.0286,0.96841 -0.28645,2.00276 -0.12309,0.49374 -0.14374,0.64234 -0.14607,1.05095 -0.002,0.45461 0.005,0.50163 0.17401,1.05095 0.16651,0.54181 0.17683,0.60256 0.17846,1.05095 0.002,0.39057 -0.0115,0.5008 -0.0722,0.61471 -0.0969,0.18187 -0.25996,0.35596 -0.37552,0.40085 l -0.0925,0.0359 0.10086,0.11987 c 0.11237,0.13354 0.13233,0.22426 0.15677,0.71241 0.0207,0.41344 0.0799,0.56117 0.33976,0.84815 0.22693,0.25059 0.2539,0.36364 0.10065,0.42191 -0.11882,0.0452 -0.19085,0.0445 -0.3556,-0.003 z m 0.60604,-0.19673 c -0.11457,-0.0705 -0.0796,-0.18982 0.11339,-0.38721 0.27109,-0.27723 0.34175,-0.46413 0.37053,-0.98011 0.025,-0.44848 0.0369,-0.49283 0.1722,-0.64323 l 0.0792,-0.088 -0.095,-0.0371 c -0.13554,-0.0529 -0.2597,-0.1807 -0.36267,-0.37337 -0.0787,-0.14725 -0.0891,-0.2234 -0.0876,-0.64294 0.002,-0.4451 0.0126,-0.51184 0.17136,-1.03112 0.23228,-0.75982 0.25446,-1.12946 0.10593,-1.76481 -0.337,-1.44146 -0.34858,-1.5175 -0.35357,-2.32003 -0.005,-0.8447 0.0356,-1.06313 0.30905,-1.65525 0.35326,-0.76478 0.5489,-1.3466 0.60072,-1.78649 l 0.0271,-0.2294 0.11523,0.15669 c 0.30019,0.40819 0.38971,1.14371 0.22744,1.86863 -0.12641,0.56473 -0.13533,1.38877 -0.017,1.56817 l 0.0774,0.11731 0.0305,-0.11897 c 0.0168,-0.0654 0.0766,-0.35663 0.13292,-0.64709 0.11785,-0.60768 0.22179,-0.96381 0.33491,-1.14746 0.12234,-0.19861 0.15988,-0.15985 0.15988,0.1651 0,0.22866 0.0353,0.41119 0.15863,0.82135 0.19809,0.6585 0.20052,0.82023 0.0221,1.47117 -0.27994,1.02143 -0.64047,1.83478 -1.18274,2.66825 -0.18449,0.28356 -0.37545,0.62264 -0.42435,0.75351 -0.10998,0.29436 -0.11918,0.6604 -0.0217,0.86572 0.0742,0.15626 0.30715,0.38352 0.39321,0.38352 0.029,0 0.0908,-0.10413 0.13716,-0.2314 0.25572,-0.70132 0.85105,-1.25604 1.51629,-1.41285 1.17991,-0.27812 2.68862,0.50161 3.42162,1.76838 l 0.10625,0.18361 -0.12342,0.34108 c -0.29094,0.80405 -0.88064,1.44581 -1.68081,1.82919 -1.04023,0.4984 -2.09459,0.41818 -2.76885,-0.21066 -0.22809,-0.21272 -0.36241,-0.41083 -0.48826,-0.72015 l -0.0885,-0.2176 -0.0248,0.19777 c -0.0828,0.66137 -0.11538,0.81152 -0.22636,1.04213 -0.0844,0.17546 -0.16592,0.27983 -0.27468,0.3518 -0.16981,0.11237 -0.45384,0.15875 -0.56258,0.0918 z"
               style="fill:#1a1a1a;fill-opacity:1;stroke-width:0.03965855" />
          </g>
          <path
             style="opacity:1;fill:none;fill-opacity:1;stroke:#1a1a1a;stroke-width:1;stroke-linecap:round;stroke-linejoin:miter;stroke-miterlimit:4;stroke-dasharray:none;stroke-dashoffset:0;stroke-opacity:1;paint-order:stroke fill markers"
             d="m 155.2112,219.3202 c -1.92917,4.12142 -0.96459,12.75871 0,16.04708 0.96459,3.28837 5.2694,9.02416 11.21198,9.02416 5.94258,0 10.24791,-5.73579 11.2125,-9.02416 0.96459,-3.28837 1.92917,-11.92566 0,-16.04708 0,0 -7.47508,-2.91918 -11.2125,-2.91918 -3.73741,0 -11.21197,2.91918 -11.21197,2.91918 z"
             id="path1596"
             inkscape:connector-curvature="0"
             sodipodi:nodetypes="czzzczcc" />
        </g>
      </g>
    </g>
  </g>
</svg>
