<?xml version="1.0" encoding="UTF-8" standalone="no"?>
<!-- Created with Inkscape (http://www.inkscape.org/) -->

<svg
   xmlns:dc="http://purl.org/dc/elements/1.1/"
   xmlns:cc="http://creativecommons.org/ns#"
   xmlns:rdf="http://www.w3.org/1999/02/22-rdf-syntax-ns#"
   xmlns:svg="http://www.w3.org/2000/svg"
   xmlns="http://www.w3.org/2000/svg"
   xmlns:xlink="http://www.w3.org/1999/xlink"
   xmlns:sodipodi="http://sodipodi.sourceforge.net/DTD/sodipodi-0.dtd"
   xmlns:inkscape="http://www.inkscape.org/namespaces/inkscape"
   width="361.42084mm"
   height="203.2mm"
   viewBox="0 0 361.42084 203.2"
   version="1.1"
   id="svg1567"
   sodipodi:docname="Wallpaper_HighMountain .svg"
   inkscape:version="0.92.4 5da689c313, 2019-01-14">
  <defs
     id="defs1561">
    <linearGradient
       inkscape:collect="always"
       id="linearGradient2343">
      <stop
         style="stop-color:#374548;stop-opacity:1;"
         offset="0"
         id="stop2339" />
      <stop
         style="stop-color:#374548;stop-opacity:0;"
         offset="1"
         id="stop2341" />
    </linearGradient>
    <linearGradient
       id="linearGradient2337"
       inkscape:collect="always">
      <stop
         id="stop2333"
         offset="0"
         style="stop-color:#80e5ff;stop-opacity:1" />
      <stop
         id="stop2335"
         offset="1"
         style="stop-color:#5fbcd3;stop-opacity:1" />
    </linearGradient>
    <linearGradient
       inkscape:collect="always"
       id="linearGradient2279">
      <stop
         style="stop-color:#80e5ff;stop-opacity:1"
         offset="0"
         id="stop2275" />
      <stop
         style="stop-color:#5fbcd3;stop-opacity:1"
         offset="1"
         id="stop2277" />
    </linearGradient>
    <linearGradient
       inkscape:collect="always"
       id="linearGradient2148">
      <stop
         style="stop-color:#216778;stop-opacity:1;"
         offset="0"
         id="stop2144" />
      <stop
         style="stop-color:#2ad4ff;stop-opacity:1"
         offset="1"
         id="stop2146" />
    </linearGradient>
    <linearGradient
       inkscape:collect="always"
       id="linearGradient2129">
      <stop
         style="stop-color:#37abc8;stop-opacity:1"
         offset="0"
         id="stop2125" />
      <stop
         style="stop-color:#216778;stop-opacity:1"
         offset="1"
         id="stop2127" />
    </linearGradient>
    <clipPath
       clipPathUnits="userSpaceOnUse"
       id="clipPath2158">
      <path
         inkscape:connector-curvature="0"
         id="path2160"
         d="m 14.334287,317.4699 c 0,0 84.73872,-158.23659 114.137873,-164.28936 29.39915,-6.05276 163.42468,157.37191 156.50723,185.0417 C 278.06194,365.89204 14.334287,317.4699 14.334287,317.4699 Z"
         style="opacity:1;fill:url(#linearGradient2162);fill-opacity:1;stroke:none;stroke-width:0.69799995;stroke-linecap:round;stroke-miterlimit:4;stroke-dasharray:none;stroke-opacity:1" />
    </clipPath>
    <linearGradient
       inkscape:collect="always"
       xlink:href="#linearGradient2148"
       id="linearGradient2162"
       gradientUnits="userSpaceOnUse"
       x1="144.90109"
       y1="197.27927"
       x2="-111.90911"
       y2="394.42648" />
    <clipPath
       clipPathUnits="userSpaceOnUse"
       id="clipPath2193">
      <rect
         y="85.735435"
         x="-108.45039"
         height="203.2"
         width="361.42084"
         id="rect2195"
         style="opacity:1;fill:url(#linearGradient2197);fill-opacity:1;stroke:none;stroke-width:0.69799995;stroke-linecap:round;stroke-miterlimit:4;stroke-dasharray:none;stroke-opacity:1" />
    </clipPath>
    <linearGradient
       inkscape:collect="always"
       xlink:href="#linearGradient2129"
       id="linearGradient2197"
       gradientUnits="userSpaceOnUse"
       x1="130.20152"
       y1="132.42821"
       x2="45.534016"
       y2="448.41165" />
    <linearGradient
       inkscape:collect="always"
       xlink:href="#linearGradient2279"
       id="linearGradient2283"
       gradientUnits="userSpaceOnUse"
       x1="46.986828"
       y1="160.7756"
       x2="29.961561"
       y2="284.71939"
       gradientTransform="matrix(0.86339788,0,0,0.86339788,-12.745537,42.278257)" />
    <linearGradient
       inkscape:collect="always"
       xlink:href="#linearGradient2343"
       id="linearGradient2345"
       x1="74.120361"
       y1="264.58432"
       x2="182.66948"
       y2="185.96317"
       gradientUnits="userSpaceOnUse" />
    <linearGradient
       inkscape:collect="always"
       xlink:href="#linearGradient2343"
       id="linearGradient2353"
       gradientUnits="userSpaceOnUse"
       x1="74.120361"
       y1="264.58432"
       x2="182.66948"
       y2="185.96317" />
    <linearGradient
       inkscape:collect="always"
       xlink:href="#linearGradient2279"
       id="linearGradient2359"
       gradientUnits="userSpaceOnUse"
       gradientTransform="matrix(0.86339788,0,0,0.86339788,-101.43462,27.278977)"
       x1="46.986828"
       y1="160.7756"
       x2="29.961561"
       y2="284.71939" />
    <linearGradient
       inkscape:collect="always"
       xlink:href="#linearGradient2337"
       id="linearGradient2361"
       gradientUnits="userSpaceOnUse"
       gradientTransform="matrix(0.68618302,0,0,0.68618302,280.53422,-4.2397685)"
       x1="-257.35391"
       y1="154.73862"
       x2="-257.35391"
       y2="304.89099" />
    <linearGradient
       inkscape:collect="always"
       xlink:href="#linearGradient2337"
       id="linearGradient2371"
       gradientUnits="userSpaceOnUse"
       gradientTransform="matrix(0.5994011,0,0,0.5994011,160.35054,107.75681)"
       x1="-257.35391"
       y1="154.73862"
       x2="-165.02913"
       y2="405.87122" />
  </defs>
  <sodipodi:namedview
     id="base"
     pagecolor="#ffffff"
     bordercolor="#666666"
     borderopacity="1.0"
     inkscape:pageopacity="0.0"
     inkscape:pageshadow="2"
     inkscape:zoom="0.30598959"
     inkscape:cx="529.40005"
     inkscape:cy="112.04491"
     inkscape:document-units="mm"
     inkscape:current-layer="layer1"
     showgrid="false"
     inkscape:snap-global="false"
     inkscape:window-width="1326"
     inkscape:window-height="661"
     inkscape:window-x="20"
     inkscape:window-y="40"
     inkscape:window-maximized="1"
     showguides="false" />
  <metadata
     id="metadata1564">
    <rdf:RDF>
      <cc:Work
         rdf:about="">
        <dc:format>image/svg+xml</dc:format>
        <dc:type
           rdf:resource="http://purl.org/dc/dcmitype/StillImage" />
      </cc:Work>
    </rdf:RDF>
  </metadata>
  <g
     inkscape:label="Layer 1"
     inkscape:groupmode="layer"
     id="layer1"
     transform="translate(108.45039,-85.735435)">
    <rect
       style="opacity:1;fill:#5fbcd3;fill-opacity:1;stroke:none;stroke-width:0.69799995;stroke-linecap:round;stroke-miterlimit:4;stroke-dasharray:none;stroke-opacity:1"
       id="rect2123"
       width="361.42084"
       height="203.2"
       x="-108.45039"
       y="85.735435" />
    <g
       id="g2189"
       clip-path="url(#clipPath2193)">
      <g
         transform="matrix(1.8450955,0,0,1.8450955,-32.767933,-80.774068)"
         id="g2407"
         style="fill:#0088aa">
        <circle
           style="opacity:0.5;fill:#0088aa;fill-opacity:1;stroke:none;stroke-width:2.79199982;stroke-linecap:round;stroke-miterlimit:4;stroke-dasharray:none;stroke-opacity:1"
           id="circle2394"
           cx="-18.523581"
           cy="143.66904"
           r="34.587234" />
        <circle
           r="8.6468086"
           cy="143.66905"
           cx="-18.523581"
           id="path2392"
           style="opacity:0.5;fill:#0088aa;fill-opacity:1;stroke:none;stroke-width:0.69799995;stroke-linecap:round;stroke-miterlimit:4;stroke-dasharray:none;stroke-opacity:1" />
        <circle
           r="45.828087"
           cy="143.66904"
           cx="-18.523581"
           id="circle2396"
           style="opacity:0.5;fill:#0088aa;fill-opacity:1;stroke:#72d3ec;stroke-width:1;stroke-linecap:round;stroke-miterlimit:4;stroke-dasharray:none;stroke-opacity:1" />
        <circle
           style="opacity:0.5;fill:#0088aa;fill-opacity:1;stroke:#72d3ec;stroke-width:1.6532501;stroke-linecap:round;stroke-miterlimit:4;stroke-dasharray:none;stroke-opacity:1"
           id="circle2398"
           cx="-18.523581"
           cy="143.66904"
           r="75.765289" />
        <circle
           r="146.75923"
           cy="143.66904"
           cx="-18.523581"
           id="circle2400"
           style="opacity:0.5;fill:#0088aa;fill-opacity:1;stroke:#72d3ec;stroke-width:3.20238614;stroke-linecap:round;stroke-miterlimit:4;stroke-dasharray:none;stroke-opacity:1" />
      </g>
      <path
         inkscape:connector-curvature="0"
         id="path2357"
         d="m 360.91333,131.84978 a 52.743107,52.743107 0 0 0 -44.37785,24.34389 56.662948,56.662948 0 0 0 -44.8549,-22.09681 56.662948,56.662948 0 0 0 -48.73451,27.87913 31.446454,31.446454 0 0 0 -10.3019,-1.77278 31.446454,31.446454 0 0 0 -31.44668,31.44599 31.446454,31.446454 0 0 0 31.44668,31.44668 31.446454,31.446454 0 0 0 11.16182,-2.05943 56.662948,56.662948 0 0 0 47.87459,26.38612 56.662948,56.662948 0 0 0 49.18062,-28.60639 52.743107,52.743107 0 0 0 40.05213,18.51965 52.743107,52.743107 0 0 0 52.74268,-52.74338 52.743107,52.743107 0 0 0 -52.74268,-52.74267 z"
         style="opacity:0.5;fill:url(#linearGradient2361);fill-opacity:1;stroke:none;stroke-width:0.47895572;stroke-linecap:round;stroke-miterlimit:4;stroke-dasharray:none;stroke-opacity:1" />
      <g
         id="g2182"
         transform="rotate(5.9154783,17.643564,-519.35912)"
         style="opacity:1">
        <path
           style="opacity:1;fill:#72d3ec;fill-opacity:1;stroke:none;stroke-width:0.69799995;stroke-linecap:round;stroke-miterlimit:4;stroke-dasharray:none;stroke-opacity:1"
           d="m 14.334288,317.4699 c 0,0 84.73872,-158.23659 114.137872,-164.28936 29.39915,-6.05276 163.42468,157.37191 156.50723,185.0417 C 278.06193,365.89203 14.334288,317.4699 14.334288,317.4699 Z"
           id="path2133"
           inkscape:connector-curvature="0" />
        <path
           style="opacity:0.25;fill:url(#linearGradient2345);fill-opacity:1;stroke:none;stroke-width:0.69799995;stroke-linecap:round;stroke-miterlimit:4;stroke-dasharray:none;stroke-opacity:1"
           d="m 125.87811,147.99246 40.63999,81.28 -35.4519,40.63999 43.23404,111.54383 162.55999,16.42893 c 0,0 -6.05276,-80.41531 -19.88767,-115.86722 C 303.13769,246.56607 154.41258,122.91671 125.87811,147.99246 Z"
           id="path2152"
           inkscape:connector-curvature="0"
           clip-path="url(#clipPath2158)" />
      </g>
      <g
         transform="rotate(5.9154783,451.98051,705.31276)"
         id="g2351">
        <path
           inkscape:connector-curvature="0"
           id="path2347"
           d="m 14.334288,317.4699 c 0,0 84.73872,-158.23659 114.137872,-164.28936 29.39915,-6.05276 163.42468,157.37191 156.50723,185.0417 C 278.06193,365.89203 14.334288,317.4699 14.334288,317.4699 Z"
           style="opacity:1;fill:#6acae2;fill-opacity:1;stroke:none;stroke-width:0.69799995;stroke-linecap:round;stroke-miterlimit:4;stroke-dasharray:none;stroke-opacity:1" />
        <path
           clip-path="url(#clipPath2158)"
           inkscape:connector-curvature="0"
           id="path2349"
           d="m 125.87811,147.99246 40.63999,81.28 -35.4519,40.63999 43.23404,111.54383 162.55999,16.42893 c 0,0 -6.05276,-80.41531 -19.88767,-115.86722 C 303.13769,246.56607 154.41258,122.91671 125.87811,147.99246 Z"
           style="opacity:0.25;fill:url(#linearGradient2353);fill-opacity:1;stroke:none;stroke-width:0.69799995;stroke-linecap:round;stroke-miterlimit:4;stroke-dasharray:none;stroke-opacity:1" />
      </g>
      <path
         inkscape:connector-curvature="0"
         id="path2369"
         d="m 230.56407,226.63504 a 46.072659,46.072659 0 0 0 -38.76537,21.26511 49.496756,49.496756 0 0 0 -39.18207,-19.30222 49.496756,49.496756 0 0 0 -42.57103,24.35324 27.469405,27.469405 0 0 0 -8.99902,-1.54857 27.469405,27.469405 0 0 0 -27.469599,27.46901 27.469405,27.469405 0 0 0 27.469599,27.4696 27.469405,27.469405 0 0 0 9.75018,-1.79897 49.496756,49.496756 0 0 0 41.81987,23.04905 49.496756,49.496756 0 0 0 42.96072,-24.98852 46.072659,46.072659 0 0 0 34.98672,16.17746 46.072659,46.072659 0 0 0 46.07228,-46.0729 46.072659,46.072659 0 0 0 -46.07228,-46.07229 z"
         style="opacity:1;fill:url(#linearGradient2371);fill-opacity:1;stroke:none;stroke-width:0.41838193;stroke-linecap:round;stroke-miterlimit:4;stroke-dasharray:none;stroke-opacity:1" />
      <path
         style="opacity:1;fill:url(#linearGradient2283);fill-opacity:1;stroke:none;stroke-width:0.60265166;stroke-linecap:round;stroke-miterlimit:4;stroke-dasharray:none;stroke-opacity:1"
         d="m -23.885858,216.34169 a 71.296827,71.296827 0 0 0 -61.320978,35.07907 39.567869,39.567869 0 0 0 -12.96221,-2.23017 39.567869,39.567869 0 0 0 -39.567844,39.56783 39.567869,39.567869 0 0 0 39.567844,39.56783 39.567869,39.567869 0 0 0 14.04499,-2.59166 71.296827,71.296827 0 0 0 60.238198,33.20091 71.296827,71.296827 0 0 0 55.446432,-26.57109 39.567869,39.567869 0 0 0 30.034991,13.87902 39.567869,39.567869 0 0 0 39.567835,-39.56784 39.567869,39.567869 0 0 0 -39.567835,-39.56783 39.567869,39.567869 0 0 0 -16.30915,3.5714 71.296827,71.296827 0 0 0 -69.172273,-54.33747 z"
         id="path2199"
         inkscape:connector-curvature="0" />
    </g>
    <text
       xml:space="preserve"
       style="font-style:normal;font-weight:normal;font-size:10.58333302px;line-height:1.25;font-family:sans-serif;letter-spacing:0px;word-spacing:0px;fill:#ffffff;fill-opacity:1;stroke:none;stroke-width:0.26458332;"
       x="-42.734646"
       y="189.49715"
       id="text2460"><tspan
         sodipodi:role="line"
         id="tspan2458"
         x="-42.734646"
         y="189.49715"
         style="stroke-width:0.26458332;fill:#ffffff;">sem</tspan></text>
  </g>
</svg>
