<svg xmlns="http://www.w3.org/2000/svg" viewBox="0 0 1975 377.26"><defs><style>.cls-1{fill:#231f20;}</style></defs><g id="Layer_2" data-name="Layer 2"><g id="Layer_1-2" data-name="Layer 1"><g id="logo_psn" data-name="logo psn"><path class="cls-1" d="M1901.11,268.91c-50.36,0-65.82-28-65.82-28q-20.57,28-55.68,28-63.88,0-63.87-77.45V74.65h43.85v105q0,27.15,6.6,38.41,6.81,11.46,22.32,11.47,18,0,26.31-13.55t8.24-43.69V74.65h43.85V179.07q0,50.43,29.12,50.43,18.42,0,26.87-13.78t8.45-43.46V74.65H1975V192.93c0,43-23.51,76-73.89,76"/><path class="cls-1" d="M1507.62,0C1415.18,0,1340,75.23,1340,167.68s75.2,167.69,167.64,167.69,167.65-75.28,167.65-167.71S1600.07,0,1507.62,0m0,298.58c-72.17,0-130.9-58.75-130.9-130.9s58.73-130.86,130.9-130.86v0c72.19,0,130.92,58.66,130.92,130.83s-58.75,130.9-130.92,130.9"/><path class="cls-1" d="M1510.39,85.26a83.07,83.07,0,1,0,83.25,82.89,83.06,83.06,0,0,0-83.25-82.89m18.47,125.64a46.31,46.31,0,1,1,24.31-60.82,46.32,46.32,0,0,1-24.31,60.82"/><path class="cls-1" d="M1133.93,71h46V89.31q24-23.81,54.09-23.79,34.58,0,53.9,21.76,16.68,18.52,16.67,60.41v121.4h-46V158.45q0-29.3-8.13-40.48-7.93-11.35-28.88-11.38-22.78,0-32.32,15-9.39,14.83-9.37,51.86v95.59h-46Z"/><path class="cls-1" d="M1072,68.2c-1.47,11-2.9,22.1-4.37,33.12a85.13,85.13,0,0,0-32.15-1.47c-9.15,1.39-22,3.26-33.3,13.22s-15.36,22.54-16.87,30.09v123.7H949.2V63.33h36.08v28a74,74,0,0,1,14-12.05,97.27,97.27,0,0,1,23.08-10.89A90,90,0,0,1,1072,68.2"/><path class="cls-1" d="M842.84,72.22v23.3c-17.14-16.65-39.62-27.19-63.73-27.19-51.42,0-97.54,40.72-97.54,101.12s46.12,101.12,97.54,101.12c24.11,0,46.59-10.53,63.73-27.19v23.48h34.79V72.22ZM779.11,234.85c-34.84,0-63.09-29.28-63.09-65.4s28.25-65.4,63.09-65.4,63.08,29.28,63.08,65.4-28.25,65.4-63.08,65.4"/><path class="cls-1" d="M495.54,238.11l22-24.05c4,2.85,7.62,5.65,11.44,8.19,17,11.26,35.32,17.62,55.75,12.65a44.82,44.82,0,0,0,18.69-9.56c11-9.82,9.34-25.87-3.44-33-7.77-4.36-16.84-6.6-25.54-9-12.86-3.61-26.1-5.94-38.84-9.9-21.91-6.81-35.59-23.78-36.4-46.56-.75-20.92,8.47-37.21,27.35-47.34,23.67-12.72,48.17-12.82,73.09-4.37,13.14,4.47,25.37,11.53,32.17,18-.7,1-1.33,2-2.13,3-5.81,6.75-11.66,13.48-17.74,20.49-3.2-2-6.1-4-9.13-5.84C587.4,101.57,571,96.77,553.22,102a37.84,37.84,0,0,0-15.7,9.49c-9.13,9.33-7.26,22.69,4.19,29,7.38,4.07,15.79,6.45,24,8.81,12.66,3.65,25.68,6.14,38.26,10,21.69,6.73,36.62,20.22,38.87,44,2.2,23.18-7.18,41.08-27.12,53.07-18.26,11-38.08,13.14-58.88,9.66a128.17,128.17,0,0,1-61.27-27.95"/><path class="cls-1" d="M409,72.22v23.3C391.25,78.87,368,68.33,343,68.33c-53.3,0-101.12,40.72-101.12,101.12S289.65,270.57,343,270.57c25,0,48.3-10.53,66.07-27.19v23.48h36.07V72.22ZM343,234.85a65.4,65.4,0,1,1,65.4-65.4,65.4,65.4,0,0,1-65.4,65.4"/><path class="cls-1" d="M102.14,68.33c-25,0-48.3,10.54-66.07,27.19V72.22H0v305H36.07V243.38c17.77,16.66,41.07,27.19,66.07,27.19,53.31,0,101.12-40.72,101.12-101.12S155.45,68.33,102.14,68.33m0,166.52a65.4,65.4,0,1,1,65.41-65.4,65.41,65.41,0,0,1-65.41,65.4"/></g></g></g></svg>