<?xml version="1.0" encoding="UTF-8" standalone="no"?>
<!-- Created with Inkscape (http://www.inkscape.org/) -->
<svg
   xmlns:svg="http://www.w3.org/2000/svg"
   xmlns="http://www.w3.org/2000/svg"
   version="1.0"
   width="540"
   height="78"
   id="svg2"
   xml:space="preserve"><defs
     id="defs5" /><g
     transform="matrix(1.25,0,0,-1.25,-369.56761,464.91686)"
     id="g11"><path
       d="M 338.44692,337.99978 L 339.07949,339.15105 C 344.52587,349.03171 349.01708,359.39945 357.91094,366.82577 C 361.69368,369.98226 370.89751,371.92424 369.08837,362.37884 C 366.17224,351.66318 352.43926,340.06827 340.05996,338.22751 L 338.44692,337.99978 z M 361.85182,323.42549 C 366.20388,323.24204 378.81721,327.9167 378.67173,334.40682 C 378.02018,337.829 373.92748,337.32294 371.56802,336.62079 C 365.53336,334.82431 360.25776,328.08117 357.60099,323.79238 C 355.69064,320.70547 353.02754,318.45985 349.57374,317.19473 C 344.19694,315.2401 338.58609,315.03136 333.44333,315.89797 C 330.16665,316.45463 329.06598,316.74561 323.31597,318.1499 C 329.55939,323.20409 333.51291,330.44063 337.96617,336.90545 C 345.58226,337.88593 360.5614,341.87109 368.9492,357.20445 C 371.71984,362.2713 372.67501,369.46989 365.88759,370.66543 C 361.94038,371.36125 358.48026,369.65333 354.67221,367.00289 C 343.85535,359.48169 338.17492,348.38649 332.62733,337.34824 C 330.23623,337.03196 327.33908,337.20275 325.53627,337.56964 C 324.42296,337.79103 320.74776,338.30975 315.59868,341.64336 C 310.58244,344.8821 306.05328,352.8271 308.5266,362.54963 L 307.17924,362.01194 C 305.58518,357.54603 306.55933,351.41016 309.20345,346.7355 C 311.65147,342.40876 314.70043,340.02399 320.02663,337.94918 C 321.5954,337.34191 323.8916,336.34246 330.63475,336.14637 L 332.24779,336.22228 L 331.43178,334.67249 C 329.57837,331.16808 327.959,327.97996 325.70074,324.62103 C 325.45404,324.26048 325.07451,323.60261 324.77087,323.20409 C 323.48677,321.50249 322.462,320.33857 321.01976,318.73186 C 314.03625,320.67384 305.47764,321.81245 300.37916,319.89578 C 300.37916,319.89578 296.88109,318.8647 296.74825,315.95489 C 296.57745,312.14686 302.71333,311.27393 302.71333,311.27393 C 309.03898,310.20488 314.88388,312.46315 321.1273,316.53686 C 327.11768,314.48102 334.3732,309.79371 341.7679,310.78051 C 343.39991,310.99559 345.31026,311.40676 346.84106,312.20378 C 348.16312,312.88695 349.47885,313.5132 350.62379,314.44307 C 352.77451,316.19527 355.57678,319.09242 357.00005,321.47087 C 356.11447,318.90265 356.2473,317.01761 356.70907,315.30969 C 357.15187,313.68399 358.60044,312.10258 360.73218,311.6155 C 368.46845,309.85064 374.4715,315.78411 378.89313,321.81245 L 378.07079,321.74919 C 375.42034,318.1499 368.87962,310.79949 361.96569,312.53272 C 357.65792,314.67079 360.1945,320.15513 361.85182,323.42549 z M 362.39583,324.47555 C 364.37576,327.93567 368.13952,333.78057 373.21268,336.12739 C 374.66127,336.79158 376.34389,336.36144 376.84361,335.02674 C 377.25478,333.93872 377.42557,332.69257 375.20527,330.36473 C 373.85158,328.94146 368.08259,324.79816 362.39583,324.47555 z M 317.2813,316.01183 C 315.02938,314.65814 308.58353,311.49531 303.51669,312.21645 C 303.47242,312.22277 297.86157,312.85533 297.53262,315.33499 C 297.14044,318.29538 300.46141,319.21893 302.59315,319.6554 C 306.96416,320.53467 315.74417,318.90265 319.38141,317.28961 L 319.10309,317.11881 L 317.2813,316.01183"
       id="path801"
       style="fill:#231f20;fill-opacity:1;fill-rule:nonzero;stroke:none" /><path
       d="M 687.94535,312.02667 L 687.94535,349.20884 L 726.39264,310.76154 L 726.56343,367.76829 L 718.46028,367.66076 L 718.46028,330.24454 L 680.01298,368.69183 L 680.18377,311.96973 L 687.94535,312.02667"
       id="path807"
       style="fill:#231f20;fill-opacity:1;fill-rule:nonzero;stroke:none" /><path
       d="M 548.05363,312.02667 L 556.82097,312.02667 L 556.82097,367.76829 L 548.05363,367.76829 L 548.05363,312.02667 z"
       id="path811"
       style="fill:#231f20;fill-opacity:1;fill-rule:nonzero;stroke:none" /><path
       d="M 620.29886,312.02667 L 629.0662,312.02667 L 629.0662,367.76829 L 620.29886,367.76829 L 620.29886,312.02667 z"
       id="path815"
       style="fill:#231f20;fill-opacity:1;fill-rule:nonzero;stroke:none" /><path
       d="M 494.94348,368.31862 L 463.55561,368.31862 L 463.55561,312.02667 L 496.41103,312.02667 L 496.41103,319.47195 L 472.35458,319.47195 L 472.35458,336.77893 L 493.60877,336.77893 L 493.60877,344.11668 L 472.35458,344.11668 L 472.35458,360.83537 L 494.94348,360.83537 L 494.94348,368.31862"
       id="path821"
       style="fill:#231f20;fill-opacity:1;fill-rule:nonzero;stroke:none" /><path
       d="M 671.32786,368.31862 L 639.94,368.31862 L 639.94,312.02667 L 672.79542,312.02667 L 672.79542,319.47195 L 648.73897,319.47195 L 648.73897,336.77893 L 669.99316,336.77893 L 669.99316,344.11668 L 648.73897,344.11668 L 648.73897,360.83537 L 671.32786,360.83537 L 671.32786,368.31862"
       id="path827"
       style="fill:#231f20;fill-opacity:1;fill-rule:nonzero;stroke:none" /><path
       d="M 401.88685,312.09625 L 405.50513,345.5526 L 424.81733,311.97607 L 444.04731,345.38182 L 447.6213,312.02667 L 456.00278,312.09625 L 448.36139,369.04606 L 424.89324,327.66367 L 401.51997,368.99546 L 393.75207,312.09625 L 401.88685,312.09625"
       id="path833"
       style="fill:#231f20;fill-opacity:1;fill-rule:nonzero;stroke:none" /><path
       d="M 525.59757,336.19698 C 527.65341,336.93075 529.65231,338.27178 531.90424,341.11201 C 534.16249,343.9459 535.64903,347.6464 535.64903,351.59993 C 535.64903,356.6478 533.51729,360.83537 529.92431,363.91597 C 526.66661,366.6866 521.18859,367.91378 513.85084,367.91378 L 504.03975,367.91378 L 504.03975,312.17216 L 512.39594,312.17216 L 512.39594,334.28662 L 516.86818,334.28662 L 532.22052,312.17216 L 542.11383,312.17216 L 525.59757,336.19698 z M 515.18556,340.8147 L 512.52877,340.8147 L 512.54775,360.98719 L 515.52081,360.98719 C 523.21913,360.98719 527.06512,357.4638 527.06512,350.79025 C 527.06512,344.33808 523.09893,340.8147 515.18556,340.8147"
       id="path839"
       style="fill:#231f20;fill-opacity:1;fill-rule:nonzero;stroke:none" /><path
       d="M 601.35986,360.58235 C 598.52597,363.18219 595.36948,365.02295 591.89037,366.10464 C 588.65163,367.21164 584.23634,367.76829 578.64446,367.76829 L 566.97996,367.76829 L 566.97996,312.02667 L 578.50529,312.02667 C 584.14145,312.02667 588.4935,312.54538 591.56776,313.58278 C 594.8571,314.61386 598.27927,316.25853 601.27763,318.90265 C 607.25538,324.19723 610.55104,331.33255 610.55104,339.89748 C 610.55104,348.44343 607.0909,355.33839 601.35986,360.58235 z M 595.38213,325.14607 C 593.35159,323.31796 591.08701,321.97692 588.58205,321.14194 C 586.07077,320.3449 582.92692,319.94638 579.14419,319.94638 L 575.34247,319.94638 L 575.34247,359.84857 L 579.14419,359.84857 C 586.32379,359.84857 591.76386,358.1533 595.4517,354.76276 C 599.55073,350.96103 601.9355,346.00805 601.9355,339.89748 C 601.9355,333.83751 599.52543,328.92248 595.38213,325.14607"
       id="path845"
       style="fill:#231f20;fill-opacity:1;fill-rule:nonzero;stroke:none" /></g></svg>