<?xml version="1.0" encoding="UTF-8" standalone="no"?>
<svg
   xmlns:dc="http://purl.org/dc/elements/1.1/"
   xmlns:cc="http://creativecommons.org/ns#"
   xmlns:rdf="http://www.w3.org/1999/02/22-rdf-syntax-ns#"
   xmlns:svg="http://www.w3.org/2000/svg"
   xmlns="http://www.w3.org/2000/svg"
   xmlns:xlink="http://www.w3.org/1999/xlink"
   xmlns:sodipodi="http://sodipodi.sourceforge.net/DTD/sodipodi-0.dtd"
   xmlns:inkscape="http://www.inkscape.org/namespaces/inkscape"
   width="210mm"
   height="297mm"
   viewBox="0 0 210 297"
   version="1.1"
   id="svg11256"
   inkscape:version="1.0.1 (1.0.1+r73)"
   sodipodi:docname="medlog.svg">
  <defs
     id="defs11250">
    <linearGradient
       inkscape:collect="always"
       id="linearGradient1141">
      <stop
         style="stop-color:#37e897;stop-opacity:1;"
         offset="0"
         id="stop1137" />
      <stop
         style="stop-color:#37d1ae;stop-opacity:1"
         offset="1"
         id="stop1139" />
    </linearGradient>
    <linearGradient
       inkscape:collect="always"
       id="linearGradient1135">
      <stop
         style="stop-color:#37e897;stop-opacity:1;"
         offset="0"
         id="stop1131" />
      <stop
         style="stop-color:#37cdb2;stop-opacity:1"
         offset="1"
         id="stop1133" />
    </linearGradient>
    <clipPath
       clipPathUnits="userSpaceOnUse"
       id="clipPath1109">
      <rect
         style="fill:#ffffff;stroke-width:0.724551;stroke-linecap:round;stroke-linejoin:round;stroke-dashoffset:11.5654"
         id="rect1111"
         width="222.10915"
         height="124.93639"
         x="-256.05966"
         y="-322.66522"
         transform="rotate(-90)" />
    </clipPath>
    <linearGradient
       inkscape:collect="always"
       xlink:href="#linearGradient1141"
       id="linearGradient1121"
       x1="-161.0502"
       y1="123.31561"
       x2="-149.46786"
       y2="137.32442"
       gradientUnits="userSpaceOnUse" />
    <linearGradient
       inkscape:collect="always"
       xlink:href="#linearGradient1135"
       id="linearGradient1129"
       x1="-277.90659"
       y1="201.24196"
       x2="-238.80679"
       y2="209.97461"
       gradientUnits="userSpaceOnUse" />
  </defs>
  <sodipodi:namedview
     id="base"
     pagecolor="#ffffff"
     bordercolor="#666666"
     borderopacity="1.0"
     inkscape:pageopacity="0.0"
     inkscape:pageshadow="2"
     inkscape:zoom="0.48630735"
     inkscape:cx="-1102.5809"
     inkscape:cy="493.87475"
     inkscape:document-units="mm"
     inkscape:current-layer="layer1"
     showgrid="false"
     inkscape:pagecheckerboard="true"
     inkscape:showpageshadow="false"
     inkscape:window-width="1306"
     inkscape:window-height="657"
     inkscape:window-x="30"
     inkscape:window-y="40"
     inkscape:window-maximized="1"
     inkscape:document-rotation="0"
     inkscape:snap-global="false" />
  <metadata
     id="metadata11253">
    <rdf:RDF>
      <cc:Work
         rdf:about="">
        <dc:format>image/svg+xml</dc:format>
        <dc:type
           rdf:resource="http://purl.org/dc/dcmitype/StillImage" />
        <dc:title></dc:title>
      </cc:Work>
    </rdf:RDF>
  </metadata>
  <g
     inkscape:label="Layer 1"
     inkscape:groupmode="layer"
     id="layer1">
    <rect
       style="fill:#333333;stroke-width:1.7554;stroke-linecap:round;stroke-linejoin:round;stroke-dashoffset:11.5654"
       id="rect29"
       width="353.66812"
       height="460.55151"
       x="-322.24719"
       y="-552.03577"
       transform="rotate(-90)" />
    <rect
       style="fill:#ffffff;stroke-width:0.724551;stroke-linecap:round;stroke-linejoin:round;stroke-dashoffset:11.5654"
       id="rect27"
       width="222.10915"
       height="124.93639"
       x="-256.05966"
       y="-322.66522"
       transform="rotate(-90)" />
    <g
       id="g1105"
       clip-path="url(#clipPath1109)" />
    <rect
       style="opacity:1;fill:#00d6fb;fill-opacity:1;stroke:none;stroke-width:1;stroke-linecap:round;stroke-linejoin:round;stroke-miterlimit:4;stroke-dasharray:none;stroke-dashoffset:11.5654;stroke-opacity:1"
       id="rect1061"
       width="16.609888"
       height="16.609888"
       x="-186.37469"
       y="99.732315"
       ry="6.4711261" />
    <rect
       style="opacity:1;fill:#37e897;fill-opacity:1;stroke:none;stroke-width:1;stroke-linecap:round;stroke-linejoin:round;stroke-miterlimit:4;stroke-dasharray:none;stroke-dashoffset:11.5654;stroke-opacity:1"
       id="rect1063"
       width="16.609888"
       height="16.609888"
       x="-186.37469"
       y="121.95111"
       ry="6.4711261" />
    <rect
       style="opacity:1;fill:#ffffff;fill-opacity:1;stroke:none;stroke-width:1;stroke-linecap:round;stroke-linejoin:round;stroke-miterlimit:4;stroke-dasharray:none;stroke-dashoffset:11.5654;stroke-opacity:1"
       id="rect1065"
       width="16.609888"
       height="16.609888"
       x="-186.37469"
       y="145.58171"
       ry="6.4711261" />
    <rect
       style="opacity:1;fill:#fbc02d;fill-opacity:1;stroke:none;stroke-width:1;stroke-linecap:round;stroke-linejoin:round;stroke-miterlimit:4;stroke-dasharray:none;stroke-dashoffset:11.5654;stroke-opacity:1"
       id="rect1067"
       width="16.609888"
       height="16.609888"
       x="-186.37469"
       y="169.52061"
       ry="6.4711261" />
    <g
       id="g1173"
       transform="translate(-32.048123,39.830286)">
      <rect
         style="opacity:1;fill:#ffffff;fill-opacity:1;stroke:none;stroke-width:0.544719;stroke-linecap:round;stroke-linejoin:round;stroke-miterlimit:4;stroke-dasharray:none;stroke-dashoffset:11.5654;stroke-opacity:1"
         id="rect1069"
         width="31.708094"
         height="31.708094"
         x="-234.63573"
         y="-44.26025" />
      <g
         id="g1022"
         transform="matrix(0.54471855,0,0,0.54471855,-77.373638,-104.03751)">
        <path
           id="rect7"
           style="opacity:1;fill:#37e897;fill-opacity:1;stroke-width:0.607083;stroke-linecap:round;stroke-linejoin:round;stroke-dashoffset:11.5654"
           d="m -987.31445,459.1543 -5.16016,8.93945 16.50977,9.5332 -20.89454,36.19532 -16.51362,-9.53321 -9.0606,15.69336 -20.5586,-11.86719 -11.8555,20.53516 c -1.3203,2.28696 -0.5427,5.19136 1.7442,6.51172 l 94.52733,54.57617 c 2.28696,1.32038 5.19134,0.54087 6.51172,-1.74609 l 4.27734,-7.40821 -6.53516,-3.77539 c -1.48132,1.57441 -3.88254,1.99138 -5.83984,0.86133 l -5.57812,-3.2207 c -2.28697,-1.32038 -3.0645,-4.22476 -1.74415,-6.51172 l 42.14844,-73.00195 z m 75.8125,43.76758 -36.32813,62.91992 6.41602,3.70508 33.94336,-58.79297 c 1.32037,-2.28697 0.54282,-5.19134 -1.74414,-6.51172 z"
           transform="scale(0.26458333)" />
        <path
           id="rect1001"
           style="opacity:1;fill:#00d6fb;fill-opacity:1;stroke-width:0.160624;stroke-linecap:round;stroke-linejoin:round;stroke-dashoffset:11.5654"
           d="m -252.01264,147.92457 -1.68569,2.91972 6.08542,3.51348 c 0.39142,0.22599 1.21646,0.14167 1.11466,-0.29869 l -0.26613,-1.15135 1.13584,-0.35502 c 0.22599,-0.39141 0.0927,-0.88867 -0.29869,-1.11466 z" />
      </g>
    </g>
    <g
       id="g1179"
       transform="translate(6.0547184)">
      <rect
         style="opacity:1;fill:#ffffff;fill-opacity:1;stroke:none;stroke-width:0.544719;stroke-linecap:round;stroke-linejoin:round;stroke-miterlimit:4;stroke-dasharray:none;stroke-dashoffset:11.5654;stroke-opacity:1"
         id="rect1071"
         width="31.708094"
         height="31.708094"
         x="-234.63573"
         y="-4.4299641" />
      <g
         id="g1077"
         transform="matrix(0.54471855,0,0,0.54471855,-77.373638,-64.207217)"
         style="fill:#333333;fill-opacity:1">
        <path
           id="path1073"
           style="opacity:1;fill:#333333;fill-opacity:1;stroke-width:0.607083;stroke-linecap:round;stroke-linejoin:round;stroke-dashoffset:11.5654"
           d="m -987.31445,459.1543 -5.16016,8.93945 16.50977,9.5332 -20.89454,36.19532 -16.51362,-9.53321 -9.0606,15.69336 -20.5586,-11.86719 -11.8555,20.53516 c -1.3203,2.28696 -0.5427,5.19136 1.7442,6.51172 l 94.52733,54.57617 c 2.28696,1.32038 5.19134,0.54087 6.51172,-1.74609 l 4.27734,-7.40821 -6.53516,-3.77539 c -1.48132,1.57441 -3.88254,1.99138 -5.83984,0.86133 l -5.57812,-3.2207 c -2.28697,-1.32038 -3.0645,-4.22476 -1.74415,-6.51172 l 42.14844,-73.00195 z m 75.8125,43.76758 -36.32813,62.91992 6.41602,3.70508 33.94336,-58.79297 c 1.32037,-2.28697 0.54282,-5.19134 -1.74414,-6.51172 z"
           transform="scale(0.26458333)" />
        <path
           id="path1075"
           style="opacity:1;fill:#333333;fill-opacity:1;stroke-width:0.160624;stroke-linecap:round;stroke-linejoin:round;stroke-dashoffset:11.5654"
           d="m -252.01264,147.92457 -1.68569,2.91972 6.08542,3.51348 c 0.39142,0.22599 1.21646,0.14167 1.11466,-0.29869 l -0.26613,-1.15135 1.13584,-0.35502 c 0.22599,-0.39141 0.0927,-0.88867 -0.29869,-1.11466 z" />
      </g>
    </g>
    <g
       id="g1100"
       transform="matrix(1.0128119,0,0,1.0128119,0.60889426,-22.043568)">
      <g
         id="g1015"
         transform="matrix(1.4025991,0,0,1.4025991,101.87534,-98.145694)">
        <text
           xml:space="preserve"
           style="font-size:7.56681px;line-height:1.25;font-family:Montserrat;-inkscape-font-specification:Montserrat;letter-spacing:0px;word-spacing:0px;stroke-width:0.189171"
           x="-271.19122"
           y="171.30286"
           id="text75"><tspan
             sodipodi:role="line"
             id="tspan73"
             x="-271.19122"
             y="171.30286"
             style="stroke-width:0.189171">med<tspan
   style="font-style:normal;font-variant:normal;font-weight:bold;font-stretch:normal;font-family:Montserrat;-inkscape-font-specification:'Montserrat Bold';stroke-width:0.189171"
   id="tspan81">log</tspan></tspan></text>
        <text
           xml:space="preserve"
           style="font-size:1.49683px;line-height:1.25;font-family:Montserrat;-inkscape-font-specification:Montserrat;letter-spacing:0px;word-spacing:0px;stroke-width:0.037421"
           x="-266.06699"
           y="174.2162"
           id="text79"><tspan
             sodipodi:role="line"
             id="tspan77"
             x="-266.06699"
             y="174.2162"
             style="stroke-width:0.037421">your personal medical log</tspan></text>
      </g>
      <g
         id="g1089"
         transform="translate(1.0832881,-31.903311)">
        <path
           id="path1085"
           style="opacity:1;fill:#37e897;fill-opacity:1;stroke-width:0.607083;stroke-linecap:round;stroke-linejoin:round;stroke-dashoffset:11.5654"
           d="m -987.31445,459.1543 -5.16016,8.93945 16.50977,9.5332 -20.89454,36.19532 -16.51362,-9.53321 -9.0606,15.69336 -20.5586,-11.86719 -11.8555,20.53516 c -1.3203,2.28696 -0.5427,5.19136 1.7442,6.51172 l 94.52733,54.57617 c 2.28696,1.32038 5.19134,0.54087 6.51172,-1.74609 l 4.27734,-7.40821 -6.53516,-3.77539 c -1.48132,1.57441 -3.88254,1.99138 -5.83984,0.86133 l -5.57812,-3.2207 c -2.28697,-1.32038 -3.0645,-4.22476 -1.74415,-6.51172 l 42.14844,-73.00195 z m 75.8125,43.76758 -36.32813,62.91992 6.41602,3.70508 33.94336,-58.79297 c 1.32037,-2.28697 0.54282,-5.19134 -1.74414,-6.51172 z"
           transform="scale(0.26458333)" />
        <path
           id="path1087"
           style="opacity:1;fill:#00d6fb;fill-opacity:1;stroke-width:0.160624;stroke-linecap:round;stroke-linejoin:round;stroke-dashoffset:11.5654"
           d="m -252.01264,147.92457 -1.68569,2.91972 6.08542,3.51348 c 0.39142,0.22599 1.21646,0.14167 1.11466,-0.29869 l -0.26613,-1.15135 1.13584,-0.35502 c 0.22599,-0.39141 0.0927,-0.88867 -0.29869,-1.11466 z" />
      </g>
    </g>
    <rect
       style="opacity:1;fill:url(#linearGradient1121);fill-opacity:1;stroke:none;stroke-width:1;stroke-linecap:round;stroke-linejoin:round;stroke-miterlimit:4;stroke-dasharray:none;stroke-dashoffset:11.5654;stroke-opacity:1"
       id="rect1113"
       width="16.609888"
       height="16.609888"
       x="-163.22406"
       y="121.95111"
       ry="6.4711261" />
    <g
       id="g1167"
       transform="matrix(0.70573383,0,0,0.70573383,-78.361021,60.024306)">
      <rect
         style="opacity:1;fill:url(#linearGradient1129);fill-opacity:1;stroke:none;stroke-width:1;stroke-linecap:round;stroke-linejoin:round;stroke-miterlimit:4;stroke-dasharray:none;stroke-dashoffset:11.5654;stroke-opacity:1"
         id="rect1057"
         width="38.82671"
         height="12.942237"
         x="-277.06857"
         y="197.50851"
         ry="6.4711185" />
      <text
         xml:space="preserve"
         style="font-size:7.6985px;line-height:1.25;font-family:Montserrat;-inkscape-font-specification:Montserrat;letter-spacing:0px;word-spacing:0px;fill:#ffffff;fill-opacity:1;stroke-width:0.192463"
         x="-266.71039"
         y="206.44315"
         id="text75-3"><tspan
           sodipodi:role="line"
           id="tspan73-6"
           x="-266.71039"
           y="206.44315"
           style="font-style:normal;font-variant:normal;font-weight:500;font-stretch:normal;font-family:Montserrat;-inkscape-font-specification:'Montserrat Medium';fill:#ffffff;fill-opacity:1;stroke-width:0.192463">login</tspan></text>
    </g>
    <rect
       style="opacity:1;fill:#ffffff;fill-opacity:1;stroke:#f2f2f2;stroke-width:1;stroke-linecap:round;stroke-linejoin:round;stroke-miterlimit:4;stroke-dasharray:none;stroke-dashoffset:11.5654;stroke-opacity:1"
       id="rect1057-6"
       width="82.788887"
       height="12.94223"
       x="-301.59146"
       y="154.39517"
       ry="6.4711151" />
    <text
       xml:space="preserve"
       style="font-size:4.15474px;line-height:1.25;font-family:Montserrat;-inkscape-font-specification:Montserrat;text-align:center;letter-spacing:0px;word-spacing:0px;text-anchor:middle;fill:#000000;fill-opacity:1;stroke-width:0.103869"
       x="-260.28983"
       y="149.80579"
       id="text75-3-2"><tspan
         sodipodi:role="line"
         id="tspan73-6-9"
         x="-260.28983"
         y="149.80579"
         style="font-style:normal;font-variant:normal;font-weight:500;font-stretch:normal;font-family:Montserrat;-inkscape-font-specification:'Montserrat Medium';text-align:center;text-anchor:middle;fill:#000000;fill-opacity:1;stroke-width:0.103869">username</tspan></text>
    <rect
       style="opacity:1;fill:#f2f2f2;fill-opacity:1;stroke:none;stroke-width:0.276847;stroke-linecap:round;stroke-linejoin:round;stroke-miterlimit:4;stroke-dasharray:none;stroke-dashoffset:11.5654;stroke-opacity:1"
       id="rect1225"
       width="61.610783"
       height="0.38074911"
       x="-291.00241"
       y="164.32639"
       ry="0" />
  </g>
</svg>
