<?xml version="1.0" encoding="UTF-8" standalone="no"?>
<!-- Created with Inkscape (http://www.inkscape.org/) -->

<svg
   xmlns:dc="http://purl.org/dc/elements/1.1/"
   xmlns:cc="http://creativecommons.org/ns#"
   xmlns:rdf="http://www.w3.org/1999/02/22-rdf-syntax-ns#"
   xmlns:svg="http://www.w3.org/2000/svg"
   xmlns="http://www.w3.org/2000/svg"
   xmlns:xlink="http://www.w3.org/1999/xlink"
   xmlns:sodipodi="http://sodipodi.sourceforge.net/DTD/sodipodi-0.dtd"
   xmlns:inkscape="http://www.inkscape.org/namespaces/inkscape"
   width="210mm"
   height="297mm"
   viewBox="0 0 210 297"
   version="1.1"
   id="svg1651"
   inkscape:version="0.92.4 5da689c313, 2019-01-14"
   sodipodi:docname="Banner.svg">
  <defs
     id="defs1645">
    <linearGradient
       inkscape:collect="always"
       id="linearGradient2394">
      <stop
         style="stop-color:#ff6600;stop-opacity:1;"
         offset="0"
         id="stop2390" />
      <stop
         style="stop-color:#d4ff2a;stop-opacity:1"
         offset="1"
         id="stop2392" />
    </linearGradient>
    <linearGradient
       inkscape:collect="always"
       id="linearGradient2248">
      <stop
         id="stop2246"
         offset="0"
         style="stop-color:#9fcd06;stop-opacity:1" />
      <stop
         id="stop2244"
         offset="1"
         style="stop-color:#ffffff;stop-opacity:1;" />
    </linearGradient>
    <linearGradient
       inkscape:collect="always"
       id="linearGradient2225">
      <stop
         style="stop-color:#aad400;stop-opacity:1;"
         offset="0"
         id="stop2221" />
      <stop
         style="stop-color:#5aa02c;stop-opacity:1"
         offset="1"
         id="stop2223" />
    </linearGradient>
    <linearGradient
       inkscape:collect="always"
       xlink:href="#linearGradient2225"
       id="linearGradient2227"
       x1="226.69643"
       y1="133.04762"
       x2="323.18988"
       y2="-215.6521"
       gradientUnits="userSpaceOnUse"
       gradientTransform="translate(18.89881,-14.363095)" />
    <clipPath
       clipPathUnits="userSpaceOnUse"
       id="clipPath2238">
      <rect
         transform="rotate(90)"
         ry="0.66470474"
         y="-157.01785"
         x="159.52382"
         height="300"
         width="200"
         id="rect2240"
         style="opacity:1;fill:url(#linearGradient2242);fill-opacity:1;stroke:none;stroke-width:6;stroke-linecap:round;stroke-miterlimit:4;stroke-dasharray:none;stroke-opacity:1" />
    </clipPath>
    <linearGradient
       inkscape:collect="always"
       xlink:href="#linearGradient2225"
       id="linearGradient2242"
       gradientUnits="userSpaceOnUse"
       gradientTransform="translate(18.89881,-14.363095)"
       x1="226.69643"
       y1="133.04762"
       x2="323.18988"
       y2="-215.6521" />
    <linearGradient
       inkscape:collect="always"
       xlink:href="#linearGradient2248"
       id="linearGradient2250"
       x1="32.202206"
       y1="159.60393"
       x2="61.184193"
       y2="272.31165"
       gradientUnits="userSpaceOnUse"
       gradientTransform="translate(60.371495)" />
    <linearGradient
       inkscape:collect="always"
       xlink:href="#linearGradient2225"
       id="linearGradient2347"
       x1="-107.96821"
       y1="310.31888"
       x2="8.6080303"
       y2="287.59402"
       gradientUnits="userSpaceOnUse"
       gradientTransform="matrix(0.94255694,0.30597334,-0.25065166,0.94708081,227.31335,63.719485)" />
    <linearGradient
       inkscape:collect="always"
       xlink:href="#linearGradient2394"
       id="linearGradient2396"
       x1="102.60361"
       y1="285.01709"
       x2="110.84186"
       y2="368.89743"
       gradientUnits="userSpaceOnUse"
       gradientTransform="matrix(1.1158742,-0.12846578,0.12846578,1.1158742,-50.559455,-30.121629)" />
    <linearGradient
       inkscape:collect="always"
       xlink:href="#linearGradient2225"
       id="linearGradient2440"
       gradientUnits="userSpaceOnUse"
       gradientTransform="matrix(0.94255695,0.30597334,-0.25065166,0.94708082,-131.98858,-84.258894)"
       x1="-107.96821"
       y1="310.31888"
       x2="8.6080303"
       y2="287.59402" />
  </defs>
  <sodipodi:namedview
     id="base"
     pagecolor="#ffffff"
     bordercolor="#666666"
     borderopacity="1.0"
     inkscape:pageopacity="0.0"
     inkscape:pageshadow="2"
     inkscape:zoom="0.70656221"
     inkscape:cx="-395.41334"
     inkscape:cy="116.09302"
     inkscape:document-units="mm"
     inkscape:current-layer="layer1"
     showgrid="false"
     inkscape:window-width="1366"
     inkscape:window-height="717"
     inkscape:window-x="0"
     inkscape:window-y="0"
     inkscape:window-maximized="1"
     inkscape:snap-global="false" />
  <metadata
     id="metadata1648">
    <rdf:RDF>
      <cc:Work
         rdf:about="">
        <dc:format>image/svg+xml</dc:format>
        <dc:type
           rdf:resource="http://purl.org/dc/dcmitype/StillImage" />
        <dc:title></dc:title>
      </cc:Work>
    </rdf:RDF>
  </metadata>
  <g
     inkscape:label="Layer 1"
     inkscape:groupmode="layer"
     id="layer1">
    <rect
       style="opacity:1;fill:url(#linearGradient2227);fill-opacity:1;stroke:none;stroke-width:6;stroke-linecap:round;stroke-miterlimit:4;stroke-dasharray:none;stroke-opacity:1"
       id="rect2196"
       width="200"
       height="300"
       x="159.52382"
       y="-157.01785"
       ry="0.66470474"
       transform="rotate(90)" />
    <text
       xml:space="preserve"
       style="font-style:normal;font-weight:normal;font-size:22.22412109px;line-height:1.25;font-family:sans-serif;letter-spacing:0px;word-spacing:0px;fill:#ffffff;fill-opacity:1;stroke:none;stroke-width:0.55560303"
       x="-82.514565"
       y="203.23364"
       id="text2219"><tspan
         sodipodi:role="line"
         id="tspan2217"
         x="-82.514565"
         y="203.23364"
         style="font-style:normal;font-variant:normal;font-weight:normal;font-stretch:normal;font-size:22.22412109px;font-family:'Abril Fatface';-inkscape-font-specification:'Abril Fatface, Normal';font-variant-ligatures:normal;font-variant-caps:normal;font-variant-numeric:normal;font-feature-settings:normal;text-align:start;letter-spacing:0.90170372px;writing-mode:lr-tb;text-anchor:start;fill:#ffffff;stroke-width:0.55560303">Assyakur Herbal</tspan></text>
    <g
       id="g2232"
       clip-path="url(#clipPath2238)">
      <path
         inkscape:connector-curvature="0"
         id="path2229"
         d="m -100.10284,359.7943 c 0,0 15.027705,-42.93629 69.771455,-54.74374 54.743751,-11.80748 49.91342,-2.14683 95.533211,-50.98684 45.619794,-48.84001 140.079594,-23.07824 157.254104,12.34418 17.17451,35.42244 57.42726,112.17103 4.29363,117.00134 -53.13365,4.83034 -39.71606,-1.6101 -110.56091,-2.1468 -70.844851,-0.53671 -117.00134639,-19.32133 -140.079593,0 -23.078252,19.32133 -76.211897,-21.46814 -76.211897,-21.46814 z"
         style="fill:url(#linearGradient2250);fill-opacity:1;stroke:none;stroke-width:0.26458332px;stroke-linecap:butt;stroke-linejoin:miter;stroke-opacity:1" />
      <path
         style="fill:url(#linearGradient2396);fill-opacity:1;stroke:none;stroke-width:0.29719183px;stroke-linecap:butt;stroke-linejoin:miter;stroke-opacity:1"
         d="m 92.485337,256.19262 c 0,0 -18.685581,43.64389 -17.049975,57.85102 l 9.030616,4.88786 -10.960484,0.41505 c 0,0 0.794264,36.32051 21.296625,52.58955 20.502351,16.26902 49.661741,-9.9513 49.661741,-9.9513 l -3.19957,-57.21334 c 0,0 -12.75269,-29.86307 -48.778953,-48.57884 z"
         id="path2388"
         inkscape:connector-curvature="0" />
      <path
         inkscape:connector-curvature="0"
         style="fill:url(#linearGradient2347);stroke:none;stroke-width:0.26049978px;stroke-linecap:butt;stroke-linejoin:miter;stroke-opacity:1"
         d="m 153.3045,269.65563 c -1.75273,0.25745 -3.39385,2.5576 -4.70567,7.51432 -4.2685,16.12838 -19.4426,24.64431 -31.30091,34.80782 l 1.71627,5.7733 -6.20176,-1.64356 c -6.21014,6.22384 -10.68541,13.40676 -10.667,23.34378 0.0544,29.38157 18.39131,25.72597 18.39131,25.72597 l 1.88595,21.13742 1.30138,5.32428 c 0,0 -4.14591,-23.01162 7.2655,-23.11972 11.4114,-0.10812 32.25603,-29.95229 32.25603,-29.95229 l -7.02017,-0.10024 7.31741,-3.07078 c 8.08826,-25.52118 -2.23669,-66.91543 -10.23834,-65.7403 z"
         id="path2345" />
    </g>
    <path
       style="fill:#ffffff;stroke:none;stroke-width:0.26049978px;stroke-linecap:butt;stroke-linejoin:miter;stroke-opacity:1"
       d="m -82.514622,206.4522 c -0.126079,-0.002 -0.251695,0.006 -0.376719,0.0243 -1.752732,0.25745 -3.393837,2.55755 -4.705657,7.51427 -4.268499,16.12838 -19.442622,24.64418 -31.300932,34.80769 l 1.71618,5.77329 -6.20169,-1.64331 c -6.21014,6.22384 -10.68546,13.40677 -10.66705,23.3438 0.0544,29.38156 11.27683,26.10021 11.27683,26.10021 l 9.00049,20.76308 1.30172,5.32422 c 0,0 -2.12602,-11.80315 0.85938,-18.54254 -17.98817,-31.90611 -10.8549,-41.12194 -0.54777,-47.471 l 27.336316,8.23825 c -1.798273,1.12392 -8.536617,11.8849 -2.512507,22.4162 7.797006,-8.27888 14.385684,-17.71261 14.385684,-17.71261 l -7.019727,-0.10025 7.317383,-3.07113 c 7.961884,-25.12241 -1.918819,-65.62577 -9.861931,-65.76446 z m -1.622639,21.11137 c 1.603811,0.18455 5.21694,37.81522 1.115695,38.84052 -4.564872,1.14122 -25.106994,-7.98866 -25.106994,-7.98866 0,0 22.397396,-19.10089 23.538613,-29.37185 0.115906,-1.04314 0.271385,-1.50087 0.452686,-1.48001 z m -24.443989,44.58436 c -9.7783,5.72105 -5.79332,17.34101 6.5257,32.53238 2.686211,-1.00642 8.912281,-6.80178 11.918705,-9.42015 l -7.101445,3.3864 c -5.53178,-7.9886 -7.71305,-20.60766 1.014428,-23.50295 z"
       id="path2398"
       inkscape:connector-curvature="0"
       sodipodi:nodetypes="cccccccccccccccccccccccccccccc" />
    <path
       sodipodi:nodetypes="cccccccccccccc"
       inkscape:connector-curvature="0"
       style="fill:url(#linearGradient2440);stroke:none;stroke-width:0.26049978px;stroke-linecap:butt;stroke-linejoin:miter;stroke-opacity:1"
       d="m -205.99743,121.67725 c -1.75273,0.25745 -3.39385,2.5576 -4.70567,7.51432 -4.2685,16.12838 -19.4426,24.64431 -31.30091,34.80782 l 1.71627,5.7733 -6.20176,-1.64356 c -6.21014,6.22384 -10.68541,13.40676 -10.667,23.34378 0.0544,29.38157 11.27646,26.10044 11.27646,26.10044 l 9.0008,20.76295 1.30138,5.32428 c 0,0 -4.14591,-23.01162 7.2655,-23.11972 11.4114,-0.10812 32.25603,-29.95229 32.25603,-29.95229 l -7.02017,-0.10024 7.31741,-3.07078 c 8.08826,-25.52118 -2.23669,-66.91543 -10.23834,-65.7403 z"
       id="path2438" />
    <path
       style="fill:#ecf5c8;fill-opacity:1;stroke:none;stroke-width:0.26458332px;stroke-linecap:butt;stroke-linejoin:miter;stroke-opacity:1"
       d="m -107.42247,295.14789 c 0,0 4.63028,-3.93575 7.40844,-5.78786 l -10.64964,4.39877 z"
       id="path2444"
       inkscape:connector-curvature="0"
       sodipodi:nodetypes="cccc" />
  </g>
</svg>
