<?xml version="1.0" encoding="UTF-8" standalone="no"?>
<!-- Created with Inkscape (http://www.inkscape.org/) -->

<svg
   xmlns:dc="http://purl.org/dc/elements/1.1/"
   xmlns:cc="http://creativecommons.org/ns#"
   xmlns:rdf="http://www.w3.org/1999/02/22-rdf-syntax-ns#"
   xmlns:svg="http://www.w3.org/2000/svg"
   xmlns="http://www.w3.org/2000/svg"
   xmlns:sodipodi="http://sodipodi.sourceforge.net/DTD/sodipodi-0.dtd"
   xmlns:inkscape="http://www.inkscape.org/namespaces/inkscape"
   width="210mm"
   height="297mm"
   viewBox="0 0 210 297"
   version="1.1"
   id="svg6695"
   inkscape:version="0.92.4 (unknown)"
   sodipodi:docname="JaketSMA.svg">
  <defs
     id="defs6689">
    <clipPath
       clipPathUnits="userSpaceOnUse"
       id="clipPath6719">
      <rect
         style="opacity:1;fill:#1a1a1a;fill-opacity:1;stroke:none;stroke-width:4.1024065;stroke-linecap:round;stroke-miterlimit:4;stroke-dasharray:none;stroke-dashoffset:0;stroke-opacity:1;paint-order:fill markers stroke"
         id="rect6721"
         width="238.88089"
         height="238.88097"
         x="-145.89882"
         y="8.2261829"
         ry="0"
         rx="0" />
    </clipPath>
    <clipPath
       clipPathUnits="userSpaceOnUse"
       id="clipPath300-8-6-5-3">
      <circle
         r="18.39394"
         cy="-222.91017"
         cx="-159.05081"
         id="circle302-7-9-2-6"
         style="opacity:1;fill:#ffffff;fill-opacity:1;fill-rule:nonzero;stroke:none;stroke-width:1.48706746;stroke-linecap:round;stroke-linejoin:round;stroke-miterlimit:4;stroke-dasharray:none;stroke-dashoffset:0;stroke-opacity:1;paint-order:fill markers stroke" />
    </clipPath>
    <clipPath
       clipPathUnits="userSpaceOnUse"
       id="clipPath6436-2-5-6-1-9-8-7">
      <circle
         r="18.674574"
         cy="-222.91019"
         cx="-159.05081"
         id="circle6438-3-9-8-7-8-4-5"
         style="opacity:0.25;fill:#ffffff;fill-opacity:1;fill-rule:nonzero;stroke:none;stroke-width:1.50975537;stroke-linecap:round;stroke-linejoin:round;stroke-miterlimit:4;stroke-dasharray:none;stroke-dashoffset:0;stroke-opacity:1;paint-order:fill markers stroke" />
    </clipPath>
    <clipPath
       clipPathUnits="userSpaceOnUse"
       id="clipPath1311-5-2-7-0-3">
      <rect
         transform="matrix(1.0108901,0,0,1.0136582,1.8318173,2.6511957)"
         clip-path="url(#clipPath6436-2-5-3)"
         y="-221.05418"
         x="-168.20885"
         height="18.917711"
         width="18.4547"
         id="rect1313-3-7-7-6-5"
         style="opacity:0.5;fill:#c62828;fill-opacity:1;fill-rule:nonzero;stroke:none;stroke-width:0.2;stroke-linecap:round;stroke-linejoin:round;stroke-miterlimit:4;stroke-dasharray:none;stroke-dashoffset:0;stroke-opacity:1;paint-order:fill markers stroke" />
    </clipPath>
  </defs>
  <sodipodi:namedview
     id="base"
     pagecolor="#ffffff"
     bordercolor="#666666"
     borderopacity="1.0"
     inkscape:pageopacity="0.0"
     inkscape:pageshadow="2"
     inkscape:zoom="0.35"
     inkscape:cx="400"
     inkscape:cy="560"
     inkscape:document-units="mm"
     inkscape:current-layer="layer1"
     showgrid="false"
     inkscape:pagecheckerboard="true"
     inkscape:snap-global="false" />
  <metadata
     id="metadata6692">
    <rdf:RDF>
      <cc:Work
         rdf:about="">
        <dc:format>image/svg+xml</dc:format>
        <dc:type
           rdf:resource="http://purl.org/dc/dcmitype/StillImage" />
        <dc:title></dc:title>
      </cc:Work>
    </rdf:RDF>
  </metadata>
  <g
     inkscape:label="Layer 1"
     inkscape:groupmode="layer"
     id="layer1">
    <g
       id="g8226">
      <rect
         rx="0"
         ry="0"
         y="8.2261915"
         x="-145.89882"
         height="238.88097"
         width="238.88089"
         id="rect6697"
         style="opacity:1;fill:#0c0c0c;fill-opacity:1;stroke:none;stroke-width:4.1024065;stroke-linecap:round;stroke-miterlimit:4;stroke-dasharray:none;stroke-dashoffset:0;stroke-opacity:1;paint-order:fill markers stroke" />
      <g
         clip-path="url(#clipPath6719)"
         id="g6702">
        <path
           sodipodi:nodetypes="cccccc"
           inkscape:connector-curvature="0"
           id="path6828"
           d="m -90.317105,3.4694055 c 0,0 29.529273,29.0555475 52.221019,29.0555475 l 2.589075,222.186827 h 13.068366 V -5.9217184 Z"
           style="opacity:1;fill:#000000;fill-opacity:1;stroke:none;stroke-width:1.46700001;stroke-linecap:round;stroke-miterlimit:4;stroke-dasharray:none;stroke-dashoffset:0;stroke-opacity:1;paint-order:fill markers stroke" />
        <path
           sodipodi:nodetypes="cccccc"
           inkscape:connector-curvature="0"
           id="path6828-5"
           d="m 37.973093,3.4694011 c 0,0 -29.5292733,29.0555489 -52.221019,29.0555489 l -2.589075,222.18683 H -29.905367 V -5.9217229 Z"
           style="opacity:1;fill:#000000;fill-opacity:1;stroke:none;stroke-width:1.46700001;stroke-linecap:round;stroke-miterlimit:4;stroke-dasharray:none;stroke-dashoffset:0;stroke-opacity:1;paint-order:fill markers stroke" />
      </g>
      <g
         transform="translate(0,9.6485505)"
         id="g6957">
        <g
           id="g6890"
           transform="translate(-0.28240454)">
          <rect
             y="84.34938"
             x="-129.34128"
             height="9.6017542"
             width="67.21228"
             id="rect6866"
             style="opacity:1;fill:#ffcc00;fill-opacity:1;stroke:none;stroke-width:1.46700001;stroke-linecap:round;stroke-miterlimit:4;stroke-dasharray:none;stroke-dashoffset:0;stroke-opacity:1;paint-order:fill markers stroke" />
          <text
             id="text6752"
             y="91.200974"
             x="-127.5821"
             style="font-style:normal;font-weight:normal;font-size:7.09413385px;line-height:1.25;font-family:sans-serif;letter-spacing:0px;word-spacing:0px;fill:#0c0c0c;fill-opacity:1;stroke:none;stroke-width:0.17735334"
             xml:space="preserve"><tspan
               style="font-style:normal;font-variant:normal;font-weight:normal;font-stretch:normal;font-family:FreeSerif;-inkscape-font-specification:FreeSerif;fill:#0c0c0c;fill-opacity:1;stroke-width:0.17735334"
               y="91.200974"
               x="-127.5821"
               id="tspan6750"
               sodipodi:role="line">مدرسة الإستقلال الإسلامية</tspan></text>
        </g>
        <text
           xml:space="preserve"
           style="font-style:normal;font-weight:normal;font-size:6.8085351px;line-height:1.25;font-family:sans-serif;letter-spacing:0px;word-spacing:0px;fill:#ffcc00;fill-opacity:1;stroke:none;stroke-width:0.17021337"
           x="-127.95148"
           y="100.18103"
           id="text6752-3"><tspan
             sodipodi:role="line"
             id="tspan6750-3"
             x="-127.95148"
             y="100.18103"
             style="font-style:normal;font-variant:normal;font-weight:bold;font-stretch:normal;font-family:FreeSerif;-inkscape-font-specification:'FreeSerif Bold';fill:#ffcc00;stroke-width:0.17021337">Istiqlal Islamic School</tspan></text>
        <text
           xml:space="preserve"
           style="font-style:normal;font-weight:normal;font-size:4.25576735px;line-height:1.25;font-family:sans-serif;letter-spacing:0px;word-spacing:0px;fill:#ffcc00;fill-opacity:1;stroke:none;stroke-width:0.10639418"
           x="-126.811"
           y="105.00527"
           id="text6752-3-8"><tspan
             sodipodi:role="line"
             id="tspan6750-3-0"
             x="-126.811"
             y="105.00527"
             style="font-style:normal;font-variant:normal;font-weight:normal;font-stretch:normal;font-family:FreeSerif;-inkscape-font-specification:FreeSerif;fill:#ffcc00;stroke-width:0.10639418">Tambun Selatan - Kabupaten Bekasi</tspan></text>
      </g>
      <rect
         y="36.366497"
         x="-27.226175"
         height="202.81084"
         width="1.7260497"
         id="rect6864"
         style="opacity:1;fill:#0c0c0c;fill-opacity:1;stroke:none;stroke-width:1.46700001;stroke-linecap:round;stroke-miterlimit:4;stroke-dasharray:none;stroke-dashoffset:0;stroke-opacity:1;paint-order:fill markers stroke" />
      <g
         transform="matrix(0.83339865,0,0,0.83339865,6.9146028,17.54516)"
         id="g8144">
        <g
           style="display:inline"
           transform="matrix(0.93812006,0,0,0.93812006,190.71264,311.10516)"
           id="g5697">
          <g
             id="g5581">
            <circle
               style="opacity:1;fill:#f86900;fill-opacity:1;fill-rule:nonzero;stroke:none;stroke-width:1.76455867;stroke-linecap:round;stroke-linejoin:round;stroke-miterlimit:4;stroke-dasharray:none;stroke-dashoffset:0;stroke-opacity:1;paint-order:fill markers stroke"
               id="circle5573"
               cx="-159.05081"
               cy="-222.91022"
               r="21.826302" />
            <circle
               style="opacity:1;fill:#ffffff;fill-opacity:1;fill-rule:nonzero;stroke:none;stroke-width:1.7494334;stroke-linecap:round;stroke-linejoin:round;stroke-miterlimit:4;stroke-dasharray:none;stroke-dashoffset:0;stroke-opacity:1;paint-order:fill markers stroke"
               id="circle5575"
               cx="-159.05081"
               cy="-222.9102"
               r="21.639214" />
            <circle
               style="opacity:1;fill:#f86900;fill-opacity:1;fill-rule:nonzero;stroke:none;stroke-width:1.72296417;stroke-linecap:round;stroke-linejoin:round;stroke-miterlimit:4;stroke-dasharray:none;stroke-dashoffset:0;stroke-opacity:1;paint-order:fill markers stroke"
               id="circle5577"
               cx="-159.05081"
               cy="-222.9102"
               r="21.311808" />
            <circle
               style="opacity:1;fill:#ffffff;fill-opacity:1;fill-rule:nonzero;stroke:none;stroke-width:1.65344548;stroke-linecap:round;stroke-linejoin:round;stroke-miterlimit:4;stroke-dasharray:none;stroke-dashoffset:0;stroke-opacity:1;paint-order:fill markers stroke"
               id="circle5579"
               cx="-159.05081"
               cy="-222.91019"
               r="20.451916" />
          </g>
          <g
             clip-path="url(#clipPath300-8-6-5-3)"
             id="g5617">
            <g
               id="g5589"
               transform="translate(-2.2985834e-7,-6.2148665e-6)">
              <rect
                 style="opacity:1;fill:#ff6600;fill-opacity:1;fill-rule:nonzero;stroke:none;stroke-width:0.2;stroke-linecap:round;stroke-linejoin:round;stroke-miterlimit:4;stroke-dasharray:none;stroke-dashoffset:0;stroke-opacity:1;paint-order:fill markers stroke"
                 id="rect5583"
                 width="18.4547"
                 height="18.917711"
                 x="-168.20885"
                 y="-221.05418"
                 clip-path="url(#clipPath6436-2-5-6-1-9-8-7)"
                 transform="matrix(1.0108901,0,0,1.0136582,1.8318185,2.7608221)" />
              <path
                 style="opacity:1;fill:#ffff01;fill-opacity:1;fill-rule:nonzero;stroke:none;stroke-width:0.76518291;stroke-linecap:round;stroke-linejoin:round;stroke-miterlimit:4;stroke-dasharray:none;stroke-dashoffset:0;stroke-opacity:1;paint-order:fill markers stroke"
                 clip-path="none"
                 d="m -635.75,788.45508 v 10.09375 c 2.53754,1.43626 4.88688,2.63323 7.22656,3.63476 v -2.19726 l 8.35547,2.23828 v 2.66601 c 2.26469,0.5065 4.69357,0.87677 7.38867,1.13672 v -2.78125 l 8.35547,0.27735 v 2.95508 c 1.2666,0.0264 2.56919,0.0418 3.95703,0.041 1.37322,-9.4e-4 2.66161,-0.0228 3.91407,-0.0488 v -2.94726 l 8.35546,-0.27735 v 2.74219 c 2.69844,-0.27742 5.12493,-0.67162 7.38868,-1.20703 v -2.55664 l 8.35547,-2.23828 v 1.95117 c 2.32282,-1.03669 4.66677,-2.27087 7.21289,-3.74609 v -9.73633 z"
                 transform="matrix(0.26458333,0,0,0.26458333,0,-429.90601)"
                 id="path5585"
                 inkscape:connector-curvature="0" />
              <ellipse
                 style="opacity:1;fill:#669934;fill-opacity:1;fill-rule:nonzero;stroke:none;stroke-width:0.2;stroke-linecap:round;stroke-linejoin:round;stroke-miterlimit:4;stroke-dasharray:none;stroke-dashoffset:0;stroke-opacity:1;paint-order:fill markers stroke"
                 id="ellipse5587"
                 cx="-158.88229"
                 cy="-221.28568"
                 rx="9.3265629"
                 ry="1.8190104" />
            </g>
            <g
               clip-path="url(#clipPath1311-5-2-7-0-3)"
               transform="translate(0,0.10962223)"
               id="g5615">
              <g
                 id="g5595"
                 transform="matrix(1,0.26794919,0,1,0,44.673167)">
                <path
                   sodipodi:nodetypes="csssssc"
                   inkscape:connector-curvature="0"
                   id="path5591"
                   d="m -168.6173,-215.7399 c 0,0 3.01461,1.01462 3.01461,2.32034 v 7.2716 c 0,1.30572 -1.34452,2.35688 -3.01461,2.35688 -1.6701,0 -3.01462,-1.05116 -3.01462,-2.35688 v -7.2716 c 0,-1.30572 3.01462,-2.32034 3.01462,-2.32034 z"
                   style="opacity:1;fill:#ffffff;fill-opacity:1;fill-rule:nonzero;stroke:none;stroke-width:0.22619192;stroke-linecap:round;stroke-linejoin:round;stroke-miterlimit:4;stroke-dasharray:none;stroke-dashoffset:0;stroke-opacity:1;paint-order:fill markers stroke" />
                <path
                   sodipodi:nodetypes="csssssc"
                   inkscape:connector-curvature="0"
                   id="path5593"
                   d="m -168.6173,-214.39719 c 0,0 2.50303,0.84244 2.50303,1.92658 v 6.03762 c 0,1.08414 -1.11635,1.95692 -2.50303,1.95692 -1.38669,0 -2.50304,-0.87278 -2.50304,-1.95692 v -6.03762 c 0,-1.08414 2.50304,-1.92658 2.50304,-1.92658 z"
                   style="opacity:1;fill:#f70402;fill-opacity:1;fill-rule:nonzero;stroke:none;stroke-width:0.18780744;stroke-linecap:round;stroke-linejoin:round;stroke-miterlimit:4;stroke-dasharray:none;stroke-dashoffset:0;stroke-opacity:1;paint-order:fill markers stroke" />
              </g>
              <g
                 id="g5601"
                 transform="matrix(-1,0.26794918,0,1,-317.75839,44.673176)">
                <path
                   sodipodi:nodetypes="csssssc"
                   inkscape:connector-curvature="0"
                   id="path5597"
                   d="m -168.6173,-215.7399 c 0,0 3.01461,1.01462 3.01461,2.32034 v 7.2716 c 0,1.30572 -1.34452,2.35688 -3.01461,2.35688 -1.6701,0 -3.01462,-1.05116 -3.01462,-2.35688 v -7.2716 c 0,-1.30572 3.01462,-2.32034 3.01462,-2.32034 z"
                   style="opacity:1;fill:#ffffff;fill-opacity:1;fill-rule:nonzero;stroke:none;stroke-width:0.22619192;stroke-linecap:round;stroke-linejoin:round;stroke-miterlimit:4;stroke-dasharray:none;stroke-dashoffset:0;stroke-opacity:1;paint-order:fill markers stroke" />
                <path
                   sodipodi:nodetypes="csssssc"
                   inkscape:connector-curvature="0"
                   id="path5599"
                   d="m -168.6173,-214.39719 c 0,0 2.50303,0.84244 2.50303,1.92658 v 6.03762 c 0,1.08414 -1.11635,1.95692 -2.50303,1.95692 -1.38669,0 -2.50304,-0.87278 -2.50304,-1.95692 v -6.03762 c 0,-1.08414 2.50304,-1.92658 2.50304,-1.92658 z"
                   style="opacity:1;fill:#97cd9a;fill-opacity:1;fill-rule:nonzero;stroke:none;stroke-width:0.18780744;stroke-linecap:round;stroke-linejoin:round;stroke-miterlimit:4;stroke-dasharray:none;stroke-dashoffset:0;stroke-opacity:1;paint-order:fill markers stroke" />
              </g>
              <g
                 id="g5607"
                 transform="matrix(0.89696979,0,0,1.198814,-11.032855,43.257546)">
                <path
                   sodipodi:nodetypes="csssssc"
                   inkscape:connector-curvature="0"
                   id="path5603"
                   d="m -168.6173,-215.7399 c 0,0 3.01461,1.01462 3.01461,2.32034 v 7.2716 c 0,1.30572 -1.34452,2.35688 -3.01461,2.35688 -1.6701,0 -3.01462,-1.05116 -3.01462,-2.35688 v -7.2716 c 0,-1.30572 3.01462,-2.32034 3.01462,-2.32034 z"
                   style="opacity:1;fill:#ffffff;fill-opacity:1;fill-rule:nonzero;stroke:none;stroke-width:0.22619192;stroke-linecap:round;stroke-linejoin:round;stroke-miterlimit:4;stroke-dasharray:none;stroke-dashoffset:0;stroke-opacity:1;paint-order:fill markers stroke" />
                <path
                   sodipodi:nodetypes="csssssc"
                   inkscape:connector-curvature="0"
                   id="path5605"
                   d="m -168.6173,-214.39719 c 0,0 2.50303,0.84244 2.50303,1.92658 v 6.03762 c 0,1.08414 -1.11635,1.95692 -2.50303,1.95692 -1.38669,0 -2.50304,-0.87278 -2.50304,-1.95692 v -6.03762 c 0,-1.08414 2.50304,-1.92658 2.50304,-1.92658 z"
                   style="opacity:1;fill:#020066;fill-opacity:1;fill-rule:nonzero;stroke:none;stroke-width:0.18780744;stroke-linecap:round;stroke-linejoin:round;stroke-miterlimit:4;stroke-dasharray:none;stroke-dashoffset:0;stroke-opacity:1;paint-order:fill markers stroke" />
              </g>
              <g
                 id="g5613"
                 transform="matrix(0.89696978,0,0,1.198814,-4.45552,43.257556)">
                <path
                   sodipodi:nodetypes="csssssc"
                   inkscape:connector-curvature="0"
                   id="path5609"
                   d="m -168.6173,-215.7399 c 0,0 3.01461,1.01462 3.01461,2.32034 v 7.2716 c 0,1.30572 -1.34452,2.35688 -3.01461,2.35688 -1.6701,0 -3.01462,-1.05116 -3.01462,-2.35688 v -7.2716 c 0,-1.30572 3.01462,-2.32034 3.01462,-2.32034 z"
                   style="opacity:1;fill:#ffffff;fill-opacity:1;fill-rule:nonzero;stroke:none;stroke-width:0.22619192;stroke-linecap:round;stroke-linejoin:round;stroke-miterlimit:4;stroke-dasharray:none;stroke-dashoffset:0;stroke-opacity:1;paint-order:fill markers stroke" />
                <path
                   sodipodi:nodetypes="csssssc"
                   inkscape:connector-curvature="0"
                   id="path5611"
                   d="m -168.6173,-214.39719 c 0,0 2.50303,0.84244 2.50303,1.92658 v 6.03762 c 0,1.08414 -1.11635,1.95692 -2.50303,1.95692 -1.38669,0 -2.50304,-0.87278 -2.50304,-1.95692 v -6.03762 c 0,-1.08414 2.50304,-1.92658 2.50304,-1.92658 z"
                   style="opacity:1;fill:#999999;fill-opacity:1;fill-rule:nonzero;stroke:none;stroke-width:0.18780744;stroke-linecap:round;stroke-linejoin:round;stroke-miterlimit:4;stroke-dasharray:none;stroke-dashoffset:0;stroke-opacity:1;paint-order:fill markers stroke" />
              </g>
            </g>
          </g>
          <g
             id="g5643">
            <path
               transform="rotate(30,-151.31759,-210.9672)"
               inkscape:transform-center-y="-0.3941582"
               inkscape:transform-center-x="-0.27154355"
               d="m -146.59982,-211.48524 -0.73479,1.38311 -0.43117,-1.50565 -1.54247,-0.27142 1.29872,-0.87534 -0.21851,-1.55085 1.23382,0.96466 1.40742,-0.68705 -0.53617,1.47153 1.08834,1.12622 z"
               inkscape:randomized="0"
               inkscape:rounded="0"
               inkscape:flatsided="false"
               sodipodi:arg2="1.6755161"
               sodipodi:arg1="1.0471976"
               sodipodi:r2="2.2591491"
               sodipodi:r1="0.99728298"
               sodipodi:cy="-212.34891"
               sodipodi:cx="-147.09846"
               sodipodi:sides="5"
               id="path5619"
               style="opacity:1;fill:#fffe03;fill-opacity:1;fill-rule:nonzero;stroke:#d54a1e;stroke-width:0.2;stroke-linecap:round;stroke-linejoin:round;stroke-miterlimit:4;stroke-dasharray:none;stroke-dashoffset:0;stroke-opacity:1;paint-order:fill markers stroke"
               sodipodi:type="star" />
            <path
               transform="matrix(0.76155036,0.4396813,-0.4396813,0.76155036,-125.33178,12.920373)"
               inkscape:transform-center-y="-0.34660748"
               inkscape:transform-center-x="-0.23878265"
               d="m -146.59982,-211.48524 -0.73479,1.38311 -0.43117,-1.50565 -1.54247,-0.27142 1.29872,-0.87534 -0.21851,-1.55085 1.23382,0.96466 1.40742,-0.68705 -0.53617,1.47153 1.08834,1.12622 z"
               inkscape:randomized="0"
               inkscape:rounded="0"
               inkscape:flatsided="false"
               sodipodi:arg2="1.6755161"
               sodipodi:arg1="1.0471976"
               sodipodi:r2="2.2591491"
               sodipodi:r1="0.99728298"
               sodipodi:cy="-212.34891"
               sodipodi:cx="-147.09846"
               sodipodi:sides="5"
               id="path5621"
               style="opacity:1;fill:#fffe03;fill-opacity:1;fill-rule:nonzero;stroke:#d54a1e;stroke-width:0.2;stroke-linecap:round;stroke-linejoin:round;stroke-miterlimit:4;stroke-dasharray:none;stroke-dashoffset:0;stroke-opacity:1;paint-order:fill markers stroke"
               sodipodi:type="star" />
            <path
               transform="matrix(0.64576967,0.37283528,-0.37283528,0.64576967,-126.16998,-24.047101)"
               inkscape:transform-center-y="-0.29391208"
               inkscape:transform-center-x="-0.20247657"
               d="m -146.59982,-211.48524 -0.73479,1.38311 -0.43117,-1.50565 -1.54247,-0.27142 1.29872,-0.87534 -0.21851,-1.55085 1.23382,0.96466 1.40742,-0.68705 -0.53617,1.47153 1.08834,1.12622 z"
               inkscape:randomized="0"
               inkscape:rounded="0"
               inkscape:flatsided="false"
               sodipodi:arg2="1.6755161"
               sodipodi:arg1="1.0471976"
               sodipodi:r2="2.2591491"
               sodipodi:r1="0.99728298"
               sodipodi:cy="-212.34891"
               sodipodi:cx="-147.09846"
               sodipodi:sides="5"
               id="path5623"
               style="opacity:1;fill:#fffe03;fill-opacity:1;fill-rule:nonzero;stroke:#d54a1e;stroke-width:0.2;stroke-linecap:round;stroke-linejoin:round;stroke-miterlimit:4;stroke-dasharray:none;stroke-dashoffset:0;stroke-opacity:1;paint-order:fill markers stroke"
               sodipodi:type="star" />
            <path
               transform="matrix(0.50914807,0.29395676,-0.29395676,0.50914807,-128.57767,-67.907361)"
               inkscape:transform-center-y="-0.23173239"
               inkscape:transform-center-x="-0.15963814"
               d="m -146.59982,-211.48524 -0.73479,1.38311 -0.43117,-1.50565 -1.54247,-0.27142 1.29872,-0.87534 -0.21851,-1.55085 1.23382,0.96466 1.40742,-0.68705 -0.53617,1.47153 1.08834,1.12622 z"
               inkscape:randomized="0"
               inkscape:rounded="0"
               inkscape:flatsided="false"
               sodipodi:arg2="1.6755161"
               sodipodi:arg1="1.0471976"
               sodipodi:r2="2.2591491"
               sodipodi:r1="0.99728298"
               sodipodi:cy="-212.34891"
               sodipodi:cx="-147.09846"
               sodipodi:sides="5"
               id="path5625"
               style="opacity:1;fill:#fffe03;fill-opacity:1;fill-rule:nonzero;stroke:#d54a1e;stroke-width:0.2;stroke-linecap:round;stroke-linejoin:round;stroke-miterlimit:4;stroke-dasharray:none;stroke-dashoffset:0;stroke-opacity:1;paint-order:fill markers stroke"
               sodipodi:type="star" />
            <path
               transform="matrix(0.41270918,0.23827775,-0.23827775,0.41270918,-130.90038,-99.152346)"
               inkscape:transform-center-y="-0.18783874"
               inkscape:transform-center-x="-0.12940323"
               d="m -146.59982,-211.48524 -0.73479,1.38311 -0.43117,-1.50565 -1.54247,-0.27142 1.29872,-0.87534 -0.21851,-1.55085 1.23382,0.96466 1.40742,-0.68705 -0.53617,1.47153 1.08834,1.12622 z"
               inkscape:randomized="0"
               inkscape:rounded="0"
               inkscape:flatsided="false"
               sodipodi:arg2="1.6755161"
               sodipodi:arg1="1.0471976"
               sodipodi:r2="2.2591491"
               sodipodi:r1="0.99728298"
               sodipodi:cy="-212.34891"
               sodipodi:cx="-147.09846"
               sodipodi:sides="5"
               id="path5627"
               style="opacity:1;fill:#fffe03;fill-opacity:1;fill-rule:nonzero;stroke:#d54a1e;stroke-width:0.2;stroke-linecap:round;stroke-linejoin:round;stroke-miterlimit:4;stroke-dasharray:none;stroke-dashoffset:0;stroke-opacity:1;paint-order:fill markers stroke"
               sodipodi:type="star" />
            <path
               transform="matrix(0.30823392,0.17795894,-0.17795894,0.30823392,-133.60958,-132.05972)"
               inkscape:transform-center-y="-0.14028409"
               inkscape:transform-center-x="-0.096648729"
               d="m -146.59982,-211.48524 -0.73479,1.38311 -0.43117,-1.50565 -1.54247,-0.27142 1.29872,-0.87534 -0.21851,-1.55085 1.23382,0.96466 1.40742,-0.68705 -0.53617,1.47153 1.08834,1.12622 z"
               inkscape:randomized="0"
               inkscape:rounded="0"
               inkscape:flatsided="false"
               sodipodi:arg2="1.6755161"
               sodipodi:arg1="1.0471976"
               sodipodi:r2="2.2591491"
               sodipodi:r1="0.99728298"
               sodipodi:cy="-212.34891"
               sodipodi:cx="-147.09846"
               sodipodi:sides="5"
               id="path5629"
               style="opacity:1;fill:#fffe03;fill-opacity:1;fill-rule:nonzero;stroke:#d54a1e;stroke-width:0.2;stroke-linecap:round;stroke-linejoin:round;stroke-miterlimit:4;stroke-dasharray:none;stroke-dashoffset:0;stroke-opacity:1;paint-order:fill markers stroke"
               sodipodi:type="star" />
            <path
               transform="matrix(-0.8660254,0.5,0.5,0.8660254,-192.04996,47.44131)"
               inkscape:transform-center-y="-0.3941582"
               inkscape:transform-center-x="-0.27154355"
               d="m -146.59982,-211.48524 -0.73479,1.38311 -0.43117,-1.50565 -1.54247,-0.27142 1.29872,-0.87534 -0.21851,-1.55085 1.23382,0.96466 1.40742,-0.68705 -0.53617,1.47153 1.08834,1.12622 z"
               inkscape:randomized="0"
               inkscape:rounded="0"
               inkscape:flatsided="false"
               sodipodi:arg2="1.6755161"
               sodipodi:arg1="1.0471976"
               sodipodi:r2="2.2591491"
               sodipodi:r1="0.99728298"
               sodipodi:cy="-212.34891"
               sodipodi:cx="-147.09846"
               sodipodi:sides="5"
               id="path5631"
               style="opacity:1;fill:#fffe03;fill-opacity:1;fill-rule:nonzero;stroke:#d54a1e;stroke-width:0.2;stroke-linecap:round;stroke-linejoin:round;stroke-miterlimit:4;stroke-dasharray:none;stroke-dashoffset:0;stroke-opacity:1;paint-order:fill markers stroke"
               sodipodi:type="star" />
            <path
               transform="matrix(-0.76155036,0.4396813,0.4396813,0.76155036,-192.47449,12.967133)"
               inkscape:transform-center-y="-0.34660748"
               inkscape:transform-center-x="-0.23878265"
               d="m -146.59982,-211.48524 -0.73479,1.38311 -0.43117,-1.50565 -1.54247,-0.27142 1.29872,-0.87534 -0.21851,-1.55085 1.23382,0.96466 1.40742,-0.68705 -0.53617,1.47153 1.08834,1.12622 z"
               inkscape:randomized="0"
               inkscape:rounded="0"
               inkscape:flatsided="false"
               sodipodi:arg2="1.6755161"
               sodipodi:arg1="1.0471976"
               sodipodi:r2="2.2591491"
               sodipodi:r1="0.99728298"
               sodipodi:cy="-212.34891"
               sodipodi:cx="-147.09846"
               sodipodi:sides="5"
               id="path5633"
               style="opacity:1;fill:#fffe03;fill-opacity:1;fill-rule:nonzero;stroke:#d54a1e;stroke-width:0.2;stroke-linecap:round;stroke-linejoin:round;stroke-miterlimit:4;stroke-dasharray:none;stroke-dashoffset:0;stroke-opacity:1;paint-order:fill markers stroke"
               sodipodi:type="star" />
            <path
               transform="matrix(-0.64576967,0.37283528,0.37283528,0.64576967,-191.63629,-24.000341)"
               inkscape:transform-center-y="-0.29391208"
               inkscape:transform-center-x="-0.20247657"
               d="m -146.59982,-211.48524 -0.73479,1.38311 -0.43117,-1.50565 -1.54247,-0.27142 1.29872,-0.87534 -0.21851,-1.55085 1.23382,0.96466 1.40742,-0.68705 -0.53617,1.47153 1.08834,1.12622 z"
               inkscape:randomized="0"
               inkscape:rounded="0"
               inkscape:flatsided="false"
               sodipodi:arg2="1.6755161"
               sodipodi:arg1="1.0471976"
               sodipodi:r2="2.2591491"
               sodipodi:r1="0.99728298"
               sodipodi:cy="-212.34891"
               sodipodi:cx="-147.09846"
               sodipodi:sides="5"
               id="path5635"
               style="opacity:1;fill:#fffe03;fill-opacity:1;fill-rule:nonzero;stroke:#d54a1e;stroke-width:0.2;stroke-linecap:round;stroke-linejoin:round;stroke-miterlimit:4;stroke-dasharray:none;stroke-dashoffset:0;stroke-opacity:1;paint-order:fill markers stroke"
               sodipodi:type="star" />
            <path
               transform="matrix(-0.50914807,0.29395676,0.29395676,0.50914807,-189.2286,-67.860601)"
               inkscape:transform-center-y="-0.23173239"
               inkscape:transform-center-x="-0.15963814"
               d="m -146.59982,-211.48524 -0.73479,1.38311 -0.43117,-1.50565 -1.54247,-0.27142 1.29872,-0.87534 -0.21851,-1.55085 1.23382,0.96466 1.40742,-0.68705 -0.53617,1.47153 1.08834,1.12622 z"
               inkscape:randomized="0"
               inkscape:rounded="0"
               inkscape:flatsided="false"
               sodipodi:arg2="1.6755161"
               sodipodi:arg1="1.0471976"
               sodipodi:r2="2.2591491"
               sodipodi:r1="0.99728298"
               sodipodi:cy="-212.34891"
               sodipodi:cx="-147.09846"
               sodipodi:sides="5"
               id="path5637"
               style="opacity:1;fill:#fffe03;fill-opacity:1;fill-rule:nonzero;stroke:#d54a1e;stroke-width:0.2;stroke-linecap:round;stroke-linejoin:round;stroke-miterlimit:4;stroke-dasharray:none;stroke-dashoffset:0;stroke-opacity:1;paint-order:fill markers stroke"
               sodipodi:type="star" />
            <path
               transform="matrix(-0.41270918,0.23827775,0.23827775,0.41270918,-186.90589,-99.105586)"
               inkscape:transform-center-y="-0.18783874"
               inkscape:transform-center-x="-0.12940323"
               d="m -146.59982,-211.48524 -0.73479,1.38311 -0.43117,-1.50565 -1.54247,-0.27142 1.29872,-0.87534 -0.21851,-1.55085 1.23382,0.96466 1.40742,-0.68705 -0.53617,1.47153 1.08834,1.12622 z"
               inkscape:randomized="0"
               inkscape:rounded="0"
               inkscape:flatsided="false"
               sodipodi:arg2="1.6755161"
               sodipodi:arg1="1.0471976"
               sodipodi:r2="2.2591491"
               sodipodi:r1="0.99728298"
               sodipodi:cy="-212.34891"
               sodipodi:cx="-147.09846"
               sodipodi:sides="5"
               id="path5639"
               style="opacity:1;fill:#fffe03;fill-opacity:1;fill-rule:nonzero;stroke:#d54a1e;stroke-width:0.2;stroke-linecap:round;stroke-linejoin:round;stroke-miterlimit:4;stroke-dasharray:none;stroke-dashoffset:0;stroke-opacity:1;paint-order:fill markers stroke"
               sodipodi:type="star" />
            <path
               transform="matrix(-0.30823392,0.17795894,0.17795894,0.30823392,-184.19669,-132.01296)"
               inkscape:transform-center-y="-0.14028409"
               inkscape:transform-center-x="-0.096648729"
               d="m -146.59982,-211.48524 -0.73479,1.38311 -0.43117,-1.50565 -1.54247,-0.27142 1.29872,-0.87534 -0.21851,-1.55085 1.23382,0.96466 1.40742,-0.68705 -0.53617,1.47153 1.08834,1.12622 z"
               inkscape:randomized="0"
               inkscape:rounded="0"
               inkscape:flatsided="false"
               sodipodi:arg2="1.6755161"
               sodipodi:arg1="1.0471976"
               sodipodi:r2="2.2591491"
               sodipodi:r1="0.99728298"
               sodipodi:cy="-212.34891"
               sodipodi:cx="-147.09846"
               sodipodi:sides="5"
               id="path5641"
               style="opacity:1;fill:#fffe03;fill-opacity:1;fill-rule:nonzero;stroke:#d54a1e;stroke-width:0.2;stroke-linecap:round;stroke-linejoin:round;stroke-miterlimit:4;stroke-dasharray:none;stroke-dashoffset:0;stroke-opacity:1;paint-order:fill markers stroke"
               sodipodi:type="star" />
          </g>
          <g
             id="g5661">
            <path
               inkscape:connector-curvature="0"
               id="path5645"
               transform="matrix(0.26458333,0,0,0.26458333,0,-429.90601)"
               d="m -608.36523,764.58398 c -1.69078,0.0635 -3.73148,0.37116 -6.19532,1.03125 l -0.17187,0.0879 -0.0625,0.0664 -1.46485,2.19727 h -3.51562 v 20.65429 l 15.86914,-0.92773 c 0,0 1.85231,0.67065 3.02148,0.875 v 0.0625 c 0.0781,0 0.17965,-0.0147 0.27539,-0.0254 0.096,0.0108 0.19904,0.0254 0.27735,0.0254 v -0.0625 c 1.16928,-0.20472 3.01953,-0.875 3.01953,-0.875 l 15.86914,0.92773 V 767.9668 h -3.51562 l -1.46485,-2.19727 -0.0606,-0.0664 -0.17382,-0.0879 c -2.46384,-0.66009 -4.50454,-0.96775 -6.19532,-1.03125 -5.2973,-0.19918 -7.1341,1.98213 -7.75586,3.2129 -0.62175,-1.23077 -2.45855,-3.41208 -7.75585,-3.2129 z"
               style="opacity:1;fill:#fae847;fill-opacity:1;fill-rule:nonzero;stroke:#836b3d;stroke-width:0.37795275;stroke-linecap:round;stroke-linejoin:round;stroke-miterlimit:4;stroke-dasharray:none;stroke-dashoffset:0;stroke-opacity:1;paint-order:fill markers stroke" />
            <path
               inkscape:connector-curvature="0"
               id="path5647"
               d="m -162.36885,-227.04926 v 4.09257 c 0,0 2.44823,-0.51157 3.30694,0.21924 v -3.61753 c 0,0 -0.26075,-1.5105 -3.30694,-0.69428 z"
               style="opacity:1;fill:#ffffff;fill-opacity:1;fill-rule:nonzero;stroke:#836b3d;stroke-width:0.1;stroke-linecap:round;stroke-linejoin:round;stroke-miterlimit:4;stroke-dasharray:none;stroke-dashoffset:0;stroke-opacity:1;paint-order:fill markers stroke" />
            <path
               sodipodi:nodetypes="ccccc"
               inkscape:connector-curvature="0"
               id="path5649"
               d="m -162.38027,-222.72281 -0.45217,0.65888 3.29881,-0.21963 0.52525,0.23255 c 0.25153,-0.30743 -0.0664,-1.21791 -3.37189,-0.6718 z"
               style="opacity:1;fill:#ffffff;fill-opacity:1;fill-rule:nonzero;stroke:#836b3d;stroke-width:0.1;stroke-linecap:round;stroke-linejoin:round;stroke-miterlimit:4;stroke-dasharray:none;stroke-dashoffset:0;stroke-opacity:1;paint-order:fill markers stroke" />
            <path
               inkscape:connector-curvature="0"
               id="path5651"
               d="m -162.66449,-226.71481 -0.37465,0.52968 0.0258,3.82406 0.40049,-0.56844 z"
               style="opacity:1;fill:#ffffff;fill-opacity:1;fill-rule:nonzero;stroke:#836b3d;stroke-width:0.1;stroke-linecap:round;stroke-linejoin:round;stroke-miterlimit:4;stroke-dasharray:none;stroke-dashoffset:0;stroke-opacity:1;paint-order:fill markers stroke" />
            <path
               sodipodi:nodetypes="ccccccccccccccccccccc"
               inkscape:connector-curvature="0"
               id="path5653"
               transform="matrix(0.26458333,0,0,0.26458333,0,-429.90601)"
               d="m -618.45703,769.13867 v 18.31055 l 14.94141,-0.78125 c 0.76142,0.63742 1.76654,0.81775 2.7832,0.97656 l 0.0488,0.0312 c 0.10848,0.0252 0.0749,-0.0582 0.19726,-0.0312 1.01666,-0.15881 2.02178,-0.33914 2.78321,-0.97656 l 14.9414,0.78125 v -18.31055 h -1.36719 l 0.39063,0.39063 -0.14649,17.28515 -14.25781,-0.78125 c -0.56439,0.6618 -2.43408,0.861 -2.34375,0.78125 -0.0925,0.003 -0.15683,0.008 -0.24609,0.0117 v -0.0117 c 0.0903,0.0797 -1.77936,-0.11945 -2.34375,-0.78125 l -14.25781,0.78125 -0.14649,-17.28515 0.39063,-0.39063 z"
               style="opacity:1;fill:#ffffff;fill-opacity:1;fill-rule:nonzero;stroke:#836b3d;stroke-width:0.37795275;stroke-linecap:round;stroke-linejoin:round;stroke-miterlimit:4;stroke-dasharray:none;stroke-dashoffset:0;stroke-opacity:1;paint-order:fill markers stroke" />
            <path
               inkscape:connector-curvature="0"
               id="path5655"
               d="m -155.45348,-227.04926 v 4.09257 c 0,0 -2.44823,-0.51157 -3.30694,0.21924 v -3.61753 c 0,0 0.26075,-1.5105 3.30694,-0.69428 z"
               style="opacity:1;fill:#ffffff;fill-opacity:1;fill-rule:nonzero;stroke:#836b3d;stroke-width:0.1;stroke-linecap:round;stroke-linejoin:round;stroke-miterlimit:4;stroke-dasharray:none;stroke-dashoffset:0;stroke-opacity:1;paint-order:fill markers stroke" />
            <path
               sodipodi:nodetypes="ccccc"
               inkscape:connector-curvature="0"
               id="path5657"
               d="m -155.44206,-222.72281 0.45217,0.65888 -3.29881,-0.21963 -0.52525,0.23255 c -0.25153,-0.30743 0.0664,-1.21791 3.37189,-0.6718 z"
               style="opacity:1;fill:#ffffff;fill-opacity:1;fill-rule:nonzero;stroke:#836b3d;stroke-width:0.1;stroke-linecap:round;stroke-linejoin:round;stroke-miterlimit:4;stroke-dasharray:none;stroke-dashoffset:0;stroke-opacity:1;paint-order:fill markers stroke" />
            <path
               inkscape:connector-curvature="0"
               id="path5659"
               d="m -155.15784,-226.71481 0.37465,0.52968 -0.0258,3.82406 -0.40049,-0.56844 z"
               style="opacity:1;fill:#ffffff;fill-opacity:1;fill-rule:nonzero;stroke:#836b3d;stroke-width:0.1;stroke-linecap:round;stroke-linejoin:round;stroke-miterlimit:4;stroke-dasharray:none;stroke-dashoffset:0;stroke-opacity:1;paint-order:fill markers stroke" />
          </g>
          <g
             aria-label="SMA MULTI ISTIQLAL"
             transform="matrix(0.79877411,0,0,0.79877411,-360.31841,-154.36108)"
             style="font-style:normal;font-variant:normal;font-weight:normal;font-stretch:normal;font-size:4.44410038px;line-height:125%;font-family:Cabin;-inkscape-font-specification:Cabin;font-variant-ligatures:normal;font-variant-caps:normal;font-variant-numeric:normal;font-feature-settings:normal;text-align:start;letter-spacing:0.12397527px;word-spacing:0px;writing-mode:lr-tb;text-anchor:start;display:inline;fill:#0a15ee;fill-opacity:1;stroke:none;stroke-width:0.12397527px;stroke-linecap:butt;stroke-linejoin:miter;stroke-opacity:1"
             id="g5695">
            <path
               inkscape:connector-curvature="0"
               d="m 234.70338,-95.097288 c 0.56089,-0.91763 0.17392,-1.315622 -0.10668,-1.487133 -0.57636,-0.352294 -1.02955,0.07385 -1.45872,0.452176 -0.29328,0.258255 -0.54716,0.452049 -0.79363,0.301397 -0.2768,-0.169194 -0.19355,-0.561034 -0.0267,-0.834048 0.16224,-0.26543 0.41822,-0.437103 0.70474,-0.616146 l -0.3598,-0.272009 c -0.17613,0.100684 -0.48099,0.377899 -0.6919,0.722958 -0.44501,0.728037 -0.14801,1.222086 0.18189,1.423728 0.45502,0.278127 0.84353,-0.06776 1.25268,-0.421858 0.35543,-0.308811 0.6546,-0.542628 0.95416,-0.359527 0.29956,0.1831 0.22179,0.557454 0.0225,0.883554 -0.22018,0.360226 -0.53515,0.568761 -0.77069,0.664384 l 0.39076,0.306562 c 0.18688,-0.109742 0.46267,-0.373477 0.7014,-0.764038 z"
               style="fill:#0a15ee;fill-opacity:1;stroke-width:0.12397527px"
               id="path5663" />
            <path
               inkscape:connector-curvature="0"
               d="m 237.60995,-98.988092 -2.62923,-1.713318 -0.23743,0.27645 0.64288,1.618326 -1.70264,-0.384413 -0.23454,0.27308 2.08778,2.343766 0.28955,-0.337136 -1.59235,-1.754235 1.78553,0.397027 -0.67365,-1.691628 1.97455,1.309216 z"
               style="fill:#0a15ee;fill-opacity:1;stroke-width:0.12397527px"
               id="path5665" />
            <path
               inkscape:connector-curvature="0"
               d="m 239.9469,-100.95238 -2.8499,-1.67328 -0.34116,0.2848 1.13727,3.102968 0.34116,-0.284798 -0.30969,-0.83561 0.91431,-0.76326 0.76685,0.45398 z m -1.45528,-0.37714 -0.70961,0.59238 -0.47681,-1.29237 z"
               style="fill:#0a15ee;fill-opacity:1;stroke-width:0.12397527px"
               id="path5667" />
            <path
               inkscape:connector-curvature="0"
               d="m 244.00859,-103.25697 -1.7919,-2.57633 -0.32396,0.16687 -0.0129,1.74129 -1.43307,-0.9965 -0.32002,0.16483 1.05309,2.95686 0.39508,-0.20349 -0.81574,-2.2243 1.50515,1.03937 0.012,-1.82079 1.33724,1.95568 z"
               style="fill:#0a15ee;fill-opacity:1;stroke-width:0.12397527px"
               id="path5669" />
            <path
               inkscape:connector-curvature="0"
               d="m 245.85295,-103.79247 c 0.83619,-0.25937 1.07426,-0.88692 0.82148,-1.70188 l -0.53059,-1.71057 -0.40323,0.12507 0.47002,1.51532 c 0.18037,0.58151 0.2337,1.18847 -0.47091,1.40702 -0.7046,0.21856 -1.0028,-0.30779 -1.18449,-0.89355 l -0.47002,-1.51532 -0.40323,0.12508 0.53058,1.71057 c 0.25278,0.81496 0.8042,1.19763 1.64039,0.93826 z"
               style="fill:#0a15ee;fill-opacity:1;stroke-width:0.12397527px"
               id="path5671" />
            <path
               inkscape:connector-curvature="0"
               d="m 249.6816,-104.68294 -0.0634,-0.37689 -1.40677,0.23674 -0.45284,-2.69084 -0.41633,0.0701 0.51626,3.06774 z"
               style="fill:#0a15ee;fill-opacity:1;stroke-width:0.12397527px"
               id="path5673" />
            <path
               inkscape:connector-curvature="0"
               d="m 251.69397,-107.51217 -0.0204,-0.38165 -2.2322,0.11925 0.0204,0.38165 0.90531,-0.0484 0.14556,2.7248 0.42159,-0.0225 -0.14556,-2.7248 z"
               style="fill:#0a15ee;fill-opacity:1;stroke-width:0.12397527px"
               id="path5675" />
            <path
               inkscape:connector-curvature="0"
               d="m 252.80954,-104.73149 0.12592,-3.10832 -0.42185,-0.0171 -0.12592,3.10832 z"
               style="fill:#0a15ee;fill-opacity:1;stroke-width:0.12397527px"
               id="path5677" />
            <path
               inkscape:connector-curvature="0"
               d="m 255.17693,-104.46815 0.49605,-3.07107 -0.41679,-0.0673 -0.49605,3.07107 z"
               style="fill:#0a15ee;fill-opacity:1;stroke-width:0.12397527px"
               id="path5679" />
            <path
               inkscape:connector-curvature="0"
               d="m 256.84848,-104.04008 c 1.03929,0.27663 1.31073,-0.20758 1.39532,-0.52538 0.17375,-0.65278 -0.36373,-0.96599 -0.84853,-1.26978 -0.33102,-0.20768 -0.58904,-0.39592 -0.51474,-0.67507 0.0834,-0.31351 0.48278,-0.34518 0.79199,-0.26288 0.30062,0.08 0.53803,0.27657 0.79119,0.50031 l 0.1584,-0.42232 c -0.14664,-0.1402 -0.49913,-0.3536 -0.88994,-0.45761 -0.82456,-0.21947 -1.21369,0.20582 -1.31314,0.57945 -0.13716,0.51535 0.30497,0.78939 0.76084,1.08088 0.39718,0.25288 0.70645,0.47316 0.61615,0.81243 -0.0903,0.33928 -0.47131,0.37123 -0.84064,0.27293 -0.40799,-0.10859 -0.69752,-0.35122 -0.85621,-0.54981 l -0.18271,0.46184 c 0.15838,0.14792 0.48968,0.33728 0.93202,0.45501 z"
               style="fill:#0a15ee;fill-opacity:1;stroke-width:0.12397527px"
               id="path5681" />
            <path
               inkscape:connector-curvature="0"
               d="m 261.45527,-105.3521 0.14543,-0.35344 -2.06723,-0.8506 -0.14543,0.35344 0.8384,0.34497 -1.03831,2.52341 0.39043,0.16065 1.03831,-2.52341 z"
               style="fill:#0a15ee;fill-opacity:1;stroke-width:0.12397527px"
               id="path5683" />
            <path
               inkscape:connector-curvature="0"
               d="m 261.26965,-102.36267 1.44463,-2.7551 -0.3739,-0.19605 -1.44464,2.75509 z"
               style="fill:#0a15ee;fill-opacity:1;stroke-width:0.12397527px"
               id="path5685" />
            <path
               inkscape:connector-curvature="0"
               d="m 264.50762,-100.61774 -0.0966,-0.33043 c 0.37798,-0.15024 0.65337,-0.37089 0.87213,-0.68969 0.55824,-0.81347 0.38398,-1.69841 -0.34888,-2.20132 -0.73285,-0.50291 -1.62124,-0.34719 -2.17948,0.46628 -0.55823,0.81347 -0.38397,1.69841 0.34888,2.20132 0.28582,0.19614 0.59764,0.29154 0.97002,0.28298 l 0.1024,0.36132 z m 0.21036,-2.90631 c 0.59362,0.40736 0.61296,1.0782 0.22069,1.64983 -0.14082,0.2052 -0.30886,0.41866 -0.64359,0.56085 l -0.1509,-0.6048 -0.3366,0.0978 0.1662,0.5668 c -0.24788,0.008 -0.489,-0.11997 -0.65389,-0.23313 -0.59362,-0.40736 -0.57632,-1.05305 -0.18405,-1.62468 0.39227,-0.57163 0.98853,-0.82002 1.58214,-0.41266 z"
               style="fill:#0a15ee;fill-opacity:1;stroke-width:0.12397527px"
               id="path5687" />
            <path
               inkscape:connector-curvature="0"
               d="m 266.23286,-98.643674 0.26018,-0.279957 -1.04495,-0.971148 1.85758,-1.998761 -0.30925,-0.28741 -2.11777,2.278716 z"
               style="fill:#0a15ee;fill-opacity:1;stroke-width:0.12397527px"
               id="path5689" />
            <path
               inkscape:connector-curvature="0"
               d="m 268.07654,-96.458717 1.68627,-2.842229 -0.28323,-0.342457 -3.10813,1.123094 0.28324,0.342457 0.83701,-0.305872 0.75908,0.917785 -0.45748,0.764765 z m 0.38378,-1.453543 -0.58914,-0.712311 1.29455,-0.470898 z"
               style="fill:#0a15ee;fill-opacity:1;stroke-width:0.12397527px"
               id="path5691" />
            <path
               inkscape:connector-curvature="0"
               d="m 269.32719,-94.457368 0.3237,-0.203184 -0.75839,-1.208262 2.31113,-1.450638 -0.22445,-0.357586 -2.63484,1.653822 z"
               style="fill:#0a15ee;fill-opacity:1;stroke-width:0.12397527px"
               id="path5693" />
          </g>
        </g>
        <text
           id="text6752-3-8-6"
           y="127.81994"
           x="23.882044"
           style="font-style:normal;font-weight:normal;font-size:4.87810516px;line-height:1.25;font-family:sans-serif;letter-spacing:0px;word-spacing:0px;fill:#ffffff;fill-opacity:1;stroke:none;stroke-width:0.12195264"
           xml:space="preserve"><tspan
             style="font-style:normal;font-variant:normal;font-weight:normal;font-stretch:normal;font-family:FreeSerif;-inkscape-font-specification:FreeSerif;fill:#ffffff;stroke-width:0.12195264"
             y="127.81994"
             x="23.882044"
             id="tspan6750-3-0-6"
             sodipodi:role="line">http://istiqlal.or.id</tspan></text>
      </g>
    </g>
  </g>
</svg>
