<?xml version="1.0" encoding="UTF-8" standalone="no"?>
<!-- Created with Inkscape (http://www.inkscape.org/) -->

<svg
   width="210mm"
   height="297mm"
   viewBox="0 0 210 297"
   version="1.1"
   id="svg20696"
   inkscape:version="1.2 (dc2aedaf03, 2022-05-15)"
   sodipodi:docname="Map.svg"
   xml:space="preserve"
   xmlns:inkscape="http://www.inkscape.org/namespaces/inkscape"
   xmlns:sodipodi="http://sodipodi.sourceforge.net/DTD/sodipodi-0.dtd"
   xmlns:xlink="http://www.w3.org/1999/xlink"
   xmlns="http://www.w3.org/2000/svg"
   xmlns:svg="http://www.w3.org/2000/svg"><sodipodi:namedview
     id="namedview20698"
     pagecolor="#505050"
     bordercolor="#ffffff"
     borderopacity="1"
     inkscape:showpageshadow="0"
     inkscape:pageopacity="0"
     inkscape:pagecheckerboard="1"
     inkscape:deskcolor="#505050"
     inkscape:document-units="mm"
     showgrid="false"
     inkscape:zoom="0.2973261"
     inkscape:cx="247.20332"
     inkscape:cy="1301.6012"
     inkscape:current-layer="layer1" /><defs
     id="defs20693"><filter
       style="color-interpolation-filters:sRGB;"
       inkscape:label="Greyscale"
       id="filter26481"
       x="0"
       y="0"
       width="1"
       height="1"><feColorMatrix
         values="0.0249151 -0.0929166 0.74 0.51 0 0.0249151 -0.0929166 0.74 0.51 0 0.0249151 -0.0929166 0.74 0.51 0 0 0 0 1 0 "
         id="feColorMatrix26479" /></filter><clipPath
       clipPathUnits="userSpaceOnUse"
       id="clipPath26488"><rect
         style="fill:#ffffff;stroke-width:0.379029;stroke-linecap:round;stroke-linejoin:round"
         id="rect26490"
         width="198.25793"
         height="256.08316"
         x="-311.0694"
         y="134.75844" /></clipPath><linearGradient
       xlink:href="#A"
       id="B-7"
       x1="126.447"
       y1="101.473"
       x2="134.215"
       y2="103.41" /><linearGradient
       id="A"
       gradientUnits="userSpaceOnUse"><stop
         offset="0"
         stop-color="#f0c001"
         id="stop4" /><stop
         offset=".525"
         stop-color="#f7d914"
         id="stop6" /><stop
         offset="1"
         stop-color="#f0c001"
         id="stop8" /></linearGradient><linearGradient
       xlink:href="#A"
       id="C-6"
       x1="141.718"
       y1="101.473"
       x2="133.95"
       y2="103.41" /></defs><g
     inkscape:label="Layer 1"
     inkscape:groupmode="layer"
     id="layer1"><rect
       style="fill:#ffffff;stroke-width:0.412948;stroke-linecap:round;stroke-linejoin:round"
       id="rect20869"
       width="216"
       height="279"
       x="-320.49274"
       y="123.3501" /><g
       id="g26484"
       transform="matrix(1.0894898,0,0,1.0894898,18.414183,-23.467836)"
       clip-path="url(#clipPath26488)"
       style="opacity:1"><image
         width="190.28429"
         height="285.17267"
         preserveAspectRatio="none"
         style="filter:url(#filter26481);image-rendering:optimizeSpeed;opacity:0.13"
         xlink:href="../Stock%20Photo/yasmine-arfaoui-R6rh5ttDO-4-unsplash.jpg"
         id="image26371"
         x="-300.91055"
         y="119.65388"
         transform="matrix(1.1856081,0,0,1.1856081,33.178461,-81.497652)" /><rect
         style="opacity:1;fill:#9ac337;fill-opacity:1;stroke-width:0.277474;stroke-linecap:round;stroke-linejoin:round"
         id="rect26894"
         width="266.76395"
         height="117.86814"
         x="140.94464"
         y="438.69553"
         transform="matrix(-0.96657594,-0.25638048,0,1,0,0)" /><rect
         style="opacity:1;fill:#1a1a1a;stroke-width:0.277474;stroke-linecap:round;stroke-linejoin:round"
         id="rect26870"
         width="266.76395"
         height="117.86814"
         x="-297.67352"
         y="326.24237"
         transform="matrix(0.96657594,-0.25638048,0,1,0,0)" /><g
         id="g28764"
         transform="matrix(-0.78970576,0,0,0.78970576,-392.98071,237.28519)" /></g><image
       width="105.28151"
       height="105.28151"
       preserveAspectRatio="none"
       xlink:href="../Logo/Logo_Amanah_FullDesc_var2.png"
       id="image26353"
       x="-265.13351"
       y="203.58148" /><g
       id="g26868"
       transform="translate(-50.53534,-200.91456)"><path
         fill="#004e81"
         d="m -179.61597,345.12465 0.54745,-2.73101 h 0.89075 l -0.54436,2.73101 z m 2.68768,-0.89388 h 0.566 l -0.14555,-1.00205 z m -1.24948,0.89388 1.34848,-2.73101 h 0.87836 l 0.55362,2.73101 h -0.82577 l -0.0496,-0.32487 h -0.8784 l -0.13929,0.32487 z m 3.60006,0 0.30611,-2.0537 h -0.7794 l 0.13303,-0.68969 h 2.39387 l -0.13303,0.68969 h -0.74228 l -0.29985,2.0537 z m 2.99391,-0.89388 h 0.56596 l -0.14555,-1.00205 z m -1.24644,0.89388 1.3454,-2.73101 h 0.87836 l 0.55362,2.73101 h -0.83199 l -0.0417,-0.32487 h -0.87836 l -0.13929,0.32487 z m 4.72281,-5.8177 h -4.19084 c -0.15472,0.76705 -0.68661,1.40725 -1.74747,1.84951 0.12053,0.36491 0.53197,0.70213 0.95881,0.70213 h 2.27322 c 0.34656,0 0.62168,-0.29068 0.73303,-0.5258 h -2.31038 c -0.14221,-0.025 -0.14847,-0.13888 -0.004,-0.15139 h 2.27018 c 0.29359,0 0.55978,-0.25064 0.71442,-0.52267 h -2.64447 c -0.13303,-0.0208 -0.13303,-0.13303 0,-0.15472 h 2.66603 c 0.26899,0 0.51342,-0.31236 0.61546,-0.52267 h -2.9258 c -0.14554,-0.0167 -0.14554,-0.15472 0,-0.15764 h 2.97839 c 0.23188,0 0.45774,-0.25356 0.61551,-0.5165 z m -13.41994,0 h 4.19084 c 0.15139,0.76705 0.68661,1.40725 1.74438,1.84951 -0.12052,0.36491 -0.53197,0.70213 -0.95881,0.70213 h -2.27013 c -0.34656,0 -0.62168,-0.29068 -0.73303,-0.5258 h 2.31038 c 0.13929,-0.025 0.14847,-0.13888 0.004,-0.15139 h -2.27326 c -0.29401,0 -0.55979,-0.25064 -0.71134,-0.52267 h 2.64747 c 0.13303,-0.0208 0.13303,-0.13303 0,-0.15472 h -2.66603 c -0.26899,0 -0.51341,-0.31236 -0.61546,-0.52267 h 2.92584 c 0.14555,-0.0167 0.14555,-0.15472 0,-0.15764 h -2.97843 c -0.23521,0 -0.46083,-0.25356 -0.61859,-0.5165 z m 5.35066,-2.30108 c 0.15472,0.13303 0.32779,0.25022 0.51341,0.32487 0.15764,-0.30944 0.37742,-0.5753 0.63094,-0.81034 -0.41754,0.0559 -0.81034,0.21352 -1.14435,0.48555 z m -0.74228,1.52481 h 0.93403 c 0.0209,-0.38367 0.10218,-0.72064 0.25356,-1.06703 -0.20726,-0.0926 -0.38659,-0.20393 -0.55983,-0.3524 -0.38659,0.3866 -0.59999,0.88458 -0.62785,1.41964 z m 2.02892,-0.87528 v 0.87528 h -0.93403 c 0.004,-0.34322 0.0867,-0.69591 0.23187,-1.01448 0.22269,0.0805 0.46391,0.13303 0.70208,0.13887 z m 1.43198,-0.64953 c -0.15138,0.13303 -0.33113,0.25022 -0.51341,0.32487 -0.16682,-0.31528 -0.37409,-0.56913 -0.63402,-0.80726 0.42062,0.0525 0.81338,0.21019 1.14743,0.48247 z m 0.7392,1.52481 h -0.93095 c -0.0125,-0.37742 -0.0988,-0.7299 -0.24731,-1.06703 0.1981,-0.0926 0.3866,-0.21019 0.55053,-0.3524 0.40203,0.40203 0.60929,0.89692 0.62785,1.41964 z m -2.01963,-0.87528 v 0.87528 h 0.92783 c 0,-0.3524 -0.0867,-0.68974 -0.23188,-1.01448 -0.22269,0.0805 -0.46082,0.13303 -0.69591,0.13887 z m -1.43819,2.55468 c 0.15472,-0.12052 0.33405,-0.25355 0.51341,-0.31861 0.16724,0.31236 0.37409,0.56909 0.63094,0.80104 -0.41754,-0.0559 -0.81652,-0.21352 -1.14435,-0.48247 z m -0.74228,-1.52789 h 0.93403 c 0.0209,0.38659 0.10218,0.72685 0.25356,1.07633 -0.20726,0.093 -0.38659,0.20393 -0.55983,0.34947 -0.38033,-0.38367 -0.59999,-0.88149 -0.62785,-1.42584 z m 2.02892,0.8784 v -0.8784 h -0.93403 c 0.004,0.35239 0.0867,0.70212 0.23187,1.01448 0.22269,-0.0805 0.46391,-0.13011 0.70208,-0.13637 z m 1.43198,0.64949 c -0.14555,-0.12678 -0.33113,-0.24438 -0.51341,-0.31861 -0.16682,0.31236 -0.37409,0.56909 -0.63402,0.80104 0.42062,-0.0559 0.81338,-0.21352 1.14743,-0.48247 z m 0.7392,-1.52789 h -0.93095 c -0.0125,0.38659 -0.0959,0.72994 -0.24731,1.07633 0.1981,0.093 0.37742,0.20393 0.55053,0.34947 0.38368,-0.38367 0.60929,-0.89387 0.62785,-1.42584 z m -2.01963,0.8784 v -0.8784 h 0.92783 c 0,0.35239 -0.0867,0.69591 -0.23188,1.01448 -0.21644,-0.0805 -0.46699,-0.13011 -0.69591,-0.13637 z m -0.15138,-2.95057 c -0.25356,0.20393 -0.47938,0.48247 -0.62785,0.77322 0.20101,0.068 0.41453,0.12386 0.62785,0.12386 z m 0.15138,0 c 0.24731,0.20393 0.47321,0.47317 0.62164,0.77322 -0.20101,0.0742 -0.41454,0.12386 -0.62164,0.12386 z m -0.15138,3.99591 c -0.25356,-0.20101 -0.47938,-0.47934 -0.62785,-0.77627 0.20101,-0.0713 0.41453,-0.11135 0.62785,-0.11135 z m 0.15138,0.004 c 0.24731,-0.20726 0.47321,-0.48559 0.62164,-0.78252 -0.20101,-0.0651 -0.41454,-0.11135 -0.62164,-0.11135 z"
         id="path681"
         style="stroke-width:0.699591" /><g
         id="g965"
         transform="matrix(0.14654669,0,0,0.14654669,-195.67357,335.79688)"><g
           stroke-width="0.365"
           class="B"
           id="g23"
           style="fill-rule:evenodd;stroke:#000000"
           transform="translate(-13.317,-68.129)"><path
             d="M 49.398,68.129 85.479,94.343 71.697,136.759 H 27.098 L 13.317,94.343 Z"
             fill="#f7d914"
             class="D"
             id="path19"
             style="opacity:0.997" /><path
             d="M 49.398,71.453 16.477,95.371 29.051,134.068 H 69.744 L 82.318,95.371 Z"
             fill="#006316"
             class="D"
             id="path21"
             style="opacity:0.997" /></g><path
           d="m 36.081,11.614 -1.216,3.744 h -3.937 l 3.185,2.314 -1.216,3.744 3.185,-2.314 3.185,2.314 -1.216,-3.744 3.185,-2.314 h -3.937 l -1.216,-3.744 z"
           opacity="0.994"
           fill="#f7d914"
           id="path25"
           style="fill-rule:evenodd" /><g
           id="g989"><g
             transform="translate(-98.002,-68.129)"
             id="g49"><path
               d="m 142.555,107.29 -3.424,3.6 1.279,4.822 -0.822,1.151 -5.506,-2.978 -5.507,2.978 -0.822,-1.151 1.278,-4.822 -3.424,-3.6 h 8.473 z"
               id="path29" /><path
               d="m 125.609,107.29 3.424,3.6 -1.279,4.822 0.822,1.151 5.506,-2.978 5.507,2.978 0.822,-1.151 -1.278,-4.822 3.424,-3.6 h -8.473 z"
               id="path31" /><g
               fill="#ffffff"
               class="B"
               id="g37"
               style="stroke:#000000"><path
                 d="m 125.134,107.284 c -0.671,0.242 -0.593,0.566 -0.737,1.363 l 8.056,4.357 -4.615,2.495 0.737,1.363 5.507,-2.978 5.506,2.978 0.737,-1.363 -4.615,-2.495 8.056,-4.357 c -0.145,-0.797 -0.067,-1.121 -0.737,-1.363 l -8.948,4.839 z"
                 opacity="0.999"
                 class="C E"
                 id="path33"
                 style="fill-rule:evenodd;stroke-width:0.265" /><path
                 d="m 134.652,112.309 0.989,-0.535 m 0.322,-0.174 7.274,-3.933 m -9.725,4.642 -0.989,-0.535 m -0.322,-0.174 -7.274,-3.933"
                 stroke-width="0.165"
                 id="path35" /></g><path
               d="m 134.082,109.357 v -9.594 c -1.806,-1.197 -3.649,-2.3 -6.281,-2.3 l -2.709,8.019 c 4.701,-0.007 6.883,2.25 8.99,3.875 z"
               fill="url(#B)"
               class="B C F"
               id="path39"
               style="fill:url(#B-7);stroke:#000000;stroke-width:0.265;stroke-linejoin:round" /><path
               d="m 129.326,98.898 c 0.933,0.192 2.248,0.565 3.814,1.728 l -0.31,5.864 c -1.139,-0.812 -2.022,-1.715 -4.58,-1.968 -0.515,-0.051 -0.816,-0.462 -0.669,-0.958 l 1.3,-4.395 c 0.055,-0.186 0.255,-0.309 0.445,-0.27 z"
               fill="none"
               stroke-width="0.1"
               class="B"
               id="path41"
               style="stroke:#000000" /><path
               d="m 134.082,109.357 v -9.594 c 1.806,-1.197 3.649,-2.3 6.281,-2.3 l 2.709,8.019 c -4.701,-0.007 -6.883,2.25 -8.99,3.875 z"
               fill="url(#C)"
               class="B C F"
               id="path43"
               style="fill:url(#C-6);stroke:#000000;stroke-width:0.265;stroke-linejoin:round" /><path
               d="m 138.839,98.898 c -0.933,0.192 -2.248,0.565 -3.814,1.728 l 0.31,5.864 c 1.139,-0.812 2.022,-1.715 4.58,-1.968 0.515,-0.051 0.816,-0.462 0.669,-0.958 l -1.3,-4.395 c -0.055,-0.186 -0.255,-0.309 -0.445,-0.27 z"
               fill="none"
               stroke-width="0.1"
               class="B"
               id="path45"
               style="stroke:#000000" /><path
               d="m 125.092,105.482 0.517,1.808 c 4.406,0.395 5.796,2.227 7.388,3.798 h 1.085 1.085 c 1.592,-1.57 2.982,-3.403 7.388,-3.798 l 0.516,-1.808 c -4.811,-0.007 -6.883,2.25 -8.99,3.875 -2.106,-1.625 -4.179,-3.882 -8.99,-3.875 z"
               fill="#f0c001"
               class="B C F"
               id="path47"
               style="stroke:#000000;stroke-width:0.265;stroke-linejoin:round" /></g><g
             id="g967"
             transform="translate(5.9317383e-4)"><path
               id="use51"
               d="m 30.821,35.241 -0.372,0.037 c 0.113,0.098 0.315,0.062 0.389,0.206 0.109,0.151 0.318,0.126 0.482,0.123 0.151,-0.004 0.235,0.13 0.355,0.195 0.082,0.094 0.206,0.062 0.314,0.076 0.122,0.014 0.245,0.03 0.368,0.017 0.103,0.052 0.154,0.204 0.297,0.149 0.128,0.001 0.249,0.047 0.32,0.151 0.157,0.046 0.327,-0.006 0.485,0.051 0.13,0.05 0.186,0.224 0.358,0.18 0.08,-0.028 0.233,0.039 0.27,-0.035 -0.133,-0.066 -0.321,-0.002 -0.42,-0.138 -0.058,-0.128 -0.148,-0.225 -0.301,-0.204 -0.132,-0.011 -0.319,0.013 -0.374,-0.144 -0.092,-0.163 -0.317,-0.009 -0.461,-0.081 -0.1,-0.071 -0.148,-0.244 -0.307,-0.183 -0.143,-0.024 -0.341,0.073 -0.445,-0.052 -0.051,-0.141 -0.232,0.011 -0.256,-0.158 -0.097,-0.075 -0.297,0.058 -0.358,-0.111 -0.04,-0.137 -0.25,-0.002 -0.344,-0.077 z" /><path
               id="use53"
               d="m 30.673,33.924 c 0.101,0.105 0.107,0.316 0.267,0.351 0.211,0.03 0.441,0.014 0.627,0.136 0.089,0.128 0.235,0.214 0.393,0.205 0.167,-0.033 0.226,0.158 0.377,0.179 0.133,0.044 0.287,0.015 0.409,0.085 0.05,0.161 0.236,0.166 0.379,0.167 0.11,0.016 0.196,0.125 0.316,0.082 0.114,0.006 0.278,-0.04 0.286,0.117 0.079,0.124 0.238,0.083 0.362,0.09 h 0.16 l -0.47,-0.2 c -0.063,-0.09 -0.123,-0.198 -0.254,-0.148 -0.102,0.008 -0.215,0.018 -0.224,-0.113 -0.104,-0.105 -0.288,0.069 -0.393,-0.051 -0.013,-0.163 -0.15,-0.306 -0.326,-0.252 -0.144,0.014 -0.31,0.026 -0.385,-0.124 -0.125,-0.061 -0.289,0.032 -0.399,-0.067 -0.069,-0.121 -0.167,-0.233 -0.318,-0.229 -0.207,-0.009 -0.418,-0.004 -0.621,-0.055 -0.071,-0.04 -0.164,-0.087 -0.186,-0.171 z" /><path
               id="use55"
               d="m 31.596,32.865 a 0.93,0.93 0 0 0 -0.49,0.136 c 0.19,0.001 0.42,-0.006 0.546,0.164 0.127,0.144 0.338,0.081 0.497,0.157 0.101,0.138 0.285,0.073 0.428,0.08 0.148,-0.011 0.179,0.141 0.251,0.231 0.09,0.098 0.232,0.121 0.359,0.109 0.139,0.09 0.272,0.247 0.456,0.212 0.169,-0.055 0.338,0.034 0.461,0.144 0.08,0.064 0.203,0.014 0.299,0.051 0.065,10e-4 0.183,0.071 0.193,0.07 -0.064,-0.163 -0.254,-0.173 -0.385,-0.218 -0.104,-0.105 -0.207,-0.268 -0.378,-0.241 -0.152,0.035 -0.357,0.048 -0.452,-0.102 -0.055,-0.099 -0.211,-0.05 -0.303,-0.114 -0.135,-0.038 -0.136,-0.2 -0.228,-0.272 -0.168,-0.098 -0.388,0.03 -0.546,-0.094 -0.047,-0.149 -0.198,-0.155 -0.334,-0.146 -0.121,0.017 -0.242,-0.052 -0.269,-0.168 -0.031,-0.016 -0.075,-0.027 -0.104,0 z" /><path
               id="use57"
               d="m 31.842,31.76 c -0.106,-0.006 -0.203,0.042 -0.301,0.073 0.131,0.012 0.297,0.039 0.35,0.178 0.127,0.07 0.304,-0.045 0.41,0.079 0.106,0.124 0.277,0.101 0.419,0.093 0.124,0.016 0.177,0.197 0.316,0.166 0.131,-0.029 0.21,0.103 0.291,0.18 0.113,0.096 0.272,0.107 0.413,0.124 0.123,0.017 0.263,-0.018 0.358,0.083 0.133,0.104 0.3,0.186 0.472,0.171 0.117,-0.017 -0.096,-0.039 -0.133,-0.077 A 0.44,0.44 0 0 1 34.226,32.616 C 34.114,32.482 33.922,32.534 33.771,32.53 a 0.42,0.42 0 0 1 -0.398,-0.224 c -0.024,-0.128 -0.162,-0.131 -0.267,-0.121 -0.167,0.027 -0.189,-0.184 -0.328,-0.221 -0.115,-0.062 -0.256,0.035 -0.361,-0.058 -0.09,-0.123 -0.247,-0.068 -0.378,-0.091 -0.08,0.028 -0.145,-0.121 -0.198,-0.055 z" /><path
               id="use59"
               d="m 41.339814,35.241 0.372,0.037 c -0.113,0.098 -0.315,0.062 -0.389,0.206 -0.109,0.151 -0.318,0.126 -0.482,0.123 -0.151,-0.004 -0.235,0.13 -0.355,0.195 -0.082,0.094 -0.206,0.062 -0.314,0.076 -0.122,0.014 -0.245,0.03 -0.368,0.017 -0.103,0.052 -0.154,0.204 -0.297,0.149 -0.128,0.001 -0.249,0.047 -0.32,0.151 -0.157,0.046 -0.327,-0.006 -0.485,0.051 -0.13,0.05 -0.186,0.224 -0.358,0.18 -0.08,-0.028 -0.233,0.039 -0.27,-0.035 0.133,-0.066 0.321,-0.002 0.42,-0.138 0.058,-0.128 0.148,-0.225 0.301,-0.204 0.132,-0.011 0.319,0.013 0.374,-0.144 0.092,-0.163 0.317,-0.009 0.461,-0.081 0.1,-0.071 0.148,-0.244 0.307,-0.183 0.143,-0.024 0.341,0.073 0.445,-0.052 0.051,-0.141 0.232,0.011 0.256,-0.158 0.097,-0.075 0.297,0.058 0.358,-0.111 0.04,-0.137 0.25,-0.002 0.344,-0.077 z" /><path
               id="use61"
               d="m 41.487814,33.924 c -0.101,0.105 -0.107,0.316 -0.267,0.351 -0.211,0.03 -0.441,0.014 -0.627,0.136 -0.089,0.128 -0.235,0.214 -0.393,0.205 -0.167,-0.033 -0.226,0.158 -0.377,0.179 -0.133,0.044 -0.287,0.015 -0.409,0.085 -0.05,0.161 -0.236,0.166 -0.379,0.167 -0.11,0.016 -0.196,0.125 -0.316,0.082 -0.114,0.006 -0.278,-0.04 -0.286,0.117 -0.079,0.124 -0.238,0.083 -0.362,0.09 h -0.16 l 0.47,-0.2 c 0.063,-0.09 0.123,-0.198 0.254,-0.148 0.102,0.008 0.215,0.018 0.224,-0.113 0.104,-0.105 0.288,0.069 0.393,-0.051 0.013,-0.163 0.15,-0.306 0.326,-0.252 0.144,0.014 0.31,0.026 0.385,-0.124 0.125,-0.061 0.289,0.032 0.399,-0.067 0.069,-0.121 0.167,-0.233 0.318,-0.229 0.207,-0.009 0.418,-0.004 0.621,-0.055 0.071,-0.04 0.164,-0.087 0.186,-0.171 z" /><path
               id="use63"
               d="m 40.564814,32.865 a 0.93,0.93 0 0 1 0.49,0.136 c -0.19,0.001 -0.42,-0.006 -0.546,0.164 -0.127,0.144 -0.338,0.081 -0.497,0.157 -0.101,0.138 -0.285,0.073 -0.428,0.08 -0.148,-0.011 -0.179,0.141 -0.251,0.231 -0.09,0.098 -0.232,0.121 -0.359,0.109 -0.139,0.09 -0.272,0.247 -0.456,0.212 -0.169,-0.055 -0.338,0.034 -0.461,0.144 -0.08,0.064 -0.203,0.014 -0.299,0.051 -0.065,10e-4 -0.183,0.071 -0.193,0.07 0.064,-0.163 0.254,-0.173 0.385,-0.218 0.104,-0.105 0.207,-0.268 0.378,-0.241 0.152,0.035 0.357,0.048 0.452,-0.102 0.055,-0.099 0.211,-0.05 0.303,-0.114 0.135,-0.038 0.136,-0.2 0.228,-0.272 0.168,-0.098 0.388,0.03 0.546,-0.094 0.047,-0.149 0.198,-0.155 0.334,-0.146 0.121,0.017 0.242,-0.052 0.269,-0.168 0.031,-0.016 0.075,-0.027 0.104,0 z" /><path
               id="use65"
               d="m 40.318814,31.76 c 0.106,-0.006 0.203,0.042 0.301,0.073 -0.131,0.012 -0.297,0.039 -0.35,0.178 -0.127,0.07 -0.304,-0.045 -0.41,0.079 -0.106,0.124 -0.277,0.101 -0.419,0.093 -0.124,0.016 -0.177,0.197 -0.316,0.166 -0.131,-0.029 -0.21,0.103 -0.291,0.18 -0.113,0.096 -0.272,0.107 -0.413,0.124 -0.123,0.017 -0.263,-0.018 -0.358,0.083 -0.133,0.104 -0.3,0.186 -0.472,0.171 -0.117,-0.017 0.096,-0.039 0.133,-0.077 a 0.44,0.44 0 0 0 0.211,-0.214 c 0.112,-0.134 0.304,-0.082 0.455,-0.086 a 0.42,0.42 0 0 0 0.398,-0.224 c 0.024,-0.128 0.162,-0.131 0.267,-0.121 0.167,0.027 0.189,-0.184 0.328,-0.221 0.115,-0.062 0.256,0.035 0.361,-0.058 0.09,-0.123 0.247,-0.068 0.378,-0.091 0.08,0.028 0.145,-0.121 0.198,-0.055 z" /></g></g><path
           d="m 17.821,48.681 c 1.301,-0.489 2.436,0.143 2.868,0.782 l 1.529,2.033 0.504,-0.574 c -0.584,-0.854 -1.06,-1.351 -1.582,-1.999 -0.105,-0.756 -0.006,-1.42 0.695,-1.808 0.702,-0.282 0.792,-0.602 1.164,-0.904 0.569,-0.595 0.086,-1.487 -0.539,-1.303 0.357,-1.688 -1.771,-1.852 -1.947,-0.295 -1.276,-0.199 -1.212,1.109 -0.869,1.321 l 0.73,1.025 c 0.318,0.358 0.432,0.905 0.217,1.495 -0.968,-1.483 -1.351,-2.658 -1.799,-3.702 0.175,-0.76 0.486,-1.426 0.982,-2.094 0.567,-0.027 1.138,-0.048 1.434,-0.391 0.603,-0.591 0.282,-1.514 -0.291,-1.606 0.02,-1.596 -1.879,-1.627 -2.073,-0.392 -0.502,-0.083 -1.448,0.056 -0.782,1.438 0.237,0.607 1.034,0.845 0.742,1.48 l -0.431,1.039 c -0.71,-1.206 -0.654,-2.592 -0.671,-3.441 0.154,-0.93 0.966,-1.725 1.455,-1.925 2.365,0.423 1.914,-1.279 1.529,-1.303 1.052,-1.229 -0.846,-2.176 -1.46,-1.095 -0.835,-0.509 -1.741,0.317 -1.251,1.373 0.293,0.587 0.215,1.219 -0.191,1.817 -0.176,0.225 -0.323,0.13 -0.349,-0.115 -0.064,-0.839 -0.144,-1.498 -0.028,-2.59 0.199,-0.804 1.096,-1.288 1.437,-1.394 1.087,0.098 1.8,0.177 2.033,-0.236 0.233,-0.413 0.161,-0.746 -0.103,-1.024 0.707,-0.522 -0.195,-2.287 -1.456,-1.212 -0.545,-0.498 -1.588,0.095 -1.134,1.173 0.135,0.194 0.309,0.842 -0.087,1.112 l -0.472,0.524 c -0.112,0.193 -0.281,0.08 -0.219,-0.046 0.173,-0.943 0.265,-1.936 0.552,-2.807 0.592,-1.031 1.482,-1.089 1.825,-1.164 0.598,-0.103 0.841,0.418 1.355,0.435 0.639,0.02 1.229,-0.503 0.945,-1.517 0.758,-0.231 0.427,-2.23 -1.063,-1.455 -0.348,-0.907 -1.879,-0.419 -1.637,1.46 -0.094,0.338 -0.058,0.634 -0.644,1.06 -0.373,0.354 -0.452,0.202 -0.402,-0.058 0.238,-1.88 0.851,-2.657 1.516,-2.948 0.574,-0.301 1.387,-0.653 1.799,-0.382 0.344,0.36 0.954,0.791 1.634,0.356 0.63,-0.485 0.363,-0.647 0.478,-0.947 0.93,-0.61 0.686,-1.867 -0.487,-1.703 -0.134,-0.687 -1.794,-1.119 -1.999,0.747 -0.147,0.497 -0.598,1.304 -1.373,1.321 0.596,-1.815 1.566,-2.799 2.503,-3.076 1.77,-0.657 2.366,0.574 3.005,0.781 0.82,0.161 1.128,-0.523 1.053,-0.933 1.493,-0.098 0.915,-2.068 -0.249,-1.729 -0.665,-1.019 -1.217,-0.587 -1.721,0.042 -0.408,0.51 -0.74,1.144 -1.43,1.289 -0.444,0.161 -0.771,-0.047 -0.381,-0.384 1.214,-1.479 1.695,-1.464 2.356,-1.768 l 1.732,0.075 c 0.75,0.061 1.054,1.613 1.881,1.723 0.451,0.06 1.118,-0.275 1.079,-0.805 0.784,-0.051 1.118,-1.574 -0.034,-1.657 0.143,-0.753 -1.169,-1.848 -1.992,-0.166 -0.574,0.604 -1.43,0.363 -2.201,0.377 1.04,-0.593 1.911,-1.373 3.138,-1.758 1.611,-0.471 0.914,1.009 2.074,0.981 0.716,0 0.981,-0.399 0.994,-1.036 1.127,-0.505 0.733,-2.096 -0.493,-1.937 -0.288,-0.75 -1.951,-1.131 -2,0.565 -0.185,1.171 -2.474,1.628 -3.81,2.409 0.337,-0.336 0.395,-0.851 1.027,-0.997 2.218,0.106 1.774,-1.915 0.987,-2.098 0.468,-0.896 -0.792,-2.281 -1.824,-0.691 -1.484,-0.338 -1.738,0.692 -1.498,1.425 0.178,0.545 0.606,0.552 0.757,0.948 0.246,0.865 -0.016,1.182 -0.039,1.758 -0.978,0.751 -1.869,1.634 -2.716,2.581 -0.026,-0.606 0.289,-1.423 1.831,-2.519 0.533,-0.355 0.462,-1.502 -0.442,-1.536 0.328,-0.802 -1.103,-1.825 -1.831,-0.295 -0.908,-0.44 -1.818,1.245 -0.774,1.893 0.324,0.428 0.843,0.549 0.959,1.303 0.252,1.834 -0.825,2.398 -2.36,4.228 -0.192,-1.345 0.444,-1.72 1.04,-2.143 1.097,-0.938 0.462,-1.86 -0.286,-1.746 -0.01,-1.211 -1.748,-1.532 -2.021,0.162 -0.685,-0.167 -1.246,0.596 -0.7,1.416 0.463,0.44 0.854,0.411 1.131,0.983 0.082,0.931 0.564,1.729 0.21,2.805 -0.387,0.874 -0.707,1.403 -0.867,2.368 -0.119,0.578 -0.203,0.161 -0.271,-0.073 -0.176,-0.606 -0.008,-1.368 0.585,-2.053 0.959,-1.024 -0.239,-2.389 -0.762,-1.794 -0.198,-0.768 -2.084,-1.171 -2.028,0.725 -0.586,0.045 -0.993,0.817 -0.295,1.524 0.352,0.644 1.505,-0.164 2.274,2.568 0.168,0.791 -0.323,2.424 -0.516,3.576 l -0.47,-1.037 c -0.043,-0.162 -0.23,-0.56 0.13,-0.944 0.3,-0.388 0.428,-0.837 0.471,-1.108 0.135,-0.833 -0.638,-1.597 -1.665,-1.136 -0.772,-0.714 -2.253,-0.502 -1.557,1.091 -1.195,1.184 -0.256,2.347 1.247,2.15 0.289,-0.038 0.682,0.052 0.863,0.282 0.337,0.43 0.638,0.953 0.834,1.55 l 0.09,3.338 c -0.623,-0.431 -0.955,-0.9 -1.024,-1.053 0.175,-0.592 0.331,-1.189 0.278,-1.849 -0.161,-0.552 -0.861,-1.206 -1.694,-0.339 -0.936,-0.879 -2.322,0.23 -1.334,1.443 -0.701,0.397 -0.181,2.045 1.004,1.544 0.473,-0.179 0.953,-0.501 1.473,-0.213 0.52,0.288 0.838,0.725 1.207,1.084 l 0.878,3.759 c 0.043,0.241 -0.139,0.142 -0.22,0.063 -0.448,-0.591 -0.738,-1.026 -0.67,-1.992 0.341,-1.068 -1.475,-2.275 -2.013,-0.698 -1.126,-0.466 -1.854,0.832 -0.936,1.781 -0.68,0.405 -0.077,2.643 2.046,1.21 1.365,-0.246 1.87,0.309 2.194,0.842 l 1.445,2.5 c 0.169,0.347 -0.118,0.387 -0.327,0.182 -0.417,-0.379 -0.87,-0.789 -0.917,-1.331 0.051,-0.637 -0.17,-1.181 -0.816,-1.486 -0.526,-0.249 -1.07,0.096 -1.23,0.517 -1.593,-0.203 -1.923,1.255 -0.978,2.162 -0.345,0.522 0.233,2.418 2.533,0.813 z"
           opacity="0.995"
           fill="#8da03c"
           class="E"
           id="path71"
           style="fill-rule:evenodd" /><path
           d="m 20.324,30.336 c 0.151,-0.016 0.418,-0.119 0.135,0.19 -0.907,0.305 -0.038,1.261 0.449,0.522 0.198,-0.264 0.184,0.024 0.061,0.086 -0.322,0.233 -0.146,0.661 0.204,0.771 0.433,0.136 1.145,-0.423 0.583,-1.25 0.938,-0.35 0.3,-1.781 -0.724,-0.998 -0.89,-1.497 -2.157,0.993 -0.708,0.678 z m 1.843,-3.458 c 0.168,-0.006 0.648,0.01 0.07,0.269 -0.829,-0.057 -0.374,1.015 0.174,0.591 0.077,-0.111 0.342,-0.03 0.07,0.174 -0.84,0.902 1.607,1.306 0.878,-0.278 0.73,-0.023 1.275,-1.372 -0.288,-1.157 -0.596,-1.43 -2.163,0.278 -0.903,0.401 z m 2.989,-2.981 c 0.361,-0.068 0.337,0.194 0.052,0.269 -0.709,0.074 -0.608,0.918 0.139,0.591 0.067,10e-4 0.46,-0.165 0.043,0.13 -1.239,0.359 0.739,1.566 0.904,-0.104 1.497,-0.296 0.722,-1.35 -0.13,-1.086 -0.621,-1.564 -2.252,0.113 -1.008,0.2 z m 3.293,-2.062 c 0.179,0.032 0.223,0.267 -0.026,0.237 -0.771,-0.21 -0.764,0.69 -0.13,0.704 0.085,0.002 0.264,0.152 0.026,0.2 -1.015,0.158 0.877,1.62 1.008,0.452 -0.031,-0.278 0.14,-0.184 0.243,-0.235 0.669,0.035 0.732,-1.224 -0.096,-1.191 -0.209,-1.766 -2.108,-0.423 -1.026,-0.168 z m 1.547,-2.778 c -0.974,0.592 -0.267,1.151 0.295,0.895 0.297,-0.134 0.189,0.153 0.104,0.182 -0.737,0.724 1.222,1.469 1.025,-0.365 1.279,-0.472 0.206,-1.501 -0.397,-1.133 -0.777,-1.613 -2.14,-0.072 -1.02,0.282 0.043,0.022 0.135,0.064 -0.009,0.139 z M 18.967,34.181 c -0.36,0.331 -0.657,-0.036 -0.683,-0.361 -0.132,-0.332 0.327,-0.982 0.879,-0.498 0.206,0.304 0.329,0.113 0.455,-0.061 0.402,-0.701 1.612,0.026 0.995,0.83 -0.104,0.079 -0.222,0.17 0.025,0.313 0.805,1.097 -1.282,1.551 -0.817,0.326 0.117,-0.238 -0.068,-0.34 -0.147,-0.068 -0.186,0.796 -1.188,0.075 -0.565,-0.43 0.181,-0.151 0.038,-0.281 -0.14,-0.051 z m 0.079,2.392 c 0.315,0.217 0.361,-0.017 0.418,-0.068 0.66,-0.905 1.868,0.424 1.014,0.971 -0.103,0.034 -0.385,0.091 -0.038,0.276 0.977,0.691 -0.957,1.488 -0.792,0.393 0.052,-0.263 -0.249,-0.318 -0.227,-0.055 -0.155,0.864 -1.358,0.124 -0.639,-0.449 0.068,-0.103 0.06,-0.151 -0.086,-0.098 -0.371,0.45 -0.744,-0.091 -0.586,-0.568 0.136,-0.41 0.609,-0.653 0.936,-0.403 z M 18.88,40.53 c 0.272,0.18 0.268,-0.106 0.258,-0.111 0.01,-1.172 1.724,-0.83 1.321,0.283 -0.122,0.103 -0.037,0.204 0.147,0.141 0.739,-0.003 0.848,0.63 0.616,1.033 -0.26,0.45 -0.92,0.645 -1.077,-0.007 -0.04,-0.338 -0.38,-0.219 -0.215,0.08 0.021,1.076 -1.434,0.532 -0.922,-0.412 0.159,-0.215 -0.021,-0.345 -0.091,-0.133 -0.107,0.552 -0.552,0.451 -0.728,0.107 -0.247,-0.484 0.001,-1.292 0.69,-0.982 z m 1.702,5.309 c 0.167,-0.193 0.227,0.073 0.197,0.117 -0.053,0.861 0.865,0.641 0.873,0.129 0,-0.214 0.167,-0.124 0.154,0 0.439,1.331 1.857,-0.849 0.381,-0.959 -0.072,0.029 -0.217,-0.073 -0.098,-0.227 0.391,-1.101 -1.231,-1.302 -1.226,-0.227 -0.008,0.061 0.023,0.2 -0.132,0.178 -1.516,0.076 -0.758,1.672 -0.147,0.989 z m 5.259,-28.068 c -1.165,-0.56 -2.011,0.673 -1.206,1.302 0.354,0.352 0.61,-0.106 0.721,-0.183 0.183,-0.309 0.304,-0.011 0.186,0.14 -0.289,0.412 0.496,0.896 0.774,0.299 0.118,-0.189 0.178,-0.187 0.163,0.061 0.423,1.283 1.978,-0.559 0.679,-1.018 0.482,-1.264 -1.102,-1.497 -1.317,-0.601 z m -4.03,2.291 c -0.688,-0.416 -1.479,1.078 -0.621,1.444 0.393,0.231 0.357,-0.224 0.442,-0.326 0.103,-0.337 0.273,-0.093 0.197,0.08 -0.315,0.715 0.842,0.988 0.885,0.111 0.069,-0.208 0.124,-0.222 0.16,0.012 0.642,1.078 1.683,-1.056 0.412,-1.131 0.162,-0.894 -0.961,-1.375 -1.475,-0.19 z m -3.242,3.6 c -0.231,-1.189 1.431,-1.425 1.356,-0.148 1.217,-0.413 0.978,1.838 0.078,1.121 -0.057,-0.162 -0.33,-0.112 -0.252,0.113 -0.001,0.513 -0.828,0.792 -0.921,0.122 -0.048,-0.035 -0.03,-0.197 -0.182,-0.035 -0.69,0.614 -1.669,-0.875 -0.078,-1.173 z m -1.407,3.59 c 0.087,0.173 0.041,0.262 0.295,0.132 1.529,-0.472 0.74,2.134 0.067,1.305 -0.147,-0.273 -0.37,-0.062 -0.129,0.162 0.28,0.883 -1.009,0.957 -1.004,0.321 0.014,-0.37 -0.233,-0.377 -0.142,0.034 -0.849,0.944 -1.761,-1.067 -0.407,-1.153 0.116,-0.011 0.3,-0.04 0.162,-0.23 -0.53,-0.553 0.596,-1.625 1.158,-0.571 z m -2.936,5.184 c 0.17,0.15 0.177,0.201 -0.072,0.333 -1.363,0.821 0.503,2.284 0.82,0.932 0.076,-0.376 0.155,-0.127 0.257,-0.048 0.462,0.62 1.241,-0.223 0.732,-0.555 -0.207,-0.122 -0.098,-0.275 0.184,-0.233 1.373,-0.258 0.2,-1.938 -0.554,-1.07 -0.073,0.088 -0.196,0.229 -0.282,0.009 -0.542,-1.124 -1.952,-0.188 -1.085,0.631 z m -0.82,5.163 c 0.196,0.095 0.244,0.225 0.031,0.418 -1.085,0.985 0.872,1.902 0.909,0.541 -0.005,-0.376 0.167,-0.132 0.283,-0.086 0.726,0.525 1.187,-0.536 0.59,-0.725 -0.225,-0.058 -0.152,-0.233 0.129,-0.27 1.189,-0.491 -0.169,-1.684 -0.639,-0.78 -0.052,0.103 -0.141,0.271 -0.27,0.086 -0.593,-0.922 -1.857,0.114 -1.032,0.817 z m 0.899,5.458 c -1.007,-0.05 -0.512,-2.121 0.79,-0.996 0.394,-2.156 2.684,0.396 0.688,0.489 -0.194,0.026 -0.251,0.171 -0.006,0.202 0.876,0.061 0.577,1.172 -0.149,0.869 -0.129,-0.132 -0.341,-0.116 -0.28,0.06 0.945,0.809 -2.214,1.587 -1.043,-0.623 z m 1.621,4.57 c -1.005,0.078 -1.108,-2.108 0.528,-1.469 0.389,-1.628 2.337,0.218 0.744,0.584 -0.189,0.051 -0.235,0.24 0.012,0.24 0.947,0.014 0.759,1.339 -0.16,0.995 -0.145,-0.114 -0.286,-0.086 -0.203,0.08 0.475,1.02 -1.876,1.192 -0.922,-0.43 z"
           fill="#f2f2f2"
           class="D"
           id="path73"
           style="opacity:0.997" /><path
           d="m 42.031,16.945 c 0.048,0.643 0.538,0.819 0.669,1.547 0.218,0.998 0.639,1.007 1.008,1.269 0.097,0.216 -0.071,0.371 -0.261,0.218 -1.979,-2.034 -3.218,-1.446 -3.925,-1.19 -0.207,0.075 -0.278,0.299 -0.111,0.326 0.741,0.018 0.698,0.177 0.908,0.291 0.601,0.72 1.234,0.255 1.851,0.382 0.47,0.096 0.813,0.212 0.869,0.399 -0.073,0.02 -0.156,0.094 -0.239,0.061 -1.127,-0.649 -1.628,-0.008 -2.86,0.119 2.147,1.11 3.259,-0.11 3.776,-0.059 l 0.625,0.345 c 0.053,0.126 0.091,0.238 -0.041,0.307 -0.076,0.039 -0.276,0.08 -0.344,0.029 -0.895,-0.672 -2.096,0.2 -3.245,0.353 1.145,0.47 2.374,0.589 3.841,-0.278 0.076,-0.101 0.212,-0.095 0.361,-0.065 l 0.725,0.491 c -0.044,0.112 -0.046,0.254 -0.443,0.112 -0.331,-0.069 -0.775,-0.186 -1.191,-0.043 -0.957,0.467 -1.293,0.503 -1.798,0.609 1.985,0.948 3.022,0.217 3.476,-0.209 0.147,-0.193 0.324,-0.139 0.505,-0.061 h 0.001 l 0.785,0.643 c 0.011,0.207 -0.226,0.288 -0.507,0.077 -0.376,-0.282 -1.007,-0.232 -1.532,0.001 -0.738,0.42 -0.732,0.367 -1.395,0.547 1.51,0.787 2.934,0.381 3.324,0.092 0.231,-0.204 0.445,-0.275 0.645,-0.237 0.232,0.166 0.49,0.325 0.585,0.567 -0.181,0.024 -0.469,-0.171 -0.908,-0.16 -1.144,0.119 -1.541,0.678 -2.616,0.626 0.995,0.423 2.386,0.873 3.502,0.052 0.152,-0.198 0.242,-0.207 0.327,-0.204 0.327,0.237 0.507,0.48 0.667,0.731 -0.081,0.03 -0.178,0.039 -0.325,-0.022 -0.31,-0.084 -0.601,-0.2 -1.112,0.052 -1.217,0.284 -1.559,0.043 -2.259,0.017 0.901,0.794 1.948,1.18 3.519,0.322 0.226,-0.079 0.359,-0.073 0.46,-0.037 0.484,0.249 0.564,0.591 0.73,0.922 -0.08,0.098 -0.246,-0.026 -0.431,-0.213 -0.33,-0.184 -0.855,-0.416 -1.461,-0.098 -0.735,0.152 -1.187,0.125 -1.769,0.002 0.981,0.609 1.471,1.264 3.053,1.027 0.365,-0.044 0.621,-0.314 0.938,-0.268 a 1.06,1.06 0 0 1 0.486,0.714 c -0.076,0.072 -0.159,0.121 -0.311,-0.068 -0.3,-0.214 -0.668,-0.351 -1.312,-0.174 -0.808,0.091 -1.375,-0.164 -1.933,-0.282 0.881,0.69 1.224,1.192 2.819,1.246 0.436,0.026 0.816,-0.233 1.209,0.035 l 0.418,0.725 c -0.011,0.322 -0.179,0.398 -0.501,-0.098 -0.215,-0.269 -0.492,-0.431 -0.959,-0.421 -0.467,0.01 -1.5,-0.261 -1.953,-0.299 -0.299,0.593 2.332,1.907 3.141,1.649 0.468,-0.199 0.65,0.024 0.81,0.23 l 0.202,0.425 c -0.028,0.324 -0.234,0.196 -0.594,0.005 -0.187,-0.29 -0.446,-0.478 -0.912,-0.515 -0.466,-0.037 -1.465,-0.411 -1.912,-0.495 -0.357,0.56 2.47,2.028 3.056,1.776 0.639,-0.336 0.627,0.071 0.806,0.283 l 0.217,0.588 c -0.093,0.102 -0.269,-0.029 -0.534,-0.205 -0.158,-0.307 -0.454,-0.481 -1.059,-0.507 -0.605,-0.026 -1.427,-0.743 -1.863,-0.87 -0.192,0.653 1.903,2.401 3.06,2.264 0.404,-0.041 0.54,0.052 0.68,0.177 l 0.213,0.758 c -0.117,0.186 -0.343,0.062 -0.55,-0.229 -0.14,-0.317 -0.342,-0.514 -0.959,-0.582 -0.617,-0.068 -1.407,-0.842 -1.845,-0.999 0.456,1.327 2.022,2.862 2.972,2.473 a 0.64,0.64 0 0 1 0.57,0.134 l 0.161,0.845 c -0.034,0.056 -0.163,0.322 -0.451,-0.095 -0.265,-0.527 -0.264,-0.56 -0.781,-0.636 -0.848,-0.168 -1.406,-0.832 -2.031,-1.204 0.498,1.355 1.785,2.879 2.848,2.679 0.381,-0.179 0.469,0.058 0.559,0.307 l 0.062,0.664 c -0.152,0.304 -0.409,0.385 -0.552,-0.258 -0.061,-0.341 -0.27,-0.463 -0.853,-0.676 -0.583,-0.213 -1.277,-1.065 -1.664,-1.322 0.127,1.398 1.41,2.925 2.425,2.773 0.399,0.027 0.542,0.317 0.69,0.568 l -0.011,0.895 c -0.191,0.273 -0.367,0.317 -0.423,-0.337 -0.132,-0.563 -0.118,-0.518 -0.478,-0.791 -0.785,-0.324 -1.34,-0.946 -1.86,-1.425 0.162,1.411 1.046,2.96 2.128,2.968 0.444,0.095 0.441,0.442 0.554,0.723 l -0.09,0.731 -0.056,0.011 c -0.669,0.302 -0.163,-0.834 -0.758,-1.081 -0.656,-0.349 -1.196,-1.398 -1.554,-1.624 -0.094,1.574 0.834,3.087 1.932,3.074 0.197,0.046 0.308,0.075 0.311,0.341 l 0.003,0.001 -0.229,1.033 -0.009,0.001 c -0.689,0.263 -0.085,-0.839 -0.65,-1.118 -0.616,-0.384 -1.054,-1.46 -1.387,-1.705 -0.238,1.562 0.067,2.598 1.492,3.222 0.08,0.039 0.324,-0.165 0.393,0.184 l -0.376,1.137 c -0.7,0.228 0.03,-0.891 -0.52,-1.198 -0.778,-0.317 -1.166,-1.943 -1.45,-1.898 -0.152,1.228 0.086,2.724 1.478,3.418 0.085,0.046 0.195,0.283 0.121,0.594 l -0.205,0.457 c -0.408,0.036 -0.025,-0.81 -0.536,-1.177 -0.691,-0.345 -0.988,-2.103 -1.275,-2.09 -0.191,1.043 -0.293,2.917 1.271,3.643 0.079,0.056 0.232,0.165 0.124,0.464 l -0.347,0.629 c -0.542,0.428 0.098,-0.856 -0.384,-1.272 -0.669,-0.416 -0.876,-1.991 -1.172,-2.013 0.037,1.322 -0.563,2.814 1.034,3.558 0.075,0.063 0.218,0.186 0.076,0.46 l -0.369,0.56 c -0.331,-0.168 0.115,-0.722 -0.334,-1.151 -0.636,-0.435 -0.722,-2.014 -1.016,-2.045 -0.065,1.32 -0.779,2.792 0.76,3.582 0.07,0.065 0.171,0.153 0.012,0.418 l -0.399,0.514 -0.005,-0.004 c -0.311,-0.207 0.131,-0.689 -0.08,-1.088 -0.602,-0.103 -0.728,-2.025 -1.015,-2.092 -0.119,0.531 -1.178,2.573 0.452,3.615 0.061,0.074 0.141,0.165 -0.061,0.415 l -0.477,0.525 0.51,0.461 0.458,-0.573 0.002,0.001 c 0.243,-0.211 0.49,-0.137 0.733,0.057 1.184,0.932 2.908,-0.388 3.424,-1.13 -1.437,0.275 -1.712,0.142 -1.964,0 -0.391,-0.261 -1.023,-0.214 -1.408,0.217 l -0.091,-0.065 0.376,-0.532 0.002,10e-4 c 0.215,-0.239 0.533,-0.168 0.799,-0.006 1.291,0.778 2.813,-0.502 3.232,-1.302 -1.392,0.452 -1.314,0.342 -1.581,0.233 -1.437,-0.419 -1.753,0.92 -1.856,0.179 l -0.002,-0.001 0.325,-0.527 0.002,0.001 c 0.196,-0.246 0.541,-0.184 0.819,-0.03 1.348,0.738 2.769,-0.587 3.125,-1.399 -1.354,0.494 -1.285,0.382 -1.56,0.281 -1.467,-0.375 -1.752,1.064 -1.911,0.327 l -10e-4,-10e-4 0.291,-0.549 10e-4,10e-4 c 0.162,-0.274 0.587,-0.252 0.872,-0.128 1.381,0.594 2.603,-0.925 2.857,-1.796 -1.25,0.664 -1.196,0.541 -1.473,0.471 -1.456,-0.21 -1.636,1.106 -1.823,0.569 l -0.002,-10e-4 0.189,-0.422 0.002,10e-4 a 0.84,0.84 0 0 1 0.989,-0.354 c 1.465,0.236 2.617,-1.275 2.511,-2.218 -0.466,0.47 -1.139,0.735 -1.422,0.697 -1.47,-0.043 -1.25,1.482 -1.602,0.687 h -0.003 l 0.311,-0.914 c 0.268,-0.392 0.584,-0.281 0.876,-0.207 1.475,0.163 2.376,-1.168 2.224,-2.105 -0.442,0.492 -0.91,0.644 -1.194,0.619 -1.47,0.03 -1.253,1.481 -1.661,0.835 l 0.24,-1.047 c 0.222,-0.236 0.499,-0.161 0.758,-0.112 1.5,0.079 2.284,-1.302 2.044,-2.229 -0.4,0.517 -0.856,0.694 -1.145,0.686 -1.411,0.109 -1.154,1.42 -1.538,0.996 l 0.125,-0.96 c 0.328,-0.414 0.6,-0.082 1.102,-0.351 1.887,-0.735 1.022,-1.704 1.416,-2.477 -0.56,0.738 -0.719,0.779 -1.334,0.988 -0.398,0.135 -0.715,0.428 -0.821,1.046 -0.096,0.263 -0.2,0.307 -0.307,0.187 l 0.039,-1.391 c 0.289,-0.368 0.589,-0.096 1.053,-0.387 1.839,-0.865 1.099,-1.893 1.181,-2.605 -0.508,0.775 -0.614,0.875 -1.214,1.126 -0.388,0.162 -0.758,0.366 -0.821,0.99 -0.06,0.208 -0.134,0.286 -0.218,0.259 l -0.11,-1.324 c 0.25,-0.482 0.56,-0.2 0.999,-0.522 1.64,-0.924 0.956,-1.827 0.981,-2.481 -0.415,0.742 -0.555,0.755 -1.092,1.028 -0.348,0.177 -0.699,0.5 -0.713,1.072 -0.056,0.263 -0.152,0.302 -0.277,0.187 l -0.175,-0.924 c 0.036,-0.126 0.121,-0.196 0.215,-0.257 1.88,-0.552 1.684,-2.279 1.438,-3.085 -0.263,0.405 -0.452,0.86 -0.897,1.143 -0.591,0.195 -0.762,0.769 -0.676,1.303 -0.034,0.274 -0.126,0.298 -0.249,0.188 l -0.234,-0.83 c 0.301,-0.71 0.637,-0.5 1.121,-0.992 1.129,-1.265 0.531,-1.978 0.332,-2.704 -0.201,0.403 -0.296,0.759 -0.7,1.192 -0.408,0.235 -0.799,0.614 -0.787,1.205 0.001,0.462 -0.109,0.468 -0.3,0.313 l -0.257,-0.656 c 0.14,-0.583 0.698,-0.748 1.098,-1.071 0.406,-0.628 0.594,-1.671 0.148,-2.642 -0.155,0.377 -0.209,0.737 -0.504,1.112 -0.295,0.375 -1.02,0.929 -0.737,1.543 0.073,0.172 -0.068,0.537 -0.26,0.463 L 52.743,29.18 c 0.038,-0.216 0.098,-0.439 0.629,-0.803 1.269,-1.066 0.643,-2.341 0.381,-3.011 -0.352,0.905 -1.478,1.497 -1.057,2.716 0.084,0.194 0.062,0.384 -0.27,0.361 l -0.459,-0.789 c 0.048,-0.492 0.477,-0.785 0.772,-1.148 0.562,-0.759 0.534,-2.071 -0.357,-3.017 -0.051,0.554 0.078,1.12 -0.277,1.583 -0.623,0.803 -0.503,1.185 -0.391,1.573 0.067,0.164 -0.019,0.28 -0.128,0.316 l -0.474,-0.784 a 1.52,1.52 0 0 1 0.171,-0.33 c 0.474,-0.593 1.425,-1.239 -0.258,-3.773 -0.042,0.564 0.026,1.267 -0.135,1.684 -0.227,0.42 -0.528,0.78 -0.147,1.438 0.097,0.122 0.093,0.326 -0.027,0.413 L 50.009,24.72 a 0.86,0.86 0 0 1 0.125,-0.612 c 1.226,-0.873 0.211,-3.087 -0.409,-3.502 0.197,2.433 -0.641,1.672 -0.139,3.232 0.037,0.164 0.088,0.271 -0.059,0.343 l -0.462,-0.476 c -0.064,-0.257 -0.134,-0.522 0.035,-0.979 0.439,-0.532 0.355,-1.17 0.295,-1.338 -0.023,-1.358 -0.635,-1.332 -1.008,-1.781 0.335,0.824 -0.411,2.595 0.113,3.059 0.092,0.167 0.053,0.341 -0.094,0.416 l -0.544,-0.476 c -0.023,-0.188 -0.032,-0.372 0.064,-0.531 0.669,-1.139 -0.313,-3.021 -0.808,-3.398 l -0.165,1.738 c -0.098,0.502 -0.115,1.107 0.487,1.486 -0.009,0.14 -0.031,0.233 -0.058,0.307 L 46.953,21.87 46.63,21.597 c -0.054,-0.221 -0.04,-0.433 0.016,-0.702 0.694,-0.779 -0.631,-2.51 -0.971,-2.917 0.131,0.95 -0.149,2.336 0.303,2.773 0.103,0.094 0.1,0.256 0.029,0.36 l -0.882,-0.616 c 0.041,-0.1 0.104,-0.196 0.176,-0.273 0.885,-0.818 -0.793,-2.491 -1.202,-2.873 0.246,0.927 -0.075,2.489 0.87,2.778 0.096,0.068 0.018,0.147 -0.078,0.221 l -0.674,-0.391 c 0.196,-2.187 -1.322,-2.188 -2.182,-3.008 z"
           fill="#f0c001"
           class="D"
           id="path75"
           style="opacity:0.997" /><g
           id="g927"><path
             d="m 20.018,58.019 c -1.819,0 -2.811,-2.129 -7.011,-1.906 0.572,-1.093 1.454,-1.888 2.886,-2.155 -0.78,-1.608 -2,-2.372 -3.178,-3.215 6.135,-1.083 7.357,1.442 10.987,2.198 -0.522,1.863 -1.295,4.613 -3.684,5.078 z"
             fill="#ffffff"
             class="B C"
             id="path69"
             style="stroke:#000000;stroke-width:0.265" /><g
             class="B C"
             id="g85"
             transform="translate(-13.317,-68.129)"
             style="stroke:#000000;stroke-width:0.265"><path
               d="m 33.18,121.395 5.502,-0.465 c -1.786,1.75 -4.113,5.123 -5.347,5.218 0.85,-0.734 1.273,-1.544 -0.336,-2.712 -0.12,-0.141 -1.331,-1.22 0.181,-2.041 z"
               id="path77" /><path
               d="m 65.47,126.148 c 1.819,0 2.811,-2.129 7.011,-1.906 -0.572,-1.093 -1.454,-1.888 -2.886,-2.155 0.78,-1.608 2,-2.372 3.178,-3.215 -6.135,-1.083 -7.357,1.442 -10.987,2.198 0.522,1.863 1.295,4.613 3.684,5.078 z"
               fill="#ffffff"
               id="path79" /><path
               d="m 65.625,121.395 -5.502,-0.465 c 1.786,1.75 4.113,5.123 5.347,5.218 -0.85,-0.734 -1.273,-1.544 0.336,-2.712 0.12,-0.141 1.331,-1.22 -0.181,-2.041 z"
               id="path81" /><path
               d="m 37.949,117.421 a 1.25,1.25 0 0 0 -0.791,0.306 l -3.978,3.668 c 4.763,5.36 11.539,7.104 16.222,7.104 4.683,0 11.46,-1.744 16.223,-7.104 l -3.978,-3.668 c -0.656,-0.561 -1.543,-0.256 -1.809,0.155 -3.891,3.561 -7.63,3.823 -10.436,3.823 -2.806,0 -6.546,-0.262 -10.436,-3.823 -0.166,-0.257 -0.574,-0.472 -1.018,-0.461 z"
               fill="#ffffff"
               id="path83" /></g><path
             d="m 24.873981,51.127824 -2.236903,2.46638 -0.64162,-0.581951 2.236905,-2.466378 z m 1.865114,1.432787 -1.293668,0.912912 -0.651135,1.790397 -0.718917,-0.532691 0.569371,-1.355015 -0.850338,1.146871 -0.695921,-0.515923 1.982795,-2.675691 0.695923,0.515923 -0.770435,1.038883 1.079396,-0.810024 z m 1.779667,0.991523 -1.626057,2.906231 -0.756021,-0.422992 0.682687,-1.220415 -0.225713,-0.126904 -0.682685,1.220416 -0.756021,-0.422991 1.626058,-2.906232 0.756019,0.422991 -0.581363,1.03965 0.225712,0.126904 0.581362,-1.03965 z m 1.022696,0.422259 -1.025933,2.458536 0.485921,0.202836 -0.256732,0.614636 -1.285143,-0.535989 1.282666,-3.073172 z m 2.12711,0.708656 -0.464008,3.334555 -0.850429,-0.25023 0.127557,-0.585936 -0.298099,-0.08763 -0.218281,0.559658 -0.860396,-0.25315 1.362289,-3.070704 z m -1.044321,1.924296 q 0.09687,-0.560862 0.267717,-1.376944 -0.395332,0.878237 -0.551859,1.293207 z m 3.186058,-0.493299 -0.792946,-0.132186 0.04122,-0.24307 q 0.02875,-0.170345 0.0055,-0.221938 -0.02223,-0.0516 -0.09395,-0.06308 -0.0767,-0.01245 -0.128084,0.04362 -0.0494,0.05606 -0.07045,0.184546 -0.02779,0.164371 0.0037,0.25472 0.02844,0.09037 0.207547,0.241457 0.513292,0.434514 0.625309,0.675593 0.112022,0.242077 0.03056,0.724225 -0.05844,0.350649 -0.169884,0.50362 -0.109464,0.152956 -0.363725,0.227244 -0.254274,0.07229 -0.566078,0.01958 -0.342682,-0.05748 -0.564697,-0.228199 -0.220018,-0.169729 -0.261205,-0.383407 -0.04119,-0.213675 0.02012,-0.582255 l 0.03642,-0.215175 0.792945,0.132188 -0.06707,0.399462 q -0.03065,0.184291 -0.0073,0.242851 0.02525,0.05855 0.110928,0.07291 0.08567,0.01438 0.137025,-0.04567 0.05335,-0.06005 0.07538,-0.191543 0.04886,-0.289888 -0.01549,-0.39296 -0.06635,-0.103058 -0.349648,-0.364922 -0.28332,-0.263853 -0.370623,-0.376729 -0.08731,-0.112874 -0.128271,-0.292719 -0.03897,-0.179857 0.0051,-0.440856 0.06323,-0.377548 0.187588,-0.535577 0.126347,-0.158041 0.357807,-0.219247 0.231446,-0.06318 0.536272,-0.01237 0.332717,0.05556 0.547611,0.202437 0.216886,0.146862 0.264799,0.323677 0.04989,0.174812 -0.01524,0.566304 z m 1.214111,-0.905431 0.863686,-0.0077 q 0.408957,-0.0036 0.619325,0.05868 0.212354,0.06231 0.34397,0.256495 0.131599,0.192194 0.135392,0.624038 0.0029,0.292536 -0.08891,0.407566 -0.0898,0.116012 -0.358057,0.180439 0.300934,0.06472 0.409424,0.222238 0.108477,0.155526 0.111573,0.479905 l 0.003,0.308457 q 0.0032,0.337314 -0.07338,0.500008 -0.07458,0.162682 -0.242344,0.224469 -0.167776,0.06079 -0.690169,0.06518 l -1.001995,0.0086 z m 0.870363,0.562558 0.0069,0.7403 q 0.05572,-0.0024 0.08657,-0.0026 0.127365,-8.59e-4 0.161792,-0.06275 0.03441,-0.06391 0.03151,-0.360424 -9.69e-4,-0.156222 -0.03027,-0.217728 -0.02927,-0.0635 -0.07713,-0.0791 -0.04587,-0.01562 -0.179225,-0.01675 z m 0.01105,1.258712 0.0081,0.931349 q 0.183045,-0.0081 0.231473,-0.05921 0.05141,-0.05207 0.0491,-0.25307 l -0.0021,-0.310452 q -0.0014,-0.213935 -0.04745,-0.258415 -0.04605,-0.04449 -0.23914,-0.04919 z m 1.336229,-1.870459 1.432776,-0.176454 0.08191,0.661202 -0.573709,0.07039 0.0767,0.626407 0.536917,-0.06617 0.0777,0.628391 -0.536918,0.06617 0.08929,0.72683 0.630381,-0.07771 0.08191,0.661203 -1.490444,0.183792 z m 1.636614,-0.200661 0.596125,-0.143174 q 0.596123,-0.14317 0.81701,-0.146591 0.222872,-0.0043 0.401021,0.153631 0.17913,0.156063 0.278337,0.570371 0.09101,0.378539 0.02731,0.530206 -0.0627,0.152653 -0.332763,0.244955 0.264708,0.0022 0.375699,0.08514 0.110998,0.08387 0.15233,0.166189 0.04231,0.08032 0.136403,0.472779 l 0.204551,0.854448 -0.78192,0.187165 -0.257732,-1.076009 q -0.06238,-0.260309 -0.119438,-0.311684 -0.05506,-0.0524 -0.228938,-0.01041 l 0.349778,1.460511 -0.842528,0.201488 z m 0.974477,0.351921 0.172835,0.720317 q 0.142079,-0.03375 0.188511,-0.0858 0.0484,-0.05404 -0.0027,-0.267661 L 40.168845,55.4997 q -0.03681,-0.154001 -0.104709,-0.188388 -0.06591,-0.0354 -0.21195,4e-4 z m 2.495641,-1.388387 1.631112,2.944843 -0.82988,0.310867 -0.250315,-0.545677 -0.290859,0.10836 0.16197,0.579084 -0.83981,0.313915 -0.754576,-3.272927 z m 0.320515,2.166219 q -0.260014,-0.506806 -0.612188,-1.261785 0.211075,0.939985 0.335236,1.366071 z m 2.450567,-3.585245 1.597131,2.922176 -0.664359,0.362534 -1.078517,-1.973238 0.812772,2.118251 -0.470996,0.257791 -1.332968,-1.774561 1.053344,1.927627 -0.664361,0.362534 -1.597131,-2.922178 0.983644,-0.537747 q 0.187633,0.239596 0.431581,0.570377 l 0.510943,0.686286 -0.572668,-1.459069 z m 1.306026,-1.00255 2.391613,2.369734 -0.710037,0.530997 -0.39301,-0.453202 -0.248563,0.185701 0.317752,0.510411 -0.71796,0.53702 -1.641959,-2.929847 z m 0.915425,1.98922 q -0.391755,-0.413409 -0.942114,-1.039733 0.466183,0.842803 0.704445,1.217403 z m 0.153122,-2.938486 1.811761,1.952568 0.385766,-0.357745 0.452942,0.488641 -1.020797,0.946966 -2.264704,-2.441208 z"
             id="path87"
             style="stroke-width:0.995063" /></g></g><image
         width="13.708018"
         height="9.8798027"
         preserveAspectRatio="none"
         xlink:href="../Logo/ASITA-DPC-Pangandaran.png"
         id="image897"
         x="-165.46451"
         y="335.88254" /><g
         id="g2829"
         transform="matrix(1.9284057,0,0,1.9284057,-276.47916,145.54337)"><g
           id="g2714"
           transform="matrix(0.17770697,0,0,0.17770697,61.287514,74.698853)"><path
             id="rect1028"
             style="opacity:1;fill:#0165ff;fill-opacity:1;stroke-width:3.01046;stroke-linecap:round;stroke-linejoin:round"
             d="m 46.54703,140.23767 c -0.07698,0 -0.149492,0.061 -0.162264,0.13694 l -2.363681,14.04928 c -0.01277,0.0759 0.03878,0.13694 0.115755,0.13694 h 4.477763 l 0.615467,-4.64933 1.516703,-1.23197 2.703194,5.8813 h 8.158675 l 0.804086,-2.22002 h 4.768185 l 0.298021,2.22002 h 8.476119 l 1.252121,-8.01915 3.92637,8.01915 h 4.1212 c 0.07698,0 0.148978,-0.061 0.161749,-0.13694 l 2.363682,-14.04928 c 0.01277,-0.0759 -0.03878,-0.13694 -0.115761,-0.13694 h -4.19509 l -1.177188,8.32507 -3.924826,-8.32507 h -4.214213 l -2.314588,12.98629 -2.425691,-12.98629 H 64.73455 l -0.0124,0.0739 -6.530867,12.81678 -3.779615,-7.55147 6.11694,-5.33921 h -4.891691 l -5.325257,4.62711 0.648023,-4.62711 z m 19.63701,3.4923 0.486825,5.77174 -2.714562,-0.0238 z"
             sodipodi:nodetypes="sccscccccccccccsccsccccccccccccccscccc" /><g
             id="g1328"
             transform="translate(0,18.052266)"
             style="fill:#dc2422;fill-opacity:1"><path
               style="opacity:1;fill:#dc2422;fill-opacity:1;stroke-width:3;stroke-linecap:round;stroke-linejoin:round"
               d="m 29.430196,121.32316 v 4.62675 l 5.688643,7.22763 10.111176,-15.50069 -10.111176,11.10583 z"
               id="path1270"
               sodipodi:nodetypes="cccccc" /><rect
               style="opacity:1;fill:#dc2422;fill-opacity:1;stroke-width:3;stroke-linecap:round;stroke-linejoin:round"
               id="rect1324"
               width="12.245441"
               height="2.6449165"
               x="29.579273"
               y="133.86365"
               ry="0" /></g></g><text
           xml:space="preserve"
           style="font-size:0.84283px;line-height:1.2;font-family:'Creato Display';-inkscape-font-specification:'Creato Display';text-align:center;letter-spacing:0px;word-spacing:0px;text-anchor:middle;fill:#1a1a1a;stroke-width:0.0210708"
           x="71.573532"
           y="103.11414"
           id="text2770"><tspan
             sodipodi:role="line"
             id="tspan2768"
             style="font-style:normal;font-variant:normal;font-weight:bold;font-stretch:normal;font-family:'Creato Display';-inkscape-font-specification:'Creato Display Bold';fill:#1a1a1a;stroke-width:0.0210708"
             x="71.573532"
             y="103.11414">Komite Akreditasi Nasional</tspan></text></g></g><rect
       style="fill:#ffffff;stroke-width:0.412948;stroke-linecap:round;stroke-linejoin:round"
       id="rect29588"
       width="216"
       height="279"
       x="-93.212814"
       y="123.3501" /><image
       width="195.86092"
       height="195.86092"
       preserveAspectRatio="none"
       xlink:href="../Logo/Logo_Amanah_B_FullDesc.png"
       id="image29982"
       x="-83.143265"
       y="195.60524"
       style="opacity:0.05" /><image
       width="60.353889"
       height="60.353889"
       preserveAspectRatio="none"
       xlink:href="../Logo/Logo_Amanah_FullDesc_var2.png"
       id="image26353-3"
       x="-15.389759"
       y="146.3269" /><rect
       style="opacity:1;fill:#9ac337;fill-opacity:1;stroke-width:0.17682;stroke-linecap:round;stroke-linejoin:round"
       id="rect29734"
       width="44.390274"
       height="1.1099683"
       x="-7.4079514"
       y="217.12721" /><text
       xml:space="preserve"
       style="font-size:10.5833px;line-height:1.2;font-family:'Creato Display';-inkscape-font-specification:'Creato Display';text-align:center;letter-spacing:0px;word-spacing:0px;text-anchor:middle;white-space:pre;inline-size:263.465;display:inline;stroke-width:0.264583"
       x="-32.353008"
       y="282.24625"
       id="text29810"
       transform="matrix(0.53929763,0,0,0.53929763,32.115501,80.301707)"><tspan
         x="-32.353008"
         y="282.24625"
         id="tspan30267"><tspan
           style="font-family:'Open Sauce One';-inkscape-font-specification:'Open Sauce One'"
           id="tspan30265">Sebuah Program Kemitraan Usha berbagi manfaat,</tspan><tspan
           y="282.24625"
           id="tspan30269"> </tspan></tspan><tspan
         x="-32.353008"
         y="294.99285"
         id="tspan30273"><tspan
           style="font-family:'Open Sauce One';-inkscape-font-specification:'Open Sauce One'"
           id="tspan30271">dengan mengaplikasikan 3 program utama</tspan></tspan></text><rect
       style="fill:#ffffff;stroke-width:0.412948;stroke-linecap:round;stroke-linejoin:round"
       id="rect29980"
       width="216"
       height="279"
       x="186.20641"
       y="123.3501" /></g></svg>
