<?xml version="1.0" encoding="UTF-8" standalone="no"?>
<!-- Created with Inkscape (http://www.inkscape.org/) -->

<svg
   width="210mm"
   height="297mm"
   viewBox="0 0 210 297"
   version="1.1"
   id="svg25457"
   inkscape:version="1.2.2 (b0a8486541, 2022-12-01)"
   sodipodi:docname="sticker_NikahRobiAstin.svg"
   xmlns:inkscape="http://www.inkscape.org/namespaces/inkscape"
   xmlns:sodipodi="http://sodipodi.sourceforge.net/DTD/sodipodi-0.dtd"
   xmlns:xlink="http://www.w3.org/1999/xlink"
   xmlns="http://www.w3.org/2000/svg"
   xmlns:svg="http://www.w3.org/2000/svg">
  <sodipodi:namedview
     id="namedview25459"
     pagecolor="#505050"
     bordercolor="#ffffff"
     borderopacity="1"
     inkscape:showpageshadow="0"
     inkscape:pageopacity="0"
     inkscape:pagecheckerboard="1"
     inkscape:deskcolor="#505050"
     inkscape:document-units="mm"
     showgrid="false"
     inkscape:zoom="0.2102413"
     inkscape:cx="-1236.6742"
     inkscape:cy="1512.5477"
     inkscape:current-layer="layer1" />
  <defs
     id="defs25454">
    <linearGradient
       inkscape:collect="always"
       id="linearGradient26170">
      <stop
         style="stop-color:#483e37;stop-opacity:1;"
         offset="0"
         id="stop26166" />
      <stop
         style="stop-color:#483e37;stop-opacity:0;"
         offset="1"
         id="stop26168" />
    </linearGradient>
    <linearGradient
       inkscape:collect="always"
       id="linearGradient26162">
      <stop
         style="stop-color:#483e37;stop-opacity:1;"
         offset="0"
         id="stop26158" />
      <stop
         style="stop-color:#483e37;stop-opacity:0;"
         offset="1"
         id="stop26160" />
    </linearGradient>
    <linearGradient
       inkscape:collect="always"
       id="linearGradient26131">
      <stop
         style="stop-color:#c8beb7;stop-opacity:1;"
         offset="0"
         id="stop26127" />
      <stop
         style="stop-color:#c8beb7;stop-opacity:0;"
         offset="1"
         id="stop26129" />
    </linearGradient>
    <clipPath
       clipPathUnits="userSpaceOnUse"
       id="clipPath26059">
      <rect
         style="opacity:1;fill:#6c5d53;stroke-width:1.61567;stroke-linecap:round;stroke-linejoin:round"
         id="rect26061"
         width="450"
         height="400"
         x="-563.99786"
         y="191.08133"
         ry="0" />
    </clipPath>
    <linearGradient
       inkscape:collect="always"
       xlink:href="#linearGradient26131"
       id="linearGradient26133"
       x1="-425.24673"
       y1="572.4776"
       x2="-352.00085"
       y2="645.72345"
       gradientUnits="userSpaceOnUse" />
    <linearGradient
       inkscape:collect="always"
       xlink:href="#linearGradient26162"
       id="linearGradient26164"
       x1="-550.42926"
       y1="248.09419"
       x2="-462.87607"
       y2="197.54533"
       gradientUnits="userSpaceOnUse"
       gradientTransform="translate(0,47.446126)" />
    <linearGradient
       inkscape:collect="always"
       xlink:href="#linearGradient26170"
       id="linearGradient26172"
       x1="-342.24771"
       y1="212.92932"
       x2="33.974297"
       y2="313.7377"
       gradientUnits="userSpaceOnUse"
       gradientTransform="translate(0,47.446126)" />
    <linearGradient
       inkscape:collect="always"
       xlink:href="#linearGradient26170"
       id="linearGradient26210"
       gradientUnits="userSpaceOnUse"
       gradientTransform="translate(0,47.446126)"
       x1="-342.24771"
       y1="212.92932"
       x2="33.974297"
       y2="313.7377" />
    <linearGradient
       inkscape:collect="always"
       xlink:href="#linearGradient26162"
       id="linearGradient26212"
       gradientUnits="userSpaceOnUse"
       gradientTransform="translate(0,47.446126)"
       x1="-550.42926"
       y1="248.09419"
       x2="-462.87607"
       y2="197.54533" />
    <clipPath
       clipPathUnits="userSpaceOnUse"
       id="clipPath26628">
      <rect
         style="opacity:1;fill:#6c5d53;stroke-width:1.61567;stroke-linecap:round;stroke-linejoin:round"
         id="rect26630"
         width="450"
         height="400"
         x="-563.99786"
         y="191.08133"
         ry="23.713556" />
    </clipPath>
    <filter
       inkscape:collect="always"
       style="color-interpolation-filters:sRGB"
       id="filter26999"
       x="-0.57807428"
       y="-0.57807428"
       width="2.1561486"
       height="2.1561486">
      <feGaussianBlur
         inkscape:collect="always"
         stdDeviation="90.244079"
         id="feGaussianBlur27001" />
    </filter>
  </defs>
  <g
     inkscape:label="Layer 1"
     inkscape:groupmode="layer"
     id="layer1">
    <text
       xml:space="preserve"
       style="font-size:10.5833px;line-height:0.8;font-family:'Creato Display';-inkscape-font-specification:'Creato Display';text-align:center;letter-spacing:0px;word-spacing:0px;text-anchor:middle;stroke-width:0.264583"
       x="-154.50906"
       y="13.765756"
       id="text25580"><tspan
         sodipodi:role="line"
         id="tspan25578"
         style="stroke-width:0.264583"
         x="-154.50906"
         y="13.765756">Kenang-Kenangan Guru &amp; Staff</tspan><tspan
         sodipodi:role="line"
         style="stroke-width:0.264583"
         x="-154.50906"
         y="22.232395"
         id="tspan25582">SDUIT NUUR ALAA NUUR</tspan><tspan
         sodipodi:role="line"
         style="stroke-width:0.264583"
         x="-154.50906"
         y="30.699036"
         id="tspan25584">ASTIN LLOVE ORBI</tspan><tspan
         sodipodi:role="line"
         style="stroke-width:0.264583"
         x="-154.50906"
         y="39.165676"
         id="tspan25586">teks barab barakallahu laka</tspan></text>
    <text
       xml:space="preserve"
       style="font-style:normal;font-variant:normal;font-weight:normal;font-stretch:normal;font-size:16.5833px;line-height:1.3;font-family:Inter;-inkscape-font-specification:Inter;text-align:center;letter-spacing:0px;word-spacing:0px;text-anchor:middle;fill:#c8beb7;stroke-width:0.414585"
       x="-3.3770976"
       y="396.30334"
       id="text25875"><tspan
         sodipodi:role="line"
         style="font-style:normal;font-variant:normal;font-weight:normal;font-stretch:normal;font-family:Inter;-inkscape-font-specification:Inter;fill:#c8beb7;stroke-width:0.414585"
         x="-3.3770976"
         y="396.30334"
         id="tspan25873">Kenang-Kenangan</tspan></text>
    <g
       id="g27116"
       inkscape:export-filename="sticker_NikahRobiAstin.png"
       inkscape:export-xdpi="160"
       inkscape:export-ydpi="160">
      <rect
         style="opacity:1;fill:#6c5d53;stroke-width:1.61567;stroke-linecap:round;stroke-linejoin:round"
         id="rect25640"
         width="450"
         height="400"
         x="-563.99786"
         y="191.08133"
         ry="0" />
      <g
         id="g26055"
         clip-path="url(#clipPath26059)"
         style="opacity:1">
        <g
           id="g26208"
           transform="rotate(180,-339.91604,413.70203)">
          <path
             style="opacity:0.25;fill:url(#linearGradient26210);fill-opacity:1;stroke-width:1.04792;stroke-linecap:round;stroke-linejoin:round"
             d="m -577.20519,160.36579 c 0,0 114.42615,181.52224 251.01479,144.92347 136.5886,-36.59883 136.04832,75.92458 283.35442,75.92458 147.3061,0 252.51549,-210.06635 181.48203,-308.423388 C 67.61258,-25.566548 -120.5828,-92.793197 -349.96016,1.8493008 -579.33751,96.491827 -577.20519,160.36579 -577.20519,160.36579 Z"
             id="path26204" />
          <path
             style="opacity:0.25;fill:url(#linearGradient26212);fill-opacity:1;stroke-width:1.04792;stroke-linecap:round;stroke-linejoin:round"
             d="m -81.757449,136.38747 c 0,0 -114.426151,181.52225 -251.014791,144.92348 -136.5886,-36.59883 -136.04832,75.92458 -283.35442,75.92458 -147.3061,0 -252.51549,-210.06635 -181.48203,-308.423388 71.03347,-98.357009 259.22885,-165.583652 488.60621,-70.941151 229.377351,94.642526 227.245031,158.516479 227.245031,158.516479 z"
             id="path26206" />
        </g>
        <g
           id="g26202"
           transform="matrix(0.87595516,0,0,0.87595516,-9.9051238,46.705936)">
          <path
             style="opacity:0.25;fill:url(#linearGradient26172);fill-opacity:1;stroke-width:1.04792;stroke-linecap:round;stroke-linejoin:round"
             d="m -577.20519,160.36579 c 0,0 114.42615,181.52224 251.01479,144.92347 136.5886,-36.59883 136.04832,75.92458 283.35442,75.92458 147.3061,0 252.51549,-210.06635 181.48203,-308.423388 C 67.61258,-25.566548 -120.5828,-92.793197 -349.96016,1.8493008 -579.33751,96.491827 -577.20519,160.36579 -577.20519,160.36579 Z"
             id="path26063" />
          <path
             style="opacity:0.25;fill:url(#linearGradient26164);fill-opacity:1;stroke-width:1.04792;stroke-linecap:round;stroke-linejoin:round"
             d="m -81.757449,136.38747 c 0,0 -114.426151,181.52225 -251.014791,144.92348 -136.5886,-36.59883 -136.04832,75.92458 -283.35442,75.92458 -147.3061,0 -252.51549,-210.06635 -181.48203,-308.423388 71.03347,-98.357009 259.22885,-165.583652 488.60621,-70.941151 229.377351,94.642526 227.245031,158.516479 227.245031,158.516479 z"
             id="path26051" />
        </g>
        <g
           id="g26188"
           transform="matrix(0,1,1,0,-390.83429,755.88312)"
           style="opacity:1">
          <path
             style="opacity:1;fill:#c8beb7;stroke-width:0.624001;stroke-linecap:round;stroke-linejoin:round"
             d="m -412.19113,332.13676 c 0,0 68.13722,-108.09086 149.47151,-86.29743 81.33427,21.79347 81.01255,-45.21073 168.72876,-45.21073 87.7162143,0 150.365129,125.08799 108.066911,183.65655 -42.298216,58.56854 -154.362731,98.59992 -290.949821,42.24325 -136.58709,-56.35668 -135.31736,-94.39164 -135.31736,-94.39164 z"
             id="path26184" />
        </g>
        <path
           style="opacity:1;fill:#c8beb7;stroke-width:0.624001;stroke-linecap:round;stroke-linejoin:round"
           d="m -412.19113,648.37231 c 0,0 68.13722,-108.09086 149.47151,-86.29743 81.33427,21.79347 81.01255,-45.21073 168.72876,-45.21073 87.7162143,0 150.365129,125.08799 108.066911,183.65655 -42.298216,58.56854 -154.362731,98.59992 -290.949821,42.24325 -136.58709,-56.35668 -135.31736,-94.39164 -135.31736,-94.39164 z"
           id="path26049" />
        <path
           style="opacity:1;fill:url(#linearGradient26133);stroke-width:0.624001;stroke-linecap:round;stroke-linejoin:round;fill-opacity:1"
           d="m -285.58731,648.37231 c 0,0 -68.13722,-108.09086 -149.47151,-86.29743 -81.33427,21.79347 -81.01255,-45.21073 -168.72876,-45.21073 -87.71622,0 -150.36513,125.08799 -108.06691,183.65655 42.29821,58.56854 154.36273,98.59992 290.94982,42.24325 136.58709,-56.35668 135.31736,-94.39164 135.31736,-94.39164 z"
           id="path26065" />
        <g
           id="g26182"
           transform="matrix(1,0,0,-1,0,478.75204)" />
        <g
           id="g26196"
           transform="rotate(90,-514.97999,240.90313)"
           style="opacity:1" />
      </g>
      <g
         id="g26626"
         clip-path="url(#clipPath26628)"
         transform="matrix(0.91919184,0,0,0.91919184,-27.393793,31.602562)">
        <circle
           style="opacity:0.20401;mix-blend-mode:normal;fill:#ac9d93;stroke-width:0.779741;stroke-linecap:round;stroke-linejoin:round;filter:url(#filter26999)"
           id="circle26634"
           cx="-464.36029"
           cy="595.22888"
           r="187.33388" />
        <circle
           style="opacity:1;fill:#ac8a74;fill-opacity:1;stroke-width:0.942579;stroke-linecap:round;stroke-linejoin:round"
           id="circle27003"
           cx="-585.02795"
           cy="423.02936"
           r="226.45563" />
        <circle
           style="opacity:1;fill:#ac9d93;stroke-width:0.548112;stroke-linecap:round;stroke-linejoin:round"
           id="circle26632"
           cx="-585.02795"
           cy="423.02936"
           r="131.68456" />
        <circle
           style="opacity:1;fill:#1e1a17;fill-opacity:0.0981348;stroke-width:1.91998;stroke-linecap:round;stroke-linejoin:round"
           id="circle27005"
           cx="-216.8891"
           cy="671.08008"
           r="461.27689" />
        <circle
           style="opacity:1;fill:#917c6f;stroke-width:1.91998;stroke-linecap:round;stroke-linejoin:round"
           id="path26621"
           cx="-116.30304"
           cy="601.51685"
           r="461.27689" />
      </g>
      <g
         id="g26299"
         transform="translate(24.797418,30.640792)">
        <text
           xml:space="preserve"
           style="font-style:normal;font-variant:normal;font-weight:normal;font-stretch:normal;font-size:20.9654px;line-height:1.3;font-family:Inter;-inkscape-font-specification:Inter;text-align:center;letter-spacing:0px;word-spacing:0px;text-anchor:middle;fill:#ffffff;stroke-width:0.52414"
           x="-260.66245"
           y="246.00179"
           id="text25867"><tspan
             sodipodi:role="line"
             style="font-style:normal;font-variant:normal;font-weight:normal;font-stretch:normal;font-family:Inter;-inkscape-font-specification:Inter;fill:#ffffff;stroke-width:0.52414"
             x="-260.66245"
             y="246.00179"
             id="tspan25865">Kenang-Kenangan</tspan></text>
        <text
           xml:space="preserve"
           style="font-style:normal;font-variant:normal;font-weight:normal;font-stretch:normal;font-size:15.5925px;line-height:1.3;font-family:Inter;-inkscape-font-specification:Inter;text-align:center;letter-spacing:0px;word-spacing:0px;text-anchor:middle;fill:#ffffff;stroke-width:0.389816"
           x="-294.90494"
           y="269.34598"
           id="text25871"><tspan
             sodipodi:role="line"
             style="font-style:normal;font-variant:normal;font-weight:normal;font-stretch:normal;font-family:Inter;-inkscape-font-specification:Inter;fill:#ffffff;stroke-width:0.389816"
             x="-294.90494"
             y="269.34598"
             id="tspan25869">Guru &amp; Staff SDIT Nuur 'Alaa Nuur</tspan></text>
        <g
           id="g26227"
           transform="matrix(1.1450625,0,0,1.1450625,52.247879,-105.38267)">
          <path
             d="m -381.19841,498.51084 q -7.97385,0 -15.94774,-3.01236 -7.97386,-3.01234 -13.28978,-9.92302 -5.13873,-6.9107 -5.13873,-18.25132 0,-9.39146 3.72115,-16.65654 3.72113,-7.44228 9.92305,-12.93539 6.37908,-5.67033 13.99856,-9.74585 7.6195,-4.25274 15.23897,-7.26509 -1.59478,-4.60713 -2.48075,-8.85986 -0.7088,-4.42993 -0.7088,-8.68267 0,-10.45463 4.96153,-18.42851 4.96151,-7.97388 13.1126,-12.40379 8.32825,-4.60714 18.25131,-4.60714 9.39143,0 14.53016,4.78433 5.31591,4.60713 5.31591,10.27744 0,6.2019 -3.72114,11.69501 -3.54394,5.49311 -9.21424,10.27745 -5.49312,4.60712 -11.69502,8.32827 -6.02472,3.72114 -10.98623,6.37908 2.12635,5.49312 5.13871,11.51782 3.18955,5.84752 6.55631,11.87224 2.12635,3.72113 4.25272,7.44226 2.12637,3.72115 4.25273,7.2651 2.65797,-4.07555 5.84752,-9.39146 6.9107,-11.51782 14.35298,-18.60572 7.44226,-7.08788 18.07411,-7.08788 6.91069,0 10.45463,2.48076 3.54395,2.30357 4.60714,5.49312 1.24036,3.01235 1.24036,5.31592 0,3.89834 -2.48075,7.44228 -2.30356,3.54394 -7.26508,3.54394 -3.36675,0 -5.31591,-2.48076 -1.94918,-2.48077 -1.94918,-6.3791 0,-4.78433 -0.17721,-7.26508 -0.17718,-2.65796 -3.72113,-2.65796 -5.8475,0 -11.87221,6.55629 -6.02471,6.55631 -12.4038,17.18814 -3.36675,5.67031 -6.3791,10.27742 7.44226,11.16344 16.30212,18.78291 9.03706,7.44228 20.20051,7.44228 5.49311,0 9.56863,-3.18955 4.07554,-3.18954 9.03706,-9.74584 l 3.18955,2.48076 q -8.15107,11.51782 -16.12494,16.12493 -7.97387,4.60714 -17.71972,4.60714 -9.56865,0 -17.36533,-5.49312 -7.61947,-5.67029 -16.30215,-17.71971 -9.92303,12.93539 -19.13729,18.07411 -9.03707,5.13872 -20.73209,5.13872 z m 21.44087,-96.39526 q 0,2.83513 0.7088,6.02469 0.70878,3.18956 1.94916,6.91069 8.50547,-4.07553 15.77055,-9.21424 7.2651,-5.13873 11.69502,-10.98625 4.42994,-5.8475 4.42994,-12.0494 0,-4.07554 -3.18956,-6.73349 -3.18955,-2.65796 -8.15106,-2.65796 -7.08789,0 -12.40382,3.89833 -5.13871,3.72115 -7.97387,10.27744 -2.83516,6.55631 -2.83516,14.53019 z m -39.86936,63.79099 q 0,11.695 5.8475,19.31449 6.0247,7.61948 17.01093,7.61948 9.21427,0 16.65655,-5.13871 7.61947,-5.13873 15.94774,-16.65656 -2.83516,-4.07554 -5.8475,-8.85986 -3.01237,-4.96151 -6.37911,-10.45462 -4.60712,-6.9107 -8.32826,-13.46699 -3.72115,-6.7335 -6.3791,-13.2898 -14.17578,7.61949 -21.44087,17.54252 -7.08788,9.74585 -7.08788,23.39005 z"
             style="font-style:italic;font-size:113.941px;line-height:1.3;font-family:Baskervville;-inkscape-font-specification:'Baskervville Italic';text-align:center;letter-spacing:0px;word-spacing:0px;text-anchor:middle;fill:#483e37;stroke-width:4.42995"
             id="path25885" />
          <g
             id="g25912"
             transform="matrix(0.66241618,0,0,0.66241618,-58.31655,144.35943)">
            <path
               d="m -652.53376,429.09219 0.91153,-2.84853 2.39276,-0.22788 q 3.87399,-0.45576 6.15281,-1.13941 2.27882,-0.68364 3.76005,-2.84852 1.59518,-2.16488 3.19035,-6.9504 l 19.14209,-58.3378 q 0.34182,-1.25335 0.34182,-2.05094 0,-1.82305 -1.82305,-2.73458 -1.82306,-0.91153 -6.49464,-1.36729 l -2.16488,-0.22788 0.91153,-2.84853 16.74933,0.34182 h 1.25335 l 8.77345,-0.11394 q 14.24263,-0.22788 20.96515,4.78553 6.72252,5.0134 6.72252,13.55898 0,7.86192 -3.98794,12.64745 -3.87399,4.67158 -10.59651,6.83646 -6.60858,2.16488 -14.81233,2.16488 h -3.07641 q 8.20375,0.91152 12.76139,5.46916 4.67159,4.4437 5.35523,12.19169 l 0.56971,8.8874 q 0.22788,6.15281 1.48123,9.11528 1.36729,2.84852 5.12734,2.84852 2.39277,0 3.98794,-1.13941 1.59517,-1.13941 2.73458,-2.39276 l 2.16488,1.937 q -2.62064,3.19035 -5.81099,4.4437 -3.19035,1.25335 -6.49464,1.25335 -5.92493,0 -9.91286,-5.0134 -3.874,-5.12735 -4.21582,-14.12869 l -0.11394,-5.81099 q -0.34182,-7.63405 -5.92493,-12.30563 -5.46917,-4.78552 -15.49598,-5.35522 l -10.14075,31.10589 q -0.79759,2.27882 -0.79759,3.76005 0,1.82306 1.59518,2.39276 1.59517,0.56971 5.69705,1.02547 l 2.16488,0.22788 -0.91153,2.84853 -15.60992,-0.34182 z m 46.60187,-78.16353 -11.16622,34.1823 13.3311,0.11394 q 10.48257,0.11394 16.29356,-5.46916 5.92493,-5.69705 5.92493,-14.58445 0,-3.53217 -1.59517,-6.72252 -1.48124,-3.30429 -5.35523,-5.35523 -3.87399,-2.16488 -10.93834,-2.16488 z"
               style="font-style:italic;font-size:113.941px;line-height:1.3;font-family:Baskervville;-inkscape-font-specification:'Baskervville Italic';text-align:center;letter-spacing:0px;word-spacing:0px;text-anchor:middle;fill:#ffffff;stroke-width:2.84854"
               id="path25877" />
            <path
               d="m -545.54321,430.34554 q -6.03887,0 -10.14075,-2.5067 -4.10188,-2.62064 -6.15281,-6.83646 -1.937,-4.32976 -1.937,-9.22922 0,-6.83646 2.5067,-12.98928 2.62064,-6.26675 7.06434,-11.16622 4.55764,-4.89946 10.36863,-7.74798 5.811,-2.84853 12.19169,-2.84853 6.15282,0 10.25469,2.62064 4.10188,2.50671 6.03887,6.60858 2.05094,4.10188 2.05094,9.00134 0,6.83646 -2.62064,13.21716 -2.5067,6.26675 -7.06434,11.28016 -4.4437,4.89946 -10.25469,7.74799 -5.81099,2.84852 -12.30563,2.84852 z m -0.11394,-2.5067 q 4.21582,0 7.86193,-2.39276 3.64611,-2.5067 6.60858,-6.49464 3.0764,-3.98794 5.24128,-8.77346 2.16488,-4.78552 3.30429,-9.4571 1.25335,-4.78552 1.25335,-8.65952 0,-12.53351 -10.02681,-12.53351 -4.21581,0 -7.86193,2.39276 -3.64611,2.39277 -6.72251,6.3807 -2.96247,3.98794 -5.12735,8.77346 -2.16488,4.67158 -3.41823,9.34316 -1.13941,4.67158 -1.13941,8.54557 0,12.87534 10.02681,12.87534 z"
               style="font-style:italic;font-size:113.941px;line-height:1.3;font-family:Baskervville;-inkscape-font-specification:'Baskervville Italic';text-align:center;letter-spacing:0px;word-spacing:0px;text-anchor:middle;fill:#ffffff;stroke-width:2.84854"
               id="path25879" />
            <path
               d="m -488.91454,430.34554 q -7.29223,0 -11.28016,-3.41823 -3.87399,-3.53217 -3.87399,-10.48257 0,-2.96247 0.68364,-6.49464 0.79759,-3.53217 2.16488,-7.74799 l 14.12868,-43.98122 q 0.79759,-2.27882 0.79759,-3.874 0,-2.05094 -1.25335,-2.84852 -1.25335,-0.79759 -3.19035,-0.79759 -1.93699,-0.11394 -4.10187,-0.11394 l 0.79758,-2.73459 18.45845,-0.34182 -12.41957,39.19571 q 2.27882,-3.19035 5.0134,-5.12735 2.62064,-2.05094 5.58311,-3.30429 2.96247,-1.25335 6.03887,-1.25335 6.49464,0 10.48257,4.67158 3.98794,4.55764 3.98794,12.87534 0,7.29222 -2.73458,13.78686 -2.62065,6.49463 -7.29223,11.50804 -4.55764,4.89946 -10.25469,7.74799 -5.69705,2.73458 -11.73592,2.73458 z m 0,-2.5067 q 4.4437,0 8.54557,-3.30429 4.21582,-3.30429 7.52011,-8.54558 3.41823,-5.35522 5.35523,-11.50804 1.93699,-6.15281 1.93699,-11.84986 0,-6.60858 -2.27882,-9.4571 -2.27882,-2.96247 -5.92493,-2.96247 -3.07641,0 -6.60858,2.5067 -3.41823,2.39276 -6.49463,6.3807 -2.96247,3.87399 -4.67158,8.43163 l -2.16488,6.03887 q -1.48124,4.4437 -2.16488,8.20376 -0.56971,3.64611 -0.56971,6.60858 0,4.55764 2.05094,7.06434 2.16488,2.39276 5.46917,2.39276 z"
               style="font-style:italic;font-size:113.941px;line-height:1.3;font-family:Baskervville;-inkscape-font-specification:'Baskervville Italic';text-align:center;letter-spacing:0px;word-spacing:0px;text-anchor:middle;fill:#ffffff;stroke-width:2.84854"
               id="path25881" />
            <path
               d="m -441.74297,430.34554 q -3.53217,0 -5.0134,-1.70911 -1.36729,-1.70912 -1.36729,-4.55764 0,-1.82306 0.45576,-3.874 0.45576,-2.16488 1.25335,-4.32976 l 9.91287,-26.66219 q 0.91153,-2.5067 0.91153,-3.98794 0,-2.05093 -1.25336,-2.84852 -1.25335,-0.79759 -3.30428,-0.91153 -1.937,-0.11394 -4.10188,-0.11394 l 0.79759,-2.73458 18.45844,-0.34183 -14.35657,40.79088 q -0.45576,1.70912 -0.79758,3.07641 -0.34183,1.25335 -0.34183,2.16488 0,2.27882 1.82306,2.27882 2.5067,0 4.89946,-2.62065 2.39276,-2.62064 3.874,-5.12734 l 2.05093,1.36729 q -2.16488,3.53217 -5.58311,6.83646 -3.41823,3.30429 -8.31769,3.30429 z m 15.95174,-64.60455 q -2.73458,0 -4.55764,-1.82305 -1.70911,-1.82306 -1.70911,-4.32976 0,-2.39276 1.70911,-4.21582 1.82306,-1.82306 4.55764,-1.82306 2.39276,0 4.10188,1.82306 1.82305,1.82306 1.82305,4.21582 0,2.5067 -1.82305,4.32976 -1.70912,1.82305 -4.10188,1.82305 z"
               style="font-style:italic;font-size:113.941px;line-height:1.3;font-family:Baskervville;-inkscape-font-specification:'Baskervville Italic';text-align:center;letter-spacing:0px;word-spacing:0px;text-anchor:middle;fill:#ffffff;stroke-width:2.84854"
               id="path25883" />
          </g>
          <g
             id="g25919"
             transform="matrix(0.66241618,0,0,0.66241618,-164.18355,205.18455)">
            <path
               d="m -281.99784,429.09219 0.91153,-2.84853 2.39276,-0.22788 q 5.92493,-0.5697 8.8874,-3.53217 2.96246,-2.96246 5.35522,-6.49464 l 48.31099,-69.73189 2.5067,1.59517 v 67.90884 q 0,3.07641 0.45576,5.24129 0.45577,2.16488 2.16488,3.41823 1.82306,1.13941 5.92493,1.59517 l 2.16488,0.22788 -0.91152,2.84853 -16.52145,-0.34182 -16.52144,0.34182 0.91152,-2.84853 2.39276,-0.22788 q 5.01341,-0.5697 7.74799,-2.39276 2.84853,-1.937 2.84853,-8.08981 v -16.17962 h -26.09249 l -11.62198,16.74933 q -2.50671,3.64611 -2.50671,5.81099 0,3.41823 7.40617,4.10187 l 2.16488,0.22788 -0.91153,2.84853 -13.44504,-0.34182 z m 34.97989,-32.70107 h 24.04155 v -34.86594 z"
               style="font-style:italic;font-size:113.941px;line-height:1.3;font-family:Baskervville;-inkscape-font-specification:'Baskervville Italic';text-align:center;letter-spacing:0px;word-spacing:0px;text-anchor:middle;fill:#ffffff;stroke-width:2.84854"
               id="path25887" />
            <path
               d="m -183.09698,430.34554 q -5.92493,0 -9.34316,-2.05094 -3.41823,-2.05094 -4.89946,-4.89946 -1.48124,-2.84853 -1.48124,-5.24129 0,-2.62064 1.36729,-4.32976 1.48124,-1.82305 4.10188,-1.82305 1.82306,0 2.84853,1.13941 1.13941,1.13941 1.13941,2.84852 0,1.82306 -0.79759,3.19035 -0.79759,1.36729 -0.79759,3.30429 0,2.27882 2.05094,3.874 2.05094,1.48123 5.24129,1.48123 3.53217,0 5.81099,-1.48123 2.39276,-1.59518 3.64611,-3.874 1.25335,-2.39276 1.25335,-4.67158 0,-2.62064 -0.91153,-4.55764 -0.91153,-1.937 -3.41823,-4.78552 l -4.21581,-4.4437 q -2.50671,-2.73459 -3.76006,-6.03887 -1.25335,-3.30429 -1.25335,-6.49464 0,-3.53217 1.70912,-6.83646 1.70911,-3.30429 5.12734,-5.46917 3.41823,-2.16488 8.65952,-2.16488 5.58311,0 8.43163,1.48123 2.84853,1.48124 3.874,3.41823 1.13941,1.937 1.13941,3.53218 0,2.16487 -1.3673,3.76005 -1.36729,1.48123 -3.64611,1.48123 -1.36729,0 -2.73458,-1.02547 -1.25335,-1.02547 -1.25335,-3.19035 0,-1.25335 0,-2.84852 0,-1.70912 -0.91153,-2.84853 -0.91153,-1.25335 -3.64611,-1.25335 -4.21582,0 -6.60858,2.62065 -2.27882,2.62064 -2.27882,5.92493 0,2.27882 0.91153,4.55764 0.91152,2.16488 2.96246,4.4437 l 4.32976,4.55764 q 2.16488,2.16488 4.32976,5.12734 2.16488,2.96247 2.16488,7.86193 0,3.874 -2.27882,7.52011 -2.27882,3.53217 -6.26676,5.92493 -3.98793,2.27882 -9.22922,2.27882 z"
               style="font-style:italic;font-size:113.941px;line-height:1.3;font-family:Baskervville;-inkscape-font-specification:'Baskervville Italic';text-align:center;letter-spacing:0px;word-spacing:0px;text-anchor:middle;fill:#ffffff;stroke-width:2.84854"
               id="path25889" />
            <path
               d="m -145.61029,430.34554 q -3.30428,0 -4.78552,-1.70911 -1.48123,-1.82306 -1.48123,-4.67159 0,-1.59517 0.45576,-3.53217 0.45577,-2.05093 1.25335,-4.21581 l 12.53351,-34.86595 h -7.40616 l 0.91153,-2.73458 h 7.5201 l 3.53217,-9.79893 h 7.63405 l -3.41823,9.79893 h 10.48257 l -0.91152,2.73458 h -10.59652 l -13.33109,38.05629 q -0.91153,2.73459 -0.91153,4.10188 0,3.07641 2.73458,3.07641 2.62064,0 5.01341,-2.39276 2.39276,-2.50671 3.87399,-5.01341 l 2.05094,1.36729 q -2.16488,3.53218 -5.92493,6.72252 -3.64612,3.07641 -9.22923,3.07641 z"
               style="font-style:italic;font-size:113.941px;line-height:1.3;font-family:Baskervville;-inkscape-font-specification:'Baskervville Italic';text-align:center;letter-spacing:0px;word-spacing:0px;text-anchor:middle;fill:#ffffff;stroke-width:2.84854"
               id="path25891" />
            <path
               d="m -110.74427,430.34554 q -3.53217,0 -5.0134,-1.70911 -1.36729,-1.70912 -1.36729,-4.55764 0,-1.82306 0.45576,-3.874 0.45577,-2.16488 1.25335,-4.32976 l 9.91287,-26.66219 q 0.91153,-2.5067 0.91153,-3.98794 0,-2.05093 -1.25335,-2.84852 -1.25335,-0.79759 -3.30429,-0.91153 -1.937,-0.11394 -4.10188,-0.11394 l 0.79759,-2.73458 18.458442,-0.34183 -14.356562,40.79088 q -0.45577,1.70912 -0.79759,3.07641 -0.34182,1.25335 -0.34182,2.16488 0,2.27882 1.82305,2.27882 2.5067,0 4.89946,-2.62065 2.39277,-2.62064 3.873999,-5.12734 l 2.050938,1.36729 q -2.164879,3.53217 -5.583107,6.83646 -3.41823,3.30429 -8.3177,3.30429 z m 15.951745,-64.60455 q -2.734584,0 -4.55764,-1.82305 -1.709115,-1.82306 -1.709115,-4.32976 0,-2.39276 1.709115,-4.21582 1.823056,-1.82306 4.55764,-1.82306 2.392761,0 4.101876,1.82306 1.823056,1.82306 1.823056,4.21582 0,2.5067 -1.823056,4.32976 -1.709115,1.82305 -4.101876,1.82305 z"
               style="font-style:italic;font-size:113.941px;line-height:1.3;font-family:Baskervville;-inkscape-font-specification:'Baskervville Italic';text-align:center;letter-spacing:0px;word-spacing:0px;text-anchor:middle;fill:#ffffff;stroke-width:2.84854"
               id="path25893" />
            <path
               d="m -49.102294,430.34554 q -3.532171,0 -5.013404,-1.70911 -1.367292,-1.70912 -1.367292,-4.4437 0,-1.70912 0.455764,-3.76006 0.455764,-2.05093 1.253351,-4.21581 l 9.912867,-28.02949 q 1.253351,-3.64611 0.341823,-5.92493 -0.911528,-2.39276 -4.215817,-2.39276 -3.076407,0 -6.494637,1.93699 -3.41823,1.82306 -6.608578,4.78553 -3.190348,2.96246 -5.583109,6.38069 -2.392761,3.41823 -3.532171,6.49464 l -10.596514,29.28284 h -8.203752 l 14.128685,-39.19571 q 1.936997,-5.58311 0.341823,-6.83646 -1.595174,-1.36729 -6.950402,-1.36729 l 0.911528,-2.73458 16.749328,-0.34183 -3.646112,12.19169 q 2.506702,-3.53217 5.810991,-6.49464 3.41823,-3.0764 7.406165,-5.0134 4.101876,-1.937 8.773457,-1.937 6.950401,0 9.001339,3.64611 2.050938,3.64612 -0.341823,10.36863 l -10.25469,28.5992 q -0.797587,2.39276 -0.911528,4.67158 0,2.27882 1.936997,2.27882 2.620643,0 4.785522,-2.39276 2.27882,-2.50671 3.760053,-5.01341 l 2.050938,1.36729 q -2.164879,3.53218 -5.583109,6.72252 -3.41823,3.07641 -8.317693,3.07641 z"
               style="font-style:italic;font-size:113.941px;line-height:1.3;font-family:Baskervville;-inkscape-font-specification:'Baskervville Italic';text-align:center;letter-spacing:0px;word-spacing:0px;text-anchor:middle;fill:#ffffff;stroke-width:2.84854"
               id="path25895" />
          </g>
          <path
             style="opacity:1;fill:#c8beb7;stroke-width:0.304054;stroke-linecap:round;stroke-linejoin:round"
             d="m -338.71053,438.46361 c 0,0 -1.80619,-1.44572 -0.52964,-2.50653 3.68399,-3.06136 3.24318,-10.619 2.28725,-16.49298 -1.37897,-8.4735 7.80845,-10.70527 11.4738,-7.21831 3.66535,3.48695 3.66535,6.67523 3.66535,6.67523 0,0 18.15955,-8.88393 20.22462,-1.17697 2.61333,9.75309 -23.94954,27.62469 -37.12138,20.71956 z"
             id="path25984"
             sodipodi:nodetypes="cssscsc" />
        </g>
      </g>
    </g>
  </g>
</svg>
