<?xml version="1.0" encoding="UTF-8" standalone="no"?>
<svg
   width="210mm"
   height="297mm"
   viewBox="0 0 210 297"
   version="1.1"
   id="svg8"
   inkscape:version="1.1 (c68e22c387, 2021-05-23)"
   sodipodi:docname="Logo_TPA_AsSakinah.svg"
   xmlns:inkscape="http://www.inkscape.org/namespaces/inkscape"
   xmlns:sodipodi="http://sodipodi.sourceforge.net/DTD/sodipodi-0.dtd"
   xmlns:xlink="http://www.w3.org/1999/xlink"
   xmlns="http://www.w3.org/2000/svg"
   xmlns:svg="http://www.w3.org/2000/svg"
   xmlns:rdf="http://www.w3.org/1999/02/22-rdf-syntax-ns#"
   xmlns:cc="http://creativecommons.org/ns#"
   xmlns:dc="http://purl.org/dc/elements/1.1/">
  <defs
     id="defs2">
    <clipPath
       clipPathUnits="userSpaceOnUse"
       id="clipPath974">
      <circle
         style="opacity:1;fill:#1a1a1a;fill-opacity:1;stroke:#ffffff;stroke-width:1.08479;stroke-miterlimit:4;stroke-dasharray:none;stroke-opacity:1"
         id="circle976"
         cx="-61.996498"
         cy="129.3618"
         r="32.927948" />
    </clipPath>
    <mask
       maskUnits="userSpaceOnUse"
       id="mask11233">
      <g
         id="g11315"
         transform="translate(-155.01633)">
        <circle
           style="fill:none;stroke:#ffffff;stroke-width:1.1286;stroke-miterlimit:4;stroke-dasharray:none"
           id="circle11235"
           cx="-62.120136"
           cy="129.3618"
           r="47.431847" />
        <circle
           style="opacity:1;fill:none;stroke:none;stroke-width:1.05206;stroke-miterlimit:4;stroke-dasharray:none"
           id="circle11237"
           cx="134.76862"
           cy="49.147324"
           r="44.215046"
           transform="matrix(-0.71498393,0.69914088,0.69914088,0.71498393,0,0)" />
        <text
           xml:space="preserve"
           style="font-size:8.81944px;line-height:0.1;font-family:sans-serif;text-align:start;letter-spacing:0.396875px;text-anchor:start;fill:#ffffff;stroke-width:0.264583"
           id="text11241"><textPath
             xlink:href="#path833-6"
             id="textPath11239"
             style="font-style:normal;font-variant:normal;font-weight:bold;font-stretch:normal;font-size:8.81944px;font-family:'Liberation Sans';-inkscape-font-specification:'Liberation Sans Bold';text-align:start;text-anchor:start;fill:#ffffff;stroke-width:0.264583">TAMAN PENDIDIKAN AL-QURAN</textPath></text>
        <text
           xml:space="preserve"
           style="font-size:10.5833px;line-height:0.1;font-family:sans-serif;text-align:start;letter-spacing:0.396875px;text-anchor:start;fill:#ffffff;stroke-width:0.264583"
           id="text11247"><textPath
             xlink:href="#path833"
             id="textPath11245"><tspan
               id="tspan11243"
               style="font-style:normal;font-variant:normal;font-weight:bold;font-stretch:normal;font-family:'Liberation Sans';-inkscape-font-specification:'Liberation Sans Bold';text-align:start;text-anchor:start;fill:#ffffff;stroke-width:0.264583">AS-SAKINAH</tspan></textPath></text>
        <g
           id="g11309"
           clip-path="url(#clipPath974)">
          <g
             id="g11307"
             transform="matrix(1.0395878,0,0,1.0395878,2.2424562,-6.7703028)">
            <g
               id="g11287"
               transform="matrix(1.0002542,0,0,1.0002542,1.1424955,4.1681839)">
              <g
                 id="g11265"
                 transform="translate(-3.4176289,-3.127576)">
                <rect
                   style="opacity:1;fill:#ffffff;fill-opacity:1;stroke:none;stroke-width:0.955754;stroke-miterlimit:4;stroke-dasharray:none;stroke-opacity:1"
                   id="rect11249"
                   width="24.668169"
                   height="24.668169"
                   x="-84.858383"
                   y="131.23441"
                   ry="3.1135054" />
                <g
                   id="g11263"
                   transform="matrix(0.97714641,0,0,0.97714641,2.5696345,7.1095212)">
                  <rect
                     style="opacity:1;fill:#ffffff;fill-opacity:1;stroke:none;stroke-width:1.08479;stroke-miterlimit:4;stroke-dasharray:none;stroke-opacity:1"
                     id="rect11251"
                     width="15.46949"
                     height="17.833769"
                     x="-85.208366"
                     y="106.60744"
                     ry="5.7093148" />
                  <rect
                     style="opacity:1;fill:#ffffff;fill-opacity:1;stroke:none;stroke-width:1.08479;stroke-miterlimit:4;stroke-dasharray:none;stroke-opacity:1"
                     id="rect11253"
                     width="15.46949"
                     height="7.8159065"
                     x="-85.208366"
                     y="106.18676"
                     ry="0" />
                  <rect
                     style="opacity:1;fill:#000000;fill-opacity:1;stroke:none;stroke-width:1.08479;stroke-miterlimit:4;stroke-dasharray:none;stroke-opacity:1"
                     id="rect11255"
                     width="16.989952"
                     height="12.582946"
                     x="-87.56588"
                     y="110.55273"
                     ry="6.2914729" />
                  <rect
                     style="opacity:1;fill:#000000;fill-opacity:1;stroke:none;stroke-width:1.08479;stroke-miterlimit:4;stroke-dasharray:none;stroke-opacity:1"
                     id="rect11257"
                     width="15.46949"
                     height="5.864903"
                     x="-86.045418"
                     y="110.45474"
                     ry="0" />
                  <rect
                     style="opacity:1;fill:#000000;fill-opacity:1;stroke:none;stroke-width:1.08479;stroke-miterlimit:4;stroke-dasharray:none;stroke-opacity:1"
                     id="rect11259"
                     width="4.0296173"
                     height="0.23281477"
                     x="-84.457741"
                     y="109.26781"
                     ry="0.11640739" />
                  <rect
                     style="opacity:1;fill:#000000;fill-opacity:1;stroke:none;stroke-width:0.6218;stroke-miterlimit:4;stroke-dasharray:none;stroke-opacity:1"
                     id="rect11261"
                     width="1.3239558"
                     height="0.23281477"
                     x="-79.810524"
                     y="109.26781"
                     ry="0.11640739" />
                </g>
              </g>
              <path
                 style="fill:#000000;fill-opacity:1;stroke:none;stroke-width:1.08479;stroke-miterlimit:4;stroke-dasharray:none;stroke-opacity:1"
                 d="m -63.797697,129.80725 c -0.08259,2.85121 -1.427486,5.76079 -2.500552,7.95106 l 5.133372,-2.42543 -1.454187,-2.90585 z"
                 id="path11267"
                 sodipodi:nodetypes="ccccc" />
              <g
                 id="g11285">
                <rect
                   style="opacity:1;fill:#ffffff;fill-opacity:1;stroke:none;stroke-width:1.17172;stroke-miterlimit:4;stroke-dasharray:none;stroke-opacity:1"
                   id="rect11269"
                   width="30.242176"
                   height="30.242176"
                   x="-63.873611"
                   y="134.026"
                   ry="3.8170314" />
                <g
                   id="g11277">
                  <g
                     id="g11273">
                    <path
                       style="opacity:1;fill:#ffffff;fill-opacity:1;stroke:none;stroke-width:1.08479;stroke-miterlimit:4;stroke-dasharray:none;stroke-opacity:1"
                       d="m -50.124224,107.74586 c 0,0 -10.429963,-0.61234 -10.429963,13.50171 0,14.11405 -7.253666,16.834 -7.253666,16.834 h 17.683627 z"
                       id="path11271"
                       sodipodi:nodetypes="czccc" />
                  </g>
                  <use
                     x="0"
                     y="0"
                     xlink:href="#g1209"
                     id="use11275"
                     transform="matrix(-1,0,0,1,-100.24845,0)"
                     width="100%"
                     height="100%" />
                </g>
                <g
                   id="g11283"
                   transform="matrix(0.83978116,0,0,0.83978116,-8.6660503,19.821536)">
                  <rect
                     style="fill:#000000;fill-opacity:1;stroke:none;stroke-width:0.896659;stroke-miterlimit:4;stroke-dasharray:none;stroke-opacity:1"
                     id="rect11279"
                     width="12.786659"
                     height="11.745953"
                     x="-55.761162"
                     y="113.7418"
                     ry="5.8729763" />
                  <rect
                     style="fill:#000000;fill-opacity:1;stroke:none;stroke-width:0.896659;stroke-miterlimit:4;stroke-dasharray:none;stroke-opacity:1"
                     id="rect11281"
                     width="12.786661"
                     height="6.443409"
                     x="-55.761162"
                     y="113.7418"
                     ry="0" />
                </g>
              </g>
            </g>
            <path
               style="opacity:1;fill:#000000;fill-opacity:1;stroke:#1a1a1a;stroke-width:1.08479;stroke-miterlimit:4;stroke-dasharray:none;stroke-opacity:1"
               d="m -92.287324,142.0837 5.377619,-0.6427 12.35474,8.11849 16.217521,4.56201 25.442455,-12.69682 12.73569,-1.00596 1.25328,17.29119 c 0,0 -40.757466,15.19688 -43.295736,14.78863 -2.538272,-0.40826 -22.995956,-1.22898 -24.123626,-2.55092 -1.12767,-1.32193 -8.086844,-8.46082 -8.086844,-9.43308 0,-0.97226 2.124901,-18.43084 2.124901,-18.43084 z"
               id="path11289" />
            <g
               id="g11305"
               transform="matrix(1.0345335,0,0,1.0345335,1.0156447,-7.0924855)">
              <g
                 id="g11293"
                 transform="matrix(0.80272554,0,0,0.80272554,-11.182047,26.88005)">
                <path
                   id="path11291"
                   style="fill:#000000;fill-opacity:1;stroke:none;stroke-width:9.0065;stroke-miterlimit:4;stroke-dasharray:none;stroke-opacity:1"
                   d="m -329.42773,496.62891 c -2.92729,-0.0791 -5.79652,1.40894 -7.36915,4.13281 l -5.57812,9.66016 c -2.28746,3.96199 -0.93856,8.99379 3.02344,11.28124 l 79.14648,45.69532 c -1.86393,2.55634 -2.16167,6.06087 -0.47265,8.98633 l 5.57617,9.66015 c 2.28746,3.962 7.31925,5.3109 11.28125,3.02344 l 10.57422,-6.10547 10.57421,6.10547 c 3.962,2.28746 8.9938,0.93856 11.28126,-3.02344 l 5.57812,-9.66015 c 1.68905,-2.92552 1.38943,-6.42998 -0.47461,-8.98633 l 79.14649,-45.69532 c 3.96199,-2.28745 5.31089,-7.31925 3.02343,-11.28124 l -5.57812,-9.66016 c -2.28746,-3.962 -7.31731,-5.30894 -11.2793,-3.02149 l -92.27148,53.27149 -92.26953,-53.27149 c -1.23813,-0.71483 -2.58153,-1.07538 -3.91211,-1.11132 z"
                   transform="matrix(0.28127898,0,0,0.28127898,3.9612516,-0.65587162)" />
              </g>
              <g
                 id="g11299"
                 transform="matrix(0.80272554,0,0,0.80272554,-10.893998,26.88005)">
                <path
                   style="opacity:1;fill:#ffffff;fill-opacity:1;stroke:none;stroke-width:1.35139;stroke-miterlimit:4;stroke-dasharray:none;stroke-opacity:1"
                   d="m -72.79747,158.37763 8.824241,5.09467 -8.659734,8.65974 -8.508564,-4.91242 z"
                   id="path11295" />
                <path
                   style="opacity:1;fill:#ffffff;fill-opacity:1;stroke:none;stroke-width:1.35139;stroke-miterlimit:4;stroke-dasharray:none;stroke-opacity:1"
                   d="m -51.814859,158.37763 -8.824241,5.09467 8.659734,8.65974 8.508564,-4.91242 z"
                   id="path11297" />
              </g>
              <path
                 id="path11301"
                 style="fill:#ffffff;fill-opacity:1;stroke:#000000;stroke-width:2.53334;stroke-miterlimit:4;stroke-dasharray:none;stroke-opacity:1"
                 d="m -96.880848,142.01033 -2.412177,4.17738 36.830922,21.2641 0.0077,0.0135 36.843154,-21.27119 -2.411534,-4.17737 -34.423894,19.87487 z"
                 transform="matrix(0.80272554,0,0,0.80272554,-10.776772,26.88005)" />
              <path
                 style="opacity:1;fill:#000000;fill-opacity:1;stroke:none;stroke-width:1.08479;stroke-miterlimit:4;stroke-dasharray:none;stroke-opacity:1"
                 d="m -64.205478,155.92709 c 0,0 1.781085,-3.62256 3.551463,-3.62256 1.770377,0 3.041999,3.1131 3.041999,3.1131 l -3.847126,2.16626 z"
                 id="path11303"
                 sodipodi:nodetypes="csccc" />
            </g>
          </g>
        </g>
        <circle
           style="opacity:1;fill:none;fill-opacity:1;stroke:#ffffff;stroke-width:1.08479;stroke-miterlimit:4;stroke-dasharray:none;stroke-opacity:1"
           id="circle11311"
           cx="-61.996498"
           cy="129.3618"
           r="32.927948" />
        <circle
           style="fill:none;stroke:none;stroke-width:0.880473;stroke-miterlimit:4;stroke-dasharray:none"
           id="circle11313"
           cx="108.84744"
           cy="-93.435936"
           r="37.003887"
           transform="rotate(156.2492)" />
      </g>
    </mask>
  </defs>
  <sodipodi:namedview
     id="base"
     pagecolor="#ffffff"
     bordercolor="#666666"
     borderopacity="1.0"
     inkscape:pageopacity="0.0"
     inkscape:pageshadow="2"
     inkscape:zoom="0.175"
     inkscape:cx="420"
     inkscape:cy="437.14286"
     inkscape:document-units="mm"
     inkscape:current-layer="layer1"
     inkscape:document-rotation="0"
     showgrid="false"
     inkscape:window-width="1312"
     inkscape:window-height="666"
     inkscape:window-x="27"
     inkscape:window-y="52"
     inkscape:window-maximized="1"
     showguides="false"
     inkscape:guide-bbox="true"
     inkscape:snap-global="false"
     inkscape:pagecheckerboard="0">
    <sodipodi:guide
       position="-67.846725,150.34524"
       orientation="0,-1"
       id="guide929" />
  </sodipodi:namedview>
  <metadata
     id="metadata5">
    <rdf:RDF>
      <cc:Work
         rdf:about="">
        <dc:format>image/svg+xml</dc:format>
        <dc:type
           rdf:resource="http://purl.org/dc/dcmitype/StillImage" />
        <dc:title />
      </cc:Work>
    </rdf:RDF>
  </metadata>
  <g
     inkscape:label="Layer 1"
     inkscape:groupmode="layer"
     id="layer1">
    <g
       id="g10751"
       mask="url(#mask11233)"
       transform="translate(-78.619048,-54.428572)"
       inkscape:export-filename="D:\Ichsan\design\Bu Sumilah\logo.png"
       inkscape:export-xdpi="300.06161"
       inkscape:export-ydpi="300.06161">
      <rect
         style="opacity:1;fill:#00d455;fill-opacity:1;stroke:none;stroke-width:5.93909"
         id="rect10664"
         width="201.44402"
         height="284.22079"
         x="-312.2175"
         y="16.512604" />
    </g>
    <rect
       style="opacity:1;fill:#000000;stroke:none;stroke-width:5.93909;fill-opacity:1"
       id="rect835"
       width="201.44402"
       height="284.22079"
       x="-157.20117"
       y="16.512604" />
    <g
       id="g10580">
      <circle
         style="fill:none;stroke:#ffffff;stroke-width:1.1286;stroke-miterlimit:4;stroke-dasharray:none"
         id="path833-3"
         cx="-62.120136"
         cy="129.3618"
         r="47.431847" />
      <circle
         style="opacity:1;fill:none;stroke:none;stroke-width:1.05206;stroke-miterlimit:4;stroke-dasharray:none"
         id="path833"
         cx="134.76862"
         cy="49.147324"
         r="44.215046"
         transform="matrix(-0.71498393,0.69914088,0.69914088,0.71498393,0,0)" />
      <text
         xml:space="preserve"
         style="font-size:8.81944px;line-height:0.1;font-family:sans-serif;text-align:start;letter-spacing:0.396875px;text-anchor:start;fill:#ffffff;stroke-width:0.264583"
         id="text839"><textPath
           xlink:href="#path833-6"
           id="textPath908"
           style="font-style:normal;font-variant:normal;font-weight:bold;font-stretch:normal;font-size:8.81944px;font-family:'Liberation Sans';-inkscape-font-specification:'Liberation Sans Bold';text-align:start;text-anchor:start;fill:#ffffff;stroke-width:0.264583">TAMAN PENDIDIKAN AL-QURAN</textPath></text>
      <text
         xml:space="preserve"
         style="font-size:10.5833px;line-height:0.1;font-family:sans-serif;text-align:start;letter-spacing:0.396875px;text-anchor:start;fill:#ffffff;stroke-width:0.264583"
         id="text843"><textPath
           xlink:href="#path833"
           id="textPath876"><tspan
             id="tspan841"
             style="font-style:normal;font-variant:normal;font-weight:bold;font-stretch:normal;font-family:'Liberation Sans';-inkscape-font-specification:'Liberation Sans Bold';text-align:start;text-anchor:start;fill:#ffffff;stroke-width:0.264583">AS-SAKINAH</tspan></textPath></text>
      <g
         id="g970"
         clip-path="url(#clipPath974)">
        <g
           id="g1300"
           transform="matrix(1.0395878,0,0,1.0395878,2.2424562,-6.7703028)">
          <g
             id="g1269"
             transform="matrix(1.0002542,0,0,1.0002542,1.1424955,4.1681839)">
            <g
               id="g1172"
               transform="translate(-3.4176289,-3.127576)">
              <rect
                 style="opacity:1;fill:#ffffff;fill-opacity:1;stroke:none;stroke-width:0.955754;stroke-miterlimit:4;stroke-dasharray:none;stroke-opacity:1"
                 id="rect1157"
                 width="24.668169"
                 height="24.668169"
                 x="-84.858383"
                 y="131.23441"
                 ry="3.1135054" />
              <g
                 id="g1155"
                 transform="matrix(0.97714641,0,0,0.97714641,2.5696345,7.1095212)">
                <rect
                   style="opacity:1;fill:#ffffff;fill-opacity:1;stroke:none;stroke-width:1.08479;stroke-miterlimit:4;stroke-dasharray:none;stroke-opacity:1"
                   id="rect1137"
                   width="15.46949"
                   height="17.833769"
                   x="-85.208366"
                   y="106.60744"
                   ry="5.7093148" />
                <rect
                   style="opacity:1;fill:#ffffff;fill-opacity:1;stroke:none;stroke-width:1.08479;stroke-miterlimit:4;stroke-dasharray:none;stroke-opacity:1"
                   id="rect1139"
                   width="15.46949"
                   height="7.8159065"
                   x="-85.208366"
                   y="106.18676"
                   ry="0" />
                <rect
                   style="opacity:1;fill:#000000;fill-opacity:1;stroke:none;stroke-width:1.08479;stroke-miterlimit:4;stroke-dasharray:none;stroke-opacity:1"
                   id="rect1141"
                   width="16.989952"
                   height="12.582946"
                   x="-87.56588"
                   y="110.55273"
                   ry="6.2914729" />
                <rect
                   style="opacity:1;fill:#000000;fill-opacity:1;stroke:none;stroke-width:1.08479;stroke-miterlimit:4;stroke-dasharray:none;stroke-opacity:1"
                   id="rect1143"
                   width="15.46949"
                   height="5.864903"
                   x="-86.045418"
                   y="110.45474"
                   ry="0" />
                <rect
                   style="opacity:1;fill:#000000;fill-opacity:1;stroke:none;stroke-width:1.08479;stroke-miterlimit:4;stroke-dasharray:none;stroke-opacity:1"
                   id="rect1145"
                   width="4.0296173"
                   height="0.23281477"
                   x="-84.457741"
                   y="109.26781"
                   ry="0.11640739" />
                <rect
                   style="opacity:1;fill:#000000;fill-opacity:1;stroke:none;stroke-width:0.6218;stroke-miterlimit:4;stroke-dasharray:none;stroke-opacity:1"
                   id="rect1147"
                   width="1.3239558"
                   height="0.23281477"
                   x="-79.810524"
                   y="109.26781"
                   ry="0.11640739" />
              </g>
            </g>
            <path
               style="fill:#000000;fill-opacity:1;stroke:none;stroke-width:1.08479;stroke-miterlimit:4;stroke-dasharray:none;stroke-opacity:1"
               d="m -63.797697,129.80725 c -0.08259,2.85121 -1.427486,5.76079 -2.500552,7.95106 l 5.133372,-2.42543 -1.454187,-2.90585 z"
               id="path1228"
               sodipodi:nodetypes="ccccc" />
            <g
               id="g1226">
              <rect
                 style="opacity:1;fill:#ffffff;fill-opacity:1;stroke:none;stroke-width:1.17172;stroke-miterlimit:4;stroke-dasharray:none;stroke-opacity:1"
                 id="rect1162"
                 width="30.242176"
                 height="30.242176"
                 x="-63.873611"
                 y="134.026"
                 ry="3.8170314" />
              <g
                 id="g1216">
                <g
                   id="g1209">
                  <path
                     style="opacity:1;fill:#ffffff;fill-opacity:1;stroke:none;stroke-width:1.08479;stroke-miterlimit:4;stroke-dasharray:none;stroke-opacity:1"
                     d="m -50.124224,107.74586 c 0,0 -10.429963,-0.61234 -10.429963,13.50171 0,14.11405 -7.253666,16.834 -7.253666,16.834 h 17.683627 z"
                     id="path1194"
                     sodipodi:nodetypes="czccc" />
                </g>
                <use
                   x="0"
                   y="0"
                   xlink:href="#g1209"
                   id="use1211"
                   transform="matrix(-1,0,0,1,-100.24845,0)"
                   width="100%"
                   height="100%" />
              </g>
              <g
                 id="g1206"
                 transform="matrix(0.83978116,0,0,0.83978116,-8.6660503,19.821536)">
                <rect
                   style="fill:#000000;fill-opacity:1;stroke:none;stroke-width:0.896659;stroke-miterlimit:4;stroke-dasharray:none;stroke-opacity:1"
                   id="rect1137-5"
                   width="12.786659"
                   height="11.745953"
                   x="-55.761162"
                   y="113.7418"
                   ry="5.8729763" />
                <rect
                   style="fill:#000000;fill-opacity:1;stroke:none;stroke-width:0.896659;stroke-miterlimit:4;stroke-dasharray:none;stroke-opacity:1"
                   id="rect1196"
                   width="12.786661"
                   height="6.443409"
                   x="-55.761162"
                   y="113.7418"
                   ry="0" />
              </g>
            </g>
          </g>
          <path
             style="opacity:1;fill:#000000;fill-opacity:1;stroke:#1a1a1a;stroke-width:1.08479;stroke-miterlimit:4;stroke-dasharray:none;stroke-opacity:1"
             d="m -92.287324,142.0837 5.377619,-0.6427 12.35474,8.11849 16.217521,4.56201 25.442455,-12.69682 12.73569,-1.00596 1.25328,17.29119 c 0,0 -40.757466,15.19688 -43.295736,14.78863 -2.538272,-0.40826 -22.995956,-1.22898 -24.123626,-2.55092 -1.12767,-1.32193 -8.086844,-8.46082 -8.086844,-9.43308 0,-0.97226 2.124901,-18.43084 2.124901,-18.43084 z"
             id="path1160" />
          <g
             id="g1083"
             transform="matrix(1.0345335,0,0,1.0345335,1.0156447,-7.0924855)">
            <g
               id="g1066"
               transform="matrix(0.80272554,0,0,0.80272554,-11.182047,26.88005)">
              <path
                 id="rect967"
                 style="fill:#000000;fill-opacity:1;stroke:none;stroke-width:9.0065;stroke-miterlimit:4;stroke-dasharray:none;stroke-opacity:1"
                 d="m -329.42773,496.62891 c -2.92729,-0.0791 -5.79652,1.40894 -7.36915,4.13281 l -5.57812,9.66016 c -2.28746,3.96199 -0.93856,8.99379 3.02344,11.28124 l 79.14648,45.69532 c -1.86393,2.55634 -2.16167,6.06087 -0.47265,8.98633 l 5.57617,9.66015 c 2.28746,3.962 7.31925,5.3109 11.28125,3.02344 l 10.57422,-6.10547 10.57421,6.10547 c 3.962,2.28746 8.9938,0.93856 11.28126,-3.02344 l 5.57812,-9.66015 c 1.68905,-2.92552 1.38943,-6.42998 -0.47461,-8.98633 l 79.14649,-45.69532 c 3.96199,-2.28745 5.31089,-7.31925 3.02343,-11.28124 l -5.57812,-9.66016 c -2.28746,-3.962 -7.31731,-5.30894 -11.2793,-3.02149 l -92.27148,53.27149 -92.26953,-53.27149 c -1.23813,-0.71483 -2.58153,-1.07538 -3.91211,-1.11132 z"
                 transform="matrix(0.28127898,0,0,0.28127898,3.9612516,-0.65587162)" />
            </g>
            <g
               id="g1045"
               transform="matrix(0.80272554,0,0,0.80272554,-10.893998,26.88005)">
              <path
                 style="opacity:1;fill:#ffffff;fill-opacity:1;stroke:none;stroke-width:1.35139;stroke-miterlimit:4;stroke-dasharray:none;stroke-opacity:1"
                 d="m -72.79747,158.37763 8.824241,5.09467 -8.659734,8.65974 -8.508564,-4.91242 z"
                 id="path1039" />
              <path
                 style="opacity:1;fill:#ffffff;fill-opacity:1;stroke:none;stroke-width:1.35139;stroke-miterlimit:4;stroke-dasharray:none;stroke-opacity:1"
                 d="m -51.814859,158.37763 -8.824241,5.09467 8.659734,8.65974 8.508564,-4.91242 z"
                 id="path1041" />
            </g>
            <path
               id="rect1013"
               style="fill:#ffffff;fill-opacity:1;stroke:#1a1a1a;stroke-width:2.53334;stroke-miterlimit:4;stroke-dasharray:none;stroke-opacity:1"
               d="m -96.880848,142.01033 -2.412177,4.17738 36.830922,21.2641 0.0077,0.0135 36.843154,-21.27119 -2.411534,-4.17737 -34.423894,19.87487 z"
               transform="matrix(0.80272554,0,0,0.80272554,-10.776772,26.88005)" />
            <path
               style="opacity:1;fill:#000000;fill-opacity:1;stroke:none;stroke-width:1.08479;stroke-miterlimit:4;stroke-dasharray:none;stroke-opacity:1"
               d="m -64.205478,155.92709 c 0,0 1.781085,-3.62256 3.551463,-3.62256 1.770377,0 3.041999,3.1131 3.041999,3.1131 l -3.847126,2.16626 z"
               id="path1035"
               sodipodi:nodetypes="csccc" />
          </g>
        </g>
      </g>
      <circle
         style="opacity:1;fill:none;fill-opacity:1;stroke:#ffffff;stroke-width:1.08479;stroke-miterlimit:4;stroke-dasharray:none;stroke-opacity:1"
         id="circle863"
         cx="-61.996498"
         cy="129.3618"
         r="32.927948" />
      <circle
         style="fill:none;stroke:none;stroke-width:0.880473;stroke-miterlimit:4;stroke-dasharray:none"
         id="path833-6"
         cx="108.84744"
         cy="-93.435936"
         r="37.003887"
         transform="rotate(156.2492)" />
    </g>
    <g
       id="g10538"
       transform="translate(-171.58704)">
      <circle
         style="fill:none;stroke:#00d455;stroke-width:0.861964;stroke-miterlimit:4;stroke-dasharray:none"
         id="circle866"
         cx="-62.120136"
         cy="245.77847"
         r="36.22588" />
      <circle
         style="opacity:1;fill:none;stroke:none;stroke-width:0.803507;stroke-miterlimit:4;stroke-dasharray:none"
         id="circle868"
         cx="216.18115"
         cy="132.36296"
         r="33.769062"
         transform="matrix(-0.71498393,0.69914088,0.69914088,0.71498393,0,0)" />
      <text
         xml:space="preserve"
         style="font-size:8.81944px;line-height:0.1;font-family:sans-serif;text-align:start;letter-spacing:0.396875px;text-anchor:start;fill:#00d455;fill-opacity:1;stroke-width:0.264583"
         id="text872"
         transform="matrix(0.76374591,0,0,0.76374591,-14.676136,146.97892)"><textPath
           xlink:href="#path833-6"
           id="textPath870"
           style="font-style:normal;font-variant:normal;font-weight:bold;font-stretch:normal;font-size:8.81944px;font-family:'Liberation Sans';-inkscape-font-specification:'Liberation Sans Bold';text-align:start;text-anchor:start;fill:#00d455;fill-opacity:1;stroke-width:0.264583">TAMAN PENDIDIKAN AL-QURAN</textPath></text>
      <text
         xml:space="preserve"
         style="font-size:10.5833px;line-height:0.1;font-family:sans-serif;text-align:start;letter-spacing:0.396875px;text-anchor:start;fill:#00d455;fill-opacity:1;stroke-width:0.264583"
         id="text879"
         transform="matrix(0.76374591,0,0,0.76374591,-14.676136,146.97892)"><textPath
           xlink:href="#path833"
           id="textPath877"><tspan
             id="tspan874"
             style="font-style:normal;font-variant:normal;font-weight:bold;font-stretch:normal;font-family:'Liberation Sans';-inkscape-font-specification:'Liberation Sans Bold';text-align:start;text-anchor:start;fill:#00d455;fill-opacity:1;stroke-width:0.264583">AS-SAKINAH</tspan></textPath></text>
      <g
         id="g941"
         clip-path="url(#clipPath974)"
         transform="matrix(0.76374591,0,0,0.76374591,-14.676136,146.97892)">
        <g
           id="g939"
           transform="matrix(1.0395878,0,0,1.0395878,2.2424562,-6.7703028)">
          <g
             id="g919"
             transform="matrix(1.0002542,0,0,1.0002542,1.1424955,4.1681839)">
            <g
               id="g897"
               transform="translate(-3.4176289,-3.127576)">
              <rect
                 style="opacity:1;fill:#00d455;fill-opacity:1;stroke:none;stroke-width:0.955754;stroke-miterlimit:4;stroke-dasharray:none;stroke-opacity:1"
                 id="rect881"
                 width="24.668169"
                 height="24.668169"
                 x="-84.858383"
                 y="131.23441"
                 ry="3.1135054" />
              <g
                 id="g895"
                 transform="matrix(0.97714641,0,0,0.97714641,2.5696345,7.1095212)">
                <rect
                   style="opacity:1;fill:#00d455;fill-opacity:1;stroke:none;stroke-width:1.08479;stroke-miterlimit:4;stroke-dasharray:none;stroke-opacity:1"
                   id="rect883"
                   width="15.46949"
                   height="17.833769"
                   x="-85.208366"
                   y="106.60744"
                   ry="5.7093148" />
                <rect
                   style="opacity:1;fill:#00d455;fill-opacity:1;stroke:none;stroke-width:1.08479;stroke-miterlimit:4;stroke-dasharray:none;stroke-opacity:1"
                   id="rect885"
                   width="15.46949"
                   height="7.8159065"
                   x="-85.208366"
                   y="106.18676"
                   ry="0" />
                <rect
                   style="opacity:1;fill:#000000;fill-opacity:1;stroke:none;stroke-width:1.08479;stroke-miterlimit:4;stroke-dasharray:none;stroke-opacity:1"
                   id="rect887"
                   width="16.989952"
                   height="12.582946"
                   x="-87.56588"
                   y="110.55273"
                   ry="6.2914729" />
                <rect
                   style="opacity:1;fill:#000000;fill-opacity:1;stroke:none;stroke-width:1.08479;stroke-miterlimit:4;stroke-dasharray:none;stroke-opacity:1"
                   id="rect889"
                   width="15.46949"
                   height="5.864903"
                   x="-86.045418"
                   y="110.45474"
                   ry="0" />
                <rect
                   style="opacity:1;fill:#000000;fill-opacity:1;stroke:none;stroke-width:1.08479;stroke-miterlimit:4;stroke-dasharray:none;stroke-opacity:1"
                   id="rect891"
                   width="4.0296173"
                   height="0.23281477"
                   x="-84.457741"
                   y="109.26781"
                   ry="0.11640739" />
                <rect
                   style="opacity:1;fill:#000000;fill-opacity:1;stroke:none;stroke-width:0.6218;stroke-miterlimit:4;stroke-dasharray:none;stroke-opacity:1"
                   id="rect893"
                   width="1.3239558"
                   height="0.23281477"
                   x="-79.810524"
                   y="109.26781"
                   ry="0.11640739" />
              </g>
            </g>
            <path
               style="fill:#000000;fill-opacity:1;stroke:none;stroke-width:1.08479;stroke-miterlimit:4;stroke-dasharray:none;stroke-opacity:1"
               d="m -63.797697,129.80725 c -0.08259,2.85121 -1.427486,5.76079 -2.500552,7.95106 l 5.133372,-2.42543 -1.454187,-2.90585 z"
               id="path899"
               sodipodi:nodetypes="ccccc" />
            <g
               id="g917">
              <rect
                 style="opacity:1;fill:#00d455;fill-opacity:1;stroke:none;stroke-width:1.17172;stroke-miterlimit:4;stroke-dasharray:none;stroke-opacity:1"
                 id="rect901"
                 width="30.242176"
                 height="30.242176"
                 x="-63.873611"
                 y="134.026"
                 ry="3.8170314" />
              <g
                 id="g909">
                <g
                   id="g905">
                  <path
                     style="opacity:1;fill:#00d455;fill-opacity:1;stroke:none;stroke-width:1.08479;stroke-miterlimit:4;stroke-dasharray:none;stroke-opacity:1"
                     d="m -50.124224,107.74586 c 0,0 -10.429963,-0.61234 -10.429963,13.50171 0,14.11405 -7.253666,16.834 -7.253666,16.834 h 17.683627 z"
                     id="path903"
                     sodipodi:nodetypes="czccc" />
                </g>
                <g
                   id="use907"
                   style="fill:#00d455;fill-opacity:1"
                   transform="matrix(-1,0,0,1,-100.24845,0)">
                  <path
                     style="opacity:1;fill:#00d455;fill-opacity:1;stroke:none;stroke-width:1.08479;stroke-miterlimit:4;stroke-dasharray:none;stroke-opacity:1"
                     d="m -50.124224,107.74586 c 0,0 -10.429963,-0.61234 -10.429963,13.50171 0,14.11405 -7.253666,16.834 -7.253666,16.834 h 17.683627 z"
                     id="path8683"
                     sodipodi:nodetypes="czccc" />
                </g>
              </g>
              <g
                 id="g915"
                 transform="matrix(0.83978116,0,0,0.83978116,-8.6660503,19.821536)">
                <rect
                   style="fill:#000000;fill-opacity:1;stroke:none;stroke-width:0.896659;stroke-miterlimit:4;stroke-dasharray:none;stroke-opacity:1"
                   id="rect911"
                   width="12.786659"
                   height="11.745953"
                   x="-55.761162"
                   y="113.7418"
                   ry="5.8729763" />
                <rect
                   style="fill:#000000;fill-opacity:1;stroke:none;stroke-width:0.896659;stroke-miterlimit:4;stroke-dasharray:none;stroke-opacity:1"
                   id="rect913"
                   width="12.786661"
                   height="6.443409"
                   x="-55.761162"
                   y="113.7418"
                   ry="0" />
              </g>
            </g>
          </g>
          <path
             style="opacity:1;fill:#000000;fill-opacity:1;stroke:#1a1a1a;stroke-width:1.08479;stroke-miterlimit:4;stroke-dasharray:none;stroke-opacity:1"
             d="m -92.287324,142.0837 5.377619,-0.6427 12.35474,8.11849 16.217521,4.56201 25.442455,-12.69682 12.73569,-1.00596 1.25328,17.29119 c 0,0 -40.757466,15.19688 -43.295736,14.78863 -2.538272,-0.40826 -22.995956,-1.22898 -24.123626,-2.55092 -1.12767,-1.32193 -8.086844,-8.46082 -8.086844,-9.43308 0,-0.97226 2.124901,-18.43084 2.124901,-18.43084 z"
             id="path921" />
          <g
             id="g937"
             transform="matrix(1.0345335,0,0,1.0345335,1.0156447,-7.0924855)">
            <g
               id="g925"
               transform="matrix(0.80272554,0,0,0.80272554,-11.182047,26.88005)">
              <path
                 id="path923"
                 style="fill:#000000;fill-opacity:1;stroke:none;stroke-width:9.0065;stroke-miterlimit:4;stroke-dasharray:none;stroke-opacity:1"
                 d="m -329.42773,496.62891 c -2.92729,-0.0791 -5.79652,1.40894 -7.36915,4.13281 l -5.57812,9.66016 c -2.28746,3.96199 -0.93856,8.99379 3.02344,11.28124 l 79.14648,45.69532 c -1.86393,2.55634 -2.16167,6.06087 -0.47265,8.98633 l 5.57617,9.66015 c 2.28746,3.962 7.31925,5.3109 11.28125,3.02344 l 10.57422,-6.10547 10.57421,6.10547 c 3.962,2.28746 8.9938,0.93856 11.28126,-3.02344 l 5.57812,-9.66015 c 1.68905,-2.92552 1.38943,-6.42998 -0.47461,-8.98633 l 79.14649,-45.69532 c 3.96199,-2.28745 5.31089,-7.31925 3.02343,-11.28124 l -5.57812,-9.66016 c -2.28746,-3.962 -7.31731,-5.30894 -11.2793,-3.02149 l -92.27148,53.27149 -92.26953,-53.27149 c -1.23813,-0.71483 -2.58153,-1.07538 -3.91211,-1.11132 z"
                 transform="matrix(0.28127898,0,0,0.28127898,3.9612516,-0.65587162)" />
            </g>
            <g
               id="g931"
               transform="matrix(0.80272554,0,0,0.80272554,-10.893998,26.88005)">
              <path
                 style="opacity:1;fill:#00d455;fill-opacity:1;stroke:none;stroke-width:1.35139;stroke-miterlimit:4;stroke-dasharray:none;stroke-opacity:1"
                 d="m -72.79747,158.37763 8.824241,5.09467 -8.659734,8.65974 -8.508564,-4.91242 z"
                 id="path927" />
              <path
                 style="opacity:1;fill:#00d455;fill-opacity:1;stroke:none;stroke-width:1.35139;stroke-miterlimit:4;stroke-dasharray:none;stroke-opacity:1"
                 d="m -51.814859,158.37763 -8.824241,5.09467 8.659734,8.65974 8.508564,-4.91242 z"
                 id="path929" />
            </g>
            <path
               id="path933"
               style="fill:#00d455;fill-opacity:1;stroke:#1a1a1a;stroke-width:2.53334;stroke-miterlimit:4;stroke-dasharray:none;stroke-opacity:1"
               d="m -96.880848,142.01033 -2.412177,4.17738 36.830922,21.2641 0.0077,0.0135 36.843154,-21.27119 -2.411534,-4.17737 -34.423894,19.87487 z"
               transform="matrix(0.80272554,0,0,0.80272554,-10.776772,26.88005)" />
            <path
               style="opacity:1;fill:#000000;fill-opacity:1;stroke:none;stroke-width:1.08479;stroke-miterlimit:4;stroke-dasharray:none;stroke-opacity:1"
               d="m -64.205478,155.92709 c 0,0 1.781085,-3.62256 3.551463,-3.62256 1.770377,0 3.041999,3.1131 3.041999,3.1131 l -3.847126,2.16626 z"
               id="path935"
               sodipodi:nodetypes="csccc" />
          </g>
        </g>
      </g>
      <circle
         style="opacity:1;fill:none;fill-opacity:1;stroke:#00d455;stroke-width:0.828504;stroke-miterlimit:4;stroke-dasharray:none;stroke-opacity:1"
         id="circle943"
         cx="-62.025707"
         cy="245.77847"
         r="25.148586" />
      <circle
         style="fill:none;stroke:none;stroke-width:0.672458;stroke-miterlimit:4;stroke-dasharray:none"
         id="circle945"
         cx="155.76208"
         cy="-199.98103"
         r="28.261568"
         transform="rotate(156.2492)" />
    </g>
  </g>
</svg>
