<?xml version="1.0" encoding="UTF-8" standalone="no"?>
<svg
   xmlns:dc="http://purl.org/dc/elements/1.1/"
   xmlns:cc="http://creativecommons.org/ns#"
   xmlns:rdf="http://www.w3.org/1999/02/22-rdf-syntax-ns#"
   xmlns:svg="http://www.w3.org/2000/svg"
   xmlns="http://www.w3.org/2000/svg"
   xmlns:xlink="http://www.w3.org/1999/xlink"
   xmlns:sodipodi="http://sodipodi.sourceforge.net/DTD/sodipodi-0.dtd"
   xmlns:inkscape="http://www.inkscape.org/namespaces/inkscape"
   width="210mm"
   height="297mm"
   viewBox="0 0 210 297"
   version="1.1"
   id="svg8"
   inkscape:version="1.0.2 (e86c870, 2021-01-15)"
   sodipodi:docname="stempel_BuSumilah.svg">
  <defs
     id="defs2">
    <filter
       style="color-interpolation-filters:sRGB;"
       inkscape:label="Invert"
       id="filter855">
      <feColorMatrix
         type="hueRotate"
         values="180"
         result="color1"
         id="feColorMatrix851" />
      <feColorMatrix
         values="-1 0 0 0 1 0 -1 0 0 1 0 0 -1 0 1 -0.21 -0.72 -0.07 2 0 "
         result="color2"
         id="feColorMatrix853" />
    </filter>
  </defs>
  <sodipodi:namedview
     id="base"
     pagecolor="#ffffff"
     bordercolor="#666666"
     borderopacity="1.0"
     inkscape:pageopacity="0.0"
     inkscape:pageshadow="2"
     inkscape:zoom="0.7"
     inkscape:cx="433.0779"
     inkscape:cy="536.93535"
     inkscape:document-units="mm"
     inkscape:current-layer="layer1"
     inkscape:document-rotation="0"
     showgrid="false"
     inkscape:window-width="1280"
     inkscape:window-height="971"
     inkscape:window-x="-8"
     inkscape:window-y="-8"
     inkscape:window-maximized="1" />
  <metadata
     id="metadata5">
    <rdf:RDF>
      <cc:Work
         rdf:about="">
        <dc:format>image/svg+xml</dc:format>
        <dc:type
           rdf:resource="http://purl.org/dc/dcmitype/StillImage" />
        <dc:title></dc:title>
      </cc:Work>
    </rdf:RDF>
  </metadata>
  <g
     inkscape:label="Layer 1"
     inkscape:groupmode="layer"
     id="layer1">
    <image
       width="104.775"
       height="104.775"
       preserveAspectRatio="none"
       xlink:href="file:///C:/Users/SERVER%20ISTIQLAL/Downloads/WhatsApp%20Image%202021-03-27%20at%2010.47.31.jpeg"
       id="image843"
       sodipodi:absref="C:\Users\SERVER ISTIQLAL\Downloads\WhatsApp Image 2021-03-27 at 10.47.31.jpeg"
       x="57.981548"
       y="39.082737"
       style="filter:url(#filter855)"
       inkscape:export-xdpi="300"
       inkscape:export-ydpi="300" />
    <path
       style="fill:#ff6600;stroke-width:0.264583"
       d="m 105.07738,252.98894 c -9.672062,-0.8471 -19.524682,-5.10893 -26.982771,-11.67162 -17.842075,-15.70001 -21.354627,-42.13633 -8.223011,-61.88838 10.726186,-16.13389 30.08781,-24.16031 49.036482,-20.32821 13.0421,2.63757 24.4838,10.74933 31.36988,22.24012 8.89581,14.84441 8.89581,33.78759 0,48.632 -7.86887,13.13077 -21.42646,21.63026 -36.73391,23.02913 -3.39303,0.31007 -4.80213,0.3079 -8.46667,-0.013 z m 10.77423,-1.42417 c 19.97121,-2.83915 35.67207,-17.99412 39.27516,-37.90965 0.79203,-4.37781 0.79309,-11.61317 0.002,-15.98279 -3.28336,-18.14363 -16.6205,-32.44458 -34.52018,-37.01478 -4.74715,-1.21205 -11.65442,-1.63831 -16.59686,-1.02422 -11.330535,1.4078 -21.894927,6.91357 -29.164685,15.19956 -9.938513,11.32779 -13.845803,26.36859 -10.613897,40.85732 4.279376,19.18457 19.962597,33.46273 39.520932,35.98025 2.81369,0.36217 9.19847,0.30639 12.09715,-0.10569 z m -8.74313,-2.18553 c -0.0642,-0.10914 -0.19978,-0.58539 -0.30122,-1.05833 -0.16334,-0.76161 -0.28539,-0.8599 -1.0678,-0.8599 -0.48586,0 -1.06821,-0.0709 -1.2941,-0.15761 -0.28776,-0.11042 -0.54655,0.12723 -0.8644,0.79375 -0.24952,0.52325 -0.63998,0.94954 -0.86769,0.94731 -1.09078,-0.0107 -1.03103,-0.40276 0.57427,-3.76884 1.32425,-2.77677 1.70798,-3.37086 2.1773,-3.37086 1.0713,0 1.42487,0.6123 2.24465,3.88713 0.44411,1.77412 0.80747,3.3517 0.80747,3.50573 0,0.31639 -1.2284,0.38758 -1.40848,0.0816 z m -0.71329,-3.175 c -0.003,-0.10914 -0.16578,-0.79375 -0.36218,-1.52135 l -0.35708,-1.32292 -0.56386,1.27871 c -0.31012,0.70329 -0.56386,1.32046 -0.56386,1.37149 0,0.051 0.32743,0.14238 0.72761,0.203 0.40018,0.0606 0.8169,0.12806 0.92604,0.14987 0.10914,0.0218 0.19614,-0.0497 0.19333,-0.1588 z m 3.28089,0.13229 c -0.12226,-1.78263 -0.22471,-3.41974 -0.22768,-3.63802 -0.003,-0.23546 0.28297,-0.43019 0.70363,-0.4788 0.66311,-0.0766 0.71989,5.3e-4 0.87671,1.19063 0.0922,0.6999 0.18989,1.43124 0.21702,1.62519 0.0271,0.19395 0.69685,-0.43113 1.48827,-1.38906 1.14976,-1.39169 1.58842,-1.74171 2.18281,-1.74171 0.40913,0 0.74387,0.0701 0.74387,0.15575 0,0.0857 -0.53578,0.76823 -1.19062,1.51681 -0.65484,0.74858 -1.19063,1.45017 -1.19063,1.55909 0,0.10891 0.78833,1.03369 1.75185,2.05506 l 1.75184,1.85704 h -0.97758 c -0.84782,0 -1.15483,-0.19393 -2.31294,-1.4611 -1.61205,-1.76384 -2.06525,-1.63931 -2.06525,0.56746 0,1.39242 -0.0163,1.42281 -0.76451,1.42281 h -0.76451 z m 8.1013,2.05474 c 0,-0.0704 -0.30273,-1.56189 -0.67273,-3.31432 -0.37,-1.75242 -0.6011,-3.30213 -0.51355,-3.44379 0.0876,-0.14166 0.43311,-0.25756 0.76792,-0.25756 0.56338,0 0.65377,0.2218 1.21308,2.97656 0.33239,1.63711 0.66062,3.24445 0.72941,3.57187 0.10856,0.51678 0.0163,0.59532 -0.69953,0.59532 -0.45353,0 -0.8246,-0.0576 -0.8246,-0.12808 z m -21.224641,-0.94408 c -1.559171,-0.82331 -2.121082,-2.36743 -0.861518,-2.36743 0.46518,0 0.742726,0.19653 0.914094,0.64726 0.168423,0.44298 0.593989,0.75149 1.348419,0.97753 0.983647,0.2947 1.139653,0.27922 1.448983,-0.14381 0.50038,-0.68431 0.254172,-1.0584 -1.227225,-1.86468 -2.095095,-1.1403 -2.532951,-2.31565 -1.360183,-3.65119 0.785537,-0.89457 4.215831,-0.27365 4.830211,0.87432 0.7646,1.42866 -0.39266,1.80209 -1.59522,0.51474 -0.810027,-0.86713 -1.602993,-1.01581 -2.116669,-0.39687 -0.409892,0.49389 -0.02432,1.03236 1.171356,1.63589 1.999983,1.00951 2.631253,2.63129 1.474473,3.78806 -0.700149,0.70016 -2.687519,0.69334 -4.026721,-0.0138 z m 23.407451,-2.71029 c -0.61846,-1.7839 -1.12448,-3.31786 -1.12448,-3.40879 0,-0.0909 0.352,-0.28804 0.78221,-0.43801 0.74007,-0.25799 0.90394,-0.16624 3.04271,1.70359 1.24327,1.08695 2.2605,1.93472 2.2605,1.88393 0,-0.0508 -0.3573,-1.14938 -0.794,-2.44131 -0.61045,-1.80596 -0.71749,-2.39755 -0.46302,-2.55912 0.61304,-0.38925 0.93908,-0.22262 1.2554,0.64164 0.90308,2.46736 1.8537,5.36284 1.8537,5.64614 0,0.17675 -0.33069,0.43664 -0.73487,0.57754 -0.65831,0.22949 -0.87194,0.13483 -2.05052,-0.90859 -0.7236,-0.64061 -1.7606,-1.52695 -2.30444,-1.96963 l -0.9888,-0.80487 0.8472,2.38805 c 0.46596,1.31343 0.79186,2.43853 0.72421,2.50022 -0.0676,0.0617 -0.36111,0.18428 -0.65215,0.27241 -0.47243,0.14307 -0.64974,-0.18753 -1.65365,-3.0832 z m 7.93412,-1.0462 c -0.98563,-5.55723 -0.99774,-5.72441 -0.44497,-6.14248 0.28297,-0.21402 0.67442,-0.39291 0.86988,-0.39754 0.33952,-0.008 5.86233,4.47142 5.86233,4.75485 0,0.0751 -0.25075,0.29312 -0.55723,0.48452 -0.48383,0.30216 -0.63417,0.2757 -1.14153,-0.20094 -0.73292,-0.68855 -1.02723,-0.68644 -2.27763,0.0163 -0.93238,0.52403 -0.99471,0.63303 -0.85486,1.49488 0.11606,0.71516 0.0382,1.01204 -0.33764,1.28683 -0.26868,0.19647 -0.56423,0.3572 -0.65678,0.3572 -0.0926,0 -0.30026,-0.74414 -0.46157,-1.65364 z m 2.5814,-3.15574 c 0.002,-0.18701 -1.91067,-1.83458 -2.01013,-1.73174 -0.0313,0.0324 0.0646,0.67081 0.21301,1.41878 l 0.26989,1.35993 0.76278,-0.43389 c 0.41953,-0.23865 0.76353,-0.51453 0.76445,-0.61308 z m -37.713942,3.27694 c -0.522243,-0.29274 -0.771708,-0.61503 -0.708205,-0.91495 0.122269,-0.57748 0.635154,-0.58713 1.72602,-0.0325 1.076243,0.5472 1.01945,0.47924 0.824677,0.98681 -0.211008,0.54988 -0.814284,0.53699 -1.842492,-0.0394 z m -5.709735,-0.54871 c -1.215284,-0.77071 -2.010817,-2.06287 -1.726377,-2.80411 0.220583,-0.57483 1.340578,-0.10323 1.447041,0.60931 0.191532,1.2819 2.691027,2.18914 2.905995,1.05479 0.04637,-0.24466 -0.515371,-1.10485 -1.254508,-1.92103 -0.736159,-0.8129 -1.338469,-1.6017 -1.338469,-1.75291 0,-0.66183 0.857718,-1.84212 1.445969,-1.98976 1.587034,-0.39832 4.110281,1.30418 4.110281,2.77331 0,0.45094 -0.06736,0.81989 -0.149686,0.81989 -0.414348,0 -1.173231,-0.59259 -1.173231,-0.91615 0,-0.47535 -1.25616,-1.4651 -1.859457,-1.4651 -0.996157,0 -0.801881,0.83488 0.534537,2.29714 1.462559,1.60027 1.620505,2.28281 0.77655,3.35572 -0.759883,0.96603 -2.134645,0.94345 -3.718645,-0.0611 z m -4.02782,-2.63765 c -0.369151,-0.40791 -0.390289,-0.62621 -0.132296,-1.36629 0.292284,-0.83845 0.260809,-0.92319 -0.654364,-1.76189 l -0.961416,-0.88107 -0.9383,0.44745 c -0.898488,0.42845 -0.959828,0.42558 -1.445687,-0.0678 -0.501596,-0.5093 -0.469429,-0.53608 2.817707,-2.34513 2.511502,-1.38219 3.426,-1.7663 3.737481,-1.56982 0.989814,0.62436 0.959247,1.00067 -0.369684,4.551 -0.714576,1.90905 -1.370075,3.47279 -1.456661,3.47498 -0.08659,0.002 -0.355138,-0.21447 -0.59678,-0.48148 z m 1.275453,-4.68998 c 0.253465,-0.66368 0.418467,-1.24848 0.366675,-1.29955 -0.05179,-0.0511 -0.606227,0.20995 -1.232077,0.58004 l -1.137909,0.67289 0.588717,0.62666 c 0.323794,0.34467 0.67085,0.62666 0.771234,0.62666 0.100385,0 0.389896,-0.54301 0.64336,-1.2067 z m 48.769154,2.42193 c -2.26885,-2.70093 -2.29549,-2.74909 -1.77919,-3.21634 0.50904,-0.46068 0.55382,-0.44539 1.55258,0.52987 l 1.02843,1.00424 1.0815,-0.86911 c 0.59482,-0.47802 1.08149,-0.92135 1.08149,-0.9852 0,-0.0638 -0.37446,-0.58888 -0.83214,-1.16674 l -0.83214,-1.05067 0.53085,-0.53086 0.53086,-0.53085 1.95813,2.3372 c 2.95694,3.52937 2.76156,3.18991 2.19582,3.81505 -0.48953,0.54092 -0.49233,0.53971 -1.55787,-0.67478 l -1.06747,-1.21667 -1.15502,1.0051 -1.15502,1.0051 0.96539,1.1555 c 0.91532,1.09557 0.94223,1.18111 0.51871,1.6491 -0.24569,0.27147 -0.51754,0.49099 -0.60413,0.48782 -0.0866,-0.003 -1.19393,-1.23966 -2.46078,-2.74776 z m -29.05661,-0.0176 c -10.33972,-1.74292 -19.319122,-8.42699 -24.070135,-17.9173 -4.628074,-9.24474 -4.624488,-20.29388 0.0096,-29.55061 10.07342,-20.12199 36.894615,-24.56239 52.931125,-8.76303 4.74138,4.67126 8.21603,11.29274 9.35586,17.82904 0.52554,3.01363 0.52316,8.3614 -0.005,11.40742 -2.37241,13.68037 -13.28551,24.57248 -27.0284,26.97641 -2.77837,0.486 -8.36349,0.49501 -11.19296,0.0181 z m 9.94,-0.96846 2.01728,-0.30004 -1.35736,-1.37444 -1.35737,-1.37444 3.6897,-2.12906 3.6897,-2.12906 1.94236,1.95541 c 1.06829,1.07548 2.08801,1.89952 2.26603,1.8312 0.17802,-0.0683 1.1371,-0.66009 2.1313,-1.31507 8.73892,-5.75723 14.05815,-15.01769 14.53687,-25.30782 0.67877,-14.59003 -8.29006,-27.56966 -22.12365,-32.01722 -14.13143,-4.54332 -29.557205,1.2291 -37.25282,13.94021 -4.539201,7.49755 -5.789143,17.3947 -3.23633,25.62554 l 0.571833,1.84372 0.387782,-0.74011 c 0.27015,-0.5156 0.519766,-0.68946 0.822877,-0.57315 0.239303,0.0918 6.74925,3.81174 14.466554,8.26646 7.717304,4.45472 14.150524,8.09597 14.296044,8.09165 0.14552,-0.004 1.27661,-0.60328 2.51354,-1.33102 6.89256,-4.05522 26.22293,-15.15206 26.39196,-15.15064 0.10927,7.9e-4 0.39708,0.35044 0.6396,0.77672 l 0.44094,0.77504 -1.76385,1.04142 c -6.25717,3.69438 -27.75802,16.02649 -28.08686,16.1096 -0.21995,0.0556 -7.00269,-3.70872 -15.072743,-8.36514 -8.070056,-4.65643 -14.710498,-8.42856 -14.75654,-8.38251 -0.14425,0.14425 1.399487,3.39585 2.385193,5.02397 1.526881,2.52201 4.156098,5.69238 6.129771,7.39142 1.932842,1.66389 5.55971,4.14643 6.065538,4.15177 0.16323,0.002 1.070687,-0.8317 2.016572,-1.85206 l 1.719792,-1.8552 3.771777,2.17299 3.77177,2.173 -1.34801,1.36497 -1.34802,1.36497 1.80958,0.26255 c 2.55703,0.371 6.85815,0.38702 9.22919,0.0344 z m -11.4078,-17.33004 c -14.191294,-8.21029 -15.321813,-8.8283 -16.14966,-8.8283 -0.885349,0 -1.592241,0.62686 -2.38694,2.11667 l -0.49397,0.92605 -0.07721,-2.20527 c -0.09352,-2.67118 0.386892,-3.90292 1.797,-4.60735 0.83262,-0.41594 1.936293,-0.46265 10.940222,-0.46302 8.809318,-2.6e-4 10.126278,0.0528 10.945858,0.4417 1.74952,0.8302 1.88595,2.74166 0.44824,6.27989 -0.35068,0.86304 -0.59199,1.61478 -0.53624,1.67053 0.22192,0.22192 1.7931,-1.99323 2.66068,-3.75119 1.36603,-2.76794 1.97045,-5.67577 2.25716,-10.85905 0.13684,-2.47385 0.43615,-5.21229 0.66513,-6.08541 0.98207,-3.74484 2.87519,-6.19232 5.89698,-7.6238 1.61531,-0.7652 2.01087,-0.84243 4.2928,-0.83809 2.1559,0.004 2.7272,0.10426 4.0151,0.7039 1.7727,0.82537 3.70494,2.53018 4.60132,4.05974 1.29618,2.21176 1.72061,4.00886 1.99822,8.46075 0.42673,6.84331 1.33065,10.8724 2.96146,13.20019 0.52031,0.74268 0.52158,0.77516 0.0439,1.12448 -0.68588,0.50152 -0.81402,0.46047 -1.15848,-0.37113 -0.56754,-1.37017 -1.431,-2.20979 -2.29788,-2.23443 -0.60495,-0.0172 -3.49969,1.5274 -11.24383,5.9996 -5.73603,3.31252 -10.79507,6.24382 -11.24232,6.514 l -0.81318,0.49124 z m 23.50108,-16.93056 c 1.73191,-1.22363 2.16425,-2.35683 2.27489,-5.96265 l 0.0947,-3.08472 -2.87143,-0.0903 c -1.57928,-0.0496 -4.09182,-0.0526 -5.58341,-0.007 l -2.71198,0.0837 v 2.90134 c 0,4.01633 0.6844,5.50859 3.04271,6.63436 1.605,0.76617 4.31419,0.54244 5.75457,-0.47522 z m -33.776776,1.20561 c -0.822126,-0.20378 -2.8004,-1.18732 -2.802122,-1.39313 -2.07e-4,-0.0245 1.755965,-0.005 3.902604,0.0429 2.244063,0.0503 4.296579,-0.0309 4.829019,-0.19096 1.388327,-0.41739 2.901915,-1.8108 3.603425,-3.31733 0.56713,-1.21794 0.62498,-1.70115 0.62732,-5.24008 l 0.003,-3.89842 -7.34219,-0.0703 -7.342187,-0.0703 v -1.98437 -1.98438 l 7.861027,-0.0701 7.86103,-0.0701 0.008,5.8909 c 0.005,3.24 -0.10828,6.60528 -0.25094,7.4784 -0.33389,2.04354 -1.3306,3.47174 -3.03497,4.34883 -1.128091,0.58054 -1.694243,0.68127 -4.098618,0.72925 -1.534348,0.0306 -3.255343,-0.0597 -3.824433,-0.2008 z m -0.751229,-14.99192 c -0.545703,-0.0571 -1.438671,-0.0571 -1.984375,0 -0.545703,0.0571 -0.09922,0.10379 0.992188,0.10379 1.091406,0 1.537891,-0.0467 0.992187,-0.10379 z m 2.778125,0.0175 c -0.181901,-0.0734 -0.479557,-0.0734 -0.661458,0 -0.181901,0.0734 -0.03307,0.13345 0.330729,0.13345 0.363802,0 0.512631,-0.0601 0.330729,-0.13345 z m -24.901283,30.70873 c -0.455782,-1.25116 -0.762305,-2.38226 -0.681163,-2.51355 0.225509,-0.36488 0.910051,-0.28394 0.910051,0.1076 0,0.19047 0.160303,0.56553 0.35623,0.83348 0.341946,0.46764 0.447456,0.45416 2.631265,-0.33603 2.253217,-0.81531 2.276715,-0.81791 2.450208,-0.27128 0.210769,0.66407 -0.01637,0.82871 -2.130412,1.54419 -2.237607,0.7573 -2.322736,0.82983 -1.992736,1.6978 0.152202,0.40032 0.209321,0.83693 0.126931,0.97024 -0.40824,0.66054 -0.91315,0.0462 -1.670374,-2.03245 z m 76.728513,1.08325 c -1.36317,-0.4945 -2.52982,-0.95043 -2.59256,-1.01316 -0.0627,-0.0627 -0.0389,-0.41374 0.0531,-0.78 0.13916,-0.55447 0.37382,-0.69617 1.40194,-0.84658 0.67914,-0.0994 1.81656,-0.30333 2.52759,-0.45327 l 1.2928,-0.27263 -2.03164,-0.68649 c -1.71875,-0.58077 -2.01971,-0.76976 -1.95425,-1.22712 0.0426,-0.29735 0.13691,-0.52838 0.20967,-0.5134 0.0728,0.015 1.35269,0.42725 2.84428,0.91616 2.7175,0.89074 3.04477,1.16424 2.47311,2.06677 -0.12856,0.20296 -1.32792,0.56196 -2.70793,0.81055 l -2.47716,0.44622 1.98437,0.66671 c 1.50542,0.50578 1.98438,0.78378 1.98438,1.15178 0,0.26678 -0.11907,0.51848 -0.26459,0.55931 -0.14552,0.0408 -1.3799,-0.33035 -2.74308,-0.82485 z m -75.507244,-6.20158 c -1.418722,-0.25067 -2.636545,-0.51281 -2.706275,-0.58254 -0.06973,-0.0697 -0.159113,-0.4107 -0.198631,-0.7577 -0.0615,-0.54005 0.309217,-0.86561 2.573983,-2.26048 2.485773,-1.53099 2.658411,-1.59693 2.853743,-1.09003 0.159423,0.41372 0.04267,0.6713 -0.500619,1.10451 -0.649521,0.51791 -0.688063,0.6515 -0.462784,1.60407 0.205432,0.86866 0.374362,1.06125 1.029786,1.17403 0.558891,0.0962 0.80832,0.30537 0.868589,0.72852 0.100529,0.70581 0.08798,0.7061 -3.457792,0.0796 z m 0.591067,-1.53653 c -0.0087,-0.99034 -0.361308,-1.10446 -1.426472,-0.4616 l -1.028478,0.62071 0.898772,0.10961 c 0.494324,0.0603 1.047599,0.12867 1.229501,0.15196 0.181901,0.0233 0.328905,-0.16602 0.326677,-0.42068 z m 74.087387,0.51334 c 0,-0.6009 0.34509,-1.10888 0.75591,-1.11271 0.75437,-0.007 1.06618,-0.37663 1.24122,-1.47128 0.15411,-0.96374 0.10603,-1.09171 -0.51674,-1.37546 -0.47487,-0.21637 -0.68664,-0.51862 -0.68664,-0.97999 0,-0.36692 0.0583,-0.66713 0.1295,-0.66713 0.2466,0 5.42534,2.95866 5.55994,3.17645 0.0743,0.1203 0.0279,0.50086 -0.1032,0.8457 -0.20657,0.54331 -0.56869,0.68967 -2.71387,1.09687 -1.36152,0.25844 -2.74339,0.53498 -3.07081,0.61454 -0.32742,0.0796 -0.59531,0.0224 -0.59531,-0.12699 z m 4.84517,-1.86411 c 0.40159,-0.15837 0.32337,-0.26359 -0.48119,-0.64725 -1.06418,-0.50747 -1.45357,-0.41104 -1.45357,0.35999 0,0.38835 0.17738,0.50902 0.72761,0.49495 0.40018,-0.0102 0.9434,-0.10369 1.20715,-0.20769 z m -83.161839,-4.38416 c 0,-0.91875 0.01063,-0.92697 2.017905,-1.55983 1.109847,-0.34992 1.913519,-0.69616 1.785937,-0.76942 -0.127582,-0.0733 -1.035639,-0.39698 -2.017904,-0.71937 -1.746647,-0.57326 -1.785938,-0.60625 -1.785938,-1.49929 v -0.91314 l 2.976563,0.0748 c 2.859239,0.0719 2.979895,0.0983 3.06111,0.67012 0.08133,0.57266 0.0058,0.59595 -1.984375,0.61191 l -2.068923,0.0166 1.981983,0.71101 c 2.751123,0.98693 2.768349,1.43329 0.0857,2.22074 l -2.067683,0.60694 1.984375,0.13229 c 1.763889,0.1176 1.984375,0.19109 1.984375,0.66146 0,0.49338 -0.201326,0.53423 -2.976562,0.60398 l -2.976563,0.0748 z m 79.374999,-0.89793 c 0,-0.60674 0.22581,-0.92074 1.05833,-1.47167 0.76306,-0.50497 1.05834,-0.88388 1.05834,-1.35808 0,-0.60311 -0.0988,-0.65771 -1.19063,-0.65771 -1.09361,0 -1.19062,-0.0539 -1.19062,-0.66145 0,-0.63476 0.0668,-0.66155 1.65364,-0.66376 0.90951,-10e-4 2.27873,-0.0774 3.04271,-0.16915 l 1.38906,-0.16684 v 2.2448 c 0,1.89618 -0.0808,2.31795 -0.52039,2.71576 -0.69507,0.62903 -1.78749,0.59577 -2.45811,-0.0748 l -0.5458,-0.5458 -1.14827,0.79002 -1.14826,0.79003 z m 4.7625,-2.42912 c 0,-0.96563 -0.10134,-1.32292 -0.37523,-1.32292 -0.9018,0 -1.21227,0.33476 -1.21227,1.30713 0,1.15179 0.13546,1.3387 0.97014,1.3387 0.56444,0 0.61736,-0.11339 0.61736,-1.32291 z m -80.764061,-4.81478 c -2.304999,-1.41911 -2.579688,-1.66992 -2.579688,-2.35548 0,-0.42198 0.02977,-0.7712 0.06615,-0.77604 0.03638,-0.005 1.463038,-0.22521 3.17035,-0.48972 1.707312,-0.26451 3.152878,-0.43225 3.212369,-0.37276 0.325493,0.3255 -0.251631,1.12737 -0.916487,1.2734 -0.888923,0.19524 -0.910891,0.22371 -1.135708,1.47195 -0.150617,0.83626 -0.09233,0.98376 0.494417,1.2511 0.627898,0.28609 0.915351,1.18754 0.466726,1.46364 -0.109141,0.0672 -1.359297,-0.59257 -2.778125,-1.46609 z m 0.911644,-1.76785 c 0.110088,-0.75008 0.09529,-0.7597 -0.962158,-0.62506 -0.590681,0.0752 -1.108722,0.16504 -1.151203,0.19963 -0.09699,0.079 1.604379,1.17671 1.833145,1.18277 0.09262,0.002 0.218721,-0.33836 0.280216,-0.75734 z m 74.804987,1.5759 c -0.6453,-0.6453 -0.7734,-0.9891 -0.7734,-2.07566 0,-1.69626 0.46407,-2.10511 3.09834,-2.72965 2.596,-0.61547 2.45791,-0.62317 2.45791,0.13692 0,0.68519 -0.0253,0.69814 -2.38125,1.22 -1.78424,0.39522 -2.11667,0.64272 -2.11667,1.57595 0,1.29365 0.53982,1.4676 2.9482,0.95007 1.17162,-0.25177 2.16688,-0.4197 2.21169,-0.37319 0.0448,0.0465 0.12255,0.3226 0.17277,0.61351 0.0777,0.45031 -0.16435,0.59395 -1.62849,0.96627 -2.54108,0.64619 -3.09841,0.60647 -3.9891,-0.28422 z m -74.195277,-6.14243 c -1.455208,-0.58758 -2.680057,-1.10198 -2.721885,-1.14311 -0.04183,-0.0411 0.06023,-0.37387 0.226792,-0.73944 0.273232,-0.59968 0.538554,-0.6949 2.713419,-0.97381 1.325815,-0.17003 2.438598,-0.33717 2.47285,-0.37142 0.03425,-0.0343 -0.825141,-0.40109 -1.909762,-0.8152 -1.855622,-0.70847 -2.458435,-1.30657 -1.635247,-1.62246 0.185235,-0.0711 1.465157,0.33146 2.844271,0.89453 2.241054,0.91499 2.499754,1.09002 2.434781,1.64733 -0.09845,0.84448 -0.35465,0.95946 -2.608457,1.17066 -1.070037,0.10027 -1.996162,0.26425 -2.058056,0.36439 -0.06189,0.10015 0.708414,0.51985 1.711794,0.93268 1.620981,0.66692 1.794492,0.80633 1.556667,1.25072 -0.147213,0.27506 -0.293237,0.49412 -0.324497,0.48679 -0.03126,-0.007 -1.247462,-0.49408 -2.70267,-1.08166 z m 70.520767,0.31863 c -0.38154,-0.7129 -0.34172,-1.41408 0.11457,-2.01734 0.21365,-0.28247 0.39224,-0.94402 0.39687,-1.4701 0.011,-1.245 0.78076,-2.1978 2.21971,-2.74734 1.03164,-0.39398 1.24262,-0.39831 2.09325,-0.0429 1.09621,0.45803 1.75116,1.33639 1.93441,2.59428 0.16305,1.11917 -0.30818,2.02648 -1.45329,2.79817 -1.09744,0.73956 -2.26315,0.76807 -3.387,0.0828 -0.94008,-0.5732 -1.23716,-0.37927 -0.9812,0.64055 0.20847,0.8306 -0.51276,0.95514 -0.93732,0.16185 z m 5.05657,-2.39672 c 0.59654,-0.59655 0.74899,-0.93913 0.61811,-1.38907 -0.27395,-0.94179 -1.17848,-1.58195 -1.96309,-1.38934 -1.77232,0.4351 -2.54461,1.71261 -1.75959,2.91071 0.63754,0.97301 2.05987,0.91239 3.10457,-0.1323 z m -5.0589,-5.34572 c -0.37887,-0.62299 -0.43902,-0.93671 -0.2283,-1.19062 0.42543,-0.51261 0.58192,-0.43431 1.11673,0.55877 0.80969,1.5035 -0.006,2.08339 -0.88843,0.63185 z M 76.375154,183.9652 c -1.161381,-0.85873 -2.153593,-1.68729 -2.204915,-1.84126 -0.09537,-0.28612 1.340186,-2.26948 2.063468,-2.85089 0.612585,-0.49242 1.691175,-0.3999 2.335451,0.20033 0.781308,0.7279 0.748182,1.96697 -0.08167,3.05497 l -0.660731,0.86626 0.842565,0.65941 c 0.720567,0.56392 0.792391,0.71986 0.496042,1.07694 -0.190587,0.22964 -0.421241,0.41259 -0.512563,0.40655 -0.09132,-0.006 -1.116262,-0.71359 -2.277643,-1.57231 z m 1.301424,-2.00064 c 0.251113,-0.38325 0.370573,-0.89639 0.277184,-1.19063 -0.239968,-0.75607 -1.340676,-0.66744 -1.877028,0.15113 -0.410011,0.62576 -0.407791,0.70145 0.03491,1.19063 0.631016,0.69726 1.034583,0.65829 1.564936,-0.15113 z m 60.742342,1.13051 c -0.72983,-0.90198 -1.32125,-1.70122 -1.31428,-1.77608 0.007,-0.0749 1.03574,-0.94048 2.28617,-1.92357 1.78044,-1.39981 2.3515,-1.72272 2.63316,-1.48896 0.55816,0.46324 0.42979,0.84409 -0.50204,1.48937 -0.47195,0.32682 -1.31424,0.98246 -1.87175,1.45698 l -1.01367,0.86277 0.94495,1.18885 c 1.06551,1.34053 1.10797,1.46853 0.55725,1.67986 -0.26041,0.0999 -0.84016,-0.4021 -1.71979,-1.48922 z m -58.013846,-4.54419 -2.050432,-2.18592 1.85246,-1.64637 c 1.49771,-1.33109 1.884568,-1.5627 2.020122,-1.20945 0.113833,0.29664 -0.198962,0.81048 -0.97427,1.60046 -1.125293,1.14659 -1.134752,1.17148 -0.649172,1.70804 l 0.492758,0.54449 1.141408,-1.12021 c 0.89211,-0.87554 1.211233,-1.05038 1.4611,-0.80051 0.249867,0.24987 0.08139,0.56505 -0.771366,1.44307 -1.050696,1.08183 -1.074717,1.14433 -0.649325,1.68966 l 0.441733,0.56628 1.406566,-1.197 c 1.056064,-0.89872 1.482022,-1.12155 1.709368,-0.8942 0.227346,0.22734 -0.121251,0.73065 -1.398923,2.01978 -0.935949,0.94435 -1.764695,1.70592 -1.84166,1.69239 -0.07696,-0.0135 -1.062629,-1.00826 -2.190367,-2.21051 z m 55.382276,1.33112 c -0.19502,-0.23499 -0.26267,-0.7024 -0.16561,-1.1443 0.13203,-0.60115 0.0127,-0.89211 -0.61115,-1.48978 -0.76028,-0.72839 -0.78882,-0.73381 -1.47947,-0.28129 -0.65394,0.42849 -0.73535,0.43031 -1.14004,0.0256 -0.54852,-0.54852 -0.50716,-0.58418 2.60853,-2.24922 l 2.53785,-1.35625 0.54708,0.59076 0.54709,0.59075 -1.05451,2.64583 c -1.20215,3.01627 -1.33557,3.21516 -1.78977,2.66788 z m 0.77545,-3.16474 c 0,-0.055 0.17849,-0.52716 0.39664,-1.04927 l 0.39664,-0.94929 -0.99195,0.56791 c -1.34501,0.77003 -1.32088,0.73249 -0.74253,1.15539 0.48915,0.35767 0.9412,0.48988 0.9412,0.27526 z m -51.074764,-2.60385 -1.601999,-2.45554 0.561837,-0.45575 c 0.540571,-0.4385 0.64098,-0.41596 2.6523,0.59531 1.149755,0.57808 2.157071,1.05106 2.238484,1.05106 0.08142,0 -0.342403,-0.72219 -0.941814,-1.60486 -1.037516,-1.52781 -1.201295,-2.36882 -0.459536,-2.35974 0.186468,0.002 1.047919,1.08746 1.914337,2.4115 1.501278,2.29422 1.551744,2.42457 1.073909,2.77397 -0.684654,0.50063 -0.666226,0.50487 -3.077265,-0.70738 -1.174853,-0.5907 -2.044444,-0.91812 -1.932424,-0.7276 0.112016,0.19052 0.660352,1.0262 1.21852,1.85706 0.978008,1.45581 0.995624,1.52095 0.485251,1.79409 -0.476991,0.25528 -0.688737,0.0395 -2.1316,-2.17212 z m 42.706644,-0.004 c -0.60853,-0.27533 -0.88098,-1.48214 -0.90531,-4.00998 l -0.013,-1.35213 -0.91667,1.78593 c -0.84939,1.65485 -1.44453,2.15384 -1.82827,1.53293 -0.12306,-0.19911 1.98149,-4.82237 2.40353,-5.28007 0.0553,-0.06 0.39878,0.0267 0.7632,0.19276 0.61574,0.28055 0.66389,0.4379 0.68117,2.22579 0.0287,2.96995 0.24165,3.16497 1.24162,1.13714 0.87151,-1.76734 0.99505,-1.88241 1.60545,-1.49545 0.27551,0.17466 0.0909,0.73503 -0.84845,2.57564 -1.56211,3.06082 -1.50726,2.9933 -2.18325,2.68745 z m -36.569266,-3.84079 c -0.605549,-1.41882 -1.100799,-2.66043 -1.100555,-2.75911 6.9e-4,-0.28152 2.849665,-1.27578 3.65566,-1.27578 1.998584,0 3.450723,3.03633 2.263072,4.73194 -0.401021,0.57253 -2.774874,1.8742 -3.428672,1.88006 -0.158679,0.001 -0.783955,-1.15828 -1.389505,-2.57711 z m 3.067072,0.73051 c 0.71094,-0.43347 0.859895,-0.68746 0.859895,-1.46625 0,-1.34393 -1.046466,-2.36225 -2.192083,-2.13313 -0.458748,0.0918 -0.929003,0.26173 -1.045009,0.37774 -0.200999,0.201 1.108869,3.74271 1.385009,3.74488 0.07276,5.9e-4 0.519245,-0.23488 0.992188,-0.52324 z m 27.796784,0.31621 c -0.28126,-0.0549 -0.47782,-0.39141 -0.52916,-0.90592 -0.0689,-0.69007 -0.24783,-0.8761 -1.14002,-1.18496 -1.0222,-0.35388 -1.077,-0.34312 -1.60499,0.31529 -0.4342,0.54143 -0.66867,0.63654 -1.13972,0.46229 -0.57178,-0.21152 -0.53456,-0.29492 1.03752,-2.32458 0.89682,-1.15786 1.78036,-2.31679 1.96343,-2.57542 0.26577,-0.37546 0.46887,-0.41851 1.00781,-0.21361 0.59452,0.22604 0.69574,0.4555 0.84937,1.92544 0.0959,0.91785 0.1359,2.32582 0.0888,3.12882 -0.0706,1.20396 -0.16406,1.44468 -0.53307,1.37265 z m -0.74314,-4.02328 c 0,-0.58208 -0.0371,-1.05833 -0.0825,-1.05833 -0.0454,0 -0.35704,0.37128 -0.69254,0.82507 -0.49362,0.66766 -0.54097,0.8688 -0.24819,1.05428 0.74467,0.47176 1.02326,0.24823 1.02326,-0.82102 z m -22.754165,3.1083 c 0,-0.0367 -0.355037,-1.30884 -0.788972,-2.827 -0.433935,-1.51816 -0.761357,-2.78304 -0.727604,-2.81085 0.03375,-0.0278 0.310475,-0.12693 0.614939,-0.22029 0.507357,-0.15557 0.621885,0.067 1.371783,2.66619 0.450016,1.55977 0.759429,2.93105 0.687579,3.04729 -0.11509,0.18622 -1.157725,0.3165 -1.157725,0.14466 z m 2.328175,-3.54015 c -0.2239,-1.58149 -0.36136,-2.92677 -0.30547,-2.98951 0.0559,-0.0627 0.72426,-0.19395 1.48526,-0.29158 2.52937,-0.32449 3.82941,0.42722 4.08925,2.3645 0.29525,2.20123 -0.75304,3.30912 -3.42867,3.62358 l -1.43328,0.16846 z m 3.5588,1.03169 c 0.51373,-0.46296 0.60913,-1.68454 0.19238,-2.46325 -0.38933,-0.72747 -1.19954,-1.08653 -1.99897,-0.88589 -0.67273,0.16885 -0.68789,0.21733 -0.51888,1.66005 0.27284,2.329 0.35133,2.48341 1.15979,2.28168 0.38647,-0.0964 0.91102,-0.36309 1.16568,-0.59259 z m 10.73816,1.60337 c -0.24228,-0.0642 -0.50295,-0.27942 -0.57928,-0.47834 -0.0763,-0.19892 -0.45068,-0.85574 -0.83188,-1.4596 -0.81778,-1.29545 -1.29152,-1.13324 -1.55804,0.53348 -0.12886,0.80585 -0.28837,1.05333 -0.67886,1.05333 -0.28074,0 -0.56057,-0.0893 -0.62186,-0.19843 -0.0816,-0.14535 0.2923,-3.77638 0.59943,-5.82084 0.005,-0.0364 0.30199,-0.0661 0.65893,-0.0661 0.6268,0 0.64341,0.0471 0.48569,1.37885 l -0.1633,1.37884 1.51997,-1.20579 c 1.17861,-0.935 1.67597,-1.17597 2.21459,-1.07301 l 0.69463,0.13279 -0.89545,0.68635 c -2.15258,1.64992 -2.06314,1.30258 -0.83581,3.24592 0.60125,0.95202 1.09319,1.80738 1.09319,1.90079 0,0.18226 -0.39387,0.17933 -1.10195,-0.008 z m -7.19169,-1.72682 c -0.0926,-0.77134 -0.16946,-2.14657 -0.17073,-3.05608 -0.002,-1.58811 0.0239,-1.65364 0.65916,-1.65364 0.65604,0 0.66182,0.0206 0.70556,2.51354 0.0243,1.38245 0.054,2.7219 0.0661,2.97656 0.0133,0.27842 -0.19998,0.49472 -0.53483,0.54253 -0.48923,0.0699 -0.57733,-0.0908 -0.7253,-1.32291 z"
       id="path857" />
  </g>
</svg>
