<?xml version="1.0" encoding="UTF-8" standalone="no"?>
<!-- Created with Inkscape (http://www.inkscape.org/) -->

<svg
   width="210mm"
   height="297mm"
   viewBox="0 0 210 297"
   version="1.1"
   id="svg5"
   inkscape:version="1.1.1 (3bf5ae0d25, 2021-09-20)"
   sodipodi:docname="Poster_Ramadhan1443.svg"
   xmlns:inkscape="http://www.inkscape.org/namespaces/inkscape"
   xmlns:sodipodi="http://sodipodi.sourceforge.net/DTD/sodipodi-0.dtd"
   xmlns:xlink="http://www.w3.org/1999/xlink"
   xmlns="http://www.w3.org/2000/svg"
   xmlns:svg="http://www.w3.org/2000/svg">
  <sodipodi:namedview
     id="namedview7"
     pagecolor="#ffffff"
     bordercolor="#666666"
     borderopacity="1.0"
     inkscape:pageshadow="2"
     inkscape:pageopacity="0.0"
     inkscape:pagecheckerboard="0"
     inkscape:document-units="mm"
     showgrid="false"
     inkscape:zoom="0.31370423"
     inkscape:cx="702.89138"
     inkscape:cy="801.71057"
     inkscape:current-layer="layer1"
     showguides="false"
     inkscape:guide-bbox="true"
     inkscape:snap-global="false">
    <sodipodi:guide
       position="135.79006,234.58718"
       orientation="0,-1"
       id="guide19536" />
    <sodipodi:guide
       position="189.76871,-51.331025"
       orientation="0,-1"
       id="guide19538" />
  </sodipodi:namedview>
  <defs
     id="defs2">
    <linearGradient
       inkscape:collect="always"
       id="linearGradient227904">
      <stop
         style="stop-color:#000000;stop-opacity:1;"
         offset="0"
         id="stop227900" />
      <stop
         style="stop-color:#000000;stop-opacity:0;"
         offset="1"
         id="stop227902" />
    </linearGradient>
    <linearGradient
       inkscape:collect="always"
       id="linearGradient148816">
      <stop
         style="stop-color:#1a1a1a;stop-opacity:1;"
         offset="0"
         id="stop148812" />
      <stop
         style="stop-color:#1a1a1a;stop-opacity:0;"
         offset="1"
         id="stop148814" />
    </linearGradient>
    <rect
       x="-507.16251"
       y="135.24334"
       width="583.8004"
       height="957.97363"
       id="rect2102" />
    <clipPath
       clipPathUnits="userSpaceOnUse"
       id="clipPath1367-0-9-1-0-9-8-3-0-9-36-8-3-9-6-7-8-1">
      <rect
         ry="64.946495"
         y="376.11179"
         x="138.44562"
         height="129.89299"
         width="129.89299"
         id="rect1369-9-7-7-8-4-7-4-6-9-7-7-8-2-2-6-6-1"
         style="opacity:1;fill:#ff3d00;fill-opacity:1;fill-rule:nonzero;stroke:none;stroke-width:0.327;stroke-linecap:round;stroke-linejoin:round;stroke-miterlimit:4;stroke-dasharray:none;stroke-dashoffset:0;stroke-opacity:1;paint-order:fill markers stroke" />
    </clipPath>
    <clipPath
       clipPathUnits="userSpaceOnUse"
       id="clipPath15256">
      <rect
         style="opacity:1;fill:#000000;fill-opacity:1;stroke:none;stroke-width:0.782;stroke-linecap:round;stroke-linejoin:round"
         id="rect15258"
         width="285.75"
         height="357.1875"
         x="10.120997"
         y="26.98933"
         ry="0" />
    </clipPath>
    <clipPath
       clipPathUnits="userSpaceOnUse"
       id="clipPath132338">
      <rect
         style="fill:#9e6e57;fill-opacity:1;stroke:none;stroke-width:1.4086;stroke-linecap:round;stroke-linejoin:round"
         id="rect132340"
         width="296.24976"
         height="422.34579"
         x="-214.99994"
         y="-101.34616"
         ry="16.883192" />
    </clipPath>
    <clipPath
       clipPathUnits="userSpaceOnUse"
       id="clipPath134249">
      <rect
         style="display:inline;mix-blend-mode:normal;fill:#e7e7e7;fill-opacity:1;stroke:none;stroke-width:1.4086;stroke-linecap:round;stroke-linejoin:round"
         id="rect134251"
         width="599.16595"
         height="297.11902"
         x="-207.27484"
         y="243.923" />
    </clipPath>
    <filter
       inkscape:collect="always"
       style="color-interpolation-filters:sRGB"
       id="filter146849"
       x="-0.25202113"
       y="-0.40777882"
       width="1.5040423"
       height="1.8155576">
      <feGaussianBlur
         inkscape:collect="always"
         stdDeviation="12.767652"
         id="feGaussianBlur146851" />
    </filter>
    <linearGradient
       inkscape:collect="always"
       xlink:href="#linearGradient148816"
       id="linearGradient148818"
       x1="137.29626"
       y1="311.45825"
       x2="188.66023"
       y2="139.57983"
       gradientUnits="userSpaceOnUse" />
    <filter
       inkscape:collect="always"
       style="color-interpolation-filters:sRGB"
       id="filter153602"
       x="-0.98230415"
       y="-0.49115207"
       width="2.9646083"
       height="1.9823041">
      <feGaussianBlur
         inkscape:collect="always"
         stdDeviation="6.1024163"
         id="feGaussianBlur153600" />
    </filter>
    <filter
       inkscape:collect="always"
       style="color-interpolation-filters:sRGB"
       id="filter149522"
       x="-1.0436836"
       y="-0.52184179"
       width="3.0873672"
       height="2.0436836">
      <feGaussianBlur
         inkscape:collect="always"
         stdDeviation="6.483727"
         id="feGaussianBlur149524" />
    </filter>
    <clipPath
       clipPathUnits="userSpaceOnUse"
       id="clipPath132338-5">
      <rect
         style="fill:#9e6e57;fill-opacity:1;stroke:none;stroke-width:1.4086;stroke-linecap:round;stroke-linejoin:round"
         id="rect132340-0"
         width="296.24976"
         height="422.34579"
         x="-214.99994"
         y="-101.34616"
         ry="16.883192" />
    </clipPath>
    <clipPath
       clipPathUnits="userSpaceOnUse"
       id="clipPath132338-5-7">
      <rect
         style="fill:#9e6e57;fill-opacity:1;stroke:none;stroke-width:1.4086;stroke-linecap:round;stroke-linejoin:round"
         id="rect132340-0-7"
         width="296.24976"
         height="422.34579"
         x="-214.99994"
         y="-101.34616"
         ry="16.883192" />
    </clipPath>
    <filter
       inkscape:collect="always"
       style="color-interpolation-filters:sRGB"
       id="filter188297"
       x="-0.86273911"
       y="-0.86273911"
       width="2.7254782"
       height="2.7254782">
      <feGaussianBlur
         inkscape:collect="always"
         stdDeviation="35.776046"
         id="feGaussianBlur188299" />
    </filter>
    <linearGradient
       inkscape:collect="always"
       xlink:href="#linearGradient227904"
       id="linearGradient227906"
       x1="354.7067"
       y1="65.960854"
       x2="303.33975"
       y2="65.960854"
       gradientUnits="userSpaceOnUse" />
  </defs>
  <g
     inkscape:label="Layer 1"
     inkscape:groupmode="layer"
     id="layer1">
    <rect
       style="display:inline;fill:#808080;fill-opacity:1;stroke:none;stroke-width:0.782;stroke-linecap:round;stroke-linejoin:round"
       id="rect146019"
       width="354.25302"
       height="461.60242"
       x="-8.3493977"
       y="-11.927723" />
    <text
       xml:space="preserve"
       transform="scale(0.26458333)"
       id="text2100"
       style="font-weight:800;font-size:16px;line-height:1.05;font-family:Metropolis;-inkscape-font-specification:'Metropolis Ultra-Bold';white-space:pre;shape-inside:url(#rect2102)">TA'AWWUN RAMADHAN MUBAROK 1443 H

Masjid Al-Istiqlal Tambun

KEGIATAN
1. Ifthor Ramadhan
2. Sholat Tarawih
3. Kajian Ramadhan
4. Santun Yatim, Janda, Lansia &amp; Du'afa
5. Pembelian Air Mineral &amp; Kurma
6. I'tikaf Ramadhan
7. Penerimaan &amp; Penyaluran Zakat, Infaq &amp; Shodaqoh
8. Sholat 'iedul Fithri
9. Dll

Hamba Allah Rp. 1.000.000,- kirim ke &quot;no Ustadz Munzir&quot;</text>
    <g
       id="g182457"
       style="fill:#ffffff;fill-opacity:1;stroke-width:0.703703"
       transform="matrix(1.4210547,0,0,1.4210547,-65.698026,-46.876428)" />
    <image
       width="1065.7417"
       height="1437.5695"
       preserveAspectRatio="none"
       xlink:href="IMG_20220224_181338-01.jpeg"
       id="image13394"
       x="-1564.3693"
       y="-609.98407" />
    <g
       id="g228396"
       inkscape:export-filename="D:\Ichsan\design\Istiqlal\DKM\Ramadhan 1443\TaawunRamadhan1443.png"
       inkscape:export-xdpi="96"
       inkscape:export-ydpi="96">
      <g
         id="g15252"
         clip-path="url(#clipPath15256)"
         style="display:inline">
        <rect
           style="opacity:1;fill:#1a1a1a;fill-opacity:1;stroke:none;stroke-width:0.782;stroke-linecap:round;stroke-linejoin:round"
           id="rect80143"
           width="319.66266"
           height="423.43375"
           x="-3.5783134"
           y="15.506024" />
        <g
           id="g177794"
           transform="matrix(0.69661822,0,0,0.6947401,-95.61322,23.355075)"
           style="stroke-width:1.43745">
          <g
             id="g102194"
             transform="matrix(0.5551607,0,0,0.5551607,121.88976,92.530303)"
             style="stroke-width:2.58924">
            <g
               id="g90865"
               style="stroke-width:1.85449"
               transform="matrix(1.3962025,0,0,1.3962025,-73.372635,-51.857222)">
              <g
                 id="g80119"
                 transform="matrix(0.85847529,0,0,0.85847529,89.668762,-19.773922)"
                 style="stroke-width:2.16019">
                <rect
                   style="opacity:1;fill:#242527;fill-opacity:1;stroke:none;stroke-width:1.68927;stroke-linecap:round;stroke-linejoin:round"
                   id="rect80387"
                   width="498.3812"
                   height="364.29141"
                   x="-240.26201"
                   y="-42.332249" />
                <image
                   width="385.53204"
                   height="520.04065"
                   preserveAspectRatio="none"
                   xlink:href="IMG_20220224_181338-01.jpeg"
                   id="image78653"
                   x="-86.666069"
                   y="-115.78992"
                   style="stroke-width:5.97157" />
              </g>
            </g>
            <rect
               style="display:inline;mix-blend-mode:normal;fill:url(#linearGradient148818);fill-opacity:1;stroke:none;stroke-width:2.02479;stroke-linecap:round;stroke-linejoin:round"
               id="rect90889"
               width="599.16595"
               height="464.49408"
               x="-207.27484"
               y="203.18825" />
          </g>
          <g
             id="g177778"
             style="stroke-width:1.43745">
            <ellipse
               style="opacity:0.429658;fill:#bc8268;fill-opacity:1;stroke:none;stroke-width:0.178705;stroke-linecap:round;stroke-linejoin:round;filter:url(#filter153602)"
               id="ellipse151763"
               cx="-236.22054"
               cy="323.53922"
               rx="7.4548192"
               ry="14.909638"
               transform="matrix(1.4818098,-6.6752594,5.5301895,1.7886304,-1404.4609,-1991.8003)" />
            <ellipse
               style="opacity:0.205323;fill:#b48169;fill-opacity:1;stroke:none;stroke-width:0.319479;stroke-linecap:round;stroke-linejoin:round;filter:url(#filter149522)"
               id="path149440"
               cx="-236.22054"
               cy="323.53922"
               rx="7.4548192"
               ry="14.909638"
               transform="matrix(0.82772058,-3.7390887,3.0890953,1.0018858,-533.02389,-891.01537)" />
          </g>
          <rect
             style="opacity:1;fill:url(#linearGradient227906);fill-opacity:1;stroke:none;stroke-width:1.12408;stroke-linecap:round;stroke-linejoin:round"
             id="rect227770"
             width="87.323761"
             height="274.69751"
             x="296.49084"
             y="-5.2888155" />
        </g>
        <rect
           style="fill:#77a25c;fill-opacity:1;stroke:none;stroke-width:0.782;stroke-linecap:round;stroke-linejoin:round"
           id="rect206682"
           width="115.07883"
           height="64.099655"
           x="30.484131"
           y="0.98812437" />
        <g
           id="g70169" />
        <circle
           style="fill:#000000;fill-opacity:1;stroke:none;stroke-width:0.499642;stroke-linecap:round;stroke-linejoin:round;filter:url(#filter188297)"
           id="path188215"
           cx="156.03206"
           cy="111.33098"
           r="49.761574"
           transform="matrix(1.5651225,0,0,1.5651225,-28.71636,0.76231053)" />
        <g
           id="g185847"
           transform="matrix(1.0373125,0,0,1.0373125,50.491536,10.54618)"
           style="fill:#ffffff;fill-opacity:1;stroke-width:0.964027">
          <text
             xml:space="preserve"
             style="font-weight:800;font-size:9.94624px;line-height:0.75;font-family:Metropolis;-inkscape-font-specification:'Metropolis Ultra-Bold';text-align:start;text-anchor:start;white-space:pre;inline-size:98.2029;fill:#ffffff;fill-opacity:1;stroke-width:0.0981722"
             x="369.04178"
             y="174.2401"
             id="text7852"
             transform="matrix(2.4600644,0,0,2.4600644,-814.99419,-338.88614)"><tspan
               x="393.52942"
               y="174.2401"
               id="tspan189884"
               style="text-align:start;text-anchor:start;stroke-width:0.0981722"><tspan
                 style="font-weight:bold;font-family:'Playfair Display';-inkscape-font-specification:'Playfair Display Bold';text-align:start;text-anchor:start;stroke-width:0.0981722"
                 id="tspan189882">Ta'awun
</tspan></tspan><tspan
               x="393.52942"
               y="181.86591"
               id="tspan189888"
               style="text-align:start;text-anchor:start;stroke-width:0.0981722"><tspan
                 style="font-weight:bold;font-family:'Playfair Display';-inkscape-font-specification:'Playfair Display Bold';text-align:start;text-anchor:start;stroke-width:0.0981722"
                 id="tspan189886">Ramadhan
</tspan></tspan><tspan
               x="393.52942"
               y="189.49171"
               id="tspan189892"
               style="text-align:start;text-anchor:start;stroke-width:0.0981722"><tspan
                 style="font-weight:bold;font-family:'Playfair Display';-inkscape-font-specification:'Playfair Display Bold';text-align:start;text-anchor:start;stroke-width:0.0981722"
                 id="tspan189890">Mubarok</tspan></tspan></text>
          <text
             xml:space="preserve"
             style="font-weight:800;font-size:9.94624px;line-height:0.95;font-family:Metropolis;-inkscape-font-specification:'Metropolis Ultra-Bold';white-space:pre;inline-size:98.2029;fill:#759f5a;fill-opacity:1;stroke-width:0.139022"
             x="368.99704"
             y="174.2401"
             id="text94785"
             transform="matrix(1.7372118,-0.11724128,0,1.7372118,-550.12435,-114.53276)"><tspan
               x="368.99704"
               y="174.2401"
               id="tspan189896"
               style="fill:#759f5a;fill-opacity:1;stroke-width:0.139022"><tspan
                 style="font-weight:bold;font-family:Amiri;-inkscape-font-specification:'Amiri Bold';fill:#759f5a;fill-opacity:1;stroke-width:0.139022"
                 id="tspan189894">1443 H</tspan></tspan></text>
        </g>
        <rect
           style="opacity:1;fill:#ffffff;fill-opacity:1;stroke:none;stroke-width:0.782;stroke-linecap:round;stroke-linejoin:round"
           id="rect178487"
           width="334.83633"
           height="232.84288"
           x="-16.86833"
           y="198.14293" />
        <g
           id="g155291"
           transform="translate(0,24.459079)">
          <g
             id="g155285">
            <rect
               style="opacity:1;fill:#61834b;fill-opacity:1;stroke:none;stroke-width:0.781999;stroke-linecap:round;stroke-linejoin:round"
               id="rect92583"
               width="385.98883"
               height="254.06024"
               x="-18.001154"
               y="348.11786" />
            <ellipse
               style="opacity:0.38403;mix-blend-mode:normal;fill:#000000;fill-opacity:1;stroke:none;stroke-width:0.782;stroke-linecap:round;stroke-linejoin:round;filter:url(#filter146849)"
               id="path146767"
               cx="211.12048"
               cy="407.33133"
               rx="60.793243"
               ry="37.572285" />
          </g>
          <rect
             style="opacity:1;fill:#77a25c;fill-opacity:1;stroke:none;stroke-width:0.781999;stroke-linecap:round;stroke-linejoin:round"
             id="rect86817"
             width="385.98883"
             height="254.06024"
             x="232.23924"
             y="348.11786" />
        </g>
      </g>
      <g
         id="g9649"
         transform="matrix(0.91577958,0,0,0.91577958,-23.369623,8.5415623)"
         style="fill:#ffffff;stroke-width:1.09196">
        <text
           xml:space="preserve"
           style="font-weight:800;font-size:9.94624px;line-height:1.05;font-family:Metropolis;-inkscape-font-specification:'Metropolis Ultra-Bold';white-space:pre;inline-size:98.2029;fill:#61834b;fill-opacity:1;stroke-width:0.271524"
           x="368.99704"
           y="174.2401"
           id="text254617"
           transform="matrix(1.0075025,0,0,1.0075025,-295.01097,156.5068)"><tspan
             x="368.99704"
             y="174.2401"
             id="tspan7741"
             style="font-style:normal;font-variant:normal;font-weight:900;font-stretch:normal;font-family:'Playfair Display';-inkscape-font-specification:'Playfair Display Heavy';fill:#61834b;fill-opacity:1;stroke-width:0.271524">Konfirmasi :</tspan></text>
        <text
           xml:space="preserve"
           style="font-weight:800;font-size:9.94624px;line-height:1.15;font-family:Metropolis;-inkscape-font-specification:'Metropolis Ultra-Bold';white-space:pre;inline-size:280.057;fill:#202121;fill-opacity:1;stroke-width:0.271524"
           x="368.99704"
           y="174.2401"
           id="text254623"
           transform="matrix(0.66415703,0,0,0.66415703,-168.28099,226.89714)"><tspan
             x="368.99704"
             y="174.2401"
             id="tspan7743"
             style="font-style:normal;font-variant:normal;font-weight:normal;font-stretch:normal;font-family:Assistant;-inkscape-font-specification:Assistant;fill:#202121;fill-opacity:1;stroke-width:0.271524"><tspan
   style="font-style:normal;font-variant:normal;font-weight:bold;font-stretch:normal;font-family:Assistant;-inkscape-font-specification:'Assistant Bold';fill:#202121;fill-opacity:1;stroke-width:0.271524"
   id="tspan171855">0812-9895-1014</tspan>
Admin</tspan></text>
        <text
           xml:space="preserve"
           style="font-weight:800;font-size:9.94624px;line-height:1.15;font-family:Metropolis;-inkscape-font-specification:'Metropolis Ultra-Bold';white-space:pre;inline-size:280.057;fill:#202121;fill-opacity:1;stroke-width:0.271524"
           x="368.99704"
           y="174.2401"
           id="text173231"
           transform="matrix(0.66415703,0,0,0.66415703,-168.28099,245.33147)"><tspan
             x="368.99704"
             y="174.2401"
             id="tspan173229"
             style="font-style:normal;font-variant:normal;font-weight:normal;font-stretch:normal;font-family:Assistant;-inkscape-font-specification:Assistant;fill:#202121;fill-opacity:1;stroke-width:0.271524"><tspan
   style="font-style:normal;font-variant:normal;font-weight:bold;font-stretch:normal;font-family:Assistant;-inkscape-font-specification:'Assistant Bold';fill:#202121;fill-opacity:1;stroke-width:0.271524"
   id="tspan173225">0857-7955-1858</tspan>
Ustadz M. Abdurrahman Munzir</tspan></text>
      </g>
      <g
         id="g254715"
         transform="matrix(0.6152111,0,0,0.6152111,473.48267,-249.37402)"
         inkscape:export-filename="D:\Ichsan\design\Istiqlal\DKM\Serba-Serbi Video Kajian\TulisanMasjid.png"
         inkscape:export-xdpi="228.825"
         inkscape:export-ydpi="228.825"
         style="fill:#ffffff">
        <g
           id="g254695"
           clip-path="url(#clipPath1367-0-9-1-0-9-8-3-0-9-36-8-3-9-6-7-8-1)"
           transform="matrix(0.25003641,0,0,0.25003641,-742.05043,370.58447)"
           style="display:inline;fill:#ffffff">
          <image
             xlink:href="../../WhatsApp%20Image%202018-07-19%20at%2019.57.40.jpeg"
             width="168.0304"
             height="168.0304"
             preserveAspectRatio="none"
             id="image254693"
             x="119.74146"
             y="360.51761"
             style="fill:#ffffff" />
        </g>
        <path
           style="color:#000000;fill:#ffffff;fill-opacity:1;stroke-linecap:round;stroke-linejoin:round;-inkscape-stroke:none"
           d="m -664.20117,464.61803 a 0.44780949,0.44780949 0 0 0 -0.44727,0.44726 v 31.59961 a 0.44780949,0.44780949 0 0 0 0.44727,0.44727 0.44780949,0.44780949 0 0 0 0.44726,-0.44727 v -31.59961 a 0.44780949,0.44780949 0 0 0 -0.44726,-0.44726 z"
           id="path254697" />
        <g
           id="g254713"
           transform="translate(-36.522258,-57.512648)"
           style="fill:#ffffff;fill-opacity:1">
          <g
             id="g254707"
             transform="matrix(2.6439603,0,0,2.667828,-112.72401,-17049.146)"
             style="fill:#ffffff;fill-opacity:1;stroke-width:1.04603">
            <path
               inkscape:connector-curvature="0"
               id="path254699"
               d="m -188.99309,6592.63 c -0.0992,0 -0.19822,0 -0.26528,0.014 -0.4126,0.056 -0.77699,0.22 -1.09073,0.4892 -0.33793,0.2896 -0.58232,0.7009 -0.67355,1.1329 -0.0585,0.2754 -0.0599,0.5909 0,0.8648 0.0636,0.3084 0.21272,0.6248 0.41681,0.8804 0.0687,0.087 0.22581,0.2431 0.31208,0.3121 0.25026,0.1997 0.54391,0.3417 0.8527,0.4122 l -2.6e-4,-2e-4 c 0.10432,0.025 0.14325,0.027 0.14999,0.011 0.012,-0.022 0.012,-1.4224 0,-1.4389 0,0 -0.012,0 -0.012,-0.011 h -3.8e-4 v 0 c -0.0165,-0.011 -0.0687,-0.011 -0.25585,-0.011 h -0.25751 V 6595 v -0.2853 h 0.25763 c 0.23868,0 0.25777,0 0.26489,-0.014 0,-0.011 0.012,-0.1498 0.012,-0.3231 0,-0.2819 0.012,-0.3145 0.0203,-0.373 0.0523,-0.1972 0.13711,-0.3281 0.27419,-0.4191 0.0763,-0.051 0.1389,-0.078 0.23333,-0.1015 0.0624,-0.016 0.0879,-0.018 0.26744,-0.017 0.1392,5e-4 0.2285,0 0.30037,0.014 0.0573,0.011 0.10568,0.016 0.10822,0.018 0,0 0.012,0.1106 0.012,0.2408 v 0.2365 h -0.16858 c -0.1133,0 -0.1813,0.011 -0.20814,0.016 -0.11705,0.034 -0.19213,0.1106 -0.22164,0.2239 -0.0153,0.061 -0.0179,0.4709 0,0.4863 0.012,0.011 0.0814,0.011 0.28537,0.011 h 0.27596 l -5e-4,0.018 c -1.2e-4,0.011 -0.0191,0.1374 -0.0421,0.2834 l -0.0407,0.2657 h -0.24174 -0.242 v 0.7277 c 0,0.6681 0,0.7276 0.012,0.7329 0.0318,0.013 0.27609,-0.049 0.42418,-0.105 0.1157,-0.044 0.28677,-0.1312 0.39173,-0.1999 0.13442,-0.088 0.23755,-0.1741 0.35688,-0.2967 0.31286,-0.321 0.50562,-0.7151 0.57189,-1.1683 0.0204,-0.1322 0.0204,-0.423 0,-0.5551 -0.0356,-0.2451 -0.0967,-0.4437 -0.2028,-0.6535 -0.31119,-0.6205 -0.89734,-1.0366 -1.59443,-1.1318 -0.0675,-0.011 -0.16654,-0.014 -0.26565,-0.014 z"
               style="fill:#ffffff;fill-opacity:1;stroke-width:0.00829465" />
            <g
               style="fill:#ffffff;fill-opacity:1;stroke-width:1.04603"
               transform="matrix(1.1387232,0,0,1.1387232,-118.81329,6282.4033)"
               id="g254703">
              <path
                 style="fill:#ffffff;fill-opacity:1;stroke-width:0.00820556"
                 d="m -50.156541,276.20876 c -0.186919,-0.008 -0.31922,-0.0239 -0.433591,-0.0541 -0.383496,-0.10105 -0.653142,-0.37375 -0.750221,-0.75859 -0.04761,-0.18875 -0.05944,-0.41775 -0.05937,-1.15154 3.9e-5,-0.75499 0.01168,-0.97494 0.06226,-1.16884 0.100182,-0.38445 0.373136,-0.65504 0.758906,-0.75236 0.188759,-0.0476 0.417751,-0.0594 1.151555,-0.0594 0.754968,3e-5 0.974934,0.0115 1.168819,0.0623 0.384451,0.10015 0.655059,0.37313 0.752374,0.7589 0.04753,0.18847 0.05937,0.41859 0.05937,1.15548 0,0.75066 -0.01181,0.97121 -0.06226,1.16488 -0.100183,0.38445 -0.373137,0.65507 -0.758907,0.75239 -0.115397,0.0291 -0.236196,0.0429 -0.453399,0.0515 -0.226062,0.009 -1.203287,0.009 -1.435537,-4.3e-4 z m 1.211963,-0.3521 c 0.383244,-0.008 0.487756,-0.0166 0.607315,-0.0511 0.131416,-0.0381 0.208109,-0.0813 0.297452,-0.16773 0.120467,-0.11644 0.184766,-0.25725 0.213181,-0.46658 0.03112,-0.22908 0.03112,-1.63212 0,-1.86121 -0.01946,-0.14356 -0.06355,-0.27407 -0.12206,-0.36127 -0.03601,-0.0537 -0.121186,-0.13961 -0.175069,-0.1766 -0.09324,-0.0642 -0.218867,-0.10772 -0.368725,-0.12801 -0.229076,-0.0312 -1.632124,-0.0312 -1.861199,0 -0.14985,0.0203 -0.275483,0.0639 -0.368734,0.12801 -0.05387,0.0371 -0.139046,0.12287 -0.175059,0.1766 -0.05852,0.0872 -0.10257,0.21771 -0.12206,0.36127 -0.03112,0.22909 -0.03112,1.63213 0,1.86121 0.0203,0.14986 0.06394,0.27548 0.127966,0.36874 0.03702,0.0539 0.12292,0.13904 0.17661,0.17505 0.08911,0.0598 0.218676,0.10296 0.369283,0.12299 0.16129,0.0214 0.823542,0.0303 1.401102,0.0188 z m -0.659546,-0.61631 c -0.416872,-0.0754 -0.746364,-0.40726 -0.819195,-0.82489 -0.01503,-0.0865 -0.01503,-0.26321 0,-0.3497 0.07332,-0.42062 0.404756,-0.75203 0.825382,-0.82538 0.0865,-0.0152 0.263207,-0.0152 0.349704,0 0.420626,0.0733 0.752033,0.40476 0.825381,0.82538 0.01503,0.0865 0.01503,0.26321 0,0.3497 -0.07332,0.42062 -0.404755,0.75202 -0.825381,0.82538 -0.08345,0.0146 -0.274309,0.0144 -0.355891,-4.4e-4 z m 0.334007,-0.36023 c 0.246359,-0.0646 0.421535,-0.23999 0.487133,-0.48782 0.01014,-0.0381 0.0142,-0.082 0.0142,-0.15168 0,-0.0696 -0.0045,-0.11362 -0.0142,-0.15169 -0.06576,-0.24849 -0.239942,-0.42266 -0.488423,-0.48842 -0.07394,-0.0196 -0.229419,-0.0196 -0.303356,0 -0.08276,0.022 -0.14454,0.0493 -0.213082,0.0949 -0.137011,0.0909 -0.230634,0.22467 -0.275332,0.39359 -0.01953,0.0739 -0.01953,0.22942 0,0.30337 0.06166,0.23315 0.223644,0.40573 0.447905,0.47732 0.09731,0.0311 0.249036,0.0357 0.345155,0.0103 z m 0.847196,-1.46221 c -0.06868,-0.0182 -0.124961,-0.0642 -0.158831,-0.1294 -0.01747,-0.0338 -0.02082,-0.0503 -0.02082,-0.10297 0,-0.0733 0.02023,-0.12145 0.07111,-0.16979 0.05006,-0.0475 0.09197,-0.0646 0.159534,-0.0648 0.09971,-4.5e-4 0.180052,0.0506 0.22111,0.14054 0.02618,0.0574 0.02479,0.14235 -0.003,0.1961 -0.02434,0.0469 -0.06806,0.0901 -0.114267,0.11324 -0.03677,0.0184 -0.116488,0.0272 -0.154598,0.0171 z"
                 id="path254701"
                 inkscape:connector-curvature="0" />
            </g>
            <path
               style="fill:#ffffff;fill-opacity:1;stroke-width:0.00778596"
               d="m -182.92118,6596.5971 c -0.68549,-0.019 -1.15025,-0.054 -1.34352,-0.1031 -0.1963,-0.05 -0.37069,-0.2001 -0.45192,-0.3881 -0.0767,-0.1779 -0.12408,-0.5638 -0.14377,-1.1773 -0.0147,-0.4565 0.0166,-1.0553 0.072,-1.3852 0.0238,-0.1401 0.0412,-0.2088 0.0717,-0.2795 0.0812,-0.188 0.25564,-0.3378 0.45195,-0.3879 0.27014,-0.07 1.07384,-0.1113 2.12878,-0.1113 1.05493,0 1.85865,0.042 2.12879,0.1113 0.19631,0.05 0.37068,0.1999 0.45193,0.3879 0.0769,0.1778 0.12406,0.5637 0.14375,1.1771 0.0147,0.4566 -0.0166,1.0555 -0.072,1.3852 -0.0238,0.1405 -0.0413,0.2089 -0.0719,0.2797 -0.0812,0.188 -0.25564,0.3376 -0.45194,0.3881 -0.19931,0.05 -0.64233,0.084 -1.38447,0.1044 -0.31572,0.014 -1.20422,0.014 -1.52958,-6e-4 z m 1.07767,-1.5849 c 0.31372,-0.1781 0.5704,-0.3255 0.57038,-0.3275 -5e-5,0 -0.32159,-0.1866 -1.28091,-0.7306 l -0.14007,-0.08 v 0.8103 0.8103 l 0.14007,-0.08 c 0.077,-0.044 0.39677,-0.2252 0.71053,-0.4033 z"
               id="path254705"
               inkscape:connector-curvature="0" />
          </g>
          <text
             id="text254711"
             y="530.73273"
             x="-621.3855"
             style="font-style:normal;font-weight:normal;font-size:8.49366px;line-height:1.05;font-family:sans-serif;letter-spacing:0px;word-spacing:0px;fill:#ffffff;fill-opacity:1;stroke:none;stroke-width:0.222121"
             xml:space="preserve"
             transform="scale(0.9955165,1.0045037)"><tspan
               style="font-style:normal;font-variant:normal;font-weight:bold;font-stretch:normal;font-size:8.49366px;font-family:Montserrat;-inkscape-font-specification:'Montserrat Bold';font-variant-ligatures:normal;font-variant-caps:normal;font-variant-numeric:normal;font-feature-settings:normal;text-align:start;writing-mode:lr-tb;text-anchor:start;fill:#ffffff;fill-opacity:1;stroke-width:0.222121"
               y="530.73273"
               x="-621.3855"
               sodipodi:role="line"
               id="tspan254709">Masjid Al-Istiqlal Tambun</tspan></text>
        </g>
      </g>
      <g
         id="g28036"
         transform="matrix(0.89003759,0,0,0.89003759,9.784446,79.636346)"
         style="fill:#1a1a1a;stroke-width:1.12354">
        <text
           xml:space="preserve"
           style="font-weight:800;font-size:9.94624px;line-height:0.95;font-family:Metropolis;-inkscape-font-specification:'Metropolis Ultra-Bold';white-space:pre;inline-size:98.2029;fill:#61834b;fill-opacity:1;stroke-width:0.175199"
           x="368.99704"
           y="174.2401"
           id="text19624"
           transform="matrix(1.6065734,0,0,1.6065734,-551.4657,-94.080548)"><tspan
             x="368.99704"
             y="174.2401"
             id="tspan19622"
             style="font-style:normal;font-variant:normal;font-weight:bold;font-stretch:normal;font-family:'Playfair Display';-inkscape-font-specification:'Playfair Display Bold';fill:#61834b;fill-opacity:1;stroke-width:0.175199">Kegiatan</tspan></text>
        <text
           xml:space="preserve"
           style="font-weight:800;font-size:9.94624px;line-height:1.05;font-family:Metropolis;-inkscape-font-specification:'Metropolis Ultra-Bold';white-space:pre;inline-size:249.531;fill:#202121;fill-opacity:1;stroke-width:0.384039"
           x="368.99704"
           y="174.2401"
           id="text20574"
           transform="matrix(0.7329239,0,0,0.7329239,-228.65774,72.633663)"><tspan
             x="368.99704"
             y="174.2401"
             id="tspan20572"
             style="font-style:normal;font-variant:normal;font-weight:normal;font-stretch:normal;font-family:Assistant;-inkscape-font-specification:Assistant;fill:#202121;fill-opacity:1;stroke-width:0.384039">1. Ifthar Ramadhan
2. Shalat Tarawih
3. Kajian Ramadhan
4. Santunan Yatim, Janda,
     Lansia &amp; Dhu'afa
</tspan></text>
        <text
           xml:space="preserve"
           style="font-weight:800;font-size:9.94624px;line-height:1.05;font-family:Metropolis;-inkscape-font-specification:'Metropolis Ultra-Bold';white-space:pre;inline-size:249.531;fill:#202121;fill-opacity:1;stroke-width:0.384039"
           x="368.99704"
           y="174.2401"
           id="text58486"
           transform="matrix(0.7329239,0,0,0.7329239,-139.97186,72.633663)"><tspan
             x="368.99704"
             y="174.2401"
             id="tspan58484"
             style="font-style:normal;font-variant:normal;font-weight:normal;font-stretch:normal;font-family:Assistant;-inkscape-font-specification:Assistant;fill:#202121;fill-opacity:1;stroke-width:0.384039">5. Pembelian Air Mineral &amp; Kurma
6. I'tikaf Ramadhan
7. Penerimaan &amp; Penyaluran Zakat,
     Infaq &amp; Shadaqah
8. Shalat 'Iedul Fithri
9. dll </tspan></text>
      </g>
      <text
         xml:space="preserve"
         style="font-weight:800;font-size:10.4403px;line-height:1.15;font-family:Metropolis;-inkscape-font-specification:'Metropolis Ultra-Bold';white-space:pre;inline-size:280.057;fill:#202121;fill-opacity:1;stroke-width:0.218579"
         x="368.99704"
         y="174.2401"
         id="text254623-4"
         transform="matrix(0.7555471,0,0,0.7555471,-231.96202,92.399198)"><tspan
           x="368.99704"
           y="174.2401"
           id="tspan214945"
           style="font-weight:bold;font-size:10.4403px;font-family:Assistant;-inkscape-font-specification:'Assistant Bold';stroke-width:0.218579">Mari bersama raih pahala lewat  </tspan></text>
    </g>
    <image
       width="118.036"
       height="209.78546"
       preserveAspectRatio="none"
       xlink:href="IMG_20201201_180635_1-01.jpeg"
       id="image13382"
       x="330.50177"
       y="25.512331"
       style="display:inline;stroke-width:4.87162" />
    <rect
       style="display:inline;fill:#ffd6d6;fill-opacity:1;stroke:none;stroke-width:0.782;stroke-linecap:round;stroke-linejoin:round"
       id="rect78083"
       width="84.686752"
       height="84.686752"
       x="347.17639"
       y="138.00906"
       ry="7.2388" />
  </g>
</svg>
