<?xml version="1.0" encoding="UTF-8" standalone="no"?>
<!-- Created with Inkscape (http://www.inkscape.org/) -->

<svg
   width="210mm"
   height="297mm"
   viewBox="0 0 210 297"
   version="1.1"
   id="svg60553"
   inkscape:version="1.1.1 (3bf5ae0d25, 2021-09-20)"
   sodipodi:docname="Poster_UKT.svg"
   xmlns:inkscape="http://www.inkscape.org/namespaces/inkscape"
   xmlns:sodipodi="http://sodipodi.sourceforge.net/DTD/sodipodi-0.dtd"
   xmlns:xlink="http://www.w3.org/1999/xlink"
   xmlns="http://www.w3.org/2000/svg"
   xmlns:svg="http://www.w3.org/2000/svg">
  <sodipodi:namedview
     id="namedview60555"
     pagecolor="#ffffff"
     bordercolor="#666666"
     borderopacity="1.0"
     inkscape:pageshadow="2"
     inkscape:pageopacity="0.0"
     inkscape:pagecheckerboard="0"
     inkscape:document-units="mm"
     showgrid="false"
     inkscape:zoom="0.22182239"
     inkscape:cx="-380.93539"
     inkscape:cy="1034.6115"
     inkscape:current-layer="layer1"
     inkscape:snap-global="false" />
  <defs
     id="defs60550">
    <linearGradient
       inkscape:collect="always"
       id="linearGradient87431">
      <stop
         style="stop-color:#f0986c;stop-opacity:1;"
         offset="0"
         id="stop87427" />
      <stop
         style="stop-color:#f0be6c;stop-opacity:1"
         offset="1"
         id="stop87429" />
    </linearGradient>
    <rect
       x="-376.42728"
       y="256.96234"
       width="919.65468"
       height="820.47624"
       id="rect63014" />
    <clipPath
       clipPathUnits="userSpaceOnUse"
       id="clipPath65950">
      <circle
         style="opacity:0.60076;fill:#00ff00;stroke-width:6.13347;stroke-linecap:square;stroke-linejoin:round"
         id="circle65952"
         cx="-26.240967"
         cy="-0.60450751"
         r="62.073753" />
    </clipPath>
    <clipPath
       clipPathUnits="userSpaceOnUse"
       id="clipPath66062">
      <circle
         style="opacity:0.60076;fill:#00ff00;stroke-width:5.15451;stroke-linecap:square;stroke-linejoin:round"
         id="circle66064"
         cx="174.14458"
         cy="204.56024"
         r="43.782425" />
    </clipPath>
    <clipPath
       clipPathUnits="userSpaceOnUse"
       id="clipPath6436-2-5-7-56-7-03-3">
      <circle
         r="18.674574"
         cy="-222.91019"
         cx="-159.05081"
         id="circle6438-3-9-5-9-5-4-6"
         style="opacity:0.25;fill:#ffffff;fill-opacity:1;fill-rule:nonzero;stroke:none;stroke-width:1.50976;stroke-linecap:round;stroke-linejoin:round;stroke-miterlimit:4;stroke-dasharray:none;stroke-dashoffset:0;stroke-opacity:1;paint-order:fill markers stroke" />
    </clipPath>
    <clipPath
       clipPathUnits="userSpaceOnUse"
       id="clipPath66592">
      <rect
         style="opacity:1;fill:#ffffff;stroke-width:3.29999;stroke-linecap:square;stroke-linejoin:round"
         id="rect66594"
         width="298.19278"
         height="298.19278"
         x="-144.3253"
         y="188.45782" />
    </clipPath>
    <filter
       inkscape:collect="always"
       style="color-interpolation-filters:sRGB"
       id="filter69617"
       x="-0.12028867"
       y="-0.17362418"
       width="1.2405773"
       height="1.3472484">
      <feGaussianBlur
         inkscape:collect="always"
         stdDeviation="17.310039"
         id="feGaussianBlur69619" />
    </filter>
    <clipPath
       clipPathUnits="userSpaceOnUse"
       id="clipPath75796">
      <g
         id="g75842"
         style="fill:#ff2a2a">
        <path
           style="fill:#ff2a2a;fill-opacity:1;stroke:none;stroke-width:0.264583px;stroke-linecap:butt;stroke-linejoin:miter;stroke-opacity:1"
           d="m -131.6784,299.51828 c -1.3581,-1.76197 -1.37517,-4.36534 -2.42482,-6.11476 -0.54692,-0.91152 -0.25966,-2.88266 0.10542,-3.79537 0.56935,-1.42338 0.32062,-2.48404 1.26513,-3.9008 0.85951,-1.28927 3.54524,-2.08209 5.0605,-1.47598 0.61114,0.24445 2.83166,2.50052 3.16281,3.1628 0.25566,0.51133 1.12673,8.56604 0.94884,9.27759 -0.0846,0.33835 -0.52491,0.59483 -0.73799,0.84341 -0.50875,0.59354 -0.87609,1.52321 -1.47598,2.00311 -1.08161,0.86529 -4.0992,1.95664 -5.4822,1.26513 -0.1706,-0.0853 -0.25941,-1.02166 -0.42171,-1.26513 z"
           id="path75798" />
        <path
           style="fill:#ff2a2a;stroke:none;stroke-width:0.264583px;stroke-linecap:butt;stroke-linejoin:miter;stroke-opacity:1"
           d="m -103.62199,310.56778 c 1.34114,-0.0406 5.976197,-0.6617 6.858437,0 0.475835,0.35687 0.434446,1.00513 0.596387,1.49095 0.08173,0.24519 0.334166,0.44469 0.447288,0.67093 0.311965,0.62394 0.445286,1.33586 0.670933,2.0128 0.551249,1.65375 -0.936606,3.30588 -1.714608,4.47291 -0.154226,0.23132 -0.212495,0.73991 -0.521838,0.89456 -0.427712,0.21386 -0.899908,0.22365 -1.416415,0.22365 -0.153355,0 -0.532651,0.0691 -0.670933,0 -1.831281,-0.91565 -4.135491,-3.68049 -4.547441,-5.74022 -0.1401,-0.70048 -0.2447,-3.0889 0.0746,-3.72739 0.10848,-0.21696 0.97941,-0.95885 1.04367,-0.89459 0.30513,0.30512 -0.73472,0.61344 -0.82003,0.5964 z"
           id="path75800" />
        <path
           style="fill:#ff2a2a;stroke:none;stroke-width:0.264583px;stroke-linecap:butt;stroke-linejoin:miter;stroke-opacity:1"
           d="m -78.424698,314.14608 c 1.420466,0.63418 6.222513,0.57436 7.231174,2.08736 0.393906,0.59084 0.264869,2.66001 0.149098,3.35465 -0.140441,0.84264 -1.672222,3.69916 -2.385544,4.1747 -0.981202,0.65416 -2.804213,0.55811 -3.652862,-0.14909 -0.528735,-0.44061 -1.331208,-0.58574 -2.012799,-1.26733 -0.902745,-0.90273 -0.521837,-5.32765 -0.521837,-6.70933 0,-0.53795 0.65302,-2.03071 1.19277,-1.49096 z"
           id="path75802" />
        <path
           style="fill:#ff2a2a;stroke:none;stroke-width:0.264583px;stroke-linecap:butt;stroke-linejoin:miter;stroke-opacity:1"
           d="m -77.753765,307.95859 c -0.833458,-0.5412 -1.19277,-1.86309 -1.19277,-2.83284 0,-1.89664 0.622726,-3.0236 2.609185,-3.35468 0.435274,-0.0726 1.159828,0.17389 1.565514,0 0.870622,-0.37311 2.628513,-0.42849 3.652861,-0.22362 0.670258,0.13403 0.87521,4.14181 0.745482,4.92016 -0.0869,0.52139 -0.670319,1.34065 -0.894578,1.78917 -0.784534,1.56906 -6.807109,0.98748 -6.485694,-0.29819 z"
           id="path75804" />
        <path
           style="fill:#ff2a2a;stroke:none;stroke-width:0.264583px;stroke-linecap:butt;stroke-linejoin:miter;stroke-opacity:1"
           d="m -55.911143,311.61143 c -0.719778,0.49316 -0.57444,3.01712 -0.372743,4.02561 0.03375,0.16875 0.358196,0.5973 0.447289,0.82005 0.200197,0.50048 0.907854,0.83992 1.192773,1.2673 0.312666,0.469 0.872334,0.65611 1.341866,0.96914 2.540286,1.69352 5.000305,-1.08828 5.292921,-3.42924 0.08986,-0.71887 1.015828,-1.42539 0.745482,-2.23644 -0.706355,-2.11905 -5.208587,-1.8637 -7.082078,-1.8637 -0.228489,0 -1.283364,-0.13306 -1.416415,0 -0.11113,0.11113 -0.07881,0.30673 -0.149095,0.44728 z"
           id="path75806" />
        <path
           style="fill:#ff2a2a;stroke:none;stroke-width:0.264583px;stroke-linecap:butt;stroke-linejoin:miter;stroke-opacity:1"
           d="m -46.965361,305.4985 c 0.839575,-0.67001 2.11591,-0.37275 3.131023,-0.37275 0.744008,0 2.824985,0.51006 3.280122,1.19277 0.372059,0.55808 0.04295,1.525 0.149095,2.16191 0.229492,1.37694 0.378288,3.61281 -1.192771,4.39833 -0.626395,0.31321 -2.788189,1.48338 -3.429217,0.52183 -0.422986,-0.63447 0.160727,-1.75426 -0.07455,-2.46009 -0.169852,-0.50954 -0.418777,-1.06119 -0.670936,-1.56551 -0.215976,-0.43194 -1.261567,-1.5425 -1.341866,-1.8637 -0.09221,-0.36886 -0.0039,-2.08928 0.149096,-2.01279 z"
           id="path75808" />
        <path
           style="fill:#ff2a2a;stroke:none;stroke-width:0.264583px;stroke-linecap:butt;stroke-linejoin:miter;stroke-opacity:1"
           d="m -33.099398,316.82981 c 0.893103,-0.33049 1.88223,-0.41815 2.832832,-0.59637 0.511935,-0.096 3.204753,-0.72118 3.727411,-0.37275 1.749123,1.16607 0.776958,5.00245 -0.223645,6.33659 -0.333486,0.44465 0.0204,1.37797 -0.596386,1.78916 -0.2256,0.15039 -0.527511,0.0522 -0.745482,0.14909 -1.899132,0.84408 -3.371051,-0.48839 -4.323795,-2.01279 -0.374658,-0.59946 -0.204377,-1.51413 -0.447288,-2.16191 -0.232064,-0.61883 -1.041617,-1.79533 -0.820031,-2.46009 0.110841,-0.33251 0.49358,-0.25972 0.596384,-0.67093 z"
           id="path75810" />
        <path
           style="fill:#ff2a2a;stroke:none;stroke-width:0.264583px;stroke-linecap:butt;stroke-linejoin:miter;stroke-opacity:1"
           d="m -17.966116,312.50601 c -0.975274,0 -3.611172,0.71901 -3.801958,1.86373 -0.122504,0.73501 0,1.56522 0,2.31097 0,0.70943 -0.152856,1.70334 0.07455,2.38554 0.07885,0.23661 0.371943,0.19831 0.521837,0.29821 0.676516,0.45101 0.887436,1.33758 1.640061,1.78914 0.244756,0.14687 1.36275,0 1.64006,0 2.277737,0 4.506017,-2.6589 3.72741,-4.99472 -0.258973,-0.77693 0.131324,-1.41023 -0.298193,-2.16189 -0.695016,-1.21627 -2.150924,-1.44597 -3.429217,-1.19277 -0.02485,-0.0994 -0.0497,-0.19881 -0.07455,-0.29821 z"
           id="path75812" />
        <path
           style="fill:#ff2a2a;stroke:none;stroke-width:0.264583px;stroke-linecap:butt;stroke-linejoin:miter;stroke-opacity:1"
           d="m 0.8945783,315.26429 c -0.58293078,0.45686 -1.46151836,1.02405 -2.1618976,1.49098 -0.5019294,0.33462 -1.1232864,0.20881 -1.6400602,0.59637 -0.1842278,0.1382 -0.1235892,0.4213 -0.2236446,0.5964 -0.5089522,0.89067 -0.1650079,1.2355 0.2236446,2.01279 0.2995415,0.5991 0.2503326,1.45201 0.6709337,2.01282 0.8437472,1.12498 2.6575198,2.24518 4.249247,1.71461 0.4557087,-0.1519 1.3020673,-1.24489 1.5655121,-1.64008 0.2518397,-0.37774 0.1490962,-1.1702 0.1490962,-1.64004 0,-0.7147 0.3481017,-1.44045 0.1490964,-2.23645 -0.2170409,-0.86817 -2.0724184,-4.33874 -3.35466857,-3.05649"
           id="path75814" />
        <path
           style="fill:#ff2a2a;stroke:none;stroke-width:0.264583px;stroke-linecap:butt;stroke-linejoin:miter;stroke-opacity:1"
           d="m 8.6977327,308.76951 c 0.4924865,-0.34287 0.4684922,-1.03219 0.7643464,-1.47597 0.6881099,-1.03217 2.1061599,-1.66127 3.3736659,-1.23878 0.21487,0.0716 0.192786,0.36454 0.210854,0.52715 0.07232,0.65085 0.31117,1.27064 0.658919,1.79226 0.08609,0.12912 0.04267,0.88358 0,1.05426 -0.05607,0.22429 -0.265506,0.35679 -0.448065,0.44807 -1.161726,0.58087 -1.609764,-0.0622 -2.68839,-0.42172 -0.121111,-0.0404 -0.293461,0.003 -0.421708,-0.0265 -0.2657209,-0.0591 -0.5436903,-0.21085 -0.8170599,-0.21085 -0.171628,0 -0.8418562,-0.0728 -0.89613,-0.28993 -0.02753,-0.11012 0.1823916,-0.10404 0.2635676,-0.15814 z"
           id="path75816" />
        <path
           style="fill:#ff2a2a;stroke:none;stroke-width:0.264583px;stroke-linecap:butt;stroke-linejoin:miter;stroke-opacity:1"
           d="m 6.8264023,314.43623 c 1.7554464,-0.0549 0.3866002,-0.0411 3.4000227,0.15814 0.540896,0.0357 0.687302,-0.0329 1.186055,0.18449 0.706713,0.30806 1.468079,1.04376 1.634119,1.81862 0.15701,0.73271 -0.341415,1.46835 -0.553492,2.13489 -0.36681,1.15284 -0.812947,2.63009 -2.055828,3.13645 -0.8991359,0.36632 -1.792542,0.009 -2.5829628,-0.44807 -0.4753414,-0.2748 -1.2526269,-0.77735 -1.5550491,-1.2651 -0.1490818,-0.24046 -0.1054272,-1.16727 -0.1054272,-1.37057 0,-0.86284 0.066058,-1.70778 0.1844974,-2.55659 0.070695,-0.50665 0.024106,-0.94306 0.2108542,-1.42328 0.058997,-0.15171 0.1668576,-0.22828 0.2372108,-0.36898 z"
           id="path75818" />
        <path
           style="fill:#ff2a2a;stroke:none;stroke-width:0.264583px;stroke-linecap:butt;stroke-linejoin:miter;stroke-opacity:1"
           d="m 27.172816,315.37613 c -0.168211,1.30972 -0.816758,1.91569 -0.521837,3.24284 0.04949,0.2227 0.229449,0.45067 0.260919,0.67093 0.08593,0.60153 0.0895,1.21777 0.260918,1.78917 0.139613,0.46537 1.378122,2.16913 1.900979,2.27372 1.497914,0.29959 2.432108,-0.1615 3.317393,-1.34189 0.216533,-0.28868 0.300424,-0.66222 0.484563,-0.96911 0.155292,-0.25882 0.130715,-0.61579 0.223647,-0.89458 0.137568,-0.4127 0.552718,-0.80405 0.708208,-1.19277 0.119422,-0.29856 0.453649,-3.07467 0.37274,-3.3174 -0.03168,-0.095 -0.198136,-0.0325 -0.298194,-0.0373 -1.024911,-0.0488 -2.004467,-0.17518 -3.0192,-0.29819 -0.415957,-0.0504 -1.043932,-0.0693 -1.453689,-0.18637 -0.804506,-0.22984 -1.616475,-0.35904 -2.236447,0.26093 z"
           id="path75820" />
        <path
           style="fill:#ff2a2a;stroke:none;stroke-width:0.264583px;stroke-linecap:butt;stroke-linejoin:miter;stroke-opacity:1"
           d="m 49.910015,317.76167 c -0.128627,0.90038 0.124722,-0.57171 -0.969126,1.49095 -0.517359,0.9756 -0.682699,2.70338 -0.447289,3.80196 0.138882,0.64815 0.184158,0.49496 0.521835,1.04367 1.2826,2.08423 3.160424,2.88219 5.553842,1.86373 0.668864,-0.28464 0.788199,-0.91189 1.043673,-1.49098 0.889937,-2.01718 1.526193,-2.76577 0.596387,-4.95745 -0.08921,-0.21029 -0.121939,-0.45238 -0.260919,-0.63365 -0.532702,-0.69484 -3.024494,-1.1122 -3.951055,-1.19279 -0.649695,-0.0565 -1.396153,-0.31716 -2.050073,-0.18637 -0.217472,0.0435 -0.36236,0.34221 -0.03728,0.26093 z"
           id="path75822" />
        <path
           style="fill:#ff2a2a;stroke:none;stroke-width:0.264583px;stroke-linecap:butt;stroke-linejoin:miter;stroke-opacity:1"
           d="m 44.878011,309.97138 c -1.262703,0.0779 -3.009943,0.24257 -3.317394,1.67733 -0.115877,0.54078 0.05647,1.15324 -0.07455,1.67735 -0.100264,0.40106 -0.07455,0.81045 -0.07455,1.23002 0,1.81354 0.655968,2.77657 2.348267,3.39196 0.218027,0.0793 2.133846,0.77354 2.422816,0.48456 0.101002,-0.10099 -0.182102,-1.84563 -0.111824,-2.16188 0.07624,-0.34309 0.287761,-0.63667 0.484566,-0.93187 0.326097,-0.48913 2.273718,-2.58455 2.273718,-3.09374 0,-0.45284 -0.294523,-1.90754 -0.633658,-2.16191 -0.249942,-0.18746 -0.83048,-0.33806 -1.118225,-0.41 -0.08191,-0.0204 -2.139405,-0.0598 -2.161897,-0.0373 -0.02424,0.0243 0.02262,0.24564 -0.03727,0.33546 z"
           id="path75824" />
        <path
           style="fill:#ff2a2a;stroke:none;stroke-width:0.264583px;stroke-linecap:butt;stroke-linejoin:miter;stroke-opacity:1"
           d="m 49.462726,308.96499 c 0.706816,-0.0802 1.454026,-0.0373 2.161898,-0.0373 0.384873,0 2.185207,-0.0217 2.497365,0.18637 0.845028,0.56335 0.213738,2.04425 -0.410017,2.4601 -0.08567,0.0571 -0.121531,0.26577 -0.260919,0.33546 -0.388313,0.19415 -1.901616,-0.0993 -2.497362,0 -0.08749,0.0145 -1.031505,0.49654 -1.08095,0.41 -0.223063,-0.39034 -0.01101,-0.864 -0.111824,-1.2673 -0.174699,-0.69882 -0.595969,-1.34292 -0.298191,-2.08735 z"
           id="path75826" />
        <path
           style="fill:#ff2a2a;stroke:none;stroke-width:0.264583px;stroke-linecap:butt;stroke-linejoin:miter;stroke-opacity:1"
           d="m 78.871986,316.45709 c -0.997378,0.12456 -5.355679,0.22743 -5.516565,1.19277 -0.200496,1.20295 -0.372742,2.36423 -0.372742,3.5783 0,1.45584 1.172565,2.27309 2.385544,2.75828 1.031957,0.41278 1.55707,1.68648 2.907379,1.41642 2.517034,-0.50342 3.080409,-1.93688 4.323795,-3.80195 0.349768,-0.52467 -0.0441,-1.49413 0.07455,-2.08736 0.209947,-1.04973 0.270967,-2.10788 -0.298194,-3.05646 -0.286501,-0.47752 -3.108901,-0.19743 -3.503766,0 z"
           id="path75828" />
        <path
           style="fill:#ff2a2a;stroke:none;stroke-width:0.264583px;stroke-linecap:butt;stroke-linejoin:miter;stroke-opacity:1"
           d="m 84.710647,306.2129 c 2.046632,0.0894 1.431634,0.92961 1.739546,2.16127 0.155477,0.62191 0.606189,1.42333 0.421709,2.16125 -0.112052,0.44821 -0.227013,0.95819 -0.474422,1.37054 -0.501558,0.83593 -2.396411,2.3789 -3.479094,1.8977 -0.180496,-0.0802 -0.506222,-0.22675 -0.685276,-0.31628 -0.212966,-0.1065 -1.111258,-1.69537 -1.212411,-1.8977 -0.09054,-0.18108 0.0291,-0.63804 0.105426,-0.79071 0.359778,-0.71953 1.145762,-1.19845 1.686833,-1.73953 0.300297,-0.3003 0.06535,-0.90876 0.316283,-1.15969 0.100716,-0.10073 1.576014,-1.67606 1.581406,-1.68685 z"
           id="path75830" />
        <path
           style="fill:#ff2a2a;stroke:none;stroke-width:0.264583px;stroke-linecap:butt;stroke-linejoin:miter;stroke-opacity:1"
           d="m 90.140141,300.88885 c 2.161608,0.0999 1.739545,1.38766 1.739545,2.95195 0,0.75555 0,1.51112 0,2.26669 0,1.04079 -1.086461,2.06679 -1.844974,2.63567 -0.222041,0.16653 -0.828767,0.10544 -1.106982,0.10544 -0.31808,0 -0.677302,0.0455 -0.948846,-0.15814 -0.02016,-0.0151 -0.142767,-2.64229 -0.368993,-3.32097 -0.191326,-0.57397 -0.387779,-1.09789 -0.790702,-1.58139 -0.262113,-0.31454 -0.867119,-0.54555 -1.001559,-0.94885 -0.396738,-1.19023 3.405108,-2.56201 4.322511,-1.9504 z"
           id="path75832" />
        <path
           style="fill:#ff2a2a;stroke:none;stroke-width:0.264583px;stroke-linecap:butt;stroke-linejoin:miter;stroke-opacity:1"
           d="m 105.42706,317.96802 c -1.16426,0.5801 -2.4856,0.47643 -3.74266,0.7907 -0.30769,0.077 -0.89606,0.68506 -1.00155,1.00156 -0.25221,0.75663 -0.18259,4.06691 0.26356,4.69151 0.40393,0.56549 1.14291,1.10138 1.79226,1.31784 0.25441,0.0848 0.38563,-0.0356 0.68528,0.10543 0.66573,0.31327 1.65796,1.00733 2.47754,0.84342 1.19805,-0.23961 2.26329,-1.68008 2.79381,-2.74111 0.16571,-0.33142 0.47443,-2.82896 0.47443,-3.37368 0,-0.27686 0.14809,-1.22915 0,-1.47598 -0.67711,-1.1285 -2.54145,-1.15969 -3.74267,-1.15969 z"
           id="path75834" />
        <path
           style="fill:#ff2a2a;stroke:none;stroke-width:0.264583px;stroke-linecap:butt;stroke-linejoin:miter;stroke-opacity:1"
           d="m 134.68307,315.1742 c -0.75625,0.49022 -3.82438,1.59779 -4.05894,2.58297 -0.27621,1.16009 0.54134,5.58099 1.89769,5.90391 0.2564,0.061 0.52714,0 0.7907,0 1.44141,0 2.16284,-0.008 3.37367,-0.89611 0.23066,-0.16918 0.46094,-0.35103 0.63256,-0.57986 0.52011,-0.69348 1.58136,-6.18139 0.73799,-6.53648 -0.22672,-0.0955 -0.4928,0.0198 -0.73799,0 -0.40623,-0.0329 -0.81011,-0.0929 -1.21241,-0.15814 -0.52196,-0.0846 -0.93874,-0.43741 -1.42327,-0.31629 z"
           id="path75836" />
        <path
           style="fill:#ff2a2a;stroke:none;stroke-width:0.264583px;stroke-linecap:butt;stroke-linejoin:miter;stroke-opacity:1"
           d="m 123.71866,292.13839 c -0.44802,0.89604 -0.96314,1.90706 -1.31784,2.79381 -0.33914,0.84786 -0.36899,1.5934 -0.36899,2.47756 0,1.35861 0.0902,1.88629 1.1597,2.68838 0.89224,0.66918 1.69629,1.0554 2.79381,1.31784 1.05459,0.25217 1.85578,0.41449 2.79382,-0.21085 1.298,-0.86535 3.70462,-6.44988 2.31939,-7.32719 -1.47261,-0.93265 -3.12517,-0.86045 -4.74421,-1.2124 -0.86679,-0.18843 -1.7388,-0.52715 -2.63568,-0.52715 z"
           id="path75838" />
        <path
           style="fill:#ff2a2a;stroke:none;stroke-width:0.264583px;stroke-linecap:butt;stroke-linejoin:miter;stroke-opacity:1"
           d="m 153.18552,292.24382 c -0.93028,0.81399 -1.66818,1.42664 -2.53025,2.42483 -0.6107,0.70713 -0.28925,1.52466 -0.4217,2.31939 -0.43397,2.60382 -0.78653,4.4014 1.5814,6.43104 0.36654,0.3142 1.06524,1.09519 1.58141,1.1597 3.47005,0.43376 7.88584,-0.90697 6.43105,-5.27135 -0.39876,-1.19626 -1.83035,-2.40726 -2.63568,-3.37367 -0.3427,-0.41122 -0.32465,-1.06262 -0.73799,-1.47598 -0.21744,-0.21744 -0.27802,-0.95462 -0.52713,-1.05426 -1.10024,-0.44011 -1.75605,-0.4209 -2.74111,-1.1597 z"
           id="path75840" />
      </g>
    </clipPath>
    <filter
       inkscape:collect="always"
       style="color-interpolation-filters:sRGB"
       id="filter75864"
       x="-0.013601469"
       y="-0.013601469"
       width="1.0272029"
       height="1.0272029">
      <feGaussianBlur
         inkscape:collect="always"
         stdDeviation="1.8154695"
         id="feGaussianBlur75866" />
    </filter>
    <linearGradient
       inkscape:collect="always"
       xlink:href="#linearGradient87431"
       id="linearGradient87583"
       gradientUnits="userSpaceOnUse"
       x1="10.542707"
       y1="352.96982"
       x2="31.206411"
       y2="423.39508"
       gradientTransform="translate(0,1.686833)" />
    <filter
       inkscape:collect="always"
       style="color-interpolation-filters:sRGB"
       id="filter87603"
       x="-0.036507107"
       y="-0.10673718"
       width="1.0730142"
       height="1.2134744">
      <feGaussianBlur
         inkscape:collect="always"
         stdDeviation="2.3048536"
         id="feGaussianBlur87605" />
    </filter>
  </defs>
  <g
     inkscape:label="Layer 1"
     inkscape:groupmode="layer"
     id="layer1">
    <rect
       style="opacity:1;fill:#333333;stroke-width:4.38239;stroke-linecap:square;stroke-linejoin:round"
       id="rect66224"
       width="396"
       height="396"
       x="-193.22891"
       y="139.55421" />
    <text
       xml:space="preserve"
       transform="scale(0.26458333)"
       id="text63012"
       style="font-size:40px;line-height:1.05;font-family:sans-serif;white-space:pre;shape-inside:url(#rect63014)"><tspan
         x="-376.42773"
         y="289.76289"
         id="tspan99169">Mas bisa buatin flyer ucapan selamat.
</tspan><tspan
         x="-376.42773"
         y="331.76289"
         id="tspan99171">Ujian Kenaikan Tingkat angkatan Pertama Yayasan </tspan><tspan
         x="-376.42773"
         y="373.76289"
         id="tspan99173">Istiqlal Farhaniyah Nusantara.
</tspan><tspan
         x="-376.42773"
         y="415.76289"
         id="tspan99175">Ahad, 16 Januari 2021</tspan></text>
    <g
       id="g98919"
       inkscape:export-filename="D:\Ichsan\design\Istiqlal\Sekolah\SD\Ujian Kenaikan Tingkat Taekwondo\Poster_UKT.png"
       inkscape:export-xdpi="150"
       inkscape:export-ydpi="150">
      <rect
         style="opacity:1;fill:#ffffff;stroke-width:3.29999;stroke-linecap:square;stroke-linejoin:round"
         id="rect66088"
         width="298.19278"
         height="298.19278"
         x="-144.3253"
         y="188.45782" />
      <g
         id="g66588"
         clip-path="url(#clipPath66592)">
        <path
           style="fill:#fdfdfd;fill-opacity:1;stroke-width:3.29999;stroke-linecap:square;stroke-linejoin:round"
           d="m 72.460841,226.03012 v 22.66265 l 86.475909,3.8765 3.57831,-30.71385 z"
           id="path68519" />
        <g
           id="g76986"
           style="opacity:0.69201521"
           transform="translate(0,-35.423494)">
          <image
             width="320.34238"
             height="320.34238"
             preserveAspectRatio="none"
             xlink:href="WhatsApp%20Image%202022-01-18%20at%202.58.17%20PM.jpeg"
             id="image65824"
             x="-150.62903"
             y="207.6788" />
          <image
             width="320.34238"
             height="320.34238"
             preserveAspectRatio="none"
             xlink:href="WhatsApp%20Image%202022-01-18%20at%202.58.17%20PM.jpeg"
             id="image75794"
             x="-150.62903"
             y="207.6788"
             clip-path="url(#clipPath75796)"
             style="opacity:1;filter:url(#filter75864)" />
        </g>
        <rect
           style="fill:#fdfdfd;fill-opacity:1;stroke-width:3.17053;stroke-linecap:square;stroke-linejoin:round"
           id="rect66857"
           width="383.75452"
           height="50.604988"
           x="-171.21356"
           y="148.25423" />
        <path
           style="opacity:1;mix-blend-mode:normal;fill:#ffffff;fill-opacity:1;stroke-width:3.29999;stroke-linecap:square;stroke-linejoin:round;filter:url(#filter69617)"
           d="M -166.15305,556.07606 V 321.01717 c 0,0 99.0403,49.42772 184.466791,49.42772 85.426489,0 160.903179,-43.11386 160.903179,-43.11386 v 232.96212 z"
           id="path69455"
           sodipodi:nodetypes="ccsccc"
           transform="matrix(1.2146042,0,0,1.2146042,-1.401781,-118.18213)" />
        <path
           style="opacity:1;fill:#795a61;fill-opacity:1;stroke:none;stroke-width:3.29999;stroke-linecap:square;stroke-linejoin:round"
           d="m -67.526034,301.62682 c 0,0 1.844974,0.26358 1.844974,1.05429 0,0.7907 0,1.63412 0,1.79226 0,0.15814 -0.448067,0.55348 -0.553493,0.65892 -0.105428,0.10541 -3.689947,-0.55351 -3.689947,-0.55351 0,0 -0.421709,-2.84652 2.398466,-2.95196 z"
           id="path76081" />
      </g>
      <text
         xml:space="preserve"
         style="font-size:67.224px;line-height:1.05;font-family:sans-serif;opacity:0.106464;fill:#1a1a1a;fill-opacity:1;stroke-width:1.6806;filter:url(#filter87603)"
         x="-59.524403"
         y="390.96942"
         id="text87581"><tspan
           sodipodi:role="line"
           id="tspan87579"
           style="font-style:normal;font-variant:normal;font-weight:normal;font-stretch:normal;font-family:Abuget;-inkscape-font-specification:Abuget;fill:#1a1a1a;fill-opacity:1;stroke-width:1.6806"
           x="-59.524403"
           y="390.96942">Selamat</tspan></text>
      <text
         xml:space="preserve"
         style="font-size:67.224px;line-height:1.05;font-family:sans-serif;fill:#ff8b3d;fill-opacity:1;stroke-width:1.6806"
         x="-59.524403"
         y="389.01074"
         id="text69079"><tspan
           sodipodi:role="line"
           id="tspan69077"
           style="font-style:normal;font-variant:normal;font-weight:normal;font-stretch:normal;font-family:Abuget;-inkscape-font-specification:Abuget;fill:#ff8b3d;fill-opacity:1;stroke-width:1.6806"
           x="-59.524403"
           y="389.01074">Selamat</tspan></text>
      <text
         xml:space="preserve"
         style="font-size:28.3246px;line-height:1.05;font-family:sans-serif;fill:#4d4d4d;fill-opacity:1;stroke-width:0.708116"
         x="-42.36412"
         y="398.09387"
         id="text78078"><tspan
           sodipodi:role="line"
           id="tspan78076"
           style="font-style:normal;font-variant:normal;font-weight:normal;font-stretch:normal;font-family:Abuget;-inkscape-font-specification:Abuget;fill:#4d4d4d;fill-opacity:1;stroke-width:0.708116"
           x="-42.36412"
           y="398.09387">atas kelulusannya</tspan></text>
      <text
         xml:space="preserve"
         style="font-size:9.05024px;line-height:1.05;font-family:sans-serif;fill:#4d4d4d;fill-opacity:1;stroke-width:0.226257"
         x="-52.933136"
         y="418.2984"
         id="text78520"><tspan
           sodipodi:role="line"
           id="tspan78518"
           style="font-style:normal;font-variant:normal;font-weight:normal;font-stretch:normal;font-family:Metropolis;-inkscape-font-specification:Metropolis;fill:#4d4d4d;fill-opacity:1;stroke-width:0.226257"
           x="-52.933136"
           y="418.2984">Pada Ujian Kenaikan Tingkat</tspan></text>
      <text
         xml:space="preserve"
         style="font-size:7.95023px;line-height:1.05;font-family:sans-serif;text-align:center;text-anchor:middle;fill:#4d4d4d;fill-opacity:1;stroke-width:0.198756"
         x="4.7869844"
         y="428.97507"
         id="text82422"><tspan
           id="tspan82420"
           style="font-style:normal;font-variant:normal;font-weight:normal;font-stretch:normal;font-family:Metropolis;-inkscape-font-specification:Metropolis;text-align:center;text-anchor:middle;fill:#4d4d4d;fill-opacity:1;stroke-width:0.198756"
           x="4.786983"
           y="428.97507"
           sodipodi:role="line">Angkatan Pertama </tspan><tspan
           style="font-style:normal;font-variant:normal;font-weight:normal;font-stretch:normal;font-family:Metropolis;-inkscape-font-specification:Metropolis;text-align:center;text-anchor:middle;fill:#4d4d4d;fill-opacity:1;stroke-width:0.198756"
           x="4.7869849"
           y="437.32281"
           sodipodi:role="line"
           id="tspan92218">Yayasan Istiqlal Farhaniyah Nusantara</tspan></text>
      <image
         width="93.662498"
         height="93.662498"
         preserveAspectRatio="none"
         xlink:href="WhatsApp%20Image%202022-01-18%20at%203.07.30%20PM.jpeg"
         id="image65800"
         x="127.31333"
         y="157.72899"
         clip-path="url(#clipPath66062)"
         transform="matrix(0.38303624,0,0,0.38303624,-141.83678,134.53606)" />
      <image
         width="127"
         height="131.7625"
         preserveAspectRatio="none"
         xlink:href="WhatsApp%20Image%202022-01-18%20at%203.08.22%20PM.jpeg"
         id="image65812"
         x="-89.740967"
         y="-66.477631"
         clip-path="url(#clipPath65950)"
         transform="matrix(0.27016661,0,0,0.27016661,-106.229,213.00861)" />
      <g
         inkscape:label="LogoIstiqlal"
         transform="matrix(1.0851198,0,0,1.0851199,343.94217,52.817587)"
         id="LogoIstiqlal">
        <g
           id="g2693"
           transform="matrix(0.70807921,0,0,0.70807915,-89.592975,305.31276)"
           style="display:inline;image-rendering:auto">
          <g
             id="g2614">
            <circle
               r="21.826302"
               cy="-222.91022"
               cx="-159.05081"
               id="circle2606"
               style="opacity:1;fill:#f86900;fill-opacity:1;fill-rule:nonzero;stroke:none;stroke-width:1.76456;stroke-linecap:round;stroke-linejoin:round;stroke-miterlimit:4;stroke-dasharray:none;stroke-dashoffset:0;stroke-opacity:1;paint-order:fill markers stroke" />
            <circle
               r="21.639214"
               cy="-222.9102"
               cx="-159.05081"
               id="circle2608"
               style="opacity:1;fill:#ffffff;fill-opacity:1;fill-rule:nonzero;stroke:none;stroke-width:1.74943;stroke-linecap:round;stroke-linejoin:round;stroke-miterlimit:4;stroke-dasharray:none;stroke-dashoffset:0;stroke-opacity:1;paint-order:fill markers stroke" />
            <circle
               r="21.311808"
               cy="-222.9102"
               cx="-159.05081"
               id="circle2610"
               style="opacity:1;fill:#f86900;fill-opacity:1;fill-rule:nonzero;stroke:none;stroke-width:1.72296;stroke-linecap:round;stroke-linejoin:round;stroke-miterlimit:4;stroke-dasharray:none;stroke-dashoffset:0;stroke-opacity:1;paint-order:fill markers stroke" />
            <circle
               r="20.451916"
               cy="-222.91019"
               cx="-159.05081"
               id="circle2612"
               style="opacity:1;fill:#ffffff;fill-opacity:1;fill-rule:nonzero;stroke:none;stroke-width:1.65345;stroke-linecap:round;stroke-linejoin:round;stroke-miterlimit:4;stroke-dasharray:none;stroke-dashoffset:0;stroke-opacity:1;paint-order:fill markers stroke" />
          </g>
          <g
             clip-path="none"
             id="g2622">
            <rect
               style="opacity:1;fill:#ff6600;fill-opacity:1;fill-rule:nonzero;stroke:none;stroke-width:0.2;stroke-linecap:round;stroke-linejoin:round;stroke-miterlimit:4;stroke-dasharray:none;stroke-dashoffset:0;stroke-opacity:1;paint-order:fill markers stroke"
               id="rect2616"
               width="18.4547"
               height="18.917711"
               x="-168.20885"
               y="-221.05418"
               clip-path="url(#clipPath6436-2-5-7-56-7-03-3)"
               transform="matrix(1.0108901,0,0,1.0136582,1.8318185,2.7608221)" />
            <path
               style="opacity:1;fill:#ffff01;fill-opacity:1;fill-rule:nonzero;stroke:none;stroke-width:0.765183;stroke-linecap:round;stroke-linejoin:round;stroke-miterlimit:4;stroke-dasharray:none;stroke-dashoffset:0;stroke-opacity:1;paint-order:fill markers stroke"
               clip-path="none"
               d="m -635.75,788.45508 v 10.09375 c 2.53754,1.43626 4.88688,2.63323 7.22656,3.63476 v -2.19726 l 8.35547,2.23828 v 2.66601 c 2.26469,0.5065 4.69357,0.87677 7.38867,1.13672 v -2.78125 l 8.35547,0.27735 v 2.95508 c 1.2666,0.0264 2.56919,0.0418 3.95703,0.041 1.37322,-9.4e-4 2.66161,-0.0228 3.91407,-0.0488 v -2.94726 l 8.35546,-0.27735 v 2.74219 c 2.69844,-0.27742 5.12493,-0.67162 7.38868,-1.20703 v -2.55664 l 8.35547,-2.23828 v 1.95117 c 2.32282,-1.03669 4.66677,-2.27087 7.21289,-3.74609 v -9.73633 z"
               transform="matrix(0.26458333,0,0,0.26458333,0,-429.90601)"
               id="path2618"
               inkscape:connector-curvature="0" />
            <ellipse
               style="opacity:1;fill:#669934;fill-opacity:1;fill-rule:nonzero;stroke:none;stroke-width:0.2;stroke-linecap:round;stroke-linejoin:round;stroke-miterlimit:4;stroke-dasharray:none;stroke-dashoffset:0;stroke-opacity:1;paint-order:fill markers stroke"
               id="ellipse2620"
               cx="-158.88229"
               cy="-221.28568"
               rx="9.3265629"
               ry="1.8190104" />
          </g>
          <path
             inkscape:connector-curvature="0"
             id="path2624"
             transform="matrix(1.101749,0,0,1.1017491,-951.57031,-302.89023)"
             d="m 711.01562,78.980469 v 8.427734 a 16.752967,16.752964 0 0 0 2.32618,1.095703 c 0.0219,-0.10337 0.0391,-0.209827 0.0391,-0.324218 v -6.59961 c 0,-0.928332 -1.63765,-2.116188 -2.36524,-2.599609 z"
             style="opacity:1;fill:#ffffff;fill-opacity:1;fill-rule:nonzero;stroke:none;stroke-width:0.205303;stroke-linecap:round;stroke-linejoin:round;stroke-miterlimit:4;stroke-dasharray:none;stroke-dashoffset:0;stroke-opacity:1;paint-order:fill markers stroke" />
          <path
             inkscape:connector-curvature="0"
             id="path2626"
             transform="matrix(1.101749,0,0,1.1017491,-951.57031,-302.89023)"
             d="m 711.01562,80.201172 v 7.207031 a 16.752967,16.752964 0 0 0 1.78711,0.900391 16.752967,16.752964 0 0 0 0.002,0 c 0.0703,-0.152253 0.11328,-0.321441 0.11328,-0.511719 v -5.480469 c 0,-0.733075 -1.25924,-1.678798 -1.90235,-2.115234 z"
             style="opacity:1;fill:#f70402;fill-opacity:1;fill-rule:nonzero;stroke:none;stroke-width:0.170463;stroke-linecap:round;stroke-linejoin:round;stroke-miterlimit:4;stroke-dasharray:none;stroke-dashoffset:0;stroke-opacity:1;paint-order:fill markers stroke" />
          <path
             inkscape:connector-curvature="0"
             id="path2628"
             transform="matrix(1.101749,0,0,1.1017491,-951.57031,-302.89023)"
             d="m 727.94922,78.982422 c -0.73075,0.486078 -2.36328,1.671854 -2.36328,2.597656 v 6.59961 c 0,0.07647 0.0174,0.145196 0.0273,0.216796 a 16.752967,16.752964 0 0 0 2.33594,-1.173828 z"
             style="opacity:1;fill:#ffffff;fill-opacity:1;fill-rule:nonzero;stroke:none;stroke-width:0.205303;stroke-linecap:round;stroke-linejoin:round;stroke-miterlimit:4;stroke-dasharray:none;stroke-dashoffset:0;stroke-opacity:1;paint-order:fill markers stroke" />
          <path
             inkscape:connector-curvature="0"
             id="path2630"
             transform="matrix(1.101749,0,0,1.1017491,-951.57031,-302.89023)"
             d="m 727.94922,80.203125 c -0.64397,0.437309 -1.89844,1.381293 -1.89844,2.113281 v 5.480469 c 0,0.136399 0.0255,0.259644 0.0625,0.376953 a 16.752967,16.752964 0 0 0 1.83594,-0.951172 z"
             style="opacity:1;fill:#97cd9a;fill-opacity:1;fill-rule:nonzero;stroke:none;stroke-width:0.170463;stroke-linecap:round;stroke-linejoin:round;stroke-miterlimit:4;stroke-dasharray:none;stroke-dashoffset:0;stroke-opacity:1;paint-order:fill markers stroke" />
          <path
             inkscape:connector-curvature="0"
             id="path2632"
             transform="matrix(1.101749,0,0,1.1017491,-951.57031,-302.89023)"
             d="m 716.40039,79.533203 c 0,0 -2.45508,1.104641 -2.45508,2.525391 v 6.666015 a 16.752967,16.752964 0 0 0 4.90821,0.882813 v -7.548828 c 0,-1.42075 -2.45313,-2.525391 -2.45313,-2.525391 z"
             style="opacity:1;fill:#ffffff;fill-opacity:1;fill-rule:nonzero;stroke:none;stroke-width:0.212892;stroke-linecap:round;stroke-linejoin:round;stroke-miterlimit:4;stroke-dasharray:none;stroke-dashoffset:0;stroke-opacity:1;paint-order:fill markers stroke" />
          <path
             inkscape:connector-curvature="0"
             id="path2634"
             transform="matrix(1.101749,0,0,1.1017491,-951.57031,-302.89023)"
             d="m 716.40039,80.994141 c 0,0 -2.03906,0.916042 -2.03906,2.095703 v 5.787109 a 16.752967,16.752964 0 0 0 4.07617,0.708985 v -6.496094 c 0,-1.179661 -2.03711,-2.095703 -2.03711,-2.095703 z"
             style="opacity:1;fill:#020066;fill-opacity:1;fill-rule:nonzero;stroke:none;stroke-width:0.176764;stroke-linecap:round;stroke-linejoin:round;stroke-miterlimit:4;stroke-dasharray:none;stroke-dashoffset:0;stroke-opacity:1;paint-order:fill markers stroke" />
          <path
             inkscape:connector-curvature="0"
             id="path2636"
             transform="matrix(1.101749,0,0,1.1017491,-951.57031,-302.89023)"
             d="m 722.36914,79.533203 c 0,0 -2.45312,1.104641 -2.45312,2.525391 v 7.550781 a 16.752967,16.752964 0 0 0 4.9082,-0.925781 v -6.625 c 0,-1.42075 -2.45508,-2.525391 -2.45508,-2.525391 z"
             style="opacity:1;fill:#ffffff;fill-opacity:1;fill-rule:nonzero;stroke:none;stroke-width:0.212892;stroke-linecap:round;stroke-linejoin:round;stroke-miterlimit:4;stroke-dasharray:none;stroke-dashoffset:0;stroke-opacity:1;paint-order:fill markers stroke" />
          <path
             inkscape:connector-curvature="0"
             id="path2638"
             transform="matrix(1.101749,0,0,1.1017491,-951.57031,-302.89023)"
             d="m 722.36914,80.994141 c 0,0 -2.03711,0.916042 -2.03711,2.095703 v 6.503906 a 16.752967,16.752964 0 0 0 4.07617,-0.773438 v -5.730468 c 0,-1.179661 -2.03906,-2.095703 -2.03906,-2.095703 z"
             style="opacity:1;fill:#999999;fill-opacity:1;fill-rule:nonzero;stroke:none;stroke-width:0.176764;stroke-linecap:round;stroke-linejoin:round;stroke-miterlimit:4;stroke-dasharray:none;stroke-dashoffset:0;stroke-opacity:1;paint-order:fill markers stroke" />
          <g
             id="g2664">
            <path
               sodipodi:type="star"
               style="opacity:1;fill:#fffe03;fill-opacity:1;fill-rule:nonzero;stroke:#d54a1e;stroke-width:0.2;stroke-linecap:round;stroke-linejoin:round;stroke-miterlimit:4;stroke-dasharray:none;stroke-dashoffset:0;stroke-opacity:1;paint-order:fill markers stroke"
               id="path2640"
               sodipodi:sides="5"
               sodipodi:cx="-147.09846"
               sodipodi:cy="-212.34891"
               sodipodi:r1="0.99728298"
               sodipodi:r2="2.2591491"
               sodipodi:arg1="1.0471976"
               sodipodi:arg2="1.6755161"
               inkscape:flatsided="false"
               inkscape:rounded="0"
               inkscape:randomized="0"
               inkscape:transform-center-x="-0.27154355"
               inkscape:transform-center-y="-0.3941582"
               transform="rotate(30,-151.31759,-210.9672)"
               d="m -146.59982,-211.48524 -0.73479,1.38311 -0.43117,-1.50565 -1.54247,-0.27142 1.29872,-0.87534 -0.21851,-1.55085 1.23382,0.96466 1.40742,-0.68705 -0.53617,1.47153 1.08834,1.12622 z" />
            <path
               sodipodi:type="star"
               style="opacity:1;fill:#fffe03;fill-opacity:1;fill-rule:nonzero;stroke:#d54a1e;stroke-width:0.2;stroke-linecap:round;stroke-linejoin:round;stroke-miterlimit:4;stroke-dasharray:none;stroke-dashoffset:0;stroke-opacity:1;paint-order:fill markers stroke"
               id="path2642"
               sodipodi:sides="5"
               sodipodi:cx="-147.09846"
               sodipodi:cy="-212.34891"
               sodipodi:r1="0.99728298"
               sodipodi:r2="2.2591491"
               sodipodi:arg1="1.0471976"
               sodipodi:arg2="1.6755161"
               inkscape:flatsided="false"
               inkscape:rounded="0"
               inkscape:randomized="0"
               inkscape:transform-center-x="-0.23878265"
               inkscape:transform-center-y="-0.34660748"
               transform="matrix(0.76155036,0.4396813,-0.4396813,0.76155036,-125.33178,12.920373)"
               d="m -146.59982,-211.48524 -0.73479,1.38311 -0.43117,-1.50565 -1.54247,-0.27142 1.29872,-0.87534 -0.21851,-1.55085 1.23382,0.96466 1.40742,-0.68705 -0.53617,1.47153 1.08834,1.12622 z" />
            <path
               sodipodi:type="star"
               style="opacity:1;fill:#fffe03;fill-opacity:1;fill-rule:nonzero;stroke:#d54a1e;stroke-width:0.2;stroke-linecap:round;stroke-linejoin:round;stroke-miterlimit:4;stroke-dasharray:none;stroke-dashoffset:0;stroke-opacity:1;paint-order:fill markers stroke"
               id="path2644"
               sodipodi:sides="5"
               sodipodi:cx="-147.09846"
               sodipodi:cy="-212.34891"
               sodipodi:r1="0.99728298"
               sodipodi:r2="2.2591491"
               sodipodi:arg1="1.0471976"
               sodipodi:arg2="1.6755161"
               inkscape:flatsided="false"
               inkscape:rounded="0"
               inkscape:randomized="0"
               inkscape:transform-center-x="-0.20247657"
               inkscape:transform-center-y="-0.29391208"
               transform="matrix(0.64576967,0.37283528,-0.37283528,0.64576967,-126.16998,-24.047101)"
               d="m -146.59982,-211.48524 -0.73479,1.38311 -0.43117,-1.50565 -1.54247,-0.27142 1.29872,-0.87534 -0.21851,-1.55085 1.23382,0.96466 1.40742,-0.68705 -0.53617,1.47153 1.08834,1.12622 z" />
            <path
               sodipodi:type="star"
               style="opacity:1;fill:#fffe03;fill-opacity:1;fill-rule:nonzero;stroke:#d54a1e;stroke-width:0.2;stroke-linecap:round;stroke-linejoin:round;stroke-miterlimit:4;stroke-dasharray:none;stroke-dashoffset:0;stroke-opacity:1;paint-order:fill markers stroke"
               id="path2646"
               sodipodi:sides="5"
               sodipodi:cx="-147.09846"
               sodipodi:cy="-212.34891"
               sodipodi:r1="0.99728298"
               sodipodi:r2="2.2591491"
               sodipodi:arg1="1.0471976"
               sodipodi:arg2="1.6755161"
               inkscape:flatsided="false"
               inkscape:rounded="0"
               inkscape:randomized="0"
               inkscape:transform-center-x="-0.15963814"
               inkscape:transform-center-y="-0.23173239"
               transform="matrix(0.50914807,0.29395676,-0.29395676,0.50914807,-128.57767,-67.907361)"
               d="m -146.59982,-211.48524 -0.73479,1.38311 -0.43117,-1.50565 -1.54247,-0.27142 1.29872,-0.87534 -0.21851,-1.55085 1.23382,0.96466 1.40742,-0.68705 -0.53617,1.47153 1.08834,1.12622 z" />
            <path
               sodipodi:type="star"
               style="opacity:1;fill:#fffe03;fill-opacity:1;fill-rule:nonzero;stroke:#d54a1e;stroke-width:0.2;stroke-linecap:round;stroke-linejoin:round;stroke-miterlimit:4;stroke-dasharray:none;stroke-dashoffset:0;stroke-opacity:1;paint-order:fill markers stroke"
               id="path2648"
               sodipodi:sides="5"
               sodipodi:cx="-147.09846"
               sodipodi:cy="-212.34891"
               sodipodi:r1="0.99728298"
               sodipodi:r2="2.2591491"
               sodipodi:arg1="1.0471976"
               sodipodi:arg2="1.6755161"
               inkscape:flatsided="false"
               inkscape:rounded="0"
               inkscape:randomized="0"
               inkscape:transform-center-x="-0.12940323"
               inkscape:transform-center-y="-0.18783874"
               transform="matrix(0.41270918,0.23827775,-0.23827775,0.41270918,-130.90038,-99.152346)"
               d="m -146.59982,-211.48524 -0.73479,1.38311 -0.43117,-1.50565 -1.54247,-0.27142 1.29872,-0.87534 -0.21851,-1.55085 1.23382,0.96466 1.40742,-0.68705 -0.53617,1.47153 1.08834,1.12622 z" />
            <path
               sodipodi:type="star"
               style="opacity:1;fill:#fffe03;fill-opacity:1;fill-rule:nonzero;stroke:#d54a1e;stroke-width:0.2;stroke-linecap:round;stroke-linejoin:round;stroke-miterlimit:4;stroke-dasharray:none;stroke-dashoffset:0;stroke-opacity:1;paint-order:fill markers stroke"
               id="path2650"
               sodipodi:sides="5"
               sodipodi:cx="-147.09846"
               sodipodi:cy="-212.34891"
               sodipodi:r1="0.99728298"
               sodipodi:r2="2.2591491"
               sodipodi:arg1="1.0471976"
               sodipodi:arg2="1.6755161"
               inkscape:flatsided="false"
               inkscape:rounded="0"
               inkscape:randomized="0"
               inkscape:transform-center-x="-0.096648729"
               inkscape:transform-center-y="-0.14028409"
               transform="matrix(0.30823392,0.17795894,-0.17795894,0.30823392,-133.60958,-132.05972)"
               d="m -146.59982,-211.48524 -0.73479,1.38311 -0.43117,-1.50565 -1.54247,-0.27142 1.29872,-0.87534 -0.21851,-1.55085 1.23382,0.96466 1.40742,-0.68705 -0.53617,1.47153 1.08834,1.12622 z" />
            <path
               sodipodi:type="star"
               style="opacity:1;fill:#fffe03;fill-opacity:1;fill-rule:nonzero;stroke:#d54a1e;stroke-width:0.2;stroke-linecap:round;stroke-linejoin:round;stroke-miterlimit:4;stroke-dasharray:none;stroke-dashoffset:0;stroke-opacity:1;paint-order:fill markers stroke"
               id="path2652"
               sodipodi:sides="5"
               sodipodi:cx="-147.09846"
               sodipodi:cy="-212.34891"
               sodipodi:r1="0.99728298"
               sodipodi:r2="2.2591491"
               sodipodi:arg1="1.0471976"
               sodipodi:arg2="1.6755161"
               inkscape:flatsided="false"
               inkscape:rounded="0"
               inkscape:randomized="0"
               inkscape:transform-center-x="-0.27154355"
               inkscape:transform-center-y="-0.3941582"
               transform="matrix(-0.8660254,0.5,0.5,0.8660254,-192.04996,47.44131)"
               d="m -146.59982,-211.48524 -0.73479,1.38311 -0.43117,-1.50565 -1.54247,-0.27142 1.29872,-0.87534 -0.21851,-1.55085 1.23382,0.96466 1.40742,-0.68705 -0.53617,1.47153 1.08834,1.12622 z" />
            <path
               sodipodi:type="star"
               style="opacity:1;fill:#fffe03;fill-opacity:1;fill-rule:nonzero;stroke:#d54a1e;stroke-width:0.2;stroke-linecap:round;stroke-linejoin:round;stroke-miterlimit:4;stroke-dasharray:none;stroke-dashoffset:0;stroke-opacity:1;paint-order:fill markers stroke"
               id="path2654"
               sodipodi:sides="5"
               sodipodi:cx="-147.09846"
               sodipodi:cy="-212.34891"
               sodipodi:r1="0.99728298"
               sodipodi:r2="2.2591491"
               sodipodi:arg1="1.0471976"
               sodipodi:arg2="1.6755161"
               inkscape:flatsided="false"
               inkscape:rounded="0"
               inkscape:randomized="0"
               inkscape:transform-center-x="-0.23878265"
               inkscape:transform-center-y="-0.34660748"
               transform="matrix(-0.76155036,0.4396813,0.4396813,0.76155036,-192.47449,12.967133)"
               d="m -146.59982,-211.48524 -0.73479,1.38311 -0.43117,-1.50565 -1.54247,-0.27142 1.29872,-0.87534 -0.21851,-1.55085 1.23382,0.96466 1.40742,-0.68705 -0.53617,1.47153 1.08834,1.12622 z" />
            <path
               sodipodi:type="star"
               style="opacity:1;fill:#fffe03;fill-opacity:1;fill-rule:nonzero;stroke:#d54a1e;stroke-width:0.2;stroke-linecap:round;stroke-linejoin:round;stroke-miterlimit:4;stroke-dasharray:none;stroke-dashoffset:0;stroke-opacity:1;paint-order:fill markers stroke"
               id="path2656"
               sodipodi:sides="5"
               sodipodi:cx="-147.09846"
               sodipodi:cy="-212.34891"
               sodipodi:r1="0.99728298"
               sodipodi:r2="2.2591491"
               sodipodi:arg1="1.0471976"
               sodipodi:arg2="1.6755161"
               inkscape:flatsided="false"
               inkscape:rounded="0"
               inkscape:randomized="0"
               inkscape:transform-center-x="-0.20247657"
               inkscape:transform-center-y="-0.29391208"
               transform="matrix(-0.64576967,0.37283528,0.37283528,0.64576967,-191.63629,-24.000341)"
               d="m -146.59982,-211.48524 -0.73479,1.38311 -0.43117,-1.50565 -1.54247,-0.27142 1.29872,-0.87534 -0.21851,-1.55085 1.23382,0.96466 1.40742,-0.68705 -0.53617,1.47153 1.08834,1.12622 z" />
            <path
               sodipodi:type="star"
               style="opacity:1;fill:#fffe03;fill-opacity:1;fill-rule:nonzero;stroke:#d54a1e;stroke-width:0.2;stroke-linecap:round;stroke-linejoin:round;stroke-miterlimit:4;stroke-dasharray:none;stroke-dashoffset:0;stroke-opacity:1;paint-order:fill markers stroke"
               id="path2658"
               sodipodi:sides="5"
               sodipodi:cx="-147.09846"
               sodipodi:cy="-212.34891"
               sodipodi:r1="0.99728298"
               sodipodi:r2="2.2591491"
               sodipodi:arg1="1.0471976"
               sodipodi:arg2="1.6755161"
               inkscape:flatsided="false"
               inkscape:rounded="0"
               inkscape:randomized="0"
               inkscape:transform-center-x="-0.15963814"
               inkscape:transform-center-y="-0.23173239"
               transform="matrix(-0.50914807,0.29395676,0.29395676,0.50914807,-189.2286,-67.860601)"
               d="m -146.59982,-211.48524 -0.73479,1.38311 -0.43117,-1.50565 -1.54247,-0.27142 1.29872,-0.87534 -0.21851,-1.55085 1.23382,0.96466 1.40742,-0.68705 -0.53617,1.47153 1.08834,1.12622 z" />
            <path
               sodipodi:type="star"
               style="opacity:1;fill:#fffe03;fill-opacity:1;fill-rule:nonzero;stroke:#d54a1e;stroke-width:0.2;stroke-linecap:round;stroke-linejoin:round;stroke-miterlimit:4;stroke-dasharray:none;stroke-dashoffset:0;stroke-opacity:1;paint-order:fill markers stroke"
               id="path2660"
               sodipodi:sides="5"
               sodipodi:cx="-147.09846"
               sodipodi:cy="-212.34891"
               sodipodi:r1="0.99728298"
               sodipodi:r2="2.2591491"
               sodipodi:arg1="1.0471976"
               sodipodi:arg2="1.6755161"
               inkscape:flatsided="false"
               inkscape:rounded="0"
               inkscape:randomized="0"
               inkscape:transform-center-x="-0.12940323"
               inkscape:transform-center-y="-0.18783874"
               transform="matrix(-0.41270918,0.23827775,0.23827775,0.41270918,-186.90589,-99.105586)"
               d="m -146.59982,-211.48524 -0.73479,1.38311 -0.43117,-1.50565 -1.54247,-0.27142 1.29872,-0.87534 -0.21851,-1.55085 1.23382,0.96466 1.40742,-0.68705 -0.53617,1.47153 1.08834,1.12622 z" />
            <path
               sodipodi:type="star"
               style="opacity:1;fill:#fffe03;fill-opacity:1;fill-rule:nonzero;stroke:#d54a1e;stroke-width:0.2;stroke-linecap:round;stroke-linejoin:round;stroke-miterlimit:4;stroke-dasharray:none;stroke-dashoffset:0;stroke-opacity:1;paint-order:fill markers stroke"
               id="path2662"
               sodipodi:sides="5"
               sodipodi:cx="-147.09846"
               sodipodi:cy="-212.34891"
               sodipodi:r1="0.99728298"
               sodipodi:r2="2.2591491"
               sodipodi:arg1="1.0471976"
               sodipodi:arg2="1.6755161"
               inkscape:flatsided="false"
               inkscape:rounded="0"
               inkscape:randomized="0"
               inkscape:transform-center-x="-0.096648729"
               inkscape:transform-center-y="-0.14028409"
               transform="matrix(-0.30823392,0.17795894,0.17795894,0.30823392,-184.19669,-132.01296)"
               d="m -146.59982,-211.48524 -0.73479,1.38311 -0.43117,-1.50565 -1.54247,-0.27142 1.29872,-0.87534 -0.21851,-1.55085 1.23382,0.96466 1.40742,-0.68705 -0.53617,1.47153 1.08834,1.12622 z" />
          </g>
          <g
             id="g2682">
            <path
               style="opacity:1;fill:#fae847;fill-opacity:1;fill-rule:nonzero;stroke:#836b3d;stroke-width:0.377953;stroke-linecap:round;stroke-linejoin:round;stroke-miterlimit:4;stroke-dasharray:none;stroke-dashoffset:0;stroke-opacity:1;paint-order:fill markers stroke"
               d="m -608.36523,764.58398 c -1.69078,0.0635 -3.73148,0.37116 -6.19532,1.03125 l -0.17187,0.0879 -0.0625,0.0664 -1.46485,2.19727 h -3.51562 v 20.65429 l 15.86914,-0.92773 c 0,0 1.85231,0.67065 3.02148,0.875 v 0.0625 c 0.0781,0 0.17965,-0.0147 0.27539,-0.0254 0.096,0.0108 0.19904,0.0254 0.27735,0.0254 v -0.0625 c 1.16928,-0.20472 3.01953,-0.875 3.01953,-0.875 l 15.86914,0.92773 V 767.9668 h -3.51562 l -1.46485,-2.19727 -0.0606,-0.0664 -0.17382,-0.0879 c -2.46384,-0.66009 -4.50454,-0.96775 -6.19532,-1.03125 -5.2973,-0.19918 -7.1341,1.98213 -7.75586,3.2129 -0.62175,-1.23077 -2.45855,-3.41208 -7.75585,-3.2129 z"
               transform="matrix(0.26458333,0,0,0.26458333,0,-429.90601)"
               id="path2666"
               inkscape:connector-curvature="0" />
            <path
               style="opacity:1;fill:#ffffff;fill-opacity:1;fill-rule:nonzero;stroke:#836b3d;stroke-width:0.1;stroke-linecap:round;stroke-linejoin:round;stroke-miterlimit:4;stroke-dasharray:none;stroke-dashoffset:0;stroke-opacity:1;paint-order:fill markers stroke"
               d="m -162.36885,-227.04926 v 4.09257 c 0,0 2.44823,-0.51157 3.30694,0.21924 v -3.61753 c 0,0 -0.26075,-1.5105 -3.30694,-0.69428 z"
               id="path2668"
               inkscape:connector-curvature="0" />
            <path
               style="opacity:1;fill:#ffffff;fill-opacity:1;fill-rule:nonzero;stroke:#836b3d;stroke-width:0.1;stroke-linecap:round;stroke-linejoin:round;stroke-miterlimit:4;stroke-dasharray:none;stroke-dashoffset:0;stroke-opacity:1;paint-order:fill markers stroke"
               d="m -162.38027,-222.72281 -0.45217,0.65888 3.29881,-0.21963 0.52525,0.23255 c 0.25153,-0.30743 -0.0664,-1.21791 -3.37189,-0.6718 z"
               id="path2670"
               inkscape:connector-curvature="0"
               sodipodi:nodetypes="ccccc" />
            <path
               style="opacity:1;fill:#ffffff;fill-opacity:1;fill-rule:nonzero;stroke:#836b3d;stroke-width:0.1;stroke-linecap:round;stroke-linejoin:round;stroke-miterlimit:4;stroke-dasharray:none;stroke-dashoffset:0;stroke-opacity:1;paint-order:fill markers stroke"
               d="m -162.66449,-226.71481 -0.37465,0.52968 0.0258,3.82406 0.40049,-0.56844 z"
               id="path2672"
               inkscape:connector-curvature="0" />
            <path
               style="opacity:1;fill:#ffffff;fill-opacity:1;fill-rule:nonzero;stroke:#836b3d;stroke-width:0.377953;stroke-linecap:round;stroke-linejoin:round;stroke-miterlimit:4;stroke-dasharray:none;stroke-dashoffset:0;stroke-opacity:1;paint-order:fill markers stroke"
               d="m -618.45703,769.13867 v 18.31055 l 14.94141,-0.78125 c 0.76142,0.63742 1.76654,0.81775 2.7832,0.97656 l 0.0488,0.0312 c 0.10848,0.0252 0.0749,-0.0582 0.19726,-0.0312 1.01666,-0.15881 2.02178,-0.33914 2.78321,-0.97656 l 14.9414,0.78125 v -18.31055 h -1.36719 l 0.39063,0.39063 -0.14649,17.28515 -14.25781,-0.78125 c -0.56439,0.6618 -2.43408,0.861 -2.34375,0.78125 -0.0925,0.003 -0.15683,0.008 -0.24609,0.0117 v -0.0117 c 0.0903,0.0797 -1.77936,-0.11945 -2.34375,-0.78125 l -14.25781,0.78125 -0.14649,-17.28515 0.39063,-0.39063 z"
               transform="matrix(0.26458333,0,0,0.26458333,0,-429.90601)"
               id="path2674"
               inkscape:connector-curvature="0"
               sodipodi:nodetypes="ccccccccccccccccccccc" />
            <path
               style="opacity:1;fill:#ffffff;fill-opacity:1;fill-rule:nonzero;stroke:#836b3d;stroke-width:0.1;stroke-linecap:round;stroke-linejoin:round;stroke-miterlimit:4;stroke-dasharray:none;stroke-dashoffset:0;stroke-opacity:1;paint-order:fill markers stroke"
               d="m -155.45348,-227.04926 v 4.09257 c 0,0 -2.44823,-0.51157 -3.30694,0.21924 v -3.61753 c 0,0 0.26075,-1.5105 3.30694,-0.69428 z"
               id="path2676"
               inkscape:connector-curvature="0" />
            <path
               style="opacity:1;fill:#ffffff;fill-opacity:1;fill-rule:nonzero;stroke:#836b3d;stroke-width:0.1;stroke-linecap:round;stroke-linejoin:round;stroke-miterlimit:4;stroke-dasharray:none;stroke-dashoffset:0;stroke-opacity:1;paint-order:fill markers stroke"
               d="m -155.44206,-222.72281 0.45217,0.65888 -3.29881,-0.21963 -0.52525,0.23255 c -0.25153,-0.30743 0.0664,-1.21791 3.37189,-0.6718 z"
               id="path2678"
               inkscape:connector-curvature="0"
               sodipodi:nodetypes="ccccc" />
            <path
               style="opacity:1;fill:#ffffff;fill-opacity:1;fill-rule:nonzero;stroke:#836b3d;stroke-width:0.1;stroke-linecap:round;stroke-linejoin:round;stroke-miterlimit:4;stroke-dasharray:none;stroke-dashoffset:0;stroke-opacity:1;paint-order:fill markers stroke"
               d="m -155.15784,-226.71481 0.37465,0.52968 -0.0258,3.82406 -0.40049,-0.56844 z"
               id="path2680"
               inkscape:connector-curvature="0" />
          </g>
          <g
             transform="translate(-34.146662,-38.019982)"
             id="g2691">
            <path
               transform="matrix(0.26458333,0,0,0.26458333,0,-429.90601)"
               inkscape:connector-curvature="0"
               style="fill:#0a15ee;fill-opacity:1;stroke-width:0.171899"
               d="m -470.72852,856.32031 -0.64062,2.79297 c -0.35305,1.53634 -0.7884,3.41012 -0.9668,4.16406 -0.17839,0.75398 -0.29781,1.39555 -0.26758,1.42578 0.0307,0.0306 0.38806,0.0729 0.79493,0.0918 0.6912,0.0323 0.74794,-5.3e-4 0.86132,-0.48242 0.0668,-0.28365 0.3162,-1.3917 0.55469,-2.46289 0.45971,-2.06684 0.55163,-2.30453 0.69336,-1.80469 0.0489,0.17258 0.37589,1.37777 0.72852,2.67774 l 0.64258,2.36328 h 0.72265 0.72461 l 0.99609,-2.57813 c 0.54834,-1.41819 1.01639,-2.55783 1.03907,-2.53515 0.0223,0.0237 0.16976,1.12559 0.32812,2.44922 0.15836,1.32362 0.31572,2.50279 0.35352,2.62109 h 0.002 c 0.0402,0.1285 0.36645,0.21484 0.81641,0.21484 h 0.75 l -0.13868,-1.01953 c -0.0768,-0.56096 -0.2596,-2.24291 -0.40624,-3.73828 -0.39255,-3.99825 -0.3297,-3.78977 -1.17579,-3.88086 -0.39299,-0.0423 -0.76091,-0.0294 -0.81836,0.0273 -0.0576,0.0568 -0.59603,1.36186 -1.19531,2.9004 -0.59924,1.53853 -1.13919,2.69831 -1.20117,2.57812 -0.0618,-0.12038 -0.44719,-1.47538 -0.85742,-3.01172 l -0.7461,-2.79297 h -0.79687 z m -7.125,0.17188 c -0.77185,0 -0.825,0.0309 -0.98828,0.55859 -0.095,0.30728 -0.71999,2.23809 -1.38867,4.29102 -0.66863,2.05292 -1.2168,3.80571 -1.2168,3.89453 0,0.17008 1.37958,0.057 1.57422,-0.12891 0.062,-0.059 0.22817,-0.45543 0.36914,-0.88086 l 0.25586,-0.77344 1.76172,-0.0859 1.76172,-0.084 0.33008,0.76953 c 0.18126,0.42358 0.39688,0.81106 0.47851,0.86133 0.0816,0.0491 0.49033,0.0653 0.91016,0.0312 l 0.76367,-0.0625 -0.42773,-0.88672 c -0.23539,-0.48782 -0.87391,-1.89203 -1.41797,-3.12109 -0.54406,-1.22906 -1.20494,-2.7177 -1.46875,-3.30859 l -0.47852,-1.07422 z m 17.60352,0.82031 -0.10938,0.83594 c -0.13874,1.07248 -0.9401,6.32177 -1.07617,7.04687 -0.095,0.50657 -0.0638,0.5581 0.38477,0.625 1.25956,0.18845 1.08424,0.53468 1.68359,-3.3125 0.2431,-1.55996 0.51716,-3.29639 0.60938,-3.85742 0.0921,-0.56103 0.13457,-1.05293 0.0937,-1.09375 -0.0409,-0.0408 -0.41437,-0.11329 -0.83008,-0.16016 z m -25.37109,0.21484 -0.70703,0.10547 c -0.38846,0.0586 -0.77062,0.1649 -0.84961,0.23633 -0.11388,0.10326 0.93565,7.3164 1.19531,8.2168 0.0359,0.12434 0.20126,0.18667 0.36719,0.13867 0.16592,-0.048 0.91942,-0.17309 1.67578,-0.2793 1.80986,-0.25375 1.95317,-0.30267 1.88476,-0.65039 -0.25478,-1.29664 -0.13257,-1.20158 -1.28711,-1.01562 -0.61523,0.10015 -1.10277,0.10633 -1.18554,0.0156 -0.14684,-0.16078 -0.80076,-3.96539 -0.98633,-5.74219 z m -5.85547,1.02735 c -1.73893,0 -3.02014,1.8904 -2.18555,3.22461 0.34526,0.55188 1.56893,1.43234 2.78125,2.00195 0.76093,0.35754 1.35547,0.89302 1.35547,1.2207 0,0.36477 -0.69822,0.94532 -1.13672,0.94532 -0.21127,0 -0.61043,-0.19139 -0.88672,-0.42383 l -0.50195,-0.42188 -0.54492,0.5625 -0.54492,0.5625 0.38867,0.36328 c 0.21407,0.20055 0.6224,0.49146 0.90625,0.64454 v -0.002 c 0.63261,0.34182 1.91415,0.24397 2.68359,-0.20508 0.59312,-0.34616 1.18359,-1.35806 1.18359,-2.02734 0,-1.2107 -0.77588,-2.01558 -3.04492,-3.1582 -1.22298,-0.6158 -1.56936,-1.05755 -1.15429,-1.47266 0.34994,-0.34809 0.92325,-0.34066 1.4375,0.0195 0.39583,0.27746 0.4225,0.27011 0.81054,-0.21484 0.22088,-0.27595 0.40182,-0.59157 0.40235,-0.70117 10e-4,-0.2713 -1.37164,-0.91797 -1.94922,-0.91797 z m 38.38281,0.15625 c -2.29227,-0.0486 -4.17222,1.51016 -4.54883,4.02148 -0.28301,1.88723 1.11516,4.08839 2.95703,4.6543 1.29079,0.39643 2.57185,0.34366 3.62891,-0.14844 l 0.9082,-0.42383 -0.35351,-0.6914 c -0.19435,-0.38087 -0.39265,-0.69336 -0.44141,-0.69336 -0.0487,0 -0.27436,0.12175 -0.5,0.26953 -0.22571,0.14816 -0.82247,0.30829 -1.32617,0.35742 -0.74994,0.0734 -1.05601,0.0152 -1.68945,-0.32422 -1.05052,-0.56258 -1.54688,-1.33183 -1.54688,-2.39648 0,-1.11814 0.34461,-1.88395 1.11133,-2.46875 1.27627,-0.97346 3.17769,-0.6958 4.28906,0.625 l 0.46094,0.54492 0.59375,-0.31836 c 0.3264,-0.17582 0.59375,-0.43274 0.59375,-0.57031 0,-0.45037 -1.62528,-1.84123 -2.49805,-2.13867 -0.55942,-0.19061 -1.10968,-0.28762 -1.63867,-0.29883 z m -24.65234,0.17578 0.64648,1.30469 c 0.35539,0.71814 0.59973,1.37797 0.54492,1.46679 -0.11803,0.19238 -1.91723,0.22067 -2.02343,0.0332 -0.0401,-0.071 0.13021,-0.7307 0.3789,-1.4668 z m -19.26172,1.51758 c -0.16879,0.007 -0.36945,0.0927 -0.64453,0.19726 l -0.45508,0.17383 1.08594,3.14258 c 0.59693,1.72921 1.22035,3.55282 1.38476,4.05273 0.26359,0.80115 0.34104,0.89659 0.66797,0.79492 1.01178,-0.31498 1.18188,-0.42734 1.0957,-0.71874 -0.0483,-0.16377 -0.66571,-1.95949 -1.37304,-3.99219 -1.04066,-2.99061 -1.25536,-3.67279 -1.76172,-3.65039 z m 55.38086,2.27343 c -0.75096,0 -0.91275,0.0729 -1.5293,0.68946 -0.63352,0.63375 -0.68301,0.74765 -0.60742,1.41992 0.0453,0.40225 0.31614,1.23462 0.59961,1.84766 0.84843,1.8353 1.00941,2.37985 0.80078,2.71093 -0.37754,0.59955 -1.43825,0.46234 -1.75195,-0.22656 -0.11074,-0.24306 -0.20118,-0.59618 -0.20118,-0.78516 0,-0.30122 -0.079,-0.33043 -0.64453,-0.23632 -1.07747,0.17907 -1.05912,0.15952 -0.87695,0.97265 0.18542,0.82795 0.8285,1.61127 1.60742,1.95899 0.80795,0.36079 1.84349,0.29928 2.50781,-0.14844 1.2759,-0.85973 1.34622,-2.05955 0.26172,-4.4043 -0.8496,-1.83651 -0.85627,-2.2985 -0.0391,-2.21875 0.42255,0.0411 0.60104,0.18519 0.8418,0.67774 l 0.30468,0.625 0.72657,-0.22071 c 0.77355,-0.23542 0.79253,-0.30452 0.34375,-1.2539 -0.40233,-0.85119 -1.32944,-1.40821 -2.34375,-1.40821 z m -63.98438,1.20313 c -0.0482,0 -0.38282,0.1515 -0.74414,0.33594 l -0.65625,0.33593 1.82422,3.57422 c 1.00403,1.96653 1.88925,3.67272 1.96484,3.79102 0.076,0.11792 0.16968,0.21484 0.20899,0.21484 0.23671,0 3.3457,-1.78071 3.3457,-1.91601 0,-0.25629 -0.50897,-1.17926 -0.64844,-1.17578 -0.0685,0.002 -0.54491,0.23449 -1.05859,0.51757 -0.71316,0.39307 -0.96852,0.46438 -1.07812,0.29883 -0.079,-0.11939 -0.80273,-1.51208 -1.60743,-3.0957 -0.80466,-1.58362 -1.5024,-2.88086 -1.55078,-2.88086 z m 70.91992,2.84766 c -1.309,0.0144 -1.99745,0.31604 -3.05273,1.33398 -0.78735,0.75953 -1.41602,2.1364 -1.41602,3.09961 0,0.31019 0.11608,0.95298 0.25782,1.42969 0.29843,1.00497 1.51838,2.27116 2.71093,2.8125 0.48416,0.21997 1.11676,0.33149 1.89258,0.33398 1.30492,0.004 1.4396,-0.11288 1.19922,-1.04101 -0.14547,-0.56289 -0.16313,-0.57075 -1.01953,-0.52539 -1.38236,0.0734 -2.74122,-0.70559 -3.16211,-1.8125 -0.61954,-1.62959 0.36263,-3.54789 2.04883,-4.00196 1.44533,-0.38918 3.36403,0.82557 3.66601,2.32227 0.057,0.28346 0.18677,0.3249 0.83594,0.27539 0.42248,-0.0321 0.79814,-0.0872 0.83594,-0.125 0.15307,-0.1499 -0.55434,-1.63555 -1.12891,-2.37305 -0.87454,-1.12252 -2.19497,-1.74363 -3.66797,-1.72851 z m -76.75781,0.51367 c -0.17345,0.0209 -0.46244,0.14122 -0.74023,0.3164 l -0.67383,0.42383 0.4082,2.28906 c 0.22417,1.25874 0.58094,3.27503 0.79297,4.48047 0.21211,1.20545 0.40922,2.19141 0.43945,2.19141 0.0301,0 0.36222,-0.17393 0.73828,-0.38672 0.65726,-0.3719 0.67948,-0.41307 0.58008,-1.07422 -0.0567,-0.37818 -0.13735,-0.81133 -0.17968,-0.96289 -0.0551,-0.1971 0.32679,-0.51507 1.34375,-1.11719 0.78194,-0.46299 1.48212,-0.87015 1.55468,-0.90039 0.0725,-0.032 0.40373,0.1805 0.73633,0.47266 0.71448,0.62736 0.83985,0.64056 1.60547,0.17383 0.68757,-0.41919 0.74238,-0.3397 -1.29297,-1.91406 -0.76902,-0.59486 -2.20548,-1.70533 -3.1914,-2.46876 -0.98593,-0.76342 -1.88139,-1.44249 -1.99024,-1.50976 -0.0272,-0.0168 -0.073,-0.0206 -0.13086,-0.0137 z m 0.63281,2.55078 c 0.24173,-0.07 2.17601,1.28028 2.19727,1.56445 0.007,0.0946 -0.36716,0.3845 -0.83008,0.64453 -0.46292,0.25992 -0.87683,0.47266 -0.91992,0.47266 -0.0815,0 -0.47266,-2.19003 -0.47266,-2.64649 0,-0.018 0.009,-0.0305 0.0254,-0.0352 z m 83.85743,1.48242 c -0.0496,-0.003 -0.56316,0.55673 -1.14063,1.24219 -0.57744,0.68545 -1.65849,1.96549 -2.40234,2.8457 -2.25778,2.67148 -2.0884,2.32233 -1.41602,2.9336 0.31888,0.28977 0.61877,0.52615 0.66602,0.52343 0.0472,-0.003 0.57705,-0.62025 1.17773,-1.37109 0.60064,-0.75084 1.16837,-1.36524 1.26172,-1.36524 0.0933,0 0.60751,0.36445 1.14258,0.81055 0.53507,0.4461 1.00101,0.82876 1.03125,0.84766 0.0322,0.0194 -0.49116,0.67959 -1.16406,1.46679 l -1.22461,1.42969 0.52343,0.47266 c 0.28766,0.25992 0.5915,0.47265 0.67579,0.47265 0.0842,0 0.48847,-0.40597 0.89843,-0.90234 0.82088,-0.9939 2.47073,-2.93969 3.78321,-4.46484 l 0.8457,-0.98438 -0.56445,-0.51562 c -0.31098,-0.28283 -0.608,-0.51482 -0.66016,-0.51758 -0.052,-0.003 -0.54171,0.53722 -1.08789,1.20117 l -0.99219,1.20703 -0.63281,-0.51758 c -0.34719,-0.28482 -0.85489,-0.70493 -1.12891,-0.93359 l -0.49804,-0.41602 0.92773,-1.08984 c 0.5105,-0.59973 0.99655,-1.14032 1.08008,-1.20117 0.13334,-0.0968 -0.86497,-1.15871 -1.10156,-1.17383 z m -92.0254,1.20508 c -0.10677,0.003 -0.42022,0.19157 -0.69726,0.41797 -0.37493,0.30659 -0.45921,0.46972 -0.32617,0.63867 0.20402,0.25931 1.29764,1.61537 3.54101,4.39453 0.8586,1.06364 1.61758,1.93359 1.6875,1.93359 0.0699,0 0.65674,-0.43247 1.30274,-0.96289 0.64599,-0.53038 1.32047,-1.06869 1.5,-1.19531 0.31408,-0.22129 0.30704,-0.2515 -0.18555,-0.8125 l -0.51172,-0.58398 -0.82422,0.66015 c -0.45263,0.36325 -0.88667,0.66016 -0.96679,0.66016 -0.15379,0 -0.9847,-0.96857 -3.0586,-3.56836 -0.69683,-0.87352 -1.35435,-1.58543 -1.46094,-1.58203 z m -2.73046,4.14453 c -1.50836,-0.1441 -3.04032,0.51047 -4.03516,1.90039 -1.6224,2.26666 -0.58671,5.60991 2.07227,6.68945 2.06664,0.83906 4.36467,-0.006 5.55859,-2.04296 0.41941,-0.71381 0.49991,-0.77028 1.00976,-0.6875 0.47075,0.0764 0.64635,-0.007 1.17579,-0.54883 0.34257,-0.35074 0.62304,-0.68153 0.62304,-0.73633 0,-0.0548 -0.54133,-0.15337 -1.20312,-0.21875 -1.17305,-0.11569 -1.20313,-0.12964 -1.20313,-0.59766 0,-0.6432 -0.75379,-2.02491 -1.42968,-2.62109 -0.76648,-0.67614 -1.66335,-1.05026 -2.56836,-1.13672 z m -0.38086,1.57812 c 0.6136,0.0226 1.24197,0.25995 1.79882,0.72852 0.49441,0.41601 1.03321,1.23148 1.03321,1.56445 0,0.0816 -0.27817,0.11391 -0.61719,0.0742 -0.53068,-0.0619 -0.71111,0.021 -1.29883,0.59375 l -0.68164,0.66406 0.48242,0.10938 c 0.26533,0.0597 0.81109,0.11757 1.21289,0.12891 0.40177,0.0113 0.73047,0.0924 0.73047,0.17968 0,0.32005 -0.94492,1.26819 -1.49023,1.4961 -2.36893,0.98978 -4.8917,-1.6763 -3.72852,-3.94141 0.55264,-1.07622 1.53592,-1.63523 2.5586,-1.59766 z m 101.64453,0.47071 c -1.06114,-0.0369 -2.13939,0.33764 -3.06836,1.13281 -2.41433,2.06653 -1.94151,5.91975 0.90039,7.33594 2.15898,1.07584 4.80321,0.18656 5.9043,-1.98633 0.9366,-1.8483 0.65535,-3.70789 -0.77539,-5.13867 -0.8573,-0.85731 -1.89981,-1.30684 -2.96094,-1.34375 z m -0.10547,1.69336 c 2.83468,0 3.79486,3.50721 1.4082,5.14258 -0.67128,0.45996 -1.97316,0.63112 -2.64648,0.34765 -1.59201,-0.67011 -2.21198,-2.88983 -1.19336,-4.26758 0.63983,-0.86524 1.35115,-1.22265 2.43164,-1.22265 z m -108.91602,3.24023 c -0.10582,-0.061 -0.39193,0.17591 -0.64062,0.5293 l -0.45117,0.63867 1.79883,1.36328 c 0.98959,0.74907 2.50791,1.88194 3.37304,2.51758 0.86514,0.63564 1.61663,1.15762 1.66992,1.16016 0.13013,0.006 0.84936,-0.97723 0.8418,-1.14844 -0.006,-0.11445 -6.0184,-4.73022 -6.5918,-5.06055 z m -2.41015,2.82227 -0.75586,1.30859 c -0.41594,0.72034 -0.94441,1.63956 -1.17383,2.04102 l -0.41797,0.73047 0.56445,0.34375 c 0.69377,0.423 0.94036,0.43192 1.07227,0.043 0.0563,-0.16543 0.21065,-0.44093 0.3418,-0.61328 0.22828,-0.30005 0.26443,-0.29503 0.89648,0.10352 0.3628,0.22877 1.24014,0.74922 1.94922,1.1582 0.70908,0.40895 1.71148,1.00195 2.22852,1.31641 h 0.002 c 0.51704,0.31445 0.9985,0.57031 1.07031,0.57031 0.0719,0 0.28444,-0.30104 0.47266,-0.66992 0.26305,-0.51576 0.2942,-0.70806 0.13281,-0.83203 -0.11539,-0.0886 -1.46791,-0.88061 -3.00391,-1.75977 l -2.79101,-1.59765 0.3418,-0.55469 c 0.45686,-0.73947 0.44261,-0.80138 -0.29493,-1.22461 z m 117.77734,1.22265 c -0.31682,-0.0138 -0.63808,0.0107 -0.96094,0.0781 -2.23797,0.4673 -3.82893,2.34805 -3.79492,4.48242 0.0267,1.61223 0.98242,3.14478 2.41406,3.87109 0.81918,0.41435 1.07072,0.46238 2.21289,0.4004 1.44926,-0.0785 2.02304,-0.3208 2.98633,-1.25782 0.90486,-0.88014 1.30411,-1.81959 1.30664,-3.08203 0.005,-2.41467 -1.9463,-4.39571 -4.16406,-4.49219 z m -0.44531,1.66993 c 0.79091,-0.0536 1.59969,0.16816 2.05859,0.60546 1.39193,1.32658 1.23537,3.51276 -0.32422,4.52344 -0.65945,0.42629 -1.88754,0.61708 -2.54492,0.39258 -1.32465,-0.45199 -2.14501,-2.0381 -1.76562,-3.41211 0.2211,-0.80077 1.06412,-1.7164 1.80468,-1.96094 0.24611,-0.0812 0.50785,-0.13056 0.77149,-0.14843 z m -119.41016,3.12304 c -0.0187,-0.0249 -0.2975,0.0639 -0.61914,0.19922 -0.61478,0.25852 -1.35622,0.96229 -1.68164,1.5957 -0.5094,0.99156 0.0468,2.46212 1.0957,2.90039 0.87013,0.36356 1.16049,0.32008 2.91211,-0.45117 1.90436,-0.83826 2.72986,-0.87538 2.81641,-0.125 0.0807,0.69933 -0.2415,1.13311 -1.00977,1.36328 -0.47829,0.14332 -0.66386,0.28374 -0.59961,0.45118 0.051,0.13341 0.0938,0.47523 0.0938,0.76171 -10e-6,0.5079 0.0159,0.51914 0.63867,0.40235 2.56376,-0.48095 3.50393,-3.32993 1.5625,-4.73633 -0.98189,-0.71142 -1.68942,-0.6746 -3.65625,0.19141 -1.72419,0.75904 -2.37943,0.81552 -2.46485,0.21484 -0.0611,-0.42871 0.56291,-1.08984 1.0293,-1.08984 0.17121,0 0.3125,-0.10468 0.3125,-0.23243 0,-0.19997 -0.3318,-1.31529 -0.42969,-1.44531 z m 126.44727,4.10352 -0.9961,0.39844 c -3.93218,1.5699 -6.68884,2.71461 -6.79882,2.82421 -0.0713,0.0709 0.18845,0.91686 0.57812,1.88086 0.38967,0.96401 0.76803,1.75391 0.83985,1.75391 0.0718,0 0.40625,-0.11646 0.74414,-0.25781 l 0.61523,-0.25586 -0.25781,-0.64649 c -0.14158,-0.35516 -0.34302,-0.81846 -0.44922,-1.03125 -0.10621,-0.21256 -0.13872,-0.44331 -0.0703,-0.51172 0.0686,-0.0685 1.49518,-0.67554 3.16797,-1.34765 3.26887,-1.31335 3.21317,-1.26568 2.79882,-2.35547 z m -130.32617,2.34375 c -0.17016,0.1923 -0.5187,1.29185 -0.43555,1.375 0.0395,0.0395 1.80034,0.63774 3.91211,1.33008 2.11177,0.69233 3.92416,1.26783 4.02734,1.27539 0.17772,0.0158 0.68029,-1.32166 0.54688,-1.45508 -0.19903,-0.19903 -7.9563,-2.63235 -8.05078,-2.52539 z"
               id="path2685" />
            <path
               style="fill:#000000;stroke-width:0.0454815"
               d="m -111.47022,-185.35195 c -0.0841,0.008 -0.16129,0.0456 -0.2005,0.11886 -0.0721,0.13466 -0.009,0.18442 0.13797,0.10852 0.11549,-0.0601 0.13587,-0.0592 0.19017,0.006 0.0521,0.0628 0.0458,0.0832 -0.0413,0.14107 -0.13367,0.0888 -0.12823,0.16602 0.0155,0.23152 0.16255,0.0741 0.13785,0.2511 -0.0377,0.2713 -0.0818,0.009 -0.13465,-0.0103 -0.15244,-0.0568 -0.0349,-0.0909 -0.19999,-0.0936 -0.19999,-0.003 0,0.0375 0.0415,0.10917 0.0915,0.15917 v 5.1e-4 c 0.0563,0.0563 0.15162,0.0909 0.25012,0.0909 0.28458,0 0.44853,-0.30629 0.26975,-0.50384 -0.0579,-0.064 -0.0608,-0.0956 -0.016,-0.16743 0.0299,-0.0486 0.0425,-0.13903 0.0269,-0.20103 -0.0342,-0.13641 -0.1937,-0.2086 -0.33383,-0.19585 z m -1.56218,0.003 c -0.13364,-0.003 -0.26522,0.0741 -0.31884,0.20361 -0.0784,0.18935 -0.0377,0.65245 0.0677,0.76895 0.12195,0.13476 0.40895,0.12721 0.50075,-0.0129 0.17942,-0.27383 0.10973,-0.8188 -0.11834,-0.92811 -0.0421,-0.0202 -0.0867,-0.0304 -0.13126,-0.0315 z m -0.80977,0.008 c -0.0957,2.2e-4 -0.19464,0.0374 -0.26561,0.11989 -0.13643,0.15841 -0.13443,0.2098 0.007,0.2098 0.0669,0 0.11369,-0.0263 0.11369,-0.0636 0,-0.0875 0.13452,-0.13111 0.21032,-0.0682 0.11246,0.0933 0.0664,0.2135 -0.18758,0.48782 -0.13758,0.1486 -0.25012,0.29301 -0.25012,0.32091 0,0.0329 0.12028,0.0506 0.34107,0.0506 0.31081,0 0.34158,-0.008 0.34158,-0.0909 0,-0.0737 -0.0308,-0.091 -0.15968,-0.091 -0.1829,0 -0.19881,-0.0409 -0.0636,-0.16329 0.12585,-0.11391 0.22272,-0.30587 0.22272,-0.44132 0,-0.16849 -0.15063,-0.27115 -0.31006,-0.27078 z m 1.52343,0.0186 c -0.0581,0.005 -0.0928,0.0295 -0.12041,0.0811 -0.0429,0.0802 -0.0369,0.0935 0.0424,0.0935 0.0866,0 0.0925,0.0277 0.0925,0.43511 0,0.42155 0.003,0.43475 0.0992,0.42065 0.0953,-0.014 0.0996,-0.0333 0.0946,-0.5147 l -0.005,-0.50023 -0.13642,-0.0139 c -0.0251,-0.003 -0.0473,-0.003 -0.0667,-0.002 z m -0.69815,0.15245 c 0.0235,0.006 0.0465,0.0186 0.0677,0.0398 0.0695,0.0696 0.0952,0.51558 0.0351,0.61288 -0.0505,0.0818 -0.2011,0.0602 -0.2527,-0.0362 -0.0516,-0.0965 -0.0608,-0.33336 -0.0191,-0.48886 0.0259,-0.0965 0.0985,-0.14504 0.16898,-0.12764 z"
               id="path2687"
               inkscape:connector-curvature="0" />
            <path
               style="fill:#000000;stroke-width:0.0454815"
               d="m -139.33686,-185.26956 c -0.0907,0 -0.0909,0.26708 -5.1e-4,0.41549 0.0512,0.0841 0.10615,0.25011 0.12195,0.36845 0.0381,0.28555 0.10801,0.23054 0.10801,-0.0847 0,-0.2434 -0.14965,-0.69919 -0.22945,-0.69919 z m 1.2175,0.01 c -0.0121,-0.001 -0.0359,0.0198 -0.0832,0.0625 -0.0527,0.0477 -0.13795,0.14609 -0.18965,0.21859 l -0.0941,0.1323 0.10232,0.0827 c 0.0957,0.0775 0.0975,0.0893 0.0305,0.185 -0.0985,0.14061 -0.0901,0.21453 0.0305,0.26303 l 5.2e-4,-5.1e-4 c 0.16787,0.0675 0.25327,0.0527 0.28577,-0.0496 0.031,-0.0975 -0.034,-0.1747 -0.14934,-0.1757 -0.083,-0.001 -0.0704,-0.0626 0.0434,-0.20723 0.0558,-0.0704 0.081,-0.13514 0.0568,-0.14314 -0.0241,-0.008 -0.0741,-0.0359 -0.11162,-0.061 -0.0595,-0.0398 -0.058,-0.0516 0.0114,-0.0925 0.0438,-0.0258 0.0796,-0.0899 0.0796,-0.14262 0,-0.0472 -7.7e-4,-0.0707 -0.0129,-0.0718 z m 0.65474,0.003 c -0.0131,0.007 -0.0268,0.0372 -0.0486,0.0946 -0.0406,0.10684 -0.0334,0.15527 0.0388,0.27285 0.0484,0.0786 0.10122,0.22498 0.11782,0.32504 0.0165,0.10006 0.0435,0.21262 0.06,0.25012 0.0165,0.0375 0.0364,-0.0644 0.0444,-0.22635 0.0152,-0.31051 0.0593,-0.37721 0.22169,-0.33641 0.11742,0.0295 0.19879,-0.092 0.19379,-0.28732 -0.002,-0.0704 -0.0143,-0.10261 -0.0269,-0.0713 -0.0126,0.0313 -0.0622,0.0574 -0.11007,0.0574 -0.0479,0 -0.0876,-0.0261 -0.0884,-0.0574 -9e-4,-0.0348 -0.0251,-0.0259 -0.062,0.0227 -0.0332,0.0438 -0.10325,0.0796 -0.15555,0.0796 -0.0523,0 -0.11502,-0.0358 -0.13952,-0.0796 -0.0196,-0.0352 -0.0324,-0.0509 -0.0455,-0.0439 z m 1.31672,0.12402 c -0.10972,0 -0.22537,0.16332 -0.27647,0.38964 -0.0301,0.13322 -0.0206,0.18045 0.0501,0.25115 0.1026,0.1026 0.0824,0.0999 0.26355,0.0367 0.14193,-0.0495 0.27802,-0.23682 0.27802,-0.38189 0,-0.10275 -0.20572,-0.29559 -0.31522,-0.29559 z m -0.11163,0.24546 c 0.0873,0.004 0.29043,0.11157 0.29043,0.16485 0,0.0456 -0.20566,0.0554 -0.30696,0.0145 -0.0674,-0.0272 -0.0755,-0.13493 -0.0129,-0.17363 0.007,-0.004 0.017,-0.006 0.0294,-0.006 z"
               id="path2689"
               inkscape:connector-curvature="0" />
          </g>
        </g>
      </g>
      <text
         xml:space="preserve"
         style="font-size:14.5349px;line-height:1.05;font-family:sans-serif;fill:#ff8b3d;fill-opacity:1;stroke-width:0.363372"
         x="-73.957054"
         y="461.30618"
         id="text88257"><tspan
           id="tspan88255"
           style="font-style:normal;font-variant:normal;font-weight:bold;font-stretch:normal;font-family:Metropolis;-inkscape-font-specification:'Metropolis Bold';fill:#ff8b3d;fill-opacity:1;stroke-width:0.363372"
           x="-73.957054"
           y="461.30618"
           sodipodi:role="line">Ahad, 16 Januari 2022</tspan></text>
    </g>
  </g>
</svg>
