<?xml version="1.0" encoding="UTF-8" standalone="no"?>
<svg
   xmlns:dc="http://purl.org/dc/elements/1.1/"
   xmlns:cc="http://creativecommons.org/ns#"
   xmlns:rdf="http://www.w3.org/1999/02/22-rdf-syntax-ns#"
   xmlns:svg="http://www.w3.org/2000/svg"
   xmlns="http://www.w3.org/2000/svg"
   xmlns:xlink="http://www.w3.org/1999/xlink"
   xmlns:sodipodi="http://sodipodi.sourceforge.net/DTD/sodipodi-0.dtd"
   xmlns:inkscape="http://www.inkscape.org/namespaces/inkscape"
   width="210mm"
   height="297mm"
   viewBox="0 0 210 297"
   version="1.1"
   id="svg16751"
   inkscape:version="1.0.2 (e86c870, 2021-01-15)"
   sodipodi:docname="PromosiKepsek.svg">
  <defs
     id="defs16745">
    <clipPath
       clipPathUnits="userSpaceOnUse"
       id="clipPath15504">
      <rect
         style="fill:#ffffff;fill-opacity:1;stroke:none;stroke-width:1;stroke-linecap:round;paint-order:stroke markers fill"
         id="rect15506"
         width="195.03572"
         height="195.03572"
         x="-845.15472"
         y="-42.333332" />
    </clipPath>
    <linearGradient
       inkscape:collect="always"
       xlink:href="#linearGradient16419"
       id="linearGradient16421"
       x1="-786.30695"
       y1="-26.726954"
       x2="-679.07587"
       y2="162.29701"
       gradientUnits="userSpaceOnUse" />
    <linearGradient
       inkscape:collect="always"
       id="linearGradient16419">
      <stop
         style="stop-color:#ff9955;stop-opacity:1"
         offset="0"
         id="stop16415" />
      <stop
         style="stop-color:#dd8549;stop-opacity:1"
         offset="1"
         id="stop16417" />
    </linearGradient>
    <filter
       inkscape:collect="always"
       style="color-interpolation-filters:sRGB"
       id="filter16463"
       x="-0.062515117"
       width="1.1250302"
       y="-0.079982251"
       height="1.1599644">
      <feGaussianBlur
         inkscape:collect="always"
         stdDeviation="4.177877"
         id="feGaussianBlur16465" />
    </filter>
    <clipPath
       clipPathUnits="userSpaceOnUse"
       id="clipPath15562">
      <rect
         style="fill:#e9afaf;fill-opacity:1;stroke:none;stroke-width:12.0104;stroke-linecap:round;paint-order:stroke markers fill"
         id="rect15564"
         width="761.31934"
         height="708.19067"
         x="-287.70074"
         y="567.06702"
         ry="27.238094"
         transform="rotate(90)" />
    </clipPath>
    <clipPath
       clipPathUnits="userSpaceOnUse"
       id="clipPath16559">
      <rect
         style="fill:#ffccaa;fill-opacity:1;stroke:none;stroke-width:0.961398;stroke-linecap:round;paint-order:stroke markers fill"
         id="rect16561"
         width="86.444443"
         height="60.149773"
         x="-752.90845"
         y="56.656086"
         ry="2.3134525" />
    </clipPath>
    <clipPath
       clipPathUnits="userSpaceOnUse"
       id="clipPath16484">
      <rect
         style="fill:#87decd;fill-opacity:1;stroke:none;stroke-width:0.961398;stroke-linecap:round;paint-order:stroke markers fill"
         id="rect16486"
         width="86.444443"
         height="60.149773"
         x="-752.90845"
         y="-8.5582647"
         ry="2.3134525" />
    </clipPath>
    <clipPath
       clipPathUnits="userSpaceOnUse"
       id="clipPath6436-2-5-7-56-7-03-3">
      <circle
         r="18.674574"
         cy="-222.91019"
         cx="-159.05081"
         id="circle6438-3-9-5-9-5-4-6"
         style="opacity:0.25;fill:#ffffff;fill-opacity:1;fill-rule:nonzero;stroke:none;stroke-width:1.50976;stroke-linecap:round;stroke-linejoin:round;stroke-miterlimit:4;stroke-dasharray:none;stroke-dashoffset:0;stroke-opacity:1;paint-order:fill markers stroke" />
    </clipPath>
  </defs>
  <sodipodi:namedview
     id="base"
     pagecolor="#ffffff"
     bordercolor="#666666"
     borderopacity="1.0"
     inkscape:pageopacity="0.0"
     inkscape:pageshadow="2"
     inkscape:zoom="0.175"
     inkscape:cx="1124.6931"
     inkscape:cy="196.1311"
     inkscape:document-units="mm"
     inkscape:current-layer="layer1"
     inkscape:document-rotation="0"
     showgrid="false"
     inkscape:window-width="1280"
     inkscape:window-height="971"
     inkscape:window-x="-8"
     inkscape:window-y="-8"
     inkscape:window-maximized="1" />
  <metadata
     id="metadata16748">
    <rdf:RDF>
      <cc:Work
         rdf:about="">
        <dc:format>image/svg+xml</dc:format>
        <dc:type
           rdf:resource="http://purl.org/dc/dcmitype/StillImage" />
        <dc:title></dc:title>
      </cc:Work>
    </rdf:RDF>
  </metadata>
  <g
     inkscape:label="Layer 1"
     inkscape:groupmode="layer"
     id="layer1">
    <g
       id="g16743"
       transform="matrix(2.3155475,0,0,2.3155475,1612.5041,72.544984)"
       inkscape:export-xdpi="95"
       inkscape:export-ydpi="95">
      <rect
         style="fill:#ffffff;fill-opacity:1;stroke:none;stroke-width:1;stroke-linecap:round;paint-order:stroke markers fill"
         id="rect188"
         width="195.03572"
         height="195.03572"
         x="-845.15472"
         y="-42.333332" />
      <g
         id="g15500"
         clip-path="url(#clipPath15504)">
        <path
           style="fill:url(#linearGradient16421);fill-opacity:1;stroke:none;stroke-width:1.53115;stroke-linecap:round;paint-order:stroke markers fill"
           d="m -858.59801,153.40829 c 0,0 -18.94045,-197.161723 84.90848,-197.161723 113.68001,0 114.83271,-37.945572 156.46674,-37.945572 41.63406,0 48.57893,73.2969056 48.57893,73.2969056 l -35.9826,78.7675464 c 31.46321,-107.822645 4.46621,83.042843 -253.97155,83.042843 z"
           id="path15522"
           sodipodi:nodetypes="cssccc" />
      </g>
      <g
         id="g15582"
         transform="translate(3.2720848,2.3271443)"
         style="opacity:0.238562;fill:#1a1a1a;filter:url(#filter16463)">
        <rect
           style="fill:#1a1a1a;fill-opacity:1;stroke:none;stroke-width:0.961397;stroke-linecap:round;paint-order:stroke markers fill"
           id="rect15566"
           width="86.444443"
           height="60.149773"
           x="-752.90845"
           y="56.656086"
           ry="2.3134525" />
        <rect
           style="fill:#1a1a1a;fill-opacity:1;stroke:none;stroke-width:0.961397;stroke-linecap:round;paint-order:stroke markers fill"
           id="rect15568"
           width="86.444443"
           height="60.149773"
           x="-752.90845"
           y="-8.5582647"
           ry="2.3134525" />
        <rect
           style="fill:#1a1a1a;fill-opacity:1;stroke:none;stroke-width:1.16719;stroke-linecap:round;paint-order:stroke markers fill"
           id="rect520"
           width="73.986481"
           height="68.823334"
           x="42.81937"
           y="758.03235"
           ry="2.6470509"
           transform="rotate(90)" />
      </g>
      <g
         id="g503"
         transform="matrix(0.09718193,0,0,0.09718193,-702.92368,70.778685)"
         clip-path="url(#clipPath15562)">
        <image
           width="1515.5773"
           height="852.51227"
           preserveAspectRatio="none"
           xlink:href="file:///C:/Users/SERVER%20ISTIQLAL/Downloads/darktable/20210503_113607.jpg"
           id="image16530"
           sodipodi:absref="C:\Users\SERVER ISTIQLAL\Downloads\darktable\20210503_113607.jpg"
           x="-1565.985"
           y="-289.54779" />
        <rect
           style="fill:#d5d5d5;fill-opacity:1;stroke:none;stroke-width:10.29;stroke-linecap:round;paint-order:stroke markers fill"
           id="rect16563-9"
           width="1020.3234"
           height="291.52097"
           x="-1177.125"
           y="336.01535"
           ry="45.607456" />
        <rect
           style="fill:#cccccc;fill-opacity:1;stroke:none;stroke-width:9.12305;stroke-linecap:round;paint-order:stroke markers fill"
           id="rect16565-4"
           width="904.61481"
           height="258.46136"
           x="-2037.757"
           y="369.07498"
           ry="40.43539" />
      </g>
      <g
         id="g16557"
         clip-path="url(#clipPath16559)">
        <image
           width="180.5361"
           height="135.40208"
           preserveAspectRatio="none"
           xlink:href="file:///C:/Users/SERVER%20ISTIQLAL/Downloads/darktable/WhatsApp%20Image%202021-05-03%20at%2013.41.48.jpg"
           id="image16552"
           sodipodi:absref="C:\Users\SERVER ISTIQLAL\Downloads\darktable\WhatsApp Image 2021-05-03 at 13.41.48.jpg"
           x="-796.55225"
           y="14.048584" />
        <rect
           style="opacity:1;fill:#c37684;fill-opacity:1;stroke:none;stroke-width:1;stroke-linecap:round;paint-order:stroke markers fill"
           id="rect16563"
           width="99.156998"
           height="28.33057"
           x="-743.99127"
           y="103.4333"
           ry="4.4322205" />
        <rect
           style="opacity:1;fill:#b24f61;fill-opacity:1;stroke:none;stroke-width:0.886596;stroke-linecap:round;paint-order:stroke markers fill"
           id="rect16565"
           width="87.912209"
           height="25.117773"
           x="-827.62915"
           y="106.6461"
           ry="3.9295893" />
      </g>
      <g
         id="g16482"
         clip-path="url(#clipPath16484)">
        <image
           width="162.04596"
           height="78.744202"
           preserveAspectRatio="none"
           xlink:href="file:///C:/Users/SERVER%20ISTIQLAL/Downloads/darktable/WhatsApp%20Image%202021-05-03%20at%2013.04.56.jpg"
           id="image16516"
           sodipodi:absref="C:\Users\SERVER ISTIQLAL\Downloads\darktable\WhatsApp Image 2021-05-03 at 13.04.56.jpg"
           x="-787.08246"
           y="-11.401863" />
        <rect
           style="fill:#4f75af;fill-opacity:1;stroke:none;stroke-width:1;stroke-linecap:round;paint-order:stroke markers fill"
           id="rect16563-0"
           width="99.156998"
           height="28.33057"
           x="-744.29065"
           y="39.021351"
           ry="4.4322205" />
        <rect
           style="fill:#2c5aa0;fill-opacity:1;stroke:none;stroke-width:0.91995;stroke-linecap:round;paint-order:stroke markers fill"
           id="rect16565-0"
           width="91.219498"
           height="26.062714"
           x="-830.93646"
           y="41.289207"
           ry="4.0774221" />
      </g>
      <g
         id="g251"
         transform="matrix(0.75588405,0,0,0.75588405,-196.58139,15.606757)"
         style="fill:#ffffff">
        <text
           xml:space="preserve"
           style="font-style:normal;font-variant:normal;font-weight:normal;font-stretch:normal;font-size:4.79497px;line-height:1.25;font-family:Montserrat;-inkscape-font-specification:'Montserrat, Normal';font-variant-ligatures:normal;font-variant-caps:normal;font-variant-numeric:normal;font-feature-settings:normal;text-align:start;letter-spacing:0px;word-spacing:0px;writing-mode:lr-tb;text-anchor:start;fill:#ffffff;fill-opacity:1;stroke:none;stroke-width:0.119874"
           x="-829.49487"
           y="-14.834628"
           id="text196"><tspan
             sodipodi:role="line"
             x="-829.49487"
             y="-14.834628"
             style="font-style:normal;font-variant:normal;font-weight:bold;font-stretch:normal;font-family:Montserrat;-inkscape-font-specification:'Montserrat Bold';fill:#ffffff;stroke-width:0.119874"
             id="tspan200">Penyerahan SK</tspan></text>
        <text
           xml:space="preserve"
           style="font-style:normal;font-variant:normal;font-weight:normal;font-stretch:normal;font-size:7.46231px;line-height:1.25;font-family:Montserrat;-inkscape-font-specification:'Montserrat, Normal';font-variant-ligatures:normal;font-variant-caps:normal;font-variant-numeric:normal;font-feature-settings:normal;text-align:start;letter-spacing:0px;word-spacing:0px;writing-mode:lr-tb;text-anchor:start;fill:#ffffff;fill-opacity:1;stroke:none;stroke-width:0.186558"
           x="-829.8241"
           y="-3.037724"
           id="text208"><tspan
             sodipodi:role="line"
             x="-829.8241"
             y="-3.037724"
             style="font-style:normal;font-variant:normal;font-weight:bold;font-stretch:normal;font-family:Montserrat;-inkscape-font-specification:'Montserrat Bold';fill:#ffffff;stroke-width:0.186558"
             id="tspan16645">Promosi Kepala</tspan><tspan
             sodipodi:role="line"
             x="-829.8241"
             y="6.2901635"
             style="font-style:normal;font-variant:normal;font-weight:bold;font-stretch:normal;font-family:Montserrat;-inkscape-font-specification:'Montserrat Bold';fill:#ffffff;stroke-width:0.186558"
             id="tspan16651">Sekolah Islam Istiqlal</tspan></text>
        <text
           xml:space="preserve"
           style="font-style:normal;font-variant:normal;font-weight:normal;font-stretch:normal;font-size:5.9139px;line-height:1.25;font-family:Montserrat;-inkscape-font-specification:'Montserrat, Normal';font-variant-ligatures:normal;font-variant-caps:normal;font-variant-numeric:normal;font-feature-settings:normal;text-align:start;letter-spacing:0px;word-spacing:0px;writing-mode:lr-tb;text-anchor:start;fill:#ffffff;fill-opacity:1;stroke:none;stroke-width:0.147848"
           x="-829.12048"
           y="17.327513"
           id="text220"><tspan
             sodipodi:role="line"
             x="-829.12048"
             y="17.327513"
             style="font-style:normal;font-variant:normal;font-weight:normal;font-stretch:normal;font-family:Montserrat;-inkscape-font-specification:Montserrat;fill:#ffffff;stroke-width:0.147848"
             id="tspan218">TP. 2021/2022</tspan></text>
      </g>
      <g
         inkscape:label="LogoIstiqlal"
         transform="matrix(0.57610233,0,0,0.57610237,-702.88077,52.26355)"
         id="LogoIstiqlal">
        <g
           id="g2693"
           transform="matrix(0.70807921,0,0,0.70807915,-89.592975,305.31276)"
           style="display:inline;image-rendering:auto">
          <g
             id="g2614">
            <circle
               r="21.826302"
               cy="-222.91022"
               cx="-159.05081"
               id="circle2606"
               style="opacity:1;fill:#f86900;fill-opacity:1;fill-rule:nonzero;stroke:none;stroke-width:1.76456;stroke-linecap:round;stroke-linejoin:round;stroke-miterlimit:4;stroke-dasharray:none;stroke-dashoffset:0;stroke-opacity:1;paint-order:fill markers stroke" />
            <circle
               r="21.639214"
               cy="-222.9102"
               cx="-159.05081"
               id="circle2608"
               style="opacity:1;fill:#ffffff;fill-opacity:1;fill-rule:nonzero;stroke:none;stroke-width:1.74943;stroke-linecap:round;stroke-linejoin:round;stroke-miterlimit:4;stroke-dasharray:none;stroke-dashoffset:0;stroke-opacity:1;paint-order:fill markers stroke" />
            <circle
               r="21.311808"
               cy="-222.9102"
               cx="-159.05081"
               id="circle2610"
               style="opacity:1;fill:#f86900;fill-opacity:1;fill-rule:nonzero;stroke:none;stroke-width:1.72296;stroke-linecap:round;stroke-linejoin:round;stroke-miterlimit:4;stroke-dasharray:none;stroke-dashoffset:0;stroke-opacity:1;paint-order:fill markers stroke" />
            <circle
               r="20.451916"
               cy="-222.91019"
               cx="-159.05081"
               id="circle2612"
               style="opacity:1;fill:#ffffff;fill-opacity:1;fill-rule:nonzero;stroke:none;stroke-width:1.65345;stroke-linecap:round;stroke-linejoin:round;stroke-miterlimit:4;stroke-dasharray:none;stroke-dashoffset:0;stroke-opacity:1;paint-order:fill markers stroke" />
          </g>
          <g
             clip-path="none"
             id="g2622">
            <rect
               style="opacity:1;fill:#ff6600;fill-opacity:1;fill-rule:nonzero;stroke:none;stroke-width:0.2;stroke-linecap:round;stroke-linejoin:round;stroke-miterlimit:4;stroke-dasharray:none;stroke-dashoffset:0;stroke-opacity:1;paint-order:fill markers stroke"
               id="rect2616"
               width="18.4547"
               height="18.917711"
               x="-168.20885"
               y="-221.05418"
               clip-path="url(#clipPath6436-2-5-7-56-7-03-3)"
               transform="matrix(1.0108901,0,0,1.0136582,1.8318185,2.7608221)" />
            <path
               style="opacity:1;fill:#ffff01;fill-opacity:1;fill-rule:nonzero;stroke:none;stroke-width:0.765183;stroke-linecap:round;stroke-linejoin:round;stroke-miterlimit:4;stroke-dasharray:none;stroke-dashoffset:0;stroke-opacity:1;paint-order:fill markers stroke"
               clip-path="none"
               d="m -635.75,788.45508 v 10.09375 c 2.53754,1.43626 4.88688,2.63323 7.22656,3.63476 v -2.19726 l 8.35547,2.23828 v 2.66601 c 2.26469,0.5065 4.69357,0.87677 7.38867,1.13672 v -2.78125 l 8.35547,0.27735 v 2.95508 c 1.2666,0.0264 2.56919,0.0418 3.95703,0.041 1.37322,-9.4e-4 2.66161,-0.0228 3.91407,-0.0488 v -2.94726 l 8.35546,-0.27735 v 2.74219 c 2.69844,-0.27742 5.12493,-0.67162 7.38868,-1.20703 v -2.55664 l 8.35547,-2.23828 v 1.95117 c 2.32282,-1.03669 4.66677,-2.27087 7.21289,-3.74609 v -9.73633 z"
               transform="matrix(0.26458333,0,0,0.26458333,0,-429.90601)"
               id="path2618"
               inkscape:connector-curvature="0" />
            <ellipse
               style="opacity:1;fill:#669934;fill-opacity:1;fill-rule:nonzero;stroke:none;stroke-width:0.2;stroke-linecap:round;stroke-linejoin:round;stroke-miterlimit:4;stroke-dasharray:none;stroke-dashoffset:0;stroke-opacity:1;paint-order:fill markers stroke"
               id="ellipse2620"
               cx="-158.88229"
               cy="-221.28568"
               rx="9.3265629"
               ry="1.8190104" />
          </g>
          <path
             inkscape:connector-curvature="0"
             id="path2624"
             transform="matrix(1.101749,0,0,1.1017491,-951.57031,-302.89023)"
             d="m 711.01562,78.980469 v 8.427734 a 16.752967,16.752964 0 0 0 2.32618,1.095703 c 0.0219,-0.10337 0.0391,-0.209827 0.0391,-0.324218 v -6.59961 c 0,-0.928332 -1.63765,-2.116188 -2.36524,-2.599609 z"
             style="opacity:1;fill:#ffffff;fill-opacity:1;fill-rule:nonzero;stroke:none;stroke-width:0.205303;stroke-linecap:round;stroke-linejoin:round;stroke-miterlimit:4;stroke-dasharray:none;stroke-dashoffset:0;stroke-opacity:1;paint-order:fill markers stroke" />
          <path
             inkscape:connector-curvature="0"
             id="path2626"
             transform="matrix(1.101749,0,0,1.1017491,-951.57031,-302.89023)"
             d="m 711.01562,80.201172 v 7.207031 a 16.752967,16.752964 0 0 0 1.78711,0.900391 16.752967,16.752964 0 0 0 0.002,0 c 0.0703,-0.152253 0.11328,-0.321441 0.11328,-0.511719 v -5.480469 c 0,-0.733075 -1.25924,-1.678798 -1.90235,-2.115234 z"
             style="opacity:1;fill:#f70402;fill-opacity:1;fill-rule:nonzero;stroke:none;stroke-width:0.170463;stroke-linecap:round;stroke-linejoin:round;stroke-miterlimit:4;stroke-dasharray:none;stroke-dashoffset:0;stroke-opacity:1;paint-order:fill markers stroke" />
          <path
             inkscape:connector-curvature="0"
             id="path2628"
             transform="matrix(1.101749,0,0,1.1017491,-951.57031,-302.89023)"
             d="m 727.94922,78.982422 c -0.73075,0.486078 -2.36328,1.671854 -2.36328,2.597656 v 6.59961 c 0,0.07647 0.0174,0.145196 0.0273,0.216796 a 16.752967,16.752964 0 0 0 2.33594,-1.173828 z"
             style="opacity:1;fill:#ffffff;fill-opacity:1;fill-rule:nonzero;stroke:none;stroke-width:0.205303;stroke-linecap:round;stroke-linejoin:round;stroke-miterlimit:4;stroke-dasharray:none;stroke-dashoffset:0;stroke-opacity:1;paint-order:fill markers stroke" />
          <path
             inkscape:connector-curvature="0"
             id="path2630"
             transform="matrix(1.101749,0,0,1.1017491,-951.57031,-302.89023)"
             d="m 727.94922,80.203125 c -0.64397,0.437309 -1.89844,1.381293 -1.89844,2.113281 v 5.480469 c 0,0.136399 0.0255,0.259644 0.0625,0.376953 a 16.752967,16.752964 0 0 0 1.83594,-0.951172 z"
             style="opacity:1;fill:#97cd9a;fill-opacity:1;fill-rule:nonzero;stroke:none;stroke-width:0.170463;stroke-linecap:round;stroke-linejoin:round;stroke-miterlimit:4;stroke-dasharray:none;stroke-dashoffset:0;stroke-opacity:1;paint-order:fill markers stroke" />
          <path
             inkscape:connector-curvature="0"
             id="path2632"
             transform="matrix(1.101749,0,0,1.1017491,-951.57031,-302.89023)"
             d="m 716.40039,79.533203 c 0,0 -2.45508,1.104641 -2.45508,2.525391 v 6.666015 a 16.752967,16.752964 0 0 0 4.90821,0.882813 v -7.548828 c 0,-1.42075 -2.45313,-2.525391 -2.45313,-2.525391 z"
             style="opacity:1;fill:#ffffff;fill-opacity:1;fill-rule:nonzero;stroke:none;stroke-width:0.212892;stroke-linecap:round;stroke-linejoin:round;stroke-miterlimit:4;stroke-dasharray:none;stroke-dashoffset:0;stroke-opacity:1;paint-order:fill markers stroke" />
          <path
             inkscape:connector-curvature="0"
             id="path2634"
             transform="matrix(1.101749,0,0,1.1017491,-951.57031,-302.89023)"
             d="m 716.40039,80.994141 c 0,0 -2.03906,0.916042 -2.03906,2.095703 v 5.787109 a 16.752967,16.752964 0 0 0 4.07617,0.708985 v -6.496094 c 0,-1.179661 -2.03711,-2.095703 -2.03711,-2.095703 z"
             style="opacity:1;fill:#020066;fill-opacity:1;fill-rule:nonzero;stroke:none;stroke-width:0.176764;stroke-linecap:round;stroke-linejoin:round;stroke-miterlimit:4;stroke-dasharray:none;stroke-dashoffset:0;stroke-opacity:1;paint-order:fill markers stroke" />
          <path
             inkscape:connector-curvature="0"
             id="path2636"
             transform="matrix(1.101749,0,0,1.1017491,-951.57031,-302.89023)"
             d="m 722.36914,79.533203 c 0,0 -2.45312,1.104641 -2.45312,2.525391 v 7.550781 a 16.752967,16.752964 0 0 0 4.9082,-0.925781 v -6.625 c 0,-1.42075 -2.45508,-2.525391 -2.45508,-2.525391 z"
             style="opacity:1;fill:#ffffff;fill-opacity:1;fill-rule:nonzero;stroke:none;stroke-width:0.212892;stroke-linecap:round;stroke-linejoin:round;stroke-miterlimit:4;stroke-dasharray:none;stroke-dashoffset:0;stroke-opacity:1;paint-order:fill markers stroke" />
          <path
             inkscape:connector-curvature="0"
             id="path2638"
             transform="matrix(1.101749,0,0,1.1017491,-951.57031,-302.89023)"
             d="m 722.36914,80.994141 c 0,0 -2.03711,0.916042 -2.03711,2.095703 v 6.503906 a 16.752967,16.752964 0 0 0 4.07617,-0.773438 v -5.730468 c 0,-1.179661 -2.03906,-2.095703 -2.03906,-2.095703 z"
             style="opacity:1;fill:#999999;fill-opacity:1;fill-rule:nonzero;stroke:none;stroke-width:0.176764;stroke-linecap:round;stroke-linejoin:round;stroke-miterlimit:4;stroke-dasharray:none;stroke-dashoffset:0;stroke-opacity:1;paint-order:fill markers stroke" />
          <g
             id="g2664">
            <path
               sodipodi:type="star"
               style="opacity:1;fill:#fffe03;fill-opacity:1;fill-rule:nonzero;stroke:#d54a1e;stroke-width:0.2;stroke-linecap:round;stroke-linejoin:round;stroke-miterlimit:4;stroke-dasharray:none;stroke-dashoffset:0;stroke-opacity:1;paint-order:fill markers stroke"
               id="path2640"
               sodipodi:sides="5"
               sodipodi:cx="-147.09846"
               sodipodi:cy="-212.34891"
               sodipodi:r1="0.99728298"
               sodipodi:r2="2.2591491"
               sodipodi:arg1="1.0471976"
               sodipodi:arg2="1.6755161"
               inkscape:flatsided="false"
               inkscape:rounded="0"
               inkscape:randomized="0"
               inkscape:transform-center-x="-0.27154355"
               inkscape:transform-center-y="-0.3941582"
               transform="rotate(30,-151.31759,-210.9672)"
               d="m -146.59982,-211.48524 -0.73479,1.38311 -0.43117,-1.50565 -1.54247,-0.27142 1.29872,-0.87534 -0.21851,-1.55085 1.23382,0.96466 1.40742,-0.68705 -0.53617,1.47153 1.08834,1.12622 z" />
            <path
               sodipodi:type="star"
               style="opacity:1;fill:#fffe03;fill-opacity:1;fill-rule:nonzero;stroke:#d54a1e;stroke-width:0.2;stroke-linecap:round;stroke-linejoin:round;stroke-miterlimit:4;stroke-dasharray:none;stroke-dashoffset:0;stroke-opacity:1;paint-order:fill markers stroke"
               id="path2642"
               sodipodi:sides="5"
               sodipodi:cx="-147.09846"
               sodipodi:cy="-212.34891"
               sodipodi:r1="0.99728298"
               sodipodi:r2="2.2591491"
               sodipodi:arg1="1.0471976"
               sodipodi:arg2="1.6755161"
               inkscape:flatsided="false"
               inkscape:rounded="0"
               inkscape:randomized="0"
               inkscape:transform-center-x="-0.23878265"
               inkscape:transform-center-y="-0.34660748"
               transform="matrix(0.76155036,0.4396813,-0.4396813,0.76155036,-125.33178,12.920373)"
               d="m -146.59982,-211.48524 -0.73479,1.38311 -0.43117,-1.50565 -1.54247,-0.27142 1.29872,-0.87534 -0.21851,-1.55085 1.23382,0.96466 1.40742,-0.68705 -0.53617,1.47153 1.08834,1.12622 z" />
            <path
               sodipodi:type="star"
               style="opacity:1;fill:#fffe03;fill-opacity:1;fill-rule:nonzero;stroke:#d54a1e;stroke-width:0.2;stroke-linecap:round;stroke-linejoin:round;stroke-miterlimit:4;stroke-dasharray:none;stroke-dashoffset:0;stroke-opacity:1;paint-order:fill markers stroke"
               id="path2644"
               sodipodi:sides="5"
               sodipodi:cx="-147.09846"
               sodipodi:cy="-212.34891"
               sodipodi:r1="0.99728298"
               sodipodi:r2="2.2591491"
               sodipodi:arg1="1.0471976"
               sodipodi:arg2="1.6755161"
               inkscape:flatsided="false"
               inkscape:rounded="0"
               inkscape:randomized="0"
               inkscape:transform-center-x="-0.20247657"
               inkscape:transform-center-y="-0.29391208"
               transform="matrix(0.64576967,0.37283528,-0.37283528,0.64576967,-126.16998,-24.047101)"
               d="m -146.59982,-211.48524 -0.73479,1.38311 -0.43117,-1.50565 -1.54247,-0.27142 1.29872,-0.87534 -0.21851,-1.55085 1.23382,0.96466 1.40742,-0.68705 -0.53617,1.47153 1.08834,1.12622 z" />
            <path
               sodipodi:type="star"
               style="opacity:1;fill:#fffe03;fill-opacity:1;fill-rule:nonzero;stroke:#d54a1e;stroke-width:0.2;stroke-linecap:round;stroke-linejoin:round;stroke-miterlimit:4;stroke-dasharray:none;stroke-dashoffset:0;stroke-opacity:1;paint-order:fill markers stroke"
               id="path2646"
               sodipodi:sides="5"
               sodipodi:cx="-147.09846"
               sodipodi:cy="-212.34891"
               sodipodi:r1="0.99728298"
               sodipodi:r2="2.2591491"
               sodipodi:arg1="1.0471976"
               sodipodi:arg2="1.6755161"
               inkscape:flatsided="false"
               inkscape:rounded="0"
               inkscape:randomized="0"
               inkscape:transform-center-x="-0.15963814"
               inkscape:transform-center-y="-0.23173239"
               transform="matrix(0.50914807,0.29395676,-0.29395676,0.50914807,-128.57767,-67.907361)"
               d="m -146.59982,-211.48524 -0.73479,1.38311 -0.43117,-1.50565 -1.54247,-0.27142 1.29872,-0.87534 -0.21851,-1.55085 1.23382,0.96466 1.40742,-0.68705 -0.53617,1.47153 1.08834,1.12622 z" />
            <path
               sodipodi:type="star"
               style="opacity:1;fill:#fffe03;fill-opacity:1;fill-rule:nonzero;stroke:#d54a1e;stroke-width:0.2;stroke-linecap:round;stroke-linejoin:round;stroke-miterlimit:4;stroke-dasharray:none;stroke-dashoffset:0;stroke-opacity:1;paint-order:fill markers stroke"
               id="path2648"
               sodipodi:sides="5"
               sodipodi:cx="-147.09846"
               sodipodi:cy="-212.34891"
               sodipodi:r1="0.99728298"
               sodipodi:r2="2.2591491"
               sodipodi:arg1="1.0471976"
               sodipodi:arg2="1.6755161"
               inkscape:flatsided="false"
               inkscape:rounded="0"
               inkscape:randomized="0"
               inkscape:transform-center-x="-0.12940323"
               inkscape:transform-center-y="-0.18783874"
               transform="matrix(0.41270918,0.23827775,-0.23827775,0.41270918,-130.90038,-99.152346)"
               d="m -146.59982,-211.48524 -0.73479,1.38311 -0.43117,-1.50565 -1.54247,-0.27142 1.29872,-0.87534 -0.21851,-1.55085 1.23382,0.96466 1.40742,-0.68705 -0.53617,1.47153 1.08834,1.12622 z" />
            <path
               sodipodi:type="star"
               style="opacity:1;fill:#fffe03;fill-opacity:1;fill-rule:nonzero;stroke:#d54a1e;stroke-width:0.2;stroke-linecap:round;stroke-linejoin:round;stroke-miterlimit:4;stroke-dasharray:none;stroke-dashoffset:0;stroke-opacity:1;paint-order:fill markers stroke"
               id="path2650"
               sodipodi:sides="5"
               sodipodi:cx="-147.09846"
               sodipodi:cy="-212.34891"
               sodipodi:r1="0.99728298"
               sodipodi:r2="2.2591491"
               sodipodi:arg1="1.0471976"
               sodipodi:arg2="1.6755161"
               inkscape:flatsided="false"
               inkscape:rounded="0"
               inkscape:randomized="0"
               inkscape:transform-center-x="-0.096648729"
               inkscape:transform-center-y="-0.14028409"
               transform="matrix(0.30823392,0.17795894,-0.17795894,0.30823392,-133.60958,-132.05972)"
               d="m -146.59982,-211.48524 -0.73479,1.38311 -0.43117,-1.50565 -1.54247,-0.27142 1.29872,-0.87534 -0.21851,-1.55085 1.23382,0.96466 1.40742,-0.68705 -0.53617,1.47153 1.08834,1.12622 z" />
            <path
               sodipodi:type="star"
               style="opacity:1;fill:#fffe03;fill-opacity:1;fill-rule:nonzero;stroke:#d54a1e;stroke-width:0.2;stroke-linecap:round;stroke-linejoin:round;stroke-miterlimit:4;stroke-dasharray:none;stroke-dashoffset:0;stroke-opacity:1;paint-order:fill markers stroke"
               id="path2652"
               sodipodi:sides="5"
               sodipodi:cx="-147.09846"
               sodipodi:cy="-212.34891"
               sodipodi:r1="0.99728298"
               sodipodi:r2="2.2591491"
               sodipodi:arg1="1.0471976"
               sodipodi:arg2="1.6755161"
               inkscape:flatsided="false"
               inkscape:rounded="0"
               inkscape:randomized="0"
               inkscape:transform-center-x="-0.27154355"
               inkscape:transform-center-y="-0.3941582"
               transform="matrix(-0.8660254,0.5,0.5,0.8660254,-192.04996,47.44131)"
               d="m -146.59982,-211.48524 -0.73479,1.38311 -0.43117,-1.50565 -1.54247,-0.27142 1.29872,-0.87534 -0.21851,-1.55085 1.23382,0.96466 1.40742,-0.68705 -0.53617,1.47153 1.08834,1.12622 z" />
            <path
               sodipodi:type="star"
               style="opacity:1;fill:#fffe03;fill-opacity:1;fill-rule:nonzero;stroke:#d54a1e;stroke-width:0.2;stroke-linecap:round;stroke-linejoin:round;stroke-miterlimit:4;stroke-dasharray:none;stroke-dashoffset:0;stroke-opacity:1;paint-order:fill markers stroke"
               id="path2654"
               sodipodi:sides="5"
               sodipodi:cx="-147.09846"
               sodipodi:cy="-212.34891"
               sodipodi:r1="0.99728298"
               sodipodi:r2="2.2591491"
               sodipodi:arg1="1.0471976"
               sodipodi:arg2="1.6755161"
               inkscape:flatsided="false"
               inkscape:rounded="0"
               inkscape:randomized="0"
               inkscape:transform-center-x="-0.23878265"
               inkscape:transform-center-y="-0.34660748"
               transform="matrix(-0.76155036,0.4396813,0.4396813,0.76155036,-192.47449,12.967133)"
               d="m -146.59982,-211.48524 -0.73479,1.38311 -0.43117,-1.50565 -1.54247,-0.27142 1.29872,-0.87534 -0.21851,-1.55085 1.23382,0.96466 1.40742,-0.68705 -0.53617,1.47153 1.08834,1.12622 z" />
            <path
               sodipodi:type="star"
               style="opacity:1;fill:#fffe03;fill-opacity:1;fill-rule:nonzero;stroke:#d54a1e;stroke-width:0.2;stroke-linecap:round;stroke-linejoin:round;stroke-miterlimit:4;stroke-dasharray:none;stroke-dashoffset:0;stroke-opacity:1;paint-order:fill markers stroke"
               id="path2656"
               sodipodi:sides="5"
               sodipodi:cx="-147.09846"
               sodipodi:cy="-212.34891"
               sodipodi:r1="0.99728298"
               sodipodi:r2="2.2591491"
               sodipodi:arg1="1.0471976"
               sodipodi:arg2="1.6755161"
               inkscape:flatsided="false"
               inkscape:rounded="0"
               inkscape:randomized="0"
               inkscape:transform-center-x="-0.20247657"
               inkscape:transform-center-y="-0.29391208"
               transform="matrix(-0.64576967,0.37283528,0.37283528,0.64576967,-191.63629,-24.000341)"
               d="m -146.59982,-211.48524 -0.73479,1.38311 -0.43117,-1.50565 -1.54247,-0.27142 1.29872,-0.87534 -0.21851,-1.55085 1.23382,0.96466 1.40742,-0.68705 -0.53617,1.47153 1.08834,1.12622 z" />
            <path
               sodipodi:type="star"
               style="opacity:1;fill:#fffe03;fill-opacity:1;fill-rule:nonzero;stroke:#d54a1e;stroke-width:0.2;stroke-linecap:round;stroke-linejoin:round;stroke-miterlimit:4;stroke-dasharray:none;stroke-dashoffset:0;stroke-opacity:1;paint-order:fill markers stroke"
               id="path2658"
               sodipodi:sides="5"
               sodipodi:cx="-147.09846"
               sodipodi:cy="-212.34891"
               sodipodi:r1="0.99728298"
               sodipodi:r2="2.2591491"
               sodipodi:arg1="1.0471976"
               sodipodi:arg2="1.6755161"
               inkscape:flatsided="false"
               inkscape:rounded="0"
               inkscape:randomized="0"
               inkscape:transform-center-x="-0.15963814"
               inkscape:transform-center-y="-0.23173239"
               transform="matrix(-0.50914807,0.29395676,0.29395676,0.50914807,-189.2286,-67.860601)"
               d="m -146.59982,-211.48524 -0.73479,1.38311 -0.43117,-1.50565 -1.54247,-0.27142 1.29872,-0.87534 -0.21851,-1.55085 1.23382,0.96466 1.40742,-0.68705 -0.53617,1.47153 1.08834,1.12622 z" />
            <path
               sodipodi:type="star"
               style="opacity:1;fill:#fffe03;fill-opacity:1;fill-rule:nonzero;stroke:#d54a1e;stroke-width:0.2;stroke-linecap:round;stroke-linejoin:round;stroke-miterlimit:4;stroke-dasharray:none;stroke-dashoffset:0;stroke-opacity:1;paint-order:fill markers stroke"
               id="path2660"
               sodipodi:sides="5"
               sodipodi:cx="-147.09846"
               sodipodi:cy="-212.34891"
               sodipodi:r1="0.99728298"
               sodipodi:r2="2.2591491"
               sodipodi:arg1="1.0471976"
               sodipodi:arg2="1.6755161"
               inkscape:flatsided="false"
               inkscape:rounded="0"
               inkscape:randomized="0"
               inkscape:transform-center-x="-0.12940323"
               inkscape:transform-center-y="-0.18783874"
               transform="matrix(-0.41270918,0.23827775,0.23827775,0.41270918,-186.90589,-99.105586)"
               d="m -146.59982,-211.48524 -0.73479,1.38311 -0.43117,-1.50565 -1.54247,-0.27142 1.29872,-0.87534 -0.21851,-1.55085 1.23382,0.96466 1.40742,-0.68705 -0.53617,1.47153 1.08834,1.12622 z" />
            <path
               sodipodi:type="star"
               style="opacity:1;fill:#fffe03;fill-opacity:1;fill-rule:nonzero;stroke:#d54a1e;stroke-width:0.2;stroke-linecap:round;stroke-linejoin:round;stroke-miterlimit:4;stroke-dasharray:none;stroke-dashoffset:0;stroke-opacity:1;paint-order:fill markers stroke"
               id="path2662"
               sodipodi:sides="5"
               sodipodi:cx="-147.09846"
               sodipodi:cy="-212.34891"
               sodipodi:r1="0.99728298"
               sodipodi:r2="2.2591491"
               sodipodi:arg1="1.0471976"
               sodipodi:arg2="1.6755161"
               inkscape:flatsided="false"
               inkscape:rounded="0"
               inkscape:randomized="0"
               inkscape:transform-center-x="-0.096648729"
               inkscape:transform-center-y="-0.14028409"
               transform="matrix(-0.30823392,0.17795894,0.17795894,0.30823392,-184.19669,-132.01296)"
               d="m -146.59982,-211.48524 -0.73479,1.38311 -0.43117,-1.50565 -1.54247,-0.27142 1.29872,-0.87534 -0.21851,-1.55085 1.23382,0.96466 1.40742,-0.68705 -0.53617,1.47153 1.08834,1.12622 z" />
          </g>
          <g
             id="g2682">
            <path
               style="opacity:1;fill:#fae847;fill-opacity:1;fill-rule:nonzero;stroke:#836b3d;stroke-width:0.377953;stroke-linecap:round;stroke-linejoin:round;stroke-miterlimit:4;stroke-dasharray:none;stroke-dashoffset:0;stroke-opacity:1;paint-order:fill markers stroke"
               d="m -608.36523,764.58398 c -1.69078,0.0635 -3.73148,0.37116 -6.19532,1.03125 l -0.17187,0.0879 -0.0625,0.0664 -1.46485,2.19727 h -3.51562 v 20.65429 l 15.86914,-0.92773 c 0,0 1.85231,0.67065 3.02148,0.875 v 0.0625 c 0.0781,0 0.17965,-0.0147 0.27539,-0.0254 0.096,0.0108 0.19904,0.0254 0.27735,0.0254 v -0.0625 c 1.16928,-0.20472 3.01953,-0.875 3.01953,-0.875 l 15.86914,0.92773 V 767.9668 h -3.51562 l -1.46485,-2.19727 -0.0606,-0.0664 -0.17382,-0.0879 c -2.46384,-0.66009 -4.50454,-0.96775 -6.19532,-1.03125 -5.2973,-0.19918 -7.1341,1.98213 -7.75586,3.2129 -0.62175,-1.23077 -2.45855,-3.41208 -7.75585,-3.2129 z"
               transform="matrix(0.26458333,0,0,0.26458333,0,-429.90601)"
               id="path2666"
               inkscape:connector-curvature="0" />
            <path
               style="opacity:1;fill:#ffffff;fill-opacity:1;fill-rule:nonzero;stroke:#836b3d;stroke-width:0.1;stroke-linecap:round;stroke-linejoin:round;stroke-miterlimit:4;stroke-dasharray:none;stroke-dashoffset:0;stroke-opacity:1;paint-order:fill markers stroke"
               d="m -162.36885,-227.04926 v 4.09257 c 0,0 2.44823,-0.51157 3.30694,0.21924 v -3.61753 c 0,0 -0.26075,-1.5105 -3.30694,-0.69428 z"
               id="path2668"
               inkscape:connector-curvature="0" />
            <path
               style="opacity:1;fill:#ffffff;fill-opacity:1;fill-rule:nonzero;stroke:#836b3d;stroke-width:0.1;stroke-linecap:round;stroke-linejoin:round;stroke-miterlimit:4;stroke-dasharray:none;stroke-dashoffset:0;stroke-opacity:1;paint-order:fill markers stroke"
               d="m -162.38027,-222.72281 -0.45217,0.65888 3.29881,-0.21963 0.52525,0.23255 c 0.25153,-0.30743 -0.0664,-1.21791 -3.37189,-0.6718 z"
               id="path2670"
               inkscape:connector-curvature="0"
               sodipodi:nodetypes="ccccc" />
            <path
               style="opacity:1;fill:#ffffff;fill-opacity:1;fill-rule:nonzero;stroke:#836b3d;stroke-width:0.1;stroke-linecap:round;stroke-linejoin:round;stroke-miterlimit:4;stroke-dasharray:none;stroke-dashoffset:0;stroke-opacity:1;paint-order:fill markers stroke"
               d="m -162.66449,-226.71481 -0.37465,0.52968 0.0258,3.82406 0.40049,-0.56844 z"
               id="path2672"
               inkscape:connector-curvature="0" />
            <path
               style="opacity:1;fill:#ffffff;fill-opacity:1;fill-rule:nonzero;stroke:#836b3d;stroke-width:0.377953;stroke-linecap:round;stroke-linejoin:round;stroke-miterlimit:4;stroke-dasharray:none;stroke-dashoffset:0;stroke-opacity:1;paint-order:fill markers stroke"
               d="m -618.45703,769.13867 v 18.31055 l 14.94141,-0.78125 c 0.76142,0.63742 1.76654,0.81775 2.7832,0.97656 l 0.0488,0.0312 c 0.10848,0.0252 0.0749,-0.0582 0.19726,-0.0312 1.01666,-0.15881 2.02178,-0.33914 2.78321,-0.97656 l 14.9414,0.78125 v -18.31055 h -1.36719 l 0.39063,0.39063 -0.14649,17.28515 -14.25781,-0.78125 c -0.56439,0.6618 -2.43408,0.861 -2.34375,0.78125 -0.0925,0.003 -0.15683,0.008 -0.24609,0.0117 v -0.0117 c 0.0903,0.0797 -1.77936,-0.11945 -2.34375,-0.78125 l -14.25781,0.78125 -0.14649,-17.28515 0.39063,-0.39063 z"
               transform="matrix(0.26458333,0,0,0.26458333,0,-429.90601)"
               id="path2674"
               inkscape:connector-curvature="0"
               sodipodi:nodetypes="ccccccccccccccccccccc" />
            <path
               style="opacity:1;fill:#ffffff;fill-opacity:1;fill-rule:nonzero;stroke:#836b3d;stroke-width:0.1;stroke-linecap:round;stroke-linejoin:round;stroke-miterlimit:4;stroke-dasharray:none;stroke-dashoffset:0;stroke-opacity:1;paint-order:fill markers stroke"
               d="m -155.45348,-227.04926 v 4.09257 c 0,0 -2.44823,-0.51157 -3.30694,0.21924 v -3.61753 c 0,0 0.26075,-1.5105 3.30694,-0.69428 z"
               id="path2676"
               inkscape:connector-curvature="0" />
            <path
               style="opacity:1;fill:#ffffff;fill-opacity:1;fill-rule:nonzero;stroke:#836b3d;stroke-width:0.1;stroke-linecap:round;stroke-linejoin:round;stroke-miterlimit:4;stroke-dasharray:none;stroke-dashoffset:0;stroke-opacity:1;paint-order:fill markers stroke"
               d="m -155.44206,-222.72281 0.45217,0.65888 -3.29881,-0.21963 -0.52525,0.23255 c -0.25153,-0.30743 0.0664,-1.21791 3.37189,-0.6718 z"
               id="path2678"
               inkscape:connector-curvature="0"
               sodipodi:nodetypes="ccccc" />
            <path
               style="opacity:1;fill:#ffffff;fill-opacity:1;fill-rule:nonzero;stroke:#836b3d;stroke-width:0.1;stroke-linecap:round;stroke-linejoin:round;stroke-miterlimit:4;stroke-dasharray:none;stroke-dashoffset:0;stroke-opacity:1;paint-order:fill markers stroke"
               d="m -155.15784,-226.71481 0.37465,0.52968 -0.0258,3.82406 -0.40049,-0.56844 z"
               id="path2680"
               inkscape:connector-curvature="0" />
          </g>
          <g
             transform="translate(-34.146662,-38.019982)"
             id="g2691">
            <path
               inkscape:connector-curvature="0"
               style="fill:#0a15ee;fill-opacity:1;stroke-width:0.0454816"
               d="m -124.54692,-202.90839 -0.1695,0.73898 c -0.0934,0.40649 -0.20859,0.90226 -0.2558,1.10174 -0.0472,0.19949 -0.0788,0.36924 -0.0708,0.37723 0.008,0.008 0.10267,0.0193 0.21032,0.0243 0.18288,0.009 0.19789,-1.4e-4 0.22789,-0.12764 0.0177,-0.0751 0.0837,-0.36822 0.14676,-0.65164 0.12164,-0.54685 0.14596,-0.60974 0.18346,-0.47749 0.0129,0.0457 0.0995,0.36454 0.19275,0.70849 l 0.17002,0.62528 h 0.1912 0.19172 l 0.26355,-0.68213 c 0.14508,-0.37523 0.26892,-0.67676 0.27492,-0.67076 0.006,0.006 0.0449,0.29782 0.0868,0.64803 0.0419,0.3502 0.0835,0.66219 0.0935,0.69349 h 5.3e-4 c 0.0106,0.034 0.0969,0.0568 0.216,0.0568 h 0.19844 l -0.0367,-0.26975 c -0.0203,-0.14843 -0.0687,-0.59344 -0.10748,-0.98909 -0.10387,-1.05787 -0.0872,-1.00271 -0.3111,-1.02681 -0.10398,-0.0112 -0.20132,-0.008 -0.21652,0.007 -0.0152,0.015 -0.1577,0.36033 -0.31626,0.7674 -0.15855,0.40707 -0.30141,0.71393 -0.31781,0.68213 -0.0164,-0.0318 -0.11832,-0.39037 -0.22686,-0.79686 l -0.19741,-0.73897 h -0.21083 z m -1.88516,0.0455 c -0.20421,0 -0.21828,0.008 -0.26148,0.14779 -0.0251,0.0813 -0.1905,0.59216 -0.36742,1.13533 -0.17691,0.54317 -0.32194,1.00693 -0.32194,1.03043 0,0.045 0.36501,0.0151 0.41651,-0.0341 0.0164,-0.0156 0.0604,-0.1205 0.0977,-0.23307 l 0.0677,-0.20464 0.46612,-0.0227 0.46612,-0.0222 0.0873,0.20361 c 0.048,0.11207 0.10501,0.21459 0.12661,0.22789 0.0216,0.013 0.12973,0.0173 0.24081,0.008 l 0.20206,-0.0165 -0.11317,-0.23461 c -0.0623,-0.12907 -0.23123,-0.5006 -0.37518,-0.82579 -0.14395,-0.32519 -0.3188,-0.71906 -0.3886,-0.8754 l -0.12661,-0.28422 z m 4.6576,0.21704 -0.0289,0.22117 c -0.0367,0.28377 -0.24873,1.67264 -0.28473,1.86449 -0.0251,0.13403 -0.0169,0.14766 0.1018,0.16536 0.33326,0.0499 0.28687,0.14147 0.44545,-0.87643 0.0643,-0.41274 0.13683,-0.87217 0.16123,-1.02061 0.0244,-0.14844 0.0356,-0.27859 0.0248,-0.28939 -0.0108,-0.0108 -0.10963,-0.03 -0.21962,-0.0424 z m -6.71277,0.0568 -0.18706,0.0279 c -0.10278,0.0155 -0.2039,0.0436 -0.2248,0.0625 -0.0301,0.0273 0.24756,1.93579 0.31626,2.17403 0.01,0.0329 0.0533,0.0494 0.0972,0.0367 0.0439,-0.0127 0.24326,-0.0458 0.44338,-0.0739 0.47886,-0.0671 0.51678,-0.0801 0.49867,-0.17209 -0.0674,-0.34306 -0.0351,-0.31791 -0.34054,-0.26871 -0.16278,0.0265 -0.29178,0.0281 -0.31368,0.004 -0.0388,-0.0425 -0.21186,-1.04918 -0.26096,-1.51929 z m -1.54925,0.27182 c -0.4601,0 -0.79908,0.50017 -0.57826,0.85318 0.0913,0.14602 0.41511,0.37897 0.73587,0.52968 0.20133,0.0946 0.35863,0.23628 0.35863,0.32298 0,0.0965 -0.18474,0.25012 -0.30075,0.25012 -0.0559,0 -0.16151,-0.0506 -0.23462,-0.11214 l -0.1328,-0.11163 -0.14418,0.14883 -0.14418,0.14883 0.10284,0.0961 c 0.0566,0.0531 0.16467,0.13003 0.23978,0.17053 v -5.3e-4 c 0.16737,0.0904 0.50645,0.0645 0.71003,-0.0543 0.15693,-0.0916 0.31316,-0.35932 0.31316,-0.5364 0,-0.32033 -0.20529,-0.53329 -0.80564,-0.8356 -0.32358,-0.16293 -0.41522,-0.27981 -0.3054,-0.38965 0.0926,-0.0921 0.24427,-0.0901 0.38034,0.005 0.10473,0.0734 0.11178,0.0715 0.21445,-0.0568 0.0584,-0.073 0.10632,-0.15652 0.10646,-0.18552 2.6e-4,-0.0718 -0.36292,-0.24288 -0.51573,-0.24288 z m 10.15545,0.0413 c -0.6065,-0.0129 -1.1039,0.39957 -1.20355,1.06402 -0.0749,0.49933 0.29505,1.08172 0.78238,1.23145 0.34152,0.10489 0.68047,0.0909 0.96015,-0.0393 l 0.2403,-0.11214 -0.0935,-0.18294 c -0.0514,-0.10077 -0.10388,-0.18345 -0.11679,-0.18345 -0.0129,0 -0.0726,0.0322 -0.13229,0.0713 -0.0597,0.0392 -0.21761,0.0816 -0.35088,0.0946 -0.19842,0.0194 -0.2794,0.004 -0.447,-0.0858 -0.27795,-0.14885 -0.40928,-0.35238 -0.40928,-0.63407 0,-0.29584 0.0912,-0.49846 0.29404,-0.65319 0.33768,-0.25756 0.84076,-0.1841 1.13481,0.16537 l 0.12196,0.14417 0.1571,-0.0842 c 0.0864,-0.0465 0.15709,-0.1145 0.15709,-0.1509 0,-0.11916 -0.43002,-0.48715 -0.66094,-0.56585 -0.14801,-0.0504 -0.2936,-0.0761 -0.43356,-0.0791 z m -6.5226,0.0465 0.17105,0.3452 c 0.094,0.19001 0.15868,0.36459 0.14417,0.38809 -0.0312,0.0509 -0.50726,0.0584 -0.53536,0.009 -0.0106,-0.0188 0.0344,-0.19333 0.10025,-0.38809 z m -5.09633,0.40153 c -0.0447,0.002 -0.0978,0.0245 -0.17053,0.0522 l -0.12041,0.046 0.28732,0.83148 c 0.15794,0.45752 0.32289,0.94001 0.36639,1.07228 0.0697,0.21197 0.0902,0.23722 0.17673,0.21032 0.2677,-0.0833 0.31271,-0.11306 0.2899,-0.19016 -0.0128,-0.0433 -0.17613,-0.51845 -0.36328,-1.05627 -0.27534,-0.79127 -0.33215,-0.97176 -0.46612,-0.96583 z m 14.65285,0.60151 c -0.19869,0 -0.2415,0.0193 -0.40463,0.18242 -0.16762,0.16768 -0.18071,0.19781 -0.16071,0.37569 0.012,0.10642 0.0837,0.32666 0.15865,0.48886 0.22448,0.48559 0.26707,0.62967 0.21187,0.71726 -0.0999,0.15863 -0.38054,0.12233 -0.46354,-0.0599 -0.0293,-0.0643 -0.0532,-0.15774 -0.0532,-0.20774 0,-0.0797 -0.0209,-0.0874 -0.17053,-0.0625 -0.28508,0.0474 -0.28022,0.0422 -0.23202,0.25735 0.0491,0.21906 0.2192,0.42631 0.42529,0.51832 0.21377,0.0954 0.48776,0.0792 0.66353,-0.0393 0.33758,-0.22747 0.35619,-0.54492 0.0692,-1.1653 -0.22479,-0.48591 -0.22655,-0.60815 -0.0103,-0.58705 0.1118,0.0109 0.15902,0.049 0.22273,0.17932 l 0.0806,0.16537 0.19224,-0.0584 c 0.20467,-0.0623 0.20969,-0.0806 0.091,-0.33176 -0.10645,-0.22521 -0.35175,-0.37259 -0.62012,-0.37259 z m -16.9292,0.31833 c -0.0128,0 -0.10129,0.0401 -0.19689,0.0889 l -0.17363,0.0889 0.48266,0.94568 c 0.26565,0.52031 0.49986,0.97174 0.51986,1.00304 0.0201,0.0312 0.0449,0.0568 0.0553,0.0568 0.0626,0 0.88521,-0.47115 0.88521,-0.50695 0,-0.0678 -0.13466,-0.31201 -0.17156,-0.31109 -0.0181,5.3e-4 -0.14418,0.062 -0.28009,0.13694 -0.18869,0.104 -0.25625,0.12287 -0.28525,0.0791 -0.0209,-0.0316 -0.21239,-0.40008 -0.4253,-0.81907 -0.2129,-0.419 -0.39751,-0.76223 -0.41031,-0.76223 z m 18.76423,0.75344 c -0.34634,0.004 -0.52849,0.0836 -0.8077,0.35295 -0.20832,0.20096 -0.37466,0.56526 -0.37466,0.82011 0,0.0821 0.0307,0.25214 0.0682,0.37827 0.079,0.2659 0.40174,0.60091 0.71726,0.74414 0.1281,0.0582 0.29548,0.0877 0.50075,0.0884 0.34526,0.001 0.38089,-0.0299 0.31729,-0.27543 -0.0385,-0.14893 -0.0432,-0.15101 -0.26975,-0.13901 -0.36575,0.0194 -0.72528,-0.18669 -0.83664,-0.47956 -0.16392,-0.43116 0.0959,-0.93871 0.54209,-1.05885 0.38241,-0.10297 0.89006,0.21843 0.96996,0.61443 0.0151,0.075 0.0494,0.086 0.22118,0.0729 0.11178,-0.008 0.21117,-0.0231 0.22117,-0.0331 0.0405,-0.0397 -0.14667,-0.43274 -0.29869,-0.62787 -0.23139,-0.297 -0.58075,-0.46134 -0.97048,-0.45734 z m -20.30884,0.13591 c -0.0459,0.006 -0.12235,0.0374 -0.19585,0.0837 l -0.17828,0.11214 0.108,0.60565 c 0.0593,0.33304 0.15371,0.86652 0.20981,1.18546 0.0561,0.31894 0.10827,0.57981 0.11627,0.57981 0.008,0 0.0958,-0.046 0.19533,-0.10232 0.1739,-0.0984 0.17978,-0.10929 0.15348,-0.28422 -0.015,-0.10006 -0.0363,-0.21467 -0.0475,-0.25477 -0.0146,-0.0522 0.0865,-0.13628 0.35554,-0.29559 0.20688,-0.1225 0.39214,-0.23022 0.41134,-0.23823 0.0192,-0.008 0.10682,0.0478 0.19482,0.12506 0.18904,0.16599 0.22221,0.16948 0.42478,0.046 0.18192,-0.11091 0.19642,-0.0899 -0.3421,-0.50642 -0.20347,-0.15739 -0.58353,-0.45121 -0.84439,-0.6532 -0.26086,-0.20198 -0.49778,-0.38166 -0.52658,-0.39945 -0.007,-0.004 -0.0193,-0.005 -0.0346,-0.004 z m 0.16743,0.67489 c 0.064,-0.0185 0.57574,0.33874 0.58136,0.41393 0.002,0.025 -0.0971,0.10173 -0.21962,0.17053 -0.12248,0.0688 -0.232,0.12506 -0.2434,0.12506 -0.0216,0 -0.12505,-0.57944 -0.12505,-0.70022 0,-0.005 0.002,-0.008 0.007,-0.009 z m 22.18728,0.39223 c -0.0131,-8e-4 -0.149,0.1473 -0.30179,0.32866 -0.15278,0.18136 -0.43881,0.52004 -0.63562,0.75292 -0.59737,0.70683 -0.55256,0.61445 -0.37465,0.77619 0.0844,0.0767 0.16371,0.13921 0.17621,0.13849 0.0125,-8e-4 0.15268,-0.16411 0.31161,-0.36277 0.15892,-0.19866 0.30913,-0.36122 0.33383,-0.36122 0.0247,0 0.16074,0.0964 0.30231,0.21446 0.14157,0.11803 0.26485,0.21927 0.27285,0.22427 0.009,0.005 -0.12995,0.17981 -0.30799,0.38809 l -0.32401,0.37827 0.13849,0.12506 c 0.0761,0.0688 0.1565,0.12506 0.1788,0.12506 0.0223,0 0.12924,-0.10741 0.23771,-0.23875 0.21719,-0.26297 0.65371,-0.77779 1.00098,-1.18132 l 0.22375,-0.26045 -0.14934,-0.13642 c -0.0823,-0.0748 -0.16087,-0.13622 -0.17467,-0.13695 -0.0138,-7.9e-4 -0.14333,0.14214 -0.28784,0.31781 l -0.26251,0.31936 -0.16743,-0.13694 c -0.0919,-0.0754 -0.22619,-0.18651 -0.29869,-0.24701 l -0.13178,-0.11007 0.24546,-0.28836 c 0.13507,-0.15868 0.26368,-0.30171 0.28578,-0.31781 0.0353,-0.0256 -0.22886,-0.30657 -0.29146,-0.31057 z m -24.34839,0.31884 c -0.0283,7.9e-4 -0.11118,0.0507 -0.18448,0.11059 -0.0992,0.0811 -0.1215,0.12428 -0.0863,0.16898 0.054,0.0686 0.34334,0.4274 0.93689,1.16272 0.22718,0.28142 0.42799,0.5116 0.44649,0.5116 0.0185,0 0.17376,-0.11443 0.34468,-0.25477 0.17092,-0.14033 0.34938,-0.28276 0.39688,-0.31626 0.0831,-0.0585 0.0812,-0.0665 -0.0491,-0.21497 l -0.13539,-0.15451 -0.21807,0.17466 c -0.11976,0.0961 -0.2346,0.17467 -0.2558,0.17467 -0.0407,0 -0.26054,-0.25627 -0.80926,-0.94413 -0.18436,-0.23112 -0.35833,-0.41948 -0.38654,-0.41858 z m -0.72243,1.09657 c -0.39909,-0.0381 -0.80442,0.13507 -1.06764,0.50282 -0.42926,0.59972 -0.15523,1.48428 0.54829,1.76991 0.5468,0.222 1.15482,-0.002 1.47071,-0.54053 0.11097,-0.18886 0.13227,-0.2038 0.26717,-0.1819 0.12455,0.0202 0.17101,-0.002 0.31109,-0.14521 0.0906,-0.0928 0.16485,-0.18032 0.16485,-0.19482 0,-0.0145 -0.14323,-0.0406 -0.31833,-0.0579 -0.31037,-0.0306 -0.31832,-0.0343 -0.31832,-0.15813 0,-0.17018 -0.19945,-0.53576 -0.37827,-0.6935 -0.2028,-0.17889 -0.4401,-0.27788 -0.67955,-0.30076 z m -0.10077,0.41755 c 0.16235,0.006 0.32861,0.0688 0.47594,0.19275 0.13081,0.11007 0.27337,0.32583 0.27337,0.41393 0,0.0216 -0.0736,0.0301 -0.1633,0.0196 -0.14041,-0.0164 -0.18815,0.006 -0.34365,0.1571 l -0.18035,0.1757 0.12764,0.0289 c 0.0702,0.0158 0.2146,0.0311 0.32091,0.0341 0.1063,0.003 0.19327,0.0244 0.19327,0.0475 0,0.0847 -0.25001,0.33554 -0.39429,0.39584 -0.62678,0.26188 -1.29426,-0.44352 -0.9865,-1.04283 0.14622,-0.28475 0.40638,-0.43266 0.67696,-0.42272 z m 26.89345,0.12454 c -0.28076,-0.01 -0.56605,0.0893 -0.81184,0.29972 -0.63879,0.54677 -0.51369,1.56627 0.23823,1.94097 0.57123,0.28465 1.27085,0.0494 1.56218,-0.52555 0.24781,-0.48903 0.17339,-0.98104 -0.20516,-1.35961 -0.22682,-0.22683 -0.50265,-0.34576 -0.78341,-0.35553 z m -0.0279,0.44804 c 0.75001,0 1.00406,0.92795 0.37259,1.36064 -0.17761,0.12169 -0.52207,0.16698 -0.70021,0.092 -0.42122,-0.1773 -0.58526,-0.7646 -0.31575,-1.12913 0.16929,-0.22893 0.35749,-0.32349 0.64337,-0.32349 z m -28.81736,0.85731 c -0.028,-0.0161 -0.1037,0.0465 -0.1695,0.14004 l -0.11937,0.16898 0.47594,0.3607 c 0.26183,0.19819 0.66355,0.49793 0.89245,0.66611 0.2289,0.16818 0.42773,0.30629 0.44183,0.30696 0.0344,0.002 0.22473,-0.25856 0.22273,-0.30386 -0.002,-0.0303 -1.59237,-1.25153 -1.74408,-1.33893 z m -0.63769,0.74672 -0.19998,0.34623 c -0.11005,0.19059 -0.24988,0.4338 -0.31058,0.54002 l -0.11059,0.19327 0.14935,0.0909 c 0.18356,0.11192 0.2488,0.11428 0.2837,0.0114 0.0149,-0.0438 0.0557,-0.11666 0.0904,-0.16226 0.0604,-0.0794 0.07,-0.0781 0.23719,0.0274 0.096,0.0605 0.32812,0.19823 0.51573,0.30644 0.18761,0.1082 0.45283,0.2651 0.58963,0.3483 h 5.3e-4 c 0.1368,0.0832 0.26419,0.15089 0.28319,0.15089 0.019,0 0.0753,-0.0797 0.12505,-0.17725 0.0696,-0.13646 0.0778,-0.18734 0.0351,-0.22014 -0.0305,-0.0234 -0.38838,-0.23299 -0.79478,-0.4656 l -0.73846,-0.42272 0.0904,-0.14676 c 0.12088,-0.19565 0.11711,-0.21203 -0.078,-0.32401 z m 31.16193,0.3235 c -0.0838,-0.004 -0.16883,0.003 -0.25425,0.0207 -0.59213,0.12364 -1.01307,0.62125 -1.00408,1.18597 0.007,0.42657 0.25994,0.83206 0.63872,1.02423 0.21675,0.10963 0.2833,0.12234 0.5855,0.10594 0.38345,-0.0208 0.53526,-0.0849 0.79013,-0.3328 0.23941,-0.23287 0.34505,-0.48143 0.34572,-0.81545 0.001,-0.63889 -0.51496,-1.16304 -1.10174,-1.18856 z m -0.11783,0.44183 c 0.20927,-0.0142 0.42326,0.0445 0.54467,0.1602 0.36828,0.35099 0.32686,0.92941 -0.0858,1.19682 -0.17448,0.11279 -0.49941,0.16327 -0.67334,0.10387 -0.35048,-0.11959 -0.56754,-0.53925 -0.46716,-0.90279 0.0585,-0.21187 0.28155,-0.45413 0.47749,-0.51883 0.0651,-0.0215 0.13437,-0.0345 0.20412,-0.0393 z m -31.59393,0.8263 c -0.005,-0.007 -0.0787,0.0169 -0.16382,0.0527 -0.16266,0.0684 -0.35883,0.2546 -0.44493,0.42219 -0.13478,0.26235 0.0124,0.65144 0.2899,0.7674 0.23022,0.0962 0.30705,0.0847 0.7705,-0.11938 0.50386,-0.22179 0.72227,-0.23161 0.74517,-0.0331 0.0214,0.18503 -0.0639,0.2998 -0.26717,0.3607 -0.12654,0.0379 -0.17564,0.0751 -0.15864,0.11938 0.0135,0.0353 0.0248,0.12573 0.0248,0.20153 -1e-5,0.13438 0.004,0.13736 0.16898,0.10646 0.67833,-0.12725 0.92708,-0.88105 0.41341,-1.25316 -0.25979,-0.18823 -0.44699,-0.17848 -0.96738,0.0506 -0.4562,0.20083 -0.62956,0.21577 -0.65216,0.0568 -0.0162,-0.11343 0.14893,-0.28835 0.27233,-0.28835 0.0453,0 0.0827,-0.0277 0.0827,-0.0615 0,-0.0529 -0.0878,-0.348 -0.11369,-0.38241 z m 33.45584,1.08573 -0.26356,0.10542 c -1.04038,0.41537 -1.76975,0.71824 -1.79885,0.74724 -0.0189,0.0188 0.0499,0.24258 0.15296,0.49764 0.1031,0.25506 0.20321,0.46406 0.22221,0.46406 0.019,0 0.10749,-0.0308 0.19689,-0.0682 l 0.16278,-0.0677 -0.0682,-0.17105 c -0.0375,-0.094 -0.0908,-0.21655 -0.11886,-0.27285 -0.0281,-0.0562 -0.0367,-0.1173 -0.0186,-0.1354 0.0182,-0.0181 0.3956,-0.17873 0.83819,-0.35656 0.86489,-0.34749 0.85015,-0.33488 0.74052,-0.62322 z m -34.48214,0.62012 c -0.045,0.0509 -0.13724,0.3418 -0.11524,0.3638 0.0105,0.0104 0.47634,0.16873 1.03508,0.35191 0.55874,0.18318 1.03827,0.33545 1.06557,0.33745 0.047,0.004 0.17999,-0.34969 0.1447,-0.38499 -0.0527,-0.0527 -2.10511,-0.69647 -2.13011,-0.66817 z"
               id="path2685" />
            <path
               style="fill:#000000;stroke-width:0.0454815"
               d="m -111.47022,-185.35195 c -0.0841,0.008 -0.16129,0.0456 -0.2005,0.11886 -0.0721,0.13466 -0.009,0.18442 0.13797,0.10852 0.11549,-0.0601 0.13587,-0.0592 0.19017,0.006 0.0521,0.0628 0.0458,0.0832 -0.0413,0.14107 -0.13367,0.0888 -0.12823,0.16602 0.0155,0.23152 0.16255,0.0741 0.13785,0.2511 -0.0377,0.2713 -0.0818,0.009 -0.13465,-0.0103 -0.15244,-0.0568 -0.0349,-0.0909 -0.19999,-0.0936 -0.19999,-0.003 0,0.0375 0.0415,0.10917 0.0915,0.15917 v 5.1e-4 c 0.0563,0.0563 0.15162,0.0909 0.25012,0.0909 0.28458,0 0.44853,-0.30629 0.26975,-0.50384 -0.0579,-0.064 -0.0608,-0.0956 -0.016,-0.16743 0.0299,-0.0486 0.0425,-0.13903 0.0269,-0.20103 -0.0342,-0.13641 -0.1937,-0.2086 -0.33383,-0.19585 z m -1.56218,0.003 c -0.13364,-0.003 -0.26522,0.0741 -0.31884,0.20361 -0.0784,0.18935 -0.0377,0.65245 0.0677,0.76895 0.12195,0.13476 0.40895,0.12721 0.50075,-0.0129 0.17942,-0.27383 0.10973,-0.8188 -0.11834,-0.92811 -0.0421,-0.0202 -0.0867,-0.0304 -0.13126,-0.0315 z m -0.80977,0.008 c -0.0957,2.2e-4 -0.19464,0.0374 -0.26561,0.11989 -0.13643,0.15841 -0.13443,0.2098 0.007,0.2098 0.0669,0 0.11369,-0.0263 0.11369,-0.0636 0,-0.0875 0.13452,-0.13111 0.21032,-0.0682 0.11246,0.0933 0.0664,0.2135 -0.18758,0.48782 -0.13758,0.1486 -0.25012,0.29301 -0.25012,0.32091 0,0.0329 0.12028,0.0506 0.34107,0.0506 0.31081,0 0.34158,-0.008 0.34158,-0.0909 0,-0.0737 -0.0308,-0.091 -0.15968,-0.091 -0.1829,0 -0.19881,-0.0409 -0.0636,-0.16329 0.12585,-0.11391 0.22272,-0.30587 0.22272,-0.44132 0,-0.16849 -0.15063,-0.27115 -0.31006,-0.27078 z m 1.52343,0.0186 c -0.0581,0.005 -0.0928,0.0295 -0.12041,0.0811 -0.0429,0.0802 -0.0369,0.0935 0.0424,0.0935 0.0866,0 0.0925,0.0277 0.0925,0.43511 0,0.42155 0.003,0.43475 0.0992,0.42065 0.0953,-0.014 0.0996,-0.0333 0.0946,-0.5147 l -0.005,-0.50023 -0.13642,-0.0139 c -0.0251,-0.003 -0.0473,-0.003 -0.0667,-0.002 z m -0.69815,0.15245 c 0.0235,0.006 0.0465,0.0186 0.0677,0.0398 0.0695,0.0696 0.0952,0.51558 0.0351,0.61288 -0.0505,0.0818 -0.2011,0.0602 -0.2527,-0.0362 -0.0516,-0.0965 -0.0608,-0.33336 -0.0191,-0.48886 0.0259,-0.0965 0.0985,-0.14504 0.16898,-0.12764 z"
               id="path2687"
               inkscape:connector-curvature="0" />
            <path
               style="fill:#000000;stroke-width:0.0454815"
               d="m -139.33686,-185.26956 c -0.0907,0 -0.0909,0.26708 -5.1e-4,0.41549 0.0512,0.0841 0.10615,0.25011 0.12195,0.36845 0.0381,0.28555 0.10801,0.23054 0.10801,-0.0847 0,-0.2434 -0.14965,-0.69919 -0.22945,-0.69919 z m 1.2175,0.01 c -0.0121,-0.001 -0.0359,0.0198 -0.0832,0.0625 -0.0527,0.0477 -0.13795,0.14609 -0.18965,0.21859 l -0.0941,0.1323 0.10232,0.0827 c 0.0957,0.0775 0.0975,0.0893 0.0305,0.185 -0.0985,0.14061 -0.0901,0.21453 0.0305,0.26303 l 5.2e-4,-5.1e-4 c 0.16787,0.0675 0.25327,0.0527 0.28577,-0.0496 0.031,-0.0975 -0.034,-0.1747 -0.14934,-0.1757 -0.083,-0.001 -0.0704,-0.0626 0.0434,-0.20723 0.0558,-0.0704 0.081,-0.13514 0.0568,-0.14314 -0.0241,-0.008 -0.0741,-0.0359 -0.11162,-0.061 -0.0595,-0.0398 -0.058,-0.0516 0.0114,-0.0925 0.0438,-0.0258 0.0796,-0.0899 0.0796,-0.14262 0,-0.0472 -7.7e-4,-0.0707 -0.0129,-0.0718 z m 0.65474,0.003 c -0.0131,0.007 -0.0268,0.0372 -0.0486,0.0946 -0.0406,0.10684 -0.0334,0.15527 0.0388,0.27285 0.0484,0.0786 0.10122,0.22498 0.11782,0.32504 0.0165,0.10006 0.0435,0.21262 0.06,0.25012 0.0165,0.0375 0.0364,-0.0644 0.0444,-0.22635 0.0152,-0.31051 0.0593,-0.37721 0.22169,-0.33641 0.11742,0.0295 0.19879,-0.092 0.19379,-0.28732 -0.002,-0.0704 -0.0143,-0.10261 -0.0269,-0.0713 -0.0126,0.0313 -0.0622,0.0574 -0.11007,0.0574 -0.0479,0 -0.0876,-0.0261 -0.0884,-0.0574 -9e-4,-0.0348 -0.0251,-0.0259 -0.062,0.0227 -0.0332,0.0438 -0.10325,0.0796 -0.15555,0.0796 -0.0523,0 -0.11502,-0.0358 -0.13952,-0.0796 -0.0196,-0.0352 -0.0324,-0.0509 -0.0455,-0.0439 z m 1.31672,0.12402 c -0.10972,0 -0.22537,0.16332 -0.27647,0.38964 -0.0301,0.13322 -0.0206,0.18045 0.0501,0.25115 0.1026,0.1026 0.0824,0.0999 0.26355,0.0367 0.14193,-0.0495 0.27802,-0.23682 0.27802,-0.38189 0,-0.10275 -0.20572,-0.29559 -0.31522,-0.29559 z m -0.11163,0.24546 c 0.0873,0.004 0.29043,0.11157 0.29043,0.16485 0,0.0456 -0.20566,0.0554 -0.30696,0.0145 -0.0674,-0.0272 -0.0755,-0.13493 -0.0129,-0.17363 0.007,-0.004 0.017,-0.006 0.0294,-0.006 z"
               id="path2689"
               inkscape:connector-curvature="0" />
          </g>
        </g>
      </g>
      <g
         id="g6697"
         transform="matrix(0.81729152,0,0,0.81729131,-513.25739,-5251.8395)"
         style="display:inline;fill:#333333;fill-opacity:1;stroke-width:1.04603">
        <g
           id="g6691"
           transform="translate(-23.20528)"
           style="fill:#333333;fill-opacity:1;stroke-width:1.04603">
          <path
             inkscape:connector-curvature="0"
             id="path6681"
             d="m -188.99309,6592.63 c -0.0992,0 -0.19822,0 -0.26528,0.014 -0.4126,0.056 -0.77699,0.22 -1.09073,0.4892 -0.33793,0.2896 -0.58232,0.7009 -0.67355,1.1329 -0.0585,0.2754 -0.0599,0.5909 0,0.8648 0.0636,0.3084 0.21272,0.6248 0.41681,0.8804 0.0687,0.087 0.22581,0.2431 0.31208,0.3121 0.25026,0.1997 0.54391,0.3417 0.8527,0.4122 l -2.6e-4,-2e-4 c 0.10432,0.025 0.14325,0.027 0.14999,0.011 0.012,-0.022 0.012,-1.4224 0,-1.4389 0,0 -0.012,0 -0.012,-0.011 h -3.8e-4 v 0 c -0.0165,-0.011 -0.0687,-0.011 -0.25585,-0.011 h -0.25751 V 6595 v -0.2853 h 0.25763 c 0.23868,0 0.25777,0 0.26489,-0.014 0,-0.011 0.012,-0.1498 0.012,-0.3231 0,-0.2819 0.012,-0.3145 0.0203,-0.373 0.0523,-0.1972 0.13711,-0.3281 0.27419,-0.4191 0.0763,-0.051 0.1389,-0.078 0.23333,-0.1015 0.0624,-0.016 0.0879,-0.018 0.26744,-0.017 0.1392,5e-4 0.2285,0 0.30037,0.014 0.0573,0.011 0.10568,0.016 0.10822,0.018 0,0 0.012,0.1106 0.012,0.2408 v 0.2365 h -0.16858 c -0.1133,0 -0.1813,0.011 -0.20814,0.016 -0.11705,0.034 -0.19213,0.1106 -0.22164,0.2239 -0.0153,0.061 -0.0179,0.4709 0,0.4863 0.012,0.011 0.0814,0.011 0.28537,0.011 h 0.27596 l -5e-4,0.018 c -1.2e-4,0.011 -0.0191,0.1374 -0.0421,0.2834 l -0.0407,0.2657 h -0.24174 -0.242 v 0.7277 c 0,0.6681 0,0.7276 0.012,0.7329 0.0318,0.013 0.27609,-0.049 0.42418,-0.105 0.1157,-0.044 0.28677,-0.1312 0.39173,-0.1999 0.13442,-0.088 0.23755,-0.1741 0.35688,-0.2967 0.31286,-0.321 0.50562,-0.7151 0.57189,-1.1683 0.0204,-0.1322 0.0204,-0.423 0,-0.5551 -0.0356,-0.2451 -0.0967,-0.4437 -0.2028,-0.6535 -0.31119,-0.6205 -0.89734,-1.0366 -1.59443,-1.1318 -0.0675,-0.011 -0.16654,-0.014 -0.26565,-0.014 z"
             style="fill:#333333;fill-opacity:1;stroke-width:0.00829465" />
          <g
             style="fill:#333333;fill-opacity:1;stroke-width:1.04603"
             transform="matrix(1.1387232,0,0,1.1387232,-118.81329,6282.4033)"
             id="g6685">
            <path
               style="fill:#333333;fill-opacity:1;stroke-width:0.00820556"
               d="m -50.156541,276.20876 c -0.186919,-0.008 -0.31922,-0.0239 -0.433591,-0.0541 -0.383496,-0.10105 -0.653142,-0.37375 -0.750221,-0.75859 -0.04761,-0.18875 -0.05944,-0.41775 -0.05937,-1.15154 3.9e-5,-0.75499 0.01168,-0.97494 0.06226,-1.16884 0.100182,-0.38445 0.373136,-0.65504 0.758906,-0.75236 0.188759,-0.0476 0.417751,-0.0594 1.151555,-0.0594 0.754968,3e-5 0.974934,0.0115 1.168819,0.0623 0.384451,0.10015 0.655059,0.37313 0.752374,0.7589 0.04753,0.18847 0.05937,0.41859 0.05937,1.15548 0,0.75066 -0.01181,0.97121 -0.06226,1.16488 -0.100183,0.38445 -0.373137,0.65507 -0.758907,0.75239 -0.115397,0.0291 -0.236196,0.0429 -0.453399,0.0515 -0.226062,0.009 -1.203287,0.009 -1.435537,-4.3e-4 z m 1.211963,-0.3521 c 0.383244,-0.008 0.487756,-0.0166 0.607315,-0.0511 0.131416,-0.0381 0.208109,-0.0813 0.297452,-0.16773 0.120467,-0.11644 0.184766,-0.25725 0.213181,-0.46658 0.03112,-0.22908 0.03112,-1.63212 0,-1.86121 -0.01946,-0.14356 -0.06355,-0.27407 -0.12206,-0.36127 -0.03601,-0.0537 -0.121186,-0.13961 -0.175069,-0.1766 -0.09324,-0.0642 -0.218867,-0.10772 -0.368725,-0.12801 -0.229076,-0.0312 -1.632124,-0.0312 -1.861199,0 -0.14985,0.0203 -0.275483,0.0639 -0.368734,0.12801 -0.05387,0.0371 -0.139046,0.12287 -0.175059,0.1766 -0.05852,0.0872 -0.10257,0.21771 -0.12206,0.36127 -0.03112,0.22909 -0.03112,1.63213 0,1.86121 0.0203,0.14986 0.06394,0.27548 0.127966,0.36874 0.03702,0.0539 0.12292,0.13904 0.17661,0.17505 0.08911,0.0598 0.218676,0.10296 0.369283,0.12299 0.16129,0.0214 0.823542,0.0303 1.401102,0.0188 z m -0.659546,-0.61631 c -0.416872,-0.0754 -0.746364,-0.40726 -0.819195,-0.82489 -0.01503,-0.0865 -0.01503,-0.26321 0,-0.3497 0.07332,-0.42062 0.404756,-0.75203 0.825382,-0.82538 0.0865,-0.0152 0.263207,-0.0152 0.349704,0 0.420626,0.0733 0.752033,0.40476 0.825381,0.82538 0.01503,0.0865 0.01503,0.26321 0,0.3497 -0.07332,0.42062 -0.404755,0.75202 -0.825381,0.82538 -0.08345,0.0146 -0.274309,0.0144 -0.355891,-4.4e-4 z m 0.334007,-0.36023 c 0.246359,-0.0646 0.421535,-0.23999 0.487133,-0.48782 0.01014,-0.0381 0.0142,-0.082 0.0142,-0.15168 0,-0.0696 -0.0045,-0.11362 -0.0142,-0.15169 -0.06576,-0.24849 -0.239942,-0.42266 -0.488423,-0.48842 -0.07394,-0.0196 -0.229419,-0.0196 -0.303356,0 -0.08276,0.022 -0.14454,0.0493 -0.213082,0.0949 -0.137011,0.0909 -0.230634,0.22467 -0.275332,0.39359 -0.01953,0.0739 -0.01953,0.22942 0,0.30337 0.06166,0.23315 0.223644,0.40573 0.447905,0.47732 0.09731,0.0311 0.249036,0.0357 0.345155,0.0103 z m 0.847196,-1.46221 c -0.06868,-0.0182 -0.124961,-0.0642 -0.158831,-0.1294 -0.01747,-0.0338 -0.02082,-0.0503 -0.02082,-0.10297 0,-0.0733 0.02023,-0.12145 0.07111,-0.16979 0.05006,-0.0475 0.09197,-0.0646 0.159534,-0.0648 0.09971,-4.5e-4 0.180052,0.0506 0.22111,0.14054 0.02618,0.0574 0.02479,0.14235 -0.003,0.1961 -0.02434,0.0469 -0.06806,0.0901 -0.114267,0.11324 -0.03677,0.0184 -0.116488,0.0272 -0.154598,0.0171 z"
               id="path6683"
               inkscape:connector-curvature="0" />
          </g>
          <path
             style="fill:#333333;fill-opacity:1;stroke-width:0.00778596"
             d="m -182.92118,6596.5971 c -0.68549,-0.019 -1.15025,-0.054 -1.34352,-0.1031 -0.1963,-0.05 -0.37069,-0.2001 -0.45192,-0.3881 -0.0767,-0.1779 -0.12408,-0.5638 -0.14377,-1.1773 -0.0147,-0.4565 0.0166,-1.0553 0.072,-1.3852 0.0238,-0.1401 0.0412,-0.2088 0.0717,-0.2795 0.0812,-0.188 0.25564,-0.3378 0.45195,-0.3879 0.27014,-0.07 1.07384,-0.1113 2.12878,-0.1113 1.05493,0 1.85865,0.042 2.12879,0.1113 0.19631,0.05 0.37068,0.1999 0.45193,0.3879 0.0769,0.1778 0.12406,0.5637 0.14375,1.1771 0.0147,0.4566 -0.0166,1.0555 -0.072,1.3852 -0.0238,0.1405 -0.0413,0.2089 -0.0719,0.2797 -0.0812,0.188 -0.25564,0.3376 -0.45194,0.3881 -0.19931,0.05 -0.64233,0.084 -1.38447,0.1044 -0.31572,0.014 -1.20422,0.014 -1.52958,-6e-4 z m 1.07767,-1.5849 c 0.31372,-0.1781 0.5704,-0.3255 0.57038,-0.3275 -5e-5,0 -0.32159,-0.1866 -1.28091,-0.7306 l -0.14007,-0.08 v 0.8103 0.8103 l 0.14007,-0.08 c 0.077,-0.044 0.39677,-0.2252 0.71053,-0.4033 z"
             id="path6687"
             inkscape:connector-curvature="0" />
          <path
             id="path6689"
             style="fill:#333333;fill-opacity:1;stroke-width:0.131824;stroke-linecap:round;stroke-linejoin:round"
             d="m -194.57021,6592.6028 a 2.0839882,2.0840777 0 0 0 -2.08384,2.0839 2.0839882,2.0840777 0 0 0 2.08384,2.0841 2.0839882,2.0840777 0 0 0 2.08419,-2.0841 2.0839882,2.0840777 0 0 0 -2.08419,-2.0839 z m 0.84151,1.2918 c 0.0215,0 0.0376,0 0.0483,0.018 0.0179,0 0.0197,0.018 0.025,0.023 0,0.018 0,0.029 0,0.056 0,0.025 0,0.059 0,0.102 0,0.066 -0.0197,0.19 -0.0429,0.3396 -0.0215,0.1503 -0.0501,0.3255 -0.0805,0.4955 -0.0304,0.17 -0.0591,0.3344 -0.0859,0.4613 -0.025,0.127 -0.0465,0.2163 -0.0573,0.2367 -0.0179,0.02 -0.0251,0.036 -0.0429,0.05 -0.0179,0.018 -0.0358,0.02 -0.0501,0.02 -0.0179,0 -0.0698,-0.029 -0.14315,-0.072 -0.0734,-0.043 -0.16819,-0.102 -0.26195,-0.1628 -0.0948,-0.061 -0.18842,-0.1252 -0.26375,-0.1789 -0.0751,-0.054 -0.13062,-0.098 -0.14851,-0.1199 0,-0.018 -0.0179,-0.023 -0.0179,-0.039 0,-0.018 0.0179,-0.036 0.0376,-0.066 0.0447,-0.057 0.1342,-0.1467 0.29023,-0.2988 0.0841,-0.081 0.15209,-0.1503 0.20631,-0.2103 0.0537,-0.059 0.0948,-0.1091 0.11988,-0.1467 0.0179,-0.02 0.0233,-0.036 0.0286,-0.05 0,-0.018 0,-0.027 0,-0.036 0,-0.018 0,-0.018 -0.0179,-0.021 0,0 -0.0179,0 -0.0322,0 -0.0179,0 -0.0787,0.038 -0.17535,0.097 -0.0966,0.059 -0.2251,0.1413 -0.36001,0.231 -0.20899,0.1395 -0.33639,0.221 -0.42496,0.2677 -0.0447,0.023 -0.0787,0.038 -0.10915,0.047 -0.0304,0 -0.0555,0.018 -0.0823,0.018 -0.0429,0 -0.0913,0 -0.14315,-0.02 -0.0501,-0.018 -0.10199,-0.027 -0.14851,-0.043 -0.0465,-0.018 -0.0877,-0.034 -0.11631,-0.052 -0.0179,-0.018 -0.0268,-0.018 -0.034,-0.027 0,0 -0.0179,-0.018 -0.0179,-0.023 0,-0.018 0.0304,-0.032 0.0823,-0.061 0.0537,-0.03 0.12883,-0.068 0.22027,-0.1109 0.18269,-0.088 0.42782,-0.1954 0.67743,-0.3008 0.24979,-0.1056 0.50423,-0.2078 0.70535,-0.2829 0.1002,-0.038 0.1877,-0.068 0.25426,-0.09 0.0662,-0.021 0.11273,-0.032 0.13062,-0.029 z" />
        </g>
        <text
           id="text6695"
           y="6603.0439"
           x="-220.16133"
           style="font-style:normal;font-weight:normal;font-size:3.63853px;line-height:1.05;font-family:sans-serif;letter-spacing:0px;word-spacing:0px;fill:#333333;fill-opacity:1;stroke:none;stroke-width:0.0951527"
           xml:space="preserve"><tspan
             style="font-style:normal;font-variant:normal;font-weight:bold;font-stretch:normal;font-size:3.63853px;font-family:Montserrat;-inkscape-font-specification:'Montserrat Bold';font-variant-ligatures:normal;font-variant-caps:normal;font-variant-numeric:normal;font-feature-settings:normal;text-align:start;writing-mode:lr-tb;text-anchor:start;fill:#333333;fill-opacity:1;stroke-width:0.0951527"
             y="6603.0439"
             x="-220.16133"
             sodipodi:role="line"
             id="tspan6693">Istiqlal Islamic School</tspan></text>
      </g>
      <g
         id="g16571"
         transform="matrix(0.80882785,0,0,0.80882785,-91.953417,1.1837078)">
        <text
           xml:space="preserve"
           style="font-style:normal;font-variant:normal;font-weight:normal;font-stretch:normal;font-size:5.92458px;line-height:1.25;font-family:Montserrat;-inkscape-font-specification:'Montserrat, Normal';font-variant-ligatures:normal;font-variant-caps:normal;font-variant-numeric:normal;font-feature-settings:normal;text-align:start;letter-spacing:0px;word-spacing:0px;writing-mode:lr-tb;text-anchor:start;fill:#ffffff;fill-opacity:1;stroke:none;stroke-width:0.148115"
           x="-795.19934"
           y="137.42332"
           id="text16569"><tspan
             sodipodi:role="line"
             id="tspan16567"
             x="-795.19934"
             y="137.42332"
             style="font-style:normal;font-variant:normal;font-weight:800;font-stretch:normal;font-family:Montserrat;-inkscape-font-specification:'Montserrat Ultra-Bold';text-align:start;text-anchor:start;fill:#ffffff;fill-opacity:1;stroke-width:0.148115">SD Islam Istiqlal</tspan></text>
      </g>
      <g
         id="g16609"
         transform="matrix(0.80882785,0,0,0.80882785,-97.434072,-63.495518)"
         style="fill:#ffffff">
        <text
           xml:space="preserve"
           style="font-style:normal;font-variant:normal;font-weight:normal;font-stretch:normal;font-size:5.92458px;line-height:1.25;font-family:Montserrat;-inkscape-font-specification:'Montserrat, Normal';font-variant-ligatures:normal;font-variant-caps:normal;font-variant-numeric:normal;font-feature-settings:normal;text-align:start;letter-spacing:0px;word-spacing:0px;writing-mode:lr-tb;text-anchor:start;fill:#ffffff;fill-opacity:1;stroke:none;stroke-width:0.148115"
           x="-788.42328"
           y="137.42332"
           id="text16607"><tspan
             sodipodi:role="line"
             id="tspan16605"
             x="-788.42328"
             y="137.42332"
             style="font-style:normal;font-variant:normal;font-weight:800;font-stretch:normal;font-family:Montserrat;-inkscape-font-specification:'Montserrat Ultra-Bold';text-align:start;text-anchor:start;fill:#ffffff;fill-opacity:1;stroke-width:0.148115">SMP Islam Istiqlal</tspan></text>
      </g>
      <g
         id="g16639"
         transform="matrix(0.80882785,0,0,0.80882785,-166.78888,1.1837078)"
         style="fill:#666666">
        <text
           xml:space="preserve"
           style="font-style:normal;font-variant:normal;font-weight:normal;font-stretch:normal;font-size:5.92458px;line-height:1.25;font-family:Montserrat;-inkscape-font-specification:'Montserrat, Normal';font-variant-ligatures:normal;font-variant-caps:normal;font-variant-numeric:normal;font-feature-settings:normal;text-align:start;letter-spacing:0px;word-spacing:0px;writing-mode:lr-tb;text-anchor:start;fill:#666666;fill-opacity:1;stroke:none;stroke-width:0.148115"
           x="-795.19934"
           y="137.42332"
           id="text16637"><tspan
             sodipodi:role="line"
             id="tspan16635"
             x="-795.19934"
             y="137.42332"
             style="font-style:normal;font-variant:normal;font-weight:800;font-stretch:normal;font-family:Montserrat;-inkscape-font-specification:'Montserrat Ultra-Bold';text-align:start;text-anchor:start;fill:#666666;fill-opacity:1;stroke-width:0.148115">SMA Multi Istiqlal</tspan></text>
      </g>
    </g>
  </g>
</svg>
