<?xml version="1.0" encoding="UTF-8" standalone="no"?>
<!-- Created with Inkscape (http://www.inkscape.org/) -->

<svg
   width="210mm"
   height="297mm"
   viewBox="0 0 210 297"
   version="1.1"
   id="svg5"
   sodipodi:docname="BukuPerjalanan.svg"
   inkscape:version="1.2.1 (9c6d41e410, 2022-07-14)"
   inkscape:export-filename="BukuPerjalanan.png"
   inkscape:export-xdpi="300"
   inkscape:export-ydpi="300"
   xmlns:inkscape="http://www.inkscape.org/namespaces/inkscape"
   xmlns:sodipodi="http://sodipodi.sourceforge.net/DTD/sodipodi-0.dtd"
   xmlns:xlink="http://www.w3.org/1999/xlink"
   xmlns="http://www.w3.org/2000/svg"
   xmlns:svg="http://www.w3.org/2000/svg">
  <sodipodi:namedview
     id="namedview7"
     pagecolor="#ffffff"
     bordercolor="#000000"
     borderopacity="0.25"
     inkscape:showpageshadow="2"
     inkscape:pageopacity="0.0"
     inkscape:pagecheckerboard="0"
     inkscape:deskcolor="#d1d1d1"
     inkscape:document-units="mm"
     showgrid="false"
     inkscape:zoom="0.40553379"
     inkscape:cx="593.04553"
     inkscape:cy="578.25021"
     inkscape:window-width="1600"
     inkscape:window-height="829"
     inkscape:window-x="-8"
     inkscape:window-y="-8"
     inkscape:window-maximized="1"
     inkscape:current-layer="layer1" />
  <defs
     id="defs2">
    <clipPath
       clipPathUnits="userSpaceOnUse"
       id="clipPath23964-7">
      <rect
         style="opacity:0.25;fill:#ffa900;fill-opacity:1;stroke:none;stroke-width:4.62452;stroke-linejoin:bevel"
         id="rect23966-7"
         width="286.3606"
         height="302.72406"
         x="-384.25183"
         y="700.09821"
         transform="rotate(-4.834904)" />
    </clipPath>
    <clipPath
       clipPathUnits="userSpaceOnUse"
       id="clipPath3554">
      <rect
         style="opacity:1;fill:#000000;stroke:none;stroke-width:0.238314;stroke-linejoin:bevel"
         id="rect3556"
         width="142.41106"
         height="118.17085"
         x="79.410881"
         y="39.989178"
         ry="0" />
    </clipPath>
    <clipPath
       clipPathUnits="userSpaceOnUse"
       id="clipPath64512">
      <rect
         style="fill:url(#linearGradient64516);fill-opacity:1;stroke:none;stroke-width:7.97937;stroke-linejoin:bevel"
         id="rect64514"
         width="280.41956"
         height="209.25676"
         x="103.15358"
         y="-1157.3027"
         transform="scale(-1)" />
    </clipPath>
    <clipPath
       clipPathUnits="userSpaceOnUse"
       id="clipPath4194">
      <rect
         style="opacity:1;fill:#1a1a1a;stroke:#000000;stroke-width:0.7308;stroke-linejoin:bevel"
         id="rect4196"
         width="209.2692"
         height="296.2692"
         x="0.36539996"
         y="0.36539996" />
    </clipPath>
    <clipPath
       clipPathUnits="userSpaceOnUse"
       id="clipPath4860">
      <rect
         style="opacity:1;fill:#1a1a1a;fill-opacity:1;stroke:none;stroke-width:4.29421;stroke-linejoin:bevel"
         id="rect4862"
         width="221.86269"
         height="290.99435"
         x="-352.00418"
         y="732.17188"
         transform="scale(-1,1)" />
    </clipPath>
    <filter
       inkscape:collect="always"
       style="color-interpolation-filters:sRGB"
       id="filter6091"
       x="-0.043377277"
       y="-0.058524898"
       width="1.0867546"
       height="1.1170498">
      <feGaussianBlur
         inkscape:collect="always"
         stdDeviation="4.9943488"
         id="feGaussianBlur6093" />
    </filter>
  </defs>
  <g
     inkscape:label="Layer 1"
     inkscape:groupmode="layer"
     id="layer1">
    <g
       id="g5955">
      <rect
         style="opacity:1;fill:#ffffff;stroke:none;stroke-width:0.732977;stroke-linejoin:bevel"
         id="rect4179"
         width="210"
         height="297"
         x="0"
         y="0" />
      <g
         id="g4190"
         clip-path="url(#clipPath4194)">
        <rect
           style="opacity:1;fill:none;stroke:#000000;stroke-width:0.2696;stroke-linejoin:bevel"
           id="rect567"
           width="186.83005"
           height="115.27809"
           x="119.84663"
           y="206.14885"
           ry="19.875538" />
        <rect
           style="opacity:1;fill:none;stroke:#000000;stroke-width:0.369889;stroke-linejoin:bevel"
           id="rect4175"
           width="247.84743"
           height="163.57265"
           x="-0.38318083"
           y="168.65919"
           ry="28.202187" />
        <rect
           style="opacity:1;fill:none;stroke:#000000;stroke-width:0.449299;stroke-linejoin:bevel"
           id="rect4177"
           width="293.28116"
           height="203.95677"
           x="66.621063"
           y="212.61823"
           ry="35.16497" />
        <g
           id="g3609"
           transform="matrix(1.325482,0,0,1.325482,-4.682311,106.43155)"
           style="opacity:1">
          <image
             width="455.43149"
             height="607.242"
             preserveAspectRatio="none"
             style="fill:#1a1a1a;image-rendering:optimizeSpeed"
             xlink:href="RAA%5CStock%20Photo%5Chaidan-IOBIgKmjm1Y-unsplash.png"
             id="image2736"
             x="-16.665285"
             y="574.37885"
             transform="matrix(-0.35325924,0.03949242,0.03949242,0.35325924,91.73586,-238.25471)"
             clip-path="url(#clipPath4860)" />
          <g
             id="g2742"
             clip-path="url(#clipPath64512)"
             transform="matrix(0.38970605,0,0,0.38970605,145.55484,-285.98122)">
            <image
               width="354.63052"
               height="236.42036"
               preserveAspectRatio="none"
               style="mix-blend-mode:normal;image-rendering:optimizeSpeed"
               xlink:href="RAA%5CStock%20Photo%5Chaidan-IAwnp88Fz8Y-unsplash.png"
               id="image2740"
               x="-398.48022"
               y="920.09686"
               transform="rotate(0.26824236)" />
          </g>
        </g>
        <g
           id="g3550"
           transform="matrix(1.3119069,0,0,1.3119069,15.666936,90.948109)"
           clip-path="url(#clipPath3554)">
          <image
             width="389.7905"
             height="292.3428"
             preserveAspectRatio="none"
             style="mix-blend-mode:normal;image-rendering:optimizeSpeed"
             xlink:href="RAA%5CStock%20Photo%5Cryan-pradipta-putra-MWJ7JpFBlGk-unsplash.png"
             id="image2726"
             x="-390.9487"
             y="702.18976"
             transform="matrix(-0.47217599,0.03993941,0.03993941,0.47217599,28.806685,-280.36434)"
             clip-path="url(#clipPath23964-7)" />
        </g>
        <path
           style="opacity:1;fill:none;fill-opacity:1;stroke:#ffffff;stroke-width:0.865;stroke-linejoin:bevel;stroke-dasharray:none"
           d="m 119.99536,244.58823 v 60.22756"
           id="path5787" />
        <path
           style="opacity:1;mix-blend-mode:normal;fill:#ffffff;fill-opacity:1;stroke:none;stroke-width:0.865;stroke-linejoin:bevel;stroke-dasharray:none;filter:url(#filter6091)"
           d="M 199.6077,160.59643 V 275.0295 c 0,0 0.94111,13.82504 -7.98188,13.82504 -8.923,0 -170.169617,0 -170.169617,0 0,0 -12.436199,2.06571 -12.436199,-7.18003 0,-9.24576 0,-123.67884 0,-123.67884 L -14.954323,150.19342 -29.258458,230.16654 7.1520676,355.00262 169.69906,346.55019 247.07142,307.53891 237.31861,172.95 Z"
           id="path6089"
           transform="matrix(0.96092408,0,0,0.96092408,4.255621,8.5701249)" />
      </g>
      <g
         id="g4173"
         transform="matrix(1.0705373,0,0,1.0705373,-6.8614517,-140.87836)">
        <text
           xml:space="preserve"
           style="font-size:21.1261px;line-height:1.05;font-family:Aileron;-inkscape-font-specification:Aileron;opacity:1;fill:#000000;stroke:none;stroke-width:0.396114;stroke-linejoin:bevel"
           x="31.623781"
           y="197.46068"
           id="text236"><tspan
             sodipodi:role="line"
             id="tspan234"
             style="font-style:normal;font-variant:normal;font-weight:800;font-stretch:normal;font-family:'Open Sauce Sans';-inkscape-font-specification:'Open Sauce Sans Ultra-Bold';fill:#000000;stroke:none;stroke-width:0.396114"
             x="31.623781"
             y="197.46068">BUKU</tspan><tspan
             sodipodi:role="line"
             style="font-style:normal;font-variant:normal;font-weight:800;font-stretch:normal;font-family:'Open Sauce Sans';-inkscape-font-specification:'Open Sauce Sans Ultra-Bold';fill:#000000;stroke:none;stroke-width:0.396114"
             x="31.623781"
             y="220.45448"
             id="tspan238">PERJALANAN</tspan><tspan
             sodipodi:role="line"
             style="font-style:normal;font-variant:normal;font-weight:800;font-stretch:normal;font-family:'Open Sauce Sans';-inkscape-font-specification:'Open Sauce Sans Ultra-Bold';fill:#000000;stroke:none;stroke-width:0.396114"
             x="31.623781"
             y="243.44829"
             id="tspan240">UMROH</tspan></text>
        <text
           xml:space="preserve"
           style="font-size:6.37364px;line-height:1.05;font-family:Aileron;-inkscape-font-specification:Aileron;opacity:1;fill:#000000;stroke:none;stroke-width:0.119506;stroke-linejoin:bevel"
           x="32.435165"
           y="261.9288"
           id="text508"><tspan
             sodipodi:role="line"
             style="font-style:normal;font-variant:normal;font-weight:bold;font-stretch:normal;font-family:'Open Sauce Sans';-inkscape-font-specification:'Open Sauce Sans Bold';fill:#000000;stroke:none;stroke-width:0.119506"
             x="32.435165"
             y="261.9288"
             id="tspan506">2 Desember - 17 Desember 2022</tspan></text>
        <text
           xml:space="preserve"
           style="font-size:5.78371px;line-height:1.05;font-family:Aileron;-inkscape-font-specification:Aileron;opacity:1;fill:#000000;stroke:none;stroke-width:0.108445;stroke-linejoin:bevel"
           x="32.459942"
           y="252.75299"
           id="text3404"><tspan
             sodipodi:role="line"
             style="font-style:normal;font-variant:normal;font-weight:normal;font-stretch:normal;font-family:'Open Sauce Sans';-inkscape-font-specification:'Open Sauce Sans';fill:#000000;stroke:none;stroke-width:0.108445"
             x="32.459942"
             y="252.75299"
             id="tspan3402">Surabaya-Jeddah Via Batik Air</tspan></text>
      </g>
      <g
         id="g2876"
         transform="matrix(0.24989579,0,0,0.24989579,63.541476,-181.34625)">
        <text
           xml:space="preserve"
           style="font-style:normal;font-variant:normal;font-weight:bold;font-stretch:normal;font-size:5.35813px;line-height:1.1;font-family:'Ballet Harmony';-inkscape-font-specification:'Ballet Harmony Bold';text-align:start;letter-spacing:0.0680352px;text-anchor:start;white-space:pre;inline-size:119.49;display:inline;fill:#1a1a1a;fill-opacity:1;stroke-width:1.16835"
           x="-245.42513"
           y="376.43597"
           id="text2832"
           transform="matrix(4.4728658,0,0,4.4728658,1068.6718,-849.59583)"><tspan
             x="-245.42513"
             y="376.43597"
             id="tspan6233"><tspan
               style="font-weight:900;font-family:'Open Sauce Sans';-inkscape-font-specification:'Open Sauce Sans Heavy'"
               id="tspan6231">FIRMAN CENTER INDONESIA</tspan></tspan></text>
        <g
           id="g2868"
           transform="matrix(2.0123161,0,0,2.0123161,311.28851,779.44756)"
           style="display:inline">
          <path
             style="opacity:1;fill:#ffffff;fill-opacity:1;stroke:none;stroke-width:1"
             d="m -186.84179,15.852422 3.79374,6.232575 -15.98791,-3.387269 z"
             id="path2834" />
          <path
             style="opacity:1;fill:#ffffff;fill-opacity:1;stroke:none;stroke-width:1"
             d="m -213.127,18.833219 h 35.63408 v 23.033434 h -46.60883 l -0.54197,-2.709818 4.20022,-2.709815 -0.27098,-14.091041 z"
             id="path2836" />
          <g
             id="g2866"
             transform="matrix(2.1380426,0,0,2.1380426,202.88624,9.3302757)">
            <path
               style="fill:#ffffff;fill-opacity:1;stroke:none;stroke-width:0.489728;stroke-dasharray:none;stroke-opacity:1"
               d="m -182.80312,14.948633 4.45658,0.543028 0.65539,0.09362 0.1498,-0.636653 -0.0562,-0.749012 -1.36691,-0.823904 c 0,0 -2.0036,-0.842637 -2.13469,-0.805179 -0.13106,0.03745 -1.2733,1.198406 -1.44184,1.516733 -0.16851,0.318326 -0.26215,0.861362 -0.26215,0.861362 z"
               id="path2838" />
            <path
               id="path2840"
               style="fill:#ffffff;fill-opacity:1;stroke:#ffffff;stroke-width:0.0215313"
               sodipodi:type="inkscape:offset"
               inkscape:radius="0.73021293"
               inkscape:original="M 717.38281 -330.58008 C 717.34721 -330.57984 717.31206 -330.57817 717.27734 -330.57617 C 717.0197 -330.55597 716.67051 -330.50534 716.52148 -330.4668 C 716.14667 -330.3699 715.81388 -330.2718 715.66016 -330.21484 C 715.56546 -330.17974 715.41884 -330.12697 715.33594 -330.09766 C 715.25304 -330.06826 715.15083 -330.03153 715.10938 -330.01562 C 715.06787 -329.99973 714.98115 -329.96786 714.91602 -329.94336 C 714.85092 -329.91886 714.69662 -329.85731 714.57227 -329.80859 C 714.20291 -329.66371 713.87561 -329.54956 713.80664 -329.53906 C 713.76894 -329.53306 713.50183 -329.58857 713.16211 -329.67188 C 712.23661 -329.89882 710.6099 -330.28968 710.3457 -330.34961 C 710.15102 -330.39381 709.92812 -330.3544 709.42383 -330.18555 C 709.18764 -330.10635 709.00035 -330.03576 709.00977 -330.02734 C 709.02607 -330.01284 709.68313 -329.71289 710.0293 -329.5625 C 710.1181 -329.5239 710.3997 -329.39827 710.6543 -329.2832 C 710.90891 -329.16814 711.24638 -329.01599 711.40625 -328.94531 C 711.56611 -328.87461 711.7021 -328.81352 711.70703 -328.80859 C 711.72553 -328.79019 711.6821 -328.77005 711.42383 -328.67969 C 711.27814 -328.62879 710.99044 -328.52822 710.7832 -328.45508 C 710.57596 -328.38188 710.24618 -328.26604 710.05078 -328.19727 C 709.85539 -328.12847 709.55838 -328.02407 709.39258 -327.96484 C 707.57774 -327.31653 707.57368 -327.31454 707.48242 -327.31445 C 707.29193 -327.31427 707.14281 -327.48537 706.80859 -328.08789 C 706.55538 -328.54438 706.45738 -328.69238 706.32031 -328.82617 C 706.19341 -328.95002 706.05714 -328.99832 705.91406 -328.9707 C 705.86176 -328.9606 705.81102 -328.95167 705.80078 -328.95117 C 705.78178 -328.95021 705.79518 -328.78905 705.83008 -328.5957 C 705.84888 -328.4915 705.92824 -327.99189 705.99219 -327.57227 C 706.00939 -327.45977 706.04713 -327.20487 706.07812 -327.00586 C 706.10902 -326.80685 706.12935 -326.62976 706.12305 -326.61328 C 706.10135 -326.55668 705.99018 -326.52053 705.25977 -326.33398 C 704.85722 -326.23116 704.52435 -326.14349 704.51953 -326.13867 C 704.51453 -326.13367 704.54755 -326.11435 704.59375 -326.09375 C 704.66515 -326.06195 704.74412 -326.05534 705.11914 -326.05664 C 705.50979 -326.05764 705.96346 -326.08679 706.13672 -326.12109 C 706.18902 -326.13149 706.20062 -326.12424 706.22852 -326.05664 C 706.26512 -325.96914 706.32594 -325.93789 706.71094 -325.80469 C 706.9222 -325.73159 706.97996 -325.7207 707.14062 -325.7207 C 707.31561 -325.7207 707.56045 -325.75755 707.9082 -325.83789 C 708.25778 -325.91869 708.88374 -326.07615 709.28516 -326.18359 C 709.52201 -326.24699 709.81321 -326.32434 709.93164 -326.35547 C 710.24005 -326.43657 711.90052 -326.9072 712.85352 -327.18359 C 713.18172 -327.27879 713.46046 -327.35742 713.47266 -327.35742 C 713.49196 -327.35742 713.9421 -326.8253 714.66406 -325.94727 C 714.78091 -325.80516 714.92837 -325.6258 714.99219 -325.54883 C 715.56485 -324.85817 715.89587 -324.45262 715.92383 -324.41016 L 715.95703 -324.35938 L 715.98633 -324.45312 C 716.07683 -324.75815 716.07592 -325.0991 715.98242 -325.47852 C 715.92442 -325.71363 715.7786 -326.22089 715.72461 -326.37695 C 715.70821 -326.42435 715.64516 -326.62876 715.58398 -326.83008 C 715.52288 -327.0314 715.43484 -327.31436 715.38867 -327.46094 C 715.34247 -327.60751 715.30469 -327.7605 715.30469 -327.79883 C 715.30469 -327.86123 715.31498 -327.87055 715.39648 -327.90039 C 715.44678 -327.91869 715.56542 -327.9507 715.66016 -327.9707 C 716.2242 -328.08967 716.67072 -328.21577 717.10156 -328.375 C 717.35076 -328.4671 717.8884 -328.70378 717.9082 -328.73047 C 717.9142 -328.73947 717.98362 -328.78378 718.06055 -328.83008 C 718.28453 -328.9648 718.46664 -329.11928 718.60156 -329.28906 C 718.80638 -329.54681 718.83917 -329.75534 718.71094 -329.99219 C 718.53536 -330.31652 717.91625 -330.5837 717.38281 -330.58008 z M 715.32617 -324.64453 L 711.16406 -324.63867 L 707.00391 -324.63281 L 706.83203 -324.58594 C 706.57709 -324.51634 706.42114 -324.4564 706.23047 -324.35742 C 705.897 -324.18432 705.51436 -323.87284 705.26367 -323.57031 C 704.89773 -323.1287 704.6791 -322.68809 704.58203 -322.19336 C 704.56873 -322.12546 704.56055 -321.71347 704.56055 -321.17578 L 704.56055 -320.27344 L 705.96875 -320.27344 C 707.2328 -320.27344 707.37694 -320.27554 707.38867 -320.30664 C 707.39567 -320.32534 707.40234 -320.50739 707.40234 -320.71094 C 707.40234 -321.01641 707.40991 -321.10839 707.44531 -321.23828 C 707.53291 -321.55448 707.71281 -321.81664 707.97852 -322.01562 C 708.16196 -322.15301 708.3076 -322.22297 708.51562 -322.27539 C 708.67745 -322.31619 708.78176 -322.31806 712.00391 -322.31836 L 715.32617 -322.31836 L 715.32617 -323.48242 L 715.32617 -324.64453 z M 716.70312 -324.64453 L 716.70312 -323.48047 L 716.70312 -322.31836 L 717.96875 -322.32422 L 719.23242 -322.33008 L 719.24023 -323.43945 C 719.24323 -324.04932 719.23891 -324.56906 719.23242 -324.5957 L 719.22266 -324.64453 L 717.96289 -324.64453 L 716.70312 -324.64453 z M 699.17188 -324.62305 C 695.66301 -324.62302 695.04866 -324.61684 694.89453 -324.58984 C 694.28065 -324.48181 693.70433 -324.16721 693.23047 -323.68164 C 692.86418 -323.3063 692.62717 -322.92982 692.48047 -322.49023 C 692.40677 -322.26935 692.3842 -322.19485 692.37695 -320.92383 C 692.37395 -320.36452 692.37405 -319.57583 692.37305 -318.4375 L 692.37305 -314.95508 L 693.73047 -314.95508 L 695.08594 -314.95508 L 695.08594 -316.78516 L 695.08594 -318.61523 L 699.0918 -318.61523 L 703.0957 -318.61523 L 703.0957 -319.75391 L 703.0957 -320.89453 L 703.03711 -320.9043 C 703.00451 -320.9103 701.27915 -320.91216 699.20508 -320.91016 C 697.13101 -320.90816 695.35579 -320.9103 695.25977 -320.91406 L 695.08594 -320.92383 L 695.08594 -321.25 C 695.08594 -321.61891 695.10911 -321.72969 695.22852 -321.94531 C 695.35241 -322.16896 695.58366 -322.33495 695.83789 -322.38281 C 695.91339 -322.39701 697.23005 -322.4043 699.61133 -322.4043 L 703.26758 -322.4043 L 703.26758 -323.51367 L 703.26758 -324.62109 L 699.17188 -324.62305 z M 716.70312 -321.52148 L 716.70312 -318.24805 L 716.70312 -314.97656 L 717.97461 -314.97656 L 719.24414 -314.97656 L 719.24414 -318.24805 L 719.24414 -321.52148 L 717.97461 -321.52148 L 716.70312 -321.52148 z M 704.53516 -319.34766 L 704.54492 -318.38281 C 704.55552 -317.36205 704.56424 -317.25509 704.66992 -316.9375 C 704.90904 -316.21894 705.5717 -315.60312 706.4707 -315.26367 C 706.76573 -315.15226 707.14984 -315.07092 707.55273 -315.0332 C 707.59413 -315.0292 709.36556 -315.02474 711.48828 -315.02344 L 715.34766 -315.01953 L 715.34766 -316.20312 L 715.34766 -317.38867 L 711.8418 -317.38867 C 707.94222 -317.38867 708.20286 -317.37768 707.95117 -317.53516 C 707.71063 -317.68547 707.47953 -318.04799 707.42578 -318.35938 C 707.41238 -318.43727 707.40234 -318.69091 707.40234 -318.92383 L 707.40234 -319.34766 L 705.96875 -319.34766 L 704.53516 -319.34766 z M 716.56445 -313.73047 C 716.39214 -313.74057 716.23536 -313.6772 716.13477 -313.55078 C 716.07497 -313.47538 716.06836 -313.45364 716.06836 -313.30859 C 716.06836 -313.15953 716.07207 -313.14638 716.13477 -313.08398 C 716.17757 -313.04128 716.26991 -312.9932 716.39258 -312.94922 C 716.53997 -312.89632 716.59169 -312.86575 716.61719 -312.82031 C 716.65549 -312.75221 716.63483 -312.70515 716.54883 -312.65625 C 716.47103 -312.61205 716.34965 -312.64217 716.25195 -312.73047 C 716.20685 -312.77117 716.1653 -312.80469 716.1582 -312.80469 C 716.1512 -312.80469 716.11176 -312.74535 716.06836 -312.67383 C 716.00276 -312.56591 715.99302 -312.53892 716.01562 -312.51172 C 716.05943 -312.45902 716.23035 -312.36796 716.31445 -312.35156 C 716.58165 -312.29936 716.81185 -312.38348 716.91797 -312.57227 C 717.01647 -312.74757 716.97028 -313.04593 716.83398 -313.11523 C 716.80298 -313.13093 716.70985 -313.16626 716.62695 -313.19336 C 716.40172 -313.26696 716.34222 -313.34307 716.44922 -313.41797 C 716.51662 -313.46527 716.59441 -313.45834 716.70703 -313.39844 L 716.80469 -313.34766 L 716.85938 -313.48047 C 716.92178 -313.63254 716.91989 -313.63441 716.74023 -313.69531 C 716.68113 -313.71531 716.62189 -313.72717 716.56445 -313.73047 z M 701.10352 -313.71875 C 700.93607 -313.71845 700.89498 -313.71151 700.80078 -313.66211 C 700.66982 -313.59351 700.54537 -313.45988 700.48438 -313.32422 C 700.43178 -313.20728 700.42019 -312.93121 700.46289 -312.79297 C 700.52419 -312.59438 700.74249 -312.39552 700.94336 -312.35352 L 700.94336 -312.35156 C 701.06114 -312.32696 701.24816 -312.34096 701.36328 -312.38086 L 701.44922 -312.41016 L 701.45508 -312.60742 C 701.45808 -312.71577 701.45376 -312.80273 701.44336 -312.80273 C 701.43286 -312.80273 701.40577 -312.78502 701.38477 -312.76172 C 701.36377 -312.73842 701.30418 -312.70349 701.25195 -312.68359 C 701.17095 -312.65319 701.14391 -312.65123 701.06641 -312.67383 C 700.83498 -312.74203 700.73747 -312.99917 700.85547 -313.23047 C 700.95437 -313.42425 701.23927 -313.46385 701.38281 -313.30273 C 701.40531 -313.27743 701.43141 -313.25586 701.44141 -313.25586 C 701.45161 -313.25586 701.45898 -313.34395 701.45898 -313.45117 L 701.45898 -313.64648 L 701.37891 -313.68164 C 701.32181 -313.70754 701.24056 -313.71905 701.10352 -313.71875 z M 712.51562 -313.71875 C 712.28634 -313.71913 712.17641 -313.67781 712.01953 -313.5332 C 711.86183 -313.38782 711.80764 -313.26159 711.80664 -313.04102 C 711.80584 -312.89896 711.81471 -312.83587 711.84961 -312.75977 C 711.94051 -312.563 712.10797 -312.42168 712.31641 -312.36328 C 712.63823 -312.27308 712.99768 -312.43374 713.15234 -312.73633 C 713.19694 -312.82263 713.20528 -312.86701 713.20508 -313.04102 C 713.20476 -313.27978 713.16637 -313.37321 713.00977 -313.52539 C 712.85663 -313.67419 712.74356 -313.71837 712.51562 -313.71875 z M 710.41602 -313.71484 L 710.41602 -313.04883 C 710.41602 -312.68218 710.42078 -312.37805 710.42578 -312.37305 C 710.44998 -312.34875 711.08022 -312.37565 711.18359 -312.40625 C 711.43931 -312.48055 711.59759 -312.68659 711.61719 -312.97266 C 711.63319 -313.2056 711.58669 -313.35764 711.45898 -313.49414 C 711.30083 -313.66316 711.20351 -313.69328 710.77734 -313.70508 L 710.41602 -313.71484 z M 694.05273 -313.71289 L 694.05273 -313.04297 L 694.05273 -312.37305 L 694.22461 -312.37305 L 694.39648 -312.37305 L 694.40234 -312.61523 L 694.4082 -312.85547 L 694.54883 -312.61523 L 694.6875 -312.375 L 694.88086 -312.36914 L 694.88281 -312.36914 C 694.98939 -312.36614 695.0828 -312.36563 695.0918 -312.36914 C 695.1008 -312.37314 695.02674 -312.49614 694.92773 -312.64258 C 694.7568 -312.89536 694.75027 -312.90822 694.79688 -312.91992 C 694.87037 -312.93832 694.98047 -313.03964 695.01367 -313.11914 C 695.07037 -313.25474 695.04132 -313.45653 694.94922 -313.56055 C 694.8447 -313.67857 694.7814 -313.69608 694.40234 -313.70508 L 694.05273 -313.71289 z M 706.39062 -313.71289 L 706.39062 -313.03711 L 706.39062 -312.36328 L 706.5625 -312.37109 L 706.73242 -312.37695 L 706.73828 -312.61523 L 706.74609 -312.85352 L 706.88086 -312.61523 L 707.01758 -312.37695 L 707.22266 -312.36914 C 707.33516 -312.36514 707.43155 -312.36609 707.43555 -312.37109 C 707.43955 -312.37609 707.36486 -312.49635 707.26758 -312.63867 C 707.16008 -312.79599 707.09953 -312.90125 707.11523 -312.90625 C 707.16933 -312.92505 707.28197 -313.01191 707.32227 -313.06641 C 707.40817 -313.18249 707.38971 -313.43653 707.28711 -313.56055 C 707.19091 -313.67677 707.12018 -313.69608 706.74023 -313.70508 L 706.39062 -313.71289 z M 692.37305 -313.70898 L 692.37305 -313.04297 C 692.37305 -312.63072 692.38133 -312.37728 692.39453 -312.37109 C 692.40613 -312.36709 692.48703 -312.36709 692.57617 -312.37109 L 692.74023 -312.37891 L 692.74023 -312.63477 L 692.74023 -312.89062 L 692.94922 -312.89648 L 693.1582 -312.90234 L 693.1582 -313.04297 L 693.1582 -313.18164 L 692.94922 -313.1875 L 692.74023 -313.19336 L 692.74023 -313.30078 L 692.74023 -313.4082 L 692.96484 -313.4082 L 693.19141 -313.4082 L 693.19141 -313.55859 L 693.19141 -313.70898 L 692.78125 -313.70898 L 692.37305 -313.70898 z M 693.38477 -313.70898 L 693.38477 -313.03516 L 693.38477 -312.36328 L 693.56641 -312.37109 L 693.75 -312.37695 L 693.75586 -313.00781 C 693.75886 -313.35437 693.75986 -313.65413 693.75586 -313.67383 C 693.74986 -313.70363 693.71841 -313.70898 693.56641 -313.70898 L 693.38477 -313.70898 z M 695.53711 -313.70898 C 695.34833 -313.70898 695.34375 -313.7078 695.34375 -313.6582 C 695.34375 -313.6304 695.30627 -313.3614 695.25977 -313.06055 C 695.18397 -312.57047 695.16292 -312.4088 695.16992 -312.375 C 695.17092 -312.369 695.24385 -312.36328 695.33203 -312.36328 L 695.49414 -312.36328 L 695.51367 -312.50391 C 695.53297 -312.63143 695.55435 -312.77623 695.59375 -313.07422 C 695.60795 -313.18174 695.60726 -313.18044 695.71875 -312.78906 C 695.78015 -312.57353 695.83384 -312.39367 695.83984 -312.38867 C 695.85704 -312.37257 696.05167 -312.35759 696.07227 -312.37109 C 696.08877 -312.38189 696.19307 -312.72017 696.29297 -313.08398 L 696.32031 -313.18164 L 696.34766 -312.9668 C 696.40786 -312.49178 696.4284 -312.37505 696.45117 -312.37305 C 696.50707 -312.36905 696.75572 -312.37887 696.76172 -312.38477 C 696.76972 -312.39277 696.65483 -313.18113 696.58203 -313.61719 L 696.56641 -313.70898 L 696.38672 -313.70898 L 696.20703 -313.70898 L 696.16602 -313.57422 C 696.14352 -313.50022 696.08979 -313.31524 696.04492 -313.16406 L 695.96289 -312.89062 L 695.84766 -313.2832 C 695.78466 -313.49951 695.73276 -313.68436 695.73242 -313.69336 C 695.73209 -313.70236 695.64566 -313.70898 695.53906 -313.70898 L 695.53711 -313.70898 z M 697.27148 -313.70898 L 697.18164 -313.44531 C 697.13224 -313.30024 697.03284 -313.01016 696.96094 -312.80078 C 696.88914 -312.59178 696.8303 -312.40876 696.83008 -312.39258 C 696.83074 -312.37108 696.87313 -312.36419 697.00586 -312.36719 L 697.18359 -312.37109 L 697.21484 -312.48047 L 697.24414 -312.5918 L 697.50586 -312.58594 L 697.76562 -312.57812 L 697.79883 -312.4707 L 697.83203 -312.36328 L 697.99805 -312.36523 C 698.08955 -312.36593 698.16978 -312.37055 698.17578 -312.37695 C 698.18668 -312.38785 698.05935 -312.77299 697.84375 -313.38477 C 697.78355 -313.55574 697.73438 -313.69717 697.73438 -313.70117 C 697.73438 -313.70517 697.62935 -313.70898 697.50195 -313.70898 L 697.27148 -313.70898 z M 698.31641 -313.70898 L 698.31641 -313.04102 L 698.31641 -312.375 L 698.47266 -312.36914 C 698.55856 -312.36514 698.642 -312.36609 698.6582 -312.37109 C 698.682 -312.37809 698.68473 -312.45735 698.67773 -312.79883 C 698.67173 -313.09454 698.67736 -313.20854 698.69336 -313.18164 C 698.74266 -313.09734 698.88796 -312.87857 698.91016 -312.85547 C 698.92316 -312.84197 699.0058 -312.72875 699.09375 -312.60352 L 699.25391 -312.375 L 699.44141 -312.375 L 699.62891 -312.37305 L 699.62891 -313.04102 L 699.62891 -313.70898 L 699.44531 -313.70898 L 699.26172 -313.70898 L 699.26758 -313.27734 C 699.27058 -313.04048 699.27253 -312.84765 699.26953 -312.84766 C 699.26653 -312.84766 699.2422 -312.88915 699.2168 -312.93945 C 699.1913 -312.98975 699.12526 -313.08906 699.07031 -313.16016 C 699.01531 -313.23126 698.90447 -313.38259 698.82227 -313.49805 L 698.67188 -313.70898 L 698.49414 -313.70898 L 698.31641 -313.70898 z M 701.65234 -313.70898 L 701.65234 -313.04102 L 701.65234 -312.375 L 702.06641 -312.375 L 702.48242 -312.375 L 702.48242 -312.52539 L 702.48242 -312.67578 L 702.25 -312.67578 L 702.01953 -312.67578 L 702.01953 -312.7832 L 702.01953 -312.89062 L 702.23438 -312.89062 L 702.44922 -312.89062 L 702.44922 -313.04102 L 702.44922 -313.19141 L 702.23438 -313.19141 L 702.01953 -313.19141 L 702.01953 -313.30078 L 702.01953 -313.4082 L 702.24609 -313.4082 L 702.4707 -313.4082 L 702.4707 -313.55859 L 702.4707 -313.70898 L 702.0625 -313.70898 L 701.65234 -313.70898 z M 702.70898 -313.70898 L 702.70898 -313.04102 L 702.70898 -312.37305 L 702.89453 -312.37305 L 703.08008 -312.37305 L 703.07031 -312.80078 L 703.0625 -313.22852 L 703.11523 -313.14062 C 703.14383 -313.09182 703.27758 -312.89891 703.41211 -312.71289 L 703.65625 -312.375 L 703.82227 -312.36914 L 703.82422 -312.36914 C 703.91562 -312.36514 703.99686 -312.36562 704.00586 -312.36914 C 704.01486 -312.37314 704.02148 -312.67656 704.02148 -313.04297 L 704.02148 -313.70898 L 703.83789 -313.70898 L 703.65234 -313.70898 L 703.66016 -313.2793 L 703.66602 -312.84961 L 703.62305 -312.92969 C 703.59935 -312.97449 703.46505 -313.16769 703.32422 -313.35938 L 703.06836 -313.70898 L 702.88867 -313.70898 L 702.70898 -313.70898 z M 705.33398 -313.70898 L 705.33398 -313.04102 L 705.33398 -312.375 L 705.72852 -312.36914 C 705.94464 -312.36614 706.12967 -312.36758 706.13867 -312.37109 C 706.14767 -312.37509 706.1543 -312.44322 706.1543 -312.52539 L 706.1543 -312.67578 L 705.91797 -312.67578 L 705.67969 -312.67578 L 705.67969 -312.7832 L 705.67969 -312.88867 L 705.90039 -312.89453 L 706.12109 -312.90234 L 706.12109 -313.04102 L 706.12109 -313.18164 L 705.90625 -313.19141 L 705.69141 -313.20312 L 705.68359 -313.30469 L 705.67773 -313.4082 L 705.91602 -313.4082 L 706.15234 -313.4082 L 706.15234 -313.55859 L 706.15234 -313.70898 L 705.74414 -313.70898 L 705.33398 -313.70898 z M 708.17773 -313.70898 L 708.17773 -313.04102 L 708.17773 -312.375 L 708.34375 -312.36719 C 708.43555 -312.36319 708.51834 -312.35787 708.52734 -312.35547 C 708.53634 -312.35347 708.54297 -312.65627 708.54297 -313.0293 L 708.54297 -313.70898 L 708.35938 -313.70898 L 708.17773 -313.70898 z M 708.8457 -313.70898 L 708.8457 -313.04102 L 708.8457 -312.375 L 709.01172 -312.36914 L 709.17773 -312.36328 L 709.18945 -312.79492 C 709.19545 -313.05051 709.2065 -313.20603 709.2168 -313.17773 C 709.2268 -313.15153 709.35579 -312.9606 709.50391 -312.75586 L 709.77344 -312.38477 L 709.95508 -312.37305 L 710.13672 -312.36328 L 710.13672 -313.03516 L 710.13672 -313.70898 L 709.96484 -313.70898 L 709.79102 -313.70898 L 709.79102 -313.27539 L 709.79102 -312.8418 L 709.73242 -312.94922 C 709.69982 -313.00822 709.56582 -313.20205 709.43555 -313.38086 L 709.19922 -313.70703 L 709.02148 -313.70703 L 708.8457 -313.70898 z M 713.45312 -313.70898 L 713.45312 -313.03516 L 713.45312 -312.36328 L 713.625 -312.36328 L 713.79688 -312.36328 L 713.79688 -312.79492 L 713.79688 -313.22461 L 713.8418 -313.14844 C 713.8667 -313.10704 714.00098 -312.91705 714.13867 -312.72461 L 714.38867 -312.375 L 714.56641 -312.375 L 714.74414 -312.375 L 714.74414 -313.04102 L 714.74414 -313.70898 L 714.57227 -313.70898 L 714.40039 -313.70898 L 714.40039 -313.28516 L 714.40039 -312.86133 L 714.33008 -312.97266 C 714.29158 -313.03456 714.15755 -313.22548 714.0332 -313.39648 L 713.80859 -313.70703 L 713.63086 -313.70898 L 713.45312 -313.70898 z M 715.02344 -313.70898 L 715.02344 -313.04492 C 715.02344 -312.67979 715.02826 -312.37614 715.03516 -312.36914 L 715.03516 -312.36719 C 715.04216 -312.36119 715.06408 -312.35928 715.08398 -312.36328 C 715.10388 -312.36728 715.28791 -312.37009 715.49219 -312.37109 L 715.86328 -312.37305 L 715.86328 -312.52539 L 715.86328 -312.67578 L 715.62695 -312.67578 L 715.39062 -312.67578 L 715.39062 -312.7832 L 715.39062 -312.89062 L 715.60547 -312.89062 L 715.82031 -312.89062 L 715.82031 -313.04102 L 715.82031 -313.19141 L 715.60547 -313.19141 L 715.39062 -313.19141 L 715.39062 -313.30078 L 715.39062 -313.4082 L 715.62695 -313.4082 L 715.86328 -313.4082 L 715.86328 -313.55859 L 715.86328 -313.70898 L 715.44336 -313.70898 L 715.02344 -313.70898 z M 717.17773 -313.70898 L 717.17773 -313.04102 L 717.17773 -312.375 L 717.37109 -312.375 L 717.56445 -312.375 L 717.56445 -313.04102 L 717.56445 -313.70898 L 717.37109 -313.70898 L 717.17773 -313.70898 z M 718.60938 -313.70898 L 718.37305 -313.70312 C 718.14269 -313.69713 718.13835 -313.69753 718.12305 -313.64453 C 718.11015 -313.59993 717.85434 -312.8592 717.72852 -312.50195 C 717.70982 -312.44865 717.69551 -312.39862 717.69531 -312.39062 C 717.69513 -312.38263 717.77344 -312.37214 717.87109 -312.36914 L 718.04883 -312.36328 L 718.08203 -312.4707 L 718.11523 -312.57812 L 718.37695 -312.58398 L 718.63672 -312.58984 L 718.66406 -312.48242 L 718.69141 -312.37695 L 718.87109 -312.36914 C 718.98082 -312.36514 719.05056 -312.36931 719.05078 -312.38281 C 719.05091 -312.39461 718.95164 -312.69818 718.83008 -313.05664 L 718.60938 -313.70898 z M 704.19336 -313.70703 L 704.19336 -313.54688 L 704.19336 -313.38672 L 704.33789 -313.38086 L 704.48438 -313.375 L 704.49023 -312.86914 L 704.49609 -312.36133 L 704.67773 -312.36914 L 704.86133 -312.37695 L 704.86133 -312.88086 L 704.86133 -313.38477 L 705.01172 -313.38477 L 705.16211 -313.38477 L 705.16211 -313.54688 L 705.16211 -313.70703 L 704.67773 -313.70703 L 704.19336 -313.70703 z M 697.50195 -313.46094 L 697.58594 -313.18164 C 697.63174 -313.02769 697.66972 -312.89377 697.66992 -312.88477 C 697.67017 -312.87577 697.59662 -312.86914 697.50781 -312.86914 C 697.31932 -312.86914 697.32374 -312.85914 697.39844 -313.09961 C 697.42724 -313.19201 697.46256 -313.30998 697.47656 -313.36328 L 697.50195 -313.46094 z M 718.36719 -313.44531 C 718.37019 -313.44431 718.37631 -313.43437 718.38281 -313.41797 C 718.41691 -313.33697 718.5332 -312.9391 718.5332 -312.9043 C 718.5332 -312.8755 718.50534 -312.86914 718.37109 -312.86914 C 718.28229 -312.86914 718.21094 -312.87577 718.21094 -312.88477 C 718.21104 -312.89377 718.24376 -313.01172 718.28516 -313.14648 C 718.32666 -313.28123 718.36248 -313.40658 718.36328 -313.42578 C 718.36388 -313.43908 718.36419 -313.44651 718.36719 -313.44531 z M 694.44727 -313.42969 C 694.52727 -313.42969 694.63325 -313.3848 694.65625 -313.3418 C 694.68135 -313.2957 694.68306 -313.1922 694.66016 -313.1582 C 694.65116 -313.1451 694.62356 -313.12297 694.59766 -313.10938 C 694.57176 -313.09578 694.51487 -313.08398 694.47266 -313.08398 L 694.39648 -313.08398 L 694.39648 -313.25586 C 694.39648 -313.42211 694.39857 -313.42969 694.44727 -313.42969 z M 706.78516 -313.42969 C 706.86516 -313.42969 706.97114 -313.3848 706.99414 -313.3418 C 707.01924 -313.2957 707.02035 -313.1922 706.99805 -313.1582 C 706.98905 -313.1452 706.96145 -313.12298 706.93555 -313.10938 C 706.90965 -313.09568 706.85278 -313.08398 706.81055 -313.08398 L 706.73438 -313.08398 L 706.73438 -313.25586 C 706.73438 -313.42211 706.73646 -313.42969 706.78516 -313.42969 z M 710.78125 -313.41406 L 710.91602 -313.40039 C 711.05677 -313.38589 711.12502 -313.34936 711.19922 -313.25 C 711.23272 -313.2047 711.24414 -313.15797 711.24414 -313.04102 C 711.24414 -312.88115 711.21385 -312.81813 711.10352 -312.73633 C 711.07362 -312.71423 710.99272 -312.69159 710.91602 -312.68359 L 710.78125 -312.66992 L 710.78125 -313.04102 L 710.78125 -313.41406 z M 712.54883 -313.4043 C 712.60053 -313.40347 712.63056 -313.39233 712.67578 -313.36133 C 712.79065 -313.28243 712.8301 -313.21309 712.8418 -313.07227 C 712.8547 -312.91769 712.79417 -312.77923 712.67969 -312.70312 C 712.52981 -312.60352 712.3048 -312.66728 712.2168 -312.83594 C 712.1578 -312.94937 712.15624 -313.13435 712.21484 -313.23438 C 712.27854 -313.34316 712.35892 -313.39194 712.48828 -313.40234 C 712.51168 -313.40434 712.53163 -313.4043 712.54883 -313.4043 z "
               d="m 717.37695,-331.31055 c -0.11865,0.002 -0.12098,0.007 -0.15625,0.006 -0.30117,0.0236 -0.61618,0.0619 -0.88281,0.13086 -0.38903,0.10058 -0.71209,0.19209 -0.93164,0.27344 -0.088,0.0326 -0.23614,0.0875 -0.31445,0.11523 -0.0853,0.0302 -0.17878,0.0628 -0.24414,0.0879 -0.0288,0.011 -0.11972,0.0441 -0.18946,0.0703 -0.0864,0.0325 -0.23067,0.0913 -0.35156,0.13867 a 0.73028595,0.73028595 0 0 0 -0.002,0 c -0.17712,0.0695 -0.34491,0.13162 -0.47071,0.17578 -0.0682,0.024 -0.0363,0.0173 -0.0742,0.0273 -0.006,-0.001 -0.007,-6.1e-4 -0.0137,-0.002 -0.10045,-0.0208 -0.24685,-0.0537 -0.41015,-0.0937 -0.92937,-0.22789 -2.52656,-0.61323 -2.82813,-0.68164 -0.40342,-0.0916 -0.78312,0.005 -1.3164,0.18359 a 0.73028595,0.73028595 0 0 0 0,0.002 c -0.12494,0.0419 -0.23602,0.0809 -0.32618,0.11523 -0.0451,0.0172 -0.0816,0.0313 -0.1289,0.0527 -0.0236,0.0107 -0.0461,0.0181 -0.10547,0.0547 -0.0148,0.009 -0.032,0.0206 -0.0566,0.0391 -0.0246,0.0184 -0.10306,0.0933 -0.10352,0.0937 -2.2e-4,2.5e-4 -0.0819,0.10915 -0.082,0.10937 -1.3e-4,2.2e-4 -0.0918,0.22442 -0.0918,0.22461 -5e-5,1.9e-4 0.0175,0.38265 0.0176,0.38281 5e-5,1.6e-4 0.20884,0.32214 0.20899,0.32227 a 0.73028595,0.73028595 0 0 0 0.002,0 c 2.6e-4,2.2e-4 0.0736,0.0598 0.0898,0.0703 0.0163,0.0105 0.0252,0.0149 0.0332,0.0195 0.016,0.009 0.0251,0.0133 0.0332,0.0176 0.0163,0.009 0.0276,0.0149 0.041,0.0215 0.0268,0.0131 0.0571,0.0277 0.0937,0.0449 0.0733,0.0344 0.17096,0.0784 0.27734,0.12695 0.21276,0.0971 0.46358,0.21045 0.64453,0.28906 0.005,0.002 0.0326,0.0148 0.0391,0.0176 -0.19442,0.0684 -0.46895,0.16482 -0.63086,0.22266 -0.85503,0.30544 -1.261,0.44898 -1.5,0.53125 -0.0545,-0.0811 -0.0945,-0.13159 -0.19921,-0.32032 -0.25951,-0.46783 -0.41199,-0.70791 -0.61719,-0.9082 -0.24599,-0.24007 -0.67133,-0.41189 -1.05469,-0.33789 -0.0223,0.004 -0.0446,0.007 -0.0586,0.01 -0.0134,0.002 -0.0775,0.004 0.0469,-0.002 -5.9e-4,3e-5 -0.35689,0.11294 -0.35742,0.11328 -5.3e-4,3.4e-4 -0.1968,0.18491 -0.19727,0.18555 -4.6e-4,6.4e-4 -0.0652,0.10399 -0.082,0.14258 -0.0168,0.0386 -0.0277,0.0695 -0.0351,0.0957 -0.0298,0.10481 -0.0275,0.14671 -0.0293,0.18555 -0.004,0.0777 0.002,0.12186 0.006,0.17187 0.008,0.10002 0.0221,0.20286 0.043,0.31836 0.0101,0.0562 0.0948,0.5879 0.1582,1.00391 a 0.73028595,0.73028595 0 0 0 0,0.002 c 0.0102,0.0668 0.0344,0.21968 0.0547,0.35352 -0.0947,0.025 -0.10958,0.0315 -0.2461,0.0664 -0.20273,0.0518 -0.38647,0.0987 -0.52343,0.13477 -0.0685,0.0181 -0.12511,0.0331 -0.16797,0.0449 -0.0214,0.006 -0.0378,0.012 -0.0566,0.0176 -0.009,0.003 -0.0197,0.004 -0.0371,0.01 -0.009,0.003 -0.0178,0.006 -0.041,0.0156 -0.0116,0.005 -0.0544,0.0233 -0.0547,0.0234 -1.2e-4,6e-5 -0.0605,0.0351 -0.0606,0.0351 -8e-5,5e-5 -0.13278,0.10544 -0.13281,0.10547 -1.6e-4,1.6e-4 -0.15031,0.21662 -0.15039,0.2168 -9e-5,1.8e-4 -0.0644,0.26151 -0.0645,0.26172 -10e-6,2.1e-4 0.0214,0.21656 0.0215,0.2168 6e-5,2.3e-4 0.0526,0.14427 0.0527,0.14453 2.6e-4,5.2e-4 0.0721,0.11987 0.0996,0.15234 0.0275,0.0325 0.0499,0.0535 0.0684,0.0703 0.0738,0.0672 0.10256,0.0788 0.13086,0.0957 0.0566,0.0339 0.0932,0.0498 0.13477,0.0684 a 0.73028595,0.73028595 0 0 0 0,0.002 c 0.10992,0.049 0.27302,0.0831 0.39257,0.0918 0.11956,0.009 0.23967,0.008 0.43164,0.008 0.29637,-7.6e-4 0.5493,-0.029 0.80664,-0.0547 0.0289,0.0215 0.0486,0.0667 0.0742,0.0801 0.10595,0.0552 0.21492,0.0898 0.32617,0.1289 -0.14504,0.0524 -0.30095,0.0972 -0.43359,0.16602 -0.44866,0.23289 -0.86686,0.57474 -1.19336,0.96875 -0.359,0.43323 -0.55722,0.92546 -0.70312,1.43164 v -0.9082 -1.10742 a 0.73028595,0.73028595 0 0 0 -0.73047,-0.73047 l -4.0957,-0.002 c -1.75487,2e-5 -2.78551,9e-4 -3.40235,0.006 -0.61683,0.005 -0.77179,-0.001 -1.00195,0.0391 -0.77537,0.13645 -1.4901,0.53264 -2.06055,1.11718 -0.42679,0.43734 -0.73809,0.92585 -0.91992,1.47071 -0.0376,0.11259 -0.0922,0.31607 -0.11133,0.56445 -0.0191,0.24838 -0.0257,0.58876 -0.0293,1.22852 -0.003,0.56307 -0.003,1.35224 -0.004,2.49023 v 3.48242 a 0.73028595,0.73028595 0 0 0 0.62304,0.62305 0.73028595,0.73028595 0 0 0 -0.62304,0.62305 v 0.66601 c 0,0.21102 0.002,0.38226 0.006,0.51172 0.002,0.0647 0.005,0.11674 0.01,0.17187 0.002,0.0276 0.005,0.0537 0.0137,0.10352 0.004,0.0249 0.007,0.0533 0.0293,0.11719 0.0109,0.0319 0.064,0.13995 0.0644,0.14062 2.1e-4,3.4e-4 0.0955,0.12674 0.0957,0.12696 2e-4,2.1e-4 0.22245,0.16201 0.22265,0.16211 a 0.73028595,0.73028595 0 0 0 0.0723,0.0273 c 7.2e-4,2.5e-4 0.0915,0.0271 0.11523,0.0312 0.0237,0.004 0.0396,0.004 0.0527,0.006 0.0262,0.003 0.042,0.005 0.0566,0.006 0.0293,0.001 0.0524,0 0.0762,0 0.0476,0 0.0979,-0.001 0.15235,-0.004 a 0.73028595,0.73028595 0 0 0 0.002,0 l 0.16406,-0.008 a 0.73028595,0.73028595 0 0 0 0.1582,-0.16602 0.73028595,0.73028595 0 0 0 0.48243,0.1836 l 0.17773,-0.008 0.17969,-0.006 a 0.73028595,0.73028595 0 0 0 0.13672,-0.13868 0.73028595,0.73028595 0 0 0 0.14257,0.14258 h 0.17188 0.17187 a 0.73028595,0.73028595 0 0 0 0.10352,-0.10156 0.73028595,0.73028595 0 0 0 0.16602,0.0996 l 0.19336,0.006 a 0.73028595,0.73028595 0 0 0 0.0215,0 c 0.0503,0.001 0.10035,0.002 0.14258,0.002 0.024,4e-5 0.0452,9.2e-4 0.0723,0 0.0135,-4.6e-4 0.0275,-0.002 0.0527,-0.004 0.004,3.2e-4 0.0113,0.002 0.0156,0.002 0.055,0.004 0.10809,0.006 0.16797,0.006 h 0.16211 a 0.73028595,0.73028595 0 0 0 0.084,-0.0742 c 0.0348,0.0137 0.0618,0.0237 0.082,0.0293 0.0471,0.0129 0.0752,0.0172 0.10156,0.0215 0.0526,0.009 0.0932,0.0123 0.13672,0.0156 0.0436,0.003 0.0851,0.006 0.13867,0.006 0.0268,-3e-4 0.0553,-0.002 0.10351,-0.008 0.0241,-0.003 0.0535,-0.006 0.0996,-0.0176 0.0102,-0.002 0.0267,-0.008 0.0391,-0.0117 0.0538,0.0132 0.10707,0.0254 0.10742,0.0254 a 0.73028595,0.73028595 0 0 0 0.0117,0.002 c 0.14726,0.0105 0.17373,0.001 0.2539,-0.002 0.0367,-0.001 0.0718,-0.002 0.10547,-0.004 8.7e-4,1.2e-4 0.003,0.002 0.004,0.002 0.1224,0.0181 0.17902,0.0136 0.25976,0.0117 l 0.17774,-0.004 a 0.73028595,0.73028595 0 0 0 0.2793,-0.21485 l -0.20704,-0.006 c 8e-5,-5e-5 0.002,-0.002 0.002,-0.002 a 0.73028595,0.73028595 0 0 0 0.004,-0.006 c 2e-5,-2e-5 0.0425,-0.0603 0.082,-0.11524 a 0.73028595,0.73028595 0 0 0 0.14648,0.10743 0.73028595,0.73028595 0 0 0 0.32031,-0.24805 0.73028595,0.73028595 0 0 0 0.0391,0.041 l -0.0625,0.23437 -0.26562,-0.006 a 0.73028595,0.73028595 0 0 0 0.30273,0.22266 l 0.16407,-0.002 c 0.0564,-4.3e-4 0.10901,-0.002 0.16211,-0.006 0.0265,-0.002 0.0508,-0.002 0.0918,-0.008 0.005,-7.3e-4 0.0174,-0.003 0.0234,-0.004 a 0.73028595,0.73028595 0 0 0 0.008,0.008 l 0.15625,0.006 -0.006,-0.002 c 0.0566,0.003 0.10889,0.004 0.16016,0.004 0.0256,-2.8e-4 0.0507,5e-5 0.082,-0.002 0.0304,-0.002 0.0344,0.0124 0.18555,-0.0332 0.06,-0.0182 0.0842,-0.0685 0.13672,-0.10156 a 0.73028595,0.73028595 0 0 0 0.25,0.12891 h 0.18359 l 0.18359,0.002 a 0.73028595,0.73028595 0 0 0 0.55469,-0.28906 c 0.16312,0.13791 0.35975,0.23914 0.61719,0.29297 a 0.73028595,0.73028595 0 0 0 0.002,0.002 c 0.32349,0.0676 0.51025,0.048 0.80664,-0.0547 h 0.004 a 0.73028595,0.73028595 0 0 0 0.0469,0.0469 h 0.41407 0.41601 a 0.73028595,0.73028595 0 0 0 0.11133,-0.11328 0.73028595,0.73028595 0 0 0 0.11523,0.11523 h 0.18555 0.18555 a 0.73028595,0.73028595 0 0 0 0.36523,-0.10156 0.73028595,0.73028595 0 0 0 0.18555,0.0996 l 0.16211,0.006 c 0.0564,0.002 0.10723,0.002 0.1543,0.002 0.0235,-4e-5 0.0442,0.001 0.0723,0 0.014,-6.5e-4 0.0305,-0.003 0.0566,-0.006 0.0131,-0.001 0.0288,-0.001 0.0547,-0.006 0.0259,-0.005 0.14006,-0.0408 0.14062,-0.041 a 0.73028595,0.73028595 0 0 0 0.0312,-0.0117 c 10e-6,0 0.012,-0.009 0.0137,-0.01 a 0.73028595,0.73028595 0 0 0 0.21093,0.0801 l 0.18164,-0.008 0.1836,-0.008 a 0.73028595,0.73028595 0 0 0 0.21094,-0.22071 0.73028595,0.73028595 0 0 0 0.21875,0.22266 l 0.39453,0.006 a 0.73028595,0.73028595 0 0 0 0.002,0 c 0.11257,0.002 0.21619,0.002 0.29687,0.002 0.0403,-2.3e-4 0.0747,-0.001 0.10547,-0.002 0.0154,-4.1e-4 0.0287,-7.8e-4 0.0488,-0.002 0.0101,-5.9e-4 0.0214,-0.002 0.043,-0.004 0.0108,-0.001 0.0233,-0.002 0.0469,-0.006 0.0115,-0.002 0.038,-0.0103 0.0703,-0.0195 a 0.73028595,0.73028595 0 0 0 0.0937,0.0351 l 0.16797,-0.006 0.16601,-0.006 a 0.73028595,0.73028595 0 0 0 0.0879,-0.0879 0.73028595,0.73028595 0 0 0 0.14453,0.0879 l 0.20508,0.008 a 0.73028595,0.73028595 0 0 0 0.002,0 c 0.0657,0.002 0.12526,0.002 0.17968,0.002 0.0272,-2.5e-4 0.0507,3.2e-4 0.0859,-0.002 0.0176,-0.001 0.0366,-0.003 0.0781,-0.01 0.0208,-0.003 0.046,-0.006 0.0996,-0.0215 0.0268,-0.008 0.11494,-0.0448 0.11524,-0.0449 1.5e-4,-8e-5 0.10145,-0.0605 0.10156,-0.0606 6e-5,-4e-5 0.0442,-0.0407 0.0859,-0.0801 a 0.73028595,0.73028595 0 0 0 0.19922,0.20899 l 0.16601,0.008 a 0.73028595,0.73028595 0 0 0 0.004,0.002 c 0.0414,0.002 0.0808,0.002 0.10742,0.004 0.007,4.5e-4 0.009,-3.4e-4 0.0137,0 -0.009,-0.001 -0.0317,-0.005 -0.0566,-0.01 0.015,-5.7e-4 0.36517,-0.0156 0.36524,-0.0156 10e-6,-10e-6 0.0308,-0.0168 0.043,-0.0234 a 0.73028595,0.73028595 0 0 0 0.0351,0.0371 l 0.16602,0.006 0.16601,0.006 a 0.73028595,0.73028595 0 0 0 0.36524,-0.13867 0.73028595,0.73028595 0 0 0 0.20898,0.11523 l 0.18164,0.0117 a 0.73028595,0.73028595 0 0 0 0.008,0 l 0.18164,0.01 a 0.73028595,0.73028595 0 0 0 0.11328,-0.041 c 0.038,0.0119 0.0689,0.0195 0.0898,0.0234 0.0512,0.01 0.0781,0.0117 0.10352,0.0137 0.0508,0.004 0.089,0.006 0.13086,0.006 0.0838,5.4e-4 0.17573,-0.002 0.27148,-0.006 0.0957,-0.004 0.19229,-0.0118 0.28125,-0.0195 0.0884,-0.008 0.11253,0.007 0.30078,-0.0488 h 0.002 c 0.14593,-0.043 0.24823,-0.16609 0.36915,-0.25977 0.13315,0.0926 0.20287,0.2628 0.35937,0.30664 0.40089,0.11237 0.77866,0.004 1.10938,-0.19726 a 0.73028595,0.73028595 0 0 0 0.2246,0.22461 h 0.17188 0.17188 a 0.73028595,0.73028595 0 0 0 0.20898,-0.20899 0.73028595,0.73028595 0 0 0 0.38281,0.19727 h 0.17774 0.17773 a 0.73028595,0.73028595 0 0 0 0.0391,-0.0391 c 0.0194,0.007 0.0422,0.0168 0.0586,0.0215 0.0647,0.0186 0.11024,0.0258 0.15234,0.0293 0.0842,0.007 0.15163,0.003 0.23438,-0.0137 -0.19201,0.0386 -0.0897,0.0103 -0.0742,0.01 0.0154,-5.6e-4 0.0437,-0.001 0.0781,-0.002 0.0688,-0.001 0.16381,-0.001 0.26367,-0.002 l 0.3711,-0.002 a 0.73028595,0.73028595 0 0 0 0.0781,-0.0781 c 0.0619,0.0299 0.10467,0.0618 0.22852,0.0859 0.28341,0.0554 0.58849,-0.0119 0.86523,-0.14843 a 0.73028595,0.73028595 0 0 0 0.13867,0.13867 h 0.19336 0.19336 a 0.73028595,0.73028595 0 0 0 0.0215,-0.0215 c 0.0233,0.004 0.0514,0.009 0.0703,0.0117 0.0635,0.008 0.12332,0.0135 0.19141,0.0156 l 0.17773,0.006 a 0.73028595,0.73028595 0 0 0 0.30664,-0.21875 l -0.25976,0.004 -0.0625,-0.24218 a 0.73028595,0.73028595 0 0 0 0.0449,-0.0449 0.73028595,0.73028595 0 0 0 0.3164,0.25391 0.73028595,0.73028595 0 0 0 0.375,-0.26758 l -0.0879,0.28906 -0.2539,0.006 a 0.73028595,0.73028595 0 0 0 0.25586,0.20704 l 0.17968,0.008 a 0.73028595,0.73028595 0 0 0 0.004,0 c 0.0697,0.003 0.13069,0.004 0.21094,-0.002 0.0401,-0.003 0.0804,-0.004 0.17383,-0.0293 0.0467,-0.0126 0.10787,-0.0253 0.21875,-0.0977 0.0277,-0.0181 0.0914,-0.0699 0.0918,-0.0703 4.1e-4,-3.7e-4 0.1052,-0.11876 0.10547,-0.11914 5.5e-4,-7.7e-4 0.13671,-0.41322 0.13672,-0.41406 a 0.73028595,0.73028595 0 0 0 0,-0.004 c 0,-1.8e-4 -0.005,-0.0907 -0.008,-0.11133 -0.003,-0.0206 -0.006,-0.033 -0.008,-0.043 -0.004,-0.02 -0.006,-0.0304 -0.008,-0.0391 -0.004,-0.0172 -0.007,-0.0255 -0.01,-0.0352 -0.006,-0.0192 -0.0111,-0.0361 -0.0176,-0.0566 -0.0129,-0.0411 -0.0302,-0.0934 -0.0508,-0.15625 -0.0412,-0.12568 -0.0967,-0.29326 -0.15821,-0.47461 l -0.2207,-0.65234 a 0.73028595,0.73028595 0 0 0 -0.43359,-0.30273 h 0.37695 a 0.73028595,0.73028595 0 0 0 0.73047,-0.73047 v -3.27149 -3.27343 a 0.73028595,0.73028595 0 0 0 -0.4082,-0.40821 0.73028595,0.73028595 0 0 0 0.39648,-0.39453 l 0.008,-1.10937 a 0.73028595,0.73028595 0 0 0 0,-0.002 c 0.002,-0.30768 0.002,-0.59316 0,-0.80664 -7.7e-4,-0.10674 -0.003,-0.19408 -0.004,-0.26172 -7e-4,-0.0338 -8.6e-4,-0.063 -0.002,-0.0898 -5.4e-4,-0.0134 -6.7e-4,-0.025 -0.002,-0.043 -6.4e-4,-0.009 -0.002,-0.0188 -0.004,-0.0352 -0.002,-0.0164 -0.0174,-0.0949 -0.0176,-0.0957 l 0.008,0.0293 -0.01,-0.0488 a 0.73028595,0.73028595 0 0 0 -0.71679,-0.58789 h -1.25977 -1.25977 a 0.73028595,0.73028595 0 0 0 -0.0137,0.0137 c -0.0148,-0.0988 0.0263,-0.19229 0.002,-0.29101 a 0.73028595,0.73028595 0 0 0 0,-0.002 c -0.0677,-0.2743 -0.19633,-0.72676 -0.27735,-0.96093 0.007,0.0191 -0.0703,-0.22839 -0.13086,-0.42774 -0.0312,-0.10286 -0.062,-0.20335 -0.0976,-0.31836 0.4125,-0.0998 0.81619,-0.19739 1.16992,-0.32812 0.15521,-0.0574 0.35137,-0.14038 0.5293,-0.21875 0.089,-0.0392 0.17129,-0.0763 0.24023,-0.10938 0.0345,-0.0165 0.0646,-0.0319 0.0996,-0.0508 0.0175,-0.009 0.035,-0.0184 0.0644,-0.0371 0.0148,-0.009 0.0324,-0.0214 0.0606,-0.043 0.002,-0.001 0.004,-0.004 0.006,-0.006 7.4e-4,-4.8e-4 0.003,-0.001 0.004,-0.002 0.017,-0.0109 0.0462,-0.0296 0.0781,-0.0488 0.28545,-0.17169 0.53652,-0.37747 0.73633,-0.6289 0.15027,-0.18911 0.28386,-0.41735 0.32812,-0.70118 0.0443,-0.28382 -0.0292,-0.58444 -0.14843,-0.80468 -0.21889,-0.40434 -0.54242,-0.59052 -0.87891,-0.73828 -0.33649,-0.14777 -0.70712,-0.23508 -1.09766,-0.23243 z m -4.14843,4.7793 c 0.008,0.009 0.0113,0.0117 0.0195,0.0215 0.20147,0.23839 0.4919,0.58799 0.85156,1.02539 0.0324,0.0394 0.0572,0.0693 0.0918,0.11133 l -3.0293,0.004 -2.13672,0.004 c 0.16,-0.041 0.31706,-0.0779 0.44922,-0.11329 0.23574,-0.0631 0.52715,-0.13958 0.64258,-0.16992 0.35694,-0.0939 1.9815,-0.55616 2.93945,-0.83398 0.0662,-0.0192 0.11166,-0.0315 0.17188,-0.0488 z m -7.67383,0.75586 c 0.035,0.0837 0.15518,0.16875 0.2539,0.26758 -0.011,-0.007 -0.0228,-0.003 -0.0332,-0.01 -0.23317,-0.16169 -0.22459,-0.26521 -0.2207,-0.25781 z m -1.69531,3.50977 c -0.007,0.0534 -0.0135,0.10432 -0.0156,0.15039 -0.003,0.067 -0.006,0.14696 -0.008,0.24023 -0.004,0.18654 -0.006,0.42667 -0.006,0.69922 v 0.90234 a 0.73028595,0.73028595 0 0 0 0.3457,0.34571 0.73028595,0.73028595 0 0 0 -0.34961,0.53515 v -0.36133 -1.14062 a 0.73028595,0.73028595 0 0 0 -0.61133,-0.7207 l -0.0449,-0.008 c -0.001,-1.8e-4 -0.097,-0.0112 -0.10937,-0.0117 -0.0124,-5.1e-4 -0.0231,2.4e-4 -0.0332,0 -0.0201,-4.6e-4 -0.0416,-0.002 -0.0703,-0.002 -0.0574,-6.5e-4 -0.13613,-0.001 -0.23633,-0.002 -0.2004,-0.001 -0.48617,-0.001 -0.83398,-0.002 -0.69562,-9.7e-4 -1.64419,-0.001 -2.68164,0 -1.03658,9.9e-4 -1.99849,7.5e-4 -2.71289,0 -0.229,-2.5e-4 -0.38235,-0.002 -0.55469,-0.002 0.01,-0.006 0.0169,-0.0126 0.0254,-0.0156 0.0407,-0.001 0.0974,-0.003 0.17383,-0.004 0.16669,-0.003 0.40973,-0.004 0.72656,-0.006 0.63366,-0.004 1.55815,-0.006 2.74805,-0.006 h 3.65625 a 0.73028595,0.73028595 0 0 0 0.5918,-0.59179 z m 12.13867,0.006 a 0.73028595,0.73028595 0 0 0 0.23437,0.47852 0.73028595,0.73028595 0 0 0 -0.25976,0.25977 v 3.27343 0.75391 a 0.73028595,0.73028595 0 0 0 -0.625,-0.625 h -3.50586 c -1.95048,0 -2.87071,0.002 -3.28516,-0.0137 -0.20722,-0.008 -0.2807,-0.0273 -0.23437,-0.0137 0.0463,0.0136 0.12335,0.0596 0.0156,-0.008 0.0285,0.0178 -0.18142,-0.26711 -0.19336,-0.32812 v -0.002 c 0.0206,0.11838 -0.0117,-0.22845 -0.0117,-0.43945 v -0.42383 a 0.73028595,0.73028595 0 0 0 -0.3789,-0.3789 c 0.11399,-0.0725 0.25222,-0.14691 0.31836,-0.32227 a 0.73028595,0.73028595 0 0 0 0,-0.002 c 0.0624,-0.16667 0.0418,-0.15726 0.0449,-0.1836 0.003,-0.0263 0.005,-0.0439 0.006,-0.0625 0.003,-0.0373 0.002,-0.075 0.004,-0.11718 0.003,-0.0844 0.006,-0.18713 0.006,-0.29688 0,-0.2917 -0.001,-0.26454 0.0176,-0.33398 1.1e-4,-4.1e-4 -1.1e-4,-0.002 0,-0.002 0.0467,-0.16579 0.12099,-0.27645 0.26563,-0.38476 0.1302,-0.0975 0.14029,-0.10023 0.27734,-0.13477 0.0474,-0.0119 -0.0107,-0.0101 0.42773,-0.0156 0.43842,-0.005 1.27188,-0.006 2.88282,-0.006 h 3.32226 a 0.73028595,0.73028595 0 0 0 0.67188,-0.67188 z m -12.18555,3.65821 0.002,0.22656 c 0.005,0.51219 0.008,0.79871 0.0293,1.04102 0.0209,0.24231 0.0741,0.45056 0.13281,0.62695 0.32728,0.98346 1.17523,1.72629 2.23633,2.12695 0.23652,0.0893 0.51899,0.12122 0.78906,0.16992 -0.0769,-0.005 -0.1546,-0.0233 -0.24414,-0.0254 a 0.73028595,0.73028595 0 0 0 -0.002,0 l -0.34961,-0.008 a 0.73028595,0.73028595 0 0 0 -0.18359,0.0742 0.73028595,0.73028595 0 0 0 -0.0703,-0.0703 h -0.4082 -0.41016 a 0.73028595,0.73028595 0 0 0 -0.0879,0.0879 0.73028595,0.73028595 0 0 0 -0.084,-0.0859 h -0.48438 -0.48437 a 0.73028595,0.73028595 0 0 0 -0.084,0.0859 0.73028595,0.73028595 0 0 0 -0.0879,-0.0879 h -0.18359 -0.18555 a 0.73028595,0.73028595 0 0 0 -0.32031,0.13476 0.73028595,0.73028595 0 0 0 -0.26367,-0.13476 h -0.17969 -0.17969 a 0.73028595,0.73028595 0 0 0 -0.11914,0.11914 0.73028595,0.73028595 0 0 0 -0.11914,-0.11914 h -0.4082 -0.41016 a 0.73028595,0.73028595 0 0 0 -0.0762,0.0762 c -0.17005,-0.056 -0.32797,-0.0863 -0.47461,-0.0859 -0.18686,3.4e-4 -0.49153,0.064 -0.63867,0.14063 -0.16272,0.0852 -0.2314,0.24224 -0.33984,0.36328 a 0.73028595,0.73028595 0 0 0 -0.49414,-0.49414 h -0.1836 -0.18359 a 0.73028595,0.73028595 0 0 0 -0.32617,0.13672 0.73028595,0.73028595 0 0 0 -0.26367,-0.13672 h -0.17774 -0.17773 a 0.73028595,0.73028595 0 0 0 -0.1543,0.15429 c -0.0165,-0.0145 -0.0449,-0.039 -0.0449,-0.0391 -2.1e-4,-1.2e-4 -0.16757,-0.076 -0.16797,-0.0762 -8e-4,-2.5e-4 -0.0877,-0.0204 -0.10742,-0.0234 -0.0394,-0.006 -0.0527,-0.007 -0.0684,-0.008 -0.0313,-0.002 -0.0549,-0.003 -0.082,-0.004 -0.0543,-0.002 -0.11848,-0.004 -0.18946,-0.004 h -0.23047 a 0.73028595,0.73028595 0 0 0 -0.38086,0.27343 0.73028595,0.73028595 0 0 0 -0.32421,-0.27343 h -0.17969 -0.17969 a 0.73028595,0.73028595 0 0 0 -0.13281,0.0996 c -6.5e-4,-3.5e-4 -0.001,3.4e-4 -0.002,0 -0.0295,-0.0157 -0.0521,-0.0271 -0.0723,-0.0352 -0.0823,-0.033 -0.11493,-0.0353 -0.14453,-0.041 -0.0592,-0.0114 -0.0886,-0.013 -0.12109,-0.0156 -0.0651,-0.005 -0.1269,-0.008 -0.19532,-0.008 h -0.002 c -0.0705,0 -0.15409,0.008 -0.25977,0.0234 a 0.73028595,0.73028595 0 0 0 0.53907,-0.53906 v -1.83008 -1.09961 h 3.27539 4.0039 a 0.73028595,0.73028595 0 0 0 0.7168,-0.71679 z m 12.22266,3.6875 a 0.73028595,0.73028595 0 0 0 0.49023,0.49023 c -0.16425,0.002 -0.29472,0.12828 -0.45117,0.19531 a 0.73028595,0.73028595 0 0 0 -0.21094,-0.21093 h -0.1543 a 0.73028595,0.73028595 0 0 0 0.32618,-0.47461 z m -8.65039,0.58594 c -0.28827,0.0272 1.3515,0.0573 0.25585,0.0273 0.0584,5.2e-4 0.13913,-5e-4 0.24219,0 0.0377,1.8e-4 0.113,-1.8e-4 0.15625,0 a 0.73028595,0.73028595 0 0 0 -0.24218,0.24219 c -0.0905,-0.0937 -0.24968,-0.20215 -0.41211,-0.26953 z m 2.09179,0.0332 c 0.052,9e-5 0.11636,-9e-5 0.16992,0 a 0.73028595,0.73028595 0 0 0 -0.0566,0.0566 0.73028595,0.73028595 0 0 0 -0.11328,-0.0566 z m 2.05274,0.002 h 0.57812 c -0.13326,0.0428 -0.25038,0.0704 -0.36328,0.13867 -0.0715,-0.052 -0.13008,-0.10022 -0.21484,-0.13867 z m 1.38281,0.002 h 0.39258 a 0.73028595,0.73028595 0 0 0 -0.11133,0.11133 c -0.0943,-0.0502 -0.17789,-0.078 -0.28125,-0.11133 z m 1.1875,0 h 0.15234 a 0.73028595,0.73028595 0 0 0 -0.0527,0.0527 0.73028595,0.73028595 0 0 0 -0.0996,-0.0527 z m -19.61719,0.5625 0.11914,0.11914 c -0.002,0.0169 -0.003,0.0272 -0.006,0.0469 -0.0145,0.10384 -0.0339,0.2434 -0.0566,0.39062 -0.026,0.16797 -0.0398,0.25794 -0.0547,0.36133 l 0.002,-0.1914 c 0.002,-0.1744 0.002,-0.33686 0.002,-0.46094 7e-5,-0.062 4.9e-4,-0.11424 0,-0.15625 -2.4e-4,-0.021 -0.001,-0.0388 -0.002,-0.0586 -3.2e-4,-0.01 -9.8e-4,-0.0197 -0.002,-0.0352 -1.5e-4,-0.002 -0.001,-0.0106 -0.002,-0.0156 z m 12.40039,0.0625 0.51563,0.51563 c -0.0513,0.11685 -0.16297,0.30536 -0.33203,0.38477 -0.14921,0.0701 -0.18582,0.0559 -0.21875,0.0527 a 0.73028595,0.73028595 0 0 0 -0.0918,-0.0918 0.73028595,0.73028595 0 0 0 0.0957,-0.0976 v -0.13868 -0.14062 a 0.73028595,0.73028595 0 0 0 -0.0957,-0.0996 0.73028595,0.73028595 0 0 0 0.12695,-0.12695 v -0.15039 z m 11.47657,0.0723 c 0.0927,0.009 0.33445,0.14841 0.25585,0.10156 -4e-4,-2.6e-4 0.1116,0.0921 0.11133,0.0918 -2.7e-4,-2.7e-4 0.13881,0.19168 0.13867,0.19141 -9e-5,-2e-4 0.0323,0.13555 0.0547,0.23046 -0.0291,0.0351 -0.0587,0.0704 -0.0586,0.0703 1.3e-4,-1.2e-4 -0.23257,0.14459 -0.23242,0.14453 1.4e-4,-6e-5 -0.299,0.0469 -0.29883,0.0469 2e-5,0 -0.0262,-0.006 -0.0352,-0.008 v -0.31641 -0.52148 c 0.0118,-0.003 0.042,-0.0254 0.0508,-0.0273 0.06,-0.0131 0.0169,-0.005 0.0137,-0.004 z m -20.85547,0.002 c 0.0155,0.002 0.0549,0.0188 0.082,0.0254 v 0.30079 l -0.21094,0.004 c -0.0143,-0.094 -0.0269,-0.1811 -0.041,-0.26953 0.006,-0.003 0.0115,-0.006 0.0156,-0.008 0.0878,-0.0424 0.11966,-0.0451 0.14453,-0.0508 0.008,-0.002 0.004,-7e-4 0.01,-0.002 z m 21.58593,0.22071 c -0.001,0.0143 -0.0117,0.0768 -0.0156,0.0937 0.005,-0.007 0.0108,-0.0205 0.0156,-0.0937 z m -6.81445,0.0605 c 0.19042,-0.12654 0.32419,-0.009 0.44727,0.10352 v 0.17187 0.24805 c -0.0773,0.0504 -0.15608,0.11116 -0.17383,0.11328 -1.4e-4,2e-5 -0.002,-10e-6 -0.002,0 h -0.01 c -0.0458,-7.3e-4 -0.22572,-0.0654 -0.25781,-0.0801 0.0128,-0.0589 0.0623,-0.10861 0.0664,-0.16797 0.007,-0.10562 -0.0863,-0.20637 -0.10547,-0.32226 0.02,-0.0231 0.007,-0.0478 0.0352,-0.0664 z m -1.4082,0.0586 0.21484,0.19336 c -9e-5,0.005 -0.006,0.009 -0.006,0.0137 -3e-5,0.006 0.004,0.015 0.004,0.0215 l -0.21289,0.19141 v -0.20313 z m -10.0293,0.43359 c 0.001,0.001 0.003,0.003 0.004,0.004 -0.001,-0.001 -0.003,-6.1e-4 -0.004,-0.002 z m -7.44336,0.51758 a 0.73028595,0.73028595 0 0 0 0.0762,0.0762 v 0.0449 l -0.19531,0.006 a 0.73028595,0.73028595 0 0 0 0.11914,-0.12695 z m 5.31445,0.42383 -0.0176,0.0156 c 0,0 0.002,-0.004 0.002,-0.004 0.003,-0.002 0.0156,-0.0117 0.0156,-0.0117 z"
               transform="matrix(0.81947877,0,0,0.81947877,-766.94226,271.05735)" />
            <path
               style="fill:#ffffff;fill-opacity:1;stroke:none;stroke-width:0.489728;stroke-dasharray:none;stroke-opacity:1"
               d="m -198.36372,12.757789 3.22071,-0.599211 2.09722,3.145832 -2.05975,0.411952 -2.58409,-0.337052 -1.38565,0.149801 -0.22471,-0.599203 z"
               id="path2842" />
            <g
               id="g2864"
               transform="matrix(0.68456561,0,0,0.68456561,-490.34108,14.406703)">
              <g
                 id="g2862"
                 transform="matrix(1.1535476,0,0,1.1535476,932.35269,-21.202754)"
                 style="fill:#ffffff">
                <g
                   id="g2860"
                   transform="matrix(0.26390382,0,0,0.26390382,-433.94014,14.473293)"
                   style="fill:#ffffff">
                  <path
                     id="path2844"
                     style="fill:#000000;fill-opacity:1;stroke-width:0.0846667"
                     d="m 24.793835,-9.4144124 0.03927,3.788916 c 0.0417,4.013891 0.07844,4.4386763 0.494026,5.68750812 0.940281,2.82554618 3.540433,5.24254668 7.075537,6.57737628 1.160139,0.4380596 2.673903,0.7611964 4.258138,0.9095052 0.162983,0.01526 7.125374,0.033841 15.472441,0.041341 l 15.176851,0.013436 V 2.9471069 -1.7094564 H 53.526965 c -15.334144,0 -14.309639,0.038655 -15.299324,-0.5798096 -0.945875,-0.5910884 -1.852119,-2.0125739 -2.06344,-3.2370117 -0.0529,-0.3064977 -0.09612,-1.3067282 -0.09612,-2.2226033 v -1.6655314 h -5.637382 z" />
                  <path
                     id="path2846"
                     style="fill:#fd7217;fill-opacity:1;stroke-width:0.0846667"
                     d="M 72.644145,-17.965312 V -5.0963298 7.7731689 h 4.995044 4.99556 V -5.0963298 -17.965312 h -4.99556 z" />
                  <path
                     id="path2848"
                     style="fill:#000000;fill-opacity:1;stroke-width:0.0846667"
                     d="m -12.361519,-15.613 h -10.650513 c -0.01247,2.199322 -0.01358,5.299942 -0.01447,9.776147 l -0.0026,13.6947713 h 5.333524 5.334042 V 0.66094157 -6.5355184 H 3.3868734 19.134749 v -4.4803466 -4.480864 l -0.23306,-0.04031 c -0.128058,-0.02215 -6.905844,-0.03427 -15.0616133,-0.02687 -8.1557707,0.0074 -15.1372527,-4.2e-4 -15.5148157,-0.01757 z" />
                  <path
                     id="path2850"
                     style="fill:#fd7217;fill-opacity:1;stroke-width:0.0846667"
                     d="m 3.7041667,-30.157332 c -13.7976897,9.9e-5 -16.2094507,0.01788 -16.8155107,0.12454 -2.413949,0.424821 -4.680974,1.661979 -6.544304,3.571358 -1.440339,1.475935 -2.372846,2.957445 -2.949691,4.686019 -0.289853,0.86856 -0.378362,1.164425 -0.406693,6.162415 h 10.650513 v -1.287777 c 0,-1.450648 0.0884,-1.88219 0.558105,-2.730066 0.487185,-0.879427 1.396045,-1.532125 2.3957195,-1.720309 0.2969324,-0.0559 5.4740597,-0.08578 14.837854,-0.08578 H 19.812227 v -4.360458 -4.35994 z" />
                  <path
                     id="path2852"
                     style="fill:#000000;fill-opacity:1;stroke-width:0.0846667"
                     d="m 72.644145,-30.242082 v 4.572848 4.572331 l 4.973856,-0.0217 4.974374,-0.0217 0.02325,-4.360457 c 0.0129,-2.398182 0.0027,-4.446369 -0.02274,-4.551143 l -0.04599,-0.19017 H 77.59526 Z" />
                  <path
                     id="path2854"
                     style="fill:#fd7217;fill-opacity:1;stroke-width:0.0846667"
                     d="m 67.225354,-30.245699 -16.361792,0.0248 -16.361792,0.0248 -0.677478,0.185002 c -1.002476,0.273786 -1.614945,0.505308 -2.364714,0.894519 -1.311283,0.680693 -2.817073,1.906293 -3.802868,3.095935 -1.438967,1.736518 -2.295133,3.468211 -2.676839,5.413623 -0.0524,0.267079 -0.08785,1.88597 -0.08785,4.000273 v 3.551721 h 5.536613 c 4.970553,0 5.541632,-0.01361 5.587772,-0.133842 0.02826,-0.07366 0.05168,-0.788649 0.05168,-1.58905 0,-1.201204 0.03003,-1.563536 0.171565,-2.074292 0.344566,-1.243406 1.04805,-2.269016 2.092896,-3.051494 0.721336,-0.540203 1.299186,-0.820674 2.117183,-1.02681 0.636318,-0.160382 1.045597,-0.165098 13.715959,-0.166398 l 13.059668,-0.001 v -4.573881 z" />
                  <path
                     id="path2856"
                     style="fill:#000000;fill-opacity:1;stroke-width:0.0846667"
                     d="m 75.315299,-53.584843 c -0.139841,9.49e-4 -0.278177,0.0064 -0.414445,0.01705 -1.013103,0.07946 -2.3859,0.278012 -2.971911,0.429431 -1.473885,0.38083 -2.787048,0.762524 -3.391524,0.986504 -0.372534,0.138049 -0.943725,0.345513 -1.26969,0.460953 -0.325967,0.11545 -0.725852,0.261412 -0.888835,0.324012 -0.162984,0.06257 -0.506112,0.192571 -0.762227,0.288871 -0.256117,0.09633 -0.86549,0.331692 -1.35444,0.523482 -1.452421,0.569709 -2.734814,1.024268 -3.006018,1.065568 -0.148429,0.02259 -1.204039,-0.194372 -2.539896,-0.521932 -3.639278,-0.892379 -10.0364,-2.434948 -11.075293,-2.670638 -0.765548,-0.17368 -1.643665,-0.01672 -3.626652,0.648023 -0.928735,0.311339 -1.658647,0.593218 -1.621607,0.626318 0.06391,0.05705 2.643153,1.230732 4.004407,1.822111 0.34925,0.15173 1.454481,0.645655 2.455664,1.098124 1.001182,0.45247 2.334477,1.050145 2.963127,1.328084 0.628649,0.27793 1.158822,0.521136 1.178222,0.540536 0.07254,0.07252 -0.09453,0.148805 -1.110009,0.503845 -0.572875,0.20029 -1.708445,0.599148 -2.523361,0.886768 -0.814916,0.287619 -2.110544,0.744505 -2.878894,1.014925 -0.768349,0.27042 -1.930338,0.68231 -2.582271,0.915189 -7.136441,2.549333 -7.156946,2.556095 -7.51582,2.556434 -0.749052,7.37e-4 -1.334695,-0.671903 -2.648934,-3.041158 -0.995706,-1.795029 -1.381306,-2.378137 -1.920296,-2.904216 -0.498995,-0.48702 -1.033161,-0.677051 -1.595769,-0.568441 -0.205707,0.0397 -0.406711,0.07397 -0.447001,0.07597 -0.07475,0.0038 -0.02256,0.640122 0.114722,1.400431 0.07397,0.40971 0.384009,2.37191 0.63562,4.021977 0.06746,0.442382 0.22197,1.444681 0.343648,2.227254 0.121677,0.782573 0.201097,1.475644 0.176217,1.540474 -0.08539,0.222523 -0.526108,0.365116 -3.398242,1.098641 -1.582948,0.404276 -2.893524,0.750502 -2.912484,0.769462 -0.01896,0.01896 0.114331,0.100921 0.296106,0.181901 0.280804,0.12509 0.591344,0.146277 2.066024,0.141077 1.536107,-0.0054 3.320519,-0.11858 4.001823,-0.253731 0.205666,-0.0408 0.249405,-0.01 0.359151,0.252698 0.143714,0.343954 0.378619,0.466853 1.892391,0.990637 0.83072,0.287442 1.061625,0.332796 1.693436,0.332796 0.688054,0 1.649962,-0.148048 3.017387,-0.464054 1.374654,-0.317677 3.840294,-0.935578 5.418791,-1.358057 0.931332,-0.249267 2.07423,-0.553503 2.539897,-0.675928 1.212765,-0.318839 7.743343,-2.169289 11.490771,-3.256132 1.290613,-0.374307 2.385433,-0.680578 2.433443,-0.680578 0.0759,0 1.842955,2.09323 4.681885,5.545914 0.459469,0.5588 1.040943,1.26363 1.291911,1.566313 2.251844,2.715844 3.555978,4.307698 3.665926,4.474662 l 0.131258,0.199471 0.109554,-0.368969 c 0.356055,-1.199392 0.350281,-2.540344 -0.01757,-4.032312 -0.227948,-0.924518 -0.799032,-2.918922 -1.011308,-3.532601 -0.06443,-0.186267 -0.313518,-0.986554 -0.553971,-1.778186 -0.240445,-0.791633 -0.585861,-1.910814 -0.767395,-2.487187 -0.181534,-0.576374 -0.330212,-1.171158 -0.330212,-1.321883 0,-0.245398 0.03745,-0.287756 0.359668,-0.405143 0.197907,-0.0721 0.664612,-0.195286 1.037146,-0.273886 2.218001,-0.467849 3.978826,-0.960307 5.673038,-1.586466 0.979931,-0.36217 3.093543,-1.295988 3.171383,-1.400948 0.0251,-0.03384 0.293662,-0.210174 0.596346,-0.392224 0.880761,-0.52973 1.597514,-1.138472 2.128036,-1.806092 0.805407,-1.013509 0.932104,-1.829712 0.42788,-2.761071 -0.690434,-1.275318 -3.121176,-2.328305 -5.218803,-2.314071 z" />
                  <path
                     style="fill:#000000;fill-opacity:1;stroke-width:0.0846667"
                     d="M 10.671807,18.087855 C 9.881951,17.922728 9.024553,17.135992 8.783419,16.355097 8.615566,15.811519 8.657507,14.730264 8.864279,14.270401 c 0.239853,-0.533429 0.733033,-1.058252 1.248014,-1.32809 0.370475,-0.19412 0.532209,-0.224852 1.190707,-0.226256 0.538849,-0.0012 0.854979,0.0405 1.0795,0.142222 L 12.7,13.002124 v 0.766319 c 0,0.421477 -0.0322,0.766321 -0.07155,0.766321 -0.03935,0 -0.144124,-0.08146 -0.232833,-0.181019 -0.564441,-0.633486 -1.684647,-0.482395 -2.073417,0.279658 -0.46402,0.909553 -0.08012,1.92356 0.829842,2.191879 0.304577,0.08981 0.411921,0.08432 0.730464,-0.03733 0.20538,-0.07844 0.441139,-0.21744 0.523909,-0.308901 0.08277,-0.09146 0.184116,-0.16629 0.225212,-0.16629 0.0411,0 0.06377,0.348685 0.05038,0.774856 l -0.02435,0.774854 -0.338666,0.117364 c -0.452683,0.156875 -1.184075,0.204837 -1.647196,0.108017 z m 44.723158,-0.03795 c -0.819619,-0.229736 -1.476575,-0.789766 -1.834113,-1.563506 -0.138204,-0.299085 -0.177188,-0.546339 -0.17422,-1.104969 0.0046,-0.867343 0.220868,-1.365409 0.841089,-1.93711 0.616887,-0.568627 1.04699,-0.729264 1.948618,-0.72778 0.896304,0.0015 1.342042,0.176008 1.944255,0.761293 0.615716,0.598407 0.762734,0.964722 0.763996,1.903597 9.23e-4,0.684272 -0.02936,0.863898 -0.202862,1.203371 -0.608168,1.189939 -2.02125,1.819836 -3.286763,1.465109 z m 1.42502,-1.335663 c 0.450095,-0.299112 0.689977,-0.843751 0.639352,-1.451612 -0.04612,-0.553716 -0.203911,-0.827443 -0.655783,-1.137579 -0.237045,-0.162693 -0.368515,-0.191623 -0.73656,-0.162077 -0.508664,0.04083 -0.822913,0.234796 -1.073333,0.662485 -0.230281,0.393296 -0.22805,1.114258 0.0048,1.5603 0.346215,0.663115 1.232124,0.92015 1.821494,0.528483 z m 14.291326,1.382136 c -0.330818,-0.06461 -0.998059,-0.425442 -1.170144,-0.632792 -0.08888,-0.107101 -0.05445,-0.215446 0.203386,-0.63988 0.170705,-0.28102 0.33158,-0.510947 0.357488,-0.510947 0.02591,0 0.192329,0.131197 0.369816,0.291549 0.384082,0.346991 0.860128,0.466359 1.166224,0.292426 0.338015,-0.192076 0.414646,-0.379779 0.264363,-0.647582 -0.100228,-0.178605 -0.301498,-0.293057 -0.88116,-0.501061 -0.482397,-0.173099 -0.844982,-0.36329 -1.013104,-0.531418 -0.245424,-0.245417 -0.26184,-0.301064 -0.26184,-0.88735 0,-0.570273 0.02287,-0.654246 0.25891,-0.950872 0.527431,-0.662805 1.454497,-0.884089 2.383968,-0.569037 0.706611,0.239516 0.713613,0.252209 0.468376,0.850035 l -0.21319,0.519685 -0.382144,-0.203187 c -0.442874,-0.235483 -0.750282,-0.257094 -1.015415,-0.07139 -0.420751,0.294706 -0.184658,0.591498 0.700828,0.881028 0.325967,0.106583 0.692302,0.244469 0.814087,0.306416 0.535838,0.272572 0.716619,1.444155 0.329201,2.133473 -0.41728,0.742446 -1.32897,1.076108 -2.37965,0.870902 z m -94.057926,-0.07618 c -0.05145,-0.01755 -0.08272,-1.017585 -0.08272,-2.645833 v -2.617611 h 1.608667 1.608667 v 0.592667 0.592666 h -0.889 -0.889 v 0.420268 0.420267 l 0.8255,0.02423 0.8255,0.02423 v 0.550333 0.550334 l -0.8255,0.02423 -0.8255,0.02423 v 1.006245 1.006245 l -0.63695,0.02786 c -0.350322,0.01532 -0.674172,0.01516 -0.719666,-3.39e-4 z m 3.896418,-2.617611 1.98e-4,-2.645833 h 0.713458 c 0.597803,0 0.717896,0.02282 0.740834,0.140779 0.01506,0.07743 0.01675,1.255761 0.0038,2.618516 l -0.02361,2.477735 -0.717419,0.02732 -0.717418,0.02732 1.94e-4,-2.645833 z m 5.884531,2.621551 -0.762,-0.02428 -0.550333,-0.944489 -0.550333,-0.944488 -0.02394,0.947604 -0.02394,0.947604 h -0.674561 -0.67456 v -2.63336 -2.633367 l 1.375833,0.03262 c 1.490566,0.03534 1.735857,0.09978 2.146867,0.563985 0.362144,0.409018 0.479298,1.201359 0.256479,1.73464 -0.13067,0.312736 -0.563659,0.71014 -0.852799,0.78271 -0.183428,0.04604 -0.157301,0.101628 0.514846,1.095446 0.389443,0.575823 0.679361,1.058812 0.64426,1.07331 -0.0351,0.0145 -0.40672,0.01543 -0.82582,0.0021 z m -1.116267,-2.909392 c 0.101713,-0.05354 0.212926,-0.139263 0.247138,-0.1905 0.08922,-0.133623 0.079,-0.543422 -0.01808,-0.72482 -0.09055,-0.169194 -0.504256,-0.342005 -0.818755,-0.342005 -0.192347,0 -0.199033,0.02275 -0.199033,0.677333 v 0.677333 h 0.3019 c 0.166045,0 0.38512,-0.0438 0.486833,-0.09734 z m 2.250236,2.891341 c -0.02801,-0.133082 0.05597,-0.774146 0.353866,-2.701253 0.182874,-1.183006 0.332499,-2.240281 0.332499,-2.3495 0,-0.193619 0.01904,-0.19858 0.762,-0.19858 0.4191,0 0.7630777,0.02858 0.764396,0.0635 0.00132,0.03492 0.205017,0.759435 0.4526653,1.610024 l 0.4502692,1.546524 0.3209502,-1.080858 c 0.1765232,-0.594471 0.3934545,-1.318982 0.48207,-1.610023 l 0.1611198,-0.529167 h 0.7054436 0.7054435 l 0.060068,0.359833 c 0.2862343,1.714699 0.7391883,4.817442 0.7078489,4.848781 -0.025165,0.02517 -1.0011529,0.06305 -1.2208299,0.04739 -0.089809,-0.0064 -0.1701478,-0.467085 -0.4072086,-2.335003 l -0.1074522,-0.846667 -0.1046708,0.381 c -0.393021,1.430586 -0.8060809,2.759415 -0.8709737,2.801955 -0.080965,0.05308 -0.843501,-3.38e-4 -0.9109279,-0.06383 -0.0217,-0.02043 -0.2369143,-0.730589 -0.4782532,-1.578133 -0.4382302,-1.538993 -0.4388712,-1.54044 -0.4947502,-1.117656 -0.154868,1.171768 -0.233597,1.742227 -0.309649,2.243667 l -0.08347,0.550333 h -0.630773 c -0.346924,0 -0.634782,-0.01905 -0.639683,-0.04233 z m 6.5283322,-0.06933 c 1.78e-5,-0.06142 0.2313491,-0.785317 0.5140681,-1.608667 0.2827189,-0.823348 0.6729315,-1.963723 0.8671382,-2.534164 l 0.3531041,-1.037167 h 0.910861 c 0.5009744,0 0.9108618,0.01193 0.9108618,0.02652 0,0.01458 0.1938452,0.576559 0.4307663,1.248834 0.8478097,2.40569 1.3454694,3.919303 1.3026898,3.962081 -0.023919,0.02392 -0.3380062,0.04591 -0.6979725,0.04886 l -0.6544836,0.0054 -0.1307355,-0.423333 -0.1307363,-0.423333 -1.0218878,-0.02368 -1.0218886,-0.02368 -0.1205535,0.433348 -0.1205526,0.43335 -0.6953564,0.01366 c -0.5261399,0.01034 -0.6953479,-0.01351 -0.6953225,-0.098 z m 3.3002425,-1.941498 c -9.821e-4,-0.03493 -0.1490777,-0.5588 -0.329096,-1.164167 l -0.3273044,-1.100666 -0.100258,0.381 c -0.055143,0.20955 -0.1927996,0.678241 -0.3059049,1.041537 -0.2938383,0.94381 -0.311857,0.905796 0.429354,0.905796 0.34925,0 0.634194,-0.02857 0.6332093,-0.0635 z m 3.1556242,2.028296 -0.6138333,-0.02488 V 15.377717 12.75676 h 0.701487 0.7014871 l 0.5873979,0.8255 c 0.3230686,0.454025 0.7644783,1.0541 0.98091,1.3335 0.2164309,0.2794 0.4754067,0.669925 0.5755022,0.867833 0.1000946,0.197908 0.1907413,0.359872 0.2014364,0.359921 0.010696,4.8e-5 0.00839,-0.761952 -0.00512,-1.693334 l -0.024564,-1.69342 h 0.7230661 0.723066 v 2.624666 2.624667 L 4.762504,18.003397 4.0216706,18.000697 3.3927191,17.105319 C 3.046793,16.612877 2.7217941,16.166413 2.6704971,16.113193 2.5830178,16.022437 2.0110148,15.163192 1.8173534,14.831628 c -0.061778,-0.105768 -0.077637,0.336806 -0.053729,1.499396 0.027612,1.342632 0.012416,1.655778 -0.081684,1.683432 -0.063583,0.01869 -0.3918306,0.02278 -0.729439,0.0091 z m 21.0420021,1.69e-4 -0.653832,-0.02469 -0.961846,-1.329981 c -0.529015,-0.731489 -1.05394,-1.486909 -1.166501,-1.678712 l -0.204655,-0.348732 0.03,1.682232 0.03,1.682232 h -0.728501 -0.7285 V 15.381406 12.75674 h 0.7076 0.707599 l 1.006901,1.37048 c 0.553794,0.753765 1.0831,1.514435 1.176233,1.69038 l 0.169334,0.319898 -0.02752,-1.690379 -0.02752,-1.690359 h 0.726022 0.726022 v 2.619669 c 0,1.440819 -0.02858,2.631444 -0.0635,2.645834 -0.03493,0.01439 -0.357725,0.01505 -0.717333,0.0015 z m 2.623616,-1.96496 -0.02245,-1.989667 -0.5715,-0.02503 -0.5715,-0.02503 v -0.631132 -0.631131 h 1.905 1.905 v 0.635 0.635 h -0.592666 -0.592667 v 1.983446 1.983445 l -0.718383,0.02739 -0.718384,0.02739 z m 4.86705,1.96659 -1.545166,-0.02308 v -2.622757 -2.622756 h 1.608666 1.608667 v 0.592667 0.592666 h -0.935972 -0.935972 l 0.0258,0.402167 0.02581,0.402167 0.846666,0.04233 0.846667,0.04233 v 0.550333 0.550334 l -0.867833,0.02413 -0.867834,0.02413 v 0.420371 0.420372 h 0.931334 0.931333 v 0.587669 c 0,0.323219 -0.02858,0.599444 -0.0635,0.613834 -0.03493,0.01439 -0.758825,0.01578 -1.608667,0.0031 z m 2.603302,-2.631458 1.69e-4,-2.654534 1.375833,0.03262 c 1.494076,0.03542 1.77455,0.109214 2.152752,0.566393 0.403411,0.487652 0.472827,1.490407 0.134773,1.946898 -0.158655,0.214241 -0.597046,0.554204 -0.809917,0.628074 -0.06187,0.02147 0.170923,0.434276 0.593759,1.052891 0.382544,0.559666 0.68116,1.032114 0.663594,1.049885 -0.01757,0.01777 -0.393897,0.02025 -0.83629,0.0055 l -0.804351,-0.0268 -0.536576,-0.938024 -0.536577,-0.938023 -0.02388,0.937298 -0.02388,0.937297 -0.674818,0.02753 -0.674819,0.02753 1.69e-4,-2.654535 z m 2.143598,-0.27914 c 0.101713,-0.05354 0.212926,-0.139263 0.247138,-0.1905 0.08922,-0.133623 0.079,-0.543422 -0.01808,-0.72482 -0.09055,-0.169194 -0.504256,-0.342005 -0.818755,-0.342005 -0.192347,0 -0.199033,0.02275 -0.199033,0.677333 v 0.677333 h 0.3019 c 0.166044,0 0.38512,-0.0438 0.486833,-0.09734 z m 5.540101,2.913074 -0.656167,-0.02886 v -2.621101 -2.621105 h 0.719667 0.719667 v 2.667 c 0,1.46685 -0.02858,2.659332 -0.0635,2.649961 -0.03493,-0.0094 -0.358775,-0.03002 -0.719667,-0.0459 z M 42.396838,18.02373 41.740671,17.999 V 15.377895 12.75679 l 0.6985,0.0051 0.6985,0.0051 0.931334,1.278415 c 0.512233,0.703128 1.036108,1.468098 1.164166,1.699933 l 0.232834,0.421518 v -1.70505 -1.705048 h 0.677333 0.677333 l 1.7e-4,2.645833 1.69e-4,2.645833 -0.714562,-0.04233 -0.714562,-0.04233 -1.05896,-1.463797 c -0.582427,-0.805089 -1.089631,-1.548039 -1.127118,-1.651 -0.04045,-0.111107 -0.08537,0.50111 -0.110492,1.506131 l -0.04233,1.693333 -0.656167,-0.02473 z m 5.559624,-0.01055 c -0.01932,-0.0194 -0.03512,-1.214896 -0.03512,-2.656658 v -2.621384 l 1.418167,0.0391 c 1.675807,0.0462 2.058247,0.16455 2.680137,0.829401 0.502052,0.536734 0.682397,1.13315 0.619616,2.049114 -0.0771,1.124918 -0.695525,1.93445 -1.701089,2.226775 -0.40649,0.11817 -2.886444,0.229337 -2.981707,0.133658 z m 2.668978,-1.430721 c 0.433712,-0.32172 0.548094,-0.572358 0.548094,-1.201001 0,-0.459933 -0.03772,-0.640773 -0.170829,-0.819063 -0.291702,-0.390701 -0.559393,-0.532557 -1.112867,-0.58973 l -0.529166,-0.05466 v 1.463455 1.463456 l 0.529166,-0.05466 c 0.301557,-0.03115 0.617961,-0.120528 0.735602,-0.207793 z m 9.233899,-1.17983 v -2.645833 l 0.6985,0.0032 0.6985,0.0032 0.889,1.222592 c 0.48895,0.672425 1.012825,1.421781 1.164167,1.665235 l 0.275166,0.442644 v -1.668421 -1.668421 h 0.677334 0.677333 v 2.624666 2.624667 H 64.239662 63.539985 L 62.5556,16.630325 c -0.54141,-0.756709 -1.064607,-1.509184 -1.162668,-1.672167 l -0.178291,-0.296333 v 1.693333 1.693333 h -0.677334 -0.677333 v -2.645833 z m 6.228775,2.623383 c -0.02646,-0.02646 -0.04811,-1.222855 -0.04811,-2.658661 v -2.610555 h 1.651 1.651 v 0.592667 0.592666 h -0.931331 -0.931334 v 0.423334 0.423333 h 0.846667 0.846667 v 0.592666 0.592667 h -0.846667 -0.846667 v 0.423333 0.423334 h 0.931334 0.931333 v 0.592666 0.592667 l -1.4605,0.0065 c -0.803275,0.0036 -1.524576,0.01886 -1.602892,0.03399 -0.07832,0.01513 -0.164042,0.0059 -0.1905,-0.02059 z m 11.149059,-0.0021 c -0.384175,-0.01353 -0.697949,-0.05163 -0.697264,-0.08467 8.47e-4,-0.03304 0.06161,-0.231526 0.135408,-0.441076 0.494733,-1.404811 1.498583,-4.311994 1.549476,-4.487333 0.06013,-0.207189 0.081,-0.21215 0.986824,-0.234506 l 0.92539,-0.02284 0.86901,2.56284 c 0.47796,1.409562 0.86857,2.600939 0.868037,2.647506 -8.47e-4,0.05178 -0.274989,0.07419 -0.706332,0.05769 l -0.70535,-0.02698 -0.107653,-0.420062 -0.107662,-0.420062 -1.024958,0.0237 -1.024958,0.0237 -0.130734,0.423333 -0.130734,0.423334 z m 2.6035,-2.101756 c 0,-0.136919 -0.460773,-1.703872 -0.594673,-2.022318 -0.05415,-0.128784 -0.07257,-0.136468 -0.07693,-0.03209 -0.0031,0.07549 -0.138963,0.570787 -0.301803,1.100667 -0.162848,0.52988 -0.296198,0.991993 -0.296333,1.026918 0,0.03493 0.285487,0.0635 0.634737,0.0635 0.52799,0 0.635,-0.02303 0.635,-0.136682 z m -66.37867,-0.540652 v -2.624666 h 1.608666 1.608667 v 0.592667 0.592666 h -0.889 -0.889 v 0.423334 0.423333 h 0.846667 0.846667 v 0.592666 0.592667 h -0.846667 -0.846667 v 0.423333 0.423334 h 0.910167 0.910167 v 0.592666 0.592667 h -1.629834 -1.629833 z m 61.04467,0 v -2.624666 h 0.762 0.762 v 2.624666 2.624667 h -0.762 -0.762 z"
                     id="path2858" />
                </g>
              </g>
            </g>
          </g>
        </g>
        <text
           xml:space="preserve"
           style="font-style:normal;font-variant:normal;font-weight:bold;font-stretch:normal;font-size:5.35813px;line-height:1.1;font-family:'Ballet Harmony';-inkscape-font-specification:'Ballet Harmony Bold';text-align:start;letter-spacing:0.80774px;text-anchor:start;white-space:pre;inline-size:119.49;display:inline;fill:#1a1a1a;fill-opacity:1;stroke-width:1.16835"
           x="-245.42513"
           y="376.43597"
           id="text2874"
           transform="matrix(2.554708,0,0,2.4536301,597.76776,-69.361926)"><tspan
             x="-245.42513"
             y="376.43597"
             id="tspan6237"><tspan
               style="font-weight:normal;font-family:'Open Sauce Sans';-inkscape-font-specification:'Open Sauce Sans'"
               id="tspan6235">YOUR SUCCESS SOLUTION</tspan></tspan></text>
      </g>
    </g>
  </g>
</svg>
