<?xml version="1.0" encoding="UTF-8" standalone="no"?>
<!-- Created with Inkscape (http://www.inkscape.org/) -->

<svg
   width="210mm"
   height="297mm"
   viewBox="0 0 210 297"
   version="1.1"
   id="svg76203"
   inkscape:version="1.1.1 (3bf5ae0d25, 2021-09-20)"
   sodipodi:docname="Sticker_Toilet.svg.2022_03_07_12_05_06.0.svg"
   xmlns:inkscape="http://www.inkscape.org/namespaces/inkscape"
   xmlns:sodipodi="http://sodipodi.sourceforge.net/DTD/sodipodi-0.dtd"
   xmlns="http://www.w3.org/2000/svg"
   xmlns:svg="http://www.w3.org/2000/svg">
  <sodipodi:namedview
     id="namedview76205"
     pagecolor="#ffffff"
     bordercolor="#666666"
     borderopacity="1.0"
     inkscape:pageshadow="2"
     inkscape:pageopacity="0.0"
     inkscape:pagecheckerboard="0"
     inkscape:document-units="mm"
     showgrid="false"
     inkscape:snap-global="true"
     showguides="false"
     inkscape:zoom="0.15685212"
     inkscape:cx="1673.5509"
     inkscape:cy="1539.6668"
     inkscape:current-layer="layer1" />
  <defs
     id="defs76200">
    <clipPath
       clipPathUnits="userSpaceOnUse"
       id="clipPath88552">
      <rect
         style="opacity:1;fill:#53a556;fill-opacity:1;stroke:none;stroke-width:0.4;stroke-linecap:round"
         id="rect88554"
         width="134.10323"
         height="134.10323"
         x="-64.666077"
         y="156.03206" />
    </clipPath>
  </defs>
  <g
     inkscape:label="Layer 1"
     inkscape:groupmode="layer"
     id="layer1">
    <rect
       style="opacity:1;fill:#53a556;fill-opacity:1;stroke-width:0.13232;stroke-linecap:round"
       id="rect76286"
       width="36.5"
       height="123"
       x="-128.30722"
       y="-93.59639"
       ry="0"
       transform="rotate(-90)" />
    <text
       xml:space="preserve"
       style="font-weight:800;font-size:7.88096px;line-height:1.05;font-family:Metropolis;-inkscape-font-specification:'Metropolis Ultra-Bold';fill:#ffffff;stroke-width:0.197023"
       x="-81.037048"
       y="112.3427"
       id="text85122"><tspan
         sodipodi:role="line"
         id="tspan85120"
         style="fill:#ffffff;stroke-width:0.197023"
         x="-81.037048"
         y="112.3427">Masjid Al-Istiqlal Tambun</tspan></text>
    <g
       id="g90660">
      <rect
         style="opacity:1;fill:#53a556;fill-opacity:1;stroke-width:0.764844;stroke-linecap:round"
         id="rect85118"
         width="600"
         height="250"
         x="-506.40363"
         y="-399.7771"
         ry="0"
         transform="scale(-1)" />
      <text
         xml:space="preserve"
         style="font-weight:800;font-size:38.6781px;line-height:1.05;font-family:Metropolis;-inkscape-font-specification:'Metropolis Ultra-Bold';fill:#ffffff;stroke-width:0.966951"
         x="126.42825"
         y="217.7493"
         id="text77430"><tspan
           sodipodi:role="line"
           id="tspan77428"
           style="font-style:italic;font-variant:normal;font-weight:500;font-stretch:normal;font-family:Metropolis;-inkscape-font-specification:'Metropolis Medium Italic';fill:#ffffff;stroke-width:0.966951"
           x="126.42825"
           y="217.7493">Tempat</tspan><tspan
           sodipodi:role="line"
           style="font-style:italic;font-variant:normal;font-weight:500;font-stretch:normal;font-family:Metropolis;-inkscape-font-specification:'Metropolis Medium Italic';fill:#ffffff;stroke-width:0.966951"
           x="126.42825"
           y="258.3613"
           id="tspan81282">Wudhu / Toilet</tspan></text>
      <text
         xml:space="preserve"
         style="font-weight:800;font-size:98.8276px;line-height:1.05;font-family:Metropolis;-inkscape-font-specification:'Metropolis Ultra-Bold';fill:#ffffff;stroke-width:2.47068"
         x="123.38068"
         y="349.44479"
         id="text79758"><tspan
           sodipodi:role="line"
           id="tspan79756"
           style="fill:#ffffff;stroke-width:2.47068"
           x="123.38068"
           y="349.44479">Ikhwan</tspan></text>
      <g
         id="g88446"
         transform="matrix(1.1368351,0,0,1.1368351,5.7618991,-20.302105)"
         clip-path="url(#clipPath88552)">
        <rect
           style="opacity:1;fill:#ffffff;fill-opacity:1;stroke:#ffffff;stroke-width:0.4;stroke-linecap:round"
           id="rect86730"
           width="104.96385"
           height="127.6265"
           x="-50.096386"
           y="244.51807"
           ry="32.503773" />
        <path
           id="path86834"
           style="opacity:1;fill:#ffffff;stroke:#ffffff;stroke-width:0.582397;stroke-linecap:round"
           d="m 26.331711,208.29951 c -10e-7,13.2251 -10.721066,30.29617 -23.946171,30.29617 -13.225105,0 -23.94617,-17.07107 -23.946171,-30.29617 -5e-6,-13.22511 10.721062,-17.59618 23.946171,-17.59618 13.225109,0 23.946176,4.37107 23.946171,17.59618 z"
           sodipodi:nodetypes="sssss" />
        <path
           id="path87523"
           style="opacity:1;fill:#53a556;fill-opacity:1;stroke:none;stroke-width:0.387872;stroke-linecap:round"
           d="m -22.720311,189.59486 c 0,0 12.509463,-2.42111 25.0953245,-2.42111 12.5858615,0 25.0953245,2.42111 25.0953245,2.42111 v 10.02942 10.02942 c 0,0 -10.968758,-2.42111 -25.0953245,-2.42111 -14.1265665,0 -25.0953245,2.42111 -25.0953245,2.42111 v -10.02942 z"
           sodipodi:nodetypes="czccczccc" />
        <path
           id="rect86938"
           style="opacity:1;fill:#ffffff;stroke:#ffffff;stroke-width:0.371577;stroke-linecap:round"
           d="m -21.66604,187.85681 c 0,0 11.9839324,-2.3194 24.0410535,-2.3194 12.0571215,0 24.0410535,2.3194 24.0410535,2.3194 v 9.60807 9.60808 c 0,0 -10.507953,-2.3194 -24.0410535,-2.3194 -13.5331005,0 -24.0410535,2.3194 -24.0410535,2.3194 v -9.60808 z"
           sodipodi:nodetypes="czccczccc" />
      </g>
      <g
         id="g89754"
         transform="matrix(0.89364855,0,0,0.89364855,6.8170906,37.994902)">
        <path
           style="opacity:1;fill:#ffffff;fill-opacity:1;stroke-width:0.221859;stroke-linecap:round"
           d="m -17.652068,323.61185 v 44.86149 l -45.877537,-23.37521"
           id="path86608" />
        <rect
           style="opacity:1;fill:#ffffff;fill-opacity:1;stroke:none;stroke-width:0.603341;stroke-linecap:round"
           id="rect88578"
           width="91.596184"
           height="15.26603"
           x="-27.496532"
           y="338.09164" />
      </g>
    </g>
    <g
       id="g90690"
       transform="translate(0,276.72289)">
      <rect
         style="opacity:1;fill:#53a556;fill-opacity:1;stroke-width:0.764844;stroke-linecap:round"
         id="rect90662"
         width="600"
         height="250"
         x="-506.40363"
         y="-399.7771"
         ry="0"
         transform="scale(-1)" />
      <text
         xml:space="preserve"
         style="font-weight:800;font-size:38.6781px;line-height:1.05;font-family:Metropolis;-inkscape-font-specification:'Metropolis Ultra-Bold';fill:#ffffff;stroke-width:0.966951"
         x="126.42825"
         y="217.7493"
         id="text90668"><tspan
           sodipodi:role="line"
           id="tspan90664"
           style="font-style:italic;font-variant:normal;font-weight:500;font-stretch:normal;font-family:Metropolis;-inkscape-font-specification:'Metropolis Medium Italic';fill:#ffffff;stroke-width:0.966951"
           x="126.42825"
           y="217.7493">Tempat</tspan><tspan
           sodipodi:role="line"
           style="font-style:italic;font-variant:normal;font-weight:500;font-stretch:normal;font-family:Metropolis;-inkscape-font-specification:'Metropolis Medium Italic';fill:#ffffff;stroke-width:0.966951"
           x="126.42825"
           y="258.3613"
           id="tspan90666">Wudhu / Toilet</tspan></text>
      <text
         xml:space="preserve"
         style="font-weight:800;font-size:93.6738px;line-height:1.05;font-family:Metropolis;-inkscape-font-specification:'Metropolis Ultra-Bold';fill:#ffffff;stroke-width:2.34184"
         x="123.46829"
         y="345.84232"
         id="text90672"><tspan
           sodipodi:role="line"
           id="tspan90670"
           style="fill:#ffffff;stroke-width:2.34184"
           x="123.46829"
           y="345.84232">Akhwat</tspan></text>
      <g
         id="g90682"
         transform="matrix(1.1368351,0,0,1.1368351,5.7618991,-20.302105)"
         clip-path="url(#clipPath88552)">
        <rect
           style="opacity:1;fill:#ffffff;fill-opacity:1;stroke:#ffffff;stroke-width:0.373094;stroke-linecap:round"
           id="rect90674"
           width="97.903511"
           height="119.04177"
           x="-46.566216"
           y="239.90765"
           ry="48.951756" />
        <g
           id="g1864"
           transform="translate(1.6832905)">
          <path
             id="path959"
             style="fill:#ffffff;fill-opacity:1;stroke:none;stroke-width:1.51181;stroke-linecap:round"
             d="M 32.027344 1764.9258 C 32.027344 1764.9258 -31.479548 1765.0477 -62.642578 1819.0234 C -93.805616 1872.9994 -62.643194 2006.1098 -112.23242 2057.9531 C -161.82164 2109.7963 -155.3418 2218.8418 -155.3418 2218.8418 L 32.027344 2218.8418 L 219.39648 2218.8418 C 219.39648 2218.8418 225.87633 2109.7963 176.28711 2057.9531 C 126.69788 2006.1098 157.8603 1872.9994 126.69727 1819.0234 C 95.534236 1765.0477 32.027344 1764.9258 32.027344 1764.9258 z "
             transform="matrix(0.23273677,0,0,0.23273677,-6.7516589,-225.55671)" />
        </g>
        <path
           id="path90676"
           style="opacity:1;fill:#53a556;fill-opacity:1;stroke:#ffffff;stroke-width:0.401613;stroke-linecap:round"
           d="m 18.89522,212.36467 c -10e-7,9.11984 -7.393099,20.89182 -16.5129476,20.89182 -9.119849,0 -16.5129464,-11.77198 -16.5129474,-20.89182 -3e-6,-9.11986 7.3930957,-12.13408 16.5129474,-12.13408 9.1198516,0 16.5129506,3.01422 16.5129476,12.13408 z"
           sodipodi:nodetypes="sssss" />
        <path
           id="path90678"
           style="opacity:1;fill:#ffffff;fill-opacity:1;stroke:none;stroke-width:0.267471;stroke-linecap:round"
           d="m -14.930374,199.4662 c 0,0 8.6263519,-1.66956 17.3053875,-1.66956 8.6790355,0 17.3053875,1.66956 17.3053875,1.66956 l 0,5.61783 v 6.91615 c 0,0 -2.741561,-6.49191 -17.3053875,-6.49191 -14.5638265,0 -17.3053875,6.49191 -17.3053875,6.49191 v -6.91615 z"
           sodipodi:nodetypes="czccczccc" />
      </g>
      <g
         id="g90688"
         transform="matrix(-0.89364855,0,0,0.89364855,7.3265117,37.994902)">
        <path
           style="opacity:1;fill:#ffffff;fill-opacity:1;stroke-width:0.221859;stroke-linecap:round"
           d="m -17.652068,323.61185 v 44.86149 l -45.877537,-23.37521"
           id="path90684" />
        <rect
           style="opacity:1;fill:#ffffff;fill-opacity:1;stroke:none;stroke-width:0.603341;stroke-linecap:round"
           id="rect90686"
           width="91.596184"
           height="15.26603"
           x="-27.496532"
           y="338.09164" />
      </g>
    </g>
  </g>
</svg>
