<?xml version="1.0" encoding="UTF-8" standalone="no"?>
<!-- Created with Inkscape (http://www.inkscape.org/) -->

<svg
   width="297mm"
   height="420mm"
   viewBox="0 0 297 420"
   version="1.1"
   id="svg16789"
   inkscape:version="1.1 (c68e22c387, 2021-05-23)"
   sodipodi:docname="Tshirt_idulAdha1442_ready.svg"
   xmlns:inkscape="http://www.inkscape.org/namespaces/inkscape"
   xmlns:sodipodi="http://sodipodi.sourceforge.net/DTD/sodipodi-0.dtd"
   xmlns="http://www.w3.org/2000/svg"
   xmlns:svg="http://www.w3.org/2000/svg">
  <sodipodi:namedview
     id="namedview16791"
     pagecolor="#ffffff"
     bordercolor="#666666"
     borderopacity="1.0"
     inkscape:pageshadow="2"
     inkscape:pageopacity="0.0"
     inkscape:pagecheckerboard="0"
     inkscape:document-units="mm"
     showgrid="false"
     inkscape:zoom="0.44542649"
     inkscape:cx="605.03811"
     inkscape:cy="750.96567"
     inkscape:current-layer="layer1" />
  <defs
     id="defs16786" />
  <g
     inkscape:label="Layer 1"
     inkscape:groupmode="layer"
     id="layer1"
     transform="translate(-4.1580048,20.514)">
    <rect
       style="opacity:1;fill:#800080;stroke:none;stroke-width:2.26095;stroke-linecap:round;stroke-linejoin:round"
       id="rect27663"
       width="341.55118"
       height="241.52545"
       x="-366.39951"
       y="31.89526"
       ry="19.119284"
       transform="rotate(-90)" />
    <rect
       style="fill:#000000;fill-opacity:1;stroke-width:2.78025;stroke-linecap:round;stroke-linejoin:round"
       id="rect34835"
       width="420"
       height="297"
       x="-399.48602"
       y="4.1580048"
       ry="0"
       transform="rotate(-90)"
       inkscape:export-filename="/run/media/ichsan/Share/Document/Design/Istiqlal/DKM/IdulAdha1442/Tshirt_idulAdha1442.png"
       inkscape:export-xdpi="94"
       inkscape:export-ydpi="94" />
    <rect
       style="fill:none;stroke:none;stroke-width:2.26095;stroke-linecap:round;stroke-linejoin:round"
       id="rect34839"
       width="341.55118"
       height="241.52545"
       x="-360.2616"
       y="31.895248"
       ry="19.119284"
       transform="rotate(-90)" />
    <path
       id="path50405"
       style="fill:#ffffff;fill-opacity:1;stroke:none;stroke-width:18.5442;stroke-linecap:round;stroke-linejoin:round;stroke-miterlimit:4;stroke-dasharray:none;stroke-opacity:1"
       d="M 902.82617 329.96094 C 889.48649 329.82582 877.44669 330.65481 867.28906 332.60742 C 774.41953 350.45984 791.13115 452.11572 706.42578 448.01172 C 621.72067 443.90783 500.78516 503.64648 500.78516 503.64648 L 1017.6855 503.64648 L 1017.6855 346.44336 C 977.34798 336.63701 936.05893 330.29756 902.82617 329.96094 z "
       transform="matrix(0.26458333,0,0,0.26458333,4.1580048,-20.514)" />
    <path
       id="path14768"
       style="fill:#d99800;fill-opacity:1;stroke:none;stroke-width:12.5826;stroke-linecap:round;stroke-linejoin:round;stroke-miterlimit:4;stroke-dasharray:none;stroke-opacity:1"
       d="M 333.10742 290.00977 C 287.84166 290.01107 256.69662 304.41323 237.40234 323.46484 C 245.09202 323.73709 255.49042 325.46487 269.49219 329.29688 C 331.59591 346.29344 394.40548 384.89513 429.83008 421.67578 C 443.81469 416.01549 452.87305 412.83789 452.87305 412.83789 L 462.05078 418.37695 L 462.35547 426.87305 L 611.66016 426.87305 C 611.66016 426.87305 576.39118 381.649 524.87891 384.75586 C 473.36652 387.86271 480.7244 319.17458 401.55664 299.27539 C 375.86735 292.81827 353.11301 290.00919 333.10742 290.00977 z M 104.83398 300.23047 L 104.83398 404.42383 L 219.9707 404.42383 C 237.29561 431.0974 277.60352 426.87305 277.60352 426.87305 L 326.04297 426.87305 C 327.8966 424.17807 329.35852 421.31489 330.30078 418.02734 C 336.15805 397.59095 225.84961 353.56641 225.84961 353.56641 C 225.84961 353.56641 223.21065 350.20272 220.92188 345.72852 C 220.23521 347.06257 219.53847 348.39584 218.93945 349.73633 C 187.11184 331.70743 150.98018 309.46658 104.83398 300.23047 z "
       transform="matrix(0.26458333,0,0,0.26458333,4.1580048,-20.514)" />
    <g
       id="g51048"
       transform="matrix(1.236518,0.30844611,-0.30844611,1.236518,-54.217069,-80.666654)">
      <g
         id="g16586"
         transform="matrix(0.81911475,0,0,0.81911475,25.330463,16.302519)">
        <path
           id="path16480"
           style="fill:#d99800;fill-opacity:1;stroke:none;stroke-width:0.517882;stroke-linecap:square;stroke-opacity:1"
           d="m 198.03025,43.533989 a 14.947798,14.947798 68.705532 0 0 5.64045,20.372554 14.947798,14.947798 68.705532 0 0 20.37295,-5.640219 14.947798,14.947798 68.705532 0 0 1.78343,-5.217468 14.947798,14.947798 68.705532 0 1 -16.81588,1.427764 14.947798,14.947798 68.705532 0 1 -7.42308,-15.158338 14.947798,14.947798 68.705532 0 0 -3.55787,4.215707 z" />
      </g>
    </g>
    <path
       id="path50248"
       style="fill:#d99800;fill-opacity:1;stroke:none;stroke-width:12.5826;stroke-linecap:round;stroke-linejoin:round;stroke-miterlimit:4;stroke-dasharray:none;stroke-opacity:1"
       d="M 808.68945 392.125 C 788.68387 392.12442 765.93148 394.93351 740.24219 401.39062 C 661.07443 421.28981 668.43231 489.97989 616.91992 486.87305 C 565.40764 483.7662 247.26172 528.99023 247.26172 528.99023 L 701.4082 528.99023 L 864.19531 528.99023 C 864.19531 528.99023 869.41733 529.5281 876.89258 528.99023 L 1017.6855 528.99023 L 1017.6855 429.59375 C 983.12439 439.66506 954.33413 456.3419 928.54883 471.06641 C 923.26664 435.25819 887.07347 392.12726 808.68945 392.125 z "
       transform="matrix(0.26458333,0,0,0.26458333,4.1580048,-20.514)" />
    <path
       id="path34845"
       style="fill:#ffffff;fill-opacity:1;stroke:none;stroke-width:8.86356;stroke-linecap:round;stroke-linejoin:round;stroke-miterlimit:4;stroke-dasharray:none;stroke-opacity:1"
       d="M 210.01953 307.07031 C 172.12363 307.07031 136.61906 323.53302 104.83398 347.63281 L 104.83398 541.29102 L 236.03906 541.29102 L 270.30273 541.29102 L 363.08008 541.29102 L 583.26172 541.29102 L 711.84375 541.29102 C 711.84375 541.29102 628.51909 408.23828 519.64258 408.23828 C 436.55334 408.23828 330.88084 473.40713 274.92188 512.52344 C 276.57199 505.92687 278.73149 498.64441 281.59961 490.58789 C 298.67734 442.61658 324.44347 438.46361 330.30078 418.02734 C 336.15805 397.59095 225.84961 353.56641 225.84961 353.56641 C 225.84961 353.56641 201.88255 323.09888 235.77734 323.41016 C 243.59922 323.48197 254.50186 325.19431 269.49219 329.29688 C 331.59591 346.29343 394.40547 384.89512 429.83008 421.67578 C 443.81471 416.01548 452.87305 412.83789 452.87305 412.83789 L 454.07031 413.56055 C 385.85551 358.75121 298.16709 307.07031 210.01953 307.07031 z "
       transform="matrix(0.26458333,0,0,0.26458333,4.1580048,-20.514)" />
    <path
       id="rect44878"
       style="fill:#ffffff;fill-opacity:1;stroke:none;stroke-width:6.32357;stroke-linecap:round;stroke-linejoin:round;stroke-miterlimit:4;stroke-dasharray:none;stroke-opacity:1"
       d="M 104.83398 506.29297 L 104.83398 1130.3418 L 1017.6855 1130.3418 L 1017.6855 506.29297 L 104.83398 506.29297 z "
       transform="matrix(0.26458333,0,0,0.26458333,4.1580048,-20.514)" />
    <g
       id="g23610"
       transform="matrix(-1,0,0,1,102.63164,-73.214026)">
      <path
         style="fill:#d99800;fill-opacity:1;stroke:#ffffff;stroke-width:1.75052;stroke-linecap:round;stroke-linejoin:round;stroke-miterlimit:4;stroke-dasharray:none;stroke-opacity:1"
         d="m -4.6670462,257.62328 39.7973602,-6.09424 34.690574,6.09424 c 0.266529,21.43534 -0.728926,42.86693 0,64.29111 0,0 -1.18335,4.88561 -14.525635,18.2279 -11.414024,11.41403 9.946632,8.4336 9.946632,8.4336 l -2.987924,0.0207 -5.106309,51.54062 c 0,0 -2.198774,-5.52143 -12.761457,-5.52143 -10.562684,0 -8.108882,-51.04338 -8.108882,-51.04338 z"
         id="path23590"
         sodipodi:nodetypes="ccccsccczcc" />
      <g
         id="g23596"
         transform="matrix(1.1501463,0,0,1.1501463,-3.2246662,-22.26303)">
        <rect
           style="opacity:1;fill:#ffffff;fill-opacity:1;stroke:none;stroke-width:1.08949;stroke-linecap:round;stroke-linejoin:round;stroke-miterlimit:4;stroke-dasharray:none;stroke-opacity:1"
           id="rect23592"
           width="5.6488986"
           height="5.6488986"
           x="41.724621"
           y="256.19864" />
        <rect
           style="opacity:1;fill:#ffffff;fill-opacity:1;stroke:none;stroke-width:1.08949;stroke-linecap:round;stroke-linejoin:round;stroke-miterlimit:4;stroke-dasharray:none;stroke-opacity:1"
           id="rect23594"
           width="5.6488986"
           height="5.6488986"
           x="50.355976"
           y="256.19864" />
      </g>
      <g
         id="g23602"
         transform="matrix(1.1501463,0,0,1.1501463,-3.2246662,-10.567034)">
        <rect
           style="opacity:1;fill:#ffffff;fill-opacity:1;stroke:none;stroke-width:1.08949;stroke-linecap:round;stroke-linejoin:round;stroke-miterlimit:4;stroke-dasharray:none;stroke-opacity:1"
           id="rect23598"
           width="5.6488986"
           height="5.6488986"
           x="41.724621"
           y="256.19864" />
        <rect
           style="opacity:1;fill:#ffffff;fill-opacity:1;stroke:none;stroke-width:1.08949;stroke-linecap:round;stroke-linejoin:round;stroke-miterlimit:4;stroke-dasharray:none;stroke-opacity:1"
           id="rect23600"
           width="5.6488986"
           height="5.6488986"
           x="50.355976"
           y="256.19864" />
      </g>
      <g
         id="g23608"
         transform="matrix(1.1501463,0,0,1.1501463,-3.2246662,1.0684444)">
        <rect
           style="opacity:1;fill:#ffffff;fill-opacity:1;stroke:none;stroke-width:1.08949;stroke-linecap:round;stroke-linejoin:round;stroke-miterlimit:4;stroke-dasharray:none;stroke-opacity:1"
           id="rect23604"
           width="5.6488986"
           height="5.6488986"
           x="41.724621"
           y="256.19864" />
        <rect
           style="opacity:1;fill:#ffffff;fill-opacity:1;stroke:none;stroke-width:1.08949;stroke-linecap:round;stroke-linejoin:round;stroke-miterlimit:4;stroke-dasharray:none;stroke-opacity:1"
           id="rect23606"
           width="5.6488986"
           height="5.6488986"
           x="50.355976"
           y="256.19864" />
      </g>
    </g>
    <path
       id="path43235"
       style="fill:#ffffff;fill-opacity:1;stroke:none;stroke-width:6.61614;stroke-linecap:round;stroke-linejoin:round;stroke-miterlimit:4;stroke-dasharray:none;stroke-opacity:1"
       d="M 126.3457 972.14062 L 104.83398 975.08398 L 104.83398 1303.4648 L 112.7207 1320.0195 C 112.7207 1320.0195 110.13623 1373.8716 113.58203 1424.6719 C 125.8046 1447.1538 149.60822 1462.3496 177.0957 1462.3496 L 198.67969 1462.3496 L 210.89844 1339.0098 L 222.19141 1338.9316 C 222.19141 1338.9316 216.86429 1325.5889 260.00391 1282.4492 C 310.43144 1232.0217 239.49805 1238.1641 239.49805 1238.1641 C 236.74305 1157.1908 240.5054 1076.1893 239.49805 995.17383 L 126.3457 972.14062 z "
       transform="matrix(0.26458333,0,0,0.26458333,4.1580048,-20.514)" />
    <path
       id="rect44601"
       style="fill:#000000;fill-opacity:1;stroke:none;stroke-width:4.73601;stroke-linecap:round;stroke-linejoin:round;stroke-miterlimit:4;stroke-dasharray:none;stroke-opacity:1"
       d="M 140.91797 1051.0332 L 140.91797 1075.5898 L 165.47266 1075.5898 L 165.47266 1051.0332 L 140.91797 1051.0332 z M 178.4375 1051.0332 L 178.4375 1075.5898 L 202.99414 1075.5898 L 202.99414 1051.0332 L 178.4375 1051.0332 z M 140.91797 1095.2383 L 140.91797 1119.7949 L 165.47266 1119.7949 L 165.47266 1095.2383 L 140.91797 1095.2383 z M 178.4375 1095.2383 L 178.4375 1119.7949 L 202.99414 1119.7949 L 202.99414 1095.2383 L 178.4375 1095.2383 z M 140.91797 1139.2148 L 140.91797 1163.7715 L 165.47266 1163.7715 L 165.47266 1139.2148 L 140.91797 1139.2148 z M 178.4375 1139.2148 L 178.4375 1163.7715 L 202.99414 1163.7715 L 202.99414 1139.2148 L 178.4375 1139.2148 z "
       transform="matrix(0.26458333,0,0,0.26458333,4.1580048,-20.514)" />
    <path
       id="path18395"
       style="color:#000000;fill:#d99800;stroke-width:8.1778;stroke-linecap:round;stroke-linejoin:round;-inkscape-stroke:none"
       d="M 1006.3652 987.77734 C 972.25912 987.78033 941.80088 1009.1312 930.16602 1041.1914 C 922.17024 1037.5189 913.4785 1035.6109 904.67969 1035.5996 C 870.84902 1035.5998 843.42368 1063.0248 843.42383 1096.8555 C 893.72084 1100.2426 918.97973 1247.871 846.19336 1257.0801 L 1017.6855 1257.0801 L 1017.6855 988.58203 C 1013.9827 988.06189 1010.2058 987.77903 1006.3652 987.77734 z "
       transform="matrix(0.26458333,0,0,0.26458333,4.1580048,-20.514)" />
    <path
       id="path18397"
       style="color:#000000;fill:#ffffff;stroke-width:3.77953;stroke-linecap:round;stroke-linejoin:round;-inkscape-stroke:none"
       d="M 1006.3672 983.68945 C 971.90107 983.69244 941.1388 1004.5967 927.9707 1036.168 C 920.52091 1033.3018 912.6871 1031.5201 904.68164 1031.5098 C 868.64124 1031.51 839.33579 1060.8132 839.33594 1096.8535 A 4.0893097 4.0893097 0 0 0 843.14453 1100.9355 C 853.75499 1101.6501 863.83928 1110.2615 871.76562 1124.0645 C 879.69197 1137.8674 885.18806 1156.4542 886.89062 1175.1543 C 888.59323 1193.8544 886.48191 1212.6504 879.83398 1226.9082 C 873.18602 1241.166 862.49542 1250.8976 845.67773 1253.0254 A 4.0893097 4.0893097 0 0 0 846.19336 1261.168 L 1017.6855 1261.168 L 1017.6855 1252.9883 L 867.91992 1252.9883 C 876.29777 1247.4155 882.88903 1239.7037 887.24414 1230.3633 C 894.7595 1214.2451 896.84204 1194.1972 895.04102 1174.416 C 893.24003 1154.6348 887.54057 1135.1057 878.85938 1119.9883 C 871.03851 1106.3689 860.45365 1096.4209 847.82617 1093.7832 C 849.44937 1063.6295 874.10917 1039.6936 904.67383 1039.6895 C 912.88531 1039.7008 920.99684 1041.4808 928.45898 1044.9082 A 4.0893097 4.0893097 0 0 0 934.00977 1042.582 C 945.06175 1012.128 973.96247 991.87507 1006.3594 991.86914 L 1006.3672 991.86914 C 1010.2105 991.87127 1013.9897 992.15689 1017.6855 992.70312 L 1017.6855 984.46289 C 1013.9798 983.96509 1010.2053 983.69114 1006.3672 983.68945 z "
       transform="matrix(0.26458333,0,0,0.26458333,4.1580048,-20.514)" />
    <rect
       style="fill:#000000;fill-opacity:1;stroke:none;stroke-width:0.989822;stroke-linecap:round;stroke-linejoin:round"
       id="rect34899"
       width="171.27567"
       height="241.15744"
       x="67.020142"
       y="119.21664"
       ry="15.647823" />
    <g
       id="g34911"
       style="fill:#ffffff;fill-opacity:1"
       transform="matrix(0.73995791,0,0,0.73995791,36.37644,52.587376)">
      <g
         aria-label="Panitia
Qurban"
         id="text34905"
         style="font-size:96.7907px;line-height:0.6;text-align:center;letter-spacing:0px;text-anchor:middle;stroke-width:2.41976">
        <path
           d="m 139.62861,151.66061 q 5.51707,1.74223 7.25931,5.1299 1.74223,3.29089 0.0968,7.16252 -1.0647,3.0973 -3.38768,6.77535 -2.32298,3.67804 -5.61386,7.45288 -3.29088,3.77484 -7.45288,7.45288 -4.06521,3.58126 -8.71117,6.67856 -4.162,2.80693 -8.51758,4.83954 -4.25879,1.93581 -8.71116,3.58125 -4.45237,1.54865 -9.098328,2.90372 -4.549163,1.35507 -9.195117,2.80693 -0.871116,0.29038 -1.742232,0.38717 -0.774326,0.0968 -1.35507,0.58074 -0.193582,0.77433 -0.677535,1.54865 -0.387163,0.77433 -0.580744,1.54865 -0.677535,1.64545 -0.967907,2.41977 -0.193582,0.77433 -0.290373,1.45186 -0.09679,0.67754 -0.290372,1.54865 -0.193581,0.77433 -0.677535,2.41977 -0.580744,1.93582 -0.871116,3.77484 -0.193581,1.83902 -0.387163,3.87163 -0.290372,0.67753 0.09679,1.06469 0.387163,0.48396 0,1.45187 v 0.67753 q -0.774326,0 -1.35507,-0.0968 -0.483953,-0.0968 -0.677535,-0.58074 -0.967907,-0.48396 -1.258279,-1.54866 -0.290372,-0.9679 -0.580744,-1.64544 0,-0.29037 0.09679,-0.38716 0.193581,0 -0.09679,0 v -0.77433 -0.58074 q -0.290372,-1.74223 0,-3.29088 0.387163,-1.64545 0.580744,-3.38768 0.193581,-2.12939 0.774326,-3.87163 0.580744,-1.74223 1.645442,-4.25879 -0.871117,-0.19358 -1.451861,-0.19358 -0.580744,-0.0968 -1.258279,-0.0968 -1.064698,0 -2.129396,-0.19358 -1.064697,-0.19358 -2.129395,-0.19358 -2.226186,0 -3.871628,-0.77433 -1.645442,-0.87112 -3.387675,-2.12939 -1.45186,-0.96791 -1.45186,-3.00052 1.742232,-0.19358 2.613349,0.0968 0.871116,0.29038 1.742232,1.16149 0.580745,0.77433 1.451861,1.45186 0.871116,0.58075 2.226186,0.58075 1.548651,0 3.387675,0 1.839023,-0.0968 3.484465,-0.29037 0.774326,0 1.35507,-0.58075 0.580744,-0.58074 1.161488,-0.87111 0.580744,-0.77433 0.967907,-1.25828 0.483954,-0.58075 0.774326,-1.35507 2.032605,-4.162 4.258791,-8.42079 2.226186,-4.2588 4.549163,-8.32401 2.419767,-4.162 4.839535,-7.84004 2.516558,-3.77484 4.839535,-6.87214 0.483959,-0.58075 0.871119,-0.96791 0.48395,-0.48395 0.19358,-1.35507 0,-0.48395 0.38716,-0.87112 0.48396,-0.48395 0.96791,-0.77432 2.71014,-0.38716 5.51707,0.96791 0.48395,1.06469 -0.29037,2.12939 -0.87112,0.96791 -1.74223,1.93582 -0.87112,0.9679 -1.93582,1.93581 -2.12939,3.00051 -4.742744,6.87214 -2.516559,3.77484 -5.129908,7.93684 -2.516558,4.06521 -4.936326,8.22721 -2.322976,4.06521 -3.968418,7.54967 1.548651,0 1.839023,-0.19358 8.517582,-3.0973 16.454423,-6.1946 8.03363,-3.09731 15.87367,-7.45289 2.61335,-1.54865 6.00103,-4.25879 3.48446,-2.80693 6.87214,-6.09781 3.38767,-3.38768 6.09781,-7.06573 2.80693,-3.67804 3.87163,-7.06572 1.16149,-3.48446 0.19358,-6.29139 -0.87112,-2.90372 -4.93633,-4.64596 -1.64544,-0.67753 -3.29088,-0.87111 -1.54865,-0.19358 -3.29088,-0.19358 -4.74275,-0.19359 -9.3887,0.19358 -4.54916,0.38716 -9.19512,1.54865 -5.2267,1.16149 -10.25981,2.80693 -5.033121,1.64544 -9.679074,4.06521 -5.51707,2.80693 -10.259815,6.38819 -4.742744,3.58125 -8.22721,8.42079 -1.355069,1.74223 -2.226186,3.77483 -0.774325,2.03261 -0.967907,4.25879 0,1.74224 0.677535,3.00052 0.677535,1.25828 2.903721,2.0326 0.290372,0.19358 0.677535,0.58075 0.483954,0.29037 0.677535,0.48395 0.677535,0.19358 0.871116,0.67753 0.193582,0.48396 0.677535,0.96791 -1.35507,0.48395 -2.516558,0.38716 -1.064698,-0.19358 -1.839023,-0.38716 -1.064698,-0.48395 -2.129396,-0.87112 -1.064698,-0.38716 -1.839023,-1.06469 -1.35507,-1.0647 -2.419768,-2.32298 -1.064697,-1.25828 -1.645442,-2.71014 -0.193581,-0.77433 -0.193581,-1.54865 0.09679,-0.87112 0.580744,-1.83902 0.967907,-2.03261 2.032605,-4.06521 1.064698,-2.03261 2.419767,-3.96842 0.483954,-1.0647 1.25828,-1.83903 0.871116,-0.77432 1.935814,-1.54865 0.580744,-0.48395 0.871116,-0.9679 0.387163,-0.48396 0.967907,-1.0647 4.936326,-4.45237 11.227722,-7.64647 4.355581,-2.22618 8.711163,-4.162 4.355581,-2.0326 9.001538,-3.38767 2.51656,-0.38717 4.93632,-0.96791 2.41977,-0.67753 5.12991,-1.25828 3.48447,-0.58074 7.2593,-0.58074 1.93582,-0.29037 3.77484,-0.29037 1.93582,-0.0968 3.77484,-0.0968 3.00051,0 5.90423,0.38717 2.90372,0.29037 5.61386,1.35507 z"
           style="font-family:Abuget;-inkscape-font-specification:Abuget"
           id="path18759" />
        <path
           d="m 149.01715,208.37996 q -1.25828,0 -2.41977,-0.38716 -0.19358,-0.0968 -0.38716,-0.19359 -0.19359,-0.19358 -0.38717,-0.29037 -0.87111,-1.0647 -0.77432,-2.0326 0.0968,-0.58075 0.29037,-1.0647 0.19358,-0.48395 0.0968,-0.87112 0,-0.38716 -0.38716,-0.38716 -0.0968,0.0968 -0.19358,0.0968 -0.0968,0 -0.19359,0.0968 -0.67753,0.96791 -1.35507,1.45186 -0.48395,0.38717 -0.87111,0.67754 -0.38716,0.29037 -0.87112,0.58074 -0.48395,0.38716 -0.96791,0.87112 -0.38716,0.38716 -0.9679,0.67753 -2.1294,1.64545 -5.03312,1.35507 -0.77432,0 -1.74223,-0.77432 -0.38716,-0.58075 -0.67754,-0.87112 -0.67753,-0.87112 -0.0968,-1.64544 0.29037,-0.67754 0.58075,-1.35507 0.19358,-0.67754 0.19358,-1.45186 0.29037,-0.96791 0.58074,-1.16149 0.48396,-0.77433 0.96791,-1.35507 0.48395,-0.58074 1.16149,-1.16149 0.48395,-0.48395 0.96791,-0.9679 0.48395,-0.58075 0.9679,-1.0647 0.29037,-0.38717 0.67754,-0.67754 0.38716,-0.29037 0.77432,-0.77432 0.48396,-0.38717 0.77433,-0.77433 0.38716,-0.38716 0.77432,-0.77432 1.45186,-1.54866 3.09731,-2.1294 l 2.61335,-1.16149 q 0.29037,-0.19358 0.67753,-0.19358 0.38716,-0.0968 0.77433,-0.19358 0.58074,-0.29037 1.25827,0 h 0.19359 q 0.58074,0.29037 1.25828,0.38716 0.77432,0.0968 1.45186,0.19358 0.9679,0.19358 1.25828,0.77433 0.38716,0.48395 0.19358,1.16149 0,1.35507 -0.67754,2.71014 -0.29037,0.77432 -0.67753,1.54865 -0.38717,0.77432 -0.58075,1.54865 -0.19358,0.48395 -0.38716,0.96791 -0.19358,0.38716 -0.38716,0.87111 -0.29038,0.77433 -0.58075,1.54865 -0.29037,0.77433 -0.48395,1.45186 v 0.67754 q 0,0.0968 0.19358,0.29037 0.19358,0.0968 0.38716,0.0968 0.48396,0 0.77433,-0.0968 0.77432,-0.29037 1.54865,-0.67753 0.87112,-0.38717 1.64544,-0.77433 1.16149,-0.77432 2.41977,-1.54865 1.25828,-0.87112 2.41977,-1.64544 1.64544,-0.87112 3.29088,-1.45186 0.29037,-0.0968 0.67754,-0.0968 0.19358,0 0.38716,0.19358 0.19358,0.19358 0.19358,0.38716 l -0.58074,0.87112 q -0.58075,0.58074 -1.16149,1.16149 -0.58075,0.58074 -1.16149,1.06469 -1.35507,0.87112 -2.51656,1.83903 -1.16149,0.9679 -2.41977,1.83902 -0.67753,0.48395 -1.45186,0.96791 -0.77432,0.38716 -1.54865,0.87111 -1.45186,0.77433 -3.58125,0.77433 z m -0.0968,-15.00256 q 0,-0.58074 -0.48395,-0.58074 -0.38716,0.19358 -0.67753,0.19358 -0.29038,0 -0.58075,0.19358 -0.77432,0.19358 -1.35507,0.58074 -0.58074,0.29037 -1.16149,0.77433 -0.77432,0.58074 -1.54865,1.35507 -0.77432,0.77432 -1.54865,1.54865 -1.16149,1.35507 -2.22618,2.90372 -1.0647,1.45186 -2.1294,2.90372 v 0.38716 q -0.0968,0.19359 -0.0968,0.29038 0.0968,0 0.0968,0.0968 h 0.67753 q 0.29038,-0.29037 0.58075,-0.38717 0.29037,-0.19358 0.58074,-0.48395 1.25828,-1.0647 2.51656,-2.12939 1.25828,-1.16149 2.41977,-2.22619 1.0647,-0.96791 2.0326,-1.83902 1.0647,-0.96791 2.03261,-1.93582 0.29037,-0.29037 0.48395,-0.48395 0.19358,-0.29037 0.38716,-0.77433 0.0968,-0.19358 0,-0.19358 0,-0.0968 0,-0.19358 z"
           style="font-family:Abuget;-inkscape-font-specification:Abuget"
           id="path18761" />
        <path
           d="m 170.50456,207.12168 q 1.0647,-0.67754 2.1294,-1.35507 1.16149,-0.67753 2.12939,-1.54865 1.16149,-0.87112 2.51656,-1.54865 1.45186,-0.77433 2.71014,-1.64544 0.38717,-0.19359 0.77433,-0.38717 0.48395,-0.29037 0.96791,-0.48395 0.48395,-0.19358 0.87111,-0.38716 0.38716,-0.19358 0.96791,-0.38717 0.38716,-0.0968 0.19358,0.29038 0.0968,0.29037 0,0.48395 -0.0968,0.19358 -0.19358,0.48395 l -2.03261,1.54865 q -0.29037,0.19359 -0.67753,0.48396 -0.29037,0.19358 -0.58074,0.38716 l -3.67805,3.48447 q -1.16149,1.06469 -2.41977,2.12939 -1.16149,1.0647 -2.51656,2.1294 -0.48395,0.29037 -0.9679,0.67753 -0.38717,0.38716 -0.87112,0.77433 -0.38716,0.29037 -0.77433,0.58074 -0.29037,0.29037 -0.48395,0.38716 -1.35507,0.48396 -2.1294,-0.19358 l -0.48395,-0.38716 q -0.67753,-0.87112 -0.87112,-1.25828 -0.19358,-0.38716 0.0968,-1.74223 l 0.38716,-1.64544 q 0.48395,-1.35507 0.87111,-2.61335 0.38717,-1.25828 0.96791,-2.61335 l 0.87112,-2.41977 0.19358,-0.96791 q 0,-0.38716 -0.38716,-0.58074 -0.29038,0 -0.48396,0.0968 l -2.32297,2.32298 q -0.58075,0.67753 -1.35507,1.25828 -0.67754,0.48395 -1.45186,0.67753 -0.29038,0.19358 -0.48396,0.29037 -0.19358,0.0968 -0.38716,0.38717 -0.29037,0.58074 -1.35507,1.06469 l -0.67754,0.29038 q -0.87111,0.38716 -1.25827,-0.58075 -0.38717,-0.58074 -0.19359,-1.45186 0.38717,-0.77432 0.67754,-1.45186 0.19358,-0.67753 0.48395,-1.35507 0.48396,-0.77432 0.87112,-1.64544 0.38716,-0.87112 0.67753,-1.83902 0.19359,-0.77433 0.58075,-1.35507 0.29037,-0.87112 0.67753,-1.74224 0.38717,-0.87111 0.67754,-1.83902 0.19358,-0.58074 0.38716,-1.0647 0.29037,-0.48395 0.48395,-0.96791 0.19359,-0.48395 0.87112,-0.48395 h 0.96791 q 0.29037,0 0.58074,0.0968 0.38716,0 0.58075,0.29037 0.87111,0.67754 0.67753,1.54866 0,0.48395 -0.19358,0.9679 -0.19358,0.38717 -0.19358,0.87112 0.0968,0.19358 0.38716,0.19358 0.29037,0 0.48395,-0.0968 0.77433,-0.77433 1.64545,-1.35507 0.9679,-0.58074 1.74223,-1.35507 0.96791,-0.67754 2.41977,-0.67754 1.06469,0 1.54865,0.58075 0.0968,0.19358 0.19358,0.38716 0.0968,0.0968 0.0968,0.29037 0.29037,0.58075 0.19358,0.77433 -0.19358,0.77433 -0.38716,1.25828 l -3.38768,7.35609 -1.74223,4.45237 q -0.48395,1.16149 -0.29037,1.93582 0,0.29037 0.29037,0.29037 h 0.19358 v 0.0968 z"
           style="font-family:Abuget;-inkscape-font-specification:Abuget"
           id="path18763" />
        <path
           d="m 179.50604,204.99228 q 0.19358,-0.58074 0.29037,-0.87111 0.0968,-0.38716 0.29037,-0.58075 0.77433,-2.32297 2.32298,-4.45237 1.54865,-2.22618 2.22618,-3.67805 0.19358,-0.38716 0.29037,-0.77432 0.0968,-0.38716 0.29038,-0.87112 0.19358,-0.48395 0.38716,-0.9679 0.29037,-0.48396 0.67753,-0.77433 0.19359,-0.48395 0.48396,-0.58074 0.29037,-0.0968 0.77432,-0.19359 h 0.29038 q 1.16148,-0.0968 1.74223,1.16149 0.29037,0.29038 0.0968,0.96791 -0.38716,0.77433 -0.58074,0.96791 -0.87112,1.35507 -1.74224,2.41976 -0.77432,1.0647 -1.45186,2.51656 -0.48395,0.77433 -1.0647,1.93582 -0.58074,1.16149 -0.9679,1.93581 -0.19358,0.19358 -0.48396,0.96791 -0.19358,0.77432 -0.19358,1.0647 -0.0968,0.19358 0.29037,0.29037 0.38717,0.0968 0.58075,0.0968 0.87111,-0.0968 2.12939,-0.58075 1.35507,-0.48395 2.80693,-1.06469 1.54866,-0.67754 3.09731,-1.45186 1.54865,-0.87112 3.00051,-1.74224 0.87112,-0.38716 1.54865,-0.77432 0.67753,-0.38716 1.54865,-0.48396 0.19358,0.0968 0.19358,0.48396 v 0.29037 q -0.29037,0.48395 -0.77432,0.87112 -0.48396,0.29037 -0.96791,0.67753 -1.0647,0.87112 -2.80693,2.03261 -1.64544,1.16148 -3.48447,2.32297 -1.74223,1.0647 -3.48446,2.03261 -1.64544,0.87111 -2.71014,1.25828 -1.0647,0.48395 -2.32298,0.19358 l -0.87111,-0.29037 q -1.25828,-0.58075 -1.54866,-1.93582 -0.19358,-0.29037 -0.0968,-0.38716 0.0968,-0.0968 0,-0.38716 0,-0.77433 0.0968,-1.16149 0,-0.19358 0.0968,-0.38716 0.0968,-0.19359 0,-0.0968 z m 8.42079,-16.74479 q 0.0968,-0.19358 0.0968,-0.38716 0,-0.29037 0.0968,-0.48395 0.19358,-0.77433 0.48395,-1.35507 0.29037,-0.58075 0.58075,-1.16149 0.0968,-0.19358 0.19358,-0.29037 0.19358,-0.0968 0.38716,-0.29038 1.64544,-0.48395 2.71014,0.58075 0.87112,0.87111 0.29037,1.54865 -0.38716,1.0647 -1.45186,2.12939 -0.77432,0.87112 -2.12939,1.0647 -0.19359,0 -0.29038,0 -0.0968,-0.0968 -0.19358,-0.0968 -0.67753,-0.19358 -0.67753,-0.67753 0,-0.29038 -0.0968,-0.58075 z"
           style="font-family:Abuget;-inkscape-font-specification:Abuget"
           id="path18765" />
        <path
           d="m 204.57479,189.60256 q -0.19359,0.58075 -0.38717,1.35507 -0.19358,0.77433 -0.67753,1.54865 -0.58075,1.35507 -1.25828,2.61335 -0.58075,1.25828 -1.16149,2.61335 -0.38716,1.0647 -0.77433,1.93582 -0.29037,0.87111 -0.48395,1.93581 -0.19358,0.77433 -0.29037,1.74223 0,0.87112 0,1.64544 0.19358,1.93582 0.96791,2.61335 0.87111,0.67754 2.80693,0.48396 2.90372,-0.29038 5.42028,-1.54865 0.77432,-0.38717 1.45186,-0.67754 0.67753,-0.38716 1.45186,-0.58074 0.19358,0 0.38716,0.0968 0.29037,0.0968 0.67753,0.0968 -1.06469,1.35507 -1.93581,2.61335 -0.87112,1.25828 -2.22619,1.93581 -3.00051,1.54865 -6.38818,1.0647 -2.80693,-0.38716 -4.54917,-2.71014 -1.74223,-2.41977 -1.54865,-5.2267 0.19359,-1.35507 0.67754,-2.71014 0.48395,-1.45186 0.87111,-3.00051 1.0647,-2.32298 2.1294,-4.64595 1.0647,-2.32298 2.41977,-4.45238 0.67753,-0.77432 1.0647,-1.64544 0.38716,-0.87111 0.87111,-1.83902 0.48396,-1.16149 0,-2.41977 -0.58074,0 -1.0647,-0.0968 -0.48395,-0.0968 -1.16148,-0.0968 -2.32298,0 -4.83954,0.0968 -2.41977,0.0968 -4.93633,0.0968 -1.83902,0 -3.48446,-0.19358 -1.64544,-0.19358 -3.38767,-0.77433 -0.58075,-0.19358 -0.96791,-0.58074 -0.48396,-0.38716 -1.0647,-0.77433 0.96791,-0.58074 1.93581,-0.67753 0.87112,-0.0968 1.64545,-0.0968 h 17.32553 2.32298 q 1.54865,-1.74223 2.32298,-3.77484 0.77432,-1.25828 1.54865,-2.41977 0.77432,-1.16149 1.35507,-2.32297 0.19358,-0.19359 0.29037,-0.38717 0.0968,-0.29037 0.29037,-0.48395 0.58075,-0.58074 1.35507,-0.77433 0.77433,-0.19358 1.54865,-0.19358 1.0647,0 1.35507,0.58075 0.29037,0.58074 0.77433,1.25828 -1.64544,1.93581 -3.1941,3.87162 -1.45186,1.93582 -2.71014,4.162 3.09731,0.38717 5.90424,0.19359 2.80693,-0.19359 5.61386,-0.19359 2.61335,0.19359 5.32349,0.0968 2.71014,-0.0968 5.2267,-0.0968 2.71013,0.19359 5.51707,0.29038 2.80693,0 5.61386,0.19358 -4.54917,1.54865 -10.16303,1.54865 -2.71014,0.19358 -5.32349,0.38716 -2.51655,0.19358 -5.22669,0.38716 -2.90373,0.19359 -5.90424,0.29038 -3.00051,0.0968 -6.00102,0.29037 h -1.0647 q -1.16149,0 -1.93581,0.48395 -0.77433,0.38717 -1.16149,1.54865 -0.48395,1.0647 -1.16149,2.03261 -0.67753,0.96791 -1.25828,2.0326 h -0.19358 q -0.19358,0.38717 -0.29037,0.67754 -0.0968,0.19358 -0.29037,0.58074 z"
           style="font-family:Abuget;-inkscape-font-specification:Abuget"
           id="path18767" />
        <path
           d="m 209.89824,204.99228 q 0.19358,-0.58074 0.29037,-0.87111 0.0968,-0.38716 0.29037,-0.58075 0.77433,-2.32297 2.32298,-4.45237 1.54865,-2.22618 2.22619,-3.67805 0.19358,-0.38716 0.29037,-0.77432 0.0968,-0.38716 0.29037,-0.87112 0.19358,-0.48395 0.38716,-0.9679 0.29038,-0.48396 0.67754,-0.77433 0.19358,-0.48395 0.48395,-0.58074 0.29037,-0.0968 0.77433,-0.19359 h 0.29037 q 1.16149,-0.0968 1.74223,1.16149 0.29038,0.29038 0.0968,0.96791 -0.38716,0.77433 -0.58074,0.96791 -0.87112,1.35507 -1.74223,2.41976 -0.77433,1.0647 -1.45186,2.51656 -0.48396,0.77433 -1.0647,1.93582 -0.58075,1.16149 -0.96791,1.93581 -0.19358,0.19358 -0.48395,0.96791 -0.19358,0.77432 -0.19358,1.0647 -0.0968,0.19358 0.29037,0.29037 0.38716,0.0968 0.58074,0.0968 0.87112,-0.0968 2.1294,-0.58075 1.35507,-0.48395 2.80693,-1.06469 1.54865,-0.67754 3.0973,-1.45186 1.54865,-0.87112 3.00051,-1.74224 0.87112,-0.38716 1.54865,-0.77432 0.67754,-0.38716 1.54866,-0.48396 0.19358,0.0968 0.19358,0.48396 v 0.29037 q -0.29038,0.48395 -0.77433,0.87112 -0.48395,0.29037 -0.96791,0.67753 -1.06469,0.87112 -2.80693,2.03261 -1.64544,1.16148 -3.48446,2.32297 -1.74223,1.0647 -3.48447,2.03261 -1.64544,0.87111 -2.71014,1.25828 -1.06469,0.48395 -2.32297,0.19358 l -0.87112,-0.29037 q -1.25828,-0.58075 -1.54865,-1.93582 -0.19358,-0.29037 -0.0968,-0.38716 0.0968,-0.0968 0,-0.38716 0,-0.77433 0.0968,-1.16149 0,-0.19358 0.0968,-0.38716 0.0968,-0.19359 0,-0.0968 z m 8.42079,-16.74479 q 0.0968,-0.19358 0.0968,-0.38716 0,-0.29037 0.0968,-0.48395 0.19358,-0.77433 0.48396,-1.35507 0.29037,-0.58075 0.58074,-1.16149 0.0968,-0.19358 0.19358,-0.29037 0.19358,-0.0968 0.38716,-0.29038 1.64545,-0.48395 2.71014,0.58075 0.87112,0.87111 0.29038,1.54865 -0.38717,1.0647 -1.45186,2.12939 -0.77433,0.87112 -2.1294,1.0647 -0.19358,0 -0.29037,0 -0.0968,-0.0968 -0.19358,-0.0968 -0.67754,-0.19358 -0.67754,-0.67753 0,-0.29038 -0.0968,-0.58075 z"
           style="font-family:Abuget;-inkscape-font-specification:Abuget"
           id="path18769" />
        <path
           d="m 241.64554,208.37996 q -1.25828,0 -2.41977,-0.38716 -0.19358,-0.0968 -0.38716,-0.19359 -0.19358,-0.19358 -0.38716,-0.29037 -0.87112,-1.0647 -0.77433,-2.0326 0.0968,-0.58075 0.29037,-1.0647 0.19359,-0.48395 0.0968,-0.87112 0,-0.38716 -0.38716,-0.38716 -0.0968,0.0968 -0.19358,0.0968 -0.0968,0 -0.19358,0.0968 -0.67754,0.96791 -1.35507,1.45186 -0.48395,0.38717 -0.87112,0.67754 -0.38716,0.29037 -0.87111,0.58074 -0.48396,0.38716 -0.96791,0.87112 -0.38716,0.38716 -0.96791,0.67753 -2.12939,1.64545 -5.03311,1.35507 -0.77433,0 -1.74224,-0.77432 -0.38716,-0.58075 -0.67753,-0.87112 -0.67754,-0.87112 -0.0968,-1.64544 0.29037,-0.67754 0.58074,-1.35507 0.19358,-0.67754 0.19358,-1.45186 0.29038,-0.96791 0.58075,-1.16149 0.48395,-0.77433 0.9679,-1.35507 0.48396,-0.58074 1.16149,-1.16149 0.48396,-0.48395 0.96791,-0.9679 0.48395,-0.58075 0.96791,-1.0647 0.29037,-0.38717 0.67753,-0.67754 0.38716,-0.29037 0.77433,-0.77432 0.48395,-0.38717 0.77432,-0.77433 0.38717,-0.38716 0.77433,-0.77432 1.45186,-1.54866 3.0973,-2.1294 l 2.61335,-1.16149 q 0.29037,-0.19358 0.67754,-0.19358 0.38716,-0.0968 0.77432,-0.19358 0.58075,-0.29037 1.25828,0 h 0.19358 q 0.58075,0.29037 1.25828,0.38716 0.77433,0.0968 1.45186,0.19358 0.96791,0.19358 1.25828,0.77433 0.38716,0.48395 0.19358,1.16149 0,1.35507 -0.67753,2.71014 -0.29038,0.77432 -0.67754,1.54865 -0.38716,0.77432 -0.58074,1.54865 -0.19358,0.48395 -0.38717,0.96791 -0.19358,0.38716 -0.38716,0.87111 -0.29037,0.77433 -0.58074,1.54865 -0.29037,0.77433 -0.48396,1.45186 v 0.67754 q 0,0.0968 0.19359,0.29037 0.19358,0.0968 0.38716,0.0968 0.48395,0 0.77432,-0.0968 0.77433,-0.29037 1.54866,-0.67753 0.87111,-0.38717 1.64544,-0.77433 1.16149,-0.77432 2.41976,-1.54865 1.25828,-0.87112 2.41977,-1.64544 1.64544,-0.87112 3.29089,-1.45186 0.29037,-0.0968 0.67753,-0.0968 0.19358,0 0.38716,0.19358 0.19359,0.19358 0.19359,0.38716 l -0.58075,0.87112 q -0.58074,0.58074 -1.16149,1.16149 -0.58074,0.58074 -1.16149,1.06469 -1.35507,0.87112 -2.51655,1.83903 -1.16149,0.9679 -2.41977,1.83902 -0.67754,0.48395 -1.45186,0.96791 -0.77433,0.38716 -1.54865,0.87111 -1.45186,0.77433 -3.58126,0.77433 z m -0.0968,-15.00256 q 0,-0.58074 -0.48395,-0.58074 -0.38717,0.19358 -0.67754,0.19358 -0.29037,0 -0.58074,0.19358 -0.77433,0.19358 -1.35507,0.58074 -0.58075,0.29037 -1.16149,0.77433 -0.77433,0.58074 -1.54865,1.35507 -0.77433,0.77432 -1.54865,1.54865 -1.16149,1.35507 -2.22619,2.90372 -1.0647,1.45186 -2.12939,2.90372 v 0.38716 q -0.0968,0.19359 -0.0968,0.29038 0.0968,0 0.0968,0.0968 h 0.67753 q 0.29037,-0.29037 0.58074,-0.38717 0.29038,-0.19358 0.58075,-0.48395 1.25828,-1.0647 2.51656,-2.12939 1.25828,-1.16149 2.41976,-2.22619 1.0647,-0.96791 2.03261,-1.83902 1.0647,-0.96791 2.0326,-1.93582 0.29038,-0.29037 0.48396,-0.48395 0.19358,-0.29037 0.38716,-0.77433 0.0968,-0.19358 0,-0.19358 0,-0.0968 0,-0.19358 z"
           style="font-family:Abuget;-inkscape-font-specification:Abuget"
           id="path18771" />
        <path
           d="m 88.813476,279.12264 q 0.580745,-0.19358 1.25828,-0.48395 0.774325,-0.29037 1.258279,-0.48395 1.742232,-0.96791 3.774837,-1.25828 2.032605,-0.38717 4.258791,-0.87112 0.193581,0 0.580744,0.0968 0.483953,0 0.967903,0.48395 0.67754,0 1.16149,-0.29037 0.48396,-0.38716 0.96791,-0.87111 2.1294,-1.64545 4.06521,-3.58126 2.0326,-1.93581 3.58126,-4.162 1.45186,-1.93581 3.00051,-3.67805 1.54865,-1.74223 2.80693,-3.77483 0.29037,0 0.48395,-0.19359 0.19358,-0.29037 0.19358,-0.48395 1.35507,-2.32298 2.61335,-4.54916 1.25828,-2.32298 2.61335,-4.64596 0.58074,-0.9679 0.96791,-1.74223 0.29037,-0.19358 0.48395,-0.58074 0.29037,-0.38717 0.29037,-0.58075 0.19358,-1.64544 0.87112,-3.19409 0.67753,-1.54865 0.87112,-3.0973 0.77432,-3.29089 1.16148,-6.67856 0.38717,-3.48447 -0.19358,-6.77535 -0.48395,-1.93581 -1.25828,-3.87163 -0.77432,-1.93581 -2.22618,-3.29088 -1.16149,-1.74224 -3.38768,-2.03261 -2.22618,-0.38716 -3.77483,1.0647 -1.25828,0.38716 -1.64545,1.35507 -0.67753,0 -1.16149,0.67754 -2.22618,0.19358 -3.77483,1.83902 -1.45186,1.64544 -3.0973,3.19409 -1.35507,1.0647 -2.61335,2.51656 -1.16149,1.35507 -2.1294,2.41977 -0.19358,0.38716 -0.38716,0.48395 -0.0968,0 -0.77433,0 v -1.0647 q 0.67754,-0.48395 1.0647,-0.77432 0.48395,-0.29037 0.67753,-0.77433 0.77433,-0.87111 1.64545,-1.64544 0.87111,-0.87112 1.25828,-2.1294 0.48395,-1.25827 1.35507,-2.12939 0.9679,-0.87112 1.54865,-1.64544 1.16149,-1.0647 1.93581,-1.83903 0.77433,-0.77432 1.54865,-1.83902 1.45186,-2.0326 4.54917,-2.0326 1.74223,0 3.48446,0.0968 1.74223,0.0968 3.38768,0.87111 2.41976,1.0647 3.77483,3.00051 1.35507,1.83903 2.22619,4.16201 2.51656,6.1946 0.96791,12.486 -0.48396,3.29088 -1.54866,6.58176 -0.9679,3.1941 -2.22618,6.38819 -0.77433,1.54865 -1.83902,3.19409 -0.96791,1.64545 -2.03261,3.09731 -1.54865,2.41976 -3.0973,4.54916 -1.54865,2.0326 -3.0973,4.35558 -1.64545,2.0326 -3.38768,4.162 -1.64544,2.03261 -3.0973,4.35558 -0.77433,0.67754 -1.45186,1.35507 -0.67754,0.67754 -0.67754,1.74223 0.48396,0.77433 1.16149,0.96791 0.77433,0.0968 1.25828,0.0968 3.0973,0.38717 6.00102,1.0647 2.90373,0.58074 5.80745,1.16149 1.16148,0.48395 2.32297,1.25828 1.25828,0.67753 1.74224,2.22618 -0.77433,0.48396 -1.45186,0.19359 -0.58075,-0.29038 -1.35507,-0.77433 -0.77433,-0.19358 -1.54866,-0.38716 -0.77432,-0.19358 -1.54865,-0.48396 -0.77432,0 -1.54865,-0.0968 -0.77432,-0.19358 -1.54865,-0.19358 -0.77433,-0.19358 -1.74223,-0.29037 -0.87112,-0.0968 -1.74224,-0.38716 -0.77432,0 -1.54865,-0.19359 -0.67753,-0.29037 -1.45186,-0.58074 -0.77432,0 -1.64544,-0.0968 -0.77432,-0.19358 -1.35507,-0.19358 -0.87111,-0.38716 -1.64544,-0.38716 -0.77433,-0.0968 -1.64544,-0.0968 -1.93582,1.64545 -3.87163,3.1941 -1.839024,1.45186 -3.774838,2.61335 -2.516558,1.83902 -5.226698,3.00051 -2.613349,1.25828 -5.51707,1.25828 -4.645954,0.19358 -8.033628,-2.61335 -3.290884,-2.71014 -4.355582,-7.45289 -0.483954,-2.51655 -0.290372,-4.74274 0.09679,-2.32298 0.580744,-4.93633 1.451861,-4.0652 2.71014,-8.22721 1.35507,-4.25879 3.194093,-8.03362 1.35507,-2.80693 2.419768,-5.51707 1.064697,-2.71014 2.419767,-5.2267 0.580744,-1.35507 1.064698,-2.41977 0.483953,-1.0647 1.258279,-2.0326 0.871116,-1.35507 1.548651,-2.71014 0.774326,-1.35507 1.35507,-3.00052 0,-0.38716 0.290372,-0.87111 0.290372,-0.48396 0.871117,-0.67754 0.677534,-0.48395 1.161488,-1.35507 0.483953,-0.87111 0.677535,-1.64544 0.774325,-1.93581 2.226186,-3.48446 1.451861,-1.64545 2.613349,-2.90372 1.451861,-1.0647 3.000511,-1.35507 1.54865,-0.38717 2.90372,0.67753 0.29037,0.19358 0.58075,0.48395 0.29037,0.29038 0.58074,0.48396 -0.19358,0.0968 -0.38716,0.19358 -0.0968,0 -0.19358,0.0968 -0.19359,0.0968 -0.19359,0.19358 -2.12939,0.67754 -3.67804,2.1294 -1.548653,1.35507 -2.903723,2.80693 -4.355582,5.1299 -7.356094,11.03414 -2.903721,5.80744 -5.51707,12.00204 -1.161488,2.80693 -2.322976,5.32349 -1.064698,2.41977 -1.645442,5.51707 -0.483954,2.61335 -1.548652,5.12991 -1.064697,2.51656 -1.645442,5.03312 -0.387162,2.51655 -0.580744,5.1299 -0.09679,2.61335 0.871117,5.42028 0.483953,1.54865 1.355069,2.32298 0.967907,0.87112 2.613349,1.45186 1.35507,0.77433 3.097303,0.77433 1.742232,0 3.387674,-0.77433 0.09679,-0.0968 0.193582,-0.29037 0.09679,-0.19358 0.193581,-0.29037 0.09679,0 0.290372,-0.19359 -0.774325,-0.38716 -1.258279,-1.25827 -1.45186,-1.45186 -1.839023,-2.71014 -1.064698,-3.67805 -0.967907,-7.16252 0.193581,-3.48446 0.967907,-6.67855 0.483953,-3.96842 1.548651,-7.45289 1.064698,-3.58125 2.613349,-6.96893 1.35507,-2.80693 2.613349,-5.42028 1.258279,-2.61335 2.613349,-5.12991 0.193581,-0.48395 0.483954,-0.9679 0.387162,-0.48396 0.871116,-0.96791 0.387163,1.45186 0,3.00051 -0.193582,1.0647 -0.580744,2.1294 -0.290372,1.0647 -0.774326,2.12939 -0.871116,2.51656 -1.839023,5.2267 -0.871117,2.61335 -1.645442,5.2267 -1.35507,3.38767 -2.226186,6.96893 -0.774326,3.48446 -1.25828,7.2593 v 5.03312 q 0,0.38716 0,0.67753 0.09679,0.19359 0.387163,0.58075 0,0.29037 0.193582,0.38716 0.193581,0.0968 0.387162,0.29037 z m 2.226187,4.54917 h 1.258279 q 1.645442,-0.67754 2.903721,-1.64545 1.258279,-0.9679 2.226186,-2.61335 -1.935814,0.87112 -3.581256,1.74224 -1.645442,0.77432 -2.80693,2.51656 z"
           style="font-family:Abuget;-inkscape-font-specification:Abuget"
           id="path18773" />
        <path
           d="m 134.20818,248.82715 q 0.38717,0.19358 0.77433,0.38717 0.38716,0.0968 0.58074,0.0968 0.48396,0.58074 0.29038,0.77432 -0.77433,1.16149 -1.93582,3.48447 -1.16149,2.22618 -2.12939,4.35558 -0.87112,2.12939 -1.25828,3.58125 -0.29037,1.35507 0.77432,0.77433 0.58075,-0.38716 0.87112,-0.58074 0.29037,-0.29038 0.67753,-0.48396 2.61335,-2.32297 5.2267,-4.83953 2.61335,-2.61335 5.12991,-4.93633 0.58074,-0.67753 1.0647,-0.96791 0.48395,-0.38716 1.25828,-0.38716 0.38716,-0.19358 0.87111,0.0968 0.58075,0.19358 1.64544,0.96791 0,0.38716 -0.0968,1.0647 0,0.58074 -0.38716,0.77432 -1.35507,0.96791 -1.83902,2.41977 -0.48396,1.35507 -1.54865,2.71014 -0.77433,1.16149 -1.0647,2.61335 -0.19358,1.35507 0.58074,3.0973 0.38717,0 0.87112,0 0.58074,0 0.96791,-0.19358 2.12939,-0.58074 4.06521,-1.16149 2.0326,-0.67753 3.96841,-1.45186 1.16149,-0.48395 2.32298,-0.96791 1.25828,-0.58074 2.71014,-0.58074 -0.19358,0.58074 -0.96791,1.74223 -0.77432,1.16149 -1.16148,1.35507 -1.93582,1.35507 -4.2588,2.41977 -2.22618,0.96791 -4.35558,2.0326 -0.9679,0.38717 -1.83902,0.58075 -0.77433,0.19358 -1.83902,0.19358 -0.77433,0.0968 -1.64545,-0.29037 -0.87111,-0.38716 -1.54865,-0.96791 -0.67753,-0.67753 -1.16149,-1.54865 -0.38716,-0.87112 -0.29037,-1.64544 0,-0.77433 0.0968,-1.74223 0.19358,-0.96791 0.19358,-2.1294 -0.48395,0.38716 -0.87111,0.67754 -0.29037,0.19358 -0.48396,0.58074 -1.16148,1.35507 -2.51655,2.80693 -1.35507,1.35507 -2.51656,2.71014 -0.58075,0.38716 -1.35507,0.87112 -0.77433,0.48395 -1.54865,0.67753 -1.16149,0.67754 -2.32298,-0.48395 -0.67753,-0.67754 -1.0647,-1.35507 -0.38716,-0.77433 -0.38716,-1.83903 0,-1.54865 0.48395,-2.90372 0.48396,-1.45186 0.96791,-2.80693 0.96791,-2.32297 2.03261,-4.35558 1.06469,-2.0326 2.12939,-4.25879 0.19358,-0.38716 0.38716,-0.58074 0.19358,-0.19359 0.67754,-0.38717 z"
           style="font-family:Abuget;-inkscape-font-specification:Abuget"
           id="path18775" />
        <path
           d="m 153.75987,264.70083 q 1.35507,-3.1941 2.51655,-6.38819 1.16149,-3.29088 1.35507,-6.67856 0.67754,-0.38716 1.0647,-0.58074 0.48396,-0.19358 0.87112,-0.0968 0.48395,0.0968 0.96791,0.58074 0.58074,0.38717 1.35507,1.16149 0.67753,-0.38716 1.06469,-0.77432 0.38717,-0.48396 0.77433,-1.0647 1.35507,-0.96791 2.61335,-1.83903 1.35507,-0.87111 3.00051,-1.25827 1.35507,-0.19359 2.51656,-0.0968 1.25828,0 2.32297,0.58075 0.96791,0.38716 0.96791,1.35507 -0.38716,0.96791 -0.96791,0.96791 -0.48395,0 -0.87111,0 -0.38716,0 -0.87112,-0.19359 -1.16149,0 -2.32298,0.29038 -1.06469,0.19358 -2.0326,1.25828 -2.71014,2.51655 -5.12991,5.32348 -2.41976,2.80693 -3.96842,6.38819 -0.19358,0.58074 -0.48395,1.0647 -0.19358,0.38716 -0.58074,0.96791 -0.48396,1.16148 -1.54866,0.77432 -0.77432,-0.19358 -1.35506,-0.48395 -0.67754,-0.29037 -1.25828,-1.25828 z"
           style="font-family:Abuget;-inkscape-font-specification:Abuget"
           id="path18777" />
        <path
           d="m 199.34809,254.24743 q 0,0.29037 -0.19358,0.38717 -0.0968,0.29037 -1.35507,0.58074 -1.16149,0.19358 -2.61335,0.48395 -1.35507,0.19358 -2.61334,0.48396 -1.16149,0.19358 -1.25828,0.29037 -0.48396,0.38716 -0.67754,1.0647 0,0.29037 -0.0968,0.38716 0,0.48395 -0.19358,0.77432 -0.19358,1.64545 -0.87112,3.1941 -0.58074,1.45186 -1.45186,2.80693 -1.0647,1.74223 -2.51656,3.19409 -1.45186,1.35507 -3.0973,2.61335 -0.77432,0.58074 -1.64544,0.96791 -0.87112,0.38716 -1.74223,0.87111 -0.48396,0.0968 -1.35507,-0.0968 -0.87112,-0.19358 -1.25828,-0.9679 -0.67754,-0.58075 -0.48396,-1.35507 0,-0.77433 0.29038,-1.35507 0.29037,-0.67754 0.58074,-1.45186 0,0 0.0968,-0.0968 0.87112,-1.35506 1.83902,-2.71013 1.0647,-1.35507 2.22619,-2.41977 0.48395,-0.48396 1.0647,-1.0647 0.58074,-0.58074 1.0647,-1.16149 0.29037,-0.48395 0.67753,-0.77432 0.48395,-0.38717 0.96791,-0.67754 0.48395,-0.48395 0.77432,-0.77432 0.29038,-0.38717 0.67754,-0.87112 0.38716,-0.87112 -0.29037,-1.54865 -0.96791,-0.96791 -1.74224,-1.0647 -0.29037,-0.0968 -1.06469,-0.0968 -0.77433,0.0968 -1.74224,0.77433 -0.29037,0.29037 -0.58074,0.58074 -0.29037,0.19358 -0.58074,0.48395 -0.0968,0.0968 -0.77433,1.0647 -0.58074,0.96791 -1.25828,2.1294 -0.67753,1.06469 -1.25828,2.0326 -0.58074,0.96791 -0.58074,1.0647 -0.29037,0.48395 -0.77433,1.16149 -0.38716,0.67753 -0.58074,1.16149 -0.48396,1.35507 -1.16149,2.12939 -0.67754,0.67754 -1.93582,0.38716 -0.77432,0 -0.77432,-0.77432 v -0.77433 q 0.29037,-0.9679 0.58074,-1.83902 0.29038,-0.87112 0.77433,-1.74223 0.58074,-0.87112 0.77432,-1.74224 0.38717,-0.9679 0.96791,-2.32297 0.58075,-1.35507 1.16149,-2.80693 0.67754,-1.45186 1.16149,-2.80693 0.58074,-1.45186 1.0647,-2.32298 0,-0.19358 0.29037,-0.67754 0.87111,-2.0326 1.83902,-4.06521 1.0647,-2.12939 1.93582,-4.25879 0.48395,-0.87111 0.87111,-1.64544 0.38716,-0.87111 0.77433,-1.74223 0.19358,-0.77433 0.58074,-1.54865 0.38716,-0.87112 0.67754,-1.64544 0.77432,-1.64545 1.54865,-3.1941 0.77432,-1.64544 1.54865,-3.29088 0.58074,-1.0647 1.0647,-2.1294 0.58074,-1.06469 1.16149,-2.12939 0.48395,-1.0647 0.77432,-2.1294 0.29037,-1.16149 0.0968,-2.32297 -0.19358,-0.19359 0.19358,-0.38717 0.29038,-0.48395 0.67754,-0.58074 0.48395,-0.19358 0.96791,-0.38716 0.48395,-0.0968 0.87111,0.0968 0.48396,0.0968 0.87112,0.29037 0.19358,0.19358 0.38716,0.67753 0.19358,0.48396 0,0.77433 -0.0968,0.19358 -0.0968,0.48395 -0.77433,1.54865 -1.45186,3.09731 -0.58074,1.45186 -1.35507,2.90372 -0.67754,1.35507 -1.25828,2.80693 -0.58074,1.35507 -1.35507,2.61335 -1.16149,2.41976 -2.32298,4.83953 -1.06469,2.41977 -2.32297,4.74275 -0.67754,1.45186 -1.35507,2.80693 -0.58075,1.35507 -1.25828,2.71014 -0.58075,1.16148 -1.0647,2.41976 -0.48395,1.25828 -0.77433,2.61335 -0.19358,0.0968 0,0.29037 0.19359,0.19359 0.38717,0.19359 h 0.38716 q 0.48395,-0.0968 0.87112,-0.0968 0.38716,-0.0968 0.87111,-0.29037 0.58075,-0.0968 0.96791,-0.0968 0.48395,0 1.16149,0 0.67753,0 1.35507,0.0968 0.67753,0.0968 1.25828,0.38717 0.48395,0.19358 0.9679,0.48395 0.58075,0.29037 0.96791,0.77432 0.29037,0.0968 0.58075,0.38717 0.38716,0.29037 1.06469,0.29037 0.0968,0 1.25828,0.0968 1.25828,0 2.61335,0.0968 1.45186,0 2.61335,0 1.25828,0 1.45186,0 0.19358,0 0.19358,0.0968 0.0968,0 0.29037,0.0968 z m -13.74428,7.74326 q 0,-0.19358 -0.19358,-0.29037 -0.19358,-0.0968 -0.29037,0 -0.77432,0.29037 -1.45186,0.9679 -0.96791,1.0647 -1.83902,2.1294 -0.87112,1.0647 -1.64544,2.32298 0,0.19358 -0.0968,0.29037 0,0 0,0.19358 v 0.19358 q 0,0.19358 0,0.19358 0.0968,0 0.0968,0.0968 0.0968,0.0968 0.38716,0.0968 0.48395,-0.19358 0.67753,-0.38716 0.19358,-0.29037 0.58075,-0.67753 0.58074,-0.48396 1.25828,-1.45186 0.29037,-0.29038 0.58074,-0.58075 0.29037,-0.29037 0.58074,-0.67753 0.38717,-0.48396 0.58075,-0.77433 0.29037,-0.29037 0.48395,-0.67753 0.19358,-0.19359 0.19358,-0.19359 0,-0.0968 0.0968,-0.19358 0.0968,-0.19358 0,-0.29037 0,-0.0968 0,-0.29037 z"
           style="font-family:Abuget;-inkscape-font-specification:Abuget"
           id="path18779" />
        <path
           d="m 208.05926,267.79813 q -1.25828,0 -2.41977,-0.38716 -0.19358,-0.0968 -0.38716,-0.19358 -0.19358,-0.19359 -0.38717,-0.29038 -0.87111,-1.06469 -0.77432,-2.0326 0.0968,-0.58074 0.29037,-1.0647 0.19358,-0.48395 0.0968,-0.87111 0,-0.38717 -0.38716,-0.38717 -0.0968,0.0968 -0.19358,0.0968 -0.0968,0 -0.19358,0.0968 -0.67754,0.96791 -1.35507,1.45186 -0.48396,0.38717 -0.87112,0.67754 -0.38716,0.29037 -0.87112,0.58074 -0.48395,0.38717 -0.9679,0.87112 -0.38717,0.38716 -0.96791,0.67753 -2.1294,1.64545 -5.03312,1.35507 -0.77432,0 -1.74223,-0.77432 -0.38716,-0.58075 -0.67754,-0.87112 -0.67753,-0.87111 -0.0968,-1.64544 0.29038,-0.67753 0.58075,-1.35507 0.19358,-0.67753 0.19358,-1.45186 0.29037,-0.96791 0.58074,-1.16149 0.48396,-0.77432 0.96791,-1.35507 0.48395,-0.58074 1.16149,-1.16149 0.48395,-0.48395 0.96791,-0.9679 0.48395,-0.58075 0.9679,-1.0647 0.29038,-0.38716 0.67754,-0.67754 0.38716,-0.29037 0.77432,-0.77432 0.48396,-0.38716 0.77433,-0.77433 0.38716,-0.38716 0.77433,-0.77432 1.45186,-1.54865 3.0973,-2.1294 l 2.61335,-1.16149 q 0.29037,-0.19358 0.67753,-0.19358 0.38716,-0.0968 0.77433,-0.19358 0.58074,-0.29037 1.25828,0 h 0.19358 q 0.58074,0.29037 1.25828,0.38716 0.77432,0.0968 1.45186,0.19358 0.9679,0.19359 1.25828,0.77433 0.38716,0.48395 0.19358,1.16149 0,1.35507 -0.67754,2.71014 -0.29037,0.77432 -0.67753,1.54865 -0.38716,0.77433 -0.58075,1.54865 -0.19358,0.48395 -0.38716,0.96791 -0.19358,0.38716 -0.38716,0.87111 -0.29037,0.77433 -0.58075,1.54866 -0.29037,0.77432 -0.48395,1.45186 v 0.67753 q 0,0.0968 0.19358,0.29037 0.19358,0.0968 0.38716,0.0968 0.48396,0 0.77433,-0.0968 0.77433,-0.29037 1.54865,-0.67753 0.87112,-0.38716 1.64544,-0.77433 1.16149,-0.77432 2.41977,-1.54865 1.25828,-0.87111 2.41977,-1.64544 1.64544,-0.87112 3.29088,-1.45186 0.29037,-0.0968 0.67754,-0.0968 0.19358,0 0.38716,0.19358 0.19358,0.19358 0.19358,0.38716 l -0.58074,0.87112 q -0.58075,0.58074 -1.16149,1.16149 -0.58075,0.58074 -1.16149,1.06469 -1.35507,0.87112 -2.51656,1.83903 -1.16149,0.96791 -2.41977,1.83902 -0.67753,0.48396 -1.45186,0.96791 -0.77432,0.38716 -1.54865,0.87111 -1.45186,0.77433 -3.58125,0.77433 z m -0.0968,-15.00256 q 0,-0.58074 -0.48396,-0.58074 -0.38716,0.19358 -0.67753,0.19358 -0.29037,0 -0.58075,0.19358 -0.77432,0.19358 -1.35507,0.58074 -0.58074,0.29038 -1.16148,0.77433 -0.77433,0.58074 -1.54866,1.35507 -0.77432,0.77433 -1.54865,1.54865 -1.16149,1.35507 -2.22618,2.90372 -1.0647,1.45186 -2.1294,2.90372 v 0.38717 q -0.0968,0.19358 -0.0968,0.29037 0.0968,0 0.0968,0.0968 h 0.67754 q 0.29037,-0.29037 0.58074,-0.38716 0.29037,-0.19359 0.58074,-0.48396 1.25828,-1.0647 2.51656,-2.12939 1.25828,-1.16149 2.41977,-2.22619 1.0647,-0.96791 2.03261,-1.83902 1.06469,-0.96791 2.0326,-1.93582 0.29037,-0.29037 0.48395,-0.48395 0.19358,-0.29037 0.38717,-0.77433 0.0968,-0.19358 0,-0.19358 0,-0.0968 0,-0.19358 z"
           style="font-family:Abuget;-inkscape-font-specification:Abuget"
           id="path18781" />
        <path
           d="m 229.54668,266.53985 q 1.06469,-0.67753 2.12939,-1.35507 1.16149,-0.67753 2.1294,-1.54865 1.16148,-0.87112 2.51655,-1.54865 1.45187,-0.77433 2.71014,-1.64544 0.38717,-0.19358 0.77433,-0.38717 0.48395,-0.29037 0.96791,-0.48395 0.48395,-0.19358 0.87111,-0.38716 0.38717,-0.19358 0.96791,-0.38716 0.38716,-0.0968 0.19358,0.29037 0.0968,0.29037 0,0.48395 -0.0968,0.19358 -0.19358,0.48395 l -2.0326,1.54866 q -0.29038,0.19358 -0.67754,0.48395 -0.29037,0.19358 -0.58074,0.38716 l -3.67805,3.48447 q -1.16149,1.06469 -2.41977,2.12939 -1.16149,1.0647 -2.51656,2.1294 -0.48395,0.29037 -0.9679,0.67753 -0.38717,0.38717 -0.87112,0.77433 -0.38716,0.29037 -0.77433,0.58074 -0.29037,0.29038 -0.48395,0.38717 -1.35507,0.48395 -2.12939,-0.19359 l -0.48396,-0.38716 q -0.67753,-0.87111 -0.87111,-1.25828 -0.19359,-0.38716 0.0968,-1.74223 l 0.38716,-1.64544 q 0.48395,-1.35507 0.87112,-2.61335 0.38716,-1.25828 0.9679,-2.61335 l 0.87112,-2.41977 0.19358,-0.9679 q 0,-0.38717 -0.38716,-0.58075 -0.29037,0 -0.48396,0.0968 l -2.32297,2.32298 q -0.58075,0.67753 -1.35507,1.25828 -0.67754,0.48395 -1.45186,0.67753 -0.29038,0.19358 -0.48396,0.29037 -0.19358,0.0968 -0.38716,0.38717 -0.29037,0.58074 -1.35507,1.0647 l -0.67753,0.29037 q -0.87112,0.38716 -1.25828,-0.58075 -0.38717,-0.58074 -0.19358,-1.45186 0.38716,-0.77432 0.67753,-1.45186 0.19358,-0.67753 0.48395,-1.35507 0.48396,-0.77432 0.87112,-1.64544 0.38716,-0.87112 0.67754,-1.83902 0.19358,-0.77433 0.58074,-1.35507 0.29037,-0.87112 0.67753,-1.74224 0.38717,-0.87111 0.67754,-1.83902 0.19358,-0.58074 0.38716,-1.0647 0.29037,-0.48395 0.48396,-0.9679 0.19358,-0.48396 0.87111,-0.48396 h 0.96791 q 0.29037,0 0.58074,0.0968 0.38717,0 0.58075,0.29038 0.87111,0.67753 0.67753,1.54865 0,0.48395 -0.19358,0.9679 -0.19358,0.38717 -0.19358,0.87112 0.0968,0.19358 0.38716,0.19358 0.29037,0 0.48396,-0.0968 0.77432,-0.77432 1.64544,-1.35507 0.9679,-0.58074 1.74223,-1.35507 0.96791,-0.67753 2.41977,-0.67753 1.0647,0 1.54865,0.58074 0.0968,0.19358 0.19358,0.38716 0.0968,0.0968 0.0968,0.29038 0.29037,0.58074 0.19358,0.77432 -0.19358,0.77433 -0.38716,1.25828 l -3.38767,7.35609 -1.74224,4.45238 q -0.48395,1.16148 -0.29037,1.93581 0,0.29037 0.29037,0.29037 h 0.19358 v 0.0968 z"
           style="font-family:Abuget;-inkscape-font-specification:Abuget"
           id="path18783" />
      </g>
      <g
         aria-label="1442 H"
         id="text34909"
         style="font-size:18.3324px;line-height:1.1;letter-spacing:0px;stroke-width:0.458309" />
      <g
         aria-label="Masjid Al-Istiqlal"
         id="text34909-3"
         style="font-size:17.3197px;line-height:1.1;letter-spacing:0px;stroke-width:0.432993">
        <path
           d="m 91.002633,135.42395 h 2.545996 v -7.41283 l 3.689096,6.72004 3.671775,-6.72004 v 7.41283 h 2.56332 v -11.89863 h -2.56332 l -3.671775,6.72004 -3.689096,-6.72004 h -2.545996 z"
           style="font-weight:bold;font-family:Metropolis;-inkscape-font-specification:'Metropolis Bold'"
           id="path18724" />
        <path
           d="m 109.58666,126.26183 c -1.24702,0 -2.47671,0.34639 -3.74105,0.98722 l 0.84866,1.68001 c 0.71011,-0.36371 1.4895,-0.64083 2.32084,-0.64083 1.47218,0 2.07837,0.83135 2.07837,1.78393 v 0.19052 c -0.76207,-0.31176 -1.5761,-0.46763 -2.30352,-0.46763 -2.06105,0 -3.70642,1.21238 -3.70642,2.97899 0,1.71465 1.45486,2.85775 3.36002,2.85775 0.98723,0 2.00909,-0.39836 2.64992,-1.10846 v 0.90062 h 2.44207 v -5.35179 c 0,-2.33816 -1.61073,-3.81033 -3.94889,-3.81033 z m -0.57155,7.62067 c -0.86598,0 -1.52413,-0.45032 -1.52413,-1.17774 0,-0.72743 0.74475,-1.26434 1.66269,-1.26434 0.69279,0 1.36826,0.12124 1.93981,0.34639 v 0.81403 c -0.19052,0.83134 -1.10846,1.28166 -2.07837,1.28166 z"
           style="font-weight:bold;font-family:Metropolis;-inkscape-font-specification:'Metropolis Bold'"
           id="path18726" />
        <path
           d="m 118.64481,135.63179 c 2.1996,0 3.65446,-1.12578 3.65446,-2.89239 0,-1.95713 -1.71465,-2.47672 -3.27343,-2.87507 -1.19506,-0.32908 -1.69733,-0.46764 -1.69733,-0.95259 0,-0.50227 0.51959,-0.83134 1.19506,-0.83134 0.83135,0 1.80125,0.39835 2.59796,0.91794 l 0.93526,-1.62805 c -1.00454,-0.65815 -2.25156,-1.10846 -3.53322,-1.10846 -2.113,0 -3.49858,1.21238 -3.49858,2.90971 0,1.76661 1.42022,2.26888 3.27343,2.71919 0.9699,0.24248 1.69733,0.48495 1.69733,1.0565 0,0.51959 -0.45032,0.83135 -1.29898,0.83135 -0.95259,0 -2.13032,-0.43299 -3.06559,-1.09114 l -1.02186,1.59341 c 1.09114,0.86598 2.61527,1.35094 4.03549,1.35094 z"
           style="font-weight:bold;font-family:Metropolis;-inkscape-font-specification:'Metropolis Bold'"
           id="path18728" />
        <path
           d="m 125.03577,125.23997 c 0.76206,0 1.36825,-0.62351 1.36825,-1.38558 0,-0.71011 -0.60619,-1.35094 -1.36825,-1.35094 -0.76207,0 -1.38558,0.64083 -1.38558,1.35094 0,0.76207 0.62351,1.38558 1.38558,1.38558 z m -1.4895,13.26689 c 1.62805,0 2.78847,-1.17774 2.78847,-2.82311 v -9.21408 h -2.52867 v 8.95428 c 0,0.58887 -0.3464,1.00454 -0.84867,1.00454 -0.31175,0 -0.69279,-0.0693 -0.93526,-0.15587 l -0.2598,1.87052 c 0.41568,0.20784 1.16042,0.36372 1.78393,0.36372 z"
           style="font-weight:bold;font-family:Metropolis;-inkscape-font-specification:'Metropolis Bold'"
           id="path18730" />
        <path
           d="m 129.62546,125.23997 c 0.74475,0 1.36825,-0.62351 1.36825,-1.38558 0,-0.71011 -0.6235,-1.35094 -1.36825,-1.35094 -0.77939,0 -1.38558,0.64083 -1.38558,1.35094 0,0.76207 0.60619,1.38558 1.38558,1.38558 z m -1.28166,10.18398 h 2.52868 v -8.95428 h -2.52868 z"
           style="font-weight:bold;font-family:Metropolis;-inkscape-font-specification:'Metropolis Bold'"
           id="path18732" />
        <path
           d="m 139.48035,123.31748 v 4.41652 c -0.71011,-0.91794 -1.76661,-1.47217 -3.01363,-1.47217 -2.39012,0 -4.10477,1.93981 -4.10477,4.67632 0,2.75383 1.71465,4.69364 4.10477,4.69364 1.24702,0 2.30352,-0.55423 3.01363,-1.47218 v 1.26434 h 2.52867 v -12.10647 z m -2.2862,10.18398 c -1.38558,0 -2.3728,-1.0565 -2.3728,-2.56331 0,-1.4895 0.98722,-2.546 2.3728,-2.546 1.35093,0 2.2862,1.0565 2.2862,2.546 0,1.50681 -0.93527,2.56331 -2.2862,2.56331 z"
           style="font-weight:bold;font-family:Metropolis;-inkscape-font-specification:'Metropolis Bold'"
           id="path18734" />
        <path
           d="m 157.90848,135.42395 h 2.85775 l -4.8322,-11.89863 h -2.87507 l -4.83219,11.89863 h 2.85775 l 0.83134,-2.04372 h 5.16127 z m -5.17859,-4.03549 1.76661,-4.32993 1.76661,4.32993 z"
           style="font-weight:bold;font-family:Metropolis;-inkscape-font-specification:'Metropolis Bold'"
           id="path18736" />
        <path
           d="m 162.27301,135.42395 h 2.52868 v -12.10647 h -2.52868 z"
           style="font-weight:bold;font-family:Metropolis;-inkscape-font-specification:'Metropolis Bold'"
           id="path18738" />
        <path
           d="m 166.63755,131.73485 h 4.7456 v -2.14764 h -4.7456 z"
           style="font-weight:bold;font-family:Metropolis;-inkscape-font-specification:'Metropolis Bold'"
           id="path18740" />
        <path
           d="m 173.3749,135.42395 h 2.546 v -11.89863 h -2.546 z"
           style="font-weight:bold;font-family:Metropolis;-inkscape-font-specification:'Metropolis Bold'"
           id="path18742" />
        <path
           d="m 181.48049,135.63179 c 2.1996,0 3.65445,-1.12578 3.65445,-2.89239 0,-1.95713 -1.71465,-2.47672 -3.27342,-2.87507 -1.19506,-0.32908 -1.69733,-0.46764 -1.69733,-0.95259 0,-0.50227 0.51959,-0.83134 1.19506,-0.83134 0.83135,0 1.80125,0.39835 2.59795,0.91794 l 0.93527,-1.62805 c -1.00454,-0.65815 -2.25156,-1.10846 -3.53322,-1.10846 -2.113,0 -3.49858,1.21238 -3.49858,2.90971 0,1.76661 1.42022,2.26888 3.27342,2.71919 0.96991,0.24248 1.69733,0.48495 1.69733,1.0565 0,0.51959 -0.45031,0.83135 -1.29897,0.83135 -0.95259,0 -2.13033,-0.43299 -3.06559,-1.09114 l -1.02186,1.59341 c 1.09114,0.86598 2.61527,1.35094 4.03549,1.35094 z"
           style="font-weight:bold;font-family:Metropolis;-inkscape-font-specification:'Metropolis Bold'"
           id="path18744" />
        <path
           d="m 190.85042,133.20703 c -0.17319,0.1732 -0.50227,0.29443 -0.84866,0.29443 -0.48495,0 -0.84867,-0.41567 -0.84867,-1.00454 v -3.98353 h 1.93981 v -2.04372 h -1.93981 v -2.4594 h -2.44208 v 2.4594 h -1.22969 v 2.04372 h 1.22969 v 4.38188 c 0,1.61074 1.10847,2.73652 2.70188,2.73652 0.71011,0 1.52413,-0.31176 2.04372,-0.77939 z"
           style="font-weight:bold;font-family:Metropolis;-inkscape-font-specification:'Metropolis Bold'"
           id="path18746" />
        <path
           d="m 194.15846,125.23997 c 0.74475,0 1.36826,-0.62351 1.36826,-1.38558 0,-0.71011 -0.62351,-1.35094 -1.36826,-1.35094 -0.77939,0 -1.38558,0.64083 -1.38558,1.35094 0,0.76207 0.60619,1.38558 1.38558,1.38558 z m -1.28166,10.18398 h 2.52868 v -8.95428 h -2.52868 z"
           style="font-weight:bold;font-family:Metropolis;-inkscape-font-specification:'Metropolis Bold'"
           id="path18748" />
        <path
           d="m 204.01335,126.46967 v 1.26433 c -0.7101,-0.91794 -1.76661,-1.47217 -3.01362,-1.47217 -2.39012,0 -4.10477,1.93981 -4.10477,4.67632 0,2.75383 1.71465,4.69364 4.10477,4.69364 1.24701,0 2.30352,-0.55423 3.01362,-1.47218 v 4.24333 h 2.52868 v -11.93327 z m -2.2862,7.03179 c -1.38557,0 -2.3728,-1.0565 -2.3728,-2.56331 0,-1.4895 0.98723,-2.546 2.3728,-2.546 1.35094,0 2.2862,1.0565 2.2862,2.546 0,1.50681 -0.93526,2.56331 -2.2862,2.56331 z"
           style="font-weight:bold;font-family:Metropolis;-inkscape-font-specification:'Metropolis Bold'"
           id="path18750" />
        <path
           d="m 208.68965,135.42395 h 2.52868 v -12.10647 h -2.52868 z"
           style="font-weight:bold;font-family:Metropolis;-inkscape-font-specification:'Metropolis Bold'"
           id="path18752" />
        <path
           d="m 217.17628,126.26183 c -1.24702,0 -2.47672,0.34639 -3.74106,0.98722 l 0.84867,1.68001 c 0.71011,-0.36371 1.48949,-0.64083 2.32084,-0.64083 1.47217,0 2.07836,0.83135 2.07836,1.78393 v 0.19052 c -0.76207,-0.31176 -1.57609,-0.46763 -2.30352,-0.46763 -2.06104,0 -3.70641,1.21238 -3.70641,2.97899 0,1.71465 1.45485,2.85775 3.36002,2.85775 0.98722,0 2.00908,-0.39836 2.64991,-1.10846 v 0.90062 h 2.44208 v -5.35179 c 0,-2.33816 -1.61073,-3.81033 -3.94889,-3.81033 z m -0.57155,7.62067 c -0.86599,0 -1.52414,-0.45032 -1.52414,-1.17774 0,-0.72743 0.74475,-1.26434 1.66269,-1.26434 0.69279,0 1.36826,0.12124 1.93981,0.34639 v 0.81403 c -0.19052,0.83134 -1.10846,1.28166 -2.07836,1.28166 z"
           style="font-weight:bold;font-family:Metropolis;-inkscape-font-specification:'Metropolis Bold'"
           id="path18754" />
        <path
           d="m 222.97835,135.42395 h 2.52867 v -12.10647 h -2.52867 z"
           style="font-weight:bold;font-family:Metropolis;-inkscape-font-specification:'Metropolis Bold'"
           id="path18756" />
      </g>
    </g>
    <path
       id="path18444"
       style="color:#000000;fill:#ffffff;stroke-width:12;stroke-linecap:round;stroke-linejoin:round;-inkscape-stroke:none"
       d="M 960.15234 1086.5234 C 910.10558 1086.5278 865.41464 1117.8558 848.3418 1164.9004 C 836.60897 1159.5114 823.85265 1156.7124 810.94141 1156.6973 C 761.29886 1156.6976 721.05641 1196.9395 721.05664 1246.582 C 783.43883 1250.783 819.56473 1406.1846 764.76172 1462.3496 L 945.42383 1462.3496 C 985.4569 1462.3496 1017.6855 1430.121 1017.6855 1390.0879 L 1017.6855 1101.4121 C 1000.6029 1091.9407 980.98479 1086.5334 960.15234 1086.5234 z "
       transform="matrix(0.26458333,0,0,0.26458333,4.1580048,-20.514)" />
    <path
       id="path18446"
       style="color:#000000;fill:#d99800;stroke-width:3.77953;stroke-linecap:round;stroke-linejoin:round;-inkscape-stroke:none"
       d="M 960.15625 1080.5254 C 909.58077 1080.5292 864.43957 1111.1975 845.11719 1157.5254 C 834.18547 1153.3191 822.69344 1150.711 810.94531 1150.6973 A 6.0005998 6.0005998 0 0 0 810.9375 1150.6973 C 758.05239 1150.6976 715.05446 1193.6949 715.05469 1246.5801 A 6.0005998 6.0005998 0 0 0 720.65039 1252.5684 C 736.21997 1253.6168 751.01552 1266.2477 762.64648 1286.502 C 774.27745 1306.7562 782.34544 1334.0403 784.84375 1361.4805 C 787.34209 1388.9206 784.2414 1416.4964 774.48633 1437.418 C 769.82293 1447.4195 763.78378 1455.8781 756.07422 1462.3496 L 772.34375 1462.3496 C 777.55502 1456.4902 781.93323 1449.8363 785.35938 1442.4883 C 796.38732 1418.8368 799.43768 1389.4153 796.79492 1360.3887 C 794.15216 1331.3621 785.78551 1302.7144 773.04688 1280.5312 C 761.56947 1260.5444 746.03967 1245.9389 727.50781 1242.0703 C 729.89069 1197.823 766.08063 1162.6976 810.93164 1162.6934 C 822.98009 1162.7085 834.88968 1165.3259 845.83984 1170.3555 A 6.0005998 6.0005998 0 0 0 853.98242 1166.9453 C 870.20034 1122.2565 912.60829 1092.5287 960.14844 1092.5215 L 960.15625 1092.5215 C 981.1349 1092.5334 1000.811 1098.2787 1017.6855 1108.2871 L 1017.6855 1094.6914 C 1000.4571 1085.6582 980.89163 1080.5353 960.15625 1080.5254 z "
       transform="matrix(0.26458333,0,0,0.26458333,4.1580048,-20.514)" />
    <path
       id="path17524"
       style="color:#000000;fill:#ffffff;stroke-width:12;stroke-linecap:round;stroke-linejoin:round;-inkscape-stroke:none"
       d="M 641.81445 1177.791 C 578.76819 1177.8213 526.69615 1227.0363 523.10938 1289.9805 C 496.2008 1294.1869 476.36286 1317.3623 476.35742 1344.5977 C 476.49575 1350.9237 477.71794 1418.9179 479.97266 1424.8301 L 536.60156 1424.8301 L 536.60156 1414.0703 C 536.60156 1390.9661 555.20239 1372.3652 578.30664 1372.3652 L 639.71484 1372.3652 C 662.8191 1372.3652 681.41992 1390.9661 681.41992 1414.0703 L 681.41992 1424.8301 L 876.8457 1424.8301 C 879.39617 1416.653 880.76502 1346.414 880.91016 1337.8496 C 880.91038 1288.2071 840.66794 1247.9632 791.02539 1247.9629 C 778.11415 1247.978 765.35783 1250.779 753.625 1256.168 C 736.55216 1209.1234 691.86122 1177.7954 641.81445 1177.791 z "
       transform="matrix(0.26458333,0,0,0.26458333,4.1580048,-20.514)" />
    <path
       id="path17526"
       style="color:#000000;fill:#d99800;stroke-width:3.77953;stroke-linecap:round;stroke-linejoin:round;-inkscape-stroke:none"
       d="M 641.8125 1171.7871 C 577.19267 1171.8173 523.79494 1221.3028 517.81055 1285.1445 C 490.31445 1291.5527 470.36512 1315.9773 470.35938 1344.5977 A 6.0005998 6.0005998 0 0 0 470.35938 1344.7305 C 470.42665 1347.8102 470.76429 1366.4789 471.37109 1385.0645 C 471.67459 1394.3573 472.04658 1403.6397 472.48633 1411.043 C 472.7063 1414.7446 472.94446 1417.9726 473.20898 1420.5566 C 473.47355 1423.1407 473.43734 1424.5213 474.36914 1426.9648 A 6.0005998 6.0005998 0 0 0 479.9707 1430.834 L 536.60156 1430.834 L 536.60156 1418.8301 L 485.10938 1418.8301 C 484.88827 1416.5821 484.66889 1413.7361 484.4668 1410.334 C 484.03877 1403.1279 483.66872 1393.9092 483.36719 1384.6738 C 482.76613 1366.264 482.428 1347.9334 482.35547 1344.5977 L 482.35547 1344.582 C 482.36681 1320.2661 500.00754 1299.662 524.0332 1295.9062 A 6.0005998 6.0005998 0 0 0 529.09766 1290.3262 C 532.50671 1230.5002 581.89062 1183.8236 641.8125 1183.791 L 641.81836 1183.791 C 689.35847 1183.7986 731.76841 1213.526 747.98633 1258.2148 A 6.0005998 6.0005998 0 0 0 756.12695 1261.6172 C 767.07488 1256.5887 778.97553 1253.978 791.02148 1253.9629 C 837.41382 1253.9632 874.89825 1291.4387 874.91016 1337.8281 L 874.91016 1337.8516 C 874.83683 1342.1552 874.46247 1361.7349 873.78711 1381.2793 C 873.44846 1391.0747 873.02997 1400.8513 872.54688 1408.6211 C 872.30536 1412.506 872.047 1415.8927 871.7793 1418.4766 C 871.7604 1418.6769 871.75006 1418.6369 871.72852 1418.8301 L 681.41992 1418.8301 L 681.41992 1430.834 L 876.84375 1430.834 A 6.0005998 6.0005998 0 0 0 882.57227 1426.6172 C 883.23187 1424.5024 883.4209 1422.5727 883.7168 1419.7168 C 884.01273 1416.8609 884.27967 1413.3508 884.52734 1409.3672 C 885.02273 1401.3998 885.43478 1391.5483 885.77539 1381.6914 C 886.45661 1361.9777 886.83886 1342.2789 886.91211 1337.9551 A 6.0005998 6.0005998 0 0 0 886.91211 1337.8516 C 886.91237 1284.9664 843.9066 1241.9672 791.02148 1241.9668 C 779.27335 1241.9819 767.78328 1244.5886 756.85156 1248.7949 C 737.53024 1202.4646 692.38957 1171.7916 641.8125 1171.7871 z "
       transform="matrix(0.26458333,0,0,0.26458333,4.1580048,-20.514)" />
    <path
       id="path47302"
       style="fill:#d99800;fill-opacity:1;stroke:none;stroke-width:12;stroke-linecap:round;stroke-linejoin:round;stroke-miterlimit:4;stroke-dasharray:none;stroke-opacity:1"
       d="M 898.34375 1302.7363 A 128.16032 128.16032 0 0 0 777.88281 1387.1758 A 96.839542 96.839542 0 0 0 737.58789 1378.3379 A 96.839542 96.839542 0 0 0 678.46484 1398.6055 C 680.36429 1403.385 681.41992 1408.5982 681.41992 1414.0703 L 681.41992 1462.3496 L 945.42383 1462.3496 C 985.4569 1462.3496 1017.6855 1430.121 1017.6855 1390.0879 L 1017.6855 1384.6035 A 128.16032 128.16032 0 0 0 898.34375 1302.7363 z "
       transform="matrix(0.26458333,0,0,0.26458333,4.1580048,-20.514)" />
    <path
       id="path17484"
       style="color:#000000;fill:#d99800;stroke-width:3.77953;stroke-linecap:round;stroke-linejoin:round;-inkscape-stroke:none"
       d="M 578.30469 1369.3574 C 553.58688 1369.3574 533.59375 1389.3506 533.59375 1414.0684 L 533.59375 1462.3496 L 539.60938 1462.3496 L 539.60938 1414.0684 C 539.60938 1392.5777 556.81403 1375.373 578.30469 1375.373 L 639.71484 1375.373 C 661.20546 1375.373 678.41211 1392.5777 678.41211 1414.0684 L 678.41211 1462.3496 L 684.42773 1462.3496 L 684.42773 1414.0684 C 684.42773 1389.3506 664.43265 1369.3574 639.71484 1369.3574 L 578.30469 1369.3574 z "
       transform="matrix(0.26458333,0,0,0.26458333,4.1580048,-20.514)" />
    <path
       id="rect39857"
       style="fill:#d99800;fill-opacity:1;stroke:none;stroke-width:6.01296;stroke-linecap:round;stroke-linejoin:round;stroke-miterlimit:4;stroke-dasharray:none;stroke-opacity:1"
       d="M 525.35547 1369.3594 C 502.25122 1369.3594 483.65039 1387.9602 483.65039 1411.0645 L 483.65039 1462.3496 L 628.46875 1462.3496 L 628.46875 1411.0645 C 628.46875 1387.9602 609.86987 1369.3594 586.76562 1369.3594 L 525.35547 1369.3594 z "
       transform="matrix(0.26458333,0,0,0.26458333,4.1580048,-20.514)" />
    <path
       id="path18598"
       style="color:#000000;fill:#ffffff;stroke-width:5.76488;stroke-linecap:round;stroke-linejoin:round;-inkscape-stroke:none"
       d="M 199.83008 1279.0723 L 199.83008 1462.3496 L 526.12695 1462.3496 L 526.12695 1279.0723 L 199.83008 1279.0723 z "
       transform="matrix(0.26458333,0,0,0.26458333,4.1580048,-20.514)" />
    <path
       id="path18600"
       style="color:#000000;fill:#d99800;stroke-width:3.77953;stroke-linecap:round;stroke-linejoin:round;-inkscape-stroke:none"
       d="M 199.82812 1276.1895 A 2.8827261 2.8827261 0 0 0 196.94922 1279.0762 L 196.94922 1462.3496 L 202.71484 1462.3496 L 202.71484 1281.9551 L 523.24414 1281.9551 L 523.24414 1462.3496 L 529.00977 1462.3496 L 529.00977 1279.0762 A 2.8827261 2.8827261 0 0 0 526.13086 1276.1895 L 199.82812 1276.1895 z "
       transform="matrix(0.26458333,0,0,0.26458333,4.1580048,-20.514)" />
    <path
       id="path38197"
       style="fill:#d99800;fill-opacity:1;stroke:none;stroke-width:4.92998;stroke-linecap:round;stroke-linejoin:round;stroke-miterlimit:4;stroke-dasharray:none;stroke-opacity:1"
       d="M 321.76758 1168.9941 A 142.43675 142.43675 0 0 0 183.7168 1276.6953 L 165.59375 1276.6953 L 165.59375 1461.3574 C 169.34693 1461.9544 173.16934 1462.3496 177.0957 1462.3496 L 491.89062 1462.3496 L 491.89062 1276.6953 L 459.89258 1276.6953 A 142.43675 142.43675 0 0 0 321.76758 1168.9941 z "
       transform="matrix(0.26458333,0,0,0.26458333,4.1580048,-20.514)" />
    <rect
       style="fill:#000000;fill-opacity:1;stroke:none;stroke-width:0.24182;stroke-linecap:round;stroke-linejoin:round;stroke-miterlimit:4;stroke-dasharray:none;stroke-opacity:1"
       id="rect39815"
       width="78.515938"
       height="2.5926411"
       x="47.971184"
       y="-317.27814"
       transform="scale(1,-1)" />
    <path
       id="rect38381"
       style="fill:#ffffff;fill-opacity:1;stroke:none;stroke-width:2.39629;stroke-linecap:round;stroke-linejoin:round;stroke-miterlimit:4;stroke-dasharray:none;stroke-opacity:1"
       d="M 394.43164 1339.9824 C 390.26359 1339.9824 386.9082 1343.3378 386.9082 1347.5059 C 386.9082 1351.6739 390.26359 1355.0293 394.43164 1355.0293 C 398.59969 1355.0293 401.95508 1351.6739 401.95508 1347.5059 C 401.95508 1343.3378 398.59969 1339.9824 394.43164 1339.9824 z M 423.34375 1339.9824 C 419.1757 1339.9824 415.82031 1343.3378 415.82031 1347.5059 C 415.82031 1351.6739 419.1757 1355.0293 423.34375 1355.0293 C 427.5118 1355.0293 430.86719 1351.6739 430.86719 1347.5059 C 430.86719 1343.3378 427.5118 1339.9824 423.34375 1339.9824 z M 449.61914 1339.9824 C 445.45109 1339.9824 442.0957 1343.3378 442.0957 1347.5059 C 442.0957 1351.6739 445.45109 1355.0293 449.61914 1355.0293 C 453.78719 1355.0293 457.14258 1351.6739 457.14258 1347.5059 C 457.14258 1343.3378 453.78719 1339.9824 449.61914 1339.9824 z M 340.30469 1371.041 C 328.45877 1371.041 318.92187 1380.5779 318.92188 1392.4238 L 318.92188 1462.3496 L 361.6875 1462.3496 L 361.6875 1392.4238 C 361.6875 1380.5779 352.15061 1371.041 340.30469 1371.041 z M 399.04102 1371.041 C 387.1951 1371.041 377.6582 1380.5779 377.6582 1392.4238 L 377.6582 1462.3496 L 420.42383 1462.3496 L 420.42383 1392.4238 C 420.42383 1380.5779 410.88693 1371.041 399.04102 1371.041 z M 209.33594 1411.6836 C 200.12842 1411.6836 192.7168 1419.0972 192.7168 1428.3047 L 192.7168 1462.3496 L 225.95703 1462.3496 L 225.95703 1428.3047 C 225.95703 1419.0972 218.54346 1411.6836 209.33594 1411.6836 z "
       transform="matrix(0.26458333,0,0,0.26458333,4.1580048,-20.514)" />
    <rect
       style="fill:#ffffff;fill-opacity:1;stroke:none;stroke-width:0.0640785;stroke-linecap:round;stroke-linejoin:round;stroke-miterlimit:4;stroke-dasharray:none;stroke-opacity:1"
       id="rect69128"
       width="5.5131269"
       height="2.5926411"
       x="47.971184"
       y="-317.27814"
       transform="scale(1,-1)" />
    <rect
       style="fill:#ffffff;fill-opacity:1;stroke:none;stroke-width:0.237102;stroke-linecap:round;stroke-linejoin:round;stroke-miterlimit:4;stroke-dasharray:none;stroke-opacity:1"
       id="rect70697"
       width="81.877853"
       height="2.3900909"
       x="45.892185"
       y="324.40613" />
    <path
       id="rect39804"
       style="fill:#d99800;fill-opacity:1;stroke:none;stroke-width:2.69638;stroke-linecap:round;stroke-linejoin:round;stroke-miterlimit:4;stroke-dasharray:none;stroke-opacity:1"
       d="M 136.14453 1214.748 A 22.701057 22.701057 0 0 0 113.73047 1233.8887 L 104.83398 1233.8887 L 104.83398 1390.0879 C 104.83398 1426.7355 131.86903 1456.7637 167.14844 1461.5938 L 167.14844 1233.8887 L 158.56445 1233.8887 A 22.701057 22.701057 0 0 0 136.14453 1214.748 z "
       transform="matrix(0.26458333,0,0,0.26458333,4.1580048,-20.514)" />
    <g
       id="g56770"
       transform="translate(-7.1989834,-14.260032)" />
    <path
       id="path51043"
       style="fill:#d99800;fill-opacity:1;stroke:none;stroke-width:10.0723;stroke-linecap:round;stroke-linejoin:round;stroke-miterlimit:4;stroke-dasharray:none;stroke-opacity:1"
       d="M 177.0957 171.44727 C 137.06263 171.44727 104.83398 203.67787 104.83398 243.71094 L 104.83398 258.38867 C 176.52086 277.18249 274.0473 281.85777 374.5625 238.05664 C 430.32179 213.75865 426.69531 186.55364 484.67969 188.32227 C 522.96485 189.49003 570.17617 178.9386 599.11719 171.44727 L 177.0957 171.44727 z M 666.04688 171.44727 C 697.08837 182.00012 747.97613 196.66046 788.09766 195.03906 C 849.92003 192.54069 846.05394 230.97149 905.50391 265.29492 C 943.65046 287.31885 981.395 300.53497 1017.6855 307.43359 L 1017.6855 243.71094 C 1017.6855 203.67787 985.4569 171.44727 945.42383 171.44727 L 666.04688 171.44727 z "
       transform="matrix(0.26458333,0,0,0.26458333,4.1580048,-20.514)" />
    <circle
       style="fill:#d99800;fill-opacity:1;stroke:none;stroke-width:2.18089;stroke-linecap:round;stroke-linejoin:round;stroke-miterlimit:4;stroke-dasharray:2.18089, 8.72357;stroke-dashoffset:0;stroke-opacity:1"
       id="path51597"
       cx="134.11868"
       cy="292.37106"
       r="14.03501" />
    <path
       id="path51812"
       style="fill:#ffffff;fill-opacity:1;stroke:none;stroke-width:1.51344;stroke-linecap:round;stroke-linejoin:round;stroke-miterlimit:4;stroke-dasharray:1.51344, 6.05376;stroke-dashoffset:0;stroke-opacity:1"
       d="m 125.30444,297.79598 10.24936,-3.77098 2.02939,-2.96715 -3.59294,0.11793 z" />
    <path
       id="path53489"
       style="fill:#d99800;fill-opacity:1;stroke:none;stroke-width:0.976442;stroke-linecap:round;stroke-linejoin:round;stroke-miterlimit:4;stroke-dasharray:0.976442, 3.90575;stroke-dashoffset:0;stroke-opacity:1"
       d="m 135.34866,286.25465 -2.21387,6.68918 0.68262,2.21652 1.3839,-1.86121 z" />
    <path
       id="path52016"
       style="fill:#ffffff;fill-opacity:1;stroke:none;stroke-width:0.976442;stroke-linecap:round;stroke-linejoin:round;stroke-miterlimit:4;stroke-dasharray:0.976442, 3.90575;stroke-dashoffset:0;stroke-opacity:1"
       d="m 135.96961,286.13216 -2.21387,6.68918 0.68262,2.21652 1.3839,-1.86121 z" />
    <circle
       style="fill:#d99800;fill-opacity:1;stroke:none;stroke-width:1.70397;stroke-linecap:round;stroke-linejoin:round;stroke-miterlimit:4;stroke-dasharray:1.70397, 6.81585;stroke-dashoffset:0;stroke-opacity:1"
       id="path52040"
       cx="-321.42426"
       cy="-22.492466"
       r="0.61954415"
       transform="rotate(-118.75636)" />
    <path
       style="color:#000000;fill:#ffffff;stroke-linecap:round;stroke-linejoin:round;stroke-dasharray:1.55911, 3.11822;-inkscape-stroke:none"
       d="m 133.69922,280.65625 -0.17774,0.006 a 0.38981798,0.38981798 0 0 0 -0.01,0.002 l -0.28906,0.0176 a 0.38981798,0.38981798 0 0 0 -0.01,0 l -0.28711,0.0254 a 0.38981798,0.38981798 0 0 0 -0.01,0.002 l -0.28516,0.0332 a 0.38981798,0.38981798 0 0 0 -0.01,0 l -0.2832,0.0391 a 0.38981798,0.38981798 0 0 0 -0.01,0.002 l -0.22656,0.0391 a 0.389779,0.389779 0 0 0 -0.32031,0.44726 0.389779,0.389779 0 0 0 0.44727,0.32031 l 0.22265,-0.0371 0.27344,-0.0371 0.27539,-0.0312 0.27539,-0.0254 0.2793,-0.0176 0.17578,-0.006 a 0.389779,0.389779 0 0 0 0.37305,-0.4043 0.389779,0.389779 0 0 0 -0.4043,-0.375 z m 3.20117,0.32422 a 0.389779,0.389779 0 0 0 -0.47266,0.28711 0.389779,0.389779 0 0 0 0.28711,0.4707 l 0.13868,0.0332 0.26171,0.0703 0.25782,0.0781 0.25586,0.082 0.25195,0.0898 0.25,0.0937 0.0137,0.006 a 0.389779,0.389779 0 0 0 0.50781,-0.21289 0.389779,0.389779 0 0 0 -0.21289,-0.50782 l -0.0176,-0.008 a 0.38981798,0.38981798 0 0 0 -0.01,-0.004 l -0.25781,-0.0976 a 0.38981798,0.38981798 0 0 0 -0.01,-0.004 l -0.26172,-0.0918 a 0.38981798,0.38981798 0 0 0 -0.01,-0.004 l -0.26368,-0.0859 a 0.38981798,0.38981798 0 0 0 -0.01,-0.002 l -0.26758,-0.0801 a 0.38981798,0.38981798 0 0 0 -0.01,-0.002 l -0.26954,-0.0742 a 0.38981798,0.38981798 0 0 0 -0.01,-0.002 z m -7.5625,0.80859 a 0.389779,0.389779 0 0 0 -0.29687,0.0137 0.38981798,0.38981798 0 0 0 -0.01,0.004 l -0.24609,0.12109 a 0.38981798,0.38981798 0 0 0 -0.008,0.006 l -0.24218,0.12696 a 0.38981798,0.38981798 0 0 0 -0.01,0.004 l -0.23828,0.13477 a 0.38981798,0.38981798 0 0 0 -0.008,0.004 l -0.23633,0.14063 a 0.38981798,0.38981798 0 0 0 -0.008,0.004 l -0.23243,0.14453 a 0.38981798,0.38981798 0 0 0 -0.008,0.006 l -0.15625,0.10351 a 0.389779,0.389779 0 0 0 -0.11133,0.53906 0.389779,0.389779 0 0 0 0.53907,0.11133 l 0.15429,-0.10156 0.22266,-0.13867 0.22851,-0.13477 0.23047,-0.1289 0.23438,-0.12305 0.23437,-0.11719 0.004,-0.002 a 0.389779,0.389779 0 0 0 0.18359,-0.51563 0.389779,0.389779 0 0 0 -0.2207,-0.20117 z m 11.89648,1.26563 a 0.389779,0.389779 0 0 0 -0.54687,0.0723 0.389779,0.389779 0 0 0 0.0723,0.54492 l 0.11523,0.0899 0.20508,0.16406 0.20117,0.16992 0.19531,0.17383 0.19336,0.17969 0.1875,0.18359 0.0293,0.0312 a 0.389779,0.389779 0 0 0 0.55273,0.006 0.389779,0.389779 0 0 0 0.006,-0.55078 l -0.0332,-0.0352 a 0.38981798,0.38981798 0 0 0 -0.008,-0.006 l -0.19336,-0.18945 a 0.38981798,0.38981798 0 0 0 -0.008,-0.008 l -0.19921,-0.18359 a 0.38981798,0.38981798 0 0 0 -0.006,-0.008 l -0.20313,-0.17968 a 0.38981798,0.38981798 0 0 0 -0.008,-0.006 l -0.20703,-0.17579 a 0.38981798,0.38981798 0 0 0 -0.008,-0.006 l -0.2129,-0.17188 a 0.38981798,0.38981798 0 0 0 -0.006,-0.006 z m -15.45898,1.63281 a 0.389779,0.389779 0 0 0 -0.55078,0.0449 l -0.14844,0.17774 a 0.38981798,0.38981798 0 0 0 -0.006,0.008 l -0.17187,0.21094 a 0.38981798,0.38981798 0 0 0 -0.006,0.008 l -0.16602,0.2168 a 0.38981798,0.38981798 0 0 0 -0.004,0.006 l -0.16211,0.22071 a 0.38981798,0.38981798 0 0 0 -0.004,0.008 l -0.15625,0.22461 a 0.38981798,0.38981798 0 0 0 -0.006,0.008 l -0.13086,0.19922 a 0.389779,0.389779 0 0 0 0.11133,0.53906 0.389779,0.389779 0 0 0 0.54102,-0.11132 l 0.12695,-0.19532 0.15039,-0.21679 0.15625,-0.21094 0.16016,-0.20899 0.16406,-0.20507 0.14648,-0.17383 a 0.389779,0.389779 0 0 0 -0.0449,-0.54883 z m 18.06836,1.84961 a 0.389779,0.389779 0 0 0 -0.15039,0.53125 l 0.0488,0.0859 0.12304,0.23437 0.11719,0.23828 0.11328,0.24024 0.10742,0.24414 0.0996,0.24609 0.0274,0.0684 a 0.389779,0.389779 0 0 0 0.50195,0.22656 0.389779,0.389779 0 0 0 0.22656,-0.50195 l -0.0273,-0.0742 a 0.38981798,0.38981798 0 0 0 -0.004,-0.008 l -0.10547,-0.25586 a 0.38981798,0.38981798 0 0 0 -0.004,-0.01 l -0.10938,-0.25195 a 0.38981798,0.38981798 0 0 0 -0.004,-0.01 l -0.11719,-0.24805 a 0.38981798,0.38981798 0 0 0 -0.004,-0.01 l -0.12304,-0.24609 a 0.38981798,0.38981798 0 0 0 -0.004,-0.008 l -0.12695,-0.24219 a 0.38981798,0.38981798 0 0 0 -0.006,-0.008 l -0.0508,-0.0918 a 0.389779,0.389779 0 0 0 -0.5293,-0.15039 z m -20.45312,2.14062 a 0.389779,0.389779 0 0 0 -0.48438,0.26172 l -0.0644,0.2168 a 0.38981798,0.38981798 0 0 0 -0.002,0.01 l -0.0742,0.27148 a 0.38981798,0.38981798 0 0 0 -0.002,0.008 l -0.0664,0.27344 a 0.38981798,0.38981798 0 0 0 -0.002,0.01 l -0.0605,0.27539 a 0.38981798,0.38981798 0 0 0 -0.002,0.01 l -0.0527,0.27735 a 0.38981798,0.38981798 0 0 0 -0.002,0.01 l -0.0352,0.20508 a 0.389779,0.389779 0 0 0 0.32226,0.44726 0.389779,0.389779 0 0 0 0.44727,-0.32031 l 0.0332,-0.19922 0.0508,-0.26757 0.0586,-0.26758 0.0645,-0.26367 0.0703,-0.25977 0.0645,-0.21289 a 0.389779,0.389779 0 0 0 -0.26367,-0.48438 z m 21.97851,2.24805 a 0.389779,0.389779 0 0 0 -0.35547,0.42383 l 0.0176,0.17969 0.0176,0.27734 0.01,0.28125 0.004,0.27734 v 0.01 l -0.004,0.2793 -0.01,0.27929 -0.0176,0.2793 -0.0254,0.27734 -0.0312,0.27539 -0.0156,0.10547 a 0.389779,0.389779 0 0 0 0.33204,0.43946 0.389779,0.389779 0 0 0 0.4414,-0.33203 l 0.0156,-0.10938 a 0.38981798,0.38981798 0 0 0 0,-0.01 l 0.0332,-0.28515 a 0.38981798,0.38981798 0 0 0 0,-0.01 l 0.0254,-0.28711 a 0.38981798,0.38981798 0 0 0 0.002,-0.01 l 0.0176,-0.28906 a 0.38981798,0.38981798 0 0 0 0,-0.01 l 0.0117,-0.29102 a 0.38981798,0.38981798 0 0 0 0,-0.01 l 0.004,-0.29297 a 0.389779,0.389779 0 0 0 -0.002,-0.004 0.389779,0.389779 0 0 0 0.002,-0.006 l -0.004,-0.29101 a 0.38981798,0.38981798 0 0 0 0,-0.01 l -0.0117,-0.29101 a 0.38981798,0.38981798 0 0 0 0,-0.01 l -0.0176,-0.28906 a 0.38981798,0.38981798 0 0 0 -0.002,-0.01 l -0.0156,-0.18554 a 0.389779,0.389779 0 0 0 -0.42188,-0.35352 z m -22.55273,2.36328 a 0.389779,0.389779 0 0 0 -0.34375,0.43164 l 0.0156,0.13867 a 0.38981798,0.38981798 0 0 0 0.002,0.01 l 0.0391,0.28125 a 0.38981798,0.38981798 0 0 0 0.002,0.01 l 0.0469,0.28125 a 0.38981798,0.38981798 0 0 0 0.002,0.01 l 0.0527,0.27735 a 0.38981798,0.38981798 0 0 0 0.002,0.01 l 0.0605,0.27539 a 0.38981798,0.38981798 0 0 0 0.002,0.01 l 0.0664,0.27148 a 0.38981798,0.38981798 0 0 0 0.002,0.01 l 0.002,0.006 a 0.389779,0.389779 0 0 0 0.47851,0.27539 0.389779,0.389779 0 0 0 0.27344,-0.47852 v -0.002 l -0.0645,-0.26172 -0.0586,-0.26758 -0.0508,-0.26758 -0.0449,-0.26953 -0.0371,-0.27344 -0.0156,-0.13281 a 0.389779,0.389779 0 0 0 -0.43164,-0.34375 z m 21.54492,3.26563 a 0.389779,0.389779 0 0 0 -0.21485,0.20508 l -0.0508,0.11523 -0.11328,0.24023 -0.11719,0.23829 -0.12304,0.23437 -0.12891,0.23047 -0.13476,0.22656 -0.0293,0.0449 a 0.389779,0.389779 0 0 0 0.125,0.53711 0.389779,0.389779 0 0 0 0.53711,-0.12304 l 0.0312,-0.0488 a 0.38981798,0.38981798 0 0 0 0.004,-0.01 l 0.13868,-0.23437 a 0.38981798,0.38981798 0 0 0 0.006,-0.008 l 0.13281,-0.24023 a 0.38981798,0.38981798 0 0 0 0.006,-0.008 l 0.12695,-0.24219 a 0.38981798,0.38981798 0 0 0 0.004,-0.01 l 0.12304,-0.24609 a 0.38981798,0.38981798 0 0 0 0.004,-0.008 l 0.11719,-0.25 a 0.38981798,0.38981798 0 0 0 0.004,-0.008 l 0.0508,-0.11914 a 0.389779,0.389779 0 0 0 -0.20117,-0.51172 0.389779,0.389779 0 0 0 -0.29687,-0.006 z m -19.93555,1.15039 a 0.389779,0.389779 0 0 0 -0.29687,0.041 0.389779,0.389779 0 0 0 -0.13672,0.53516 l 0.0977,0.16406 a 0.38981798,0.38981798 0 0 0 0.006,0.01 l 0.14453,0.23047 a 0.38981798,0.38981798 0 0 0 0.006,0.008 l 0.14844,0.22851 a 0.38981798,0.38981798 0 0 0 0.006,0.008 l 0.15625,0.22461 a 0.38981798,0.38981798 0 0 0 0.004,0.008 l 0.16211,0.21875 a 0.38981798,0.38981798 0 0 0 0.004,0.008 l 0.16602,0.2168 a 0.38981798,0.38981798 0 0 0 0.006,0.008 l 0.002,0.002 a 0.389779,0.389779 0 0 0 0.54883,0.0586 0.389779,0.389779 0 0 0 0.0586,-0.54688 h 0.002 l -0.16016,-0.20898 -0.15625,-0.21289 -0.15039,-0.21485 -0.14453,-0.2207 -0.13867,-0.22461 -0.0957,-0.16015 a 0.389779,0.389779 0 0 0 -0.23828,-0.17969 z m 17.11524,2.70703 -0.0645,0.0606 -0.19531,0.17382 -0.20117,0.16993 -0.20508,0.16406 -0.20898,0.16015 -0.2129,0.1543 -0.084,0.0586 a 0.389779,0.389779 0 0 0 -0.0977,0.54296 0.389779,0.389779 0 0 0 0.54297,0.0977 l 0.0879,-0.0606 a 0.38981798,0.38981798 0 0 0 0.006,-0.006 l 0.22071,-0.16015 a 0.38981798,0.38981798 0 0 0 0.008,-0.006 l 0.2168,-0.16602 a 0.38981798,0.38981798 0 0 0 0.006,-0.006 l 0.2129,-0.16992 a 0.38981798,0.38981798 0 0 0 0.008,-0.006 l 0.20703,-0.17578 a 0.38981798,0.38981798 0 0 0 0.008,-0.006 l 0.20313,-0.17969 a 0.38981798,0.38981798 0 0 0 0.006,-0.008 l 0.0684,-0.0625 a 0.389779,0.389779 0 0 0 0.0195,-0.55078 0.389779,0.389779 0 0 0 -0.55078,-0.0195 z m -13.86914,0.80078 a 0.389779,0.389779 0 0 0 -0.54493,0.0859 0.389779,0.389779 0 0 0 0.084,0.54492 l 0.11719,0.084 a 0.38981798,0.38981798 0 0 0 0.008,0.006 l 0.22461,0.15625 a 0.38981798,0.38981798 0 0 0 0.008,0.004 l 0.22656,0.15039 a 0.38981798,0.38981798 0 0 0 0.008,0.006 l 0.23243,0.14453 a 0.38981798,0.38981798 0 0 0 0.008,0.004 l 0.23633,0.14062 a 0.38981798,0.38981798 0 0 0 0.008,0.004 l 0.23828,0.13476 a 0.38981798,0.38981798 0 0 0 0.01,0.004 l 0.043,0.0215 a 0.389779,0.389779 0 0 0 0.5254,-0.1621 0.389779,0.389779 0 0 0 -0.16211,-0.52735 l -0.0391,-0.0195 -0.23047,-0.12891 -0.22851,-0.13476 -0.22266,-0.14063 -0.2207,-0.14453 -0.2168,-0.15039 z m 10.02148,1.50391 -0.0645,0.0234 -0.25586,0.082 -0.25782,0.0781 -0.26171,0.0703 -0.26368,0.0645 -0.26562,0.0566 -0.0801,0.0156 a 0.389779,0.389779 0 0 0 -0.30859,0.45703 0.389779,0.389779 0 0 0 0.45703,0.3086 l 0.084,-0.0156 a 0.38981798,0.38981798 0 0 0 0.01,-0.002 l 0.27539,-0.0606 a 0.38981798,0.38981798 0 0 0 0.01,-0.002 l 0.27149,-0.0664 a 0.38981798,0.38981798 0 0 0 0.01,-0.002 l 0.26954,-0.0742 a 0.38981798,0.38981798 0 0 0 0.01,-0.002 l 0.26758,-0.0801 a 0.38981798,0.38981798 0 0 0 0.01,-0.002 l 0.26368,-0.0859 a 0.38981798,0.38981798 0 0 0 0.01,-0.004 l 0.0684,-0.0234 a 0.389779,0.389779 0 0 0 0.23828,-0.49804 0.389779,0.389779 0 0 0 -0.49609,-0.23828 z m -5.93555,0.34179 a 0.389779,0.389779 0 0 0 -0.46484,0.29688 0.389779,0.389779 0 0 0 0.29883,0.46484 l 0.16015,0.0352 a 0.38981798,0.38981798 0 0 0 0.01,0.002 l 0.27734,0.0527 a 0.38981798,0.38981798 0 0 0 0.01,0.002 l 0.27929,0.0469 a 0.38981798,0.38981798 0 0 0 0.01,0 l 0.2832,0.041 a 0.38981798,0.38981798 0 0 0 0.01,0 l 0.28516,0.0332 a 0.38981798,0.38981798 0 0 0 0.01,0 l 0.25391,0.0234 a 0.389779,0.389779 0 0 0 0.42383,-0.35352 0.389779,0.389779 0 0 0 -0.35352,-0.42187 l -0.25,-0.0234 -0.27539,-0.0312 -0.27344,-0.0371 -0.26953,-0.0449 -0.26953,-0.0527 z"
       id="path51597-3" />
  </g>
</svg>
