<?xml version="1.0" encoding="UTF-8" standalone="no"?>
<svg
   xmlns:dc="http://purl.org/dc/elements/1.1/"
   xmlns:cc="http://creativecommons.org/ns#"
   xmlns:rdf="http://www.w3.org/1999/02/22-rdf-syntax-ns#"
   xmlns:svg="http://www.w3.org/2000/svg"
   xmlns="http://www.w3.org/2000/svg"
   xmlns:xlink="http://www.w3.org/1999/xlink"
   xmlns:sodipodi="http://sodipodi.sourceforge.net/DTD/sodipodi-0.dtd"
   xmlns:inkscape="http://www.inkscape.org/namespaces/inkscape"
   width="210mm"
   height="297mm"
   viewBox="0 0 210 297"
   version="1.1"
   id="svg3775"
   inkscape:version="1.0.2 (e86c870, 2021-01-15)"
   sodipodi:docname="wp.svg">
  <defs
     id="defs3769">
    <clipPath
       clipPathUnits="userSpaceOnUse"
       id="clipPath3805">
      <rect
         style="fill:#2e2522;stroke-width:33.1277;stroke-linecap:round;stroke-linejoin:round"
         id="rect3807"
         width="904.07837"
         height="508.54407"
         x="-190.84445"
         y="-160.31398"
         ry="0.4360342"
         transform="rotate(90)" />
    </clipPath>
    <filter
       style="color-interpolation-filters:sRGB;"
       inkscape:label="Greyscale"
       id="filter4668">
      <feColorMatrix
         values="0.21 0.72 -0.19 -0.060241 0 0.21 0.72 -0.19 -0.060241 0 0.21 0.72 -0.19 -0.060241 0 0 0 0 1 0 "
         id="feColorMatrix4666" />
    </filter>
    <clipPath
       clipPathUnits="userSpaceOnUse"
       id="clipPath13216">
      <rect
         style="fill:#2e2522;stroke-width:33.1277;stroke-linecap:round;stroke-linejoin:round"
         id="rect13218"
         width="904.07837"
         height="508.54407"
         x="-190.84445"
         y="-160.31393"
         ry="0.4360342"
         transform="rotate(90)" />
    </clipPath>
    <clipPath
       clipPathUnits="userSpaceOnUse"
       id="clipPath13260">
      <path
         id="path13262"
         style="fill:#ffffff;stroke-width:376.267;stroke-linecap:round;stroke-linejoin:round"
         d="m 277.65296,-227.94813 c -23.38623,0 -42.21282,18.82943 -42.21282,42.21557 v 432.76108 c 0,23.38615 18.82659,42.21284 42.21282,42.21284 h 432.76356 c 23.38623,0 42.21297,-18.82669 42.21297,-42.21284 v -432.76108 c 0,-23.38614 -18.82674,-42.21557 -42.21297,-42.21557 z m 203.60288,94.61939 h 18.83733 c 0.24566,0 0.44386,0.19821 0.44386,0.44386 v 18.83728 c 0,0.24565 -0.1982,0.44386 -0.44386,0.44386 h -18.83733 c -0.24564,0 -0.44384,-0.19821 -0.44384,-0.44386 v -18.83728 c 0,-0.24565 0.1982,-0.44386 0.44384,-0.44386 z m -118.83657,56.356498 a 22.542508,22.542508 0 0 1 0.0475,0 22.542508,22.542508 0 0 1 22.54202,22.544765 22.542508,22.542508 0 0 1 -22.54202,22.542074 22.542508,22.542508 0 0 1 -22.54202,-22.542074 22.542508,22.542508 0 0 1 22.49572,-22.544765 z m 78.23372,18.997951 127.42587,0.277807 a 18.425782,18.425782 0 0 1 0.63738,0.02109 18.425782,18.425782 0 0 1 0.0422,0 18.425782,18.425782 0 0 1 0.16608,0.01058 18.425782,18.425782 0 0 1 0.65913,0.04218 18.425782,18.425782 0 0 1 0.45231,0.04218 18.425782,18.425782 0 0 1 0.32946,0.04218 18.425782,18.425782 0 0 1 1.4819,0.247758 18.425782,18.425782 0 0 1 0.15552,0.03163 18.425782,18.425782 0 0 1 0.0422,0.01058 18.425782,18.425782 0 0 1 0.76277,0.185029 18.425782,18.425782 0 0 1 0.0422,0.01058 18.425782,18.425782 0 0 1 0.74914,0.226145 18.425782,18.425782 0 0 1 0.0422,0.01058 18.425782,18.425782 0 0 1 0.74091,0.258829 18.425782,18.425782 0 0 1 0.0421,0.01058 18.425782,18.425782 0 0 1 0.72999,0.288877 18.425782,18.425782 0 0 1 0.0422,0.02109 18.425782,18.425782 0 0 1 0.72186,0.321561 18.425782,18.425782 0 0 1 0.0316,0.02109 18.425782,18.425782 0 0 1 0.70826,0.351608 18.425782,18.425782 0 0 1 0.0316,0.02109 18.425782,18.425782 0 0 1 1.20404,0.702847 18.425782,18.425782 0 0 1 0.18505,0.122825 18.425782,18.425782 0 0 1 0.0421,0.02109 18.425782,18.425782 0 0 1 0.27779,0.193461 18.425782,18.425782 0 0 1 0.40066,0.27781 18.425782,18.425782 0 0 1 0.46284,0.351607 18.425782,18.425782 0 0 1 0.16602,0.122825 18.425782,18.425782 0 0 1 0.0316,0.02109 18.425782,18.425782 0 0 1 0.60754,0.503954 18.425782,18.425782 0 0 1 0.0316,0.03163 18.425782,18.425782 0 0 1 0.5856,0.522933 18.425782,18.425782 0 0 1 0.0316,0.03163 18.425782,18.425782 0 0 1 0.55565,0.544809 18.425782,18.425782 0 0 1 0.0315,0.03163 18.425782,18.425782 0 0 1 0.5339,0.577543 18.425782,18.425782 0 0 1 0.0316,0.04218 18.425782,18.425782 0 0 1 0.50396,0.596572 18.425782,18.425782 0 0 1 0.0212,0.03163 18.425782,18.425782 0 0 1 0.50398,0.659252 18.425782,18.425782 0 0 1 0.45228,0.637426 18.425782,18.425782 0 0 1 0.0212,0.04218 18.425782,18.425782 0 0 1 0.43333,0.656513 18.425782,18.425782 0 0 1 0.0212,0.04218 18.425782,18.425782 0 0 1 1.06235,2.07032 18.425782,18.425782 0 0 1 0.0527,0.100684 18.425782,18.425782 0 0 1 0.0212,0.04218 18.425782,18.425782 0 0 1 0.29679,0.719138 18.425782,18.425782 0 0 1 0.0159,0.04218 18.425782,18.425782 0 0 1 0.26675,0.74096 18.425782,18.425782 0 0 1 0.0159,0.04218 18.425782,18.425782 0 0 1 0.22614,0.751869 18.425782,18.425782 0 0 1 0.0159,0.04218 18.425782,18.425782 0 0 1 0.19611,0.762783 18.425782,18.425782 0 0 1 0.0159,0.04218 18.425782,18.425782 0 0 1 0.0209,0.11439 18.425782,18.425782 0 0 1 0.3706,2.293728 18.425782,18.425782 0 0 1 0,0.04218 18.425782,18.425782 0 0 1 0.0601,0.781812 18.425782,18.425782 0 0 1 0,0.05483 18.425782,18.425782 0 0 1 0.0212,0.781815 18.425782,18.425782 0 0 1 0,0.04218 l 0.54481,122.85214 A 18.42394,18.42394 0 0 1 568.69299,102.06346 18.42394,18.42394 0 0 1 550.17993,83.727449 L 549.831,3.6766037 405.64906,141.53859 a 18.42394,18.42394 0 0 1 -26.0505,-0.58573 18.42394,18.42394 0 0 1 0.5883,-26.05065 L 522.2498,-20.941431 440.57274,-21.134903 a 18.425782,18.425782 0 0 1 0.0922,-36.840917 z M 634.38384,9.2977417 c 0.11287,0 0.22617,0.042168 0.31314,0.128098 l 13.32097,13.3208763 c 0.17344,0.173957 0.17344,0.452829 0,0.626568 l -13.32097,13.320945 c -0.17397,0.173956 -0.45284,0.173956 -0.62651,0 L 620.74952,23.373284 c -0.17394,-0.173957 -0.17394,-0.452815 0,-0.626568 L 634.07047,9.4258397 c 0.0865,-0.087004 0.19976,-0.128098 0.31313,-0.128098 z M 387.82427,21.651627 a 5.6356266,5.6356266 0 0 1 5.63607,5.636157 5.6356266,5.6356266 0 0 1 -5.63607,5.63622 5.6356266,5.6356266 0 0 1 -5.63335,-5.63622 5.6356266,5.6356266 0 0 1 5.63335,-5.636157 z M 552.45598,145.63696 a 9.8623488,9.8623488 0 0 1 0.21244,0 9.8623488,9.8623488 0 0 1 9.86128,9.86126 9.8623488,9.8623488 0 0 1 -9.86128,9.86131 9.8623488,9.8623488 0 0 1 -9.86412,-9.86131 9.8623488,9.8623488 0 0 1 9.65152,-9.86126 z m -78.68864,1.73252 c 0.19452,0 0.3901,0.0742 0.53932,0.22351 l 22.86352,22.86623 c 0.29837,0.29836 0.29837,0.7778 0,1.07605 l -22.86352,22.86349 c -0.29837,0.29836 -0.77784,0.29836 -1.076,0 l -22.86617,-22.86349 c -0.29837,-0.29836 -0.29837,-0.77779 0,-1.07605 l 22.86617,-22.86623 c 0.14917,-0.14917 0.3421,-0.22351 0.53668,-0.22351 z" />
    </clipPath>
  </defs>
  <sodipodi:namedview
     id="base"
     pagecolor="#ffffff"
     bordercolor="#666666"
     borderopacity="1.0"
     inkscape:pageopacity="0.0"
     inkscape:pageshadow="2"
     inkscape:zoom="0.087500002"
     inkscape:cx="2908.9271"
     inkscape:cy="-118.50373"
     inkscape:document-units="mm"
     inkscape:current-layer="layer1"
     inkscape:document-rotation="0"
     showgrid="false"
     inkscape:window-width="1366"
     inkscape:window-height="715"
     inkscape:window-x="-8"
     inkscape:window-y="-8"
     inkscape:window-maximized="1"
     inkscape:snap-global="false" />
  <metadata
     id="metadata3772">
    <rdf:RDF>
      <cc:Work
         rdf:about="">
        <dc:format>image/svg+xml</dc:format>
        <dc:type
           rdf:resource="http://purl.org/dc/dcmitype/StillImage" />
        <dc:title />
      </cc:Work>
    </rdf:RDF>
  </metadata>
  <g
     inkscape:label="Layer 1"
     inkscape:groupmode="layer"
     id="layer1">
    <g
       id="g13072">
      <g
         id="g4748"
         clip-path="url(#clipPath3805)"
         transform="translate(587.99296)">
        <image
           width="2116.6667"
           height="1411.1112"
           preserveAspectRatio="none"
           xlink:href="file:///C:/Users/SERVER%20ISTIQLAL/Downloads/adrian-zIWMIfu1TUU-unsplash.jpg"
           id="image4744"
           sodipodi:absref="C:\Users\SERVER ISTIQLAL\Downloads\adrian-zIWMIfu1TUU-unsplash.jpg"
           x="-1180.0417"
           y="-538.49011"
           style="filter:url(#filter4668)" />
        <rect
           style="opacity:0.575163;mix-blend-mode:overlay;fill:#1c2422;stroke-width:40.3357;stroke-linecap:round;stroke-linejoin:round"
           id="rect4746"
           width="1100.7888"
           height="619.19366"
           x="-289.19971"
           y="-215.63879"
           ry="0.53090709"
           transform="rotate(90)" />
      </g>
      <text
         xml:space="preserve"
         style="font-style:normal;font-variant:normal;font-weight:normal;font-stretch:normal;font-size:21.1667px;line-height:1.25;font-family:Montserrat;-inkscape-font-specification:'Montserrat, Normal';font-variant-ligatures:normal;font-variant-caps:normal;font-variant-numeric:normal;font-feature-settings:normal;text-align:center;letter-spacing:0px;word-spacing:0px;writing-mode:lr-tb;text-anchor:middle;white-space:pre;inline-size:403.792;fill:#ffffff;fill-opacity:1;stroke:none;stroke-width:0.264583"
         x="5.6420183"
         y="273.68399"
         id="text4752"
         transform="matrix(0.68070016,0,0,0.68070016,489.6002,144.56917)"><tspan
           x="5.6420183"
           y="273.68399"><tspan
             style="font-style:normal;font-variant:normal;font-weight:normal;font-stretch:normal;font-size:21.1667px;font-family:Roboto;-inkscape-font-specification:Roboto;text-align:center;text-anchor:middle;fill:#ffffff;stroke-width:0.264583">Have you seen him who takes his own lust</tspan><tspan></tspan><tspan
             y="273.68399"> </tspan></tspan><tspan
           x="5.6420183"
           y="301.07567"><tspan
             style="font-style:normal;font-variant:normal;font-weight:normal;font-stretch:normal;font-size:21.1667px;font-family:Roboto;-inkscape-font-specification:Roboto;text-align:center;text-anchor:middle;fill:#ffffff;stroke-width:0.264583">(vain desires) as his ilâh (god)?
</tspan></tspan><tspan
           x="5.6420183"
           y="328.46736"><tspan
             style="font-style:normal;font-variant:normal;font-weight:normal;font-stretch:normal;font-size:21.1667px;font-family:Roboto;-inkscape-font-specification:Roboto;text-align:center;text-anchor:middle;fill:#ffffff;stroke-width:0.264583">
</tspan></tspan><tspan
           x="5.6420183"
           y="355.85905"><tspan
             style="font-style:normal;font-variant:normal;font-weight:normal;font-stretch:normal;font-size:21.1667px;font-family:Roboto;-inkscape-font-specification:Roboto;text-align:center;text-anchor:middle;fill:#ffffff;stroke-width:0.264583">And Allâh knowing (him as such), left him</tspan><tspan></tspan><tspan
             y="355.85905"> </tspan></tspan><tspan
           x="5.6420183"
           y="383.25075"><tspan
             style="font-style:normal;font-variant:normal;font-weight:normal;font-stretch:normal;font-size:21.1667px;font-family:Roboto;-inkscape-font-specification:Roboto;text-align:center;text-anchor:middle;fill:#ffffff;stroke-width:0.264583">astray, and sealed his hearing and his</tspan><tspan></tspan><tspan
             y="383.25075"> </tspan></tspan><tspan
           x="5.6420183"
           y="410.64244"><tspan
             style="font-style:normal;font-variant:normal;font-weight:normal;font-stretch:normal;font-size:21.1667px;font-family:Roboto;-inkscape-font-specification:Roboto;text-align:center;text-anchor:middle;fill:#ffffff;stroke-width:0.264583">heart, and put a cover on his sight.
</tspan></tspan><tspan
           x="5.6420183"
           y="438.03413"><tspan
             style="font-style:normal;font-variant:normal;font-weight:normal;font-stretch:normal;font-size:21.1667px;font-family:Roboto;-inkscape-font-specification:Roboto;text-align:center;text-anchor:middle;fill:#ffffff;stroke-width:0.264583">
</tspan></tspan><tspan
           x="5.6420183"
           y="465.42583"><tspan
             style="font-style:normal;font-variant:normal;font-weight:normal;font-stretch:normal;font-size:21.1667px;font-family:Roboto;-inkscape-font-specification:Roboto;text-align:center;text-anchor:middle;fill:#ffffff;stroke-width:0.264583">Who then will guide him after Allâh? Will</tspan><tspan></tspan><tspan
             y="465.42583"> </tspan></tspan><tspan
           x="5.6420183"
           y="492.81752"><tspan
             style="font-style:normal;font-variant:normal;font-weight:normal;font-stretch:normal;font-size:21.1667px;font-family:Roboto;-inkscape-font-specification:Roboto;text-align:center;text-anchor:middle;fill:#ffffff;stroke-width:0.264583">you not then remember?</tspan></tspan></text>
      <text
         xml:space="preserve"
         style="font-style:normal;font-variant:normal;font-weight:normal;font-stretch:normal;font-size:59.0465px;line-height:1.25;font-family:Montserrat;-inkscape-font-specification:'Montserrat, Normal';font-variant-ligatures:normal;font-variant-caps:normal;font-variant-numeric:normal;font-feature-settings:normal;text-align:start;letter-spacing:0px;word-spacing:0px;writing-mode:lr-tb;text-anchor:start;fill:#ffffff;fill-opacity:1;stroke:none;stroke-width:1.47616"
         x="409.48047"
         y="290.16489"
         id="text4756"><tspan
           sodipodi:role="line"
           id="tspan4754"
           x="409.48047"
           y="290.16489"
           style="font-style:normal;font-variant:normal;font-weight:900;font-stretch:normal;font-family:Metropolis;-inkscape-font-specification:'Metropolis Heavy';fill:#ffffff;stroke-width:1.47616">guide</tspan></text>
      <rect
         style="fill:#ffffff;stroke-width:71.3777;stroke-linecap:round;stroke-linejoin:round"
         id="rect4696"
         width="98.110672"
         height="98.110672"
         x="444.97958"
         y="99.190025"
         ry="8.0078678" />
      <g
         id="g4772"
         transform="translate(584.00191,22.525885)"
         style="fill:#191a1a;fill-opacity:1">
        <path
           style="color:#000000;font-style:normal;font-variant:normal;font-weight:normal;font-stretch:normal;font-size:medium;line-height:normal;font-family:sans-serif;font-variant-ligatures:normal;font-variant-position:normal;font-variant-caps:normal;font-variant-numeric:normal;font-variant-alternates:normal;font-variant-east-asian:normal;font-feature-settings:normal;font-variation-settings:normal;text-indent:0;text-align:start;text-decoration:none;text-decoration-line:none;text-decoration-style:solid;text-decoration-color:#000000;letter-spacing:normal;word-spacing:normal;text-transform:none;writing-mode:lr-tb;direction:ltr;text-orientation:mixed;dominant-baseline:auto;baseline-shift:baseline;text-anchor:start;white-space:normal;shape-padding:0;shape-margin:0;inline-size:0;clip-rule:nonzero;display:inline;overflow:visible;visibility:visible;opacity:1;isolation:auto;mix-blend-mode:normal;color-interpolation:sRGB;color-interpolation-filters:linearRGB;solid-color:#000000;solid-opacity:1;vector-effect:none;fill:#191a1a;fill-opacity:1;fill-rule:nonzero;stroke:none;stroke-width:6.99004;stroke-linecap:round;stroke-linejoin:round;stroke-miterlimit:4;stroke-dasharray:none;stroke-dashoffset:0;stroke-opacity:1;color-rendering:auto;image-rendering:auto;shape-rendering:auto;text-rendering:auto;enable-background:accumulate;stop-color:#000000;stop-opacity:1"
           d="m -100.09375,108.9082 a 3.4953694,3.4953694 0 0 0 -0.0176,6.98828 l 15.494142,0.0371 -26.949222,25.76953 a 3.4950199,3.4950199 0 0 0 -0.11132,4.94141 3.4950199,3.4950199 0 0 0 4.9414,0.11133 l 27.351564,-26.15234 0.06641,15.18554 a 3.4950199,3.4950199 0 0 0 3.511718,3.47852 3.4950199,3.4950199 0 0 0 3.478516,-3.50977 l -0.103516,-23.30469 a 3.4953694,3.4953694 0 0 0 0,-0.008 3.4953694,3.4953694 0 0 0 -0.0039,-0.14843 3.4953694,3.4953694 0 0 0 0,-0.01 3.4953694,3.4953694 0 0 0 -0.01172,-0.14844 3.4953694,3.4953694 0 0 0 0,-0.008 3.4953694,3.4953694 0 0 0 -0.07031,-0.43555 3.4953694,3.4953694 0 0 0 -0.0039,-0.0215 3.4953694,3.4953694 0 0 0 -0.002,-0.008 3.4953694,3.4953694 0 0 0 -0.03711,-0.14454 3.4953694,3.4953694 0 0 0 -0.002,-0.008 3.4953694,3.4953694 0 0 0 -0.04297,-0.14258 3.4953694,3.4953694 0 0 0 -0.002,-0.008 3.4953694,3.4953694 0 0 0 -0.05078,-0.14062 3.4953694,3.4953694 0 0 0 -0.002,-0.008 3.4953694,3.4953694 0 0 0 -0.05664,-0.13672 3.4953694,3.4953694 0 0 0 -0.0039,-0.008 3.4953694,3.4953694 0 0 0 -0.0098,-0.0195 3.4953694,3.4953694 0 0 0 -0.201172,-0.39258 3.4953694,3.4953694 0 0 0 -0.0039,-0.008 3.4953694,3.4953694 0 0 0 -0.08203,-0.125 3.4953694,3.4953694 0 0 0 -0.0039,-0.008 3.4953694,3.4953694 0 0 0 -0.08594,-0.1211 3.4953694,3.4953694 0 0 0 -0.0957,-0.125 3.4953694,3.4953694 0 0 0 -0.0039,-0.006 3.4953694,3.4953694 0 0 0 -0.0957,-0.11328 3.4953694,3.4953694 0 0 0 -0.0059,-0.008 3.4953694,3.4953694 0 0 0 -0.101562,-0.10937 3.4953694,3.4953694 0 0 0 -0.0059,-0.006 3.4953694,3.4953694 0 0 0 -0.105468,-0.10352 3.4953694,3.4953694 0 0 0 -0.0059,-0.006 3.4953694,3.4953694 0 0 0 -0.111328,-0.0996 3.4953694,3.4953694 0 0 0 -0.0059,-0.006 3.4953694,3.4953694 0 0 0 -0.115235,-0.0957 3.4953694,3.4953694 0 0 0 -0.0059,-0.004 3.4953694,3.4953694 0 0 0 -0.03125,-0.0234 3.4953694,3.4953694 0 0 0 -0.08789,-0.0664 3.4953694,3.4953694 0 0 0 -0.07617,-0.0527 3.4953694,3.4953694 0 0 0 -0.05273,-0.0371 3.4953694,3.4953694 0 0 0 -0.0078,-0.004 3.4953694,3.4953694 0 0 0 -0.03516,-0.0234 3.4953694,3.4953694 0 0 0 -0.228515,-0.13281 3.4953694,3.4953694 0 0 0 -0.0059,-0.004 3.4953694,3.4953694 0 0 0 -0.134765,-0.0664 3.4953694,3.4953694 0 0 0 -0.0059,-0.004 3.4953694,3.4953694 0 0 0 -0.136718,-0.0606 3.4953694,3.4953694 0 0 0 -0.0078,-0.004 3.4953694,3.4953694 0 0 0 -0.138672,-0.0547 3.4953694,3.4953694 0 0 0 -0.0078,-0.002 3.4953694,3.4953694 0 0 0 -0.140625,-0.0488 3.4953694,3.4953694 0 0 0 -0.0078,-0.002 3.4953694,3.4953694 0 0 0 -0.142578,-0.043 3.4953694,3.4953694 0 0 0 -0.0078,-0.002 3.4953694,3.4953694 0 0 0 -0.144532,-0.0352 3.4953694,3.4953694 0 0 0 -0.0078,-0.002 3.4953694,3.4953694 0 0 0 -0.0293,-0.006 3.4953694,3.4953694 0 0 0 -0.28125,-0.0469 3.4953694,3.4953694 0 0 0 -0.0625,-0.008 3.4953694,3.4953694 0 0 0 -0.08594,-0.008 3.4953694,3.4953694 0 0 0 -0.125,-0.008 3.4953694,3.4953694 0 0 0 -0.03125,-0.002 3.4953694,3.4953694 0 0 0 -0.0078,0 3.4953694,3.4953694 0 0 0 -0.121094,-0.004 z"
           id="path4784" />
        <circle
           style="opacity:1;fill:#191a1a;fill-opacity:1;stroke-width:4.08334;stroke-linecap:round;stroke-linejoin:round"
           id="circle4760"
           cx="-78.844505"
           cy="149.40366"
           r="1.8708868" />
        <circle
           style="opacity:1;fill:#191a1a;fill-opacity:1;stroke-width:9.33337;stroke-linecap:round;stroke-linejoin:round"
           id="circle4762"
           cx="-114.9259"
           cy="109.58053"
           r="4.2763124" />
        <circle
           style="opacity:1;fill:#191a1a;fill-opacity:1;stroke-width:2.33334;stroke-linecap:round;stroke-linejoin:round"
           id="circle4764"
           cx="-110.11504"
           cy="125.08215"
           r="1.069078" />
        <rect
           style="opacity:1;fill:#191a1a;fill-opacity:1;stroke-width:3.76923;stroke-linecap:round;stroke-linejoin:round"
           id="rect4766"
           width="3.7417731"
           height="3.7417731"
           x="-92.475258"
           y="94.613396"
           ry="0.084142417" />
        <rect
           style="opacity:1;fill:#191a1a;fill-opacity:1;stroke-width:6.46999;stroke-linecap:round;stroke-linejoin:round"
           id="rect4768"
           width="6.4228463"
           height="6.4228463"
           x="38.176956"
           y="170.8466"
           ry="0.14443254"
           transform="rotate(45)" />
        <rect
           style="opacity:1;fill:#191a1a;fill-opacity:1;stroke-width:3.76923;stroke-linecap:round;stroke-linejoin:round"
           id="rect4770"
           width="3.7417734"
           height="3.7417734"
           x="41.218388"
           y="130.79874"
           ry="0.084142417"
           transform="rotate(45)" />
      </g>
      <g
         id="g4780"
         transform="translate(571.54307,14.967094)">
        <rect
           style="opacity:1;fill:#ffffff;stroke-width:7;stroke-linecap:round;stroke-linejoin:round"
           id="rect4774"
           width="120.80582"
           height="24.588797"
           x="-137.91107"
           y="492.845"
           ry="9.7779675" />
        <text
           xml:space="preserve"
           style="font-style:normal;font-variant:normal;font-weight:normal;font-stretch:normal;font-size:21.1667px;line-height:1.25;font-family:Montserrat;-inkscape-font-specification:'Montserrat, Normal';font-variant-ligatures:normal;font-variant-caps:normal;font-variant-numeric:normal;font-feature-settings:normal;text-align:center;letter-spacing:0px;word-spacing:0px;writing-mode:lr-tb;text-anchor:middle;white-space:pre;inline-size:403.792;fill:#0a0b0b;fill-opacity:1;stroke:none;stroke-width:0.264583"
           x="5.6420183"
           y="273.68399"
           id="text4778"
           transform="matrix(0.57816934,0,0,0.57816934,-80.693316,350.17776)"><tspan
             x="5.6420183"
             y="273.68399"><tspan
               style="font-style:italic;font-variant:normal;font-weight:300;font-stretch:normal;font-size:21.1667px;font-family:Roboto;-inkscape-font-specification:'Roboto Light Italic';text-align:center;text-anchor:middle;fill:#0a0b0b;fill-opacity:1;stroke-width:0.264583">al-jatsiyah 45:23</tspan></tspan></text>
      </g>
    </g>
    <g
       id="g13115">
      <g
         id="g3803"
         clip-path="url(#clipPath3805)">
        <image
           width="2116.6667"
           height="1411.1112"
           preserveAspectRatio="none"
           xlink:href="file:///C:/Users/SERVER%20ISTIQLAL/Downloads/adrian-zIWMIfu1TUU-unsplash.jpg"
           id="image3789"
           sodipodi:absref="C:\Users\SERVER ISTIQLAL\Downloads\adrian-zIWMIfu1TUU-unsplash.jpg"
           x="-1180.0417"
           y="-538.49011"
           style="filter:url(#filter4668)" />
        <rect
           style="mix-blend-mode:overlay;fill:#1c2422;stroke-width:40.3357;stroke-linecap:round;stroke-linejoin:round;opacity:0.5751634"
           id="rect3777"
           width="1100.7888"
           height="619.19366"
           x="-289.19971"
           y="-215.63879"
           ry="0.53090709"
           transform="rotate(90)" />
      </g>
      <text
         xml:space="preserve"
         style="font-style:normal;font-variant:normal;font-weight:normal;font-stretch:normal;font-size:21.1667px;line-height:1.25;font-family:Montserrat;-inkscape-font-specification:'Montserrat, Normal';font-variant-ligatures:normal;font-variant-caps:normal;font-variant-numeric:normal;font-feature-settings:normal;text-align:center;letter-spacing:0px;word-spacing:0px;writing-mode:lr-tb;text-anchor:middle;white-space:pre;inline-size:403.792;fill:#ffffff;fill-opacity:1;stroke:none;stroke-width:0.264583"
         x="5.6420183"
         y="273.68399"
         id="text4672"
         transform="matrix(0.68070016,0,0,0.68070016,-98.392764,144.56917)"><tspan
           x="5.6420183"
           y="273.68399"><tspan
             style="font-style:normal;font-variant:normal;font-weight:normal;font-stretch:normal;font-size:21.1667px;font-family:Roboto;-inkscape-font-specification:Roboto;text-align:center;text-anchor:middle;fill:#ffffff;stroke-width:0.264583">Have you seen him who takes his own lust</tspan><tspan></tspan><tspan
             y="273.68399"> </tspan></tspan><tspan
           x="5.6420183"
           y="301.07567"><tspan
             style="font-style:normal;font-variant:normal;font-weight:normal;font-stretch:normal;font-size:21.1667px;font-family:Roboto;-inkscape-font-specification:Roboto;text-align:center;text-anchor:middle;fill:#ffffff;stroke-width:0.264583">(vain desires) as his ilâh (god)?
</tspan></tspan><tspan
           x="5.6420183"
           y="328.46736"><tspan
             style="font-style:normal;font-variant:normal;font-weight:normal;font-stretch:normal;font-size:21.1667px;font-family:Roboto;-inkscape-font-specification:Roboto;text-align:center;text-anchor:middle;fill:#ffffff;stroke-width:0.264583">
</tspan></tspan><tspan
           x="5.6420183"
           y="355.85905"><tspan
             style="font-style:normal;font-variant:normal;font-weight:normal;font-stretch:normal;font-size:21.1667px;font-family:Roboto;-inkscape-font-specification:Roboto;text-align:center;text-anchor:middle;fill:#ffffff;stroke-width:0.264583">And Allâh knowing (him as such), left him</tspan><tspan></tspan><tspan
             y="355.85905"> </tspan></tspan><tspan
           x="5.6420183"
           y="383.25075"><tspan
             style="font-style:normal;font-variant:normal;font-weight:normal;font-stretch:normal;font-size:21.1667px;font-family:Roboto;-inkscape-font-specification:Roboto;text-align:center;text-anchor:middle;fill:#ffffff;stroke-width:0.264583">astray, and sealed his hearing and his</tspan><tspan></tspan><tspan
             y="383.25075"> </tspan></tspan><tspan
           x="5.6420183"
           y="410.64244"><tspan
             style="font-style:normal;font-variant:normal;font-weight:normal;font-stretch:normal;font-size:21.1667px;font-family:Roboto;-inkscape-font-specification:Roboto;text-align:center;text-anchor:middle;fill:#ffffff;stroke-width:0.264583">heart, and put a cover on his sight.
</tspan></tspan><tspan
           x="5.6420183"
           y="438.03413"><tspan
             style="font-style:normal;font-variant:normal;font-weight:normal;font-stretch:normal;font-size:21.1667px;font-family:Roboto;-inkscape-font-specification:Roboto;text-align:center;text-anchor:middle;fill:#ffffff;stroke-width:0.264583">
</tspan></tspan><tspan
           x="5.6420183"
           y="465.42583"><tspan
             style="font-style:normal;font-variant:normal;font-weight:normal;font-stretch:normal;font-size:21.1667px;font-family:Roboto;-inkscape-font-specification:Roboto;text-align:center;text-anchor:middle;fill:#ffffff;stroke-width:0.264583">Who then will guide him after Allâh? Will</tspan><tspan></tspan><tspan
             y="465.42583"> </tspan></tspan><tspan
           x="5.6420183"
           y="492.81752"><tspan
             style="font-style:normal;font-variant:normal;font-weight:normal;font-stretch:normal;font-size:21.1667px;font-family:Roboto;-inkscape-font-specification:Roboto;text-align:center;text-anchor:middle;fill:#ffffff;stroke-width:0.264583">you not then remember?</tspan></tspan></text>
      <text
         xml:space="preserve"
         style="font-style:normal;font-variant:normal;font-weight:normal;font-stretch:normal;font-size:59.0465px;line-height:1.25;font-family:Montserrat;-inkscape-font-specification:'Montserrat, Normal';font-variant-ligatures:normal;font-variant-caps:normal;font-variant-numeric:normal;font-feature-settings:normal;text-align:start;letter-spacing:0px;word-spacing:0px;writing-mode:lr-tb;text-anchor:start;fill:#ffffff;fill-opacity:1;stroke:none;stroke-width:1.47616"
         x="-178.51248"
         y="290.16489"
         id="text4694"><tspan
           sodipodi:role="line"
           id="tspan4692"
           x="-178.51248"
           y="290.16489"
           style="font-style:normal;font-variant:normal;font-weight:900;font-stretch:normal;font-family:Metropolis;-inkscape-font-specification:'Metropolis Heavy';fill:#ffffff;stroke-width:1.47616">guide</tspan></text>
      <g
         id="g4731"
         transform="translate(2.4234305)">
        <path
           style="opacity:1;fill:none;stroke:#ffffff;stroke-width:6.99004;stroke-linecap:round;stroke-linejoin:round"
           d="m -109.15097,144.22977 33.224509,-31.76932 -24.175789,-0.058 24.175789,0.058 0.103403,23.31253"
           id="path4710"
           sodipodi:nodetypes="ccccc" />
        <circle
           style="opacity:1;fill:#ffffff;stroke-width:4.08334;stroke-linecap:round;stroke-linejoin:round"
           id="path4712"
           cx="-78.844505"
           cy="149.40366"
           r="1.8708868" />
        <circle
           style="opacity:1;fill:#ffffff;stroke-width:9.33337;stroke-linecap:round;stroke-linejoin:round"
           id="circle4714"
           cx="-114.9259"
           cy="109.58053"
           r="4.2763124" />
        <circle
           style="opacity:1;fill:#ffffff;stroke-width:2.33334;stroke-linecap:round;stroke-linejoin:round"
           id="circle4716"
           cx="-110.11504"
           cy="125.08215"
           r="1.069078" />
        <rect
           style="opacity:1;fill:#ffffff;stroke-width:3.76923;stroke-linecap:round;stroke-linejoin:round"
           id="rect4718"
           width="3.7417731"
           height="3.7417731"
           x="-92.475258"
           y="94.613396"
           ry="0.084142417" />
        <rect
           style="opacity:1;fill:#ffffff;stroke-width:6.46999;stroke-linecap:round;stroke-linejoin:round"
           id="rect4720"
           width="6.4228463"
           height="6.4228463"
           x="38.176956"
           y="170.8466"
           ry="0.14443254"
           transform="rotate(45)" />
        <rect
           style="opacity:1;fill:#ffffff;stroke-width:3.76923;stroke-linecap:round;stroke-linejoin:round"
           id="rect4722"
           width="3.7417734"
           height="3.7417734"
           x="41.218388"
           y="130.79874"
           ry="0.084142417"
           transform="rotate(45)" />
      </g>
      <g
         id="g4742"
         transform="translate(-16.44989,14.967094)">
        <rect
           style="opacity:1;fill:#ffffff;stroke-width:7;stroke-linecap:round;stroke-linejoin:round"
           id="rect4737"
           width="120.80582"
           height="24.588797"
           x="-137.91107"
           y="492.845"
           ry="9.7779675" />
        <text
           xml:space="preserve"
           style="font-style:normal;font-variant:normal;font-weight:normal;font-stretch:normal;font-size:21.1667px;line-height:1.25;font-family:Montserrat;-inkscape-font-specification:'Montserrat, Normal';font-variant-ligatures:normal;font-variant-caps:normal;font-variant-numeric:normal;font-feature-settings:normal;text-align:center;letter-spacing:0px;word-spacing:0px;writing-mode:lr-tb;text-anchor:middle;white-space:pre;inline-size:403.792;fill:#0a0b0b;fill-opacity:1;stroke:none;stroke-width:0.264583"
           x="5.6420183"
           y="273.68399"
           id="text4735"
           transform="matrix(0.57816934,0,0,0.57816934,-80.693316,350.17776)"><tspan
             x="5.6420183"
             y="273.68399"><tspan
               style="font-style:italic;font-variant:normal;font-weight:300;font-stretch:normal;font-size:21.1667px;font-family:Roboto;-inkscape-font-specification:'Roboto Light Italic';text-align:center;text-anchor:middle;fill:#0a0b0b;fill-opacity:1;stroke-width:0.264583">al-jatsiyah 45:23</tspan></tspan></text>
      </g>
    </g>
    <g
       id="g13201"
       transform="translate(575.164)">
      <rect
         style="fill:#ffffff;stroke-width:33.1277;stroke-linecap:round;stroke-linejoin:round"
         id="rect13203"
         width="904.07837"
         height="508.54407"
         x="-190.84447"
         y="-748.30695"
         ry="0.4360342"
         transform="rotate(90)" />
      <g
         id="g13241"
         clip-path="url(#clipPath13260)">
        <g
           id="g13121"
           clip-path="url(#clipPath13216)"
           transform="translate(587.99296)">
          <image
             width="2116.6667"
             height="1411.1112"
             preserveAspectRatio="none"
             xlink:href="file:///C:/Users/SERVER%20ISTIQLAL/Downloads/adrian-zIWMIfu1TUU-unsplash.jpg"
             id="image13117"
             sodipodi:absref="C:\Users\SERVER ISTIQLAL\Downloads\adrian-zIWMIfu1TUU-unsplash.jpg"
             x="-1180.0417"
             y="-934.60913"
             style="filter:url(#filter4668)" />
          <rect
             style="opacity:0.575163;mix-blend-mode:overlay;fill:#1c2422;stroke-width:40.3357;stroke-linecap:round;stroke-linejoin:round"
             id="rect13119"
             width="1100.7888"
             height="619.19366"
             x="-289.19971"
             y="-215.63879"
             ry="0.53090709"
             transform="rotate(90)" />
        </g>
      </g>
      <text
         xml:space="preserve"
         style="font-style:normal;font-variant:normal;font-weight:normal;font-stretch:normal;font-size:21.1667px;line-height:1.25;font-family:Montserrat;-inkscape-font-specification:'Montserrat, Normal';font-variant-ligatures:normal;font-variant-caps:normal;font-variant-numeric:normal;font-feature-settings:normal;text-align:center;letter-spacing:0px;word-spacing:0px;writing-mode:lr-tb;text-anchor:middle;white-space:pre;inline-size:403.792;fill:#0d0e0e;fill-opacity:1;stroke:none;stroke-width:0.264583"
         x="5.6420183"
         y="273.68399"
         id="text13167"
         transform="matrix(0.68070016,0,0,0.68070016,489.6002,219.40464)"><tspan
           x="5.6420183"
           y="273.68399"><tspan
             style="font-style:normal;font-variant:normal;font-weight:normal;font-stretch:normal;font-size:21.1667px;font-family:Roboto;-inkscape-font-specification:Roboto;text-align:center;text-anchor:middle;fill:#0d0e0e;fill-opacity:1;stroke-width:0.264583">Have you seen him who takes his own lust</tspan><tspan
             style="fill:#0d0e0e;fill-opacity:1"></tspan><tspan
             y="273.68399"> </tspan></tspan><tspan
           x="5.6420183"
           y="301.07567"><tspan
             style="font-style:normal;font-variant:normal;font-weight:normal;font-stretch:normal;font-size:21.1667px;font-family:Roboto;-inkscape-font-specification:Roboto;text-align:center;text-anchor:middle;fill:#0d0e0e;fill-opacity:1;stroke-width:0.264583">(vain desires) as his ilâh (god)?
</tspan></tspan><tspan
           x="5.6420183"
           y="328.46736"><tspan
             style="font-style:normal;font-variant:normal;font-weight:normal;font-stretch:normal;font-size:21.1667px;font-family:Roboto;-inkscape-font-specification:Roboto;text-align:center;text-anchor:middle;fill:#0d0e0e;fill-opacity:1;stroke-width:0.264583">
</tspan></tspan><tspan
           x="5.6420183"
           y="355.85905"><tspan
             style="font-style:normal;font-variant:normal;font-weight:normal;font-stretch:normal;font-size:21.1667px;font-family:Roboto;-inkscape-font-specification:Roboto;text-align:center;text-anchor:middle;fill:#0d0e0e;fill-opacity:1;stroke-width:0.264583">And Allâh knowing (him as such), left him</tspan><tspan
             style="fill:#0d0e0e;fill-opacity:1"></tspan><tspan
             y="355.85905"> </tspan></tspan><tspan
           x="5.6420183"
           y="383.25075"><tspan
             style="font-style:normal;font-variant:normal;font-weight:normal;font-stretch:normal;font-size:21.1667px;font-family:Roboto;-inkscape-font-specification:Roboto;text-align:center;text-anchor:middle;fill:#0d0e0e;fill-opacity:1;stroke-width:0.264583">astray, and sealed his hearing and his</tspan><tspan
             style="fill:#0d0e0e;fill-opacity:1"></tspan><tspan
             y="383.25075"> </tspan></tspan><tspan
           x="5.6420183"
           y="410.64244"><tspan
             style="font-style:normal;font-variant:normal;font-weight:normal;font-stretch:normal;font-size:21.1667px;font-family:Roboto;-inkscape-font-specification:Roboto;text-align:center;text-anchor:middle;fill:#0d0e0e;fill-opacity:1;stroke-width:0.264583">heart, and put a cover on his sight.
</tspan></tspan><tspan
           x="5.6420183"
           y="438.03413"><tspan
             style="font-style:normal;font-variant:normal;font-weight:normal;font-stretch:normal;font-size:21.1667px;font-family:Roboto;-inkscape-font-specification:Roboto;text-align:center;text-anchor:middle;fill:#0d0e0e;fill-opacity:1;stroke-width:0.264583">
</tspan></tspan><tspan
           x="5.6420183"
           y="465.42583"><tspan
             style="font-style:normal;font-variant:normal;font-weight:normal;font-stretch:normal;font-size:21.1667px;font-family:Roboto;-inkscape-font-specification:Roboto;text-align:center;text-anchor:middle;fill:#0d0e0e;fill-opacity:1;stroke-width:0.264583">Who then will guide him after Allâh? Will</tspan><tspan
             style="fill:#0d0e0e;fill-opacity:1"></tspan><tspan
             y="465.42583"> </tspan></tspan><tspan
           x="5.6420183"
           y="492.81752"><tspan
             style="font-style:normal;font-variant:normal;font-weight:normal;font-stretch:normal;font-size:21.1667px;font-family:Roboto;-inkscape-font-specification:Roboto;text-align:center;text-anchor:middle;fill:#0d0e0e;fill-opacity:1;stroke-width:0.264583">you not then remember?</tspan></tspan></text>
      <text
         xml:space="preserve"
         style="font-style:normal;font-variant:normal;font-weight:normal;font-stretch:normal;font-size:59.0465px;line-height:1.25;font-family:Montserrat;-inkscape-font-specification:'Montserrat, Normal';font-variant-ligatures:normal;font-variant-caps:normal;font-variant-numeric:normal;font-feature-settings:normal;text-align:start;letter-spacing:0px;word-spacing:0px;writing-mode:lr-tb;text-anchor:start;fill:#0d0e0e;fill-opacity:1;stroke:none;stroke-width:1.47616"
         x="409.48047"
         y="365.00037"
         id="text13171"><tspan
           sodipodi:role="line"
           id="tspan13169"
           x="409.48047"
           y="365.00037"
           style="font-style:normal;font-variant:normal;font-weight:900;font-stretch:normal;font-family:Metropolis;-inkscape-font-specification:'Metropolis Heavy';fill:#0d0e0e;fill-opacity:1;stroke-width:1.47616">guide</tspan></text>
      <g
         id="g13199"
         transform="translate(571.54307,89.80256)">
        <rect
           style="opacity:1;fill:#0d0e0e;fill-opacity:1;stroke-width:7;stroke-linecap:round;stroke-linejoin:round"
           id="rect13191"
           width="120.80582"
           height="24.588797"
           x="-137.91107"
           y="492.845"
           ry="9.7779675" />
        <text
           xml:space="preserve"
           style="font-style:normal;font-variant:normal;font-weight:normal;font-stretch:normal;font-size:21.1667px;line-height:1.25;font-family:Montserrat;-inkscape-font-specification:'Montserrat, Normal';font-variant-ligatures:normal;font-variant-caps:normal;font-variant-numeric:normal;font-feature-settings:normal;text-align:center;letter-spacing:0px;word-spacing:0px;writing-mode:lr-tb;text-anchor:middle;white-space:pre;inline-size:403.792;fill:#ffffff;fill-opacity:1;stroke:none;stroke-width:0.264583"
           x="5.6420183"
           y="273.68399"
           id="text13197"
           transform="matrix(0.57816934,0,0,0.57816934,-80.693316,350.17776)"><tspan
             x="5.6420183"
             y="273.68399"><tspan
               style="font-style:italic;font-variant:normal;font-weight:300;font-stretch:normal;font-size:21.1667px;font-family:Roboto;-inkscape-font-specification:'Roboto Light Italic';text-align:center;text-anchor:middle;fill:#ffffff;fill-opacity:1;stroke-width:0.264583">al-jatsiyah 45:23</tspan></tspan></text>
      </g>
    </g>
  </g>
</svg>
