<?xml version="1.0" encoding="UTF-8" standalone="no"?>
<!-- Created with Inkscape (http://www.inkscape.org/) -->

<svg
   xmlns:dc="http://purl.org/dc/elements/1.1/"
   xmlns:cc="http://creativecommons.org/ns#"
   xmlns:rdf="http://www.w3.org/1999/02/22-rdf-syntax-ns#"
   xmlns:svg="http://www.w3.org/2000/svg"
   xmlns="http://www.w3.org/2000/svg"
   xmlns:xlink="http://www.w3.org/1999/xlink"
   xmlns:sodipodi="http://sodipodi.sourceforge.net/DTD/sodipodi-0.dtd"
   xmlns:inkscape="http://www.inkscape.org/namespaces/inkscape"
   width="2000"
   height="2000"
   viewBox="0 0 529.16665 529.16668"
   version="1.1"
   id="svg2264"
   sodipodi:docname="logo1.svg"
   inkscape:export-filename="/home/ichsan/Documents/Design/logo1.png"
   inkscape:export-xdpi="150"
   inkscape:export-ydpi="150"
   inkscape:version="0.92.2 (unknown)">
  <defs
     id="defs2258">
    <clipPath
       clipPathUnits="userSpaceOnUse"
       id="clipPath2882-1-2-9">
      <g
         id="g2900-2-8-4">
        <circle
           r="48.713074"
           cy="302.18628"
           cx="-440.38809"
           id="circle2884-7-9-7"
           style="opacity:0.75;fill:#ef5350;fill-opacity:1;stroke:none;stroke-width:0.52389711;stroke-linecap:round;stroke-linejoin:round;stroke-miterlimit:4;stroke-dasharray:none;stroke-dashoffset:0;stroke-opacity:1;paint-order:fill markers stroke" />
        <rect
           transform="matrix(0.9788717,-0.20447541,0,1,0,0)"
           y="191.7849"
           x="-511.9469"
           height="37.240154"
           width="123.95943"
           id="rect2886-0-7-8"
           style="opacity:0.75;fill:#ef5350;fill-opacity:1;stroke:none;stroke-width:0.4650729;stroke-linecap:round;stroke-linejoin:round;stroke-miterlimit:4;stroke-dasharray:none;stroke-dashoffset:0;stroke-opacity:1;paint-order:fill markers stroke" />
        <path
           inkscape:connector-curvature="0"
           id="path2888-9-3-4"
           d="m -380.85908,277.22205 13.22986,-2.40543 -5.7463,13.36349 6.14719,11.22532 c 0,0 -14.03164,3.74177 -14.29893,3.20723 -0.26725,-0.53454 0.66818,-25.39061 0.66818,-25.39061 z"
           style="opacity:0.75;fill:#ef5350;fill-opacity:1;stroke:none;stroke-width:0.5;stroke-linecap:round;stroke-linejoin:round;stroke-miterlimit:4;stroke-dasharray:none;stroke-dashoffset:0;stroke-opacity:1;paint-order:fill markers stroke" />
        <path
           inkscape:connector-curvature="0"
           id="path2890-3-6-5"
           d="m -499.76373,327.85177 -13.22986,2.40543 5.7463,-13.36349 -6.14719,-11.22532 c 0,0 14.03164,-3.74177 14.29893,-3.20723 0.26725,0.53454 -0.66818,25.39061 -0.66818,25.39061 z"
           style="opacity:0.75;fill:#ef5350;fill-opacity:1;stroke:none;stroke-width:0.5;stroke-linecap:round;stroke-linejoin:round;stroke-miterlimit:4;stroke-dasharray:none;stroke-dashoffset:0;stroke-opacity:1;paint-order:fill markers stroke" />
        <rect
           ry="7.5031667"
           transform="rotate(-11.787156)"
           y="149.83829"
           x="-521.31177"
           height="26.955818"
           width="15.006333"
           id="rect2892-60-1-0"
           style="opacity:0.75;fill:#ef5350;fill-opacity:1;stroke:none;stroke-width:0.73521841;stroke-linecap:round;stroke-linejoin:round;stroke-miterlimit:4;stroke-dasharray:none;stroke-dashoffset:0;stroke-opacity:1;paint-order:fill markers stroke" />
        <rect
           ry="7.5204697"
           transform="rotate(-11.787156)"
           y="149.87349"
           x="-510.22144"
           height="27.017982"
           width="15.040939"
           id="rect2894-6-2-3"
           style="opacity:0.75;fill:#ef5350;fill-opacity:1;stroke:none;stroke-width:0.73691392;stroke-linecap:round;stroke-linejoin:round;stroke-miterlimit:4;stroke-dasharray:none;stroke-dashoffset:0;stroke-opacity:1;paint-order:fill markers stroke" />
        <rect
           ry="7.5204697"
           transform="rotate(-11.787156)"
           y="149.98509"
           x="-499.0473"
           height="27.017982"
           width="15.040939"
           id="rect2896-2-9-6"
           style="opacity:0.75;fill:#ef5350;fill-opacity:1;stroke:none;stroke-width:0.73691392;stroke-linecap:round;stroke-linejoin:round;stroke-miterlimit:4;stroke-dasharray:none;stroke-dashoffset:0;stroke-opacity:1;paint-order:fill markers stroke" />
        <rect
           ry="7.6894011"
           transform="rotate(-11.787156)"
           y="127.10448"
           x="-488.04834"
           height="41.894199"
           width="15.297026"
           id="rect2898-6-3-1"
           style="opacity:0.75;fill:#ef5350;fill-opacity:1;stroke:none;stroke-width:0.75346714;stroke-linecap:round;stroke-linejoin:round;stroke-miterlimit:4;stroke-dasharray:none;stroke-dashoffset:0;stroke-opacity:1;paint-order:fill markers stroke" />
      </g>
    </clipPath>
  </defs>
  <sodipodi:namedview
     id="base"
     pagecolor="#ffffff"
     bordercolor="#666666"
     borderopacity="1.0"
     inkscape:pageopacity="0.0"
     inkscape:pageshadow="2"
     inkscape:zoom="0.0875"
     inkscape:cx="-888.81947"
     inkscape:cy="1060.091"
     inkscape:document-units="mm"
     inkscape:current-layer="layer1"
     showgrid="false"
     units="px"
     inkscape:showpageshadow="false"
     inkscape:window-width="1366"
     inkscape:window-height="714"
     inkscape:window-x="0"
     inkscape:window-y="26"
     inkscape:window-maximized="1" />
  <metadata
     id="metadata2261">
    <rdf:RDF>
      <cc:Work
         rdf:about="">
        <dc:format>image/svg+xml</dc:format>
        <dc:type
           rdf:resource="http://purl.org/dc/dcmitype/StillImage" />
        <dc:title></dc:title>
      </cc:Work>
    </rdf:RDF>
  </metadata>
  <g
     inkscape:label="Layer 1"
     inkscape:groupmode="layer"
     id="layer1"
     transform="translate(0,232.16668)">
    <g
       id="g2413"
       inkscape:export-filename="/home/ichsan/Documents/Design/logo2.png"
       inkscape:export-xdpi="150"
       inkscape:export-ydpi="150">
      <rect
         y="-220.07144"
         x="-662.21429"
         height="529.16669"
         width="529.16669"
         id="rect2394-2"
         style="opacity:1;fill:#000000;fill-opacity:1;stroke:none;stroke-width:0.5;stroke-linecap:round;stroke-linejoin:round;stroke-miterlimit:4;stroke-dasharray:none;stroke-dashoffset:7.88801336;stroke-opacity:1;paint-order:fill markers stroke" />
      <path
         style="display:inline;opacity:1;fill:#ffffff;fill-opacity:1;stroke-width:0.7866987"
         d="m -411.33261,233.6241 c -4.10164,-0.66811 -9.22935,-1.67027 -15.47583,-3.01799 -9.58212,-2.07055 -27.45707,-10.44403 -39.49014,-18.50045 -13.55416,-9.07498 -28.6559,-22.7688 -39.30295,-35.63874 l -5.15678,-6.23267 -29.23044,6.20704 c -16.07683,3.41395 -29.36172,6.076 -29.52184,5.91589 -0.17279,-0.14398 -0.48093,-3.95938 -0.70842,-8.44288 -0.23038,-4.48349 -0.61051,-8.34468 -0.84377,-8.58024 -0.23038,-0.23038 -7.56081,0.87544 -16.27813,2.47084 -8.71732,1.59538 -15.98986,2.7588 -16.16063,2.5889 -0.17279,-0.17279 3.26708,-8.53475 7.64144,-18.58596 l 7.95303,-18.27497 -8.34152,-15.68893 c -4.58773,-8.62891 -8.22516,-15.79864 -8.08348,-15.93314 0.14399,-0.14399 7.51502,-1.748 16.38468,-3.584138 8.86966,-1.837288 16.56985,-3.685805 17.11095,-4.108556 0.67675,-0.529869 0.98201,-3.395813 0.98201,-9.232511 v -8.463893 l 3.64001,-0.915763 c 2.00143,-0.503959 9.87901,-2.162699 17.50376,-3.687242 7.62559,-1.523402 14.72449,-3.189046 15.77531,-3.7005 1.64147,-0.797684 2.5342,-3.057146 6.33462,-15.993891 2.43338,-8.285358 5.386,-17.517869 6.56324,-20.516842 1.21814,-3.103526 6.67299,-12.306084 12.6649,-21.36264 l 10.52552,-15.9103719 -2.31532,-15.8885051 c -1.27286,-8.738344 -2.11374,-16.996342 -1.87185,-18.350974 0.74586,-4.12411 6.30294,-11.869794 10.4279,-14.526378 3.46838,-2.234693 4.15578,-2.387318 9.25382,-2.070544 3.40186,0.201584 6.87946,0.993519 9.09745,2.047508 l 3.59105,1.707699 4.66983,-4.334894 c 5.38774,-5.001566 8.32509,-6.241302 14.89814,-6.288246 3.59481,-0.0227 5.748,0.475161 9.022,2.093579 l 4.29977,2.128153 3.84535,-4.314169 c 5.52798,-6.202713 7.36814,-6.996664 16.08086,-6.937631 6.30494,0.02874 7.23596,-0.115244 6.90076,-1.197977 -0.20159,-0.685382 -2.72137,-12.044313 -5.57118,-25.241375 -5.56831,-25.776448 -5.71373,-27.632168 -2.69833,-34.445968 2.49962,-5.65238 5.02173,-8.40946 9.85482,-10.77403 6.72625,-3.29071 13.22184,-2.26637 20.58971,3.24808 5.46376,4.08926 7.16225,7.88305 11.33012,25.29867 6.25454,26.134686 7.70163,32.890599 9.72293,45.387897 1.04824,6.490394 2.29517,13.597077 2.76457,15.792603 l 0.85817,3.99221 8.72798,2.646497 c 22.84281,6.921781 45.16902,19.612026 62.22037,35.364307 4.35908,4.0276291 14.85552,16.2979986 18.99431,22.204676 0.8668,1.238286 1.51475,1.203739 9.5441,-0.529883 4.73691,-1.022317 17.28662,-3.6765907 27.88758,-5.896885 10.6001,-2.2202943 19.89338,-4.2174069 20.65076,-4.4385739 1.2527,-0.36571902 1.37652,0.38302 1.37652,8.304942 0,5.5020729 0.30525,8.7066719 0.81786,8.7066719 0.44924,0 7.94785,-1.235425 16.66113,-2.744414 8.71271,-1.50899 15.98411,-2.603301 16.1569,-2.430515 0.17278,0.172786 -3.2527,8.474263 -7.61322,18.446876 -4.36054,9.972883 -7.91187,18.589133 -7.89141,19.147517 0,0.558667 3.69386,7.564262 8.16411,15.568843 l 8.12697,14.554008 -5.60717,1.281495 c -3.08423,0.705543 -10.82934,2.447802 -17.21147,3.87299 l -11.6034,2.59179 v 8.880304 8.880604 l -2.95032,0.78042 c -1.62418,0.42908 -9.85339,2.42763 -18.29109,4.44462 -8.43682,2.01584 -15.59303,3.89603 -15.90231,4.17854 -0.3139,0.28797 -1.47155,3.69472 -2.58026,7.58269 -4.59581,16.08317 -13.35603,35.2327 -22.30719,48.76441 -20.47165,30.94761 -49.57535,51.0541 -83.6239,57.77228 -22.78206,4.49502 -41.1676,5.85974 -52.98526,3.9326 z m 35.3692,-7.84965 c 34.7587,-3.98156 66.76002,-21.44297 89.26592,-48.70768 11.41162,-13.82428 21.15212,-32.85344 25.62035,-50.05166 2.34125,-9.01364 2.22317,-10.05179 -1.02231,-8.92005 -1.9352,0.67386 -2.42476,1.44276 -3.23743,5.07845 -5.28551,23.61922 -20.68502,49.16988 -39.56185,65.64268 -41.75132,36.43241 -98.46213,43.10165 -147.50731,17.34738 -14.07195,-7.38946 -30.52776,-21.11699 -39.95581,-33.33148 -3.37852,-4.37695 -4.21049,-5.03641 -5.89976,-4.67299 -1.08278,0.23039 -2.23756,0.66522 -2.56874,0.96473 -0.69401,0.61915 5.51185,8.65885 11.49226,14.89584 17.29583,18.03881 36.16085,29.68197 59.91338,36.97784 7.0632,2.16846 17.1939,4.23439 24.7812,5.05052 5.98788,0.64506 22.01001,0.49244 28.6824,-0.28798 z m 1.60402,-9.04849 c 8.56586,-1.33621 22.46731,-4.79999 26.74779,-6.66146 0.86681,-0.37725 4.08954,-1.75666 7.16455,-3.06953 7.822,-3.33764 22.38869,-11.91991 25.48386,-15.01479 0.20158,-0.20158 2.1627,-1.80849 4.3254,-3.54008 12.94365,-10.3585 25.58493,-26.71784 33.35682,-43.1676 2.76169,-5.84274 7.11186,-18.18683 8.28536,-23.50517 0.55579,-2.53996 0.36572,-2.57163 -6.18918,-1.06551 -4.32194,0.99352 -16.79014,3.64692 -29.15785,6.20472 -4.62345,0.95609 -4.766,1.06552 -6.9336,5.26364 -4.19609,8.12725 -9.53344,15.38194 -16.23781,22.06932 -9.46693,9.4436 -12.63063,11.80788 -22.68589,16.95688 -14.51772,7.43439 -27.48672,10.20501 -44.86808,9.58615 -14.82644,-0.527 -28.20696,-4.22634 -39.70526,-10.97506 -2.07342,-1.21813 -4.10912,-2.21453 -4.52266,-2.21453 -0.4118,0 -0.7545,-0.28797 -0.7545,-0.61627 0,-0.33981 -1.02808,-1.22678 -2.2894,-1.96975 -1.25846,-0.74298 -3.79898,-2.61483 -5.64692,-4.15808 -2.37868,-1.98704 -3.83613,-2.66955 -4.9889,-2.34125 -0.8956,0.25918 -3.22303,0.80057 -5.1706,1.20661 -1.94672,0.40606 -8.67327,1.83153 -14.94682,3.16601 -6.27385,1.33622 -12.74352,2.63499 -14.37721,2.88869 -3.73044,0.58171 -4.20358,1.34485 -2.48234,4.02072 2.19149,3.40619 19.31742,20.1419 23.17428,22.64441 1.93521,1.25558 3.69704,2.47083 3.91331,2.70122 0.35709,0.383 3.25413,2.33837 6.37664,4.30668 3.17812,2.00432 14.23149,7.53258 18.63177,9.32091 8.83768,3.59107 25.23071,7.63741 35.17453,8.68248 4.07802,0.42908 24.24556,-0.0864 28.32128,-0.72282 z m -33.0412,-7.99105 c -4.24563,-1.08854 -4.40316,-2.65225 -1.10871,-10.99176 3.38171,-8.55461 4.97479,-10.02702 10.89039,-10.06216 2.73578,-0.0227 5.0989,0.38301 5.67341,0.95609 0.78906,0.78617 -0.0864,0.98486 -4.13505,0.98486 -2.87975,0 -5.68924,0.4291 -6.41927,0.98489 -0.71705,0.54139 -2.3326,3.92281 -3.59249,7.5156 -2.73289,7.78225 -2.29517,8.8086 3.76701,8.8086 h 3.78371 l 0.92729,-3.67976 c 0.79481,-3.15736 0.7545,-3.77709 -0.29662,-4.366 -2.0763,-1.16342 -1.365,-2.17997 1.52628,-2.17997 1.51475,0 2.7444,0.25918 2.73576,0.59035 0,0.32541 -0.64794,3.06837 -1.42259,6.09702 l -1.40533,5.50696 -4.67298,0.11524 c -2.57163,0.0576 -5.38142,-0.0576 -6.24621,-0.28797 z m 17.60512,0.20159 c -0.68538,-0.68251 3.64434,-20.95746 4.42475,-20.72449 0.42621,0.14399 0.67099,1.91505 0.53276,3.97119 l -0.25918,3.73706 h 3.52915 c 5.58875,0 6.01783,-0.37435 6.01783,-5.26332 0,-2.95349 0.29085,-4.21136 0.92728,-3.9997 1.08855,0.36284 0.97624,20.2352 -0.11524,21.3488 -1.51188,1.53491 -2.17999,-0.50107 -1.78546,-5.4318 l 0.41181,-5.16427 -4.24188,0.52412 c -4.66148,0.57882 -6.20732,1.86321 -6.20732,5.16427 0,3.89142 -1.85169,7.22647 -3.24291,5.8367 z m 23.48675,-4.94686 c -1.88049,-2.07918 -3.07214,-19.52045 -1.29302,-18.93125 0.80346,0.25918 1.24693,2.46507 1.60978,7.98356 0.63931,9.77765 2.01584,11.46634 7.34714,9.03697 2.70122,-1.22965 3.06233,-3.19048 1.95535,-10.57101 -1.25557,-8.35448 -1.2815,-9.14958 -0.32828,-9.48305 0.89271,-0.3139 3.51617,11.09456 3.511,15.25956 -0.007,3.88075 -3.49517,7.34425 -7.89832,7.84043 -2.81352,0.31678 -3.79438,0.0864 -4.90309,-1.13463 z m -57.21218,-3.82691 c -4.71878,-1.26709 -6.44376,-2.38156 -4.66234,-3.01137 1.56084,-0.55003 11.19132,2.2491 11.56166,3.36098 0.39741,1.18646 -1.55219,1.08567 -6.89932,-0.34845 z m -21.96048,-2.31244 c -3.20545,-1.50325 -5.68349,-2.87976 -5.50724,-3.05831 0.17277,-0.17278 3.66016,-3.89257 7.7428,-8.25253 6.57766,-7.02488 9.49141,-9.26908 9.49141,-7.31142 0,0.33981 -2.83081,3.67055 -6.29372,7.40416 -3.46148,3.73418 -6.29429,7.16944 -6.29429,7.63452 0,0.76602 4.45499,3.08624 5.58271,2.90769 0.93016,-0.14399 3.04476,2.08496 2.62344,2.76745 -0.62489,1.00792 -0.92151,0.92152 -7.34511,-2.09071 z m 98.60066,-0.11525 c -0.28798,-1.22101 -1.35637,-5.64662 -2.3902,-9.83553 -1.03384,-4.1889 -1.88048,-7.98729 -1.88048,-8.44115 0,-1.24405 5.90725,-4.00344 8.56498,-4.00344 4.26146,0 6.92668,5.48249 4.69429,9.65468 -0.80057,1.49459 -0.51835,2.01583 2.53995,4.64706 2.46508,2.1224 3.19855,3.20403 2.58891,3.8131 -0.61052,0.6105 -1.91216,0.0287 -4.59062,-2.00431 -3.47617,-2.65226 -3.90727,-2.78761 -6.08868,-1.88337 -2.11087,0.87545 -2.28942,1.21814 -1.77969,3.40331 0.90423,3.86549 0.83513,6.18485 -0.20159,6.5405 -0.54139,0.17279 -1.17494,-0.63931 -1.46292,-1.88912 z m 5.75952,-12.24847 c 1.92368,-1.7941 2.22894,-3.76903 0.95608,-6.15002 -1.03671,-1.9352 -4.70495,-2.00719 -7.01365,-0.14399 -1.60978,1.30165 -1.65011,1.60403 -0.69978,5.15534 0.93016,3.47702 1.16341,3.73303 2.99811,3.27832 1.09431,-0.25917 2.78474,-1.23829 3.75953,-2.14542 z m -117.40462,4.93186 c -0.25918,-0.42331 -0.0864,-1.50035 0.38877,-2.39019 1.23254,-2.30381 0.39741,-3.99827 -3.19624,-6.48177 -2.81354,-1.94383 -3.58559,-2.11661 -7.44879,-1.66161 -5.26478,0.61915 -5.93979,-0.81786 -0.96472,-2.05615 9.07009,-2.25774 16.25825,-4.3902 19.3396,-5.73678 1.87472,-0.81784 3.63511,-1.26421 3.91158,-0.98775 0.44924,0.45212 -7.62014,16.66891 -9.50436,19.09914 -0.91577,1.18069 -1.87761,1.26134 -2.52555,0.20159 z m 5.49141,-11.48533 c 1.16054,-1.98128 1.95535,-3.75866 1.76242,-3.95017 -0.31102,-0.30814 -9.0678,2.67529 -9.98672,3.40128 -0.51835,0.4118 4.12065,4.08869 5.20487,4.12267 0.50396,0.023 1.85745,-1.59251 3.01973,-3.57378 z m 126.80358,7.64662 c -1.56947,-0.61915 -6.44836,-9.18528 -7.21236,-12.66346 -0.66234,-3.01712 1.66163,-7.58758 4.44434,-8.74036 3.42172,-1.41683 6.10451,0.14399 9.9271,5.78285 4.84837,7.14987 4.5002,10.93704 -1.37652,14.96381 -2.06478,1.41396 -3.45917,1.57235 -5.78227,0.65658 z m 6.68219,-3.77307 c 0.79194,-0.71705 1.43988,-2.14541 1.43988,-3.17838 0,-2.31245 -2.36715,-7.05772 -5.19249,-10.41782 -1.71634,-2.04175 -2.51115,-2.42764 -4.16787,-2.02735 -4.76744,1.14614 -5.11849,4.63468 -1.18647,11.78628 2.53132,4.60502 3.07846,5.14036 5.24836,5.14036 1.33333,0 3.06982,-0.58459 3.86148,-1.30164 z m 5.37162,-14.91715 c -3.24492,-4.15923 -6.32856,-8.14396 -6.85267,-8.85497 -0.80057,-1.08567 -0.44349,-1.82576 2.22317,-4.63007 1.74513,-1.83441 3.83412,-3.33736 4.63872,-3.33736 3.07587,0 5.3526,1.47444 5.86318,3.80128 0.40317,1.84305 0.83801,2.23758 2.09071,1.90928 3.8393,-1.00503 7.61639,3.78516 6.60732,8.37809 -0.48092,2.17134 -6.91373,10.30176 -8.1526,10.29831 -0.28797,-8.7e-4 -3.17262,-3.40475 -6.41783,-7.5637 z m 10.14597,0.85241 c 2.8452,-3.23973 3.11101,-5.97435 0.79193,-8.13474 -1.36212,-1.26998 -2.0475,-1.39668 -3.93864,-0.7401 -2.05327,0.71705 -5.42575,4.00172 -5.42575,5.28781 0,0.81786 4.77808,6.36658 5.48305,6.36658 0.3571,0 1.74513,-1.2527 3.08883,-2.78185 z m -8.18629,-8.03626 c 2.25773,-2.41611 2.37292,-5.44188 0.25918,-6.76771 -1.57236,-0.98489 -4.52065,0.32541 -5.97061,2.64649 -0.77465,1.24118 -0.59323,1.88336 1.09142,3.88595 1.1116,1.31893 2.15119,2.39883 2.30958,2.39883 0.17278,0 1.20374,-0.97336 2.31532,-2.1627 z m 17.77445,-5.48651 c -0.54716,-1.20086 -3.2,-5.54699 -5.89948,-9.65727 -2.69833,-4.11057 -5.20114,-7.97147 -5.55908,-8.57967 -0.54141,-0.92153 0.11525,-1.01656 3.99307,-0.57019 10.34553,1.19221 19.19935,3.11216 19.19935,4.16471 0,0.70553 -1.04823,1.0511 -3.16342,1.0511 -2.91287,0 -3.35116,0.29374 -5.50754,3.69416 -2.42475,3.82433 -2.85671,5.68206 -1.62418,6.96557 1.08568,1.12886 1.36502,4.49501 0.40317,4.82474 -0.46364,0.14398 -1.29589,-0.69113 -1.84016,-1.89487 z m 1.20086,-10.92235 c 0.65658,-1.56084 1.01656,-3.0082 0.80921,-3.21555 -0.49532,-0.49819 -6.02215,-1.77104 -7.78457,-1.79409 -1.15766,-0.0231 -0.9676,0.61915 1.1807,3.90065 1.4082,2.15693 3.02346,3.92568 3.58645,3.93346 0.56445,0.005 1.55795,-1.26423 2.20879,-2.82505 z m -81.52109,31.49995 c 15.35314,-2.86824 29.96792,-10.40312 42.03297,-21.67104 7.67887,-7.17118 18.9275,-22.6139 17.50634,-24.03448 -0.61627,-0.61915 -6.03223,0.44924 -6.03223,1.18934 0,1.4226 -6.72165,10.74755 -11.19277,15.52767 -10.89586,11.64718 -25.32287,19.97689 -40.63195,23.4588 -6.7467,1.53491 -28.24095,1.85169 -34.31896,0.50396 -10.13445,-2.24621 -20.34521,-6.58082 -28.5917,-12.14049 -3.23224,-2.17998 -4.6868,-2.71849 -6.29371,-2.33548 -4.26665,1.01943 -3.92223,1.60402 4.01093,6.82906 11.82371,7.78601 26.13353,12.76021 40.708,14.1494 5.1202,0.48956 16.09123,-0.23038 22.80308,-1.47731 z m -171.08594,-5.81163 c 8.21596,-1.71059 18.30117,-3.85255 22.41173,-4.75852 4.10999,-0.90712 12.42933,-2.67529 18.4869,-3.9326 6.05816,-1.25557 22.69655,-4.79623 36.97526,-7.86492 14.27871,-3.06867 28.43906,-6.08088 31.46799,-6.69371 3.02864,-0.61338 9.75489,-2.03311 14.94682,-3.15419 5.19249,-1.12023 13.51154,-2.89388 18.48748,-3.93836 4.97622,-1.04535 14.00311,-2.95089 20.06126,-4.23671 6.05729,-1.28437 17.03148,-3.60747 24.38724,-5.15938 7.35577,-1.55218 17.26848,-3.67457 22.02757,-4.71646 4.75967,-1.04248 18.9203,-4.06709 31.46799,-6.72252 12.54826,-2.65514 33.61198,-7.11214 46.80876,-9.90436 31.59528,-6.68507 31.3986,-6.64245 34.81141,-7.50148 l 2.95001,-0.74298 V 55.847278 c 0,-32.860066 -0.23038,-44.811646 -0.88984,-44.811646 -0.48669,0 -12.61536,2.496747 -26.94447,5.551314 -14.32968,3.053116 -33.48785,7.110698 -42.57378,9.017093 -9.08622,1.906407 -26.60985,5.61956 -38.94184,8.251671 -42.39495,9.048779 -59.45551,12.683315 -85.35664,18.183655 -14.27872,3.032391 -30.9171,6.567008 -36.97467,7.855126 -6.05815,1.287245 -12.60701,2.669532 -14.5543,3.07184 -1.94672,0.40028 -12.56756,2.658022 -23.60107,5.015387 -11.03294,2.35852 -30.32675,6.438278 -42.87502,9.069221 -12.5474,2.632099 -24.14188,5.152472 -25.76404,5.603724 l -2.95031,0.820734 v 44.810213 c 0,24.64556 0.25917,44.81021 0.60186,44.81021 0.3283,0 7.3215,-1.39956 15.53687,-3.11101 z m -10.44084,-43.02707 0.20158,-39.84436 10.2266,-2.217406 c 5.62532,-1.221026 13.76755,-2.964426 18.09468,-3.876442 4.32684,-0.912889 11.76123,-2.505396 16.52089,-3.538365 10.14366,-2.203021 49.45209,-10.579366 52.31543,-11.14726 2.87112,-0.570191 39.21915,-8.303209 60.18208,-12.804845 9.95187,-2.136789 25.88241,-5.501495 35.40118,-7.476432 9.51961,-1.975514 24.7423,-5.183001 33.82852,-7.128563 9.08593,-1.946716 18.99893,-4.063049 22.02758,-4.704952 3.02864,-0.642185 9.40067,-2.012948 14.16063,-3.046776 39.11462,-8.493282 67.32013,-14.308959 67.67521,-13.954173 0.20159,0.201584 0.37437,17.972588 0.37437,39.481795 0,30.35295 -0.23038,39.278761 -0.98488,39.873438 -0.54139,0.42044 -6.29285,1.863198 -12.78382,3.206614 -6.49012,1.341967 -21.88964,4.588307 -34.22076,7.213507 -12.33199,2.62633 -32.51048,6.91113 -44.84246,9.52394 -12.33113,2.61194 -27.19962,5.76556 -33.04122,7.00616 -5.84101,1.24119 -22.47939,4.7709 -36.97466,7.84533 -14.49498,3.07444 -31.13336,6.62691 -36.97525,7.89429 -5.84102,1.2671 -19.11612,4.09214 -29.50054,6.27759 -10.38442,2.18574 -24.54505,5.19422 -31.468,6.68594 -31.52357,6.79278 -68.62523,14.57619 -69.48168,14.57619 -0.72281,0 -0.8956,-9.29874 -0.74009,-39.84464 z m 13.18468,33.49823 c 4.11057,-0.88121 14.0227,-2.99092 22.02757,-4.68968 8.00487,-1.69907 23.75859,-5.0583 35.0078,-7.46608 11.25006,-2.40748 22.93296,-4.87888 25.9616,-5.49112 3.02864,-0.61339 13.82602,-2.91029 23.99416,-5.10639 10.16814,-2.19726 25.92186,-5.54815 35.00779,-7.4485 21.12563,-4.41813 74.73926,-15.82256 81.42376,-17.32002 2.81352,-0.63067 14.49497,-3.12166 25.96074,-5.53692 11.46633,-2.41611 26.33454,-5.59451 33.04121,-7.06548 6.70667,-1.471573 16.08835,-3.44651 20.84801,-4.390197 4.7591,-0.944561 9.09601,-2.06767 9.63712,-2.499634 0.76314,-0.604751 0.98488,-8.776652 0.98488,-36.04163 0,-19.392297 -0.25918,-35.397712 -0.59324,-35.567623 -0.32828,-0.172786 -8.20156,1.356364 -17.50403,3.390924 -9.30307,2.035984 -23.10949,5.002425 -30.68153,6.594074 -7.57234,1.592494 -21.02427,4.455551 -29.8945,6.363974 -8.86995,1.909282 -24.62367,5.256419 -35.00808,7.439857 -10.38442,2.18286 -21.18179,4.48177 -23.99416,5.107542 -2.81353,0.624912 -11.83985,2.557229 -20.06097,4.295163 -8.22057,1.736496 -24.32879,5.139791 -35.79513,7.561965 -11.46548,2.421864 -30.75928,6.517754 -42.87473,9.101189 -12.11485,2.583139 -30.34718,6.468513 -40.51446,8.633805 -10.169,2.165573 -24.683,5.261899 -32.25504,6.881177 l -13.76755,2.944265 -0.20158,35.967339 c -0.17279,28.51625 5.8e-4,35.96474 0.78617,35.95495 0.54716,-0.005 4.35449,-0.73145 8.46506,-1.61266 z m -0.28798,-22.47249 c -0.29085,-2.09358 -0.74585,-10.60702 -1.02806,-18.91686 l -0.50396,-15.10837 1.892,-0.44349 c 10.8446,-2.53418 12.48144,-2.65513 14.49353,-1.07126 1.78835,1.4082 1.95248,2.06478 1.95248,7.82516 0,3.4586 -0.36572,6.96932 -0.80921,7.80214 -0.59322,1.10871 -0.50972,1.98704 0.3283,3.29157 0.6393,1.00503 1.24694,4.24044 1.38516,7.43611 0.38877,8.99408 -1.25269,10.44403 -14.14307,12.50565 l -3.04707,0.48668 z m 11.14842,-4.89905 c 0.69402,-0.4406 0.95032,-2.036 0.78617,-4.9048 -0.25918,-4.55291 -0.20158,-4.51144 -5.15909,-3.42864 -1.57235,0.34268 -1.77104,0.8668 -1.77104,4.69803 v 4.31186 l 2.55721,-0.008 c 1.40533,-0.005 3.01973,-0.30526 3.58502,-0.66522 z m -1.58387,-15.5628 c 1.6501,-0.44348 1.78545,-0.86393 1.57235,-4.90624 -0.25918,-4.74326 -0.17279,-4.68537 -5.15017,-3.59827 -1.57234,0.3427 -1.77104,0.86682 -1.77104,4.69805 0,3.95017 0.14399,4.311 1.77104,4.30091 0.97336,-0.005 2.58316,-0.23038 3.57668,-0.49531 z m 12.01436,10.9857 c -0.0864,-4.62027 -0.29085,-8.65799 -0.48669,-8.97303 -0.20157,-0.3139 -0.44924,-4.99638 -0.57882,-10.40343 l -0.23039,-9.830626 6.31964,-1.316055 c 3.47587,-0.722816 6.93965,-1.491717 7.69702,-1.701937 1.16054,-0.325411 1.37653,0.143988 1.37653,3.104667 v 3.490841 l -4.71935,0.92729 -4.72109,0.92727 v 4.39568 4.39538 l 4.32713,-0.50972 4.32713,-0.50973 v 3.07531 c 0,3.03987 -0.0864,3.08594 -3.93317,4.01899 l -3.93404,0.94456 v 4.1172 c 0,2.26349 0.20158,4.31185 0.43484,4.54943 0.39453,0.39165 4.96327,-0.38589 8.41782,-1.43124 1.16631,-0.35421 1.37653,0.11524 1.37653,3.06839 v 3.48537 l -6.49012,1.28725 c -9.82458,1.94961 -9.03524,2.56011 -9.18989,-7.11329 z m 19.21059,-4.77665 c -0.3283,-5.08422 -0.63355,-13.65178 -0.68538,-19.03924 l -0.0864,-9.795505 2.55722,-0.529869 2.55723,-0.529882 0.0864,4.424175 c 0.0864,5.558791 1.10295,11.156471 1.78257,9.537761 0.28798,-0.64795 1.5522,-4.32281 2.84233,-8.16411 1.29014,-3.841318 2.45068,-7.068953 2.57451,-7.172619 0.11524,-0.115245 1.54066,-0.426203 3.14814,-0.717067 l 2.92123,-0.526995 -3.60228,10.209901 -3.60259,10.21019 4.45585,8.71099 c 3.11562,6.09097 4.14888,8.80659 3.43498,9.02862 -5.09976,1.58387 -4.99522,1.6501 -8.62228,-5.45024 -1.87761,-3.67457 -3.62505,-6.68277 -3.88509,-6.68478 -0.25918,-0.001 -0.30525,3.30798 -0.11525,7.3549 0.3571,7.20948 0.3283,7.36844 -1.49459,7.85627 -3.56427,0.95321 -3.61755,0.84377 -4.23036,-8.72423 z m 22.57933,0.0288 c 2.03311,-16.40456 3.77824,-31.469724 3.78141,-32.627392 0.004,-1.385163 0.89273,-1.802729 5.60257,-2.634986 l 2.84521,-0.503946 1.6645,6.951438 c 3.70768,15.493116 6.41321,27.679386 6.41321,28.883706 0,0.73434 -0.63929,1.27574 -1.50899,1.27574 -0.82937,0 -2.07054,0.20158 -2.75305,0.47803 -0.76314,0.29087 -1.24693,0.0576 -1.24981,-0.59035 -0.003,-0.58747 -0.38877,-2.43915 -0.84953,-4.11287 -0.83226,-2.99753 -0.89561,-3.03843 -3.99422,-2.62346 -1.73074,0.23038 -3.30655,0.58172 -3.50093,0.77466 -0.20159,0.20157 -0.5702,2.17997 -0.83514,4.4161 -0.53275,4.50337 -0.46363,4.41036 -3.85628,5.1372 l -2.419,0.51836 0.66234,-5.34281 z m 11.18268,-12.6937 c 0.23038,-0.36572 0.11524,-1.86896 -0.25918,-3.3434 -0.37437,-1.47443 -0.89849,-3.65297 -1.16631,-4.84289 -0.72281,-3.225041 -1.69617,-2.61482 -1.88624,1.18071 -0.0864,1.84016 -0.36572,4.31704 -0.6105,5.50696 -0.38877,1.90639 -0.20159,2.1627 1.54066,2.1627 1.09144,0 2.16846,-0.29662 2.39308,-0.66235 z m 13.23105,10.45324 c -2.51979,-1.76529 -2.50539,-7.04273 0,-7.71977 2.83944,-0.76025 3.53001,-0.58747 3.94153,0.98775 0.29661,1.15191 0.89273,1.39093 2.64937,1.07415 3.43642,-0.62202 3.85687,-1.29588 3.55679,-5.7048 l -0.28797,-4.06881 -4.48004,0.52124 c -6.69602,0.77753 -7.71689,-0.38301 -8.3896,-9.511843 -0.527,-7.100624 -0.50973,-7.18241 1.72786,-9.660151 1.77104,-1.961129 3.28176,-2.686819 7.02891,-3.374793 4.17479,-0.766026 5.03872,-0.702668 6.88406,0.506834 1.58962,1.042478 2.11087,2.030235 2.11087,3.999127 0,2.842318 -0.17279,3.036985 -3.25356,3.773058 -1.62418,0.38588 -2.15981,0.172786 -2.46795,-1.010793 -0.35709,-1.356378 -0.71707,-1.42261 -3.69242,-0.668108 -2.81353,0.714179 -3.23368,1.079912 -2.85385,2.496746 0.23038,0.912889 0.44924,2.842332 0.45788,4.292571 v 2.634982 l 4.52295,-0.486682 c 6.76744,-0.72569 7.73734,0.371495 8.38442,9.489102 0.48668,6.89501 0.42621,7.28751 -1.46867,9.54093 -3.08508,3.66594 -11.03063,5.25988 -14.41205,2.89128 z m 19.98956,-5.77593 c -0.25918,-1.98991 -0.69978,-10.4711 -0.98488,-18.844566 -0.55579,-16.302324 -0.50396,-16.596922 3.35176,-16.624565 1.59538,-0.0081 1.70481,0.443476 2.09358,8.838263 0.23038,4.867664 0.53275,13.436678 0.67963,19.042118 l 0.25918,10.19205 -2.47084,0.50972 c -2.44204,0.50107 -2.4766,0.46364 -2.93332,-3.11158 z m 20.60641,-4.01353 c -0.0864,-1.73073 -0.23038,-4.12007 -0.33405,-5.30998 -0.11524,-1.18934 -0.44925,-8.232656 -0.74586,-15.650633 -0.6249,-15.407568 -1.55795,-13.560502 7.90897,-15.570858 5.14382,-1.091423 5.63597,-1.077024 7.47384,0.259179 1.71057,1.241174 2.01871,2.18286 2.36141,7.246628 0.29085,4.206755 0.0864,6.411778 -0.74011,7.952171 -1.00215,1.880484 -0.99352,2.29805 0.0864,3.540084 0.74585,0.858167 1.43123,3.737638 1.74513,7.375059 0.49533,5.75089 0.43484,6.05384 -1.66737,8.39278 -1.79122,1.98703 -3.30137,2.65226 -8.36513,3.67083 -3.39985,0.68538 -6.49703,1.24406 -6.88407,1.24406 -0.38877,0 -0.76314,-1.41685 -0.84089,-3.14701 z m 10.53991,-5.42374 c 1.7077,-0.64794 1.81713,-1.03095 1.42836,-4.91689 -0.44924,-4.500198 -0.40316,-4.469963 -5.40214,-3.373637 -1.70481,0.374369 -1.80273,0.691144 -1.41107,4.501337 0.23038,2.25486 0.43484,4.18805 0.45788,4.29632 0.0864,0.46364 3.22907,0.14399 4.93043,-0.50683 z m -1.15765,-15.526222 c 1.58386,-0.423315 1.77104,-0.967596 1.77104,-5.138354 v -4.664053 l -2.95031,0.532757 c -4.05355,0.731453 -4.13043,0.809209 -4.13043,4.241315 0,5.356056 0.90136,6.210195 5.30998,5.028913 z m 12.47511,18.132412 c -0.25918,-0.68538 -0.48093,-4.5195 -0.48093,-8.52264 0,-4.002878 -0.20158,-7.476435 -0.4406,-7.718918 -0.57882,-0.575953 -0.65658,-19.44096 -0.0864,-20.011728 0.23038,-0.230382 2.8452,-0.927288 5.79148,-1.526276 2.94485,-0.598989 6.17248,-1.281496 7.17147,-1.511878 1.70482,-0.397405 1.79985,-0.201583 1.57234,2.901069 -0.25917,3.561696 0.17279,3.272846 -7.12711,4.92295 -2.04463,0.463637 -2.1627,0.731466 -2.1627,4.892419 v 4.402295 l 4.32684,-0.541394 4.32713,-0.541393 v 3.140946 c 0,2.913749 -0.17279,3.178112 -2.55723,3.655571 -5.3961,1.085674 -5.30999,0.999281 -5.30999,5.432375 0,2.277892 0.20159,4.337202 0.43484,4.575082 0.39741,0.39164 4.96413,-0.3859 8.4187,-1.43125 1.1663,-0.35421 1.37652,0.11525 1.37652,3.06839 v 3.48538 l -6.49011,1.28724 c -7.97147,1.58099 -8.17565,1.58387 -8.76686,0.0287 z m 18.87078,-11.105218 c -0.30526,-4.673845 -0.73147,-13.155602 -0.94456,-18.848029 l -0.38877,-10.349845 4.17018,-0.898489 c 8.4688,-1.825764 10.36223,-1.868961 12.31961,-0.287977 1.59251,1.290133 1.892,2.39308 2.26349,8.3202 0.40317,6.535041 0.33405,6.954327 -1.7077,9.631932 l -2.13678,2.799121 2.93044,7.068953 c 1.61267,3.887967 2.76169,7.236262 2.55723,7.440722 -0.20158,0.20158 -1.49748,0.59611 -2.87112,0.87256 -2.33261,0.46653 -2.58026,0.29661 -3.72122,-2.54858 -3.86148,-9.62876 -4.74239,-11.303631 -5.83959,-11.108387 -0.93016,0.172786 -1.16341,1.768168 -1.18069,8.067066 v 7.860011 l -2.43916,0.23039 -2.43915,0.23038 z m 11.19995,-16.357891 c 0.74587,-0.699781 0.89273,-2.012962 0.50396,-4.622589 -0.48092,-3.195681 -0.7833,-3.644919 -2.4766,-3.644919 -3.75463,0 -4.86332,1.223901 -4.44115,4.905381 0.59323,5.169167 0.75449,5.419131 3.18789,4.850096 1.20085,-0.287977 2.65226,-0.950323 3.22821,-1.488842 z m 15.45337,11.082748 c -0.34269,-4.801137 -0.56444,-9.614645 -0.49532,-10.69629 0.0864,-1.082787 -0.0864,-4.179099 -0.3283,-6.88291 l -0.45787,-4.916327 -3.08423,0.492434 -3.08422,0.492449 v -3.232538 c 0,-3.601131 -0.76314,-3.173774 9.29471,-5.231369 8.60473,-1.759532 8.79882,-1.71921 8.79882,1.900646 0,2.979966 -0.0864,3.09458 -3.16111,3.611796 l -3.1614,0.535631 0.48668,4.845193 c 0.25918,2.663784 0.5414,9.783978 0.60187,15.819963 l 0.11524,10.974753 -2.45355,0.50973 -2.45356,0.50972 z m 10.67412,4.932741 c 0.0864,-3.741386 4.37204,-36.817152 4.85412,-37.299513 0.73146,-0.728578 7.05109,-2.053257 7.52741,-1.578095 0.9935,0.996393 8.63725,35.522694 7.99334,36.117653 -0.20159,0.172786 -1.47156,0.561541 -2.84808,0.858167 -2.47084,0.529869 -2.50539,0.495309 -3.04074,-3.06464 -0.29661,-1.981277 -0.86681,-3.801869 -1.26422,-4.048086 -0.3974,-0.259179 -2.09647,-0.201584 -3.7722,0.05762 l -3.04793,0.515483 -0.54139,4.662898 c -0.31101,2.669546 -0.92729,4.667518 -1.44852,4.673857 -0.49532,0.0054 -1.70194,0.230382 -2.6753,0.486673 -1.47444,0.39453 -1.76529,0.172786 -1.73649,-1.388037 z m 11.38109,-16.427871 c 0.59323,-0.964721 -1.18645,-9.33388 -2.10798,-9.904071 -0.35709,-0.230382 -0.67963,0.230381 -0.70843,1.019429 0,0.783299 -0.31965,3.281778 -0.64793,5.553328 -0.56444,3.938362 -0.50396,4.130154 1.19221,4.130154 0.97912,0 2.00144,-0.359971 2.27213,-0.797698 z m 15.56396,10.418105 c -1.48596,-1.163431 -1.82578,-2.473711 -2.36141,-9.081619 -0.34269,-4.247642 -0.62491,-12.018094 -0.62491,-17.267892 v -9.545538 l 2.4622,-0.512596 2.46507,-0.509721 0.52699,7.552173 c 0.29086,4.153472 0.66235,11.039847 0.82937,15.303043 0.17279,4.2629 0.44924,7.903494 0.63931,8.089819 0.17279,0.201583 1.81713,0.08637 3.62676,-0.201584 l 3.28783,-0.526994 -0.53276,-15.910386 -0.53274,-15.910385 2.18284,-0.547156 c 1.20087,-0.299487 2.45357,-0.259179 2.78761,0.08637 0.60188,0.630674 1.15767,9.576069 1.57811,25.510067 0.20159,7.667646 0.0864,8.542805 -1.55794,10.620548 -1.38805,1.765294 -2.84521,2.470837 -6.6272,3.199415 -6.29457,1.212376 -6.13533,1.221013 -8.15749,-0.362859 z m 19.94894,-11.389448 c -0.28797,-4.867664 -0.60186,-13.45251 -0.70841,-19.077551 l -0.20159,-10.227172 2.43915,-0.230381 2.43917,-0.230382 0.50971,4.876879 c 0.28797,2.681057 0.50972,6.10912 0.50972,7.615517 v 2.738652 l 3.26853,-0.521232 c 1.79697,-0.287976 3.51504,-0.67387 3.8151,-0.861055 0.30525,-0.172786 0.37437,-3.890263 0.17279,-8.231793 -0.30525,-6.377218 -0.17279,-7.895717 0.70841,-7.904353 0.59324,-0.0067 1.83153,-0.201584 2.73866,-0.452126 1.57811,-0.423329 1.67314,-0.05762 2.18862,7.89342 0.29661,4.584859 0.72282,13.285473 0.95032,19.334419 0.39741,10.564967 0.35132,10.998087 -1.14039,10.998087 -0.85528,0 -2.11374,0.201584 -2.79913,0.478036 -1.00503,0.385894 -1.24404,-0.115244 -1.24404,-2.63786 0,-1.713461 -0.23038,-5.297897 -0.50972,-7.965415 l -0.50396,-4.8498 -2.83657,0.503959 c -1.56083,0.287977 -3.14988,0.789048 -3.53231,1.143257 -0.38013,0.351334 -0.62491,3.979262 -0.54716,8.061317 0.14399,7.143821 0.0864,7.440434 -1.6645,7.908101 -3.45628,0.924413 -3.52943,0.774662 -4.05499,-8.342941 z m 22.77429,-3.540098 c -0.30525,-4.218844 -0.72281,-12.669789 -0.93592,-18.780346 -0.38877,-11.066334 -0.38012,-11.111841 1.41397,-11.593047 0.99063,-0.259178 2.19437,-0.48956 2.6753,-0.495322 0.96759,-0.0081 1.62705,7.115601 2.35852,25.462841 0.49532,12.466191 0.35133,13.036086 -3.30914,13.062587 -1.53203,0.0081 -1.69618,-0.555792 -2.20013,-7.65815 z m 10.16124,5.039873 c -0.36573,-1.200865 -1.11735,-14.105347 -1.57811,-26.967223 l -0.37437,-10.323357 7.41912,-1.396687 c 6.76831,-1.272846 7.585,-1.287244 9.30335,-0.172786 2.03887,1.336217 2.49963,4.684791 3.29905,24.001064 0.3283,7.909848 0.28798,8.140215 -1.79408,10.408031 -1.71922,1.871848 -3.46752,2.611937 -9.06635,3.834401 -5.02114,1.097185 -7.01279,1.264209 -7.21092,0.607625 z m 11.97605,-8.575927 c 0.5414,-0.426203 0.80345,-1.529151 0.59323,-2.45355 -0.35708,-1.578109 -0.9964,-12.234654 -1.11735,-18.790716 -0.0864,-3.151329 -1.07126,-3.604315 -5.44504,-2.433402 -1.84018,0.492434 -1.84592,0.541393 -1.40821,9.626464 0.23038,5.022009 0.45789,10.651656 0.47229,12.510247 v 3.379105 l 2.95031,-0.532744 c 1.62419,-0.293739 3.38891,-0.878328 3.92626,-1.304531 z m -332.56901,85.676016 c 6.63641,-1.54067 7.50351,-1.94095 7.73734,-3.57781 0.41181,-2.87112 -0.69978,-3.26795 -5.78169,-2.05615 -2.5889,0.61915 -5.12539,1.13751 -5.63368,1.15191 -0.50971,0.0227 1.17783,-4.64995 3.7725,-10.42099 l 4.69659,-10.44863 -6.04462,-10.81437 c -3.32439,-5.94786 -5.90638,-10.92264 -5.73878,-11.0551 0.17279,-0.14399 3.492,-0.9244 7.38543,-1.75666 6.31041,-1.3506 7.10955,-1.71921 7.34425,-3.36788 0.14399,-1.01655 -0.0864,-2.1483 -0.3974,-2.51403 -0.54139,-0.54139 -7.35807,0.70267 -19.72866,3.60517 -0.97335,0.23038 -1.77105,0.78905 -1.77105,1.24118 0,0.73434 6.45066,12.8492 11.50089,21.60309 l 1.83729,3.18646 -6.17392,13.50233 c -3.39523,7.42632 -5.97981,13.69642 -5.74195,13.93372 0.50396,0.50396 2.57451,0.14399 12.73718,-2.21454 z m 6.34526,-10.77462 c 1.18071,-0.63066 1.52052,-1.66162 1.52052,-4.58919 0,-2.0763 -0.25918,-4.02244 -0.54716,-4.3251 -0.4262,-0.42909 -4.95635,8.19723 -4.95635,9.44216 0,0.59035 2.51979,0.25917 3.98559,-0.527 z m 1.52052,-27.55354 c 0,-6.92525 -0.17279,-7.81999 -1.37653,-7.81596 -1.90639,0.005 -7.27656,1.54644 -7.27656,2.08496 0,1.21814 7.53085,14.24443 8.04977,13.92334 0.33407,-0.20158 0.60188,-3.89199 0.60188,-8.19349 z M -190.0833,76.006456 c 0.41182,-0.414691 -1.17782,-3.512441 -7.76268,-15.091102 -2.9745,-5.231947 -5.40904,-9.902904 -5.40904,-10.379798 0,-0.475161 2.69257,-6.74929 5.98442,-13.9389 3.29071,-7.189611 5.78975,-13.265326 5.55275,-13.502034 -0.23038,-0.230381 -4.87629,0.547156 -10.3104,1.742245 l -9.88074,2.171349 v 2.718492 c 0,1.880484 0.31389,2.597538 1.00503,2.332597 2.0072,-0.771775 10.14367,-2.272128 10.48204,-1.935192 0.20159,0.201583 -1.67602,4.840868 -4.14656,10.332866 l -4.49386,9.985845 2.48522,4.879753 c 1.36789,2.683944 4.0789,7.638848 6.02705,11.011049 2.31533,4.009201 3.21007,6.237272 2.58314,6.437701 -0.52699,0.172786 -3.87903,0.912888 -7.44849,1.652991 l -6.49097,1.34484 v 2.557229 2.55723 l 10.75388,-2.280777 c 5.91416,-1.252699 10.89642,-2.421878 11.0718,-2.597539 z m -16.90822,-5.226198 c 1.62131,-0.449238 2.94945,-1.192215 2.94945,-1.644341 0,-0.938798 -7.03266,-14.048033 -7.5369,-14.048033 -0.17278,0 -0.3283,3.717195 -0.3283,8.260294 0,9.025744 -0.14398,8.833092 4.91663,7.432376 z m -311.9983,-5.282624 c 0.50396,-0.319649 1.50324,-2.880331 2.22893,-5.691554 1.85168,-7.178959 6.32799,-18.933563 10.03308,-26.352399 3.12713,-6.26145 11.09772,-18.867317 12.46389,-19.711368 0.88408,-0.547155 0.92152,-5.1003422 0.0864,-6.4708234 -1.19799,-1.8891212 -10.48118,11.2644654 -16.87223,23.9097814 -5.49745,10.878868 -8.5595,19.172285 -11.07613,30.003349 -1.13174,4.868228 -1.12598,4.916905 0.55579,4.904803 0.93593,-0.0054 2.11087,-0.287977 2.61194,-0.593226 z m 11.61637,-2.220295 4.98458,-1.252698 0.3974,-3.527995 c 0.54716,-4.884643 3.68609,-8.128691 7.85714,-8.128691 4.51056,0 7.72581,1.97264 8.81551,5.40617 1.20951,3.814239 1.2815,0.731466 0.11525,-5.141524 -5.4989,-27.74965 -6.45354,-31.732645 -7.60429,-31.732645 -1.09719,0 -7.00213,9.372174 -11.15159,17.700729 -5.51099,11.061445 -10.84229,27.927915 -8.82847,27.927915 0.23038,0 2.67242,-0.564442 5.41279,-1.252698 z m 16.18281,-3.384584 c 3.95362,-1.10006 2.05038,-5.590481 -2.36717,-5.590481 -2.40748,0 -4.70811,2.390206 -4.70811,4.895307 0,1.068388 0.60187,1.379414 2.55722,1.31893 1.40532,-0.02874 3.44016,-0.32541 4.51978,-0.624912 z m 33.97309,-6.830204 c 7.06175,-1.546437 18.50361,-4.004312 25.42655,-5.460313 6.92295,-1.45717 18.42816,-3.881627 25.56766,-5.390334 7.13921,-1.509003 25.72518,-5.431234 41.3015,-8.716464 43.15925,-9.102922 42.87502,-9.031492 42.87502,-10.793334 0,-0.832257 -0.51836,-3.70798 -1.15767,-6.393067 -0.6393,-2.683931 -2.93274,-13.2011083 -5.10264,-23.3692479 -2.85961,-13.3977901 -4.32771,-18.7812061 -5.33274,-19.5541361 -1.10871,-0.852419 -4.30812,-0.96761 -15.94206,-0.567317 -19.48042,0.665221 -36.6962,2.897899 -41.11404,5.32785 -6.81553,3.748289 -6.61423,13.1279591 0.38013,17.7571701 3.05773,2.021585 3.77305,2.125264 22.14333,3.16341698 21.28315,1.20374 22.52375,1.537787 22.52375,6.06764322 0,2.0071997 -0.49531,3.04362 -1.9064,3.9665824 -1.69906,1.1144723 -3.64606,1.1519063 -17.89799,0.365733 -19.11325,-1.0568769 -23.82569,-1.7134609 -28.15973,-3.9254006 l -3.28005,-1.6731388 -3.68233,1.7998404 c -5.39841,2.6378604 -11.89543,2.4996343 -17.43407,-0.3743562 l -4.24621,-2.203021 -3.08652,3.6109231 c -6.37753,7.4617504 -16.36337,9.7010504 -24.60755,5.5182044 -2.12814,-1.079913 -4.22403,-1.952479 -4.65686,-1.93808 -0.43484,0.0231 -1.73649,1.399561 -2.89703,3.079039 -1.16054,1.678901 -3.81569,4.055272 -5.90035,5.280328 -3.38918,1.992787 -4.52352,2.226057 -10.73343,2.223169 l -6.94281,-0.0027 0.4262,1.969751 c 0.52699,2.436277 5.90725,27.911784 6.52208,30.8811 0.58746,2.822171 1.1663,2.80201 16.91282,-0.650822 z m 248.03023,-12.134158 c 0.76313,-1.946716 1.57234,-4.010934 1.79984,-4.586309 0.29661,-0.757376 -0.20159,-0.973359 -1.85744,-0.786174 -2.21455,0.259179 -2.27789,0.383006 -2.51116,5.373061 -0.25918,5.612643 0.37437,5.612643 2.56587,0 z m -91.68694,-21.619276 c 4.85268,-1.07415 9.15937,-2.159811 9.57001,-2.413228 1.7797,-1.100073 -15.97546,-19.7983519 -23.94087,-25.2111429 -2.491,-1.6933001 -2.86824,-1.7710571 -2.86824,-0.587478 0,1.246936 5.21928,26.9099099 5.93489,29.1800359 0.41757,1.336204 1.17207,1.272846 11.30392,-0.967609 z m 19.35313,-4.358225 c 0.71707,-1.160543 -9.66591,-13.8715139 -16.75788,-20.5142499 -6.16558,-5.7750731 -15.10924,-12.7423611 -20.25393,-15.7776271 l -2.83945,-1.676013 0.53276,3.060894 c 0.30525,1.762406 1.23541,3.561682 2.1915,4.241301 10.59723,7.5311531 24.38666,20.4520618 29.59672,27.731221 2.08495,2.915764 3.15305,3.736779 4.85441,3.736779 1.19798,0 2.40461,-0.362845 2.6753,-0.803447 z m -186.2637,-5.6106279 c 2.97681,-1.8401759 4.91922,-5.5187682 4.91922,-9.31804502 0,-2.03887098 -5.66651,-29.60392808 -7.95102,-38.67544708 -0.7977,-3.168025 -5.04073,-7.418836 -8.19609,-8.21049 -5.35635,-1.34484 -11.26447,2.364283 -13.00154,8.160672 -0.8956,2.994084 -0.63353,4.907395 3.11619,22.708339 2.82792,13.4202481 4.60215,20.1508279 5.73274,21.7381513 3.73447,5.2449087 10.24906,6.7682967 15.3805,3.5968198 z m 32.29478,-6.7055166 c 2.38444,-1.4859674 4.87255,-5.6518234 4.8763,-8.1652784 0.005,-3.976374 -8.45757,-41.4118031 -9.8387,-43.5203581 -2.92382,-4.46161 -9.86259,-5.926543 -14.69801,-3.102371 -1.68177,0.981995 -3.10323,2.770338 -4.08321,5.134043 l -1.50323,3.627055 2.91288,14.035663 c 5.28723,25.4760711 5.81279,27.3415791 8.46822,30.05719608 3.83037,3.91820122 9.43034,4.69919002 13.86575,1.93519212 z m 30.25331,-5.9582284 c 1.15767,-0.884091 1.17494,-1.405323 0.20159,-5.121363 -1.39669,-5.2737061 -0.48093,-11.4879431 2.30956,-15.7062091 l 2.01871,-3.050524 -2.85672,-12.940493 c -3.03497,-13.755463 -4.51834,-16.943635 -8.94827,-19.234769 -5.06522,-2.617712 -11.65899,-0.573079 -14.19866,4.404874 -0.84376,1.652978 -1.53491,3.833823 -1.53491,4.844333 0,1.010793 1.88912,10.535592 4.1984,21.167087 2.90366,13.369288 4.71561,20.0560941 5.87529,21.6845991 2.9866,4.195513 9.87009,6.29774198 12.94048,3.952465 z m 23.4015,-31.3104721 c 3.24492,-0.446363 7.40444,-0.996393 9.24288,-1.221012 2.20013,-0.259179 3.34426,-0.797698 3.34426,-1.546438 0,-0.624911 -1.07415,-6.178804 -2.38732,-12.342363 -1.31316,-6.163263 -4.66291,-22.003656 -7.44244,-35.200453 -9.52741,-45.231511 -9.26448,-44.343391 -14.00974,-47.236391 -4.93879,-3.01165 -11.78801,-1.42549 -14.73977,3.41597 -2.78185,4.56356 -2.7041,5.03641 12.13934,74.108294 1.48595,6.92295 3.1208,14.655672 3.62965,17.183809 0.838,4.156655 1.08855,4.551468 2.62633,4.123814 0.93305,-0.259165 4.35449,-0.838006 7.5997,-1.28437 z m 26.35384,-3.107541 c -0.25918,-0.431965 -1.17495,-0.786187 -2.01295,-0.786187 -0.8409,0 -1.52628,0.354222 -1.52628,0.786187 0,0.431951 0.90424,0.786173 2.01295,0.786173 1.14327,0 1.80273,-0.339823 1.52628,-0.786173 z"
         id="path6199-5-1"
         inkscape:connector-curvature="0" />
    </g>
    <path
       inkscape:connector-curvature="0"
       id="path2802-6-9-1-8-5"
       d="m 50.087768,207.98843 c -0.003,-10.62566 0.319137,-12.87188 1.832615,-12.87249 1.371293,6.1e-4 1.851567,1.48503 1.886318,5.82295 v 5.82232 l 5.358812,-5.82422 c 4.955954,-5.3866 8.024941,-7.23818 8.025574,-4.83967 0,0.5403 -1.930559,2.85635 -4.288633,5.14458 -2.360269,2.28761 -4.289576,4.75184 -4.289576,5.47413 0,0.72042 2.259172,4.04534 5.018513,7.38195 7.032486,8.50489 3.528099,8.94567 -3.973283,0.49922 l -5.870359,-6.61003 v 6.43531 c -0.09477,4.88612 -0.486597,6.4353 -1.873689,6.4353 -1.516646,0.003 -1.838922,-2.24652 -1.838922,-12.86935 z m 20.851313,12.55844 c 0.0074,-0.15799 2.142261,-5.82295 4.754995,-12.56633 6.509871,-16.81263 8.070125,-16.94059 14.045695,-1.15644 2.464551,6.51525 4.482635,12.33378 4.486732,12.92939 -0.0044,2.62252 -3.267101,0.75515 -4.529382,-2.5941 -1.213323,-3.21213 -1.984277,-3.67312 -6.093438,-3.65732 -5.5803,-0.001 -7.145285,0.88785 -8.296667,4.58184 -0.46763,1.51348 -1.649342,2.7584 -2.616213,2.7584 -0.97001,0.004 -1.753608,-0.12645 -1.750454,-0.31597 z m 15.926648,-10.77006 c 0.003,-1.87684 -3.445305,-9.76592 -4.262077,-9.76623 -0.695129,6.4e-4 -1.924236,2.81843 -3.625718,8.27518 -0.786767,2.50563 -0.458153,2.75523 3.515439,2.75523 2.404512,-0.006 4.372989,-0.56558 4.372989,-1.26702 z m 9.808581,9.4392 c -0.0031,-0.9005 1.235426,-1.58299 2.755232,-1.53242 2.644658,0.12644 2.774198,-0.3539 3.105968,-11.24213 0.28437,-8.97347 0.72672,-11.34038 2.14226,-11.34102 1.44396,0 1.79469,2.21494 1.79785,11.40137 0.003,7.2325 -0.53399,11.93787 -1.46609,12.87219 -2.01272,2.01904 -8.336489,1.89896 -8.336489,-0.15799 z m 17.42306,-10.84178 c 0.25278,-8.62432 0.81837,-12.62321 1.87686,-12.97392 1.15643,-0.39496 1.53245,2.63199 1.53245,12.46395 0.003,10.84842 -0.31914,12.9752 -1.87369,12.97552 -1.58932,0.003 -1.8263,-1.92424 -1.53245,-12.46555 z m 9.65566,10.93026 c 0.0948,-0.84362 2.12962,-6.49755 4.59889,-12.56634 6.12283,-15.04573 7.77217,-14.97338 13.88172,0.60982 5.24505,13.38279 5.26843,13.48327 3.01116,13.48391 -0.92894,0.003 -2.37291,-1.65567 -3.21622,-3.67724 -1.37131,-3.31101 -2.07274,-3.67722 -6.99804,-3.67722 -4.95753,3.1e-4 -5.60527,0.35389 -6.86188,3.68101 -1.35549,3.59445 -4.63302,5.18661 -4.41817,2.14227 z m 15.82553,-8.86826 c -0.004,-1.66199 -4.0747,-10.44208 -4.84725,-10.44145 -0.78677,0.001 -3.73663,8.11247 -3.73663,10.2563 0,0.42656 1.93056,0.77411 4.29115,0.77411 2.36027,-0.004 4.29116,-0.28435 4.29021,-0.58452 z m 12.25733,-2.56249 c -0.003,-12.73665 0,-12.9515 2.75523,-12.56728 2.00324,0.28437 4.2703,3.0712 8.27803,10.17731 l 5.51932,9.78708 0.35073,-10.09547 c 0.28437,-7.86917 0.74567,-10.09421 2.14224,-10.09515 1.45345,-3.3e-4 1.79155,2.40451 1.79155,12.87155 0.003,11.85763 -0.18959,12.87156 -2.33817,12.87252 -1.63986,0.003 -4.12842,-3.03962 -8.27802,-10.11096 l -5.93418,-10.11222 -0.35073,10.11443 c -0.28436,7.8856 -0.74568,10.11348 -2.14225,10.11381 -1.45346,9.4e-4 -1.78838,-2.41716 -1.7947,-12.95562 z m 38.31293,12.13283 c -3.52778,-1.42186 -1.14379,-2.76788 3.72432,-2.09486 3.96349,0.54662 5.65644,0.25277 6.87955,-1.23544 2.33815,-2.81526 1.03005,-4.97901 -4.99766,-8.29193 -4.10979,-2.26232 -5.39704,-3.72872 -5.71648,-6.51744 -0.51819,-4.54457 2.3192,-6.78888 8.61168,-6.79015 3.24342,0.004 4.66907,0.54029 4.66907,1.75994 -0.001,1.3081 -1.03954,1.59563 -4.04061,1.10588 -2.77102,-0.44866 -4.53001,-0.0632 -5.59767,1.22595 -1.76941,2.12963 -0.36019,3.80709 7.1911,8.59685 5.09308,3.22791 6.01001,7.0448 2.5309,10.52803 -2.41714,2.42347 -9.29228,3.3186 -13.2523,1.7157 z m 24.42364,-2.038 c -2.2876,-2.4361 -2.66676,-4.25386 -2.66676,-12.87061 -0.003,-8.10202 0.35073,-10.03417 1.83893,-10.03448 1.48189,-9.6e-4 1.83892,1.89579 1.83892,9.71789 0.003,10.61966 1.46926,13.57238 6.74654,13.57079 5.27508,-0.006 6.74149,-2.95745 6.73832,-13.57459 -0.003,-7.82145 0.35073,-9.71852 1.83577,-9.71914 1.47872,-10e-4 1.83893,1.88632 1.83893,9.64015 0.003,12.39951 -2.36344,16.10359 -10.29041,16.1058 -3.8665,0.006 -5.90386,-0.73304 -7.87991,-2.83738 z m 25.79053,-9.73589 c 0.36019,-12.30599 0.41075,-12.56539 3.25194,-12.56603 2.36658,-0.004 3.8709,1.76942 8.07517,9.49547 2.84055,5.22483 5.53416,9.13177 5.98315,8.68245 0.45184,-0.44867 0.81836,-4.86211 0.81836,-9.80541 0,-4.94519 0.48343,-8.99022 1.09008,-8.99053 1.96217,0.003 2.61305,3.7717 2.46772,14.32154 -0.12646,7.67579 -0.59402,10.54603 -1.86422,11.03515 -2.54984,0.98897 -4.40395,-1.05849 -9.6408,-10.60386 -2.6004,-4.74109 -5.18722,-8.61928 -5.74743,-8.61928 -0.55926,3.3e-4 -1.01742,4.41343 -1.0111,9.80668 0.003,8.00092 -0.35073,9.80827 -1.88002,9.80889 -1.59246,0.003 -1.82944,-1.93687 -1.53243,-12.56507 z m 29.15777,-0.39496 c -0.004,-12.70632 0,-12.95025 2.73628,-12.56602 1.97479,0.28436 4.28008,3.12493 8.27709,10.19658 l 5.54111,9.80447 0.36021,-10.11381 c 0.28437,-7.88527 0.75199,-10.11379 2.13909,-10.11442 1.45345,-3.1e-4 1.79469,2.42031 1.79469,12.95814 0.003,12.52114 -0.0948,12.94265 -2.60673,12.56506 -1.76941,-0.28437 -4.16602,-3.15019 -7.45145,-8.9703 -2.66361,-4.71835 -5.35123,-9.10333 -5.97494,-9.74507 -0.69513,-0.71408 -1.13117,2.71732 -1.13117,8.88943 10e-4,8.11751 -0.36021,10.0525 -1.8326,10.05281 -1.51666,0.001 -1.83895,-2.25916 -1.83895,-12.95687 z m 25.79399,12.02887 c 0,-0.50555 2.12962,-6.16009 4.66747,-12.56602 6.38096,-16.07989 7.91594,-16.11812 13.9904,-0.35387 5.18407,13.46273 5.25834,13.82167 2.869,13.8223 -0.94476,0.004 -2.29394,-1.65567 -3.00171,-3.67722 -1.17538,-3.3698 -1.75993,-3.67724 -6.92694,-3.67344 -5.16892,0.004 -5.75155,0.31597 -6.92539,3.67723 -1.10903,3.17673 -4.80205,5.36069 -4.67252,2.75839 z m 15.19266,-11.65066 c -1.65252,-5.29465 -2.94166,-8.26981 -3.55148,-8.27233 -0.7204,0.001 -4.33443,8.3191 -4.33443,9.95708 6.4e-4,0.59717 1.96531,1.07744 4.37393,1.07744 3.97266,0.004 4.29431,-0.28437 3.51198,-2.75523 z m 14.17746,-0.31596 c -10e-4,-7.76427 0.47711,-12.87189 1.22279,-12.87189 0.67617,6.4e-4 1.27966,0.96056 1.34601,2.14227 0.5024,8.84993 0,8.24739 6.93043,8.64329 l 6.43626,0.39495 9.4e-4,-5.58156 c 0.003,-4.14359 0.47712,-5.57997 1.83579,-5.5803 1.51348,-0.001 1.84207,2.24652 1.84207,12.87094 0.003,10.62345 -0.31596,12.87219 -1.8326,12.87219 -1.39026,0 -1.83894,-1.50085 -1.83894,-6.12851 l 0.004,-6.13039 -5.99831,0.006 c -6.62016,0.004 -7.48653,0.93527 -7.484,8.07234 0.003,2.30024 -0.54347,4.19003 -1.22595,4.19003 -0.74253,9.6e-4 -1.22596,-5.10759 -1.22912,-12.87155 z m 38.00297,-0.009 -0.003,-12.87126 5.59704,6.4e-4 c 7.50233,-0.003 10.34035,1.67147 10.34129,6.09753 -0.003,1.95901 -0.59402,3.9297 -1.32074,4.37647 -0.84679,0.5245 -0.40129,1.67147 1.22596,3.18496 3.21274,2.9922 3.24782,6.47828 0.12644,9.6291 -1.85472,1.86104 -4.08577,2.45507 -9.19275,2.45507 l -6.74307,0.006 -0.003,-12.87282 z m 12.34262,9.1482 c 5.21062,-2.78999 1.49769,-8.53902 -5.51931,-8.53649 -2.85318,0 -3.14388,0.45815 -3.14072,4.90445 0.003,4.44597 0.28437,4.90317 3.14703,4.90192 1.72836,-0.004 4.21186,-0.56558 5.51522,-1.26704 z m -0.69513,-15.27987 c 0.004,-3.25572 -0.46131,-3.72083 -3.98529,-4.0605 -3.83553,-0.35389 -3.9853,-0.18958 -3.98339,4.06271 6.2e-4,4.27726 0.15797,4.43144 3.98497,4.06081 3.52398,-0.35387 3.98435,-0.81202 3.98371,-4.06302 z m 12.87346,6.12534 -0.004,-12.87219 7.35573,-0.003 c 4.0864,0.003 7.35507,0.53714 7.35604,1.22279 -9.7e-4,0.68248 -2.48351,1.22595 -5.5168,1.22595 -5.4874,-0.003 -5.51584,-0.003 -5.5149,4.29274 -9.4e-4,4.18782 0.12645,4.2902 4.90478,4.2883 2.6952,0.003 4.9038,0.54662 4.9038,1.22596 0,0.68248 -2.20545,1.22595 -4.90317,1.22595 l -4.90287,-9.4e-4 -0.001,4.90318 v 4.90254 l 5.51616,0.001 c 3.03328,-0.003 5.51741,0.54662 5.51741,1.22594 0,0.68249 -3.26804,1.23544 -7.35508,1.22596 l -7.35604,0.003 z m 22.06621,-0.007 c -0.003,-10.62409 0.31597,-12.87188 1.83261,-12.87188 1.3713,6.4e-4 1.85158,1.48505 1.88632,5.82233 l 0.0948,5.8236 5.2757,-5.99106 c 2.90058,-3.29491 6.02014,-5.74334 6.92886,-5.44065 1.128,0.39496 0.0948,2.29392 -3.40929,6.04351 l -5.06022,5.49467 4.81534,6.07321 c 5.1648,6.51461 5.74177,7.91341 3.26805,7.91371 -0.86575,0.003 -3.76442,-2.89741 -6.43814,-6.43466 l -4.86054,-6.43469 -0.35071,6.43657 c -0.25277,4.62924 -0.86576,6.43659 -2.14227,6.43721 -1.43448,3.2e-4 -1.77574,-2.45506 -1.78204,-12.87251 z m 22.80684,4.59068 c 1.74098,-4.55182 3.85385,-10.20669 4.69907,-12.56791 0.95422,-2.67624 2.45506,-4.42923 3.98434,-4.65768 2.06328,-0.31596 3.15652,1.49137 6.93548,11.47751 2.46455,6.51557 4.48263,12.33443 4.48578,12.9297 -0.003,2.61938 -3.26709,0.75517 -4.52937,-2.59092 -1.23228,-3.26774 -1.94954,-3.67723 -6.45554,-3.67345 -4.34549,0.001 -5.36543,0.52451 -7.15444,3.66934 -1.14695,2.01902 -2.7742,3.67343 -3.61057,3.67754 -1.049,0.006 -0.53397,-2.56881 1.64619,-8.26696 z m 12.74391,-2.73627 c 0,-0.66353 -0.90998,-3.47248 -2.02535,-6.25142 l -2.02536,-5.04725 -1.50399,3.57484 c -3.62572,8.6354 -3.59065,8.9302 1.17539,8.92893 2.41084,-0.004 4.37331,-0.5403 4.37331,-1.20068 z m 12.56822,10.19184 c -3.52713,-1.41868 -1.1438,-2.76787 3.72526,-2.09486 3.9635,0.54662 5.65645,0.28437 6.87861,-1.23543 2.33185,-2.81527 1.03006,-4.97902 -4.99671,-8.29194 -4.23871,-2.33184 -5.37871,-3.67311 -5.67477,-6.68144 -0.48343,-4.97333 2.00955,-6.86375 8.45529,-6.39328 7.12854,0.51819 7.95037,3.38937 0.87839,3.07436 -4.60365,-0.25278 -5.33954,0.12645 -5.67225,2.45506 -0.31912,2.10751 0.76147,3.27122 4.90476,5.3724 7.84104,3.97234 9.23542,7.59521 4.67758,12.15621 -2.3508,2.35079 -9.28123,3.22034 -13.17773,1.64303 z m 21.75594,-12.06647 c -0.003,-10.62408 0.31912,-12.87188 1.8326,-12.87188 1.51665,-10e-4 1.83894,2.24653 1.84526,12.87062 0.001,10.62472 -0.31596,12.87281 -1.83262,12.87345 -1.51348,0.001 -1.83892,-2.24652 -1.83892,-12.87219 z M 180.32793,169.02681 c 0.40127,-1.1975 18.91696,-1.60826 85.91466,-1.88631 75.71464,-0.31597 85.40282,-0.15799 85.40282,1.50401 0.004,1.64935 -9.8863,1.8642 -85.91373,1.88633 -68.18544,0.0168 -85.8082,-0.28437 -85.40375,-1.50403 z m 0.50871,-5.41409 c -0.45183,-0.44867 -0.81837,-28.03199 -0.83732,-61.29386 V 41.841763 l 85.81263,-0.01681 85.81166,-0.01681 v 61.294177 61.29544 l -84.9949,0.0168 c -46.74641,0.009 -85.36204,-0.35387 -85.81166,-0.79307 z m 20.01305,-31.74714 c -0.004,-15.8843 0.42656,-28.61146 0.96054,-28.28032 0.53399,0.31596 4.80208,13.32433 9.48534,28.87687 l 8.51468,28.27782 8.29793,-0.003 c 5.82551,-0.003 8.29669,-0.46447 8.29067,-1.53245 -0.003,-0.84364 -4.32211,-15.81163 -9.59561,-33.26377 l -9.58802,-31.731323 9.72611,-23.796448 c 5.34869,-13.088313 9.46354,-24.058697 9.14252,-24.378778 -1.04902,-1.049017 -15.84893,-0.815194 -16.83381,0.284372 -0.52766,0.578218 -4.3831,9.880928 -8.56713,20.669955 -7.34182,18.936553 -10.35045,24.947828 -9.81458,19.617462 0.12645,-1.346033 0.18959,-11.278145 0.0948,-22.066847 l -0.12646,-19.613983 -7.97027,0.40759 -7.97028,0.420234 v 57.511736 57.51175 l 7.96775,-0.003 7.9687,-0.003 v -28.88 z m 88.24114,26.43384 c 3.60235,-3.60645 3.81878,-5.7364 3.43267,-33.67391 l -0.35073,-25.67233 -14.71332,-9.972254 -14.71367,-9.969706 -0.003,-8.483094 -0.003,-8.484996 6.12946,0.0044 6.12976,0.0044 0.35073,4.471876 c 0.42655,5.056742 1.40605,5.555349 10.66231,5.420105 l 6.12852,-0.06322 0.31911,-9.194007 c 0.28437,-7.444821 -0.12644,-9.952979 -2.13278,-13.177415 l -2.45821,-3.984043 -18.40605,0.0059 c -24.48148,0.0074 -23.31018,-1.156437 -23.30259,23.12786 l 0.006,18.218359 14.68932,10.27936 14.69027,10.279675 v 18.14569 18.14601 l -6.43625,-0.39496 -6.43563,-0.35389 -0.3602,-12.56633 -0.35073,-12.56476 -7.92446,0.003 -7.92604,0.003 0.004,18.6149 c 0.007,25.18638 -0.84047,24.29093 22.90036,24.28335 15.85146,-0.004 17.79688,-0.25277 19.98115,-2.42347 z m 53.92172,1.20699 c 3.97866,-2.13277 4.94899,-8.19271 4.94237,-30.85769 -0.004,-19.76184 -0.25278,-22.10537 -2.30657,-24.18034 -1.26071,-1.26387 -3.05857,-2.64148 -3.98593,-3.06172 -1.43134,-0.64458 -1.43134,-0.88155 -10e-4,-1.532443 0.9321,-0.420228 2.72048,-1.801012 3.98371,-3.068044 2.05695,-2.056939 2.29392,-4.374256 2.29077,-22.219449 -0.006,-16.509287 -0.35073,-20.655734 -2.15175,-24.211318 l -2.14224,-4.289562 -21.21343,0.0059 -21.21499,0.0059 0.0948,53.939096 c 0.0948,29.66711 0.0948,55.45604 0.0948,57.30984 v 3.37389 l 19.69519,-0.007 c 10.83138,-0.004 20.70345,-0.54662 21.93572,-1.20383 z M 317.3083,128.93088 c -0.003,-14.28835 0.0948,-14.67983 3.1843,-17.13047 2.94483,-2.3192 3.4608,-2.36976 6.74212,-0.67301 l 3.55559,1.83892 0.004,15.29124 0.004,15.29187 -6.74244,0.007 -6.74242,0.006 z m 0,-51.027125 -0.004,-16.614202 6.43624,0.353887 6.43626,0.39496 0.35073,11.660769 0.35071,11.660149 -6.13703,4.584043 c -3.37421,2.52142 -6.42741,4.585636 -6.78161,4.585636 -0.36019,-0.0031 -0.65088,-7.476419 -0.65088,-16.612922 z M 80.086652,42.039567 c -27.01552,-7.75258 -42.016384,-29.935071 -37.411164,-55.31609 2.006396,-11.06012 6.337045,-19.541004 13.882655,-27.194357 14.038119,-14.238753 33.624616,-18.429102 41.194558,-8.811382 2.850039,3.618143 4.364139,12.165064 3.235499,18.205094 -1.216461,6.505449 -3.901552,5.391662 -4.776154,-1.984276 -1.380768,-11.645295 -6.671333,-15.487461 -15.704202,-11.411473 -6.193917,2.793149 -15.28777,12.771388 -18.934342,20.771687 -7.28747,15.9828859 -5.652335,37.003885 3.743574,48.138576 6.248887,7.406267 13.305704,10.515385 25.139946,11.077495 8.954507,0.429711 11.887958,0.06322 19.496448,-2.616213 12.85259,-4.473468 21.48009,-9.976986 32.07953,-20.463309 9.813,-9.7071462 16.87803,-20.8848109 19.54479,-30.924034 2.11699,-7.956691 1.11536,-19.716362 -2.02535,-23.954431 -3.8665,-5.206192 -11.43485,-9.848388 -18.50052,-11.348279 -8.49477,-1.804187 -8.66952,-5.525963 -0.3918,-8.361452 10.88982,-3.736632 22.94303,-14.260549 28.25254,-24.677357 3.75179,-7.35983 6.4214,-21.218486 5.41063,-28.091386 -1.15644,-7.83505 -2.57198,-11.22254 -6.40213,-15.26787 -9.65818,-10.20194 -27.16656,-11.50405 -50.64704,-3.76791 -16.13993,5.31774 -33.755118,18.00856 -32.700103,23.56043 0.944751,4.97521 8.537121,2.49613 32.860603,-10.73721 14.06213,-7.6502 19.61147,-6.02992 19.61558,5.73229 0.006,5.99862 -12.24406,81.969492 -16.53584,102.586056 -2.84687,13.67631726 -8.98959,20.3609289 -18.70873,20.3640823 -6.436588,9.58e-4 -8.395899,-2.3002443 -5.962311,-7.01320847 4.14138,-8.01387313 7.551291,-25.39555083 13.055761,-66.54144483 2.02536,-15.170859 4.27757,-30.523709 4.99576,-34.117845 0.72042,-3.59445 1.05219,-6.78825 0.74569,-7.10073 -0.31914,-0.31597 -3.8071,0.9005 -7.76553,2.69205 -4.43839,2.00322 -10.338146,3.49206 -15.373398,3.89018 -7.577205,0.59718 -8.403144,0.4076 -11.340055,-2.52458 -5.540171,-5.53575 -3.779606,-12.20266 5.615993,-21.26997 16.78956,-16.20281 55.52462,-29.42699 78.15011,-26.68186 16.03249,1.94636 27.98237,9.72042 33.32759,21.68232 3.94265,8.82433 3.97772,26.27931 0.0948,37.054426 -5.42138,14.959157 -17.19305,27.707496 -29.68798,32.148719 -3.3265,1.181726 -6.03434,2.432954 -6.02013,2.783673 0,0.353886 3.27469,2.70468 7.24419,5.228946 8.49447,5.411263 14.32817,13.462111 15.52442,21.421323 1.44397,9.617735 -0.28437,20.591274 -4.60395,29.3938145 C 164.81549,29.063728 113.2294,51.556188 80.124876,42.054097 Z M 179.9949,36.942696 c -0.001,-0.802566 29.4213,-1.23543 85.81072,-1.248074 56.39133,-0.0088 85.81261,0.39496 85.81261,1.19751 0.001,0.802564 -29.42034,1.235444 -85.81073,1.248073 -56.39067,0.0088 -85.8126,-0.394959 -85.8126,-1.197509 z M 177.53667,13.25968 c -0.006,-1.036372 0.86576,-2.755244 1.93056,-3.8194104 6.28775,-6.2924954 16.61545,-8.0694916 51.78926,-8.91091838 31.11236,-0.74567934 61.07711,0.45815354 114.83422,4.58468988 73.4188,5.6434939 82.71676,6.2043369 93.16833,5.6147409 15.0255,-0.8467911 23.84289,-4.2759881 31.83243,-12.3726548 3.94075,-3.9931938 6.93959,-8.4622262 8.31406,-12.3799052 2.13276,-6.076373 2.97956,-20.238345 1.21331,-20.215915 -0.50238,0.0059 -3.12492,3.448783 -5.82012,7.646722 -12.11608,18.876528 -20.50027,23.4144424 -29.09112,15.746558 -3.92177,-3.49998 -4.01277,-3.819102 -4.43395,-15.373394 l -0.42656,-11.800111 -5.69974,9.172845 c -11.43296,18.398774 -21.1123,25.1652209 -37.50627,26.2230802 -10.80861,0.6982835 -17.34185,-1.6146057 -18.58899,-6.5740221 -0.92894,-3.6851241 0.70146,-7.2460731 3.31451,-7.2467071 0.9321,-0.0044 1.88633,1.10272 2.11697,2.451907 0.95106,5.4510675 8.59085,7.1721355 16.72763,3.767904 8.42275,-3.52745 11.26329,-15.983843 6.76076,-29.669328 -3.52368,-10.712879 -6.06784,-15.744332 -7.27736,-14.393892 -0.5182,0.590863 -3.59476,6.026133 -6.8268,12.095548 -12.18811,22.886772 -19.87907,32.377163 -27.85693,34.3699724 -8.37188,2.0917115 -13.02324,-3.0143264 -14.30733,-15.7171574 l -0.7204,-7.103578 -5.34206,7.356029 c -13.79545,18.9915377 -32.41319,22.0491476 -38.27754,6.28744 l -1.94636,-5.229581 -3.263,5.573669 c -1.7947,3.064875 -4.7809,6.7696004 -6.63531,8.232839 -6.93959,5.4747657 -17.19116,0.7330489 -26.25342,-12.138199 -2.49929,-3.547051 -4.84725,-5.805899 -5.29181,-5.085495 -0.44236,0.714082 -0.66985,5.563558 -0.5087,10.782382 0.28437,9.4309977 0.25277,9.491347 -2.96063,9.8758731 -7.59585,0.900509 -12.67438,-10.2076401 -11.3786,-24.8960001 l 0.76147,-8.585149 -4.00109,6.642255 c -6.49156,10.779551 -13.52561,18.829133 -19.89772,22.7717632 -5.20146,3.2159182 -7.11275,3.6930389 -14.85901,3.6971358 -10.3296,0.00295 -14.07381,-2.0316717 -18.19212,-9.871128 -3.83806,-7.31559 -3.60961,-28.700895 0.42655,-39.772701 6.56233,-17.994971 17.80918,-31.412841 28.61274,-34.136488 13.01975,-3.2829 24.18128,6.274486 24.18603,20.710394 0.003,12.652282 -12.93508,24.718769 -33.24229,30.998294 -2.39818,0.745679 -4.08135,10.12296 -2.85319,15.888729 1.66832,7.821772 7.58923,10.375425 15.02805,6.476079 11.28856,-5.919657 27.40131,-33.802188 32.65238,-56.507293 1.7157,-7.415435 4.55625,-19.553 6.31239,-26.970336 1.75362,-7.416376 3.27151,-16.795556 3.366,-20.840876 0.15798,-7.01732 0.31912,-7.37278 3.46428,-7.73647 4.66808,-0.54031 10.62312,2.88795 11.57197,6.66312 1.15644,4.61472 -0.25278,17.90176 -3.12175,29.87755 -3.38149,14.006522 -3.37326,14.048229 2.30655,10.460415 5.36134,-3.38559 13.00396,-5.044731 17.75736,-3.854796 3.70536,0.932106 6.82522,6.42519 6.82617,12.019712 -9.5e-4,10.729621 -13.01312,27.661043 -25.47802,33.149705 l -6.4865,2.853189 4.39732,8.783264 c 3.96033,7.909296 10.07968,15.040036 12.90695,15.038784 2.28129,-0.003 7.67547,-8.955471 16.67391,-27.689178 13.25323,-27.589318 19.14699,-35.749487 31.60494,-43.757671 4.95596,-3.184956 7.30422,-3.890505 13.08421,-3.921792 8.54312,-0.06322 12.71737,2.543543 16.73583,10.401333 4.23177,8.275504 3.52715,22.088953 -1.04899,20.565365 -1.09642,-0.353887 -1.52612,-2.192809 -1.28915,-5.508264 0.7362,-10.246502 -5.32216,-17.644561 -12.89969,-15.752231 -11.05159,2.758398 -29.80741,35.962132 -29.80235,52.760225 0.003,8.131094 4.36982,10.285366 11.11036,5.481398 4.70096,-3.350205 17.09192,-22.159736 19.70372,-29.910414 1.94004,-5.759447 2.41084,-6.233089 6.45648,-6.587286 3.39,-0.315968 5.08865,0.315968 7.59744,2.850021 3.54703,3.543263 3.53534,2.856341 0.36019,23.538941 -1.62407,10.517919 -1.13749,12.754972 2.36027,10.641463 2.99854,-1.819971 12.67125,-16.45526 19.43768,-29.421298 l 5.81949,-11.150489 -3.56632,-7.850834 c -9.21456,-20.272786 -2.6004,-39.091482 13.74616,-39.111402 4.17488,9.7e-4 5.57113,0.5972 7.18699,3.05542 2.48034,3.775806 1.76941,8.26886 -3.37737,21.426366 l -3.72841,9.530843 6.74969,11.492042 c 7.41353,12.62512 13.13855,25.358279 13.13949,29.228563 0,4.24787 2.10119,2.774197 6.50578,-4.561936 9.94316,-16.569327 16.92541,-33.132022 18.21708,-43.216753 0.28438,-2.243358 1.23544,-3.16503 3.52304,-3.429181 3.83869,-0.448678 9.74158,3.921777 9.74253,7.212899 -9.5e-4,1.311267 -1.91159,9.810145 -4.26114,18.88758 -8.96178,34.70806 -7.70516,48.6071478 3.27563,36.22565 2.57198,-2.900584 6.40025,-8.284671 8.50016,-11.957151 4.17582,-7.303903 5.68488,-8.365874 10.25378,-7.221757 4.03427,1.011097 6.76549,6.604676 6.76043,13.843175 0,17.1168915 -10.99723,29.9195669 -31.09309,36.246503 -8.15763,2.565649 -10.94225,2.752076 -42.44104,2.758398 -18.54158,0.0044 -71.77608,-0.467644 -118.29847,-1.052171 -80.47971,-1.011097 -106.05981,-0.467644 -117.88488,2.50561 -2.07589,0.524515 -2.86582,0.18958 -2.86582,-1.169068 z m 50.00783,-61.251853 c 8.33237,-5.048209 12.65354,-10.70022 13.42451,-17.557037 0.66984,-5.96515 -1.9748,-11.533748 -5.4792,-11.532495 -3.48448,-0.0012 -12.20644,10.718878 -17.42464,21.405849 -2.74576,5.629581 -4.99514,10.909076 -4.99514,11.734396 0.004,2.398189 7.12507,0.398114 14.47447,-4.050713 z m 49.98508,-1.557719 c 8.35165,-8.356059 15.33548,-24.588255 11.57672,-26.909353 -2.17384,-1.339695 -11.03419,4.260499 -14.05643,8.890375 -1.64302,2.5151 -4.06618,8.848668 -5.38882,14.07508 -2.36344,9.360539 -2.36344,9.501457 0,9.500189 1.30179,0.0014 4.85736,-2.499301 7.9112,-5.556291 z m 130.3637,-35.622467 c 2.70468,-7.234387 3.28385,-12.803618 1.32706,-12.802999 -2.48035,0.0059 -5.17807,6.306082 -5.84034,13.630838 -0.83731,9.264157 0.85627,8.953244 4.51107,-0.827839 z m 52.07015,-8.518478 c -3.47218,-5.296562 0.50237,-14.107313 6.35252,-14.109203 5.84191,-0.003 9.01296,10.941004 4.38498,15.132311 -3.36568,3.049077 -8.38007,2.568803 -10.7375,-1.020573 z"
       style="display:inline;fill:#ffffff;stroke:none;stroke-width:1.22588444" />
    <g
       id="g2417">
      <rect
         y="-220.07144"
         x="-1390.9524"
         height="529.16669"
         width="529.16669"
         id="rect2394"
         style="opacity:1;fill:#000000;fill-opacity:1;stroke:none;stroke-width:0.5;stroke-linecap:round;stroke-linejoin:round;stroke-miterlimit:4;stroke-dasharray:none;stroke-dashoffset:7.88801336;stroke-opacity:1;paint-order:fill markers stroke" />
      <image
         sodipodi:absref="/home/ichsan/Documents/Design/KSB/IMG-20180308-WA0021.jpg"
         xlink:href="IMG-20180308-WA0021.jpg"
         y="217.75729"
         x="-518.52661"
         id="image2763-1-1"
         preserveAspectRatio="none"
         height="137.31876"
         width="151.07709"
         clip-path="url(#clipPath2882-1-2-9)"
         transform="matrix(3.1973503,0,0,3.1993526,276.66516,-877.05015)"
         style="display:inline;fill:#b71c1c" />
    </g>
  </g>
</svg>
