<?xml version="1.0" encoding="UTF-8" standalone="no"?>
<!-- Created with Inkscape (http://www.inkscape.org/) -->

<svg
   width="210mm"
   height="297mm"
   viewBox="0 0 210 297"
   version="1.1"
   id="svg13897"
   inkscape:version="1.1 (c68e22c387, 2021-05-23)"
   sodipodi:docname="Flyer_Peningkatan_Kompentesi_Guru.svg"
   xmlns:inkscape="http://www.inkscape.org/namespaces/inkscape"
   xmlns:sodipodi="http://sodipodi.sourceforge.net/DTD/sodipodi-0.dtd"
   xmlns:xlink="http://www.w3.org/1999/xlink"
   xmlns="http://www.w3.org/2000/svg"
   xmlns:svg="http://www.w3.org/2000/svg">
  <sodipodi:namedview
     id="namedview13899"
     pagecolor="#ffffff"
     bordercolor="#666666"
     borderopacity="1.0"
     inkscape:pageshadow="2"
     inkscape:pageopacity="0.0"
     inkscape:pagecheckerboard="0"
     inkscape:document-units="mm"
     showgrid="false"
     inkscape:zoom="0.22271324"
     inkscape:cx="536.56441"
     inkscape:cy="864.34016"
     inkscape:current-layer="layer1"
     inkscape:snap-global="false" />
  <defs
     id="defs13894">
    <linearGradient
       inkscape:collect="always"
       id="linearGradient77587">
      <stop
         style="stop-color:#a6d4a9;stop-opacity:1;"
         offset="0"
         id="stop77583" />
      <stop
         style="stop-color:#ff9955;stop-opacity:1"
         offset="1"
         id="stop77585" />
    </linearGradient>
    <linearGradient
       inkscape:collect="always"
       id="linearGradient74227">
      <stop
         style="stop-color:#ffffff;stop-opacity:1;"
         offset="0"
         id="stop74223" />
      <stop
         style="stop-color:#ffffff;stop-opacity:0;"
         offset="1"
         id="stop74225" />
    </linearGradient>
    <clipPath
       clipPathUnits="userSpaceOnUse"
       id="clipPath300-8-6-5-3-90-2-3-6">
      <circle
         r="18.39394"
         cy="-222.91017"
         cx="-159.05081"
         id="circle302-7-9-2-6-8-26-6-2"
         style="opacity:1;fill:#ffffff;fill-opacity:1;fill-rule:nonzero;stroke:none;stroke-width:1.48707;stroke-linecap:round;stroke-linejoin:round;stroke-miterlimit:4;stroke-dasharray:none;stroke-dashoffset:0;stroke-opacity:1;paint-order:fill markers stroke" />
    </clipPath>
    <clipPath
       clipPathUnits="userSpaceOnUse"
       id="clipPath6436-2-5-6-1-9-8-7-1-39-7-9">
      <circle
         r="18.674574"
         cy="-222.91019"
         cx="-159.05081"
         id="circle6438-3-9-8-7-8-4-5-3-6-5-1"
         style="opacity:0.25;fill:#ffffff;fill-opacity:1;fill-rule:nonzero;stroke:none;stroke-width:1.50976;stroke-linecap:round;stroke-linejoin:round;stroke-miterlimit:4;stroke-dasharray:none;stroke-dashoffset:0;stroke-opacity:1;paint-order:fill markers stroke" />
    </clipPath>
    <clipPath
       clipPathUnits="userSpaceOnUse"
       id="clipPath1311-5-2-7-0-3-1-8-3-2">
      <rect
         transform="matrix(1.0108901,0,0,1.0136582,1.8318173,2.6511957)"
         clip-path="url(#clipPath6436-2-5-3)"
         y="-221.05418"
         x="-168.20885"
         height="18.917711"
         width="18.4547"
         id="rect1313-3-7-7-6-5-1-1-5-7"
         style="opacity:0.5;fill:#c62828;fill-opacity:1;fill-rule:nonzero;stroke:none;stroke-width:0.2;stroke-linecap:round;stroke-linejoin:round;stroke-miterlimit:4;stroke-dasharray:none;stroke-dashoffset:0;stroke-opacity:1;paint-order:fill markers stroke" />
    </clipPath>
    <linearGradient
       inkscape:collect="always"
       xlink:href="#linearGradient77587"
       id="linearGradient74229"
       x1="139.44711"
       y1="263.77347"
       x2="139.44711"
       y2="147.84755"
       gradientUnits="userSpaceOnUse"
       gradientTransform="matrix(1,0,0,1.1145833,-26.462234,124.35933)" />
    <linearGradient
       inkscape:collect="always"
       xlink:href="#linearGradient74227"
       id="linearGradient74587"
       gradientUnits="userSpaceOnUse"
       gradientTransform="matrix(0.6721134,0,0,1.1145833,160.74351,-569.66831)"
       x1="139.44711"
       y1="263.77347"
       x2="139.44711"
       y2="147.84755" />
    <clipPath
       clipPathUnits="userSpaceOnUse"
       id="clipPath74696">
      <rect
         style="opacity:0.25;fill:#ffffff;stroke-width:6.00001;stroke-linecap:square"
         id="rect74698"
         width="160.44818"
         height="95.764885"
         x="115.5059"
         y="212.11082"
         ry="1.7807939" />
    </clipPath>
    <linearGradient
       inkscape:collect="always"
       xlink:href="#linearGradient77587"
       id="linearGradient77589"
       x1="68.903999"
       y1="-252.35693"
       x2="68.903999"
       y2="-297.40207"
       gradientUnits="userSpaceOnUse"
       gradientTransform="matrix(0.48868054,0,0,0.67576567,48.51446,-189.58606)" />
    <clipPath
       clipPathUnits="userSpaceOnUse"
       id="clipPath77742">
      <rect
         style="fill:#23303e;stroke-width:21.3647;stroke-linecap:square"
         id="rect77744"
         width="285.75"
         height="285.75"
         x="-13.662001"
         y="87.912003"
         ry="0" />
    </clipPath>
    <clipPath
       clipPathUnits="userSpaceOnUse"
       id="clipPath80594">
      <rect
         style="opacity:1;fill:#ff9955;fill-opacity:1;stroke-width:6.00001;stroke-linecap:square"
         id="rect80596"
         width="71.577003"
         height="46.332001"
         x="142.26297"
         y="210.87"
         ry="1.7807939" />
    </clipPath>
    <clipPath
       clipPathUnits="userSpaceOnUse"
       id="clipPath80614">
      <rect
         style="fill:#ff9955;fill-opacity:1;stroke-width:6.69711;stroke-linecap:square"
         id="rect80616"
         width="79.893005"
         height="39.114323"
         x="174.57478"
         y="205.76859"
         ry="1.9876912" />
    </clipPath>
    <clipPath
       clipPathUnits="userSpaceOnUse"
       id="clipPath107334">
      <rect
         style="opacity:1;fill:#000000;fill-opacity:1;stroke-width:6.00001;stroke-linecap:square"
         id="rect107336"
         width="97.234962"
         height="34.231743"
         x="495.41525"
         y="300.73535"
         ry="1.7807939" />
    </clipPath>
    <clipPath
       clipPathUnits="userSpaceOnUse"
       id="clipPath6436-2-5-7-56-7-03-3">
      <circle
         r="18.674574"
         cy="-222.91019"
         cx="-159.05081"
         id="circle6438-3-9-5-9-5-4-6"
         style="opacity:0.25;fill:#ffffff;fill-opacity:1;fill-rule:nonzero;stroke:none;stroke-width:1.50976;stroke-linecap:round;stroke-linejoin:round;stroke-miterlimit:4;stroke-dasharray:none;stroke-dashoffset:0;stroke-opacity:1;paint-order:fill markers stroke" />
    </clipPath>
    <clipPath
       clipPathUnits="userSpaceOnUse"
       id="clipPath6436-2-5-7-56-7-03-3-9">
      <circle
         r="18.674574"
         cy="-222.91019"
         cx="-159.05081"
         id="circle6438-3-9-5-9-5-4-6-9"
         style="opacity:0.25;fill:#ffffff;fill-opacity:1;fill-rule:nonzero;stroke:none;stroke-width:1.50976;stroke-linecap:round;stroke-linejoin:round;stroke-miterlimit:4;stroke-dasharray:none;stroke-dashoffset:0;stroke-opacity:1;paint-order:fill markers stroke" />
    </clipPath>
  </defs>
  <g
     inkscape:label="Layer 1"
     inkscape:groupmode="layer"
     id="layer1">
    <text
       xml:space="preserve"
       style="font-size:10.5833px;line-height:1.05;font-family:sans-serif;white-space:pre;inline-size:99.7722;stroke-width:0.264583"
       x="-93.851997"
       y="92.663994"
       id="text14981"
       transform="translate(-106.92,-35.64)"><tspan
         x="-93.851997"
         y="92.663994"
         id="tspan108295">
</tspan><tspan
         x="-93.851997"
         y="103.77646"
         id="tspan108297">&quot;PENINGKATAN </tspan><tspan
         x="-93.851997"
         y="114.88892"
         id="tspan108299">KOMPETENSI </tspan><tspan
         x="-93.851997"
         y="126.00139"
         id="tspan108301">GURU TAHFIDZ </tspan><tspan
         x="-93.851997"
         y="137.11385"
         id="tspan108303">SMP ISLAM &amp; SMA </tspan><tspan
         x="-93.851997"
         y="148.22631"
         id="tspan108305">MULTI ISTIQLAL&quot; 
</tspan><tspan
         x="-93.851997"
         y="159.33877"
         id="tspan108307">
</tspan><tspan
         x="-93.851997"
         y="170.45122"
         id="tspan108309">Jum'at, 18 </tspan><tspan
         x="-93.851997"
         y="181.56368"
         id="tspan108311">Muharram 1443 H  </tspan><tspan
         x="-93.851997"
         y="192.67614"
         id="tspan108313">- 27 Agustus 2021</tspan></text>
    <g
       id="g106764"
       inkscape:export-filename="D:\Ichsan\design\Istiqlal\Sekolah\SMP-SMA\Peningkatan Kompetensi\Flyer_Peningkatan_Kompetensi.png"
       inkscape:export-xdpi="96"
       inkscape:export-ydpi="96">
      <rect
         style="fill:#23303e;stroke-width:21.3647;stroke-linecap:square"
         id="rect20078"
         width="285.75"
         height="285.75"
         x="-13.662"
         y="87.912003"
         ry="0" />
      <g
         id="g74167"
         transform="matrix(1.232567,0,0,1.232567,3.4934774,-27.143321)">
        <text
           xml:space="preserve"
           style="font-size:10.5833px;line-height:1.15;font-family:sans-serif;white-space:pre;inline-size:260.206;fill:#ffffff;stroke-width:0.264583"
           x="-93.851997"
           y="92.663994"
           id="text20369"
           transform="matrix(1.2921606,0,0,1.2921606,127.11101,6.352007)"><tspan
             x="-93.851997"
             y="92.663994"
             id="tspan108317"><tspan
               style="font-weight:bold;font-family:Aleo;-inkscape-font-specification:'Aleo Bold'"
               id="tspan108315">PENINGKATAN 
</tspan></tspan><tspan
             x="-93.851997"
             y="105.31352"
             id="tspan108321"><tspan
               style="font-weight:bold;font-family:Aleo;-inkscape-font-specification:'Aleo Bold'"
               id="tspan108319">KOMPETENSI 
</tspan></tspan><tspan
             x="-93.851997"
             y="117.96304"
             id="tspan108325"><tspan
               style="font-weight:bold;font-family:Aleo;-inkscape-font-specification:'Aleo Bold'"
               id="tspan108323">GURU TAHFIDZ</tspan></tspan></text>
        <text
           xml:space="preserve"
           style="font-size:10.5833px;line-height:1.05;font-family:sans-serif;white-space:pre;inline-size:260.206;opacity:0.5;fill:#ffffff;stroke-width:0.264583"
           x="-93.851997"
           y="92.663994"
           id="text39313"
           transform="matrix(0.58429716,0,0,0.58429716,60.651939,114.55117)"><tspan
             x="-93.851997"
             y="92.663994"
             id="tspan108329"><tspan
               style="font-family:Aleo;-inkscape-font-specification:Aleo"
               id="tspan108327">SMP ISLAM &amp; SMA MULTI ISTIQLAL</tspan></tspan></text>
      </g>
      <g
         id="g107332"
         clip-path="url(#clipPath107334)"
         transform="matrix(1.3720067,0,0,1.3720067,-558.65228,-114.20158)">
        <image
           width="136.63986"
           height="102.4799"
           preserveAspectRatio="none"
           xlink:href="IMG20210827150239.jpg"
           id="image107223"
           x="485.28802"
           y="265.36203" />
      </g>
      <g
         id="g123769"
         transform="matrix(1.1846585,0,0,1.1953532,1129.805,416.88125)"
         style="display:inline;fill:#1a1a1a">
        <g
           id="g123763"
           transform="matrix(1.4571611,0,0,1.4571607,-657.13374,-9659.6204)"
           style="fill:#fcfafb;fill-opacity:1;stroke-width:1.04603">
          <path
             inkscape:connector-curvature="0"
             id="path123753"
             d="m -188.99309,6592.63 c -0.0992,0 -0.19822,0 -0.26528,0.014 -0.4126,0.056 -0.77699,0.22 -1.09073,0.4892 -0.33793,0.2896 -0.58232,0.7009 -0.67355,1.1329 -0.0585,0.2754 -0.0599,0.5909 0,0.8648 0.0636,0.3084 0.21272,0.6248 0.41681,0.8804 0.0687,0.087 0.22581,0.2431 0.31208,0.3121 0.25026,0.1997 0.54391,0.3417 0.8527,0.4122 l -2.6e-4,-2e-4 c 0.10432,0.025 0.14325,0.027 0.14999,0.011 0.012,-0.022 0.012,-1.4224 0,-1.4389 0,0 -0.012,0 -0.012,-0.011 h -3.8e-4 v 0 c -0.0165,-0.011 -0.0687,-0.011 -0.25585,-0.011 h -0.25751 V 6595 v -0.2853 h 0.25763 c 0.23868,0 0.25777,0 0.26489,-0.014 0,-0.011 0.012,-0.1498 0.012,-0.3231 0,-0.2819 0.012,-0.3145 0.0203,-0.373 0.0523,-0.1972 0.13711,-0.3281 0.27419,-0.4191 0.0763,-0.051 0.1389,-0.078 0.23333,-0.1015 0.0624,-0.016 0.0879,-0.018 0.26744,-0.017 0.1392,5e-4 0.2285,0 0.30037,0.014 0.0573,0.011 0.10568,0.016 0.10822,0.018 0,0 0.012,0.1106 0.012,0.2408 v 0.2365 h -0.16858 c -0.1133,0 -0.1813,0.011 -0.20814,0.016 -0.11705,0.034 -0.19213,0.1106 -0.22164,0.2239 -0.0153,0.061 -0.0179,0.4709 0,0.4863 0.012,0.011 0.0814,0.011 0.28537,0.011 h 0.27596 l -5e-4,0.018 c -1.2e-4,0.011 -0.0191,0.1374 -0.0421,0.2834 l -0.0407,0.2657 h -0.24174 -0.242 v 0.7277 c 0,0.6681 0,0.7276 0.012,0.7329 0.0318,0.013 0.27609,-0.049 0.42418,-0.105 0.1157,-0.044 0.28677,-0.1312 0.39173,-0.1999 0.13442,-0.088 0.23755,-0.1741 0.35688,-0.2967 0.31286,-0.321 0.50562,-0.7151 0.57189,-1.1683 0.0204,-0.1322 0.0204,-0.423 0,-0.5551 -0.0356,-0.2451 -0.0967,-0.4437 -0.2028,-0.6535 -0.31119,-0.6205 -0.89734,-1.0366 -1.59443,-1.1318 -0.0675,-0.011 -0.16654,-0.014 -0.26565,-0.014 z"
             style="fill:#fcfafb;fill-opacity:1;stroke-width:0.00829465" />
          <g
             style="fill:#fcfafb;fill-opacity:1;stroke-width:1.04603"
             transform="matrix(1.1387232,0,0,1.1387232,-118.81329,6282.4033)"
             id="g123757">
            <path
               style="fill:#fcfafb;fill-opacity:1;stroke-width:0.00820556"
               d="m -50.156541,276.20876 c -0.186919,-0.008 -0.31922,-0.0239 -0.433591,-0.0541 -0.383496,-0.10105 -0.653142,-0.37375 -0.750221,-0.75859 -0.04761,-0.18875 -0.05944,-0.41775 -0.05937,-1.15154 3.9e-5,-0.75499 0.01168,-0.97494 0.06226,-1.16884 0.100182,-0.38445 0.373136,-0.65504 0.758906,-0.75236 0.188759,-0.0476 0.417751,-0.0594 1.151555,-0.0594 0.754968,3e-5 0.974934,0.0115 1.168819,0.0623 0.384451,0.10015 0.655059,0.37313 0.752374,0.7589 0.04753,0.18847 0.05937,0.41859 0.05937,1.15548 0,0.75066 -0.01181,0.97121 -0.06226,1.16488 -0.100183,0.38445 -0.373137,0.65507 -0.758907,0.75239 -0.115397,0.0291 -0.236196,0.0429 -0.453399,0.0515 -0.226062,0.009 -1.203287,0.009 -1.435537,-4.3e-4 z m 1.211963,-0.3521 c 0.383244,-0.008 0.487756,-0.0166 0.607315,-0.0511 0.131416,-0.0381 0.208109,-0.0813 0.297452,-0.16773 0.120467,-0.11644 0.184766,-0.25725 0.213181,-0.46658 0.03112,-0.22908 0.03112,-1.63212 0,-1.86121 -0.01946,-0.14356 -0.06355,-0.27407 -0.12206,-0.36127 -0.03601,-0.0537 -0.121186,-0.13961 -0.175069,-0.1766 -0.09324,-0.0642 -0.218867,-0.10772 -0.368725,-0.12801 -0.229076,-0.0312 -1.632124,-0.0312 -1.861199,0 -0.14985,0.0203 -0.275483,0.0639 -0.368734,0.12801 -0.05387,0.0371 -0.139046,0.12287 -0.175059,0.1766 -0.05852,0.0872 -0.10257,0.21771 -0.12206,0.36127 -0.03112,0.22909 -0.03112,1.63213 0,1.86121 0.0203,0.14986 0.06394,0.27548 0.127966,0.36874 0.03702,0.0539 0.12292,0.13904 0.17661,0.17505 0.08911,0.0598 0.218676,0.10296 0.369283,0.12299 0.16129,0.0214 0.823542,0.0303 1.401102,0.0188 z m -0.659546,-0.61631 c -0.416872,-0.0754 -0.746364,-0.40726 -0.819195,-0.82489 -0.01503,-0.0865 -0.01503,-0.26321 0,-0.3497 0.07332,-0.42062 0.404756,-0.75203 0.825382,-0.82538 0.0865,-0.0152 0.263207,-0.0152 0.349704,0 0.420626,0.0733 0.752033,0.40476 0.825381,0.82538 0.01503,0.0865 0.01503,0.26321 0,0.3497 -0.07332,0.42062 -0.404755,0.75202 -0.825381,0.82538 -0.08345,0.0146 -0.274309,0.0144 -0.355891,-4.4e-4 z m 0.334007,-0.36023 c 0.246359,-0.0646 0.421535,-0.23999 0.487133,-0.48782 0.01014,-0.0381 0.0142,-0.082 0.0142,-0.15168 0,-0.0696 -0.0045,-0.11362 -0.0142,-0.15169 -0.06576,-0.24849 -0.239942,-0.42266 -0.488423,-0.48842 -0.07394,-0.0196 -0.229419,-0.0196 -0.303356,0 -0.08276,0.022 -0.14454,0.0493 -0.213082,0.0949 -0.137011,0.0909 -0.230634,0.22467 -0.275332,0.39359 -0.01953,0.0739 -0.01953,0.22942 0,0.30337 0.06166,0.23315 0.223644,0.40573 0.447905,0.47732 0.09731,0.0311 0.249036,0.0357 0.345155,0.0103 z m 0.847196,-1.46221 c -0.06868,-0.0182 -0.124961,-0.0642 -0.158831,-0.1294 -0.01747,-0.0338 -0.02082,-0.0503 -0.02082,-0.10297 0,-0.0733 0.02023,-0.12145 0.07111,-0.16979 0.05006,-0.0475 0.09197,-0.0646 0.159534,-0.0648 0.09971,-4.5e-4 0.180052,0.0506 0.22111,0.14054 0.02618,0.0574 0.02479,0.14235 -0.003,0.1961 -0.02434,0.0469 -0.06806,0.0901 -0.114267,0.11324 -0.03677,0.0184 -0.116488,0.0272 -0.154598,0.0171 z"
               id="path123755"
               inkscape:connector-curvature="0" />
          </g>
          <path
             style="fill:#fcfafb;fill-opacity:1;stroke-width:0.00778596"
             d="m -182.92118,6596.5971 c -0.68549,-0.019 -1.15025,-0.054 -1.34352,-0.1031 -0.1963,-0.05 -0.37069,-0.2001 -0.45192,-0.3881 -0.0767,-0.1779 -0.12408,-0.5638 -0.14377,-1.1773 -0.0147,-0.4565 0.0166,-1.0553 0.072,-1.3852 0.0238,-0.1401 0.0412,-0.2088 0.0717,-0.2795 0.0812,-0.188 0.25564,-0.3378 0.45195,-0.3879 0.27014,-0.07 1.07384,-0.1113 2.12878,-0.1113 1.05493,0 1.85865,0.042 2.12879,0.1113 0.19631,0.05 0.37068,0.1999 0.45193,0.3879 0.0769,0.1778 0.12406,0.5637 0.14375,1.1771 0.0147,0.4566 -0.0166,1.0555 -0.072,1.3852 -0.0238,0.1405 -0.0413,0.2089 -0.0719,0.2797 -0.0812,0.188 -0.25564,0.3376 -0.45194,0.3881 -0.19931,0.05 -0.64233,0.084 -1.38447,0.1044 -0.31572,0.014 -1.20422,0.014 -1.52958,-6e-4 z m 1.07767,-1.5849 c 0.31372,-0.1781 0.5704,-0.3255 0.57038,-0.3275 -5e-5,0 -0.32159,-0.1866 -1.28091,-0.7306 l -0.14007,-0.08 v 0.8103 0.8103 l 0.14007,-0.08 c 0.077,-0.044 0.39677,-0.2252 0.71053,-0.4033 z"
             id="path123759"
             inkscape:connector-curvature="0" />
          <path
             id="path123761"
             style="fill:#fcfafb;fill-opacity:1;stroke-width:0.131824;stroke-linecap:round;stroke-linejoin:round"
             d="m -194.57021,6592.6028 a 2.0839882,2.0840777 0 0 0 -2.08384,2.0839 2.0839882,2.0840777 0 0 0 2.08384,2.0841 2.0839882,2.0840777 0 0 0 2.08419,-2.0841 2.0839882,2.0840777 0 0 0 -2.08419,-2.0839 z m 0.84151,1.2918 c 0.0215,0 0.0376,0 0.0483,0.018 0.0179,0 0.0197,0.018 0.025,0.023 0,0.018 0,0.029 0,0.056 0,0.025 0,0.059 0,0.102 0,0.066 -0.0197,0.19 -0.0429,0.3396 -0.0215,0.1503 -0.0501,0.3255 -0.0805,0.4955 -0.0304,0.17 -0.0591,0.3344 -0.0859,0.4613 -0.025,0.127 -0.0465,0.2163 -0.0573,0.2367 -0.0179,0.02 -0.0251,0.036 -0.0429,0.05 -0.0179,0.018 -0.0358,0.02 -0.0501,0.02 -0.0179,0 -0.0698,-0.029 -0.14315,-0.072 -0.0734,-0.043 -0.16819,-0.102 -0.26195,-0.1628 -0.0948,-0.061 -0.18842,-0.1252 -0.26375,-0.1789 -0.0751,-0.054 -0.13062,-0.098 -0.14851,-0.1199 0,-0.018 -0.0179,-0.023 -0.0179,-0.039 0,-0.018 0.0179,-0.036 0.0376,-0.066 0.0447,-0.057 0.1342,-0.1467 0.29023,-0.2988 0.0841,-0.081 0.15209,-0.1503 0.20631,-0.2103 0.0537,-0.059 0.0948,-0.1091 0.11988,-0.1467 0.0179,-0.02 0.0233,-0.036 0.0286,-0.05 0,-0.018 0,-0.027 0,-0.036 0,-0.018 0,-0.018 -0.0179,-0.021 0,0 -0.0179,0 -0.0322,0 -0.0179,0 -0.0787,0.038 -0.17535,0.097 -0.0966,0.059 -0.2251,0.1413 -0.36001,0.231 -0.20899,0.1395 -0.33639,0.221 -0.42496,0.2677 -0.0447,0.023 -0.0787,0.038 -0.10915,0.047 -0.0304,0 -0.0555,0.018 -0.0823,0.018 -0.0429,0 -0.0913,0 -0.14315,-0.02 -0.0501,-0.018 -0.10199,-0.027 -0.14851,-0.043 -0.0465,-0.018 -0.0877,-0.034 -0.11631,-0.052 -0.0179,-0.018 -0.0268,-0.018 -0.034,-0.027 0,0 -0.0179,-0.018 -0.0179,-0.023 0,-0.018 0.0304,-0.032 0.0823,-0.061 0.0537,-0.03 0.12883,-0.068 0.22027,-0.1109 0.18269,-0.088 0.42782,-0.1954 0.67743,-0.3008 0.24979,-0.1056 0.50423,-0.2078 0.70535,-0.2829 0.1002,-0.038 0.1877,-0.068 0.25426,-0.09 0.0662,-0.021 0.11273,-0.032 0.13062,-0.029 z" />
        </g>
        <text
           id="text123767"
           y="-48.479633"
           x="-903.0708"
           style="font-style:normal;font-weight:normal;font-size:5.30192px;line-height:1.05;font-family:sans-serif;letter-spacing:0px;word-spacing:0px;fill:#fcfafb;fill-opacity:1;stroke:none;stroke-width:0.138653"
           xml:space="preserve"><tspan
             style="font-style:normal;font-variant:normal;font-weight:bold;font-stretch:normal;font-size:5.30192px;font-family:Montserrat;-inkscape-font-specification:'Montserrat Bold';font-variant-ligatures:normal;font-variant-caps:normal;font-variant-numeric:normal;font-feature-settings:normal;text-align:start;writing-mode:lr-tb;text-anchor:start;fill:#fcfafb;fill-opacity:1;stroke-width:0.138653"
             y="-48.479633"
             x="-903.0708"
             sodipodi:role="line"
             id="tspan123765">Istiqlal Islamic School</tspan></text>
      </g>
      <g
         inkscape:label="LogoIstiqlal"
         transform="matrix(1.3226546,0,0,1.3226547,474.94931,-58.784793)"
         id="LogoIstiqlal">
        <g
           id="g2693"
           transform="matrix(0.70807921,0,0,0.70807915,-89.592975,305.31276)"
           style="display:inline;image-rendering:auto">
          <g
             id="g2614">
            <circle
               r="21.826302"
               cy="-222.91022"
               cx="-159.05081"
               id="circle2606"
               style="opacity:1;fill:#f86900;fill-opacity:1;fill-rule:nonzero;stroke:none;stroke-width:1.76456;stroke-linecap:round;stroke-linejoin:round;stroke-miterlimit:4;stroke-dasharray:none;stroke-dashoffset:0;stroke-opacity:1;paint-order:fill markers stroke" />
            <circle
               r="21.639214"
               cy="-222.9102"
               cx="-159.05081"
               id="circle2608"
               style="opacity:1;fill:#ffffff;fill-opacity:1;fill-rule:nonzero;stroke:none;stroke-width:1.74943;stroke-linecap:round;stroke-linejoin:round;stroke-miterlimit:4;stroke-dasharray:none;stroke-dashoffset:0;stroke-opacity:1;paint-order:fill markers stroke" />
            <circle
               r="21.311808"
               cy="-222.9102"
               cx="-159.05081"
               id="circle2610"
               style="opacity:1;fill:#f86900;fill-opacity:1;fill-rule:nonzero;stroke:none;stroke-width:1.72296;stroke-linecap:round;stroke-linejoin:round;stroke-miterlimit:4;stroke-dasharray:none;stroke-dashoffset:0;stroke-opacity:1;paint-order:fill markers stroke" />
            <circle
               r="20.451916"
               cy="-222.91019"
               cx="-159.05081"
               id="circle2612"
               style="opacity:1;fill:#ffffff;fill-opacity:1;fill-rule:nonzero;stroke:none;stroke-width:1.65345;stroke-linecap:round;stroke-linejoin:round;stroke-miterlimit:4;stroke-dasharray:none;stroke-dashoffset:0;stroke-opacity:1;paint-order:fill markers stroke" />
          </g>
          <g
             clip-path="none"
             id="g2622">
            <rect
               style="opacity:1;fill:#ff6600;fill-opacity:1;fill-rule:nonzero;stroke:none;stroke-width:0.2;stroke-linecap:round;stroke-linejoin:round;stroke-miterlimit:4;stroke-dasharray:none;stroke-dashoffset:0;stroke-opacity:1;paint-order:fill markers stroke"
               id="rect2616"
               width="18.4547"
               height="18.917711"
               x="-168.20885"
               y="-221.05418"
               clip-path="url(#clipPath6436-2-5-7-56-7-03-3-9)"
               transform="matrix(1.0108901,0,0,1.0136582,1.8318185,2.7608221)" />
            <path
               style="opacity:1;fill:#ffff01;fill-opacity:1;fill-rule:nonzero;stroke:none;stroke-width:0.765183;stroke-linecap:round;stroke-linejoin:round;stroke-miterlimit:4;stroke-dasharray:none;stroke-dashoffset:0;stroke-opacity:1;paint-order:fill markers stroke"
               clip-path="none"
               d="m -635.75,788.45508 v 10.09375 c 2.53754,1.43626 4.88688,2.63323 7.22656,3.63476 v -2.19726 l 8.35547,2.23828 v 2.66601 c 2.26469,0.5065 4.69357,0.87677 7.38867,1.13672 v -2.78125 l 8.35547,0.27735 v 2.95508 c 1.2666,0.0264 2.56919,0.0418 3.95703,0.041 1.37322,-9.4e-4 2.66161,-0.0228 3.91407,-0.0488 v -2.94726 l 8.35546,-0.27735 v 2.74219 c 2.69844,-0.27742 5.12493,-0.67162 7.38868,-1.20703 v -2.55664 l 8.35547,-2.23828 v 1.95117 c 2.32282,-1.03669 4.66677,-2.27087 7.21289,-3.74609 v -9.73633 z"
               transform="matrix(0.26458333,0,0,0.26458333,0,-429.90601)"
               id="path2618"
               inkscape:connector-curvature="0" />
            <ellipse
               style="opacity:1;fill:#669934;fill-opacity:1;fill-rule:nonzero;stroke:none;stroke-width:0.2;stroke-linecap:round;stroke-linejoin:round;stroke-miterlimit:4;stroke-dasharray:none;stroke-dashoffset:0;stroke-opacity:1;paint-order:fill markers stroke"
               id="ellipse2620"
               cx="-158.88229"
               cy="-221.28568"
               rx="9.3265629"
               ry="1.8190104" />
          </g>
          <path
             inkscape:connector-curvature="0"
             id="path2624"
             transform="matrix(1.101749,0,0,1.1017491,-951.57031,-302.89023)"
             d="m 711.01562,78.980469 v 8.427734 a 16.752967,16.752964 0 0 0 2.32618,1.095703 c 0.0219,-0.10337 0.0391,-0.209827 0.0391,-0.324218 v -6.59961 c 0,-0.928332 -1.63765,-2.116188 -2.36524,-2.599609 z"
             style="opacity:1;fill:#ffffff;fill-opacity:1;fill-rule:nonzero;stroke:none;stroke-width:0.205303;stroke-linecap:round;stroke-linejoin:round;stroke-miterlimit:4;stroke-dasharray:none;stroke-dashoffset:0;stroke-opacity:1;paint-order:fill markers stroke" />
          <path
             inkscape:connector-curvature="0"
             id="path2626"
             transform="matrix(1.101749,0,0,1.1017491,-951.57031,-302.89023)"
             d="m 711.01562,80.201172 v 7.207031 a 16.752967,16.752964 0 0 0 1.78711,0.900391 16.752967,16.752964 0 0 0 0.002,0 c 0.0703,-0.152253 0.11328,-0.321441 0.11328,-0.511719 v -5.480469 c 0,-0.733075 -1.25924,-1.678798 -1.90235,-2.115234 z"
             style="opacity:1;fill:#f70402;fill-opacity:1;fill-rule:nonzero;stroke:none;stroke-width:0.170463;stroke-linecap:round;stroke-linejoin:round;stroke-miterlimit:4;stroke-dasharray:none;stroke-dashoffset:0;stroke-opacity:1;paint-order:fill markers stroke" />
          <path
             inkscape:connector-curvature="0"
             id="path2628"
             transform="matrix(1.101749,0,0,1.1017491,-951.57031,-302.89023)"
             d="m 727.94922,78.982422 c -0.73075,0.486078 -2.36328,1.671854 -2.36328,2.597656 v 6.59961 c 0,0.07647 0.0174,0.145196 0.0273,0.216796 a 16.752967,16.752964 0 0 0 2.33594,-1.173828 z"
             style="opacity:1;fill:#ffffff;fill-opacity:1;fill-rule:nonzero;stroke:none;stroke-width:0.205303;stroke-linecap:round;stroke-linejoin:round;stroke-miterlimit:4;stroke-dasharray:none;stroke-dashoffset:0;stroke-opacity:1;paint-order:fill markers stroke" />
          <path
             inkscape:connector-curvature="0"
             id="path2630"
             transform="matrix(1.101749,0,0,1.1017491,-951.57031,-302.89023)"
             d="m 727.94922,80.203125 c -0.64397,0.437309 -1.89844,1.381293 -1.89844,2.113281 v 5.480469 c 0,0.136399 0.0255,0.259644 0.0625,0.376953 a 16.752967,16.752964 0 0 0 1.83594,-0.951172 z"
             style="opacity:1;fill:#97cd9a;fill-opacity:1;fill-rule:nonzero;stroke:none;stroke-width:0.170463;stroke-linecap:round;stroke-linejoin:round;stroke-miterlimit:4;stroke-dasharray:none;stroke-dashoffset:0;stroke-opacity:1;paint-order:fill markers stroke" />
          <path
             inkscape:connector-curvature="0"
             id="path2632"
             transform="matrix(1.101749,0,0,1.1017491,-951.57031,-302.89023)"
             d="m 716.40039,79.533203 c 0,0 -2.45508,1.104641 -2.45508,2.525391 v 6.666015 a 16.752967,16.752964 0 0 0 4.90821,0.882813 v -7.548828 c 0,-1.42075 -2.45313,-2.525391 -2.45313,-2.525391 z"
             style="opacity:1;fill:#ffffff;fill-opacity:1;fill-rule:nonzero;stroke:none;stroke-width:0.212892;stroke-linecap:round;stroke-linejoin:round;stroke-miterlimit:4;stroke-dasharray:none;stroke-dashoffset:0;stroke-opacity:1;paint-order:fill markers stroke" />
          <path
             inkscape:connector-curvature="0"
             id="path2634"
             transform="matrix(1.101749,0,0,1.1017491,-951.57031,-302.89023)"
             d="m 716.40039,80.994141 c 0,0 -2.03906,0.916042 -2.03906,2.095703 v 5.787109 a 16.752967,16.752964 0 0 0 4.07617,0.708985 v -6.496094 c 0,-1.179661 -2.03711,-2.095703 -2.03711,-2.095703 z"
             style="opacity:1;fill:#020066;fill-opacity:1;fill-rule:nonzero;stroke:none;stroke-width:0.176764;stroke-linecap:round;stroke-linejoin:round;stroke-miterlimit:4;stroke-dasharray:none;stroke-dashoffset:0;stroke-opacity:1;paint-order:fill markers stroke" />
          <path
             inkscape:connector-curvature="0"
             id="path2636"
             transform="matrix(1.101749,0,0,1.1017491,-951.57031,-302.89023)"
             d="m 722.36914,79.533203 c 0,0 -2.45312,1.104641 -2.45312,2.525391 v 7.550781 a 16.752967,16.752964 0 0 0 4.9082,-0.925781 v -6.625 c 0,-1.42075 -2.45508,-2.525391 -2.45508,-2.525391 z"
             style="opacity:1;fill:#ffffff;fill-opacity:1;fill-rule:nonzero;stroke:none;stroke-width:0.212892;stroke-linecap:round;stroke-linejoin:round;stroke-miterlimit:4;stroke-dasharray:none;stroke-dashoffset:0;stroke-opacity:1;paint-order:fill markers stroke" />
          <path
             inkscape:connector-curvature="0"
             id="path2638"
             transform="matrix(1.101749,0,0,1.1017491,-951.57031,-302.89023)"
             d="m 722.36914,80.994141 c 0,0 -2.03711,0.916042 -2.03711,2.095703 v 6.503906 a 16.752967,16.752964 0 0 0 4.07617,-0.773438 v -5.730468 c 0,-1.179661 -2.03906,-2.095703 -2.03906,-2.095703 z"
             style="opacity:1;fill:#999999;fill-opacity:1;fill-rule:nonzero;stroke:none;stroke-width:0.176764;stroke-linecap:round;stroke-linejoin:round;stroke-miterlimit:4;stroke-dasharray:none;stroke-dashoffset:0;stroke-opacity:1;paint-order:fill markers stroke" />
          <g
             id="g2664">
            <path
               sodipodi:type="star"
               style="opacity:1;fill:#fffe03;fill-opacity:1;fill-rule:nonzero;stroke:#d54a1e;stroke-width:0.2;stroke-linecap:round;stroke-linejoin:round;stroke-miterlimit:4;stroke-dasharray:none;stroke-dashoffset:0;stroke-opacity:1;paint-order:fill markers stroke"
               id="path2640"
               sodipodi:sides="5"
               sodipodi:cx="-147.09846"
               sodipodi:cy="-212.34891"
               sodipodi:r1="0.99728298"
               sodipodi:r2="2.2591491"
               sodipodi:arg1="1.0471976"
               sodipodi:arg2="1.6755161"
               inkscape:flatsided="false"
               inkscape:rounded="0"
               inkscape:randomized="0"
               inkscape:transform-center-x="-0.27154355"
               inkscape:transform-center-y="-0.3941582"
               transform="rotate(30,-151.31759,-210.9672)"
               d="m -146.59982,-211.48524 -0.73479,1.38311 -0.43117,-1.50565 -1.54247,-0.27142 1.29872,-0.87534 -0.21851,-1.55085 1.23382,0.96466 1.40742,-0.68705 -0.53617,1.47153 1.08834,1.12622 z" />
            <path
               sodipodi:type="star"
               style="opacity:1;fill:#fffe03;fill-opacity:1;fill-rule:nonzero;stroke:#d54a1e;stroke-width:0.2;stroke-linecap:round;stroke-linejoin:round;stroke-miterlimit:4;stroke-dasharray:none;stroke-dashoffset:0;stroke-opacity:1;paint-order:fill markers stroke"
               id="path2642"
               sodipodi:sides="5"
               sodipodi:cx="-147.09846"
               sodipodi:cy="-212.34891"
               sodipodi:r1="0.99728298"
               sodipodi:r2="2.2591491"
               sodipodi:arg1="1.0471976"
               sodipodi:arg2="1.6755161"
               inkscape:flatsided="false"
               inkscape:rounded="0"
               inkscape:randomized="0"
               inkscape:transform-center-x="-0.23878265"
               inkscape:transform-center-y="-0.34660748"
               transform="matrix(0.76155036,0.4396813,-0.4396813,0.76155036,-125.33178,12.920373)"
               d="m -146.59982,-211.48524 -0.73479,1.38311 -0.43117,-1.50565 -1.54247,-0.27142 1.29872,-0.87534 -0.21851,-1.55085 1.23382,0.96466 1.40742,-0.68705 -0.53617,1.47153 1.08834,1.12622 z" />
            <path
               sodipodi:type="star"
               style="opacity:1;fill:#fffe03;fill-opacity:1;fill-rule:nonzero;stroke:#d54a1e;stroke-width:0.2;stroke-linecap:round;stroke-linejoin:round;stroke-miterlimit:4;stroke-dasharray:none;stroke-dashoffset:0;stroke-opacity:1;paint-order:fill markers stroke"
               id="path2644"
               sodipodi:sides="5"
               sodipodi:cx="-147.09846"
               sodipodi:cy="-212.34891"
               sodipodi:r1="0.99728298"
               sodipodi:r2="2.2591491"
               sodipodi:arg1="1.0471976"
               sodipodi:arg2="1.6755161"
               inkscape:flatsided="false"
               inkscape:rounded="0"
               inkscape:randomized="0"
               inkscape:transform-center-x="-0.20247657"
               inkscape:transform-center-y="-0.29391208"
               transform="matrix(0.64576967,0.37283528,-0.37283528,0.64576967,-126.16998,-24.047101)"
               d="m -146.59982,-211.48524 -0.73479,1.38311 -0.43117,-1.50565 -1.54247,-0.27142 1.29872,-0.87534 -0.21851,-1.55085 1.23382,0.96466 1.40742,-0.68705 -0.53617,1.47153 1.08834,1.12622 z" />
            <path
               sodipodi:type="star"
               style="opacity:1;fill:#fffe03;fill-opacity:1;fill-rule:nonzero;stroke:#d54a1e;stroke-width:0.2;stroke-linecap:round;stroke-linejoin:round;stroke-miterlimit:4;stroke-dasharray:none;stroke-dashoffset:0;stroke-opacity:1;paint-order:fill markers stroke"
               id="path2646"
               sodipodi:sides="5"
               sodipodi:cx="-147.09846"
               sodipodi:cy="-212.34891"
               sodipodi:r1="0.99728298"
               sodipodi:r2="2.2591491"
               sodipodi:arg1="1.0471976"
               sodipodi:arg2="1.6755161"
               inkscape:flatsided="false"
               inkscape:rounded="0"
               inkscape:randomized="0"
               inkscape:transform-center-x="-0.15963814"
               inkscape:transform-center-y="-0.23173239"
               transform="matrix(0.50914807,0.29395676,-0.29395676,0.50914807,-128.57767,-67.907361)"
               d="m -146.59982,-211.48524 -0.73479,1.38311 -0.43117,-1.50565 -1.54247,-0.27142 1.29872,-0.87534 -0.21851,-1.55085 1.23382,0.96466 1.40742,-0.68705 -0.53617,1.47153 1.08834,1.12622 z" />
            <path
               sodipodi:type="star"
               style="opacity:1;fill:#fffe03;fill-opacity:1;fill-rule:nonzero;stroke:#d54a1e;stroke-width:0.2;stroke-linecap:round;stroke-linejoin:round;stroke-miterlimit:4;stroke-dasharray:none;stroke-dashoffset:0;stroke-opacity:1;paint-order:fill markers stroke"
               id="path2648"
               sodipodi:sides="5"
               sodipodi:cx="-147.09846"
               sodipodi:cy="-212.34891"
               sodipodi:r1="0.99728298"
               sodipodi:r2="2.2591491"
               sodipodi:arg1="1.0471976"
               sodipodi:arg2="1.6755161"
               inkscape:flatsided="false"
               inkscape:rounded="0"
               inkscape:randomized="0"
               inkscape:transform-center-x="-0.12940323"
               inkscape:transform-center-y="-0.18783874"
               transform="matrix(0.41270918,0.23827775,-0.23827775,0.41270918,-130.90038,-99.152346)"
               d="m -146.59982,-211.48524 -0.73479,1.38311 -0.43117,-1.50565 -1.54247,-0.27142 1.29872,-0.87534 -0.21851,-1.55085 1.23382,0.96466 1.40742,-0.68705 -0.53617,1.47153 1.08834,1.12622 z" />
            <path
               sodipodi:type="star"
               style="opacity:1;fill:#fffe03;fill-opacity:1;fill-rule:nonzero;stroke:#d54a1e;stroke-width:0.2;stroke-linecap:round;stroke-linejoin:round;stroke-miterlimit:4;stroke-dasharray:none;stroke-dashoffset:0;stroke-opacity:1;paint-order:fill markers stroke"
               id="path2650"
               sodipodi:sides="5"
               sodipodi:cx="-147.09846"
               sodipodi:cy="-212.34891"
               sodipodi:r1="0.99728298"
               sodipodi:r2="2.2591491"
               sodipodi:arg1="1.0471976"
               sodipodi:arg2="1.6755161"
               inkscape:flatsided="false"
               inkscape:rounded="0"
               inkscape:randomized="0"
               inkscape:transform-center-x="-0.096648729"
               inkscape:transform-center-y="-0.14028409"
               transform="matrix(0.30823392,0.17795894,-0.17795894,0.30823392,-133.60958,-132.05972)"
               d="m -146.59982,-211.48524 -0.73479,1.38311 -0.43117,-1.50565 -1.54247,-0.27142 1.29872,-0.87534 -0.21851,-1.55085 1.23382,0.96466 1.40742,-0.68705 -0.53617,1.47153 1.08834,1.12622 z" />
            <path
               sodipodi:type="star"
               style="opacity:1;fill:#fffe03;fill-opacity:1;fill-rule:nonzero;stroke:#d54a1e;stroke-width:0.2;stroke-linecap:round;stroke-linejoin:round;stroke-miterlimit:4;stroke-dasharray:none;stroke-dashoffset:0;stroke-opacity:1;paint-order:fill markers stroke"
               id="path2652"
               sodipodi:sides="5"
               sodipodi:cx="-147.09846"
               sodipodi:cy="-212.34891"
               sodipodi:r1="0.99728298"
               sodipodi:r2="2.2591491"
               sodipodi:arg1="1.0471976"
               sodipodi:arg2="1.6755161"
               inkscape:flatsided="false"
               inkscape:rounded="0"
               inkscape:randomized="0"
               inkscape:transform-center-x="-0.27154355"
               inkscape:transform-center-y="-0.3941582"
               transform="matrix(-0.8660254,0.5,0.5,0.8660254,-192.04996,47.44131)"
               d="m -146.59982,-211.48524 -0.73479,1.38311 -0.43117,-1.50565 -1.54247,-0.27142 1.29872,-0.87534 -0.21851,-1.55085 1.23382,0.96466 1.40742,-0.68705 -0.53617,1.47153 1.08834,1.12622 z" />
            <path
               sodipodi:type="star"
               style="opacity:1;fill:#fffe03;fill-opacity:1;fill-rule:nonzero;stroke:#d54a1e;stroke-width:0.2;stroke-linecap:round;stroke-linejoin:round;stroke-miterlimit:4;stroke-dasharray:none;stroke-dashoffset:0;stroke-opacity:1;paint-order:fill markers stroke"
               id="path2654"
               sodipodi:sides="5"
               sodipodi:cx="-147.09846"
               sodipodi:cy="-212.34891"
               sodipodi:r1="0.99728298"
               sodipodi:r2="2.2591491"
               sodipodi:arg1="1.0471976"
               sodipodi:arg2="1.6755161"
               inkscape:flatsided="false"
               inkscape:rounded="0"
               inkscape:randomized="0"
               inkscape:transform-center-x="-0.23878265"
               inkscape:transform-center-y="-0.34660748"
               transform="matrix(-0.76155036,0.4396813,0.4396813,0.76155036,-192.47449,12.967133)"
               d="m -146.59982,-211.48524 -0.73479,1.38311 -0.43117,-1.50565 -1.54247,-0.27142 1.29872,-0.87534 -0.21851,-1.55085 1.23382,0.96466 1.40742,-0.68705 -0.53617,1.47153 1.08834,1.12622 z" />
            <path
               sodipodi:type="star"
               style="opacity:1;fill:#fffe03;fill-opacity:1;fill-rule:nonzero;stroke:#d54a1e;stroke-width:0.2;stroke-linecap:round;stroke-linejoin:round;stroke-miterlimit:4;stroke-dasharray:none;stroke-dashoffset:0;stroke-opacity:1;paint-order:fill markers stroke"
               id="path2656"
               sodipodi:sides="5"
               sodipodi:cx="-147.09846"
               sodipodi:cy="-212.34891"
               sodipodi:r1="0.99728298"
               sodipodi:r2="2.2591491"
               sodipodi:arg1="1.0471976"
               sodipodi:arg2="1.6755161"
               inkscape:flatsided="false"
               inkscape:rounded="0"
               inkscape:randomized="0"
               inkscape:transform-center-x="-0.20247657"
               inkscape:transform-center-y="-0.29391208"
               transform="matrix(-0.64576967,0.37283528,0.37283528,0.64576967,-191.63629,-24.000341)"
               d="m -146.59982,-211.48524 -0.73479,1.38311 -0.43117,-1.50565 -1.54247,-0.27142 1.29872,-0.87534 -0.21851,-1.55085 1.23382,0.96466 1.40742,-0.68705 -0.53617,1.47153 1.08834,1.12622 z" />
            <path
               sodipodi:type="star"
               style="opacity:1;fill:#fffe03;fill-opacity:1;fill-rule:nonzero;stroke:#d54a1e;stroke-width:0.2;stroke-linecap:round;stroke-linejoin:round;stroke-miterlimit:4;stroke-dasharray:none;stroke-dashoffset:0;stroke-opacity:1;paint-order:fill markers stroke"
               id="path2658"
               sodipodi:sides="5"
               sodipodi:cx="-147.09846"
               sodipodi:cy="-212.34891"
               sodipodi:r1="0.99728298"
               sodipodi:r2="2.2591491"
               sodipodi:arg1="1.0471976"
               sodipodi:arg2="1.6755161"
               inkscape:flatsided="false"
               inkscape:rounded="0"
               inkscape:randomized="0"
               inkscape:transform-center-x="-0.15963814"
               inkscape:transform-center-y="-0.23173239"
               transform="matrix(-0.50914807,0.29395676,0.29395676,0.50914807,-189.2286,-67.860601)"
               d="m -146.59982,-211.48524 -0.73479,1.38311 -0.43117,-1.50565 -1.54247,-0.27142 1.29872,-0.87534 -0.21851,-1.55085 1.23382,0.96466 1.40742,-0.68705 -0.53617,1.47153 1.08834,1.12622 z" />
            <path
               sodipodi:type="star"
               style="opacity:1;fill:#fffe03;fill-opacity:1;fill-rule:nonzero;stroke:#d54a1e;stroke-width:0.2;stroke-linecap:round;stroke-linejoin:round;stroke-miterlimit:4;stroke-dasharray:none;stroke-dashoffset:0;stroke-opacity:1;paint-order:fill markers stroke"
               id="path2660"
               sodipodi:sides="5"
               sodipodi:cx="-147.09846"
               sodipodi:cy="-212.34891"
               sodipodi:r1="0.99728298"
               sodipodi:r2="2.2591491"
               sodipodi:arg1="1.0471976"
               sodipodi:arg2="1.6755161"
               inkscape:flatsided="false"
               inkscape:rounded="0"
               inkscape:randomized="0"
               inkscape:transform-center-x="-0.12940323"
               inkscape:transform-center-y="-0.18783874"
               transform="matrix(-0.41270918,0.23827775,0.23827775,0.41270918,-186.90589,-99.105586)"
               d="m -146.59982,-211.48524 -0.73479,1.38311 -0.43117,-1.50565 -1.54247,-0.27142 1.29872,-0.87534 -0.21851,-1.55085 1.23382,0.96466 1.40742,-0.68705 -0.53617,1.47153 1.08834,1.12622 z" />
            <path
               sodipodi:type="star"
               style="opacity:1;fill:#fffe03;fill-opacity:1;fill-rule:nonzero;stroke:#d54a1e;stroke-width:0.2;stroke-linecap:round;stroke-linejoin:round;stroke-miterlimit:4;stroke-dasharray:none;stroke-dashoffset:0;stroke-opacity:1;paint-order:fill markers stroke"
               id="path2662"
               sodipodi:sides="5"
               sodipodi:cx="-147.09846"
               sodipodi:cy="-212.34891"
               sodipodi:r1="0.99728298"
               sodipodi:r2="2.2591491"
               sodipodi:arg1="1.0471976"
               sodipodi:arg2="1.6755161"
               inkscape:flatsided="false"
               inkscape:rounded="0"
               inkscape:randomized="0"
               inkscape:transform-center-x="-0.096648729"
               inkscape:transform-center-y="-0.14028409"
               transform="matrix(-0.30823392,0.17795894,0.17795894,0.30823392,-184.19669,-132.01296)"
               d="m -146.59982,-211.48524 -0.73479,1.38311 -0.43117,-1.50565 -1.54247,-0.27142 1.29872,-0.87534 -0.21851,-1.55085 1.23382,0.96466 1.40742,-0.68705 -0.53617,1.47153 1.08834,1.12622 z" />
          </g>
          <g
             id="g2682">
            <path
               style="opacity:1;fill:#fae847;fill-opacity:1;fill-rule:nonzero;stroke:#836b3d;stroke-width:0.377953;stroke-linecap:round;stroke-linejoin:round;stroke-miterlimit:4;stroke-dasharray:none;stroke-dashoffset:0;stroke-opacity:1;paint-order:fill markers stroke"
               d="m -608.36523,764.58398 c -1.69078,0.0635 -3.73148,0.37116 -6.19532,1.03125 l -0.17187,0.0879 -0.0625,0.0664 -1.46485,2.19727 h -3.51562 v 20.65429 l 15.86914,-0.92773 c 0,0 1.85231,0.67065 3.02148,0.875 v 0.0625 c 0.0781,0 0.17965,-0.0147 0.27539,-0.0254 0.096,0.0108 0.19904,0.0254 0.27735,0.0254 v -0.0625 c 1.16928,-0.20472 3.01953,-0.875 3.01953,-0.875 l 15.86914,0.92773 V 767.9668 h -3.51562 l -1.46485,-2.19727 -0.0606,-0.0664 -0.17382,-0.0879 c -2.46384,-0.66009 -4.50454,-0.96775 -6.19532,-1.03125 -5.2973,-0.19918 -7.1341,1.98213 -7.75586,3.2129 -0.62175,-1.23077 -2.45855,-3.41208 -7.75585,-3.2129 z"
               transform="matrix(0.26458333,0,0,0.26458333,0,-429.90601)"
               id="path2666"
               inkscape:connector-curvature="0" />
            <path
               style="opacity:1;fill:#ffffff;fill-opacity:1;fill-rule:nonzero;stroke:#836b3d;stroke-width:0.1;stroke-linecap:round;stroke-linejoin:round;stroke-miterlimit:4;stroke-dasharray:none;stroke-dashoffset:0;stroke-opacity:1;paint-order:fill markers stroke"
               d="m -162.36885,-227.04926 v 4.09257 c 0,0 2.44823,-0.51157 3.30694,0.21924 v -3.61753 c 0,0 -0.26075,-1.5105 -3.30694,-0.69428 z"
               id="path2668"
               inkscape:connector-curvature="0" />
            <path
               style="opacity:1;fill:#ffffff;fill-opacity:1;fill-rule:nonzero;stroke:#836b3d;stroke-width:0.1;stroke-linecap:round;stroke-linejoin:round;stroke-miterlimit:4;stroke-dasharray:none;stroke-dashoffset:0;stroke-opacity:1;paint-order:fill markers stroke"
               d="m -162.38027,-222.72281 -0.45217,0.65888 3.29881,-0.21963 0.52525,0.23255 c 0.25153,-0.30743 -0.0664,-1.21791 -3.37189,-0.6718 z"
               id="path2670"
               inkscape:connector-curvature="0"
               sodipodi:nodetypes="ccccc" />
            <path
               style="opacity:1;fill:#ffffff;fill-opacity:1;fill-rule:nonzero;stroke:#836b3d;stroke-width:0.1;stroke-linecap:round;stroke-linejoin:round;stroke-miterlimit:4;stroke-dasharray:none;stroke-dashoffset:0;stroke-opacity:1;paint-order:fill markers stroke"
               d="m -162.66449,-226.71481 -0.37465,0.52968 0.0258,3.82406 0.40049,-0.56844 z"
               id="path2672"
               inkscape:connector-curvature="0" />
            <path
               style="opacity:1;fill:#ffffff;fill-opacity:1;fill-rule:nonzero;stroke:#836b3d;stroke-width:0.377953;stroke-linecap:round;stroke-linejoin:round;stroke-miterlimit:4;stroke-dasharray:none;stroke-dashoffset:0;stroke-opacity:1;paint-order:fill markers stroke"
               d="m -618.45703,769.13867 v 18.31055 l 14.94141,-0.78125 c 0.76142,0.63742 1.76654,0.81775 2.7832,0.97656 l 0.0488,0.0312 c 0.10848,0.0252 0.0749,-0.0582 0.19726,-0.0312 1.01666,-0.15881 2.02178,-0.33914 2.78321,-0.97656 l 14.9414,0.78125 v -18.31055 h -1.36719 l 0.39063,0.39063 -0.14649,17.28515 -14.25781,-0.78125 c -0.56439,0.6618 -2.43408,0.861 -2.34375,0.78125 -0.0925,0.003 -0.15683,0.008 -0.24609,0.0117 v -0.0117 c 0.0903,0.0797 -1.77936,-0.11945 -2.34375,-0.78125 l -14.25781,0.78125 -0.14649,-17.28515 0.39063,-0.39063 z"
               transform="matrix(0.26458333,0,0,0.26458333,0,-429.90601)"
               id="path2674"
               inkscape:connector-curvature="0"
               sodipodi:nodetypes="ccccccccccccccccccccc" />
            <path
               style="opacity:1;fill:#ffffff;fill-opacity:1;fill-rule:nonzero;stroke:#836b3d;stroke-width:0.1;stroke-linecap:round;stroke-linejoin:round;stroke-miterlimit:4;stroke-dasharray:none;stroke-dashoffset:0;stroke-opacity:1;paint-order:fill markers stroke"
               d="m -155.45348,-227.04926 v 4.09257 c 0,0 -2.44823,-0.51157 -3.30694,0.21924 v -3.61753 c 0,0 0.26075,-1.5105 3.30694,-0.69428 z"
               id="path2676"
               inkscape:connector-curvature="0" />
            <path
               style="opacity:1;fill:#ffffff;fill-opacity:1;fill-rule:nonzero;stroke:#836b3d;stroke-width:0.1;stroke-linecap:round;stroke-linejoin:round;stroke-miterlimit:4;stroke-dasharray:none;stroke-dashoffset:0;stroke-opacity:1;paint-order:fill markers stroke"
               d="m -155.44206,-222.72281 0.45217,0.65888 -3.29881,-0.21963 -0.52525,0.23255 c -0.25153,-0.30743 0.0664,-1.21791 3.37189,-0.6718 z"
               id="path2678"
               inkscape:connector-curvature="0"
               sodipodi:nodetypes="ccccc" />
            <path
               style="opacity:1;fill:#ffffff;fill-opacity:1;fill-rule:nonzero;stroke:#836b3d;stroke-width:0.1;stroke-linecap:round;stroke-linejoin:round;stroke-miterlimit:4;stroke-dasharray:none;stroke-dashoffset:0;stroke-opacity:1;paint-order:fill markers stroke"
               d="m -155.15784,-226.71481 0.37465,0.52968 -0.0258,3.82406 -0.40049,-0.56844 z"
               id="path2680"
               inkscape:connector-curvature="0" />
          </g>
          <g
             transform="translate(-34.146662,-38.019982)"
             id="g2691">
            <path
               transform="matrix(0.26458333,0,0,0.26458333,0,-429.90601)"
               inkscape:connector-curvature="0"
               style="fill:#0a15ee;fill-opacity:1;stroke-width:0.171899"
               d="m -470.72852,856.32031 -0.64062,2.79297 c -0.35305,1.53634 -0.7884,3.41012 -0.9668,4.16406 -0.17839,0.75398 -0.29781,1.39555 -0.26758,1.42578 0.0307,0.0306 0.38806,0.0729 0.79493,0.0918 0.6912,0.0323 0.74794,-5.3e-4 0.86132,-0.48242 0.0668,-0.28365 0.3162,-1.3917 0.55469,-2.46289 0.45971,-2.06684 0.55163,-2.30453 0.69336,-1.80469 0.0489,0.17258 0.37589,1.37777 0.72852,2.67774 l 0.64258,2.36328 h 0.72265 0.72461 l 0.99609,-2.57813 c 0.54834,-1.41819 1.01639,-2.55783 1.03907,-2.53515 0.0223,0.0237 0.16976,1.12559 0.32812,2.44922 0.15836,1.32362 0.31572,2.50279 0.35352,2.62109 h 0.002 c 0.0402,0.1285 0.36645,0.21484 0.81641,0.21484 h 0.75 l -0.13868,-1.01953 c -0.0768,-0.56096 -0.2596,-2.24291 -0.40624,-3.73828 -0.39255,-3.99825 -0.3297,-3.78977 -1.17579,-3.88086 -0.39299,-0.0423 -0.76091,-0.0294 -0.81836,0.0273 -0.0576,0.0568 -0.59603,1.36186 -1.19531,2.9004 -0.59924,1.53853 -1.13919,2.69831 -1.20117,2.57812 -0.0618,-0.12038 -0.44719,-1.47538 -0.85742,-3.01172 l -0.7461,-2.79297 h -0.79687 z m -7.125,0.17188 c -0.77185,0 -0.825,0.0309 -0.98828,0.55859 -0.095,0.30728 -0.71999,2.23809 -1.38867,4.29102 -0.66863,2.05292 -1.2168,3.80571 -1.2168,3.89453 0,0.17008 1.37958,0.057 1.57422,-0.12891 0.062,-0.059 0.22817,-0.45543 0.36914,-0.88086 l 0.25586,-0.77344 1.76172,-0.0859 1.76172,-0.084 0.33008,0.76953 c 0.18126,0.42358 0.39688,0.81106 0.47851,0.86133 0.0816,0.0491 0.49033,0.0653 0.91016,0.0312 l 0.76367,-0.0625 -0.42773,-0.88672 c -0.23539,-0.48782 -0.87391,-1.89203 -1.41797,-3.12109 -0.54406,-1.22906 -1.20494,-2.7177 -1.46875,-3.30859 l -0.47852,-1.07422 z m 17.60352,0.82031 -0.10938,0.83594 c -0.13874,1.07248 -0.9401,6.32177 -1.07617,7.04687 -0.095,0.50657 -0.0638,0.5581 0.38477,0.625 1.25956,0.18845 1.08424,0.53468 1.68359,-3.3125 0.2431,-1.55996 0.51716,-3.29639 0.60938,-3.85742 0.0921,-0.56103 0.13457,-1.05293 0.0937,-1.09375 -0.0409,-0.0408 -0.41437,-0.11329 -0.83008,-0.16016 z m -25.37109,0.21484 -0.70703,0.10547 c -0.38846,0.0586 -0.77062,0.1649 -0.84961,0.23633 -0.11388,0.10326 0.93565,7.3164 1.19531,8.2168 0.0359,0.12434 0.20126,0.18667 0.36719,0.13867 0.16592,-0.048 0.91942,-0.17309 1.67578,-0.2793 1.80986,-0.25375 1.95317,-0.30267 1.88476,-0.65039 -0.25478,-1.29664 -0.13257,-1.20158 -1.28711,-1.01562 -0.61523,0.10015 -1.10277,0.10633 -1.18554,0.0156 -0.14684,-0.16078 -0.80076,-3.96539 -0.98633,-5.74219 z m -5.85547,1.02735 c -1.73893,0 -3.02014,1.8904 -2.18555,3.22461 0.34526,0.55188 1.56893,1.43234 2.78125,2.00195 0.76093,0.35754 1.35547,0.89302 1.35547,1.2207 0,0.36477 -0.69822,0.94532 -1.13672,0.94532 -0.21127,0 -0.61043,-0.19139 -0.88672,-0.42383 l -0.50195,-0.42188 -0.54492,0.5625 -0.54492,0.5625 0.38867,0.36328 c 0.21407,0.20055 0.6224,0.49146 0.90625,0.64454 v -0.002 c 0.63261,0.34182 1.91415,0.24397 2.68359,-0.20508 0.59312,-0.34616 1.18359,-1.35806 1.18359,-2.02734 0,-1.2107 -0.77588,-2.01558 -3.04492,-3.1582 -1.22298,-0.6158 -1.56936,-1.05755 -1.15429,-1.47266 0.34994,-0.34809 0.92325,-0.34066 1.4375,0.0195 0.39583,0.27746 0.4225,0.27011 0.81054,-0.21484 0.22088,-0.27595 0.40182,-0.59157 0.40235,-0.70117 10e-4,-0.2713 -1.37164,-0.91797 -1.94922,-0.91797 z m 38.38281,0.15625 c -2.29227,-0.0486 -4.17222,1.51016 -4.54883,4.02148 -0.28301,1.88723 1.11516,4.08839 2.95703,4.6543 1.29079,0.39643 2.57185,0.34366 3.62891,-0.14844 l 0.9082,-0.42383 -0.35351,-0.6914 c -0.19435,-0.38087 -0.39265,-0.69336 -0.44141,-0.69336 -0.0487,0 -0.27436,0.12175 -0.5,0.26953 -0.22571,0.14816 -0.82247,0.30829 -1.32617,0.35742 -0.74994,0.0734 -1.05601,0.0152 -1.68945,-0.32422 -1.05052,-0.56258 -1.54688,-1.33183 -1.54688,-2.39648 0,-1.11814 0.34461,-1.88395 1.11133,-2.46875 1.27627,-0.97346 3.17769,-0.6958 4.28906,0.625 l 0.46094,0.54492 0.59375,-0.31836 c 0.3264,-0.17582 0.59375,-0.43274 0.59375,-0.57031 0,-0.45037 -1.62528,-1.84123 -2.49805,-2.13867 -0.55942,-0.19061 -1.10968,-0.28762 -1.63867,-0.29883 z m -24.65234,0.17578 0.64648,1.30469 c 0.35539,0.71814 0.59973,1.37797 0.54492,1.46679 -0.11803,0.19238 -1.91723,0.22067 -2.02343,0.0332 -0.0401,-0.071 0.13021,-0.7307 0.3789,-1.4668 z m -19.26172,1.51758 c -0.16879,0.007 -0.36945,0.0927 -0.64453,0.19726 l -0.45508,0.17383 1.08594,3.14258 c 0.59693,1.72921 1.22035,3.55282 1.38476,4.05273 0.26359,0.80115 0.34104,0.89659 0.66797,0.79492 1.01178,-0.31498 1.18188,-0.42734 1.0957,-0.71874 -0.0483,-0.16377 -0.66571,-1.95949 -1.37304,-3.99219 -1.04066,-2.99061 -1.25536,-3.67279 -1.76172,-3.65039 z m 55.38086,2.27343 c -0.75096,0 -0.91275,0.0729 -1.5293,0.68946 -0.63352,0.63375 -0.68301,0.74765 -0.60742,1.41992 0.0453,0.40225 0.31614,1.23462 0.59961,1.84766 0.84843,1.8353 1.00941,2.37985 0.80078,2.71093 -0.37754,0.59955 -1.43825,0.46234 -1.75195,-0.22656 -0.11074,-0.24306 -0.20118,-0.59618 -0.20118,-0.78516 0,-0.30122 -0.079,-0.33043 -0.64453,-0.23632 -1.07747,0.17907 -1.05912,0.15952 -0.87695,0.97265 0.18542,0.82795 0.8285,1.61127 1.60742,1.95899 0.80795,0.36079 1.84349,0.29928 2.50781,-0.14844 1.2759,-0.85973 1.34622,-2.05955 0.26172,-4.4043 -0.8496,-1.83651 -0.85627,-2.2985 -0.0391,-2.21875 0.42255,0.0411 0.60104,0.18519 0.8418,0.67774 l 0.30468,0.625 0.72657,-0.22071 c 0.77355,-0.23542 0.79253,-0.30452 0.34375,-1.2539 -0.40233,-0.85119 -1.32944,-1.40821 -2.34375,-1.40821 z m -63.98438,1.20313 c -0.0482,0 -0.38282,0.1515 -0.74414,0.33594 l -0.65625,0.33593 1.82422,3.57422 c 1.00403,1.96653 1.88925,3.67272 1.96484,3.79102 0.076,0.11792 0.16968,0.21484 0.20899,0.21484 0.23671,0 3.3457,-1.78071 3.3457,-1.91601 0,-0.25629 -0.50897,-1.17926 -0.64844,-1.17578 -0.0685,0.002 -0.54491,0.23449 -1.05859,0.51757 -0.71316,0.39307 -0.96852,0.46438 -1.07812,0.29883 -0.079,-0.11939 -0.80273,-1.51208 -1.60743,-3.0957 -0.80466,-1.58362 -1.5024,-2.88086 -1.55078,-2.88086 z m 70.91992,2.84766 c -1.309,0.0144 -1.99745,0.31604 -3.05273,1.33398 -0.78735,0.75953 -1.41602,2.1364 -1.41602,3.09961 0,0.31019 0.11608,0.95298 0.25782,1.42969 0.29843,1.00497 1.51838,2.27116 2.71093,2.8125 0.48416,0.21997 1.11676,0.33149 1.89258,0.33398 1.30492,0.004 1.4396,-0.11288 1.19922,-1.04101 -0.14547,-0.56289 -0.16313,-0.57075 -1.01953,-0.52539 -1.38236,0.0734 -2.74122,-0.70559 -3.16211,-1.8125 -0.61954,-1.62959 0.36263,-3.54789 2.04883,-4.00196 1.44533,-0.38918 3.36403,0.82557 3.66601,2.32227 0.057,0.28346 0.18677,0.3249 0.83594,0.27539 0.42248,-0.0321 0.79814,-0.0872 0.83594,-0.125 0.15307,-0.1499 -0.55434,-1.63555 -1.12891,-2.37305 -0.87454,-1.12252 -2.19497,-1.74363 -3.66797,-1.72851 z m -76.75781,0.51367 c -0.17345,0.0209 -0.46244,0.14122 -0.74023,0.3164 l -0.67383,0.42383 0.4082,2.28906 c 0.22417,1.25874 0.58094,3.27503 0.79297,4.48047 0.21211,1.20545 0.40922,2.19141 0.43945,2.19141 0.0301,0 0.36222,-0.17393 0.73828,-0.38672 0.65726,-0.3719 0.67948,-0.41307 0.58008,-1.07422 -0.0567,-0.37818 -0.13735,-0.81133 -0.17968,-0.96289 -0.0551,-0.1971 0.32679,-0.51507 1.34375,-1.11719 0.78194,-0.46299 1.48212,-0.87015 1.55468,-0.90039 0.0725,-0.032 0.40373,0.1805 0.73633,0.47266 0.71448,0.62736 0.83985,0.64056 1.60547,0.17383 0.68757,-0.41919 0.74238,-0.3397 -1.29297,-1.91406 -0.76902,-0.59486 -2.20548,-1.70533 -3.1914,-2.46876 -0.98593,-0.76342 -1.88139,-1.44249 -1.99024,-1.50976 -0.0272,-0.0168 -0.073,-0.0206 -0.13086,-0.0137 z m 0.63281,2.55078 c 0.24173,-0.07 2.17601,1.28028 2.19727,1.56445 0.007,0.0946 -0.36716,0.3845 -0.83008,0.64453 -0.46292,0.25992 -0.87683,0.47266 -0.91992,0.47266 -0.0815,0 -0.47266,-2.19003 -0.47266,-2.64649 0,-0.018 0.009,-0.0305 0.0254,-0.0352 z m 83.85743,1.48242 c -0.0496,-0.003 -0.56316,0.55673 -1.14063,1.24219 -0.57744,0.68545 -1.65849,1.96549 -2.40234,2.8457 -2.25778,2.67148 -2.0884,2.32233 -1.41602,2.9336 0.31888,0.28977 0.61877,0.52615 0.66602,0.52343 0.0472,-0.003 0.57705,-0.62025 1.17773,-1.37109 0.60064,-0.75084 1.16837,-1.36524 1.26172,-1.36524 0.0933,0 0.60751,0.36445 1.14258,0.81055 0.53507,0.4461 1.00101,0.82876 1.03125,0.84766 0.0322,0.0194 -0.49116,0.67959 -1.16406,1.46679 l -1.22461,1.42969 0.52343,0.47266 c 0.28766,0.25992 0.5915,0.47265 0.67579,0.47265 0.0842,0 0.48847,-0.40597 0.89843,-0.90234 0.82088,-0.9939 2.47073,-2.93969 3.78321,-4.46484 l 0.8457,-0.98438 -0.56445,-0.51562 c -0.31098,-0.28283 -0.608,-0.51482 -0.66016,-0.51758 -0.052,-0.003 -0.54171,0.53722 -1.08789,1.20117 l -0.99219,1.20703 -0.63281,-0.51758 c -0.34719,-0.28482 -0.85489,-0.70493 -1.12891,-0.93359 l -0.49804,-0.41602 0.92773,-1.08984 c 0.5105,-0.59973 0.99655,-1.14032 1.08008,-1.20117 0.13334,-0.0968 -0.86497,-1.15871 -1.10156,-1.17383 z m -92.0254,1.20508 c -0.10677,0.003 -0.42022,0.19157 -0.69726,0.41797 -0.37493,0.30659 -0.45921,0.46972 -0.32617,0.63867 0.20402,0.25931 1.29764,1.61537 3.54101,4.39453 0.8586,1.06364 1.61758,1.93359 1.6875,1.93359 0.0699,0 0.65674,-0.43247 1.30274,-0.96289 0.64599,-0.53038 1.32047,-1.06869 1.5,-1.19531 0.31408,-0.22129 0.30704,-0.2515 -0.18555,-0.8125 l -0.51172,-0.58398 -0.82422,0.66015 c -0.45263,0.36325 -0.88667,0.66016 -0.96679,0.66016 -0.15379,0 -0.9847,-0.96857 -3.0586,-3.56836 -0.69683,-0.87352 -1.35435,-1.58543 -1.46094,-1.58203 z m -2.73046,4.14453 c -1.50836,-0.1441 -3.04032,0.51047 -4.03516,1.90039 -1.6224,2.26666 -0.58671,5.60991 2.07227,6.68945 2.06664,0.83906 4.36467,-0.006 5.55859,-2.04296 0.41941,-0.71381 0.49991,-0.77028 1.00976,-0.6875 0.47075,0.0764 0.64635,-0.007 1.17579,-0.54883 0.34257,-0.35074 0.62304,-0.68153 0.62304,-0.73633 0,-0.0548 -0.54133,-0.15337 -1.20312,-0.21875 -1.17305,-0.11569 -1.20313,-0.12964 -1.20313,-0.59766 0,-0.6432 -0.75379,-2.02491 -1.42968,-2.62109 -0.76648,-0.67614 -1.66335,-1.05026 -2.56836,-1.13672 z m -0.38086,1.57812 c 0.6136,0.0226 1.24197,0.25995 1.79882,0.72852 0.49441,0.41601 1.03321,1.23148 1.03321,1.56445 0,0.0816 -0.27817,0.11391 -0.61719,0.0742 -0.53068,-0.0619 -0.71111,0.021 -1.29883,0.59375 l -0.68164,0.66406 0.48242,0.10938 c 0.26533,0.0597 0.81109,0.11757 1.21289,0.12891 0.40177,0.0113 0.73047,0.0924 0.73047,0.17968 0,0.32005 -0.94492,1.26819 -1.49023,1.4961 -2.36893,0.98978 -4.8917,-1.6763 -3.72852,-3.94141 0.55264,-1.07622 1.53592,-1.63523 2.5586,-1.59766 z m 101.64453,0.47071 c -1.06114,-0.0369 -2.13939,0.33764 -3.06836,1.13281 -2.41433,2.06653 -1.94151,5.91975 0.90039,7.33594 2.15898,1.07584 4.80321,0.18656 5.9043,-1.98633 0.9366,-1.8483 0.65535,-3.70789 -0.77539,-5.13867 -0.8573,-0.85731 -1.89981,-1.30684 -2.96094,-1.34375 z m -0.10547,1.69336 c 2.83468,0 3.79486,3.50721 1.4082,5.14258 -0.67128,0.45996 -1.97316,0.63112 -2.64648,0.34765 -1.59201,-0.67011 -2.21198,-2.88983 -1.19336,-4.26758 0.63983,-0.86524 1.35115,-1.22265 2.43164,-1.22265 z m -108.91602,3.24023 c -0.10582,-0.061 -0.39193,0.17591 -0.64062,0.5293 l -0.45117,0.63867 1.79883,1.36328 c 0.98959,0.74907 2.50791,1.88194 3.37304,2.51758 0.86514,0.63564 1.61663,1.15762 1.66992,1.16016 0.13013,0.006 0.84936,-0.97723 0.8418,-1.14844 -0.006,-0.11445 -6.0184,-4.73022 -6.5918,-5.06055 z m -2.41015,2.82227 -0.75586,1.30859 c -0.41594,0.72034 -0.94441,1.63956 -1.17383,2.04102 l -0.41797,0.73047 0.56445,0.34375 c 0.69377,0.423 0.94036,0.43192 1.07227,0.043 0.0563,-0.16543 0.21065,-0.44093 0.3418,-0.61328 0.22828,-0.30005 0.26443,-0.29503 0.89648,0.10352 0.3628,0.22877 1.24014,0.74922 1.94922,1.1582 0.70908,0.40895 1.71148,1.00195 2.22852,1.31641 h 0.002 c 0.51704,0.31445 0.9985,0.57031 1.07031,0.57031 0.0719,0 0.28444,-0.30104 0.47266,-0.66992 0.26305,-0.51576 0.2942,-0.70806 0.13281,-0.83203 -0.11539,-0.0886 -1.46791,-0.88061 -3.00391,-1.75977 l -2.79101,-1.59765 0.3418,-0.55469 c 0.45686,-0.73947 0.44261,-0.80138 -0.29493,-1.22461 z m 117.77734,1.22265 c -0.31682,-0.0138 -0.63808,0.0107 -0.96094,0.0781 -2.23797,0.4673 -3.82893,2.34805 -3.79492,4.48242 0.0267,1.61223 0.98242,3.14478 2.41406,3.87109 0.81918,0.41435 1.07072,0.46238 2.21289,0.4004 1.44926,-0.0785 2.02304,-0.3208 2.98633,-1.25782 0.90486,-0.88014 1.30411,-1.81959 1.30664,-3.08203 0.005,-2.41467 -1.9463,-4.39571 -4.16406,-4.49219 z m -0.44531,1.66993 c 0.79091,-0.0536 1.59969,0.16816 2.05859,0.60546 1.39193,1.32658 1.23537,3.51276 -0.32422,4.52344 -0.65945,0.42629 -1.88754,0.61708 -2.54492,0.39258 -1.32465,-0.45199 -2.14501,-2.0381 -1.76562,-3.41211 0.2211,-0.80077 1.06412,-1.7164 1.80468,-1.96094 0.24611,-0.0812 0.50785,-0.13056 0.77149,-0.14843 z m -119.41016,3.12304 c -0.0187,-0.0249 -0.2975,0.0639 -0.61914,0.19922 -0.61478,0.25852 -1.35622,0.96229 -1.68164,1.5957 -0.5094,0.99156 0.0468,2.46212 1.0957,2.90039 0.87013,0.36356 1.16049,0.32008 2.91211,-0.45117 1.90436,-0.83826 2.72986,-0.87538 2.81641,-0.125 0.0807,0.69933 -0.2415,1.13311 -1.00977,1.36328 -0.47829,0.14332 -0.66386,0.28374 -0.59961,0.45118 0.051,0.13341 0.0938,0.47523 0.0938,0.76171 -10e-6,0.5079 0.0159,0.51914 0.63867,0.40235 2.56376,-0.48095 3.50393,-3.32993 1.5625,-4.73633 -0.98189,-0.71142 -1.68942,-0.6746 -3.65625,0.19141 -1.72419,0.75904 -2.37943,0.81552 -2.46485,0.21484 -0.0611,-0.42871 0.56291,-1.08984 1.0293,-1.08984 0.17121,0 0.3125,-0.10468 0.3125,-0.23243 0,-0.19997 -0.3318,-1.31529 -0.42969,-1.44531 z m 126.44727,4.10352 -0.9961,0.39844 c -3.93218,1.5699 -6.68884,2.71461 -6.79882,2.82421 -0.0713,0.0709 0.18845,0.91686 0.57812,1.88086 0.38967,0.96401 0.76803,1.75391 0.83985,1.75391 0.0718,0 0.40625,-0.11646 0.74414,-0.25781 l 0.61523,-0.25586 -0.25781,-0.64649 c -0.14158,-0.35516 -0.34302,-0.81846 -0.44922,-1.03125 -0.10621,-0.21256 -0.13872,-0.44331 -0.0703,-0.51172 0.0686,-0.0685 1.49518,-0.67554 3.16797,-1.34765 3.26887,-1.31335 3.21317,-1.26568 2.79882,-2.35547 z m -130.32617,2.34375 c -0.17016,0.1923 -0.5187,1.29185 -0.43555,1.375 0.0395,0.0395 1.80034,0.63774 3.91211,1.33008 2.11177,0.69233 3.92416,1.26783 4.02734,1.27539 0.17772,0.0158 0.68029,-1.32166 0.54688,-1.45508 -0.19903,-0.19903 -7.9563,-2.63235 -8.05078,-2.52539 z"
               id="path2685" />
            <path
               style="fill:#000000;stroke-width:0.0454815"
               d="m -111.47022,-185.35195 c -0.0841,0.008 -0.16129,0.0456 -0.2005,0.11886 -0.0721,0.13466 -0.009,0.18442 0.13797,0.10852 0.11549,-0.0601 0.13587,-0.0592 0.19017,0.006 0.0521,0.0628 0.0458,0.0832 -0.0413,0.14107 -0.13367,0.0888 -0.12823,0.16602 0.0155,0.23152 0.16255,0.0741 0.13785,0.2511 -0.0377,0.2713 -0.0818,0.009 -0.13465,-0.0103 -0.15244,-0.0568 -0.0349,-0.0909 -0.19999,-0.0936 -0.19999,-0.003 0,0.0375 0.0415,0.10917 0.0915,0.15917 v 5.1e-4 c 0.0563,0.0563 0.15162,0.0909 0.25012,0.0909 0.28458,0 0.44853,-0.30629 0.26975,-0.50384 -0.0579,-0.064 -0.0608,-0.0956 -0.016,-0.16743 0.0299,-0.0486 0.0425,-0.13903 0.0269,-0.20103 -0.0342,-0.13641 -0.1937,-0.2086 -0.33383,-0.19585 z m -1.56218,0.003 c -0.13364,-0.003 -0.26522,0.0741 -0.31884,0.20361 -0.0784,0.18935 -0.0377,0.65245 0.0677,0.76895 0.12195,0.13476 0.40895,0.12721 0.50075,-0.0129 0.17942,-0.27383 0.10973,-0.8188 -0.11834,-0.92811 -0.0421,-0.0202 -0.0867,-0.0304 -0.13126,-0.0315 z m -0.80977,0.008 c -0.0957,2.2e-4 -0.19464,0.0374 -0.26561,0.11989 -0.13643,0.15841 -0.13443,0.2098 0.007,0.2098 0.0669,0 0.11369,-0.0263 0.11369,-0.0636 0,-0.0875 0.13452,-0.13111 0.21032,-0.0682 0.11246,0.0933 0.0664,0.2135 -0.18758,0.48782 -0.13758,0.1486 -0.25012,0.29301 -0.25012,0.32091 0,0.0329 0.12028,0.0506 0.34107,0.0506 0.31081,0 0.34158,-0.008 0.34158,-0.0909 0,-0.0737 -0.0308,-0.091 -0.15968,-0.091 -0.1829,0 -0.19881,-0.0409 -0.0636,-0.16329 0.12585,-0.11391 0.22272,-0.30587 0.22272,-0.44132 0,-0.16849 -0.15063,-0.27115 -0.31006,-0.27078 z m 1.52343,0.0186 c -0.0581,0.005 -0.0928,0.0295 -0.12041,0.0811 -0.0429,0.0802 -0.0369,0.0935 0.0424,0.0935 0.0866,0 0.0925,0.0277 0.0925,0.43511 0,0.42155 0.003,0.43475 0.0992,0.42065 0.0953,-0.014 0.0996,-0.0333 0.0946,-0.5147 l -0.005,-0.50023 -0.13642,-0.0139 c -0.0251,-0.003 -0.0473,-0.003 -0.0667,-0.002 z m -0.69815,0.15245 c 0.0235,0.006 0.0465,0.0186 0.0677,0.0398 0.0695,0.0696 0.0952,0.51558 0.0351,0.61288 -0.0505,0.0818 -0.2011,0.0602 -0.2527,-0.0362 -0.0516,-0.0965 -0.0608,-0.33336 -0.0191,-0.48886 0.0259,-0.0965 0.0985,-0.14504 0.16898,-0.12764 z"
               id="path2687"
               inkscape:connector-curvature="0" />
            <path
               style="fill:#000000;stroke-width:0.0454815"
               d="m -139.33686,-185.26956 c -0.0907,0 -0.0909,0.26708 -5.1e-4,0.41549 0.0512,0.0841 0.10615,0.25011 0.12195,0.36845 0.0381,0.28555 0.10801,0.23054 0.10801,-0.0847 0,-0.2434 -0.14965,-0.69919 -0.22945,-0.69919 z m 1.2175,0.01 c -0.0121,-0.001 -0.0359,0.0198 -0.0832,0.0625 -0.0527,0.0477 -0.13795,0.14609 -0.18965,0.21859 l -0.0941,0.1323 0.10232,0.0827 c 0.0957,0.0775 0.0975,0.0893 0.0305,0.185 -0.0985,0.14061 -0.0901,0.21453 0.0305,0.26303 l 5.2e-4,-5.1e-4 c 0.16787,0.0675 0.25327,0.0527 0.28577,-0.0496 0.031,-0.0975 -0.034,-0.1747 -0.14934,-0.1757 -0.083,-0.001 -0.0704,-0.0626 0.0434,-0.20723 0.0558,-0.0704 0.081,-0.13514 0.0568,-0.14314 -0.0241,-0.008 -0.0741,-0.0359 -0.11162,-0.061 -0.0595,-0.0398 -0.058,-0.0516 0.0114,-0.0925 0.0438,-0.0258 0.0796,-0.0899 0.0796,-0.14262 0,-0.0472 -7.7e-4,-0.0707 -0.0129,-0.0718 z m 0.65474,0.003 c -0.0131,0.007 -0.0268,0.0372 -0.0486,0.0946 -0.0406,0.10684 -0.0334,0.15527 0.0388,0.27285 0.0484,0.0786 0.10122,0.22498 0.11782,0.32504 0.0165,0.10006 0.0435,0.21262 0.06,0.25012 0.0165,0.0375 0.0364,-0.0644 0.0444,-0.22635 0.0152,-0.31051 0.0593,-0.37721 0.22169,-0.33641 0.11742,0.0295 0.19879,-0.092 0.19379,-0.28732 -0.002,-0.0704 -0.0143,-0.10261 -0.0269,-0.0713 -0.0126,0.0313 -0.0622,0.0574 -0.11007,0.0574 -0.0479,0 -0.0876,-0.0261 -0.0884,-0.0574 -9e-4,-0.0348 -0.0251,-0.0259 -0.062,0.0227 -0.0332,0.0438 -0.10325,0.0796 -0.15555,0.0796 -0.0523,0 -0.11502,-0.0358 -0.13952,-0.0796 -0.0196,-0.0352 -0.0324,-0.0509 -0.0455,-0.0439 z m 1.31672,0.12402 c -0.10972,0 -0.22537,0.16332 -0.27647,0.38964 -0.0301,0.13322 -0.0206,0.18045 0.0501,0.25115 0.1026,0.1026 0.0824,0.0999 0.26355,0.0367 0.14193,-0.0495 0.27802,-0.23682 0.27802,-0.38189 0,-0.10275 -0.20572,-0.29559 -0.31522,-0.29559 z m -0.11163,0.24546 c 0.0873,0.004 0.29043,0.11157 0.29043,0.16485 0,0.0456 -0.20566,0.0554 -0.30696,0.0145 -0.0674,-0.0272 -0.0755,-0.13493 -0.0129,-0.17363 0.007,-0.004 0.017,-0.006 0.0294,-0.006 z"
               id="path2689"
               inkscape:connector-curvature="0" />
          </g>
        </g>
      </g>
      <g
         id="g77738"
         clip-path="url(#clipPath77742)">
        <rect
           style="opacity:1;fill:url(#linearGradient74229);fill-opacity:1;stroke-width:6.33444;stroke-linecap:square"
           id="rect74191"
           width="172.20879"
           height="89.88459"
           x="-59.223881"
           y="253.56842"
           ry="1.9848431" />
        <rect
           style="opacity:0.25;fill:url(#linearGradient74587);fill-opacity:1;stroke-width:5.19313;stroke-linecap:square"
           id="rect74585"
           width="115.74383"
           height="89.88459"
           x="138.72395"
           y="-440.45923"
           ry="1.9848431"
           transform="scale(1,-1)" />
        <rect
           style="opacity:1;fill:url(#linearGradient77589);fill-opacity:1;stroke-width:3.64015;stroke-linecap:square"
           id="rect74700"
           width="115.74392"
           height="11.368134"
           x="8.6378613"
           y="-380.45963"
           ry="3.3483057"
           transform="scale(1,-1)" />
      </g>
      <g
         id="g74694"
         clip-path="url(#clipPath74696)"
         transform="matrix(1.0157068,0,0,1.0157068,-109.92223,-19.369584)">
        <image
           width="218.04356"
           height="122.6495"
           preserveAspectRatio="none"
           xlink:href="20210827_134328.jpg"
           id="image74581"
           x="99.62606"
           y="198.52034" />
      </g>
      <g
         id="g78279"
         clip-path="url(#clipPath80594)"
         transform="matrix(1.1161826,0,0,1.1161826,15.783324,6.257475)">
        <image
           width="126.01139"
           height="70.881416"
           preserveAspectRatio="none"
           xlink:href="20210827_143124.jpg"
           id="image78137"
           x="91.553764"
           y="203.35239"
           transform="rotate(-3.4220265)" />
      </g>
      <g
         id="g80612"
         clip-path="url(#clipPath80614)"
         transform="translate(0,-9.504)">
        <image
           width="170.52391"
           height="95.919701"
           preserveAspectRatio="none"
           xlink:href="20210827_140300.jpg"
           id="image80580"
           x="118.80566"
           y="165.3343" />
      </g>
      <g
         id="g104407"
         transform="translate(0,-0.30314931)">
        <text
           xml:space="preserve"
           style="font-size:10.5833px;line-height:1.05;font-family:sans-serif;white-space:pre;inline-size:260.206;opacity:1;fill:#ffffff;stroke-width:0.264583"
           x="-93.851997"
           y="92.663994"
           id="text39313-6"
           transform="matrix(0.64758776,0,0,0.64758776,224.12255,112.7886)"><tspan
             x="-93.851997"
             y="92.663994"
             id="tspan108333"><tspan
               style="font-family:Aleo;-inkscape-font-specification:Aleo"
               id="tspan108331">Jum'at, 18 Muharram 1443 H</tspan></tspan></text>
        <text
           xml:space="preserve"
           style="font-size:10.5833px;line-height:1.05;font-family:sans-serif;white-space:pre;inline-size:260.206;opacity:1;fill:#ffffff;stroke-width:0.264583"
           x="-93.851997"
           y="92.663994"
           id="text102101"
           transform="matrix(0.64758776,0,0,0.64758776,262.05717,120.97494)"><tspan
             x="-93.851997"
             y="92.663994"
             id="tspan108337"><tspan
               style="font-family:Aleo;-inkscape-font-specification:Aleo"
               id="tspan108335">27 Agustus 2021</tspan></tspan></text>
      </g>
    </g>
  </g>
</svg>
