<?xml version="1.0" encoding="UTF-8" standalone="no"?>
<!-- Created with Inkscape (http://www.inkscape.org/) -->

<svg
   width="210mm"
   height="297mm"
   viewBox="0 0 210 297"
   version="1.1"
   id="svg5"
   xml:space="preserve"
   inkscape:version="1.2.2 (732a01da63, 2022-12-09)"
   sodipodi:docname="Mockup.svg"
   xmlns:inkscape="http://www.inkscape.org/namespaces/inkscape"
   xmlns:sodipodi="http://sodipodi.sourceforge.net/DTD/sodipodi-0.dtd"
   xmlns:xlink="http://www.w3.org/1999/xlink"
   xmlns="http://www.w3.org/2000/svg"
   xmlns:svg="http://www.w3.org/2000/svg"><sodipodi:namedview
     id="namedview7"
     pagecolor="#ffffff"
     bordercolor="#666666"
     borderopacity="1.0"
     inkscape:showpageshadow="2"
     inkscape:pageopacity="0.0"
     inkscape:pagecheckerboard="0"
     inkscape:deskcolor="#d1d1d1"
     inkscape:document-units="mm"
     showgrid="false"
     inkscape:zoom="0.65989765"
     inkscape:cx="-1984.3986"
     inkscape:cy="959.23966"
     inkscape:window-width="1366"
     inkscape:window-height="715"
     inkscape:window-x="-8"
     inkscape:window-y="-8"
     inkscape:window-maximized="1"
     inkscape:current-layer="layer1"
     showguides="false"><sodipodi:guide
       position="-460.4229,100.24292"
       orientation="0,-1"
       id="guide82927"
       inkscape:locked="false" /><sodipodi:guide
       position="-431.50473,11.220261"
       orientation="0,-1"
       id="guide82929"
       inkscape:locked="false" /><sodipodi:guide
       position="-504.0837,17.457517"
       orientation="1,0"
       id="guide82933"
       inkscape:locked="false" /><sodipodi:guide
       position="-441.14411,35.03524"
       orientation="1,0"
       id="guide82935"
       inkscape:locked="false" /></sodipodi:namedview><defs
     id="defs2"><linearGradient
       inkscape:collect="always"
       id="linearGradient84134"><stop
         style="stop-color:#ff6600;stop-opacity:1"
         offset="0"
         id="stop84132" /><stop
         style="stop-color:#ffffff;stop-opacity:1;"
         offset="1"
         id="stop84130" /></linearGradient><filter
       inkscape:collect="always"
       style="color-interpolation-filters:sRGB"
       id="filter2087"
       x="-0.51095507"
       y="-0.26219225"
       width="2.0219101"
       height="1.5243845"><feGaussianBlur
         inkscape:collect="always"
         stdDeviation="7.0284672"
         id="feGaussianBlur2089" /></filter><filter
       inkscape:collect="always"
       style="color-interpolation-filters:sRGB"
       id="filter2534"
       x="-0.8284442"
       y="-0.207111"
       width="2.6568884"
       height="1.414222"><feGaussianBlur
         inkscape:collect="always"
         stdDeviation="3.5450819"
         id="feGaussianBlur2536" /></filter><filter
       inkscape:collect="always"
       style="color-interpolation-filters:sRGB"
       id="filter2816"
       x="-0.67684108"
       y="-0.18862889"
       width="2.3536822"
       height="1.3772578"><feGaussianBlur
         inkscape:collect="always"
         stdDeviation="4.6995972"
         id="feGaussianBlur2818" /></filter><filter
       inkscape:collect="always"
       style="color-interpolation-filters:sRGB"
       id="filter2936"
       x="-0.95142162"
       y="-0.27087425"
       width="2.9028432"
       height="1.5417485"><feGaussianBlur
         inkscape:collect="always"
         stdDeviation="5.7216988"
         id="feGaussianBlur2938" /></filter><clipPath
       clipPathUnits="userSpaceOnUse"
       id="clipPath6070"><path
         style="mix-blend-mode:overlay;fill:#ff0046;fill-opacity:1;stroke:none;stroke-width:0.0236321px;stroke-linecap:butt;stroke-linejoin:miter;stroke-opacity:1"
         d="m -743.11304,242.7395 c 0,0 1.89153,0.7287 1.99275,0.75906 0.10122,0.0304 1.30952,0.46758 1.50563,0.32184 0,0 -0.10159,1.02016 -0.0479,1.21768 0.0537,0.19752 -0.13419,1.58873 -0.13419,1.58873 l -0.21011,2.45233 c 0,0 -0.0759,0.95944 0,1.14161 0,0 0.0759,1.1902 0.16448,1.33594 0,0 0.41753,0.47365 0.41753,0.76513 l -0.0126,-0.17003 c 0,0 0.26701,0.15151 1.57321,0.10858 1.3062,-0.0429 2.48715,0.11164 2.57661,0.11164 0.0895,0 2.43347,-0.2834 2.90764,-0.32634 0.47416,-0.0429 1.78037,-0.33492 1.78037,-0.33492 0,0 0.16103,-0.57538 0.3847,-0.72137 0,0 0.0895,-0.0902 0.0895,-0.21899 0,-0.12881 -0.1342,-0.9103 -0.1342,-0.9103 0,0 -0.009,-0.10734 0.009,-0.16746 0.0179,-0.0601 0.0358,-0.77719 -0.004,-1.01764 -0.0403,-0.24046 0.0447,-0.33922 0.0447,-0.33922 0,0 -0.30865,-1.59732 -0.3176,-1.66602 -0.009,-0.0687 -0.1342,-0.85877 -0.1342,-0.85877 0,0 -0.0268,-0.53244 -0.0626,-0.65267 -0.0358,-0.12023 -0.1342,-0.64408 -0.1342,-0.64408 l 0.16104,-1.57156 c 0,0 1.18094,-0.32633 1.40461,-0.42938 l -0.006,0.15031 1.20516,-0.47665 c 0,0 0.31313,-0.18034 0.43838,-0.15458 l -1.43145,-3.69272 c 0,0 -0.41154,-1.03912 -0.59047,-1.21087 l 0.0134,-0.0344 -0.67547,-0.53244 c 0,0 -0.3847,-0.2834 -1.44934,-0.73855 0,0 -0.88572,-0.36068 -1.0557,-0.45515 0,0 -0.19682,-0.0515 -0.35786,-0.12022 -0.16104,-0.0687 -0.33997,-0.11165 -0.42049,-0.2147 0,0 -0.1342,-0.0945 -0.29524,-0.0429 0,0 0.33102,0.12882 0.25945,0.3521 -0.0716,0.22328 -0.20577,0.56679 -1.19884,1.01335 0,0 -0.87676,0.27481 -1.91457,-0.18893 0,0 -0.55468,-0.16316 -0.73361,-0.64408 0,0 -0.0269,-0.0945 0.15209,-0.22328 0.17893,-0.12881 -0.0716,-0.0687 -0.0716,-0.0687 l -0.16103,0.0344 c 0,0 -0.28629,0.31775 -0.67995,0.48091 -0.39364,0.16317 -1.70879,0.80725 -2.08455,1.06488 -0.37575,0.25763 -0.58152,0.52385 -0.58152,0.52385 l -0.32208,0.44657 v 0.0687 c 0,0 -0.27735,0.51526 -0.5368,1.33968 -0.25945,0.82443 -0.76046,2.20705 -0.76046,2.20705 z"
         id="path6072" /></clipPath><linearGradient
       inkscape:collect="always"
       xlink:href="#linearGradient84134"
       id="linearGradient85506"
       gradientUnits="userSpaceOnUse"
       gradientTransform="matrix(1.0773379,0,0,1.0773379,38.358635,-18.757435)"
       x1="-480.28918"
       y1="176.57755"
       x2="-474.72101"
       y2="201.07028" /></defs><g
     inkscape:label="Layer 1"
     inkscape:groupmode="layer"
     id="layer1"><g
       id="g6767"><g
         id="g3010"><image
           width="208.63991"
           height="312.95987"
           preserveAspectRatio="none"
           xlink:href="../bao-bao-mlKE8dEMc_8-unsplash.jpg"
           id="image190"
           x="-580.0578"
           y="83.922897" /><g
           id="g2945"><path
             style="fill:#222222;stroke:none;stroke-width:0.264583px;stroke-linecap:butt;stroke-linejoin:miter;stroke-opacity:1;fill-opacity:1"
             d="m -499.70774,214.32869 h 57.70388 v 22.76751 h -59.66659 z"
             id="path356" /><path
             style="mix-blend-mode:normal;fill:#303030;fill-opacity:1;stroke:none;stroke-width:0.264583px;stroke-linecap:butt;stroke-linejoin:miter;stroke-opacity:1;filter:url(#filter2087)"
             d="m -512.67195,220.39065 c 0,0 9.15982,-15.54392 18.87476,-5.27383 0,0 7.49441,-10.27009 9.99252,-10.27009 5.31044,0 4.78208,43.85607 2.49814,53.01588 -2.28028,9.14512 -16.09907,12.2131 -16.93179,11.1028 -0.8327,-1.11027 -14.43363,-48.57476 -14.43363,-48.57476 z"
             id="path1324"
             sodipodi:nodetypes="ccsssc" /><path
             style="fill:#303030;stroke:none;stroke-width:0.264583px;stroke-linecap:butt;stroke-linejoin:miter;stroke-opacity:1;fill-opacity:1;filter:url(#filter2534)"
             d="m -464.09718,207.34486 1.66542,37.47196 -10.27009,3.60841 c 0,0 3.60839,-40.8028 8.60467,-41.08037 z"
             id="path2367" /><path
             style="mix-blend-mode:normal;fill:#131313;fill-opacity:1;stroke:none;stroke-width:0.264583px;stroke-linecap:butt;stroke-linejoin:miter;stroke-opacity:1;filter:url(#filter2816)"
             d="m -454.65981,248.98037 c 0,0 2.49814,-31.36542 6.93925,-36.63925 4.44111,-5.27383 9.99252,-0.27757 9.71497,13.32336 -0.27757,13.60094 -5.5514,20.26262 -2.77571,27.75701 2.77569,7.49439 -2.49815,16.65422 -2.49815,16.65422 z"
             id="path2538"
             sodipodi:nodetypes="cssscc" /><path
             style="fill:#262626;stroke:none;stroke-width:0.264583px;stroke-linecap:butt;stroke-linejoin:miter;stroke-opacity:1;fill-opacity:1;filter:url(#filter2936)"
             d="m -454.38223,210.6757 c 0,0 -6.38411,34.69626 -4.71869,38.0271 1.66542,3.33084 4.71869,2.22056 4.71869,2.22056 0,0 2.49811,-33.58598 5.82895,-37.47196 3.33087,-3.88598 3.60842,-13.04579 3.60842,-13.04579 0,0 -9.43737,6.93925 -9.43737,10.27009 z"
             id="path2820" /></g></g><use
         x="0"
         y="0"
         xlink:href="#rect6066"
         id="use6068"
         transform="matrix(10.969096,0,0,11.427445,7593.0154,-2524.4956)"
         clip-path="url(#clipPath6070)"
         style="mix-blend-mode:overlay" /></g><rect
       style="fill:#480014;fill-opacity:1;stroke:none;stroke-width:0.315;stroke-dasharray:none;paint-order:markers stroke fill"
       id="rect6126"
       width="122.68948"
       height="122.68948"
       x="-843.59039"
       y="112.66583"
       ry="0.88322264" /><rect
       style="fill:#3e0011;fill-opacity:1;stroke:none;stroke-width:0.219061;stroke-dasharray:none;paint-order:markers stroke fill"
       id="rect5864"
       width="62.573944"
       height="88.497437"
       x="-760.07397"
       y="289.10089"
       ry="0" /><g
       id="g5869"
       transform="translate(26.10322)"
       inkscape:export-filename="BersekaShirt4.png"
       inkscape:export-xdpi="1000"
       inkscape:export-ydpi="1000"><rect
         style="fill:none;fill-opacity:1;stroke:none;stroke-width:0.219061;stroke-dasharray:none;paint-order:markers stroke fill"
         id="rect5866"
         width="62.573944"
         height="88.497437"
         x="-676.0766"
         y="202.34631"
         ry="0" /><g
         id="g5898"
         transform="matrix(1.5624527,0,0,1.5624527,93.959254,-123.19598)"><text
           xml:space="preserve"
           style="font-style:normal;font-weight:normal;font-size:12.766px;line-height:1.25;font-family:sans-serif;letter-spacing:0.195345px;fill:#ffffff;fill-opacity:1;stroke:none;stroke-width:0.319152"
           x="-491.26694"
           y="225.50873"
           id="text86519"><tspan
             sodipodi:role="line"
             id="tspan86517"
             style="font-style:normal;font-variant:normal;font-weight:800;font-stretch:normal;font-family:'Plus Jakarta Sans';-inkscape-font-specification:'Plus Jakarta Sans Ultra-Bold';fill:#ffffff;stroke-width:0.319152"
             x="-491.26694"
             y="225.50873">Ittiba</tspan></text><rect
           style="opacity:1;fill:#ff6600;fill-opacity:1;stroke:none;stroke-width:1.47663;stroke-linecap:round;stroke-dasharray:none;stroke-opacity:1;paint-order:markers stroke fill"
           id="rect86656"
           width="1.9241534"
           height="1.9241534"
           x="-456.91187"
           y="216.33713"
           ry="0.15699022" /><text
           xml:space="preserve"
           style="font-style:normal;font-weight:normal;font-size:1.27852px;line-height:1.25;font-family:sans-serif;letter-spacing:0px;fill:#ffffff;fill-opacity:1;stroke:none;stroke-width:0.0319635"
           x="-490.50879"
           y="227.85152"
           id="text85961"><tspan
             sodipodi:role="line"
             id="tspan85959"
             style="font-style:normal;font-variant:normal;font-weight:normal;font-stretch:normal;font-family:'Plus Jakarta Sans';-inkscape-font-specification:'Plus Jakarta Sans';fill:#ffffff;stroke-width:0.0319635"
             x="-490.50879"
             y="227.85152">Only with the right guide you'll find the right destination</tspan></text></g></g><rect
       style="fill:#ff0046;fill-opacity:1;stroke:none;stroke-width:0.0582675;stroke-dasharray:none;paint-order:markers stroke fill"
       id="rect6066"
       width="19.793581"
       height="19.793581"
       x="-745.33136"
       y="232.96558"
       ry="0" /><rect
       style="fill:#ffffff;fill-opacity:1;stroke:none;stroke-width:0.315;stroke-dasharray:none;paint-order:markers stroke fill"
       id="rect6755"
       width="179.74637"
       height="179.74637"
       x="-322.48654"
       y="153.09628"
       ry="0.88322264" /><rect
       style="fill:none;fill-opacity:1;stroke:#333333;stroke-width:0.223021;stroke-dasharray:none;paint-order:markers stroke fill"
       id="rect5866-5"
       width="63.705132"
       height="90.09726"
       x="-650.539"
       y="201.54639"
       ry="0" /><use
       x="0"
       y="0"
       xlink:href="#g5869"
       id="use6064"
       transform="translate(146.27185,-5.3095971)" /><g
       id="g83128"
       transform="translate(26.10322,-109.71901)"
       inkscape:export-filename="BersekaShirt1.png"
       inkscape:export-xdpi="1000"
       inkscape:export-ydpi="1000"><rect
         style="fill:none;fill-opacity:1;stroke:none;stroke-width:0.219061;stroke-dasharray:none;paint-order:markers stroke fill"
         id="rect83064"
         width="62.573944"
         height="88.497437"
         x="-676.0766"
         y="202.34631"
         ry="0" /><g
         id="g83126"
         transform="matrix(1.0400311,0,0,1.0400311,-153.02301,3.8239274)"><rect
           style="fill:none;fill-opacity:1;stroke:#ffffff;stroke-width:0.228543;stroke-dasharray:none;paint-order:markers stroke fill"
           id="rect83066"
           width="47.17997"
           height="31.763956"
           x="-496.42834"
           y="218.17177"
           ry="1.4761964" /><g
           id="g83074"
           transform="translate(8.0550101,18.711769)"><text
             xml:space="preserve"
             style="font-style:normal;font-weight:normal;font-size:4.97934px;line-height:1.25;font-family:sans-serif;text-align:center;text-anchor:middle;white-space:pre;inline-size:90.8296;display:inline;fill:#ffffff;fill-opacity:1;stroke:none;stroke-width:0.124484"
             x="-481.00336"
             y="244.11713"
             id="text83072"
             transform="matrix(0.72369939,0,0,0.72369939,-132.87113,65.075579)"><tspan
               x="-481.00336"
               y="244.11713"
               id="tspan88083"><tspan
                 style="font-family:'Plus Jakarta Sans';-inkscape-font-specification:'Plus Jakarta Sans'"
                 id="tspan88081">Semua Butuh Udara Segar</tspan></tspan></text></g><g
           id="g83086"
           transform="matrix(1.1554353,0,0,1.1554353,73.79885,-20.443955)"><rect
             style="fill:#ffffff;fill-opacity:1;stroke:none;stroke-width:0.315;stroke-dasharray:none;paint-order:markers stroke fill"
             id="rect83076"
             width="1.7664453"
             height="1.7664453"
             x="-482.5217"
             y="229.83415"
             ry="0" /><rect
             style="fill:#ffffff;fill-opacity:1;stroke:none;stroke-width:0.595;stroke-dasharray:none;paint-order:markers stroke fill"
             id="rect83078"
             width="3.3366189"
             height="3.3366189"
             x="-479.18509"
             y="232.38568"
             ry="0" /><rect
             style="fill:#ffffff;fill-opacity:1;stroke:none;stroke-width:0.805;stroke-dasharray:none;paint-order:markers stroke fill"
             id="rect83080"
             width="4.5142488"
             height="4.5142488"
             x="-473.29694"
             y="227.08635"
             ry="0" /><rect
             style="fill:#ffffff;fill-opacity:1;stroke:none;stroke-width:0.35;stroke-dasharray:none;paint-order:markers stroke fill"
             id="rect83082"
             width="1.9627168"
             height="1.9627168"
             x="-465.64236"
             y="231.01178"
             ry="0" /><rect
             style="fill:#ffffff;fill-opacity:1;stroke:none;stroke-width:0.14;stroke-dasharray:none;paint-order:markers stroke fill"
             id="rect83084"
             width="0.78508663"
             height="0.78508663"
             x="-478.35773"
             y="228.26398"
             ry="0" /></g><g
           id="g83114"
           transform="matrix(1.0183159,0,0,1.0183159,8.6604404,10.703468)"><rect
             style="fill:#ffffff;fill-opacity:1;stroke:none;stroke-width:0.515;stroke-dasharray:none;paint-order:markers stroke fill"
             id="rect83088"
             width="55.63916"
             height="19.868715"
             x="-500.65793"
             y="205.04776"
             ry="3.6120629" /><g
             id="g83102"
             style="fill:#480014;fill-opacity:1"
             transform="matrix(0.91816505,0,0,0.33333243,-38.599879,149.66411)"><g
               id="g83100"
               transform="translate(0,-1.6704782)"><g
                 id="g83094"
                 style="fill:#480014;fill-opacity:1"
                 transform="matrix(1.0891288,0,0,3.0000081,42.040241,-448.40473)"><path
                   style="fill:#480014;fill-opacity:1;stroke:none;stroke-width:0.277335px;stroke-linecap:butt;stroke-linejoin:miter;stroke-opacity:1"
                   d="m -497.94128,220.41311 2.04864,2.06085 h 25.7697 v -2.06085 z"
                   id="path83090"
                   sodipodi:nodetypes="ccccc" /><path
                   style="fill:#480014;fill-opacity:1;stroke:none;stroke-width:0.277335px;stroke-linecap:butt;stroke-linejoin:miter;stroke-opacity:1"
                   d="m -447.69573,220.41311 -2.04864,2.06085 h -25.76971 v -2.06085 z"
                   id="path83092"
                   sodipodi:nodetypes="ccccc" /></g><path
                 style="fill:#480014;fill-opacity:1;stroke:none;stroke-width:0.277335px;stroke-linecap:butt;stroke-linejoin:miter;stroke-opacity:1"
                 d="m -497.94128,220.41311 2.04864,2.06085 h 25.7697 v -2.06085 z"
                 id="path83096"
                 sodipodi:nodetypes="ccccc" /><path
                 style="fill:#480014;fill-opacity:1;stroke:none;stroke-width:0.277335px;stroke-linecap:butt;stroke-linejoin:miter;stroke-opacity:1"
                 d="m -447.69573,220.41311 -2.04864,2.06085 h -25.76971 v -2.06085 z"
                 id="path83098"
                 sodipodi:nodetypes="ccccc" /></g></g><circle
             style="fill:#500016;fill-opacity:1;stroke:none;stroke-width:0.315;stroke-dasharray:none;paint-order:markers stroke fill"
             id="circle83104"
             cx="-458.42953"
             cy="212.46448"
             r="0.6939252" /><rect
             style="fill:#500016;fill-opacity:1;stroke:none;stroke-width:0.287936;stroke-dasharray:none;paint-order:markers stroke fill"
             id="rect83106"
             width="7.1299281"
             height="5.2738318"
             x="-456.00079"
             y="209.82758"
             ry="0.88322264" /><text
             xml:space="preserve"
             style="font-style:normal;font-weight:normal;font-size:3.74824px;line-height:1.25;font-family:sans-serif;fill:#ffffff;fill-opacity:1;stroke:none;stroke-width:0.093706"
             x="-454.31934"
             y="213.68106"
             id="text83110"><tspan
               sodipodi:role="line"
               id="tspan83108"
               style="font-style:normal;font-variant:normal;font-weight:bold;font-stretch:normal;font-family:'League Spartan';-inkscape-font-specification:'League Spartan Bold';fill:#ffffff;fill-opacity:1;stroke-width:0.093706"
               x="-454.31934"
               y="213.68106">16</tspan></text><circle
             style="fill:#ffffff;fill-opacity:1;stroke:none;stroke-width:0.315;stroke-dasharray:none;paint-order:markers stroke fill"
             id="circle83112"
             cx="-450.4147"
             cy="211.52768"
             r="0.24287383" /></g><text
           xml:space="preserve"
           style="font-style:normal;font-weight:normal;font-size:11.5599px;line-height:1.25;font-family:sans-serif;fill:#ffffff;fill-opacity:1;stroke:none;stroke-width:0.288999"
           x="-499.86554"
           y="206.75107"
           id="text83118"><tspan
             sodipodi:role="line"
             id="tspan83116"
             style="font-style:normal;font-variant:normal;font-weight:bold;font-stretch:normal;font-family:'Bai Jamjuree';-inkscape-font-specification:'Bai Jamjuree Bold';fill:#ffffff;fill-opacity:1;stroke-width:0.288999"
             x="-499.86554"
             y="206.75107">BERSEKA</tspan></text><text
           xml:space="preserve"
           style="font-style:normal;font-weight:normal;font-size:5.5512px;line-height:1.25;font-family:sans-serif;white-space:pre;inline-size:88.8337;display:inline;fill:#ffffff;fill-opacity:1;stroke:none;stroke-width:0.138781"
           x="-496.75757"
           y="218.35802"
           id="text83124"
           transform="matrix(0.76782444,0,0,0.76782444,-112.3915,44.191233)"><tspan
             x="-496.75757"
             y="218.35802"
             id="tspan88087"><tspan
               style="font-family:'Bai Jamjuree';-inkscape-font-specification:'Bai Jamjuree'"
               id="tspan88085">Your Aircond Solution</tspan></tspan></text></g></g><g
       id="g85504"
       transform="translate(26.10322,-204.48247)"
       inkscape:export-filename="BersekaShirt2.png"
       inkscape:export-xdpi="1000"
       inkscape:export-ydpi="1000"><rect
         style="fill:none;fill-opacity:1;stroke:none;stroke-width:0.219061;stroke-dasharray:none;paint-order:markers stroke fill"
         id="rect85466"
         width="62.573944"
         height="88.497437"
         x="-676.0766"
         y="202.34631"
         ry="0" /><g
         id="g85502"
         transform="matrix(1.2027742,0,0,1.2027742,-76.0464,-32.161275)"><text
           xml:space="preserve"
           style="font-style:normal;font-weight:normal;font-size:5.5512px;line-height:0;font-family:sans-serif;text-align:start;text-anchor:start;white-space:pre;inline-size:88.8337;display:inline;fill:#ffffff;fill-opacity:1;stroke:none;stroke-width:0.138781"
           x="-488.78369"
           y="218.35802"
           id="text85474"
           transform="matrix(2.0256743,0,0,2.0256743,427.70116,-218.4738)"><tspan
             x="-488.78369"
             y="218.35802"
             id="tspan88093"><tspan
               style="font-size:3.94695px;font-family:'Plus Jakarta Sans';-inkscape-font-specification:'Plus Jakarta Sans';text-align:center;text-anchor:middle"
               id="tspan88089">BERKATA</tspan><tspan
               style="line-height:0.95;font-family:'Plus Jakarta Sans';-inkscape-font-specification:'Plus Jakarta Sans';text-align:center;text-anchor:middle"
               id="tspan88091">
</tspan></tspan><tspan
             x="-488.78369"
             y="222.06918"
             id="tspan88097"><tspan
               style="font-size:3.5952px;font-family:'Plus Jakarta Sans';-inkscape-font-specification:'Plus Jakarta Sans';text-align:center;text-anchor:middle"
               id="tspan88095">BAIK ATAU</tspan></tspan></text><text
           xml:space="preserve"
           style="font-style:normal;font-weight:normal;font-size:5.5512px;line-height:0;font-family:sans-serif;text-align:start;text-anchor:start;white-space:pre;inline-size:88.8337;display:inline;fill:#ffffff;fill-opacity:1;stroke:none;stroke-width:0.138781"
           x="-497.71237"
           y="218.35802"
           id="text85480"
           transform="matrix(1.7112099,0,0,1.7112099,357.79054,-131.21562)"><tspan
             x="-497.71237"
             y="218.35802"
             id="tspan88101"><tspan
               style="font-size:10.7569px;line-height:0.65;font-family:'Mini Story';-inkscape-font-specification:'Mini Story';fill:#ff6600"
               id="tspan88099">DIAM</tspan></tspan></text><g
           id="g85498"><g
             id="g85492"
             transform="matrix(0.86451969,0,0,0.86451969,-65.800295,25.184344)"><rect
               style="opacity:1;fill:#ff6600;stroke:none;stroke-width:17.4527;stroke-linecap:round;paint-order:markers stroke fill"
               id="rect85482"
               width="19.243338"
               height="19.243338"
               x="-518.47711"
               y="76.725998"
               ry="4.6890655"
               transform="rotate(-14.567676)" /><g
               id="g85488"><rect
                 style="opacity:1;fill:url(#linearGradient85506);fill-opacity:1;stroke:none;stroke-width:14.8476;stroke-linecap:round;paint-order:markers stroke fill"
                 id="rect85484"
                 width="8.9295578"
                 height="17.859116"
                 x="-483.07468"
                 y="182.5618"
                 ry="4.4647789"
                 transform="rotate(-2.1920697)" /><path
                 id="path85486"
                 style="opacity:1;fill:none;stroke:#ffffff;stroke-width:1.03587;stroke-linecap:round;stroke-dasharray:none;stroke-opacity:1;paint-order:markers stroke fill"
                 d="m -465.17713,209.92806 -11.46025,0.30566 0.16112,4.20854 c 0.12093,3.15908 2.78755,5.62917 5.94667,5.50825 3.15908,-0.12093 5.62969,-2.78811 5.50877,-5.9472 z" /></g><path
               style="fill:#ffffff;stroke:none;stroke-width:0.254399px;stroke-linecap:butt;stroke-linejoin:miter;stroke-opacity:1"
               d="m -471.94529,220.01745 v 1.73482 l 2.68648,-0.71985 v -1.3041 z"
               id="path85490" /></g><circle
             style="opacity:1;fill:#ff6600;fill-opacity:1;stroke:none;stroke-width:0.155858;stroke-linecap:round;stroke-dasharray:none;stroke-opacity:1;paint-order:markers stroke fill"
             id="circle85494"
             cx="-464.0578"
             cy="202.47902"
             r="0.49992576" /><circle
             style="opacity:1;fill:#fff3eb;fill-opacity:1;stroke:none;stroke-width:0.727339;stroke-linecap:round;stroke-dasharray:none;stroke-opacity:1;paint-order:markers stroke fill"
             id="circle85496"
             cx="-480.88861"
             cy="212.64418"
             r="2.3329878" /></g><path
           style="fill:none;stroke:#ffffff;stroke-width:1.92302;stroke-linecap:butt;stroke-linejoin:miter;stroke-dasharray:none;stroke-opacity:1"
           d="m -484.76361,201.41642 22.30696,12.87893"
           id="path85500" /></g></g><g
       id="g86515"
       transform="translate(26.10322,-312.99686)"
       inkscape:export-filename="BersekaShirt3.png"
       inkscape:export-xdpi="1000"
       inkscape:export-ydpi="1000"><rect
         style="fill:none;fill-opacity:1;stroke:none;stroke-width:0.219061;stroke-dasharray:none;paint-order:markers stroke fill"
         id="rect86487"
         width="62.573944"
         height="88.497437"
         x="-676.0766"
         y="202.34631"
         ry="0" /><g
         id="g86513"
         transform="matrix(1.3544394,0,0,1.3544394,-4.6533903,-77.707526)"><g
           id="g86507"><path
             d="m -491.88419,224.39036 h 1.46844 v -5.7791 h 1.76217 v -1.27898 h -5.0212 v 1.27898 h 1.79059 z"
             style="font-weight:800;font-size:3.94695px;line-height:0.95;font-family:'Plus Jakarta Sans';-inkscape-font-specification:'Plus Jakarta Sans Ultra-Bold';text-align:center;letter-spacing:0.641517px;text-anchor:middle;white-space:pre;inline-size:88.8337;fill:#ffffff;stroke-width:0.333118"
             id="path86489" /><path
             id="path86491"
             style="font-weight:800;font-size:3.94695px;line-height:0.95;font-family:'Plus Jakarta Sans';-inkscape-font-specification:'Plus Jakarta Sans Ultra-Bold';text-align:center;letter-spacing:0.641517px;text-anchor:middle;white-space:pre;inline-size:88.8337;fill:#ffffff;stroke-width:0.333118"
             d="m -484.99168,217.33219 -2.38753,7.05818 h 1.59183 l 0.4739,-1.44016 h -4.3e-4 l 0.40773,-1.27905 0.89022,-2.71879 0.8812,2.71879 0.4073,1.27905 0.4739,1.44016 h 1.60085 l -2.3871,-7.05818 z" /><path
             style="fill:#ffffff;fill-opacity:1;stroke:none;stroke-width:0.195345px;stroke-linecap:butt;stroke-linejoin:miter;stroke-opacity:1"
             d="m -483.84999,221.99858 -0.29306,1.09371 h -1.89012 l 0.78431,-1.35846 0.0707,0.26371 z"
             id="path86493" /><path
             d="m -475.76838,224.50403 q 0.8337,0 1.4874,-0.35054 0.6537,-0.35051 1.02318,-0.95686 0.37896,-0.6158 0.37896,-1.39266 v -4.47169 h -1.46846 v 4.37695 q 0,0.41686 -0.18939,0.75792 -0.18002,0.33158 -0.50212,0.52106 -0.31264,0.18939 -0.72948,0.18939 -0.40738,0 -0.7295,-0.18939 -0.3221,-0.18938 -0.51158,-0.52106 -0.18002,-0.34106 -0.18002,-0.75792 v -4.37695 h -1.46844 v 4.47169 q 0,0.77686 0.36948,1.39266 0.37896,0.60635 1.03266,0.95686 0.6537,0.35054 1.4874,0.35054 z"
             style="font-weight:800;font-size:3.94695px;line-height:0.95;font-family:'Plus Jakarta Sans';-inkscape-font-specification:'Plus Jakarta Sans Ultra-Bold';text-align:center;letter-spacing:0.641517px;text-anchor:middle;white-space:pre;inline-size:88.8337;fill:#ffffff;stroke-width:0.333118"
             id="path86495" /><path
             d="m -470.17371,224.39036 h 1.46847 v -2.72849 h 2.74744 v 2.72849 h 1.46844 v -7.05808 h -1.46844 v 3.05061 h -2.74744 v -3.05061 h -1.46847 z"
             style="font-weight:800;font-size:3.94695px;line-height:0.95;font-family:'Plus Jakarta Sans';-inkscape-font-specification:'Plus Jakarta Sans Ultra-Bold';text-align:center;letter-spacing:0.641517px;text-anchor:middle;white-space:pre;inline-size:88.8337;fill:#ffffff;stroke-width:0.333118"
             id="path86497" /><path
             d="m -457.44009,224.39036 h 2.30217 q 1.14634,0 1.98952,-0.45477 0.84318,-0.45474 1.3074,-1.25054 0.46422,-0.80528 0.46422,-1.82848 0,-1.02319 -0.46422,-1.81899 -0.46422,-0.7958 -1.3074,-1.25056 -0.84318,-0.45474 -1.98952,-0.45474 h -2.30217 z m 1.46847,-1.27899 v -4.50011 h 0.8716 q 0.6916,0 1.1937,0.27474 0.50212,0.27474 0.77686,0.77687 0.28422,0.50212 0.28422,1.1937 0,0.68214 -0.28422,1.19372 -0.27474,0.50212 -0.77686,0.78634 -0.5021,0.27474 -1.1937,0.27474 z"
             style="font-weight:800;font-size:3.94695px;line-height:0.95;font-family:'Plus Jakarta Sans';-inkscape-font-specification:'Plus Jakarta Sans Ultra-Bold';text-align:center;letter-spacing:0.641517px;text-anchor:middle;white-space:pre;inline-size:88.8337;fill:#ffffff;stroke-width:0.333118"
             id="path86499" /><rect
             style="opacity:1;fill:#ffffff;fill-opacity:1;stroke:none;stroke-width:3.1896;stroke-linecap:round;stroke-dasharray:none;stroke-opacity:1;paint-order:markers stroke fill"
             id="rect86501"
             width="5.0007839"
             height="1.4685042"
             x="219.38957"
             y="460.23041"
             ry="0.30434752"
             transform="rotate(90)" /><rect
             style="opacity:1;fill:#ffffff;fill-opacity:1;stroke:none;stroke-width:1.72844;stroke-linecap:round;stroke-dasharray:none;stroke-opacity:1;paint-order:markers stroke fill"
             id="rect86503"
             width="1.4685042"
             height="1.4685042"
             x="217.5045"
             y="460.23041"
             ry="0.30434752"
             transform="rotate(90)" /><g
             id="g86505"
             transform="matrix(1.624076,0,0,1.624076,287.25643,-140.05574)" /></g><text
           xml:space="preserve"
           style="font-style:normal;font-weight:normal;font-size:1.68003px;line-height:1.25;font-family:sans-serif;letter-spacing:0.64521px;fill:#ffffff;fill-opacity:1;stroke:none;stroke-width:0.042001"
           x="-490.53528"
           y="227.81267"
           id="text86511"><tspan
             sodipodi:role="line"
             id="tspan86509"
             style="font-style:normal;font-variant:normal;font-weight:normal;font-stretch:normal;font-family:'Plus Jakarta Sans';-inkscape-font-specification:'Plus Jakarta Sans';fill:#ffffff;stroke-width:0.042001"
             x="-490.53528"
             y="227.81267">THE ONLY KEY TO JANNAH</tspan></text></g></g></g></svg>
