<?xml version="1.0" encoding="UTF-8" standalone="no"?>
<!-- Created with Inkscape (http://www.inkscape.org/) -->

<svg
   width="210mm"
   height="297mm"
   viewBox="0 0 210 297"
   version="1.1"
   id="svg5"
   xml:space="preserve"
   inkscape:version="1.2.2 (732a01da63, 2022-12-09)"
   sodipodi:docname="Mockup.svg"
   xmlns:inkscape="http://www.inkscape.org/namespaces/inkscape"
   xmlns:sodipodi="http://sodipodi.sourceforge.net/DTD/sodipodi-0.dtd"
   xmlns:xlink="http://www.w3.org/1999/xlink"
   xmlns="http://www.w3.org/2000/svg"
   xmlns:svg="http://www.w3.org/2000/svg"><sodipodi:namedview
     id="namedview7"
     pagecolor="#ffffff"
     bordercolor="#666666"
     borderopacity="1.0"
     inkscape:showpageshadow="2"
     inkscape:pageopacity="0.0"
     inkscape:pagecheckerboard="0"
     inkscape:deskcolor="#d1d1d1"
     inkscape:document-units="mm"
     showgrid="false"
     inkscape:zoom="1.3197953"
     inkscape:cx="-1711.2502"
     inkscape:cy="884.22802"
     inkscape:window-width="1366"
     inkscape:window-height="715"
     inkscape:window-x="-8"
     inkscape:window-y="-8"
     inkscape:window-maximized="1"
     inkscape:current-layer="layer1" /><defs
     id="defs2"><filter
       inkscape:collect="always"
       style="color-interpolation-filters:sRGB"
       id="filter2087"
       x="-0.51095507"
       y="-0.26219225"
       width="2.0219101"
       height="1.5243845"><feGaussianBlur
         inkscape:collect="always"
         stdDeviation="7.0284672"
         id="feGaussianBlur2089" /></filter><filter
       inkscape:collect="always"
       style="color-interpolation-filters:sRGB"
       id="filter2534"
       x="-0.8284442"
       y="-0.207111"
       width="2.6568884"
       height="1.414222"><feGaussianBlur
         inkscape:collect="always"
         stdDeviation="3.5450819"
         id="feGaussianBlur2536" /></filter><filter
       inkscape:collect="always"
       style="color-interpolation-filters:sRGB"
       id="filter2816"
       x="-0.67684108"
       y="-0.18862889"
       width="2.3536822"
       height="1.3772578"><feGaussianBlur
         inkscape:collect="always"
         stdDeviation="4.6995972"
         id="feGaussianBlur2818" /></filter><filter
       inkscape:collect="always"
       style="color-interpolation-filters:sRGB"
       id="filter2936"
       x="-0.95142162"
       y="-0.27087425"
       width="2.9028432"
       height="1.5417485"><feGaussianBlur
         inkscape:collect="always"
         stdDeviation="5.7216988"
         id="feGaussianBlur2938" /></filter><clipPath
       clipPathUnits="userSpaceOnUse"
       id="clipPath6070"><path
         style="mix-blend-mode:overlay;fill:#ff0046;fill-opacity:1;stroke:none;stroke-width:0.0236321px;stroke-linecap:butt;stroke-linejoin:miter;stroke-opacity:1"
         d="m -743.11304,242.7395 c 0,0 1.89153,0.7287 1.99275,0.75906 0.10122,0.0304 1.30952,0.46758 1.50563,0.32184 0,0 -0.10159,1.02016 -0.0479,1.21768 0.0537,0.19752 -0.13419,1.58873 -0.13419,1.58873 l -0.21011,2.45233 c 0,0 -0.0759,0.95944 0,1.14161 0,0 0.0759,1.1902 0.16448,1.33594 0,0 0.41753,0.47365 0.41753,0.76513 l -0.0126,-0.17003 c 0,0 0.26701,0.15151 1.57321,0.10858 1.3062,-0.0429 2.48715,0.11164 2.57661,0.11164 0.0895,0 2.43347,-0.2834 2.90764,-0.32634 0.47416,-0.0429 1.78037,-0.33492 1.78037,-0.33492 0,0 0.16103,-0.57538 0.3847,-0.72137 0,0 0.0895,-0.0902 0.0895,-0.21899 0,-0.12881 -0.1342,-0.9103 -0.1342,-0.9103 0,0 -0.009,-0.10734 0.009,-0.16746 0.0179,-0.0601 0.0358,-0.77719 -0.004,-1.01764 -0.0403,-0.24046 0.0447,-0.33922 0.0447,-0.33922 0,0 -0.30865,-1.59732 -0.3176,-1.66602 -0.009,-0.0687 -0.1342,-0.85877 -0.1342,-0.85877 0,0 -0.0268,-0.53244 -0.0626,-0.65267 -0.0358,-0.12023 -0.1342,-0.64408 -0.1342,-0.64408 l 0.16104,-1.57156 c 0,0 1.18094,-0.32633 1.40461,-0.42938 l -0.006,0.15031 1.20516,-0.47665 c 0,0 0.31313,-0.18034 0.43838,-0.15458 l -1.43145,-3.69272 c 0,0 -0.41154,-1.03912 -0.59047,-1.21087 l 0.0134,-0.0344 -0.67547,-0.53244 c 0,0 -0.3847,-0.2834 -1.44934,-0.73855 0,0 -0.88572,-0.36068 -1.0557,-0.45515 0,0 -0.19682,-0.0515 -0.35786,-0.12022 -0.16104,-0.0687 -0.33997,-0.11165 -0.42049,-0.2147 0,0 -0.1342,-0.0945 -0.29524,-0.0429 0,0 0.33102,0.12882 0.25945,0.3521 -0.0716,0.22328 -0.20577,0.56679 -1.19884,1.01335 0,0 -0.87676,0.27481 -1.91457,-0.18893 0,0 -0.55468,-0.16316 -0.73361,-0.64408 0,0 -0.0269,-0.0945 0.15209,-0.22328 0.17893,-0.12881 -0.0716,-0.0687 -0.0716,-0.0687 l -0.16103,0.0344 c 0,0 -0.28629,0.31775 -0.67995,0.48091 -0.39364,0.16317 -1.70879,0.80725 -2.08455,1.06488 -0.37575,0.25763 -0.58152,0.52385 -0.58152,0.52385 l -0.32208,0.44657 v 0.0687 c 0,0 -0.27735,0.51526 -0.5368,1.33968 -0.25945,0.82443 -0.76046,2.20705 -0.76046,2.20705 z"
         id="path6072" /></clipPath></defs><g
     inkscape:label="Layer 1"
     inkscape:groupmode="layer"
     id="layer1"><rect
       style="fill:#480014;fill-opacity:1;stroke:none;stroke-width:0.315;stroke-dasharray:none;paint-order:markers stroke fill"
       id="rect6126"
       width="122.68948"
       height="122.68948"
       x="-674.39117"
       y="191.25125"
       ry="0.88322264" /><rect
       style="fill:#3e0011;fill-opacity:1;stroke:none;stroke-width:0.219061;stroke-dasharray:none;paint-order:markers stroke fill"
       id="rect5864"
       width="62.573944"
       height="88.497437"
       x="-760.07397"
       y="289.10089"
       ry="0" /><g
       id="g5869"
       transform="translate(26.10322)"><rect
         style="fill:none;fill-opacity:1;stroke:none;stroke-width:0.219061;stroke-dasharray:none;paint-order:markers stroke fill"
         id="rect5866"
         width="62.573944"
         height="88.497437"
         x="-676.0766"
         y="202.34631"
         ry="0" /><g
         id="g5898"
         transform="matrix(1.0400311,0,0,1.0400311,-153.02301,3.8239274)"><rect
           style="fill:none;fill-opacity:1;stroke:#ffffff;stroke-width:0.228543;stroke-dasharray:none;paint-order:markers stroke fill"
           id="rect3234"
           width="47.17997"
           height="31.763956"
           x="-496.42834"
           y="218.17177"
           ry="1.4761964" /><g
           id="g6595"
           transform="translate(8.0550101,18.711769)"><text
             xml:space="preserve"
             style="font-style:normal;font-weight:normal;font-size:4.97934px;line-height:1.25;font-family:sans-serif;text-align:center;text-anchor:middle;white-space:pre;inline-size:90.8296;display:inline;fill:#ffffff;fill-opacity:1;stroke:none;stroke-width:0.124484"
             x="-481.00336"
             y="244.11713"
             id="text3242"
             transform="matrix(0.72369939,0,0,0.72369939,-132.87113,65.075579)"><tspan
               x="-481.00336"
               y="244.11713"
               id="tspan6836"><tspan
                 style="font-family:'Plus Jakarta Sans';-inkscape-font-specification:'Plus Jakarta Sans'"
                 id="tspan6834">Semua Butuh Udara Segar</tspan></tspan></text></g><g
           id="g4756"
           transform="matrix(1.1554353,0,0,1.1554353,73.79885,-20.443955)"><rect
             style="fill:#ffffff;fill-opacity:1;stroke:none;stroke-width:0.315;stroke-dasharray:none;paint-order:markers stroke fill"
             id="rect3790"
             width="1.7664453"
             height="1.7664453"
             x="-482.5217"
             y="229.83415"
             ry="0" /><rect
             style="fill:#ffffff;fill-opacity:1;stroke:none;stroke-width:0.595;stroke-dasharray:none;paint-order:markers stroke fill"
             id="rect3792"
             width="3.3366189"
             height="3.3366189"
             x="-479.18509"
             y="232.38568"
             ry="0" /><rect
             style="fill:#ffffff;fill-opacity:1;stroke:none;stroke-width:0.805;stroke-dasharray:none;paint-order:markers stroke fill"
             id="rect3794"
             width="4.5142488"
             height="4.5142488"
             x="-473.29694"
             y="227.08635"
             ry="0" /><rect
             style="fill:#ffffff;fill-opacity:1;stroke:none;stroke-width:0.35;stroke-dasharray:none;paint-order:markers stroke fill"
             id="rect3796"
             width="1.9627168"
             height="1.9627168"
             x="-465.64236"
             y="231.01178"
             ry="0" /><rect
             style="fill:#ffffff;fill-opacity:1;stroke:none;stroke-width:0.14;stroke-dasharray:none;paint-order:markers stroke fill"
             id="rect3798"
             width="0.78508663"
             height="0.78508663"
             x="-478.35773"
             y="228.26398"
             ry="0" /></g><g
           id="g6609"
           transform="matrix(1.0183159,0,0,1.0183159,8.6604404,10.703468)"><rect
             style="fill:#ffffff;fill-opacity:1;stroke:none;stroke-width:0.515;stroke-dasharray:none;paint-order:markers stroke fill"
             id="rect3254"
             width="55.63916"
             height="19.868715"
             x="-500.65793"
             y="205.04776"
             ry="3.6120629" /><g
             id="g3788"
             style="fill:#480014;fill-opacity:1"
             transform="matrix(0.91816505,0,0,0.33333243,-38.599879,149.66411)"><g
               id="g6619"
               transform="translate(0,-1.6704782)"><g
                 id="g3314"
                 style="fill:#480014;fill-opacity:1"
                 transform="matrix(1.0891288,0,0,3.0000081,42.040241,-448.40473)"><path
                   style="fill:#480014;fill-opacity:1;stroke:none;stroke-width:0.277335px;stroke-linecap:butt;stroke-linejoin:miter;stroke-opacity:1"
                   d="m -497.94128,220.41311 2.04864,2.06085 h 25.7697 v -2.06085 z"
                   id="path3308"
                   sodipodi:nodetypes="ccccc" /><path
                   style="fill:#480014;fill-opacity:1;stroke:none;stroke-width:0.277335px;stroke-linecap:butt;stroke-linejoin:miter;stroke-opacity:1"
                   d="m -447.69573,220.41311 -2.04864,2.06085 h -25.76971 v -2.06085 z"
                   id="path3310"
                   sodipodi:nodetypes="ccccc" /></g><path
                 style="fill:#480014;fill-opacity:1;stroke:none;stroke-width:0.277335px;stroke-linecap:butt;stroke-linejoin:miter;stroke-opacity:1"
                 d="m -497.94128,220.41311 2.04864,2.06085 h 25.7697 v -2.06085 z"
                 id="path3784"
                 sodipodi:nodetypes="ccccc" /><path
                 style="fill:#480014;fill-opacity:1;stroke:none;stroke-width:0.277335px;stroke-linecap:butt;stroke-linejoin:miter;stroke-opacity:1"
                 d="m -447.69573,220.41311 -2.04864,2.06085 h -25.76971 v -2.06085 z"
                 id="path3786"
                 sodipodi:nodetypes="ccccc" /></g></g><circle
             style="fill:#500016;fill-opacity:1;stroke:none;stroke-width:0.315;stroke-dasharray:none;paint-order:markers stroke fill"
             id="path3802"
             cx="-458.42953"
             cy="212.46448"
             r="0.6939252" /><rect
             style="fill:#500016;fill-opacity:1;stroke:none;stroke-width:0.287936;stroke-dasharray:none;paint-order:markers stroke fill"
             id="rect3978"
             width="7.1299281"
             height="5.2738318"
             x="-456.00079"
             y="209.82758"
             ry="0.88322264" /><text
             xml:space="preserve"
             style="font-style:normal;font-weight:normal;font-size:3.74824px;line-height:1.25;font-family:sans-serif;fill:#ffffff;fill-opacity:1;stroke:none;stroke-width:0.093706"
             x="-454.31934"
             y="213.68106"
             id="text3924"><tspan
               sodipodi:role="line"
               id="tspan3922"
               style="font-style:normal;font-variant:normal;font-weight:bold;font-stretch:normal;font-family:'League Spartan';-inkscape-font-specification:'League Spartan Bold';fill:#ffffff;fill-opacity:1;stroke-width:0.093706"
               x="-454.31934"
               y="213.68106">16</tspan></text><circle
             style="fill:#ffffff;fill-opacity:1;stroke:none;stroke-width:0.315;stroke-dasharray:none;paint-order:markers stroke fill"
             id="path3980"
             cx="-450.4147"
             cy="211.52768"
             r="0.24287383" /></g><text
           xml:space="preserve"
           style="font-style:normal;font-weight:normal;font-size:11.2224px;line-height:1.25;font-family:sans-serif;fill:#ffffff;fill-opacity:1;stroke:none;stroke-width:0.280561"
           x="-499.8446"
           y="206.51212"
           id="text4804"><tspan
             sodipodi:role="line"
             id="tspan4802"
             style="font-style:normal;font-variant:normal;font-weight:bold;font-stretch:normal;font-family:'Bai Jamjuree';-inkscape-font-specification:'Bai Jamjuree Bold';fill:#ffffff;fill-opacity:1;stroke-width:0.280561"
             x="-499.8446"
             y="206.51212">BERSEKA</tspan></text><text
           xml:space="preserve"
           style="font-style:normal;font-weight:normal;font-size:5.5512px;line-height:1.25;font-family:sans-serif;white-space:pre;inline-size:88.8337;display:inline;fill:#ffffff;fill-opacity:1;stroke:none;stroke-width:0.138781"
           x="-496.75757"
           y="218.35802"
           id="text5810"
           transform="matrix(0.76782444,0,0,0.76782444,-112.96977,44.191233)"><tspan
             x="-496.75757"
             y="218.35802"
             id="tspan6840"><tspan
               style="font-family:'Bai Jamjuree';-inkscape-font-specification:'Bai Jamjuree'"
               id="tspan6838">Your Aircond Solution</tspan></tspan></text></g></g><g
       id="g6767"><g
         id="g3010"><image
           width="208.63991"
           height="312.95987"
           preserveAspectRatio="none"
           xlink:href="../bao-bao-mlKE8dEMc_8-unsplash.jpg"
           id="image190"
           x="-580.0578"
           y="83.922897" /><g
           id="g2945"><path
             style="fill:#222222;stroke:none;stroke-width:0.264583px;stroke-linecap:butt;stroke-linejoin:miter;stroke-opacity:1;fill-opacity:1"
             d="m -499.70774,214.32869 h 57.70388 v 22.76751 h -59.66659 z"
             id="path356" /><path
             style="mix-blend-mode:normal;fill:#303030;fill-opacity:1;stroke:none;stroke-width:0.264583px;stroke-linecap:butt;stroke-linejoin:miter;stroke-opacity:1;filter:url(#filter2087)"
             d="m -512.67195,220.39065 c 0,0 9.15982,-15.54392 18.87476,-5.27383 0,0 7.49441,-10.27009 9.99252,-10.27009 5.31044,0 4.78208,43.85607 2.49814,53.01588 -2.28028,9.14512 -16.09907,12.2131 -16.93179,11.1028 -0.8327,-1.11027 -14.43363,-48.57476 -14.43363,-48.57476 z"
             id="path1324"
             sodipodi:nodetypes="ccsssc" /><path
             style="fill:#303030;stroke:none;stroke-width:0.264583px;stroke-linecap:butt;stroke-linejoin:miter;stroke-opacity:1;fill-opacity:1;filter:url(#filter2534)"
             d="m -464.09718,207.34486 1.66542,37.47196 -10.27009,3.60841 c 0,0 3.60839,-40.8028 8.60467,-41.08037 z"
             id="path2367" /><path
             style="mix-blend-mode:normal;fill:#131313;fill-opacity:1;stroke:none;stroke-width:0.264583px;stroke-linecap:butt;stroke-linejoin:miter;stroke-opacity:1;filter:url(#filter2816)"
             d="m -454.65981,248.98037 c 0,0 2.49814,-31.36542 6.93925,-36.63925 4.44111,-5.27383 9.99252,-0.27757 9.71497,13.32336 -0.27757,13.60094 -5.5514,20.26262 -2.77571,27.75701 2.77569,7.49439 -2.49815,16.65422 -2.49815,16.65422 z"
             id="path2538"
             sodipodi:nodetypes="cssscc" /><path
             style="fill:#262626;stroke:none;stroke-width:0.264583px;stroke-linecap:butt;stroke-linejoin:miter;stroke-opacity:1;fill-opacity:1;filter:url(#filter2936)"
             d="m -454.38223,210.6757 c 0,0 -6.38411,34.69626 -4.71869,38.0271 1.66542,3.33084 4.71869,2.22056 4.71869,2.22056 0,0 2.49811,-33.58598 5.82895,-37.47196 3.33087,-3.88598 3.60842,-13.04579 3.60842,-13.04579 0,0 -9.43737,6.93925 -9.43737,10.27009 z"
             id="path2820" /></g></g><use
         x="0"
         y="0"
         xlink:href="#rect6066"
         id="use6068"
         transform="matrix(10.969096,0,0,11.427445,7593.0154,-2524.4956)"
         clip-path="url(#clipPath6070)"
         style="mix-blend-mode:overlay" /><use
         x="0"
         y="0"
         xlink:href="#g5869"
         id="use6064"
         transform="translate(146.27186,-5.309584)" /></g><rect
       style="fill:#ff0046;fill-opacity:1;stroke:none;stroke-width:0.0582675;stroke-dasharray:none;paint-order:markers stroke fill"
       id="rect6066"
       width="19.793581"
       height="19.793581"
       x="-745.33136"
       y="232.96558"
       ry="0" /><rect
       style="fill:#ffffff;fill-opacity:1;stroke:none;stroke-width:0.315;stroke-dasharray:none;paint-order:markers stroke fill"
       id="rect6755"
       width="179.74637"
       height="179.74637"
       x="-322.48654"
       y="153.09628"
       ry="0.88322264" /></g></svg>
