<?xml version="1.0" encoding="UTF-8" standalone="no"?>
<!-- Created with Inkscape (http://www.inkscape.org/) -->

<svg
   width="210mm"
   height="297mm"
   viewBox="0 0 210 297"
   version="1.1"
   id="svg110159"
   inkscape:version="1.1 (c68e22c387, 2021-05-23)"
   sodipodi:docname="Sertifikat.svg"
   xmlns:inkscape="http://www.inkscape.org/namespaces/inkscape"
   xmlns:sodipodi="http://sodipodi.sourceforge.net/DTD/sodipodi-0.dtd"
   xmlns="http://www.w3.org/2000/svg"
   xmlns:svg="http://www.w3.org/2000/svg">
  <sodipodi:namedview
     id="namedview110161"
     pagecolor="#ffffff"
     bordercolor="#666666"
     borderopacity="1.0"
     inkscape:pageshadow="2"
     inkscape:pageopacity="0.0"
     inkscape:pagecheckerboard="0"
     inkscape:document-units="mm"
     showgrid="false"
     inkscape:zoom="0.45254834"
     inkscape:cx="826.43105"
     inkscape:cy="383.38446"
     inkscape:current-layer="layer1"
     inkscape:snap-global="false" />
  <defs
     id="defs110156">
    <clipPath
       clipPathUnits="userSpaceOnUse"
       id="clipPath113126">
      <rect
         style="fill:#ffffff;fill-opacity:1;stroke:none;stroke-width:0.64439;stroke-linecap:square"
         id="rect113128"
         width="210"
         height="297"
         x="-209.54396"
         y="-15.443998"
         transform="rotate(-90)" />
    </clipPath>
  </defs>
  <g
     inkscape:label="Layer 1"
     inkscape:groupmode="layer"
     id="layer1">
    <rect
       style="fill:#ffcc00;fill-opacity:1;stroke:none;stroke-width:0.964069;stroke-linecap:square"
       id="rect109735-4"
       width="314.17969"
       height="444.33984"
       x="-261.63382"
       y="-89.113922"
       transform="rotate(-90)" />
    <rect
       style="fill:#ffffff;fill-opacity:1;stroke:none;stroke-width:0.644391;stroke-linecap:square"
       id="rect109735"
       width="210"
       height="297"
       x="-209.54396"
       y="-15.443998"
       transform="rotate(-90)" />
    <g
       id="g113000"
       clip-path="url(#clipPath113126)">
      <g
         id="g31459"
         transform="matrix(1.0818458,0,0,1.0818458,127.41427,-31.848616)">
        <g
           id="g33864">
          <path
             style="opacity:0.0694981;fill:#ffb98c;fill-opacity:1;stroke:none;stroke-width:0.582083;stroke-linecap:square;stroke-opacity:1"
             d="m -39.902034,221.35129 -82.744216,-63.42324 c 0,0 -23.5212,49.14251 -20.58105,51.66264 2.94014,2.52013 -6.72035,7.98041 33.18169,15.12077 39.902032,7.14036 66.363381,6.30032 66.363381,6.30032 z"
             id="path31067"
             sodipodi:nodetypes="ccsscc" />
          <path
             style="opacity:0.0694981;fill:#ffb98c;fill-opacity:1;stroke:none;stroke-width:0.582083;stroke-linecap:square;stroke-opacity:1"
             d="m -39.902034,221.35129 -85.684366,-58.803 c 0,0 -20.58105,44.52227 -17.6409,47.0424 2.94014,2.52013 -6.72035,7.98041 33.18169,15.12077 39.902032,7.14036 66.363381,6.30032 66.363381,6.30032 z"
             id="path30498"
             sodipodi:nodetypes="ccsscc" />
          <g
             id="g29484"
             transform="matrix(1.2673031,0,0,1.2673031,4.6563933,-54.378197)">
            <g
               id="g29337"
               transform="matrix(0.87439613,0,0,0.87439613,-16.779746,25.813066)">
              <path
                 style="fill:#ffccaa;fill-opacity:1;stroke:none;stroke-width:0.995796;stroke-linecap:square;stroke-opacity:1"
                 d="m -122.72726,206.01981 28.175913,-16.26738 -1.755192,47.76902 -46.744361,-12.19418 z"
                 id="path24423" />
              <path
                 style="fill:#ffbe94;fill-opacity:1;stroke:none;stroke-width:0.995796;stroke-linecap:square;stroke-opacity:1"
                 d="m -94.551347,189.75243 26.697901,6.10556 -28.453093,41.66346 z"
                 id="path25240" />
              <path
                 style="fill:#ffb98c;fill-opacity:1;stroke:none;stroke-width:0.995796;stroke-linecap:square;stroke-opacity:1"
                 d="m -67.853446,195.85799 15.242727,37.59873 -43.69582,4.06473 z"
                 id="path25242" />
              <path
                 style="fill:#ffccaa;fill-opacity:1;stroke:none;stroke-width:0.995796;stroke-linecap:square;stroke-opacity:1"
                 d="m -67.853446,195.85799 21.339819,9.14564 -6.097092,28.45309 z"
                 id="path25244" />
              <path
                 style="fill:#ffccaa;fill-opacity:1;stroke:none;stroke-width:0.995796;stroke-linecap:square;stroke-opacity:1"
                 d="m -46.513627,205.00363 20.323633,12.11297 6.097093,10.24303 z"
                 id="path25246"
                 sodipodi:nodetypes="cccc" />
              <path
                 style="fill:#ffb98c;fill-opacity:1;stroke:none;stroke-width:0.995796;stroke-linecap:square;stroke-opacity:1"
                 d="m -46.513627,205.00363 26.420726,22.356 -32.517818,6.09709 z"
                 id="path25248" />
              <path
                 style="fill:#ffb98c;fill-opacity:1;stroke:none;stroke-width:0.995796;stroke-linecap:square;stroke-opacity:1"
                 d="m -94.551347,189.75243 -22.028303,-21.00572 -6.14761,37.2731 z"
                 id="path25250"
                 sodipodi:nodetypes="cccc" />
            </g>
          </g>
        </g>
        <path
           id="path33866"
           style="opacity:0.660232;mix-blend-mode:difference;fill:#004aa7;fill-opacity:1;stroke:none;stroke-width:0.582083;stroke-linecap:square;stroke-opacity:1"
           d="m -142.24826,157.92783 c 0,0 -1.01189,2.13282 -2.36368,5.01623 l -0.57671,-0.39584 c 0,0 -3.20293,6.93837 -6.89622,15.4714 l -13.31081,-12.69224 -6.81199,41.3029 -22.5211,21.39507 51.79838,13.51288 48.4203,-4.50412 36.033978,-6.7567 -2.727484,-4.58215 1.699638,-4.34391 c -18.936723,-26.90431 -50.653332,-45.2887 -82.744302,-63.42352 z"
           sodipodi:nodetypes="ccccccccccccc" />
      </g>
      <g
         id="use61240"
         transform="matrix(1.806635,1.0496413,-1.0496413,1.806635,406.76969,-222.63008)">
        <path
           id="path112188"
           style="fill:#ff8841;fill-opacity:1;stroke-width:0.651218;stroke-linecap:square"
           d="m 31.463943,188.28661 h 13.201054 c 0.6329,0 1.142419,0.50951 1.142419,1.14242 v 10.18678 c 0,0.6329 -0.509519,1.14242 -1.142419,1.14242 l -6.600527,2.00475 -6.600527,-2.00475 c -0.605584,-0.18393 -1.142419,-0.50952 -1.142419,-1.14242 v -10.18678 c 0,-0.63291 0.509519,-1.14242 1.142419,-1.14242 z"
           sodipodi:nodetypes="ssssscssss" />
        <rect
           style="fill:#ffffff;stroke-width:0.806528;stroke-linecap:square"
           id="rect112190"
           width="14.694919"
           height="14.694919"
           x="354.04932"
           y="314.4198"
           transform="matrix(0.96050802,0.27825229,-0.96050802,0.27825229,0,0)" />
        <rect
           style="fill:#5599ff;stroke-width:0.806528;stroke-linecap:square"
           id="rect112192"
           width="14.694919"
           height="14.694919"
           x="351.95892"
           y="312.32941"
           transform="matrix(0.96050802,0.27825229,-0.96050802,0.27825229,0,0)" />
        <rect
           style="fill:#ff8841;fill-opacity:1;stroke-width:0.596082;stroke-linecap:square"
           id="rect112194"
           width="1.0461084"
           height="6.9828563"
           x="29.786562"
           y="181.18393"
           transform="matrix(0.95358266,0.30113138,0,1,0,0)" />
      </g>
      <g
         id="use61232"
         transform="matrix(2.1259622,-0.50582402,0.50582402,2.1259622,35.534828,-140.85847)"
         style="opacity:1">
        <rect
           style="fill:#5599ff;fill-opacity:1;stroke:none;stroke-width:0.49033;stroke-linecap:square;stroke-opacity:1"
           id="rect112264"
           width="25.627415"
           height="18.47551"
           x="41.379025"
           y="160.23149" />
        <rect
           style="fill:none;fill-opacity:1;stroke:#ffffff;stroke-width:0.449438;stroke-linecap:square;stroke-opacity:1"
           id="rect112266"
           width="24.111105"
           height="16.498615"
           x="42.213245"
           y="161.21994" />
        <g
           id="g112272"
           transform="translate(0.78754018,0.17925536)"
           style="fill:#ff8841;fill-opacity:1">
          <rect
             style="fill:#ff8841;fill-opacity:1;stroke:none;stroke-width:0.494671;stroke-linecap:square;stroke-opacity:1"
             id="rect112268"
             width="4.7572627"
             height="2.1234"
             x="58.645493"
             y="175.20145"
             ry="0.51975" />
          <rect
             style="fill:#ff8841;fill-opacity:1;stroke:none;stroke-width:0.494671;stroke-linecap:square;stroke-opacity:1"
             id="rect112270"
             width="4.7572632"
             height="1.0467728"
             x="58.645493"
             y="176.27808"
             ry="0" />
        </g>
      </g>
      <g
         id="use61236"
         transform="matrix(1.2501119,0.43246794,-0.43246794,1.2501119,203.0455,-96.364908)">
        <rect
           style="fill:#ff8841;fill-opacity:1;stroke-width:0.582083;stroke-linecap:square"
           id="rect112242"
           width="3.7124999"
           height="3.7124999"
           x="62.963997"
           y="201.36601"
           ry="1.3365" />
        <g
           id="g112248"
           transform="translate(0,0.4455)">
          <rect
             style="fill:#ff8841;fill-opacity:1;stroke-width:0.582404;stroke-linecap:square"
             id="rect112244"
             width="10.426773"
             height="13.415207"
             x="55.775295"
             y="190.52849"
             ry="0.71141255" />
          <rect
             style="fill:#ff8841;fill-opacity:1;stroke-width:0.582404;stroke-linecap:square"
             id="rect112246"
             width="10.426773"
             height="13.415207"
             x="63.269539"
             y="190.52849"
             ry="0.71141255" />
        </g>
        <g
           id="g112254"
           transform="matrix(0.91547596,0,0,0.91547596,4.8846481,17.26319)"
           style="fill:#ffffff;fill-opacity:1">
          <rect
             style="fill:#ffffff;fill-opacity:1;stroke-width:0.54904;stroke-linecap:square"
             id="rect112250"
             width="9.5409441"
             height="13.029107"
             x="56.982182"
             y="182.88181"
             ry="0.69093752"
             transform="matrix(0.99316325,0.11673374,0,1,0,0)" />
          <rect
             style="fill:#ffffff;fill-opacity:1;stroke-width:0.54904;stroke-linecap:square"
             id="rect112252"
             width="9.5409441"
             height="13.029107"
             x="-74.672089"
             y="198.25031"
             ry="0.69093752"
             transform="matrix(-0.99316325,0.11673374,0,1,0,0)" />
        </g>
        <g
           id="g112260"
           transform="matrix(0.91547596,0,0,0.91547596,4.8846481,16.318142)">
          <rect
             style="fill:#5599ff;fill-opacity:1;stroke-width:0.54904;stroke-linecap:square"
             id="rect112256"
             width="9.5409441"
             height="13.029107"
             x="56.982182"
             y="182.88181"
             ry="0.69093752"
             transform="matrix(0.99316325,0.11673374,0,1,0,0)" />
          <rect
             style="fill:#5599ff;fill-opacity:1;stroke-width:0.54904;stroke-linecap:square"
             id="rect112258"
             width="9.5409441"
             height="13.029107"
             x="-74.672089"
             y="198.25031"
             ry="0.69093752"
             transform="matrix(-0.99316325,0.11673374,0,1,0,0)" />
        </g>
      </g>
      <g
         id="g78594"
         transform="matrix(1.8874881,-2.2529808,2.2529808,1.8874881,73.554349,-541.71671)">
        <path
           style="opacity:0.509652;fill:#6c86b4;fill-opacity:1;stroke:none;stroke-width:0.582083;stroke-linecap:square;stroke-opacity:1"
           d="m -107.9455,170.10868 3.04515,6.93035 -9.34547,-4.83025 z"
           id="path78584"
           sodipodi:nodetypes="cccc" />
        <path
           style="opacity:1;fill:#6c86b4;fill-opacity:1;stroke:none;stroke-width:0.582083;stroke-linecap:square;stroke-opacity:1"
           d="m -101.39949,168.88223 -1.05006,3.67519 -2.31011,-2.73015 z"
           id="path78586"
           sodipodi:nodetypes="cccc" />
        <path
           style="opacity:1;fill:#ff8d3f;fill-opacity:1;stroke:none;stroke-width:0.291041;stroke-linecap:square;stroke-opacity:1"
           d="m -110.82724,167.64106 -0.52503,1.83759 -1.15505,-1.36507 z"
           id="path78588"
           sodipodi:nodetypes="cccc" />
        <path
           style="opacity:1;fill:#ff8d3f;fill-opacity:1;stroke:none;stroke-width:0.529803;stroke-linecap:square;stroke-opacity:1"
           d="m -101.73753,174.17079 -4.17043,3.99695 -1.754,-5.19645 z"
           id="path78590"
           sodipodi:nodetypes="cccc" />
        <path
           style="opacity:0.586873;fill:#ff8d3f;fill-opacity:1;stroke:none;stroke-width:0.336029;stroke-linecap:square;stroke-opacity:1"
           d="m -98.686053,173.57936 0.862835,2.03084 -2.028017,-0.38685 z"
           id="path78592"
           sodipodi:nodetypes="cccc" />
      </g>
      <g
         id="g78564"
         transform="matrix(1.497252,0,0,1.497252,152.96926,-116.80998)">
        <path
           style="opacity:0.509652;fill:#6c86b4;fill-opacity:1;stroke:none;stroke-width:0.582083;stroke-linecap:square;stroke-opacity:1"
           d="m -107.9455,170.10868 3.04515,6.93035 -9.34547,-4.83025 z"
           id="path70470"
           sodipodi:nodetypes="cccc" />
        <path
           style="opacity:1;fill:#6c86b4;fill-opacity:1;stroke:none;stroke-width:0.582083;stroke-linecap:square;stroke-opacity:1"
           d="m -99.12505,176.30399 -1.05006,3.67519 -2.31011,-2.73015 z"
           id="path71873"
           sodipodi:nodetypes="cccc" />
        <path
           style="opacity:1;fill:#ff8d3f;fill-opacity:1;stroke:none;stroke-width:0.291041;stroke-linecap:square;stroke-opacity:1"
           d="m -110.82724,167.64106 -0.52503,1.83759 -1.15505,-1.36507 z"
           id="path73874"
           sodipodi:nodetypes="cccc" />
        <path
           style="opacity:1;fill:#ff8d3f;fill-opacity:1;stroke:none;stroke-width:1.30467;stroke-linecap:square;stroke-opacity:1"
           d="m -92.857771,166.2382 -10.269909,9.84271 -4.31933,-12.79656 z"
           id="path73876"
           sodipodi:nodetypes="cccc" />
        <path
           style="opacity:0.586873;fill:#ff8d3f;fill-opacity:1;stroke:none;stroke-width:0.336029;stroke-linecap:square;stroke-opacity:1"
           d="m -98.686053,173.57936 0.862835,2.03084 -2.028017,-0.38685 z"
           id="path75658"
           sodipodi:nodetypes="cccc" />
      </g>
    </g>
    <text
       xml:space="preserve"
       style="font-style:normal;font-weight:normal;font-size:21.5122px;line-height:1.25;font-family:sans-serif;fill:#000000;fill-opacity:1;stroke:none;stroke-width:0.537807"
       x="27.636393"
       y="50.398373"
       id="text113633"><tspan
         sodipodi:role="line"
         id="tspan113631"
         style="font-style:normal;font-variant:normal;font-weight:normal;font-stretch:normal;font-family:Arvo;-inkscape-font-specification:Arvo;stroke-width:0.537807"
         x="27.636393"
         y="50.398373">Sertifikat</tspan></text>
  </g>
</svg>
